note,velocity,time_symb,pitch,hand,time_wav
74,86,2.0,D5,R,1.0
38,77,2.0,D2,L,1.0
71,71,2.5,B4,R,1.25
38,0,2.5,D2,L,1.25
74,0,2.5,D5,R,1.25
37,64,2.5,C#2,L,1.25
34,64,2.5,A#1,L,1.25
73,69,2.5,C#5,R,1.25
33,77,2.6666666666666665,A1,L,1.3333333333333333
69,76,2.6666666666666665,A4,R,1.3333333333333333
35,64,2.6666666666666665,B1,L,1.3333333333333333
34,0,2.6666666666666665,A#1,L,1.3333333333333333
37,0,2.6666666666666665,C#2,L,1.3333333333333333
73,0,2.6666666666666665,C#5,R,1.3333333333333333
71,0,2.6666666666666665,B4,R,1.3333333333333333
35,0,2.833333333333333,B1,L,1.4166666666666665
33,0,2.833333333333333,A1,L,1.4166666666666665
69,0,2.833333333333333,A4,R,1.4166666666666665
43,74,3.0,G2,L,1.5
79,76,3.0625,G5,R,1.53125
79,0,3.25,G5,R,1.625
42,79,3.375,F#2,L,1.6875
43,0,3.375,G2,L,1.6875
78,77,3.375,F#5,R,1.6875
78,0,3.5,F#5,R,1.75
42,0,3.5,F#2,L,1.75
40,60,3.75,E2,L,1.875
76,74,3.75,E5,R,1.875
40,0,4.0,E2,L,2.0
38,65,4.0,D2,L,2.0
76,0,4.0,E5,R,2.0
74,80,4.0,D5,R,2.0
38,0,4.375,D2,L,2.1875
47,69,4.4375,B2,L,2.21875
84,59,4.5,C6,R,2.25
83,58,4.5,B5,R,2.25
47,0,4.5,B2,L,2.25
74,0,4.5,D5,R,2.25
47,69,4.5,B2,L,2.25
47,0,4.75,B2,L,2.375
45,72,4.75,A2,L,2.375
84,0,4.75,C6,R,2.375
81,80,4.75,A5,R,2.375
83,0,4.75,B5,R,2.375
45,0,5.0,A2,L,2.5
81,0,5.0,A5,R,2.5
43,70,5.125,G2,L,2.5625
79,75,5.125,G5,R,2.5625
42,79,5.375,F#2,L,2.6875
43,0,5.375,G2,L,2.6875
42,0,5.5,F#2,L,2.75
79,0,5.5,G5,R,2.75
78,78,5.5,F#5,R,2.75
86,77,5.75,D6,R,2.875
78,0,5.75,F#5,R,2.875
50,83,5.75,D3,L,2.875
50,0,6.0,D3,L,3.0
86,0,6.0,D6,R,3.0
49,75,6.125,C#3,L,3.0625
85,82,6.125,C#6,R,3.0625
49,0,6.375,C#3,L,3.1875
85,0,6.375,C#6,R,3.1875
47,76,6.375,B2,L,3.1875
83,80,6.40625,B5,R,3.203125
83,0,6.5,B5,R,3.25
47,0,6.5,B2,L,3.25
45,76,6.75,A2,L,3.375
81,74,6.75,A5,R,3.375
81,0,7.0,A5,R,3.5
45,0,7.0,A2,L,3.5
55,78,7.125,G3,L,3.5625
91,75,7.125,G6,R,3.5625
90,77,7.375,F#6,R,3.6875
91,0,7.375,G6,R,3.6875
55,0,7.375,G3,L,3.6875
54,78,7.40625,F#3,L,3.703125
54,0,7.5,F#3,L,3.75
90,0,7.5,F#6,R,3.75
88,76,7.75,E6,R,3.875
52,80,7.75,E3,L,3.875
52,0,8.0,E3,L,4.0
88,0,8.0,E6,R,4.0
50,90,8.125,D3,L,4.0625
86,91,8.125,D6,R,4.0625
86,0,8.5,D6,R,4.25
50,0,8.5,D3,L,4.25
88,94,9.5,E6,R,4.75
76,69,9.5,E5,R,4.75
52,82,9.5,E3,L,4.75
64,81,9.5,E4,L,4.75
52,0,10.0,E3,L,5.0
64,0,10.0,E4,L,5.0
76,0,10.0,E5,R,5.0
88,0,10.0,E6,R,5.0
89,97,10.21875,F6,R,5.109375
77,89,10.21875,F5,R,5.109375
89,97,10.25,F6,R,5.125
53,92,10.25,F3,L,5.125
77,89,10.25,F5,R,5.125
89,0,10.25,F6,R,5.125
65,77,10.25,F4,L,5.125
77,0,10.25,F5,R,5.125
65,0,11.0,F4,L,5.5
53,0,11.0,F3,L,5.5
77,0,11.0,F5,R,5.5
89,0,11.0,F6,R,5.5
46,52,13.0,A#2,R,6.5
34,45,13.0,A#1,L,6.5
46,0,14.0,A#2,R,7.0
34,0,15.0,A#1,L,7.5
66,42,15.875,F#4,R,7.9375
62,25,16.0,D4,R,8.0
33,47,16.0,A1,L,8.0
66,42,16.0,F#4,R,8.0
66,0,16.0,F#4,R,8.0
57,40,16.5,A3,R,8.25
62,0,16.5,D4,R,8.25
45,27,16.5,A2,L,8.25
45,0,16.75,A2,L,8.375
66,46,16.75,F#4,R,8.375
57,0,16.75,A3,R,8.375
62,20,16.75,D4,L,8.375
45,27,16.75,A2,L,8.375
57,45,17.0,A3,R,8.5
66,0,17.0,F#4,R,8.5
66,0,17.0,F#4,R,8.5
45,0,17.0,A2,L,8.5
62,0,17.0,D4,L,8.5
45,27,17.0,A2,L,8.5
45,0,17.5,A2,L,8.75
45,27,17.5,A2,L,8.75
62,35,17.5,D4,L,8.75
57,0,17.5,A3,R,8.75
66,48,17.5,F#4,R,8.75
57,44,17.833333333333332,A3,R,8.916666666666666
66,0,17.833333333333332,F#4,R,8.916666666666666
57,0,18.0,A3,R,9.0
57,44,18.0,A3,R,9.0
45,27,18.0,A2,L,9.0
45,0,18.0,A2,L,9.0
62,0,18.0,D4,L,9.0
67,53,18.0,G4,R,9.0
64,49,18.5,E4,R,9.25
57,0,18.5,A3,R,9.25
64,0,18.75,E4,R,9.375
57,42,18.875,A3,R,9.4375
57,0,19.0,A3,R,9.5
67,0,19.0,G4,R,9.5
67,44,19.25,G4,R,9.625
64,34,19.5,E4,R,9.75
67,0,19.5,G4,R,9.75
64,0,19.625,E4,R,9.8125
57,47,19.625,A3,R,9.8125
57,0,20.0,A3,R,10.0
62,41,20.0,D4,R,10.0
66,48,20.0,F#4,R,10.0
45,0,20.0,A2,L,10.0
33,0,20.0,A1,L,10.0
33,54,20.0625,A1,L,10.03125
45,42,20.0625,A2,L,10.03125
33,54,20.25,A1,L,10.125
45,42,20.25,A2,L,10.125
45,0,20.25,A2,L,10.125
33,0,20.25,A1,L,10.125
62,0,20.5,D4,R,10.25
57,42,20.5,A3,R,10.25
66,0,20.5,F#4,R,10.25
45,0,21.0,A2,L,10.5
45,44,21.0,A2,L,10.5
57,0,21.0,A3,R,10.5
49,47,21.0,C#3,L,10.5
33,0,21.0,A1,L,10.5
61,37,21.083333333333332,C#4,R,10.541666666666666
64,52,21.083333333333332,E4,R,10.541666666666666
57,47,21.333333333333332,A3,R,10.666666666666666
61,0,21.333333333333332,C#4,R,10.666666666666666
64,0,21.333333333333332,E4,R,10.666666666666666
57,0,21.5,A3,R,10.75
45,29,21.75,A2,L,10.875
49,0,21.75,C#3,L,10.875
45,0,21.75,A2,L,10.875
49,35,21.75,C#3,R,10.875
45,0,22.0,A2,L,11.0
49,0,22.0,C#3,R,11.0
57,44,22.125,A3,R,11.0625
49,36,22.5,C#3,R,11.25
57,0,22.5,A3,R,11.25
45,38,22.5,A2,L,11.25
49,0,23.0,C#3,R,11.5
57,41,23.0,A3,R,11.5
45,0,23.0,A2,L,11.5
57,0,23.166666666666668,A3,R,11.583333333333334
45,43,23.25,A2,L,11.625
49,37,23.333333333333332,C#3,R,11.666666666666666
49,0,23.5,C#3,R,11.75
49,37,23.5,C#3,R,11.75
49,0,23.75,C#3,R,11.875
57,45,23.75,A3,R,11.875
50,54,24.0,D3,R,12.0
47,47,24.0,B2,L,12.0
45,0,24.0,A2,L,12.0
57,0,24.0,A3,R,12.0
50,0,24.5,D3,R,12.25
57,51,24.583333333333332,A3,R,12.291666666666666
57,0,24.666666666666664,A3,R,12.333333333333332
47,0,24.75,B2,L,12.375
49,43,24.8125,C#3,L,12.40625
52,46,24.833333333333332,E3,R,12.416666666666666
52,0,25.0,E3,R,12.5
49,0,25.0,C#3,L,12.5
57,51,25.25,A3,R,12.625
50,50,25.5,D3,L,12.75
57,0,25.5,A3,R,12.75
66,41,25.5,F#4,R,12.75
57,50,26.0,A3,R,13.0
66,0,26.0,F#4,R,13.0
50,0,26.0,D3,L,13.0
57,0,26.4,A3,R,13.2
66,56,26.4,F#4,R,13.2
50,44,26.5,D3,L,13.25
54,40,26.5,F#3,L,13.25
66,0,26.799999999999997,F#4,R,13.399999999999999
57,38,26.8,A3,R,13.4
50,0,27.0,D3,L,13.5
54,0,27.0,F#3,L,13.5
57,0,27.2,A3,R,13.6
66,55,27.2,F#4,R,13.6
50,44,27.25,D3,L,13.625
54,42,27.25,F#3,L,13.625
66,0,27.599999999999998,F#4,R,13.799999999999999
57,46,27.6,A3,R,13.8
66,60,28.0,F#4,R,14.0
57,0,28.0,A3,R,14.0
50,0,28.0,D3,L,14.0
54,0,28.0,F#3,L,14.0
50,46,28.0,D3,L,14.0
54,39,28.25,F#3,R,14.125
57,44,28.5,A3,R,14.25
54,0,28.5,F#3,R,14.25
50,0,28.75,D3,L,14.375
50,52,28.875,D3,L,14.4375
54,42,28.875,F#3,L,14.4375
50,0,29.0,D3,L,14.5
54,0,29.0,F#3,L,14.5
50,52,29.0,D3,L,14.5
54,42,29.0,F#3,L,14.5
57,0,29.0,A3,R,14.5
67,61,29.0,G4,R,14.5
66,0,29.0,F#4,R,14.5
57,50,29.125,A3,R,14.5625
67,0,29.125,G4,R,14.5625
57,0,29.5,A3,R,14.75
57,57,29.75,A3,L,14.875
54,0,29.75,F#3,L,14.875
50,0,29.75,D3,L,14.875
69,65,29.75,A4,R,14.875
54,53,29.75,F#3,L,14.875
69,0,30.0,A4,R,15.0
54,0,30.0,F#3,L,15.0
57,0,30.0,A3,L,15.0
62,40,30.25,D4,R,15.125
62,0,30.375,D4,R,15.1875
74,69,30.375,D5,R,15.1875
74,0,30.5,D5,R,15.25
55,54,30.5,G3,L,15.25
83,77,30.5,B5,R,15.25
62,47,31.0,D4,R,15.5
55,0,31.0,G3,L,15.5
59,53,31.083333333333332,B3,L,15.541666666666666
59,0,31.333333333333332,B3,L,15.666666666666666
55,48,31.333333333333332,G3,L,15.666666666666666
55,48,31.5,G3,L,15.75
55,0,31.5,G3,L,15.75
55,0,31.75,G3,L,15.875
59,41,31.75,B3,L,15.875
62,46,31.75,D4,R,15.875
62,0,31.75,D4,R,15.875
59,0,32.0,B3,L,16.0
83,0,32.0,B5,R,16.0
85,78,32.0,C#6,R,16.0
55,43,32.0,G3,L,16.0
62,0,32.0,D4,R,16.0
55,0,32.375,G3,L,16.1875
86,85,32.375,D6,L,16.1875
85,0,32.5,C#6,R,16.25
62,43,32.5,D4,R,16.25
86,0,32.5,D6,L,16.25
86,85,32.5,D6,L,16.25
59,43,32.5,B3,L,16.25
86,0,33.0,D6,L,16.5
59,0,33.0,B3,L,16.5
62,0,33.0,D4,R,16.5
86,83,33.0,D6,R,16.5
55,47,33.0,G3,L,16.5
55,0,33.25,G3,L,16.625
59,37,33.25,B3,L,16.625
62,39,33.25,D4,R,16.625
59,0,33.5,B3,L,16.75
55,33,33.5,G3,L,16.75
62,0,33.5,D4,R,16.75
79,75,33.5,G5,R,16.75
62,38,34.0,D4,R,17.0
55,0,34.0,G3,L,17.0
59,28,34.0,B3,L,17.0
79,0,34.0,G5,R,17.0
79,75,34.0,G5,R,17.0
86,0,34.0,D6,R,17.0
81,83,34.25,A5,R,17.125
79,75,34.25,G5,R,17.125
79,0,34.25,G5,R,17.125
62,0,34.25,D4,R,17.125
55,43,34.25,G3,L,17.125
59,0,34.25,B3,L,17.125
81,0,34.5,A5,R,17.25
79,0,34.5,G5,R,17.25
81,83,34.5,A5,R,17.25
55,0,34.5,G3,L,17.25
62,36,34.625,D4,L,17.3125
59,45,34.625,B3,L,17.3125
81,0,34.625,A5,R,17.3125
83,79,34.625,B5,R,17.3125
57,52,35.0,A3,L,17.5
62,0,35.0,D4,L,17.5
59,0,35.0,B3,L,17.5
83,0,35.0,B5,R,17.5
83,76,35.0,B5,R,17.5
61,48,35.5,C#4,L,17.75
57,0,35.5,A3,L,17.75
57,43,35.75,A3,L,17.875
61,33,36.0,C#4,L,18.0
57,43,36.0,A3,L,18.0
61,0,36.0,C#4,L,18.0
76,70,36.0,E5,R,18.0
83,0,36.0,B5,R,18.0
57,0,36.0,A3,L,18.0
64,51,36.25,E4,R,18.125
57,42,36.5,A3,L,18.25
61,0,36.5,C#4,L,18.25
78,82,36.5,F#5,R,18.25
64,0,36.5,E4,R,18.25
79,87,36.875,G5,R,18.4375
78,0,36.875,F#5,R,18.4375
61,50,37.0,C#4,L,18.5
57,0,37.0,A3,L,18.5
57,0,37.0,A3,L,18.5
76,0,37.0,E5,R,18.5
79,0,37.0,G5,R,18.5
64,43,37.0,E4,R,18.5
61,0,37.333333333333336,C#4,L,18.666666666666668
57,46,37.333333333333336,A3,L,18.666666666666668
79,81,37.5,G5,R,18.75
61,35,37.666666666666664,C#4,L,18.833333333333332
57,0,37.66666666666667,A3,L,18.833333333333336
64,46,37.75,E4,R,18.875
64,0,37.75,E4,R,18.875
73,76,38.0,C#5,R,19.0
61,0,38.0,C#4,L,19.0
79,0,38.0,G5,R,19.0
64,0,38.0,E4,R,19.0
58,48,38.0,A#3,L,19.0
58,0,38.4,A#3,L,19.2
61,43,38.4,C#4,L,19.2
64,49,38.5,E4,R,19.25
61,0,38.8,C#4,L,19.4
76,68,38.8,E5,L,19.4
73,0,39.0,C#5,R,19.5
64,0,39.0,E4,R,19.5
59,47,39.0,B3,R,19.5
59,0,39.125,B3,R,19.5625
74,77,39.125,D5,R,19.5625
76,0,39.199999999999996,E5,L,19.599999999999998
62,50,39.25,D4,R,19.625
74,0,39.25,D5,R,19.625
62,0,39.5,D4,R,19.75
74,69,39.5,D5,R,19.75
59,53,39.6,B3,L,19.8
76,70,39.75,E5,R,19.875
74,0,39.75,D5,R,19.875
62,46,40.0,D4,L,20.0
59,0,40.0,B3,L,20.0
74,71,40.0,D5,R,20.0
76,0,40.0,E5,R,20.0
73,69,40.25,C#5,R,20.125
74,0,40.25,D5,R,20.125
55,54,40.5,G3,L,20.25
74,72,40.5,D5,R,20.25
73,0,40.5,C#5,R,20.25
62,0,40.5,D4,L,20.25
74,0,40.75,D5,R,20.375
71,65,40.75,B4,R,20.375
62,42,41.0,D4,R,20.5
59,45,41.0,B3,L,20.5
55,0,41.0,G3,L,20.5
71,0,41.0,B4,R,20.5
73,71,41.125,C#5,R,20.5625
55,45,41.25,G3,L,20.625
59,0,41.25,B3,L,20.625
74,79,41.25,D5,R,20.625
73,0,41.25,C#5,R,20.625
59,55,41.5,B3,L,20.75
55,0,41.5,G3,L,20.75
76,81,41.5,E5,R,20.75
74,0,41.5,D5,R,20.75
62,45,41.5,D4,L,20.75
76,0,41.75,E5,R,20.875
78,86,41.75,F#5,R,20.875
55,52,42.0,G3,L,21.0
62,0,42.0,D4,L,21.0
62,0,42.0,D4,R,21.0
59,0,42.0,B3,L,21.0
78,0,42.0,F#5,R,21.0
79,83,42.0,G5,R,21.0
81,82,42.25,A5,R,21.125
59,57,42.25,B3,L,21.125
79,0,42.25,G5,R,21.125
81,0,42.5,A5,R,21.25
62,42,42.5,D4,R,21.25
59,0,42.5,B3,L,21.25
59,57,42.5,B3,L,21.25
83,74,42.5,B5,L,21.25
59,0,42.75,B3,L,21.375
55,50,42.75,G3,L,21.375
85,87,42.75,C#6,R,21.375
62,0,42.75,D4,R,21.375
83,0,42.75,B5,L,21.375
55,0,43.0,G3,L,21.5
55,0,43.0,G3,L,21.5
86,84,43.0,D6,R,21.5
85,0,43.0,C#6,R,21.5
55,50,43.0,G3,L,21.5
83,81,43.166666666666664,B5,R,21.583333333333332
86,0,43.166666666666664,D6,R,21.583333333333332
62,48,43.25,D4,L,21.625
55,0,43.25,G3,L,21.625
59,52,43.25,B3,L,21.625
59,0,43.5,B3,L,21.75
62,0,43.5,D4,L,21.75
83,0,43.5,B5,R,21.75
55,51,43.5,G3,L,21.75
85,85,43.583333333333336,C#6,R,21.791666666666668
86,80,43.666666666666664,D6,R,21.833333333333332
85,0,43.66666666666667,C#6,R,21.833333333333336
55,0,43.75,G3,L,21.875
59,54,43.75,B3,L,21.875
86,0,43.83333333333333,D6,R,21.916666666666664
86,80,43.833333333333336,D6,R,21.916666666666668
62,58,43.833333333333336,D4,R,21.916666666666668
59,0,44.0,B3,L,22.0
83,75,44.0,B5,R,22.0
86,0,44.0,D6,R,22.0
62,0,44.0,D4,R,22.0
57,60,44.375,A3,L,22.1875
62,49,44.375,D4,L,22.1875
81,69,44.375,A5,R,22.1875
66,36,44.375,F#4,L,22.1875
83,0,44.375,B5,R,22.1875
57,0,44.5,A3,L,22.25
81,0,44.5,A5,R,22.25
62,0,44.5,D4,L,22.25
66,0,44.5,F#4,L,22.25
90,63,44.625,F#6,R,22.3125
90,0,44.75,F#6,R,22.375
86,65,44.8125,D6,R,22.40625
86,0,45.0,D6,R,22.5
93,77,45.0,A6,R,22.5
93,0,45.25,A6,R,22.625
90,70,45.25,F#6,R,22.625
86,64,45.5,D6,R,22.75
90,0,45.5,F#6,R,22.75
50,63,45.75,D3,L,22.875
54,41,45.75,F#3,L,22.875
45,53,45.75,A2,L,22.875
86,0,45.75,D6,R,22.875
81,54,45.75,A5,R,22.875
50,0,46.0,D3,L,23.0
78,61,46.0,F#5,R,23.0
81,0,46.0,A5,R,23.0
54,0,46.0,F#3,L,23.0
45,0,46.0,A2,L,23.0
74,55,46.25,D5,R,23.125
78,0,46.25,F#5,R,23.125
69,63,46.4375,A4,R,23.21875
74,0,46.4375,D5,R,23.21875
69,0,46.5,A4,R,23.25
66,53,46.75,F#4,R,23.375
66,0,47.0,F#4,R,23.5
62,57,47.0,D4,R,23.5
45,50,47.1875,A2,L,23.59375
57,59,47.1875,A3,R,23.59375
62,0,47.1875,D4,R,23.59375
33,62,47.1875,A1,L,23.59375
57,59,47.25,A3,R,23.625
33,0,47.25,A1,L,23.625
45,50,47.25,A2,L,23.625
45,0,47.25,A2,L,23.625
33,62,47.25,A1,L,23.625
57,0,47.25,A3,R,23.625
57,0,47.5,A3,R,23.75
67,67,47.5,G4,R,23.75
67,0,47.625,G4,R,23.8125
61,52,47.625,C#4,R,23.8125
33,62,47.75,A1,L,23.875
45,50,47.75,A2,L,23.875
33,0,47.75,A1,L,23.875
45,0,47.75,A2,L,23.875
61,0,47.875,C#4,R,23.9375
57,57,47.9375,A3,R,23.96875
33,66,47.9375,A1,L,23.96875
45,56,47.9375,A2,L,23.96875
33,0,47.9375,A1,L,23.96875
45,0,47.9375,A2,L,23.96875
57,0,48.0,A3,R,24.0
33,0,48.0,A1,L,24.0
57,57,48.0,A3,R,24.0
33,66,48.0,A1,L,24.0
45,56,48.0,A2,L,24.0
45,0,48.0,A2,L,24.0
57,0,48.25,A3,R,24.125
64,57,48.291666666666664,E4,R,24.145833333333332
64,0,48.33333333333333,E4,R,24.166666666666664
61,54,48.416666666666664,C#4,R,24.208333333333332
61,0,48.5,C#4,R,24.25
66,74,48.75,F#4,R,24.375
33,0,48.75,A1,L,24.375
45,0,48.75,A2,L,24.375
38,86,48.75,D2,L,24.375
66,0,49.0,F#4,R,24.5
57,58,49.0,A3,R,24.5
38,0,49.0,D2,L,24.5
66,62,49.125,F#4,R,24.5625
57,0,49.1875,A3,R,24.59375
38,50,49.1875,D2,R,24.59375
38,50,49.25,D2,R,24.625
38,0,49.25,D2,R,24.625
57,49,49.34375,A3,R,24.671875
38,0,49.34375,D2,R,24.671875
57,49,49.375,A3,R,24.6875
57,0,49.375,A3,R,24.6875
38,60,49.5,D2,L,24.75
66,0,49.5,F#4,R,24.75
66,60,49.5,F#4,R,24.75
57,0,49.5,A3,R,24.75
38,0,49.666666666666664,D2,L,24.833333333333332
57,63,49.666666666666664,A3,R,24.833333333333332
66,0,49.666666666666664,F#4,R,24.833333333333332
57,0,49.83333333333333,A3,R,24.916666666666664
66,66,49.833333333333336,F#4,R,24.916666666666668
38,62,49.833333333333336,D2,L,24.916666666666668
66,0,50.0,F#4,R,25.0
38,0,50.0,D2,L,25.0
57,62,50.0,A3,R,25.0
38,65,50.25,D2,L,25.125
57,0,50.25,A3,R,25.125
66,66,50.291666666666664,F#4,R,25.145833333333332
66,0,50.33333333333333,F#4,R,25.166666666666664
57,52,50.416666666666664,A3,R,25.208333333333332
38,63,50.5,D2,L,25.25
38,0,50.5,D2,L,25.25
57,0,50.5,A3,R,25.25
66,63,50.5625,F#4,R,25.28125
57,55,50.75,A3,R,25.375
66,0,50.75,F#4,R,25.375
38,81,51.0,D2,L,25.5
57,0,51.0,A3,R,25.5
66,67,51.0,F#4,R,25.5
38,0,51.0,D2,L,25.5
66,0,51.083333333333336,F#4,R,25.541666666666668
57,58,51.166666666666664,A3,R,25.583333333333332
57,0,51.25,A3,R,25.625
66,70,51.375,F#4,R,25.6875
38,0,51.375,D2,L,25.6875
38,74,51.375,D2,L,25.6875
66,0,51.5,F#4,R,25.75
38,0,51.5,D2,L,25.75
57,60,51.5625,A3,R,25.78125
67,76,51.75,G4,R,25.875
40,72,51.75,E2,L,25.875
57,0,51.75,A3,R,25.875
57,58,51.9375,A3,R,25.96875
40,64,52.0,E2,L,26.0
40,0,52.0,E2,L,26.0
57,58,52.0,A3,R,26.0
67,79,52.0,G4,R,26.0
57,0,52.0,A3,R,26.0
67,0,52.0,G4,R,26.0
67,0,52.25,G4,R,26.125
57,55,52.3125,A3,R,26.15625
40,0,52.5,E2,L,26.25
42,76,52.5,F#2,L,26.25
57,0,52.5,A3,R,26.25
69,72,52.5,A4,R,26.25
42,0,52.6875,F#2,L,26.34375
57,54,52.6875,A3,L,26.34375
57,0,52.75,A3,L,26.375
42,67,52.75,F#2,L,26.375
69,73,52.875,A4,L,26.4375
42,0,52.875,F#2,L,26.4375
69,0,53.0,A4,R,26.5
57,67,53.0,A3,L,26.5
57,0,53.0,A3,R,26.5
69,0,53.0,A4,L,26.5
57,0,53.083333333333336,A3,L,26.541666666666668
31,83,53.208333333333336,G1,L,26.604166666666668
71,84,53.25,B4,R,26.625
31,83,53.25,G1,L,26.625
62,80,53.25,D4,R,26.625
31,0,53.25,G1,L,26.625
31,0,53.375,G1,L,26.6875
59,70,53.4375,B3,L,26.71875
71,0,53.5,B4,R,26.75
62,0,53.5,D4,R,26.75
59,70,53.5,B3,L,26.75
59,0,53.5,B3,L,26.75
62,70,53.5625,D4,R,26.78125
43,66,53.5625,G2,L,26.78125
59,0,53.625,B3,L,26.8125
71,58,53.625,B4,L,26.8125
43,0,53.75,G2,L,26.875
71,0,53.75,B4,L,26.875
62,0,53.75,D4,R,26.875
59,50,53.8125,B3,L,26.90625
62,53,54.0,D4,R,27.0
71,62,54.0,B4,R,27.0
59,0,54.0,B3,L,27.0
43,63,54.0,G2,L,27.0
43,0,54.166666666666664,G2,L,27.083333333333332
59,64,54.166666666666664,B3,L,27.083333333333332
62,0,54.166666666666664,D4,R,27.083333333333332
71,0,54.166666666666664,B4,R,27.083333333333332
59,0,54.33333333333333,B3,L,27.166666666666664
71,67,54.333333333333336,B4,R,27.166666666666668
43,61,54.333333333333336,G2,L,27.166666666666668
62,51,54.333333333333336,D4,R,27.166666666666668
71,0,54.5,B4,R,27.25
62,0,54.5,D4,R,27.25
59,61,54.5,B3,L,27.25
43,0,54.5,G2,L,27.25
59,0,54.625,B3,L,27.3125
62,41,54.6875,D4,R,27.34375
71,60,54.6875,B4,R,27.34375
43,61,54.6875,G2,L,27.34375
71,0,54.75,B4,R,27.375
71,60,54.75,B4,R,27.375
62,0,54.75,D4,R,27.375
62,41,54.75,D4,R,27.375
43,61,54.75,G2,L,27.375
43,0,54.75,G2,L,27.375
43,0,54.875,G2,L,27.4375
59,55,54.875,B3,L,27.4375
62,0,55.0,D4,R,27.5
71,0,55.0,B4,R,27.5
62,51,55.0,D4,R,27.5
59,0,55.0,B3,L,27.5
71,61,55.0,B4,R,27.5
43,69,55.0,G2,L,27.5
43,0,55.25,G2,L,27.625
59,73,55.291666666666664,B3,L,27.645833333333332
59,0,55.33333333333333,B3,L,27.666666666666664
31,80,55.416666666666664,G1,L,27.708333333333332
31,0,55.5,G1,L,27.75
71,0,55.5,B4,R,27.75
62,0,55.5,D4,R,27.75
31,80,55.5,G1,L,27.75
71,76,55.583333333333336,B4,R,27.791666666666668
62,68,55.583333333333336,D4,R,27.791666666666668
31,0,55.625,G1,L,27.8125
59,74,55.625,B3,L,27.8125
71,0,55.66666666666667,B4,R,27.833333333333336
62,0,55.66666666666667,D4,R,27.833333333333336
71,58,55.833333333333336,B4,R,27.916666666666668
62,53,55.833333333333336,D4,R,27.916666666666668
43,65,55.875,G2,L,27.9375
59,0,55.875,B3,L,27.9375
71,0,56.0,B4,R,28.0
62,0,56.0,D4,R,28.0
59,61,56.0,B3,L,28.0
43,0,56.0,G2,L,28.0
59,0,56.125,B3,L,28.0625
43,69,56.1875,G2,L,28.09375
62,52,56.25,D4,R,28.125
71,53,56.25,B4,R,28.125
43,69,56.25,G2,L,28.125
43,0,56.25,G2,L,28.125
43,0,56.375,G2,L,28.1875
59,63,56.375,B3,L,28.1875
59,0,56.5,B3,L,28.25
71,0,56.5,B4,R,28.25
62,0,56.5,D4,R,28.25
71,61,56.5625,B4,R,28.28125
62,55,56.5625,D4,R,28.28125
43,63,56.5625,G2,L,28.28125
59,58,56.75,B3,L,28.375
62,0,56.75,D4,R,28.375
71,0,56.75,B4,R,28.375
43,0,56.75,G2,L,28.375
43,67,56.875,G2,L,28.4375
59,0,56.875,B3,L,28.4375
71,59,56.875,B4,R,28.4375
62,63,56.875,D4,R,28.4375
71,0,57.0,B4,R,28.5
62,0,57.0,D4,R,28.5
43,0,57.0,G2,L,28.5
59,53,57.0625,B3,L,28.53125
62,49,57.25,D4,R,28.625
59,0,57.25,B3,L,28.625
71,72,57.25,B4,R,28.625
43,71,57.291666666666664,G2,L,28.645833333333332
43,0,57.33333333333333,G2,L,28.666666666666664
59,64,57.416666666666664,B3,L,28.708333333333332
62,0,57.5,D4,R,28.75
40,77,57.5,E2,L,28.75
71,0,57.5,B4,R,28.75
62,68,57.5,D4,R,28.75
68,80,57.5,G#4,R,28.75
59,0,57.5,B3,L,28.75
62,0,57.75,D4,R,28.875
68,0,57.75,G#4,R,28.875
59,69,57.8125,B3,R,28.90625
52,72,58.0,E3,L,29.0
40,0,58.0,E2,L,29.0
68,77,58.0,G#4,R,29.0
59,0,58.0,B3,R,29.0
62,61,58.0,D4,L,29.0
52,0,58.166666666666664,E3,L,29.083333333333332
62,0,58.166666666666664,D4,L,29.083333333333332
59,61,58.25,B3,R,29.125
68,0,58.25,G#4,R,29.125
52,71,58.333333333333336,E3,L,29.166666666666668
62,60,58.333333333333336,D4,L,29.166666666666668
68,76,58.34375,G#4,R,29.171875
59,0,58.34375,B3,R,29.171875
68,0,58.375,G#4,R,29.1875
68,76,58.375,G#4,R,29.1875
68,0,58.5,G#4,R,29.25
52,0,58.5,E3,L,29.25
62,0,58.5,D4,L,29.25
59,67,58.5625,B3,R,29.28125
68,75,58.6875,G#4,R,29.34375
59,0,58.6875,B3,R,29.34375
62,59,58.6875,D4,L,29.34375
52,69,58.6875,E3,L,29.34375
62,0,58.75,D4,L,29.375
68,0,58.75,G#4,R,29.375
68,75,58.75,G#4,R,29.375
52,0,58.75,E3,L,29.375
62,59,58.75,D4,L,29.375
52,69,58.75,E3,L,29.375
59,72,58.875,B3,R,29.4375
68,0,58.875,G#4,R,29.4375
52,69,59.0,E3,L,29.5
62,0,59.0,D4,L,29.5
52,0,59.0,E3,L,29.5
68,73,59.0,G#4,R,29.5
59,0,59.0,B3,R,29.5
62,48,59.0,D4,L,29.5
59,59,59.25,B3,R,29.625
68,0,59.25,G#4,R,29.625
62,0,59.375,D4,L,29.6875
68,76,59.375,G#4,R,29.6875
52,69,59.375,E3,L,29.6875
59,0,59.375,B3,R,29.6875
52,0,59.375,E3,L,29.6875
62,56,59.375,D4,L,29.6875
68,0,59.5,G#4,R,29.75
52,0,59.5,E3,L,29.75
62,0,59.5,D4,L,29.75
59,64,59.59375,B3,R,29.796875
59,0,59.625,B3,R,29.8125
59,64,59.625,B3,R,29.8125
68,77,59.75,G#4,R,29.875
40,69,59.75,E2,L,29.875
59,0,59.75,B3,R,29.875
62,64,59.75,D4,R,29.875
40,0,60.0,E2,L,30.0
62,0,60.0,D4,R,30.0
68,0,60.0,G#4,R,30.0
59,74,60.0,B3,R,30.0
62,61,60.125,D4,L,30.0625
52,66,60.125,E3,L,30.0625
59,0,60.125,B3,R,30.0625
68,74,60.125,G#4,R,30.0625
68,0,60.375,G#4,R,30.1875
59,66,60.375,B3,R,30.1875
68,71,60.5,G#4,R,30.25
59,0,60.5,B3,R,30.25
52,69,60.5,E3,L,30.25
62,0,60.5,D4,L,30.25
62,51,60.5,D4,L,30.25
52,0,60.5,E3,L,30.25
68,0,60.75,G#4,R,30.375
59,65,60.75,B3,R,30.375
62,0,60.875,D4,L,30.4375
52,0,60.875,E3,L,30.4375
62,59,60.875,D4,L,30.4375
59,0,60.875,B3,R,30.4375
68,73,60.875,G#4,R,30.4375
52,70,60.875,E3,L,30.4375
62,0,61.0,D4,L,30.5
68,0,61.0,G#4,R,30.5
52,0,61.0,E3,L,30.5
59,65,61.0625,B3,R,30.53125
68,73,61.1875,G#4,R,30.59375
59,0,61.1875,B3,R,30.59375
68,0,61.25,G#4,R,30.625
68,73,61.25,G#4,R,30.625
62,50,61.25,D4,L,30.625
52,72,61.25,E3,L,30.625
68,0,61.375,G#4,R,30.6875
59,64,61.375,B3,R,30.6875
52,0,61.5,E3,L,30.75
59,0,61.5,B3,R,30.75
68,74,61.5,G#4,R,30.75
62,0,61.5,D4,L,30.75
62,56,61.5,D4,L,30.75
62,0,61.625,D4,L,30.8125
52,74,61.625,E3,L,30.8125
59,74,61.6875,B3,L,30.84375
59,0,61.75,B3,L,30.875
68,0,61.875,G#4,R,30.9375
69,94,61.96875,A4,R,30.984375
60,79,61.96875,C4,R,30.984375
57,60,61.96875,A3,R,30.984375
57,0,62.0,A3,R,31.0
57,60,62.0,A3,R,31.0
60,79,62.0,C4,R,31.0
41,76,62.0,F2,L,31.0
52,0,62.0,E3,L,31.0
69,0,62.0,A4,R,31.0
60,0,62.0,C4,R,31.0
41,0,62.25,F2,L,31.125
45,67,62.25,A2,L,31.125
45,0,62.375,A2,L,31.1875
48,63,62.375,C3,L,31.1875
48,63,62.5,C3,L,31.25
48,0,62.5,C3,L,31.25
48,0,62.625,C3,L,31.3125
53,63,62.625,F3,L,31.3125
41,77,62.75,F2,L,31.375
53,0,62.75,F3,L,31.375
69,83,62.75,A4,R,31.375
72,80,62.75,C5,R,31.375
81,85,62.75,A5,R,31.375
77,73,62.75,F5,R,31.375
45,60,63.0,A2,L,31.5
41,0,63.0,F2,L,31.5
81,0,63.0,A5,R,31.5
72,0,63.0,C5,R,31.5
57,0,63.0,A3,R,31.5
77,0,63.0,F5,R,31.5
60,0,63.0,C4,R,31.5
69,0,63.0,A4,R,31.5
45,0,63.125,A2,L,31.5625
48,61,63.125,C3,L,31.5625
48,0,63.25,C3,L,31.625
53,66,63.3125,F3,L,31.65625
53,0,63.5,F3,L,31.75
41,72,63.583333333333336,F2,L,31.791666666666668
45,63,63.666666666666664,A2,L,31.833333333333332
41,0,63.66666666666667,F2,L,31.833333333333336
45,0,63.83333333333333,A2,L,31.916666666666664
48,61,63.833333333333336,C3,L,31.916666666666668
48,0,64.0,C3,L,32.0
53,60,64.09375,F3,L,32.046875
53,0,64.125,F3,L,32.0625
53,60,64.125,F3,L,32.0625
53,0,64.25,F3,L,32.125
41,70,64.25,F2,L,32.125
45,66,64.5,A2,L,32.25
41,0,64.5,F2,L,32.25
48,60,64.625,C3,L,32.3125
48,0,64.875,C3,L,32.4375
53,60,64.875,F3,L,32.4375
81,82,65.0,A5,R,32.5
53,0,65.0,F3,L,32.5
41,76,65.0,F2,L,32.5
45,0,65.0,A2,L,32.5
69,83,65.0,A4,R,32.5
72,77,65.0,C5,R,32.5
77,78,65.0,F5,R,32.5
41,0,65.25,F2,L,32.625
45,68,65.25,A2,L,32.625
48,61,65.375,C3,L,32.6875
48,0,65.5,C3,L,32.75
53,59,65.625,F3,L,32.8125
53,0,65.75,F3,L,32.875
41,67,65.75,F2,L,32.875
45,0,66.0,A2,L,33.0
69,0,66.0,A4,R,33.0
72,0,66.0,C5,R,33.0
77,0,66.0,F5,R,33.0
81,0,66.0,A5,R,33.0
41,0,66.0,F2,L,33.0
45,64,66.0,A2,L,33.0
48,55,66.2,C3,L,33.1
45,0,66.2,A2,L,33.1
48,0,66.4,C3,L,33.2
53,56,66.4,F3,L,33.2
41,62,66.6,F2,L,33.3
53,0,66.60000000000001,F3,L,33.300000000000004
41,0,66.8,F2,L,33.4
45,68,66.8,A2,L,33.4
45,0,67.0,A2,L,33.5
48,62,67.08333333333333,C3,L,33.541666666666664
48,0,67.16666666666666,C3,L,33.58333333333333
53,56,67.16666666666667,F3,L,33.583333333333336
72,78,67.28125,C5,R,33.640625
77,81,67.28125,F5,R,33.640625
69,84,67.28125,A4,R,33.640625
81,83,67.28125,A5,R,33.640625
41,72,67.33333333333333,F2,L,33.666666666666664
53,0,67.33333333333334,F3,L,33.66666666666667
69,0,67.375,A4,R,33.6875
72,0,67.375,C5,R,33.6875
77,0,67.375,F5,R,33.6875
81,0,67.375,A5,R,33.6875
45,64,67.5,A2,L,33.75
41,0,67.5,F2,L,33.75
48,60,67.75,C3,L,33.875
45,0,67.75,A2,L,33.875
53,63,67.875,F3,L,33.9375
48,0,67.875,C3,L,33.9375
53,0,68.0,F3,L,34.0
41,67,68.08333333333333,F2,L,34.041666666666664
41,0,68.33333333333333,F2,L,34.166666666666664
45,51,68.33333333333333,A2,L,34.166666666666664
45,0,68.5,A2,L,34.25
48,58,68.5,C3,L,34.25
48,0,68.625,C3,L,34.3125
53,61,68.625,F3,L,34.3125
53,0,68.875,F3,L,34.4375
41,70,68.875,F2,L,34.4375
41,0,69.0,F2,L,34.5
41,70,69.0,F2,L,34.5
45,58,69.0625,A2,L,34.53125
41,0,69.0625,F2,L,34.53125
45,0,69.25,A2,L,34.625
48,57,69.29166666666667,C3,L,34.645833333333336
48,0,69.41666666666667,C3,L,34.708333333333336
53,61,69.41666666666667,F3,L,34.708333333333336
77,76,69.5,F5,R,34.75
72,79,69.5,C5,R,34.75
69,86,69.5,A4,R,34.75
53,0,69.5,F3,L,34.75
41,74,69.5,F2,L,34.75
81,88,69.5,A5,R,34.75
45,64,69.75,A2,L,34.875
41,0,69.75,F2,L,34.875
69,0,70.0,A4,R,35.0
72,0,70.0,C5,R,35.0
77,0,70.0,F5,R,35.0
81,0,70.0,A5,R,35.0
48,61,70.0,C3,L,35.0
45,0,70.0,A2,L,35.0
48,0,70.16666666666667,C3,L,35.083333333333336
53,58,70.16666666666667,F3,L,35.083333333333336
41,66,70.33333333333333,F2,L,35.166666666666664
53,0,70.33333333333334,F3,L,35.16666666666667
41,66,70.5,F2,L,35.25
41,0,70.5,F2,L,35.25
45,62,70.58333333333333,A2,L,35.291666666666664
41,0,70.58333333333333,F2,L,35.291666666666664
45,0,70.66666666666666,A2,L,35.33333333333333
48,64,70.66666666666667,C3,L,35.333333333333336
53,63,70.83333333333333,F3,L,35.416666666666664
48,0,70.83333333333334,C3,L,35.41666666666667
53,0,71.0,F3,L,35.5
38,61,71.125,D2,L,35.5625
41,64,71.25,F2,L,35.625
46,65,71.5,A#2,L,35.75
38,0,71.5,D2,L,35.75
41,0,71.5,F2,L,35.75
46,0,71.625,A#2,L,35.8125
50,71,71.625,D3,L,35.8125
38,73,71.75,D2,L,35.875
50,0,71.75,D3,L,35.875
77,81,71.78125,F5,R,35.890625
82,83,71.78125,A#5,R,35.890625
86,94,71.78125,D6,R,35.890625
74,94,71.78125,D5,R,35.890625
77,0,71.875,F5,R,35.9375
82,0,71.875,A#5,R,35.9375
86,0,71.875,D6,R,35.9375
74,0,71.875,D5,R,35.9375
41,72,72.0,F2,L,36.0
38,0,72.0,D2,L,36.0
46,63,72.25,A#2,L,36.125
41,0,72.25,F2,L,36.125
50,68,72.375,D3,L,36.1875
46,0,72.375,A#2,L,36.1875
38,63,72.5,D2,L,36.25
50,0,72.5,D3,L,36.25
41,59,72.75,F2,L,36.375
38,0,72.75,D2,L,36.375
41,0,72.875,F2,L,36.4375
46,61,72.875,A#2,L,36.4375
46,0,73.0,A#2,L,36.5
50,67,73.08333333333333,D3,L,36.541666666666664
50,0,73.16666666666666,D3,L,36.58333333333333
40,73,73.33333333333333,E2,L,36.666666666666664
43,68,73.5,G2,L,36.75
40,0,73.5,E2,L,36.75
40,73,73.5,E2,L,36.75
40,0,73.625,E2,L,36.8125
48,49,73.625,C3,L,36.8125
48,0,73.75,C3,L,36.875
52,66,73.8125,E3,L,36.90625
84,96,74.0,C6,R,37.0
43,0,74.0,G2,L,37.0
40,76,74.0,E2,L,37.0
79,78,74.0,G5,R,37.0
82,83,74.0,A#5,R,37.0
52,0,74.0,E3,L,37.0
72,97,74.0,C5,R,37.0
43,67,74.25,G2,L,37.125
43,0,74.5,G2,L,37.25
48,58,74.5,C3,L,37.25
52,70,74.625,E3,L,37.3125
48,0,74.625,C3,L,37.3125
40,69,74.75,E2,L,37.375
52,0,74.75,E3,L,37.375
82,0,75.0,A#5,R,37.5
79,0,75.0,G5,R,37.5
72,0,75.0,C5,R,37.5
84,0,75.0,C6,R,37.5
40,0,75.0,E2,L,37.5
43,65,75.0,G2,L,37.5
40,0,75.0,E2,L,37.5
48,55,75.125,C3,L,37.5625
48,0,75.375,C3,L,37.6875
52,57,75.375,E3,L,37.6875
41,69,75.5,F2,L,37.75
52,0,75.5,E3,L,37.75
45,72,75.75,A2,L,37.875
43,0,75.75,G2,L,37.875
41,0,75.75,F2,L,37.875
48,63,75.875,C3,L,37.9375
48,63,76.0,C3,L,38.0
45,0,76.0,A2,L,38.0
48,0,76.0,C3,L,38.0
48,0,76.125,C3,L,38.0625
53,62,76.125,F3,L,38.0625
77,68,76.25,F5,R,38.125
72,81,76.25,C5,R,38.125
41,70,76.25,F2,L,38.125
81,75,76.25,A5,R,38.125
84,86,76.25,C6,R,38.125
45,68,76.5,A2,L,38.25
53,0,76.5,F3,L,38.25
45,0,76.625,A2,L,38.3125
45,68,76.625,A2,L,38.3125
48,61,76.625,C3,L,38.3125
45,0,76.75,A2,L,38.375
48,0,76.75,C3,L,38.375
48,61,76.75,C3,L,38.375
48,0,76.875,C3,L,38.4375
53,64,76.875,F3,L,38.4375
41,0,77.0,F2,L,38.5
77,0,77.0,F5,R,38.5
72,0,77.0,C5,R,38.5
53,0,77.0,F3,L,38.5
41,66,77.0,F2,L,38.5
81,0,77.0,A5,R,38.5
84,0,77.0,C6,R,38.5
41,0,77.25,F2,L,38.625
45,53,77.25,A2,L,38.625
48,64,77.3125,C3,L,38.65625
48,0,77.5,C3,L,38.75
53,62,77.5,F3,L,38.75
53,0,77.66666666666667,F3,L,38.833333333333336
42,63,77.83333333333333,F#2,L,38.916666666666664
45,0,78.0,A2,L,39.0
45,59,78.0,A2,L,39.0
42,0,78.0,F#2,L,39.0
45,0,78.16666666666667,A2,L,39.083333333333336
48,56,78.16666666666667,C3,L,39.083333333333336
51,67,78.33333333333333,D#3,L,39.166666666666664
48,0,78.33333333333334,C3,L,39.16666666666667
42,78,78.5,F#2,L,39.25
51,0,78.5,D#3,L,39.25
84,94,78.53125,C6,R,39.265625
81,73,78.53125,A5,R,39.265625
75,83,78.53125,D#5,R,39.265625
72,93,78.53125,C5,R,39.265625
72,93,78.625,C5,R,39.3125
84,0,78.625,C6,R,39.3125
75,0,78.625,D#5,R,39.3125
72,0,78.625,C5,R,39.3125
81,0,78.625,A5,R,39.3125
75,83,78.625,D#5,R,39.3125
81,73,78.625,A5,R,39.3125
84,94,78.625,C6,R,39.3125
45,59,78.75,A2,L,39.375
42,0,78.75,F#2,L,39.375
48,48,78.875,C3,L,39.4375
45,0,78.875,A2,L,39.4375
75,0,79.0,D#5,R,39.5
81,0,79.0,A5,R,39.5
51,64,79.0,D#3,L,39.5
72,0,79.0,C5,R,39.5
84,0,79.0,C6,R,39.5
48,0,79.0,C3,L,39.5
42,68,79.125,F#2,L,39.5625
45,59,79.25,A2,L,39.625
51,0,79.25,D#3,L,39.625
42,0,79.5,F#2,L,39.75
48,55,79.5,C3,L,39.75
45,0,79.5,A2,L,39.75
48,0,79.625,C3,L,39.8125
51,56,79.625,D#3,L,39.8125
51,0,80.0,D#3,L,40.0
52,73,80.0,E3,R,40.0
40,74,80.0,E2,L,40.0
80,87,81.0,G#5,R,40.5
52,0,81.0,E3,R,40.5
76,73,81.0,E5,L,40.5
40,0,81.0,E2,L,40.5
71,64,81.0,B4,L,40.5
68,74,81.0,G#4,L,40.5
44,69,82.0,G#2,L,41.0
56,70,82.0,G#3,R,41.0
76,0,83.0,E5,L,41.5
68,0,83.0,G#4,L,41.5
44,0,83.0,G#2,L,41.5
56,0,83.0,G#3,R,41.5
80,0,83.0,G#5,R,41.5
71,0,83.0,B4,L,41.5
68,73,83.75,G#4,R,41.875
71,54,83.75,B4,R,41.875
76,64,83.75,E5,R,41.875
80,81,83.75,G#5,R,41.875
59,53,83.78125,B3,L,41.890625
56,59,83.78125,G#3,L,41.890625
47,68,83.78125,B2,L,41.890625
52,56,83.78125,E3,L,41.890625
56,0,83.875,G#3,L,41.9375
52,0,83.875,E3,L,41.9375
47,0,83.875,B2,L,41.9375
59,0,83.875,B3,L,41.9375
80,0,84.0,G#5,R,42.0
68,0,84.0,G#4,R,42.0
71,0,84.0,B4,R,42.0
76,0,84.0,E5,R,42.0
52,63,84.5,E3,L,42.25
80,83,84.5,G#5,R,42.25
68,65,84.5,G#4,R,42.25
71,59,84.5,B4,R,42.25
56,61,84.5,G#3,L,42.25
76,66,84.5,E5,R,42.25
64,62,84.5,E4,L,42.25
59,60,84.5,B3,L,42.25
52,0,85.0,E3,L,42.5
56,0,85.0,G#3,L,42.5
80,0,85.0,G#5,R,42.5
64,0,85.0,E4,L,42.5
59,0,85.0,B3,L,42.5
71,0,86.0,B4,R,43.0
76,0,86.0,E5,R,43.0
68,0,86.0,G#4,R,43.0
40,59,86.125,E2,L,43.0625
68,73,86.125,G#4,R,43.0625
44,67,86.125,G#2,L,43.0625
47,59,86.125,B2,L,43.0625
80,85,86.125,G#5,R,43.0625
52,58,86.125,E3,L,43.0625
68,0,86.25,G#4,R,43.125
76,5,86.25,E5,R,43.125
80,0,86.5,G#5,R,43.25
52,0,86.5,E3,L,43.25
44,0,86.5,G#2,L,43.25
40,0,86.5,E2,L,43.25
47,0,86.5,B2,L,43.25
54,63,87.0,F#3,L,43.5
59,59,87.0,B3,L,43.5
81,83,87.0,A5,R,43.5
47,59,87.0,B2,L,43.5
78,68,87.0,F#5,R,43.5
75,59,87.0,D#5,R,43.5
51,62,87.0,D#3,L,43.5
71,61,87.0,B4,R,43.5
76,0,87.0,E5,R,43.5
69,58,87.0,A4,R,43.5
47,0,88.0,B2,L,44.0
51,0,88.0,D#3,L,44.0
59,0,88.0,B3,L,44.0
69,0,88.0,A4,R,44.0
81,0,88.0,A5,R,44.0
78,0,88.0,F#5,R,44.0
54,0,88.0,F#3,L,44.0
71,0,88.0,B4,R,44.0
75,0,88.0,D#5,R,44.0
39,62,88.375,D#2,L,44.1875
69,64,88.375,A4,R,44.1875
71,59,88.375,B4,R,44.1875
35,59,88.375,B1,L,44.1875
75,60,88.375,D#5,R,44.1875
78,66,88.375,F#5,R,44.1875
81,82,88.375,A5,R,44.1875
47,59,88.375,B2,L,44.1875
42,64,88.375,F#2,L,44.1875
42,0,88.5,F#2,L,44.25
39,0,88.5,D#2,L,44.25
81,0,88.5,A5,R,44.25
71,0,88.5,B4,R,44.25
75,0,88.5,D#5,R,44.25
78,0,88.5,F#5,R,44.25
69,64,88.5,A4,R,44.25
35,0,88.5,B1,L,44.25
71,59,88.5,B4,R,44.25
75,60,88.5,D#5,R,44.25
78,66,88.5,F#5,R,44.25
81,82,88.5,A5,R,44.25
69,0,88.5,A4,R,44.25
47,0,88.5,B2,L,44.25
71,0,89.0,B4,R,44.5
69,0,89.0,A4,R,44.5
75,0,89.0,D#5,R,44.5
78,0,89.0,F#5,R,44.5
81,0,89.0,A5,R,44.5
40,66,89.0,E2,L,44.5
52,64,89.0,E3,R,44.5
71,65,90.0,B4,L,45.0
76,67,90.0,E5,L,45.0
80,79,90.0,G#5,R,45.0
68,70,90.0,G#4,L,45.0
40,0,91.0,E2,L,45.5
52,0,91.0,E3,R,45.5
68,0,91.5,G#4,L,45.75
68,70,91.5,G#4,L,45.75
71,65,91.5,B4,L,45.75
76,67,91.5,E5,L,45.75
44,58,91.5,G#2,L,45.75
56,61,91.5,G#3,R,45.75
71,0,91.5,B4,L,45.75
76,0,91.5,E5,L,45.75
80,79,91.5,G#5,R,45.75
80,0,91.5,G#5,R,45.75
68,70,92.0,G#4,L,46.0
56,0,92.0,G#3,R,46.0
80,0,92.0,G#5,R,46.0
71,0,92.0,B4,L,46.0
68,0,92.0,G#4,L,46.0
44,0,92.0,G#2,L,46.0
76,0,92.0,E5,L,46.0
68,0,92.5,G#4,L,46.25
56,58,92.9375,G#3,L,46.46875
47,65,92.9375,B2,L,46.46875
59,57,92.9375,B3,L,46.46875
52,53,92.9375,E3,L,46.46875
47,0,93.0,B2,L,46.5
68,68,93.0,G#4,R,46.5
56,0,93.0,G#3,L,46.5
59,0,93.0,B3,L,46.5
47,65,93.0,B2,L,46.5
52,53,93.0,E3,L,46.5
56,58,93.0,G#3,L,46.5
80,77,93.0,G#5,R,46.5
59,57,93.0,B3,L,46.5
52,0,93.0,E3,L,46.5
76,59,93.0,E5,R,46.5
71,52,93.0,B4,R,46.5
80,77,93.75,G#5,R,46.875
76,64,93.75,E5,R,46.875
74,58,93.75,D5,R,46.875
76,0,93.75,E5,R,46.875
71,0,93.75,B4,R,46.875
68,60,93.75,G#4,R,46.875
68,0,93.75,G#4,R,46.875
80,0,93.75,G#5,R,46.875
71,56,93.75,B4,R,46.875
56,0,93.75,G#3,L,46.875
47,0,93.75,B2,L,46.875
52,0,93.75,E3,L,46.875
52,57,93.75,E3,L,46.875
56,63,93.75,G#3,L,46.875
59,54,93.75,B3,L,46.875
59,0,93.75,B3,L,46.875
64,59,93.75,E4,L,46.875
71,0,94.0,B4,R,47.0
71,56,94.0,B4,R,47.0
68,60,94.0,G#4,R,47.0
80,0,94.0,G#5,R,47.0
76,0,94.0,E5,R,47.0
74,0,94.0,D5,R,47.0
64,0,94.0,E4,L,47.0
68,0,94.0,G#4,R,47.0
76,64,94.0,E5,R,47.0
80,77,94.0,G#5,R,47.0
56,0,94.0,G#3,L,47.0
52,0,94.0,E3,L,47.0
59,0,94.0,B3,L,47.0
52,57,94.0,E3,L,47.0
56,63,94.0,G#3,L,47.0
59,54,94.0,B3,L,47.0
74,58,94.0,D5,R,47.0
71,0,95.0,B4,R,47.5
76,0,95.0,E5,R,47.5
52,0,95.0,E3,L,47.5
56,0,95.0,G#3,L,47.5
74,0,95.0,D5,R,47.5
59,0,95.0,B3,L,47.5
68,0,95.0,G#4,R,47.5
80,0,95.0,G#5,R,47.5
71,55,95.125,B4,R,47.5625
74,45,95.125,D5,R,47.5625
76,48,95.125,E5,R,47.5625
80,60,95.125,G#5,R,47.5625
83,69,95.125,B5,R,47.5625
52,51,95.125,E3,L,47.5625
40,53,95.125,E2,L,47.5625
44,57,95.125,G#2,L,47.5625
47,52,95.125,B2,L,47.5625
52,0,95.5,E3,L,47.75
47,0,95.5,B2,L,47.75
40,0,95.5,E2,L,47.75
74,0,95.5,D5,R,47.75
76,0,95.5,E5,R,47.75
44,0,95.5,G#2,L,47.75
71,0,95.5,B4,R,47.75
80,0,95.5,G#5,R,47.75
83,0,95.5,B5,R,47.75
52,50,96.0,E3,L,48.0
40,52,96.0,E2,L,48.0
44,57,96.0,G#2,L,48.0
83,67,96.0,B5,R,48.0
80,56,96.0,G#5,R,48.0
47,47,96.0,B2,L,48.0
74,48,96.0,D5,R,48.0
76,51,96.0,E5,R,48.0
71,49,96.0,B4,R,48.0
76,0,97.0,E5,R,48.5
74,0,97.0,D5,R,48.5
80,0,97.0,G#5,R,48.5
83,0,97.0,B5,R,48.5
44,0,97.0,G#2,L,48.5
52,0,97.0,E3,L,48.5
47,0,97.0,B2,L,48.5
40,0,97.0,E2,L,48.5
71,0,97.0,B4,R,48.5
40,53,97.375,E2,L,48.6875
47,42,97.375,B2,L,48.6875
83,69,97.375,B5,R,48.6875
80,41,97.375,G#5,R,48.6875
52,39,97.375,E3,L,48.6875
44,63,97.375,G#2,L,48.6875
71,60,97.375,B4,R,48.6875
52,0,97.5,E3,L,48.75
47,0,97.5,B2,L,48.75
71,0,97.5,B4,R,48.75
80,0,97.5,G#5,R,48.75
40,0,97.5,E2,L,48.75
44,0,97.5,G#2,L,48.75
83,0,97.5,B5,R,48.75
81,55,98.0,A5,R,49.0
45,41,98.0,A2,L,49.0
40,37,98.0,E2,L,49.0
37,44,98.0,C#2,L,49.0
73,50,98.0,C#5,R,49.0
85,58,98.0,C#6,R,49.0
76,44,98.0,E5,R,49.0
33,54,98.0,A1,L,49.0
37,0,99.0,C#2,L,49.5
85,0,99.0,C#6,R,49.5
81,0,99.0,A5,R,49.5
76,0,99.0,E5,R,49.5
40,0,99.0,E2,L,49.5
45,0,99.0,A2,L,49.5
33,0,99.0,A1,L,49.5
73,0,99.0,C#5,R,49.5
52,42,101.25,E3,L,50.625
80,64,101.25,G#5,R,50.625
71,48,101.25,B4,R,50.625
40,43,101.25,E2,L,50.625
52,0,102.0,E3,L,51.0
71,0,102.0,B4,R,51.0
80,0,102.0,G#5,R,51.0
40,0,102.0,E2,L,51.0
52,27,102.4375,E3,L,51.21875
40,57,102.4375,E2,L,51.21875
80,68,102.4375,G#5,R,51.21875
71,54,102.4375,B4,R,51.21875
52,27,102.5,E3,L,51.25
52,0,102.5,E3,L,51.25
40,0,102.5,E2,L,51.25
80,68,102.5,G#5,R,51.25
71,54,102.5,B4,R,51.25
80,0,102.5,G#5,R,51.25
71,0,102.5,B4,R,51.25
83,69,102.75,B5,R,51.375
71,0,102.75,B4,R,51.375
80,0,102.75,G#5,R,51.375
74,66,102.75,D5,R,51.375
45,59,102.75,A2,L,51.375
33,66,102.75,A1,L,51.375
83,69,103.0,B5,R,51.5
74,0,103.0,D5,R,51.5
45,0,103.0,A2,L,51.5
33,0,103.0,A1,L,51.5
52,0,103.0,E3,L,51.5
83,0,103.0,B5,R,51.5
45,41,103.5,A2,L,51.75
33,48,103.5,A1,L,51.75
83,0,103.5,B5,R,51.75
81,58,103.5,A5,R,51.75
73,40,103.75,C#5,R,51.875
81,0,104.0,A5,R,52.0
33,0,104.0,A1,L,52.0
45,0,104.0,A2,L,52.0
73,0,104.0,C#5,R,52.0
83,67,105.5,B5,R,52.75
40,37,106.0,E2,L,53.0
52,32,106.0,E3,L,53.0
83,0,106.0,B5,R,53.0
83,67,106.0,B5,R,53.0
80,35,106.0,G#5,R,53.0
52,0,106.75,E3,L,53.375
80,0,106.75,G#5,R,53.375
40,0,106.75,E2,L,53.375
40,47,106.875,E2,L,53.4375
83,69,106.875,B5,R,53.4375
83,69,107.0,B5,R,53.5
83,0,107.0,B5,R,53.5
86,71,107.0,D6,R,53.5
83,0,107.0,B5,R,53.5
40,0,107.0,E2,L,53.5
33,46,107.25,A1,L,53.625
45,51,107.375,A2,R,53.6875
45,0,107.5,A2,R,53.75
45,51,107.5,A2,R,53.75
33,0,108.0,A1,L,54.0
33,56,108.0,A1,L,54.0
45,44,108.0,A2,L,54.0
83,0,108.0,B5,R,54.0
86,0,108.0,D6,R,54.0
45,0,108.0,A2,R,54.0
85,60,108.0,C#6,R,54.0
81,47,108.125,A5,R,54.0625
81,0,108.5,A5,R,54.25
85,0,109.0,C#6,R,54.5
33,0,109.0,A1,L,54.5
45,0,109.0,A2,L,54.5
76,57,109.1875,E5,R,54.59375
33,23,109.1875,A1,L,54.59375
45,49,109.1875,A2,L,54.59375
76,57,109.25,E5,R,54.625
76,0,109.25,E5,R,54.625
33,0,109.25,A1,L,54.625
45,0,109.25,A2,L,54.625
33,23,109.25,A1,L,54.625
45,49,109.25,A2,L,54.625
33,0,109.4375,A1,L,54.71875
45,0,109.4375,A2,L,54.71875
44,64,109.4375,G#2,L,54.71875
32,55,109.4375,G#1,L,54.71875
88,67,109.5,E6,R,54.75
85,53,109.5,C#6,R,54.75
32,0,109.5,G#1,L,54.75
44,0,109.5,G#2,L,54.75
32,55,109.5,G#1,L,54.75
44,64,109.5,G#2,L,54.75
85,53,110.0,C#6,R,55.0
88,0,110.0,E6,R,55.0
85,0,110.0,C#6,R,55.0
88,67,110.0,E6,R,55.0
76,0,110.0,E5,R,55.0
32,0,110.0,G#1,L,55.0
44,0,110.0,G#2,L,55.0
86,58,110.25,D6,R,55.125
83,48,110.25,B5,R,55.125
32,47,110.25,G#1,L,55.125
44,46,110.25,G#2,L,55.125
32,0,111.0,G#1,L,55.5
44,0,111.0,G#2,L,55.5
83,0,111.0,B5,R,55.5
86,0,111.0,D6,R,55.5
85,0,111.0,C#6,R,55.5
88,0,111.0,E6,R,55.5
76,59,111.33333333333333,E5,R,55.666666666666664
32,52,111.4375,G#1,L,55.71875
44,55,111.4375,G#2,L,55.71875
32,0,111.5,G#1,L,55.75
44,55,111.5,G#2,L,55.75
32,52,111.5,G#1,L,55.75
44,0,111.5,G#2,L,55.75
76,0,111.66666666666666,E5,R,55.83333333333333
83,58,111.66666666666667,B5,R,55.833333333333336
86,69,111.66666666666667,D6,R,55.833333333333336
33,64,111.75,A1,L,55.875
45,54,111.75,A2,L,55.875
32,0,111.75,G#1,L,55.875
44,0,111.75,G#2,L,55.875
45,0,112.0,A2,L,56.0
85,63,112.0,C#6,R,56.0
33,0,112.0,A1,L,56.0
83,0,112.0,B5,R,56.0
86,0,112.0,D6,R,56.0
83,58,112.0,B5,R,56.0
86,69,112.0,D6,R,56.0
83,0,112.5,B5,R,56.25
86,0,112.5,D6,R,56.25
81,52,112.5,A5,R,56.25
45,48,112.5,A2,L,56.25
33,55,112.5,A1,L,56.25
33,0,113.0,A1,L,56.5
45,0,113.0,A2,L,56.5
85,0,113.0,C#6,R,56.5
81,0,113.0,A5,R,56.5
76,66,113.625,E5,R,56.8125
33,56,113.625,A1,L,56.8125
45,57,113.625,A2,L,56.8125
52,68,113.875,E3,L,56.9375
40,58,113.875,E2,L,56.9375
45,0,113.875,A2,L,56.9375
33,0,113.875,A1,L,56.9375
85,73,114.0,C#6,R,57.0
40,58,114.0,E2,L,57.0
81,59,114.0,A5,R,57.0
52,0,114.0,E3,L,57.0
40,0,114.0,E2,L,57.0
76,0,114.0,E5,R,57.0
83,57,114.5,B5,R,57.25
85,0,114.5,C#6,R,57.25
80,50,114.5,G#5,L,57.25
81,0,114.5,A5,R,57.25
40,0,114.75,E2,L,57.375
40,54,114.75,E2,L,57.375
52,55,114.75,E3,R,57.375
80,0,115.0,G#5,L,57.5
40,0,115.0,E2,L,57.5
52,0,115.0,E3,R,57.5
83,0,115.0,B5,R,57.5
83,59,115.84375,B5,R,57.921875
74,56,115.84375,D5,R,57.921875
83,59,115.875,B5,R,57.9375
83,0,115.875,B5,R,57.9375
74,0,115.875,D5,R,57.9375
74,56,115.875,D5,R,57.9375
40,53,115.875,E2,L,57.9375
52,36,115.875,E3,L,57.9375
74,0,116.0,D5,R,58.0
83,59,116.0,B5,R,58.0
83,0,116.0,B5,R,58.0
52,0,116.0,E3,L,58.0
40,0,116.0,E2,L,58.0
45,48,116.25,A2,L,58.125
33,59,116.25,A1,L,58.125
73,60,116.25,C#5,R,58.125
81,53,116.25,A5,R,58.125
35,60,116.5,B1,L,58.25
45,0,116.5,A2,L,58.25
33,0,116.5,A1,L,58.25
73,0,116.5,C#5,R,58.25
81,0,116.5,A5,R,58.25
71,53,116.625,B4,R,58.3125
83,0,117.0,B5,R,58.5
71,0,117.0,B4,R,58.5
35,0,117.0,B1,L,58.5
73,64,117.0,C#5,R,58.5
37,62,117.0,C#2,L,58.5
74,66,117.5,D5,R,58.75
73,0,117.5,C#5,R,58.75
38,63,117.5,D2,L,58.75
37,0,117.5,C#2,L,58.75
40,59,117.75,E2,L,58.875
76,64,117.75,E5,R,58.875
76,0,118.0,E5,R,59.0
76,64,118.0,E5,R,59.0
40,59,118.0,E2,L,59.0
78,61,118.0,F#5,R,59.0
38,0,118.0,D2,L,59.0
74,0,118.0,D5,R,59.0
40,0,118.0,E2,L,59.0
42,69,118.0,F#2,L,59.0
76,57,118.5,E5,R,59.25
40,57,118.5,E2,L,59.25
78,0,118.5,F#5,R,59.25
42,0,118.5,F#2,L,59.25
40,0,119.0,E2,L,59.5
40,0,119.0,E2,L,59.5
76,0,119.0,E5,R,59.5
76,0,119.0,E5,R,59.5
78,60,119.16666666666667,F#5,R,59.583333333333336
42,61,119.16666666666667,F#2,L,59.583333333333336
40,55,119.33333333333333,E2,L,59.666666666666664
76,60,119.33333333333333,E5,R,59.666666666666664
78,0,119.33333333333334,F#5,R,59.66666666666667
42,0,119.33333333333334,F#2,L,59.66666666666667
76,0,119.66666666666666,E5,R,59.83333333333333
40,0,119.66666666666666,E2,L,59.83333333333333
38,53,119.66666666666667,D2,L,59.833333333333336
74,61,119.66666666666667,D5,R,59.833333333333336
73,55,120.0,C#5,R,60.0
74,0,120.0,D5,R,60.0
38,0,120.0,D2,L,60.0
37,58,120.0,C#2,L,60.0
73,0,120.4,C#5,R,60.2
71,50,120.4,B4,R,60.2
37,0,120.4,C#2,L,60.2
35,51,120.4,B1,L,60.2
33,62,120.8,A1,L,60.4
69,52,120.8,A4,R,60.4
35,0,120.80000000000001,B1,L,60.400000000000006
71,0,120.80000000000001,B4,R,60.400000000000006
35,61,121.2,B1,L,60.6
33,0,121.2,A1,L,60.6
69,0,121.2,A4,R,60.6
71,56,121.2,B4,R,60.6
37,71,121.6,C#2,L,60.8
73,79,121.6,C#5,R,60.8
35,0,121.60000000000001,B1,L,60.800000000000004
71,0,121.60000000000001,B4,R,60.800000000000004
38,72,121.8,D2,L,60.9
74,77,121.8,D5,R,60.9
37,71,121.8,C#2,L,60.9
37,0,121.8,C#2,L,60.9
73,0,121.8,C#5,R,60.9
38,72,122.0,D2,L,61.0
38,0,122.0,D2,L,61.0
37,0,122.0,C#2,L,61.0
74,0,122.0,D5,R,61.0
74,77,122.0,D5,R,61.0
76,74,122.25,E5,R,61.125
74,0,122.25,D5,R,61.125
74,77,122.25,D5,R,61.125
40,70,122.25,E2,L,61.125
38,0,122.5,D2,L,61.25
74,0,122.5,D5,R,61.25
76,0,122.5,E5,R,61.25
42,66,122.5,F#2,L,61.25
78,68,122.5,F#5,R,61.25
78,0,123.0,F#5,R,61.5
76,59,123.0,E5,R,61.5
40,52,123.0,E2,L,61.5
40,0,123.0,E2,L,61.5
42,0,123.0,F#2,L,61.5
76,0,123.33333333333333,E5,R,61.666666666666664
40,0,123.33333333333333,E2,L,61.666666666666664
42,54,123.33333333333333,F#2,L,61.666666666666664
78,56,123.33333333333333,F#5,R,61.666666666666664
42,0,123.66666666666666,F#2,L,61.83333333333333
78,0,123.66666666666666,F#5,R,61.83333333333333
40,53,123.66666666666667,E2,L,61.833333333333336
76,54,123.66666666666667,E5,R,61.833333333333336
76,0,124.0,E5,R,62.0
40,53,124.0,E2,L,62.0
40,0,124.0,E2,L,62.0
74,62,124.2,D5,R,62.1
38,51,124.2,D2,L,62.1
40,0,124.2,E2,L,62.1
73,53,124.4,C#5,R,62.2
74,0,124.4,D5,R,62.2
37,58,124.4,C#2,L,62.2
38,0,124.4,D2,L,62.2
71,52,124.8,B4,R,62.4
35,53,124.8,B1,L,62.4
37,0,124.80000000000001,C#2,L,62.400000000000006
73,0,124.80000000000001,C#5,R,62.400000000000006
33,64,125.2,A1,L,62.6
35,0,125.2,B1,L,62.6
69,55,125.2,A4,R,62.6
71,0,125.2,B4,R,62.6
35,58,125.6,B1,L,62.8
71,54,125.6,B4,R,62.8
69,0,125.60000000000001,A4,R,62.800000000000004
33,0,125.60000000000001,A1,L,62.800000000000004
35,0,126.0,B1,L,63.0
71,0,126.0,B4,R,63.0
73,74,126.0,C#5,R,63.0
37,67,126.0,C#2,L,63.0
37,0,126.28571428571429,C#2,L,63.142857142857146
38,66,126.28571428571429,D2,L,63.142857142857146
73,0,126.33333333333333,C#5,R,63.166666666666664
74,75,126.33333333333333,D5,R,63.166666666666664
74,0,126.66666666666666,D5,R,63.33333333333333
76,63,126.66666666666667,E5,R,63.333333333333336
40,60,126.71428571428571,E2,L,63.357142857142854
38,0,126.71428571428572,D2,L,63.35714285714286
78,67,127.0,F#5,R,63.5
40,0,127.0,E2,L,63.5
76,0,127.0,E5,R,63.5
42,64,127.14285714285714,F#2,L,63.57142857142857
40,53,127.42857142857143,E2,L,63.714285714285715
42,0,127.42857142857143,F#2,L,63.714285714285715
76,60,127.5,E5,R,63.75
78,68,127.75,F#5,R,63.875
78,0,127.75,F#5,R,63.875
42,69,127.85714285714286,F#2,L,63.92857142857143
40,0,127.85714285714286,E2,L,63.92857142857143
78,0,128.0,F#5,R,64.0
78,68,128.0,F#5,R,64.0
76,0,128.0,E5,R,64.0
42,0,128.0,F#2,L,64.0
42,69,128.0,F#2,L,64.0
78,0,128.25,F#5,R,64.125
44,74,128.25,G#2,L,64.125
80,77,128.25,G#5,R,64.125
78,68,128.25,F#5,R,64.125
45,72,128.5,A2,L,64.25
42,0,128.5,F#2,L,64.25
81,77,128.5,A5,R,64.25
80,0,128.5,G#5,R,64.25
78,0,128.5,F#5,R,64.25
45,0,129.0,A2,L,64.5
44,0,129.0,G#2,L,64.5
81,0,129.0,A5,R,64.5
83,74,129.0,B5,R,64.5
47,72,129.0,B2,L,64.5
49,67,129.25,C#3,L,64.625
83,0,129.33333333333334,B5,R,64.66666666666667
85,73,129.33333333333334,C#6,R,64.66666666666667
47,0,129.5,B2,L,64.75
45,66,129.5,A2,L,64.75
81,70,129.66666666666666,A5,R,64.83333333333333
85,0,129.66666666666669,C#6,R,64.83333333333334
81,0,130.0,A5,R,65.0
83,74,130.0,B5,R,65.0
49,0,130.0,C#3,L,65.0
47,75,130.0,B2,L,65.0
45,0,130.0,A2,L,65.0
49,71,130.5,C#3,L,65.25
85,79,130.5,C#6,R,65.25
83,0,130.5,B5,R,65.25
47,0,130.5,B2,L,65.25
50,79,130.75,D3,L,65.375
86,83,130.75,D6,R,65.375
85,0,130.75,C#6,R,65.375
86,83,131.0,D6,R,65.5
86,0,131.0,D6,R,65.5
50,0,131.0,D3,L,65.5
88,80,131.0,E6,L,65.5
49,0,131.0,C#3,L,65.5
50,79,131.0,D3,L,65.5
50,0,131.25,D3,L,65.625
52,70,131.25,E3,L,65.625
90,74,131.5,F#6,R,65.75
86,0,131.5,D6,R,65.75
54,71,131.5,F#3,L,65.75
52,0,131.5,E3,L,65.75
90,0,131.875,F#6,R,65.9375
88,68,131.875,E6,R,65.9375
88,68,132.0,E6,R,66.0
88,0,132.0,E6,L,66.0
54,0,132.0,F#3,L,66.0
52,65,132.0,E3,L,66.0
88,0,132.0,E6,R,66.0
88,0,132.16666666666666,E6,R,66.08333333333333
90,73,132.16666666666666,F#6,R,66.08333333333333
90,0,132.33333333333331,F#6,R,66.16666666666666
88,81,132.33333333333334,E6,R,66.16666666666667
90,83,132.5,F#6,R,66.25
88,0,132.5,E6,R,66.25
52,0,132.5,E3,L,66.25
54,73,132.5,F#3,L,66.25
90,0,132.75,F#6,R,66.375
88,84,132.75,E6,R,66.375
56,81,132.75,G#3,L,66.375
90,91,132.875,F#6,R,66.4375
88,0,132.875,E6,R,66.4375
90,0,133.0,F#6,R,66.5
88,88,133.0,E6,R,66.5
56,81,133.0,G#3,L,66.5
56,0,133.0,G#3,L,66.5
57,73,133.0,A3,L,66.5
54,0,133.0,F#3,L,66.5
88,0,133.25,E6,R,66.625
90,89,133.25,F#6,R,66.625
90,0,133.375,F#6,R,66.6875
88,85,133.375,E6,R,66.6875
57,0,133.5,A3,L,66.75
59,84,133.5,B3,L,66.75
88,0,133.5,E6,R,66.75
90,85,133.5625,F#6,R,66.78125
88,83,133.75,E6,R,66.875
56,0,133.75,G#3,L,66.875
61,76,133.75,C#4,L,66.875
90,0,133.75,F#6,R,66.875
90,84,133.875,F#6,R,66.9375
62,94,134.0,D4,L,67.0
90,0,134.0,F#6,R,67.0
59,0,134.0,B3,L,67.0
61,76,134.0,C#4,L,67.0
61,0,134.0,C#4,L,67.0
88,0,134.0,E6,R,67.0
90,84,134.0,F#6,R,67.0
88,90,134.125,E6,R,67.0625
90,0,134.25,F#6,R,67.125
89,76,134.375,F6,R,67.1875
89,76,134.5,F6,R,67.25
88,75,134.5,E6,R,67.25
88,0,134.5,E6,R,67.25
89,0,134.5,F6,R,67.25
89,71,134.75,F6,R,67.375
88,0,134.75,E6,R,67.375
89,0,134.875,F6,R,67.4375
88,73,134.96875,E6,R,67.484375
88,0,135.0,E6,R,67.5
89,0,135.0,F6,R,67.5
88,73,135.0,E6,R,67.5
61,0,135.0,C#4,L,67.5
89,57,135.0,F6,R,67.5
89,0,135.25,F6,R,67.625
88,68,135.3125,E6,R,67.65625
88,0,135.5,E6,R,67.75
89,60,135.5,F6,R,67.75
89,0,135.625,F6,R,67.8125
88,64,135.65625,E6,R,67.828125
88,0,135.75,E6,R,67.875
89,62,135.75,F6,R,67.875
62,0,136.0,D4,L,68.0
62,94,136.0,D4,L,68.0
88,0,136.0,E6,R,68.0
89,0,136.0,F6,R,68.0
88,60,136.03125,E6,R,68.015625
88,0,136.125,E6,R,68.0625
89,62,136.25,F6,R,68.125
62,0,136.5,D4,L,68.25
52,54,136.5,E3,L,68.25
89,0,136.5,F6,R,68.25
88,52,136.54166666666666,E6,R,68.27083333333333
88,0,136.58333333333331,E6,R,68.29166666666666
90,57,136.66666666666666,F#6,R,68.33333333333333
90,0,136.75,F#6,R,68.375
88,54,136.875,E6,R,68.4375
90,61,137.0,F#6,R,68.5
52,0,137.0,E3,L,68.5
88,0,137.0,E6,R,68.5
54,64,137.16666666666666,F#3,L,68.58333333333333
90,0,137.25,F#6,R,68.625
88,72,137.25,E6,R,68.625
54,0,137.33333333333331,F#3,L,68.66666666666666
56,73,137.33333333333334,G#3,L,68.66666666666667
90,75,137.5,F#6,R,68.75
88,0,137.5,E6,R,68.75
57,76,137.66666666666666,A3,L,68.83333333333333
88,83,137.66666666666666,E6,R,68.83333333333333
90,0,137.66666666666666,F#6,R,68.83333333333333
56,0,137.66666666666669,G#3,L,68.83333333333334
88,0,137.83333333333331,E6,R,68.91666666666666
90,82,137.83333333333334,F#6,R,68.91666666666667
59,82,138.0,B3,L,69.0
90,0,138.0,F#6,R,69.0
57,0,138.0,A3,L,69.0
88,84,138.1,E6,R,69.05
88,0,138.2,E6,R,69.1
90,86,138.2,F#6,R,69.1
59,0,138.33333333333334,B3,L,69.16666666666667
61,76,138.33333333333334,C#4,L,69.16666666666667
90,0,138.39999999999998,F#6,R,69.19999999999999
88,83,138.4,E6,R,69.2
88,0,138.6,E6,R,69.3
90,82,138.6,F#6,R,69.3
90,0,138.79999999999998,F#6,R,69.39999999999999
88,87,138.8,E6,R,69.4
62,96,138.83333333333334,D4,L,69.41666666666667
61,0,138.83333333333334,C#4,L,69.41666666666667
62,96,139.0,D4,L,69.5
88,0,139.0,E6,R,69.5
89,71,139.0,F6,R,69.5
62,0,139.0,D4,L,69.5
88,73,139.25,E6,R,69.625
89,0,139.25,F6,R,69.625
88,0,139.4375,E6,R,69.71875
89,64,139.4375,F6,R,69.71875
89,0,139.5,F6,R,69.75
88,73,139.625,E6,R,69.8125
88,0,139.75,E6,R,69.875
89,59,139.75,F6,R,69.875
89,0,139.9375,F6,R,69.96875
88,70,139.96875,E6,R,69.984375
62,96,140.0,D4,L,70.0
88,0,140.0,E6,R,70.0
88,70,140.0,E6,R,70.0
62,0,140.0,D4,L,70.0
89,58,140.125,F6,R,70.0625
88,0,140.125,E6,R,70.0625
89,0,140.25,F6,R,70.125
88,63,140.3125,E6,R,70.15625
88,0,140.5,E6,R,70.25
89,60,140.5,F6,R,70.25
88,53,140.625,E6,R,70.3125
89,0,140.625,F6,R,70.3125
88,0,140.75,E6,R,70.375
89,55,140.8125,F6,R,70.40625
89,0,141.0,F6,R,70.5
62,0,141.0,D4,L,70.5
88,61,141.04166666666666,E6,R,70.52083333333333
88,0,141.08333333333331,E6,R,70.54166666666666
52,43,141.08333333333334,E3,R,70.54166666666667
89,54,141.25,F6,L,70.625
52,0,141.25,E3,R,70.625
52,43,141.25,E3,R,70.625
89,0,141.375,F6,L,70.6875
88,58,141.375,E6,L,70.6875
88,0,141.5,E6,L,70.75
89,60,141.625,F6,L,70.8125
89,0,141.75,F6,L,70.875
88,63,141.75,E6,L,70.875
89,54,141.91666666666666,F6,L,70.95833333333333
88,0,141.91666666666666,E6,L,70.95833333333333
52,0,142.0,E3,R,71.0
89,0,142.0,F6,L,71.0
52,43,142.0,E3,R,71.0
88,62,142.125,E6,L,71.0625
88,0,142.25,E6,L,71.125
89,53,142.3125,F6,L,71.15625
88,59,142.5,E6,L,71.25
89,0,142.5,F6,L,71.25
88,0,142.625,E6,L,71.3125
89,51,142.6875,F6,L,71.34375
89,51,142.75,F6,L,71.375
89,0,142.75,F6,L,71.375
89,0,142.875,F6,L,71.4375
88,59,142.90625,E6,L,71.453125
52,0,143.0,E3,R,71.5
88,0,143.0,E6,L,71.5
89,53,143.08333333333334,F6,L,71.54166666666667
89,0,143.33333333333334,F6,L,71.66666666666667
45,48,143.33333333333334,A2,L,71.66666666666667
88,57,143.375,E6,R,71.6875
88,0,143.5,E6,R,71.75
45,48,143.5,A2,L,71.75
45,0,143.5,A2,L,71.75
90,61,143.625,F#6,R,71.8125
90,0,143.75,F#6,R,71.875
88,61,143.75,E6,R,71.875
90,57,144.0,F#6,R,72.0
88,0,144.0,E6,R,72.0
45,48,144.0,A2,L,72.0
45,0,144.0,A2,L,72.0
90,0,144.25,F#6,R,72.125
88,53,144.25,E6,R,72.125
88,0,144.375,E6,R,72.1875
90,55,144.375,F#6,R,72.1875
90,0,144.5,F#6,R,72.25
88,56,144.625,E6,R,72.3125
88,0,144.75,E6,R,72.375
90,58,144.75,F#6,R,72.375
45,0,145.0,A2,L,72.5
88,54,145.0,E6,R,72.5
90,0,145.0,F#6,R,72.5
88,0,145.125,E6,R,72.5625
90,58,145.125,F#6,R,72.5625
90,0,145.25,F#6,R,72.625
88,50,145.25,E6,R,72.625
90,57,145.5,F#6,R,72.75
88,0,145.5,E6,R,72.75
90,0,146.0,F#6,R,73.0
90,62,146.0,F#6,R,73.0
38,48,146.0,D2,L,73.0
90,0,146.25,F#6,R,73.125
91,56,146.25,G6,R,73.125
45,44,146.25,A2,L,73.125
38,0,146.25,D2,L,73.125
91,0,146.375,G6,R,73.1875
45,0,146.375,A2,L,73.1875
38,49,146.4375,D2,L,73.21875
90,65,146.4375,F#6,R,73.21875
90,0,146.5,F#6,R,73.25
38,0,146.5,D2,L,73.25
38,49,146.5,D2,L,73.25
45,49,146.625,A2,L,73.3125
91,58,146.625,G6,R,73.3125
38,0,146.625,D2,L,73.3125
45,0,146.75,A2,L,73.375
38,48,146.75,D2,L,73.375
91,0,146.75,G6,R,73.375
90,61,146.75,F#6,R,73.375
38,0,147.0,D2,L,73.5
45,47,147.0,A2,L,73.5
91,46,147.0,G6,R,73.5
90,0,147.0,F#6,R,73.5
91,0,147.125,G6,R,73.5625
38,50,147.125,D2,L,73.5625
45,0,147.125,A2,L,73.5625
90,66,147.125,F#6,R,73.5625
91,40,147.375,G6,R,73.6875
90,0,147.375,F#6,R,73.6875
45,48,147.375,A2,L,73.6875
38,0,147.375,D2,L,73.6875
45,0,147.5,A2,L,73.75
90,58,147.5,F#6,L,73.75
91,0,147.5,G6,R,73.75
38,14,147.625,D2,L,73.8125
90,0,147.75,F#6,L,73.875
45,45,147.75,A2,L,73.875
91,50,147.75,G6,R,73.875
90,59,147.875,F#6,R,73.9375
38,20,147.875,D2,L,73.9375
45,0,147.875,A2,L,73.9375
91,0,147.875,G6,R,73.9375
38,0,148.0,D2,L,74.0
38,0,148.0,D2,L,74.0
90,0,148.0,F#6,R,74.0
91,40,148.125,G6,R,74.0625
45,49,148.125,A2,L,74.0625
90,63,148.25,F#6,R,74.125
45,0,148.25,A2,L,74.125
38,55,148.25,D2,L,74.125
91,0,148.5,G6,R,74.25
91,41,148.5,G6,R,74.25
90,0,148.5,F#6,R,74.25
45,40,148.5,A2,L,74.25
38,0,148.5,D2,L,74.25
38,52,148.625,D2,L,74.3125
90,53,148.625,F#6,R,74.3125
45,0,148.625,A2,L,74.3125
38,0,148.875,D2,L,74.4375
91,0,148.875,G6,R,74.4375
91,30,148.875,G6,R,74.4375
45,46,148.90625,A2,L,74.453125
91,0,149.0,G6,R,74.5
90,0,149.0,F#6,R,74.5
90,55,149.0,F#6,R,74.5
91,30,149.0,G6,R,74.5
38,47,149.0,D2,L,74.5
45,0,149.0,A2,L,74.5
38,0,149.16666666666666,D2,L,74.58333333333333
90,0,149.25,F#6,R,74.625
45,42,149.29166666666666,A2,R,74.64583333333333
45,0,149.33333333333331,A2,R,74.66666666666666
91,38,149.33333333333334,G6,R,74.66666666666667
38,47,149.33333333333334,D2,L,74.66666666666667
90,61,149.41666666666666,F#6,R,74.70833333333333
91,0,149.41666666666669,G6,R,74.70833333333334
38,0,149.5,D2,L,74.75
90,0,149.5,F#6,R,74.75
45,41,149.625,A2,R,74.8125
45,0,149.75,A2,R,74.875
38,46,149.75,D2,L,74.875
91,51,149.75,G6,R,74.875
91,0,149.75,G6,R,74.875
90,54,149.8125,F#6,R,74.90625
91,0,150.0,G6,R,75.0
45,41,150.0,A2,R,75.0
38,0,150.0,D2,L,75.0
90,0,150.0,F#6,R,75.0
38,46,150.08333333333334,D2,L,75.04166666666667
90,58,150.1,F#6,R,75.05
45,0,150.1,A2,R,75.05
45,44,150.33333333333334,A2,L,75.16666666666667
38,0,150.33333333333334,D2,L,75.16666666666667
91,46,150.4,G6,R,75.2
90,0,150.4,F#6,R,75.2
45,0,150.5,A2,L,75.25
45,44,150.5,A2,L,75.25
38,52,150.75,D2,L,75.375
45,0,150.75,A2,L,75.375
91,0,150.8,G6,R,75.4
90,64,150.8,F#6,R,75.4
38,0,151.0,D2,L,75.5
90,0,151.0,F#6,R,75.5
45,39,151.125,A2,L,75.5625
92,63,151.125,G#6,R,75.5625
92,0,151.25,G#6,R,75.625
45,0,151.25,A2,L,75.625
38,38,151.3125,D2,L,75.65625
90,56,151.3125,F#6,R,75.65625
90,0,151.5,F#6,R,75.75
92,62,151.5,G#6,R,75.75
38,0,151.5,D2,L,75.75
45,40,151.5,A2,L,75.75
92,0,151.66666666666666,G#6,R,75.83333333333333
45,0,151.66666666666666,A2,L,75.83333333333333
90,59,151.66666666666666,F#6,R,75.83333333333333
38,30,151.66666666666666,D2,L,75.83333333333333
90,0,151.75,F#6,R,75.875
90,59,151.75,F#6,R,75.875
38,0,151.83333333333331,D2,L,75.91666666666666
45,47,151.83333333333334,A2,L,75.91666666666667
90,0,151.875,F#6,R,75.9375
92,65,151.875,G#6,R,75.9375
45,0,152.0,A2,L,76.0
92,0,152.0,G#6,R,76.0
90,58,152.0625,F#6,R,76.03125
90,0,152.1875,F#6,R,76.09375
45,49,152.1875,A2,R,76.09375
92,63,152.25,G#6,R,76.125
45,0,152.25,A2,R,76.125
38,3,152.3125,D2,R,76.15625
92,0,152.375,G#6,R,76.1875
90,58,152.375,F#6,R,76.1875
38,3,152.4375,D2,R,76.21875
38,0,152.4375,D2,R,76.21875
38,3,152.46875,D2,R,76.234375
38,0,152.46875,D2,R,76.234375
45,46,152.46875,A2,R,76.234375
90,58,152.5,F#6,R,76.25
92,67,152.5,G#6,R,76.25
45,46,152.5,A2,R,76.25
45,0,152.5,A2,R,76.25
38,0,152.5,D2,R,76.25
90,0,152.5,F#6,R,76.25
38,40,152.625,D2,L,76.3125
45,3,152.9375,A2,L,76.46875
45,0,153.0,A2,R,76.5
93,63,153.0,A6,L,76.5
45,0,153.0,A2,L,76.5
45,3,153.0,A2,L,76.5
92,0,153.0,G#6,R,76.5
90,0,153.0,F#6,R,76.5
38,0,153.0,D2,L,76.5
33,60,153.25,A1,L,76.625
93,0,153.25,A6,L,76.625
93,63,153.25,A6,L,76.625
93,0,153.5,A6,L,76.75
33,0,153.5,A1,L,76.75
88,58,153.5,E6,R,76.75
45,46,153.5,A2,L,76.75
88,0,153.58333333333334,E6,R,76.79166666666667
85,47,153.66666666666666,C#6,R,76.83333333333333
45,0,153.75,A2,L,76.875
33,49,153.75,A1,L,76.875
81,52,153.75,A5,R,76.875
85,0,153.75,C#6,R,76.875
81,0,154.0,A5,R,77.0
88,63,154.0,E6,R,77.0
33,0,154.0,A1,L,77.0
45,38,154.0,A2,L,77.0
45,0,154.0,A2,L,77.0
88,0,154.16666666666666,E6,R,77.08333333333333
45,0,154.16666666666666,A2,L,77.08333333333333
33,57,154.16666666666666,A1,L,77.08333333333333
85,61,154.16666666666666,C#6,R,77.08333333333333
33,0,154.33333333333331,A1,L,77.16666666666666
85,0,154.33333333333331,C#6,R,77.16666666666666
81,62,154.33333333333334,A5,R,77.16666666666667
45,41,154.33333333333334,A2,L,77.16666666666667
45,0,154.5,A2,L,77.25
33,55,154.5,A1,R,77.25
81,0,154.5,A5,R,77.25
76,53,154.5625,E5,R,77.28125
76,0,154.75,E5,R,77.375
45,41,154.75,A2,L,77.375
85,58,154.79166666666666,C#6,R,77.39583333333333
85,0,154.83333333333331,C#6,R,77.41666666666666
81,58,154.83333333333334,A5,R,77.41666666666667
33,55,154.91666666666666,A1,R,77.45833333333333
81,0,154.91666666666669,A5,R,77.45833333333334
45,46,155.0,A2,L,77.5
33,0,155.0,A1,R,77.5
45,0,155.0,A2,L,77.5
33,0,155.0,A1,R,77.5
76,55,155.0625,E5,R,77.53125
76,0,155.25,E5,R,77.625
33,53,155.25,A1,L,77.625
45,0,155.25,A2,L,77.625
73,59,155.29166666666666,C#5,R,77.64583333333333
73,0,155.33333333333331,C#5,R,77.66666666666666
81,65,155.45833333333334,A5,R,77.72916666666667
33,0,155.5,A1,L,77.75
45,48,155.5,A2,L,77.75
81,0,155.5,A5,R,77.75
81,65,155.5,A5,R,77.75
45,0,155.625,A2,L,77.8125
33,67,155.625,A1,L,77.8125
76,62,155.6875,E5,L,77.84375
33,0,155.75,A1,L,77.875
45,49,155.75,A2,L,77.875
76,0,155.75,E5,L,77.875
76,62,155.75,E5,L,77.875
81,0,155.875,A5,R,77.9375
45,0,155.875,A2,L,77.9375
73,44,155.875,C#5,R,77.9375
33,61,155.875,A1,L,77.9375
73,0,156.0,C#5,R,78.0
76,0,156.0,E5,L,78.0
33,0,156.0,A1,L,78.0
69,54,156.0,A4,R,78.0
69,0,156.125,A4,R,78.0625
45,38,156.1875,A2,R,78.09375
76,53,156.25,E5,R,78.125
45,0,156.25,A2,R,78.125
33,59,156.25,A1,L,78.125
73,60,156.375,C#5,R,78.1875
73,0,156.5,C#5,R,78.25
33,0,156.5,A1,L,78.25
45,31,156.5,A2,L,78.25
76,0,156.5,E5,R,78.25
69,51,156.5,A4,R,78.25
73,60,156.5,C#5,R,78.25
45,0,156.75,A2,L,78.375
69,0,156.75,A4,R,78.375
64,59,156.79166666666666,E4,R,78.39583333333333
45,38,156.79166666666666,A2,L,78.39583333333333
64,0,156.91666666666666,E4,R,78.45833333333333
73,64,156.91666666666666,C#5,R,78.45833333333333
33,48,156.91666666666666,A1,L,78.45833333333333
45,0,156.91666666666666,A2,L,78.45833333333333
73,0,157.0,C#5,R,78.5
73,64,157.0,C#5,R,78.5
33,0,157.0,A1,L,78.5
73,0,157.0,C#5,R,78.5
69,61,157.03125,A4,L,78.515625
45,57,157.125,A2,L,78.5625
69,0,157.125,A4,L,78.5625
73,0,157.25,C#5,R,78.625
64,62,157.25,E4,R,78.625
45,0,157.25,A2,L,78.625
33,54,157.29166666666666,A1,L,78.64583333333333
33,0,157.33333333333331,A1,L,78.66666666666666
61,58,157.375,C#4,R,78.6875
64,0,157.375,E4,R,78.6875
45,56,157.41666666666666,A2,L,78.70833333333333
45,0,157.5,A2,L,78.75
61,58,157.5,C#4,R,78.75
61,0,157.5,C#4,R,78.75
33,47,157.55,A1,R,78.775
61,0,157.55,C#4,R,78.775
69,67,157.7,A4,R,78.85
33,0,157.70000000000002,A1,R,78.85000000000001
69,0,157.85,A4,R,78.925
45,46,157.85,A2,R,78.925
45,0,157.9,A2,R,78.95
64,66,157.9,E4,R,78.95
64,0,158.0,E4,R,79.0
61,41,158.0625,C#4,R,79.03125
33,50,158.0625,A1,L,79.03125
61,0,158.25,C#4,R,79.125
33,0,158.25,A1,L,79.125
57,54,158.25,A3,R,79.125
45,54,158.25,A2,L,79.125
33,53,158.375,A1,L,79.1875
45,0,158.375,A2,L,79.1875
64,61,158.375,E4,R,79.1875
64,0,158.5,E4,R,79.25
33,0,158.5,A1,L,79.25
45,40,158.5,A2,L,79.25
57,0,158.5,A3,R,79.25
61,57,158.5,C#4,R,79.25
64,61,158.5,E4,R,79.25
61,0,158.75,C#4,R,79.375
57,53,158.75,A3,R,79.375
33,38,158.75,A1,L,79.375
45,0,158.75,A2,L,79.375
57,0,158.83333333333334,A3,R,79.41666666666667
45,51,158.83333333333334,A2,R,79.41666666666667
45,0,158.91666666666669,A2,R,79.45833333333334
33,0,159.0,A1,L,79.5
64,0,159.0,E4,R,79.5
33,29,159.05,A1,L,79.525
52,56,159.05,E3,R,79.525
45,49,159.1,A2,L,79.55
61,56,159.1,C#4,R,79.55
33,0,159.10000000000002,A1,L,79.55000000000001
52,0,159.10000000000002,E3,R,79.55000000000001
33,55,159.2,A1,L,79.6
45,0,159.2,A2,L,79.6
61,0,159.2,C#4,R,79.6
57,55,159.2,A3,R,79.6
57,0,159.29999999999998,A3,R,79.64999999999999
33,0,159.39999999999998,A1,L,79.69999999999999
45,54,159.4,A2,L,79.7
52,50,159.4,E3,R,79.7
45,0,159.5,A2,L,79.75
52,0,159.5,E3,R,79.75
52,50,159.5,E3,R,79.75
52,0,159.625,E3,R,79.8125
49,54,159.625,C#3,R,79.8125
45,64,160.0,A2,R,80.0
49,0,160.0,C#3,R,80.0
33,55,160.0,A1,L,80.0
33,0,161.0,A1,L,80.5
45,0,161.0,A2,R,80.5
45,53,162.5,A2,R,81.25
33,49,162.5,A1,L,81.25
45,0,163.0,A2,R,81.5
33,0,163.0,A1,L,81.5
33,47,164.75,A1,L,82.375
45,45,164.8125,A2,R,82.40625
33,0,165.0,A1,L,82.5
45,0,165.0,A2,R,82.5
45,41,167.08333333333334,A2,L,83.54166666666667
33,39,167.16666666666666,A1,L,83.58333333333333
45,41,167.16666666666666,A2,L,83.58333333333333
45,0,167.16666666666669,A2,L,83.58333333333334
33,0,167.25,A1,L,83.625
45,0,167.25,A2,L,83.625
33,39,167.25,A1,L,83.625
33,0,168.0,A1,L,84.0
45,44,169.5,A2,L,84.75
45,44,170.0,A2,L,85.0
45,0,170.0,A2,L,85.0
52,47,170.0,E3,L,85.0
47,49,171.0,B2,L,85.5
45,0,171.0,A2,L,85.5
52,0,171.0,E3,L,85.5
49,52,171.5,C#3,L,85.75
49,0,172.0,C#3,L,86.0
49,52,172.0,C#3,L,86.0
47,0,172.0,B2,L,86.0
57,48,172.5,A3,L,86.25
54,48,173.0,F#3,L,86.5
49,0,173.0,C#3,L,86.5
52,50,174.0,E3,L,87.0
54,0,174.0,F#3,L,87.0
57,0,174.0,A3,L,87.0
71,56,174.5,B4,R,87.25
73,49,174.5,C#5,L,87.25
71,0,174.625,B4,R,87.3125
69,64,174.625,A4,R,87.3125
69,0,175.0,A4,R,87.5
73,0,175.0,C#5,L,87.5
76,66,175.0,E5,R,87.5
52,0,175.0,E3,L,87.5
76,0,175.375,E5,R,87.6875
74,67,175.4375,D5,R,87.71875
40,45,175.5,E2,L,87.75
74,0,175.5,D5,R,87.75
73,66,175.75,C#5,R,87.875
40,45,176.0,E2,L,88.0
73,0,176.0,C#5,R,88.0
40,0,176.0,E2,L,88.0
52,63,176.0,E3,L,88.0
74,61,176.15625,D5,R,88.078125
74,0,176.25,D5,R,88.125
68,73,176.5,G#4,R,88.25
71,71,176.875,B4,R,88.4375
68,0,176.875,G#4,R,88.4375
71,0,177.0,B4,R,88.5
40,0,177.0,E2,L,88.5
52,0,177.0,E3,L,88.5
83,72,177.1875,B5,R,88.59375
83,0,177.25,B5,R,88.625
83,72,177.25,B5,R,88.625
83,0,177.5,B5,R,88.75
40,50,177.5,E2,L,88.75
81,60,177.5625,A5,R,88.78125
81,0,177.75,A5,R,88.875
40,0,178.0,E2,L,89.0
40,50,178.0,E2,L,89.0
80,59,178.0,G#5,R,89.0
80,0,178.4,G#5,R,89.2
33,56,178.4,A1,R,89.2
40,0,179.0,E2,L,89.5
33,0,179.0,A1,R,89.5
45,49,179.2,A2,R,89.6
45,0,179.79999999999998,A2,R,89.89999999999999
35,54,179.8,B1,R,89.9
35,0,180.0,B1,R,90.0
35,54,180.0,B1,R,90.0
35,0,180.5,B1,R,90.25
37,53,180.5,C#2,R,90.25
37,0,181.0,C#2,R,90.5
45,52,181.0,A2,R,90.5
45,0,182.0,A2,R,91.0
43,52,182.0,G2,R,91.0
42,60,182.5,F#2,R,91.25
43,0,183.0,G2,R,91.5
78,58,183.0,F#5,R,91.5
76,61,183.125,E5,L,91.5625
74,74,183.25,D5,L,91.625
76,0,183.25,E5,L,91.625
74,0,183.5,D5,L,91.75
81,69,183.65625,A5,L,91.828125
81,0,183.75,A5,L,91.875
33,59,184.0,A1,L,92.0
42,0,184.0,F#2,R,92.0
78,0,184.0,F#5,R,92.0
79,64,184.0625,G5,R,92.03125
79,0,184.25,G5,R,92.125
78,69,184.375,F#5,R,92.1875
78,0,184.5,F#5,R,92.25
45,59,184.66666666666666,A2,L,92.33333333333333
33,0,184.66666666666666,A1,L,92.33333333333333
79,65,184.75,G5,R,92.375
79,0,185.0,G5,R,92.5
73,64,185.125,C#5,R,92.5625
76,68,185.5,E5,R,92.75
73,0,185.5,C#5,R,92.75
76,0,185.875,E5,R,92.9375
88,70,185.875,E6,R,92.9375
88,0,186.0,E6,R,93.0
33,72,186.0,A1,L,93.0
45,0,186.0,A2,L,93.0
86,74,186.25,D6,R,93.125
86,0,186.5,D6,R,93.25
85,70,186.5625,C#6,R,93.28125
85,0,186.75,C#6,R,93.375
33,0,187.0,A1,L,93.5
38,85,187.08333333333334,D2,R,93.54166666666667
38,0,187.33333333333334,D2,R,93.66666666666667
37,71,187.33333333333334,C#2,R,93.66666666666667
37,0,187.5,C#2,R,93.75
35,66,187.5,B1,R,93.75
33,77,187.625,A1,R,93.8125
35,0,187.625,B1,R,93.8125
33,0,188.0,A1,R,94.0
43,69,188.03125,G2,R,94.015625
43,69,188.125,G2,R,94.0625
43,0,188.125,G2,R,94.0625
43,0,188.375,G2,R,94.1875
42,83,188.375,F#2,R,94.1875
42,0,188.5,F#2,R,94.25
42,83,188.5,F#2,R,94.25
40,79,188.6875,E2,R,94.34375
42,0,188.6875,F#2,R,94.34375
40,0,188.75,E2,R,94.375
40,79,188.75,E2,R,94.375
42,84,189.0,F#2,R,94.5
40,0,189.0,E2,R,94.5
40,73,189.375,E2,R,94.6875
42,0,189.375,F#2,R,94.6875
40,73,189.5,E2,R,94.75
40,0,189.5,E2,R,94.75
38,79,189.6875,D2,R,94.84375
40,0,189.6875,E2,R,94.84375
38,0,189.75,D2,R,94.875
38,79,189.75,D2,R,94.875
48,76,190.0,C3,R,95.0
38,0,190.0,D2,R,95.0
46,83,190.375,A#2,R,95.1875
48,0,190.375,C3,R,95.1875
46,0,190.5,A#2,R,95.25
45,76,190.75,A2,R,95.375
45,0,191.0,A2,R,95.5
46,84,191.0,A#2,R,95.5
46,0,192.0,A#2,R,96.0
46,84,192.0,A#2,R,96.0
46,0,192.5,A#2,R,96.25
48,71,192.5,C3,R,96.25
48,0,193.0,C3,R,96.5
50,76,193.16666666666666,D3,R,96.58333333333333
50,0,193.33333333333331,D3,R,96.66666666666666
50,80,193.33333333333334,D3,R,96.66666666666667
50,0,194.0,D3,R,97.0
42,75,194.0,F#2,R,97.0
42,0,194.66666666666666,F#2,R,97.33333333333333
43,69,194.66666666666666,G2,R,97.33333333333333
36,56,195.0,C2,L,97.5
79,80,195.66666666666666,G5,R,97.83333333333333
43,0,195.66666666666666,G2,R,97.83333333333333
36,56,196.0,C2,L,98.0
79,80,196.0,G5,R,98.0
36,0,196.0,C2,L,98.0
79,0,196.0,G5,R,98.0
81,77,197.0,A5,L,98.5
79,0,197.0,G5,R,98.5
36,0,197.0,C2,L,98.5
81,0,197.5,A5,L,98.75
82,86,197.5,A#5,L,98.75
82,0,198.0,A#5,L,99.0
84,87,198.0,C6,R,99.0
29,50,198.0,F1,L,99.0
29,0,198.25,F1,L,99.125
41,51,198.375,F2,L,99.1875
41,0,198.5,F2,L,99.25
29,45,198.66666666666666,F1,L,99.33333333333333
29,0,198.83333333333331,F1,L,99.41666666666666
41,41,198.83333333333334,F2,L,99.41666666666667
41,0,199.0,F2,L,99.5
29,60,199.0,F1,L,99.5
76,79,199.0,E5,R,99.5
29,0,199.25,F1,L,99.625
41,52,199.25,F2,L,99.625
29,51,199.4375,F1,L,99.71875
41,0,199.4375,F2,L,99.71875
29,0,199.5,F1,L,99.75
77,71,199.5,F5,L,99.75
76,0,199.5,E5,R,99.75
41,39,199.625,F2,R,99.8125
41,0,199.75,F2,R,99.875
29,52,199.75,F1,R,99.875
29,0,200.0,F1,R,100.0
77,71,200.0,F5,L,100.0
77,0,200.0,F5,L,100.0
84,0,200.0,C6,R,100.0
41,30,200.0,F2,R,100.0
29,51,200.25,F1,R,100.125
41,0,200.25,F2,R,100.125
41,50,200.375,F2,L,100.1875
77,0,200.375,F5,L,100.1875
29,56,200.5,F1,L,100.25
41,0,200.5,F2,L,100.25
41,44,200.75,F2,L,100.375
29,0,200.75,F1,L,100.375
29,27,200.875,F1,L,100.4375
29,0,201.0,F1,R,100.5
84,64,201.0,C6,R,100.5
29,27,201.0,F1,L,100.5
41,34,201.0,F2,L,100.5
41,0,201.0,F2,L,100.5
29,0,201.0,F1,L,100.5
29,32,201.125,F1,L,100.5625
41,0,201.125,F2,L,100.5625
75,64,201.5,D#5,R,100.75
84,0,201.5,C6,R,100.75
29,22,201.5,F1,L,100.75
29,0,201.5,F1,L,100.75
29,45,201.875,F1,R,100.9375
75,0,201.875,D#5,R,100.9375
77,64,202.0,F5,L,101.0
41,31,202.0,F2,R,101.0
29,0,202.0,F1,R,101.0
29,0,202.0,F1,L,101.0
29,0,202.0,F1,L,101.0
41,0,202.25,F2,R,101.125
29,40,202.29166666666666,F1,R,101.14583333333333
74,67,202.41666666666666,D5,R,101.20833333333333
29,0,202.41666666666666,F1,R,101.20833333333333
74,0,202.5,D5,R,101.25
29,34,202.5,F1,L,101.25
77,0,202.5,F5,L,101.25
74,67,202.5,D5,R,101.25
29,45,202.75,F1,L,101.375
29,0,202.75,F1,L,101.375
29,41,203.0,F1,L,101.5
29,0,203.0,F1,L,101.5
74,0,203.0,D5,R,101.5
29,0,203.25,F1,L,101.625
77,60,203.25,F5,L,101.625
77,0,203.375,F5,L,101.6875
29,15,203.375,F1,L,101.6875
29,15,203.5,F1,L,101.75
29,0,203.5,F1,L,101.75
29,0,204.0,F1,L,102.0
70,60,204.0,A#4,L,102.0
70,0,204.5,A#4,L,102.25
41,14,204.66666666666666,F2,L,102.33333333333333
41,0,204.83333333333331,F2,L,102.41666666666666
29,54,204.83333333333334,F1,L,102.41666666666667
74,69,205.0,D5,L,102.5
29,0,205.0,F1,L,102.5
41,49,205.0625,F2,L,102.53125
29,46,205.1875,F1,L,102.59375
41,0,205.1875,F2,L,102.59375
29,46,205.25,F1,L,102.625
29,0,205.25,F1,L,102.625
29,0,205.375,F1,L,102.6875
41,51,205.375,F2,L,102.6875
29,51,205.5,F1,L,102.75
41,0,205.5,F2,L,102.75
41,47,205.66666666666666,F2,L,102.83333333333333
29,0,205.66666666666666,F1,L,102.83333333333333
41,0,205.83333333333331,F2,L,102.91666666666666
29,44,205.83333333333334,F1,L,102.91666666666667
65,55,206.0,F4,R,103.0
74,0,206.0,D5,L,103.0
29,0,206.0,F1,L,103.0
41,45,206.0,F2,L,103.0
41,0,206.1,F2,L,103.05
29,38,206.15,F1,L,103.075
41,40,206.3,F2,L,103.15
29,0,206.3,F1,L,103.15
41,0,206.4,F2,L,103.2
29,41,206.4,F1,L,103.2
70,62,206.5,A#4,R,103.25
29,0,206.5,F1,L,103.25
29,41,206.5,F1,L,103.25
29,0,206.625,F1,L,103.3125
41,29,206.625,F2,L,103.3125
41,0,206.875,F2,L,103.4375
41,27,206.9375,F2,L,103.46875
65,0,207.0,F4,R,103.5
64,65,207.0,E4,R,103.5
41,0,207.0,F2,L,103.5
41,27,207.0,F2,L,103.5
29,53,207.25,F1,L,103.625
41,0,207.25,F2,L,103.625
41,45,207.4375,F2,L,103.71875
29,0,207.4375,F1,L,103.71875
41,0,207.5,F2,L,103.75
29,55,207.5625,F1,L,103.78125
29,0,207.75,F1,L,103.875
41,50,207.75,F2,L,103.875
41,0,207.9375,F2,L,103.96875
29,49,207.9375,F1,L,103.96875
41,47,208.0,F2,L,104.0
70,0,208.0,A#4,R,104.0
64,0,208.0,E4,R,104.0
29,0,208.0,F1,L,104.0
70,59,208.0,A#4,R,104.0
41,0,208.16666666666666,F2,L,104.08333333333333
29,39,208.16666666666666,F1,L,104.08333333333333
29,0,208.33333333333331,F1,L,104.16666666666666
41,46,208.33333333333334,F2,L,104.16666666666667
29,26,208.5,F1,L,104.25
41,0,208.5,F2,L,104.25
41,20,208.6875,F2,L,104.34375
41,0,208.75,F2,L,104.375
41,20,208.75,F2,L,104.375
29,0,208.75,F1,L,104.375
29,44,208.75,F1,L,104.375
67,57,208.75,G4,R,104.375
70,0,208.75,A#4,R,104.375
41,16,209.0,F2,R,104.5
67,0,209.0,G4,R,104.5
41,0,209.0,F2,L,104.5
29,0,209.0,F1,L,104.5
41,0,209.5,F2,R,104.75
65,54,209.625,F4,R,104.8125
53,50,209.875,F3,R,104.9375
65,0,209.875,F4,R,104.9375
53,0,210.0,F3,R,105.0
29,54,210.0,F1,L,105.0
65,45,210.125,F4,R,105.0625
65,0,210.25,F4,R,105.125
53,46,210.3125,F3,R,105.15625
31,52,210.5,G1,L,105.25
53,0,210.5,F3,R,105.25
65,47,210.5,F4,R,105.25
65,0,210.6875,F4,R,105.34375
53,47,210.6875,F3,R,105.34375
53,0,210.75,F3,R,105.375
53,47,210.75,F3,R,105.375
65,43,210.875,F4,R,105.4375
53,0,210.875,F3,R,105.4375
29,0,211.0,F1,L,105.5
33,68,211.0,A1,L,105.5
53,49,211.0,F3,R,105.5
65,0,211.0,F4,R,105.5
53,0,211.25,F3,R,105.625
65,46,211.29166666666666,F4,R,105.64583333333333
65,0,211.33333333333331,F4,R,105.66666666666666
53,46,211.41666666666666,F3,R,105.70833333333333
53,0,211.5,F3,R,105.75
65,44,211.625,F4,R,105.8125
65,0,211.75,F4,R,105.875
53,52,211.75,F3,R,105.875
31,0,212.0,G1,L,106.0
65,38,212.0,F4,R,106.0
53,0,212.0,F3,R,106.0
33,0,212.0,A1,L,106.0
34,65,212.0,A#1,L,106.0
53,42,212.125,F3,R,106.0625
65,0,212.125,F4,R,106.0625
53,0,212.25,F3,R,106.125
65,42,212.3125,F4,R,106.15625
53,48,212.5,F3,R,106.25
65,0,212.5,F4,R,106.25
65,41,212.6875,F4,R,106.34375
34,65,212.75,A#1,L,106.375
34,0,212.75,A#1,L,106.375
65,0,212.75,F4,R,106.375
53,0,212.75,F3,R,106.375
36,67,212.75,C2,R,106.375
65,41,212.75,F4,R,106.375
34,0,212.875,A#1,L,106.4375
53,48,212.875,F3,L,106.4375
53,0,213.0,F3,L,106.5
65,0,213.0,F4,R,106.5
36,67,213.0,C2,R,106.5
36,0,213.0,C2,R,106.5
65,43,213.0625,F4,L,106.53125
65,0,213.25,F4,L,106.625
53,45,213.29166666666666,F3,L,106.64583333333333
53,0,213.33333333333331,F3,L,106.66666666666666
36,0,213.375,C2,R,106.6875
65,43,213.375,F4,R,106.6875
38,56,213.41666666666666,D2,L,106.70833333333333
65,0,213.5,F4,R,106.75
38,0,213.5,D2,L,106.75
38,56,213.5,D2,L,106.75
53,50,213.5625,F3,R,106.78125
65,40,213.75,F4,R,106.875
53,0,213.75,F3,R,106.875
65,0,213.9375,F4,R,106.96875
53,42,213.96875,F3,R,106.984375
39,61,214.0,D#2,L,107.0
53,0,214.0,F3,R,107.0
38,0,214.0,D2,L,107.0
53,42,214.0,F3,R,107.0
53,0,214.1875,F3,R,107.09375
65,33,214.1875,F4,R,107.09375
65,33,214.25,F4,R,107.125
65,0,214.25,F4,R,107.125
53,43,214.375,F3,R,107.1875
65,0,214.375,F4,R,107.1875
53,0,214.5,F3,R,107.25
65,48,214.5,F4,R,107.25
65,0,214.75,F4,R,107.375
53,42,214.75,F3,R,107.375
65,45,214.9375,F4,R,107.46875
39,0,215.0,D#2,L,107.5
53,0,215.0,F3,R,107.5
38,48,215.0,D2,R,107.5
65,0,215.0,F4,R,107.5
65,45,215.0,F4,R,107.5
53,49,215.125,F3,L,107.5625
65,48,215.25,F4,L,107.625
53,0,215.25,F3,L,107.625
53,44,215.5,F3,L,107.75
65,0,215.5,F4,L,107.75
65,49,215.66666666666666,F4,L,107.83333333333333
53,0,215.66666666666666,F3,L,107.83333333333333
38,0,215.75,D2,R,107.875
38,48,215.75,D2,R,107.875
65,0,215.83333333333331,F4,L,107.91666666666666
36,56,215.83333333333334,C2,L,107.91666666666667
38,0,215.875,D2,R,107.9375
53,49,215.875,F3,R,107.9375
36,56,216.0,C2,L,108.0
65,0,216.0,F4,R,108.0
36,0,216.0,C2,L,108.0
65,38,216.0,F4,R,108.0
53,0,216.0,F3,R,108.0
53,41,216.25,F3,R,108.125
65,0,216.25,F4,R,108.125
53,0,216.41666666666666,F3,R,108.20833333333333
65,46,216.45833333333334,F4,R,108.22916666666667
65,0,216.5,F4,R,108.25
36,0,216.5,C2,L,108.25
34,52,216.5,A#1,L,108.25
65,46,216.5,F4,R,108.25
65,0,216.625,F4,R,108.3125
53,40,216.6875,F3,R,108.34375
53,0,216.75,F3,R,108.375
53,40,216.75,F3,R,108.375
65,42,216.875,F4,R,108.4375
53,0,216.875,F3,R,108.4375
34,52,217.0,A#1,L,108.5
65,0,217.0,F4,R,108.5
34,0,217.0,A#1,L,108.5
53,45,217.0625,F3,R,108.53125
65,50,217.25,F4,R,108.625
53,0,217.25,F3,R,108.625
65,0,217.29166666666666,F4,R,108.64583333333333
33,60,217.29166666666666,A1,R,108.64583333333333
65,50,217.29166666666666,F4,R,108.64583333333333
34,52,217.375,A#1,L,108.6875
34,0,217.375,A#1,L,108.6875
33,60,217.41666666666666,A1,R,108.70833333333333
65,0,217.41666666666666,F4,R,108.70833333333333
33,0,217.41666666666666,A1,R,108.70833333333333
34,0,217.4375,A#1,L,108.71875
53,44,217.4375,F3,L,108.71875
53,44,217.5,F3,L,108.75
33,0,217.5,A1,R,108.75
33,60,217.5,A1,R,108.75
53,0,217.5,F3,L,108.75
53,0,217.625,F3,L,108.8125
65,47,217.625,F4,L,108.8125
65,0,217.75,F4,L,108.875
53,45,217.75,F3,L,108.875
65,45,218.0,F4,L,109.0
53,0,218.0,F3,L,109.0
33,0,218.0,A1,R,109.0
65,45,218.04166666666666,F4,L,109.02083333333333
31,50,218.04166666666666,G1,L,109.02083333333333
65,0,218.04166666666666,F4,L,109.02083333333333
65,0,218.16666666666666,F4,L,109.08333333333333
31,0,218.16666666666666,G1,L,109.08333333333333
53,48,218.16666666666666,F3,L,109.08333333333333
53,0,218.25,F3,L,109.125
65,46,218.375,F4,L,109.1875
53,51,218.5,F3,L,109.25
65,46,218.5,F4,L,109.25
65,0,218.5,F4,L,109.25
69,56,219.0,A4,R,109.5
65,0,219.0,F4,L,109.5
53,0,219.0,F3,L,109.5
41,49,219.08333333333334,F2,L,109.54166666666667
65,46,219.16666666666666,F4,L,109.58333333333333
41,0,219.16666666666669,F2,L,109.58333333333334
65,0,219.33333333333331,F4,L,109.66666666666666
53,37,219.33333333333334,F3,L,109.66666666666667
53,0,219.5,F3,L,109.75
41,49,219.5,F2,L,109.75
53,35,219.6875,F3,L,109.84375
41,0,219.6875,F2,L,109.84375
53,0,219.75,F3,L,109.875
41,55,219.79166666666666,F2,L,109.89583333333333
41,0,219.83333333333331,F2,L,109.91666666666666
67,59,219.83333333333334,G4,L,109.91666666666667
41,55,219.83333333333334,F2,L,109.91666666666667
67,59,219.91666666666666,G4,L,109.95833333333333
67,0,219.91666666666669,G4,L,109.95833333333334
41,0,219.91666666666669,F2,L,109.95833333333334
69,0,220.0,A4,R,110.0
70,71,220.0,A#4,R,110.0
67,0,220.0,G4,L,110.0
53,46,220.0,F3,L,110.0
67,59,220.0,G4,L,110.0
67,59,220.25,G4,L,110.125
53,0,220.25,F3,L,110.125
67,0,220.25,G4,L,110.125
41,54,220.25,F2,L,110.125
41,0,220.375,F2,L,110.1875
53,48,220.375,F3,L,110.1875
67,0,220.375,G4,L,110.1875
67,59,220.375,G4,L,110.1875
53,0,220.5,F3,L,110.25
41,47,220.5,F2,L,110.25
69,47,220.5,A4,R,110.25
72,71,220.5,C5,R,110.25
67,0,220.5,G4,L,110.25
41,0,220.75,F2,L,110.375
53,47,220.8125,F3,L,110.40625
41,42,221.0,F2,L,110.5
53,0,221.0,F3,L,110.5
70,0,221.0,A#4,R,110.5
53,52,221.16666666666666,F3,L,110.58333333333333
41,0,221.16666666666666,F2,L,110.58333333333333
70,61,221.25,A#4,R,110.625
74,74,221.25,D5,R,110.625
53,0,221.33333333333331,F3,L,110.66666666666666
41,59,221.33333333333334,F2,L,110.66666666666667
41,0,221.5,F2,L,110.75
53,48,221.625,F3,L,110.8125
53,0,221.75,F3,L,110.875
41,52,221.75,F2,L,110.875
70,0,222.0,A#4,R,111.0
69,0,222.0,A4,R,111.0
74,0,222.0,D5,R,111.0
72,0,222.0,C5,R,111.0
72,59,222.0,C5,R,111.0
77,79,222.0,F5,R,111.0
53,37,222.0,F3,L,111.0
41,0,222.0,F2,L,111.0
53,0,222.125,F3,L,111.0625
41,55,222.125,F2,L,111.0625
53,48,222.375,F3,L,111.1875
41,0,222.375,F2,L,111.1875
53,0,222.5,F3,L,111.25
41,51,222.53125,F2,L,111.265625
41,0,222.625,F2,L,111.3125
53,52,222.75,F3,L,111.375
53,0,222.875,F3,L,111.4375
41,47,222.875,F2,L,111.4375
41,0,223.0,F2,L,111.5
77,0,223.0,F5,R,111.5
72,0,223.0,C5,R,111.5
74,59,223.0,D5,L,111.5
53,46,223.125,F3,L,111.5625
77,79,223.16666666666666,F5,R,111.58333333333333
77,0,223.33333333333331,F5,R,111.66666666666666
53,0,223.5,F3,L,111.75
41,22,223.5,F2,L,111.75
53,18,223.625,F3,L,111.8125
41,0,223.625,F2,L,111.8125
79,75,223.66666666666666,G5,R,111.83333333333333
41,50,223.75,F2,L,111.875
53,0,223.75,F3,L,111.875
79,75,224.0,G5,R,112.0
75,63,224.0,D#5,L,112.0
41,0,224.0,F2,L,112.0
74,0,224.0,D5,L,112.0
79,0,224.0,G5,R,112.0
53,39,224.0625,F3,L,112.03125
53,0,224.125,F3,L,112.0625
41,55,224.125,F2,L,112.0625
41,0,224.25,F2,L,112.125
53,43,224.3125,F3,L,112.15625
53,0,224.375,F3,L,112.1875
41,55,224.375,F2,L,112.1875
79,0,224.5,G5,R,112.25
74,63,224.5,D5,R,112.25
75,0,224.5,D#5,L,112.25
41,0,224.5,F2,L,112.25
77,77,224.5,F5,R,112.25
79,75,224.5,G5,R,112.25
53,46,224.5,F3,L,112.25
41,63,224.75,F2,L,112.375
53,51,224.875,F3,L,112.4375
53,0,224.875,F3,L,112.4375
79,0,225.0,G5,R,112.5
77,0,225.0,F5,R,112.5
41,0,225.0,F2,L,112.5
53,0,225.0,F3,L,112.5
77,77,225.0,F5,R,112.5
75,79,225.25,D#5,R,112.625
72,59,225.25,C5,R,112.625
42,44,225.25,F#2,L,112.625
77,77,225.25,F5,R,112.625
77,0,225.25,F5,R,112.625
42,0,225.5,F#2,L,112.75
54,47,225.54166666666666,F#3,L,112.77083333333333
54,0,225.58333333333331,F#3,L,112.79166666666666
42,66,225.58333333333334,F#2,L,112.79166666666667
42,0,225.75,F#2,L,112.875
54,52,225.75,F#3,L,112.875
75,0,226.0,D#5,R,113.0
77,0,226.0,F5,R,113.0
70,57,226.0,A#4,R,113.0
74,74,226.0,D5,R,113.0
54,0,226.0,F#3,L,113.0
43,57,226.0,G2,L,113.0
72,0,226.0,C5,R,113.0
74,0,226.0,D5,R,113.0
43,0,226.1875,G2,L,113.09375
55,62,226.21875,G3,L,113.109375
55,0,226.25,G3,L,113.125
55,62,226.25,G3,L,113.125
55,0,226.3125,G3,L,113.15625
43,66,226.3125,G2,L,113.15625
43,0,226.5,G2,L,113.25
36,53,226.75,C2,L,113.375
72,70,227.0,C5,R,113.5
69,53,227.0,A4,R,113.5
74,0,227.0,D5,R,113.5
70,0,227.0,A#4,R,113.5
48,37,227.0,C3,L,113.5
36,0,227.0,C2,L,113.5
48,0,227.125,C3,L,113.5625
36,71,227.125,C2,L,113.5625
36,0,227.25,C2,L,113.625
48,54,227.3125,C3,L,113.65625
69,0,227.5,A4,R,113.75
37,41,227.5,C#2,L,113.75
48,0,227.5,C3,L,113.75
67,61,227.5,G4,R,113.75
72,0,227.5,C5,R,113.75
70,82,227.5,A#4,R,113.75
37,0,227.625,C#2,L,113.8125
49,50,227.6875,C#3,L,113.84375
49,0,227.75,C#3,L,113.875
49,50,227.75,C#3,L,113.875
37,68,227.875,C#2,L,113.9375
49,0,227.875,C#3,L,113.9375
70,0,228.0,A#4,R,114.0
37,0,228.0,C#2,L,114.0
67,0,228.0,G4,R,114.0
70,82,228.0,A#4,R,114.0
49,53,228.08333333333334,C#3,L,114.04166666666667
49,0,228.16666666666669,C#3,L,114.08333333333334
69,70,228.3125,A4,R,114.15625
66,61,228.3125,F#4,R,114.15625
38,63,228.33333333333334,D2,L,114.16666666666667
38,63,228.5,D2,L,114.25
66,0,228.5,F#4,R,114.25
69,0,228.5,A4,R,114.25
38,0,228.5,D2,L,114.25
70,0,228.75,A#4,R,114.375
70,82,228.75,A#4,R,114.375
70,0,228.8125,A#4,R,114.40625
38,0,229.0,D2,L,114.5
40,55,229.0,E2,L,114.5
62,50,229.125,D4,R,114.5625
50,61,229.25,D3,R,114.625
62,0,229.25,D4,R,114.625
50,0,229.5,D3,R,114.75
62,41,229.5625,D4,R,114.78125
50,54,229.6875,D3,R,114.84375
62,0,229.6875,D4,R,114.84375
50,0,229.75,D3,R,114.875
50,54,229.75,D3,R,114.875
50,0,229.875,D3,R,114.9375
62,46,229.875,D4,R,114.9375
42,63,230.0,F#2,L,115.0
62,0,230.0,D4,R,115.0
40,0,230.0,E2,L,115.0
50,48,230.125,D3,R,115.0625
50,0,230.25,D3,R,115.125
62,51,230.3125,D4,R,115.15625
62,0,230.5,D4,R,115.25
50,48,230.54166666666666,D3,R,115.27083333333333
43,70,230.66666666666666,G2,L,115.33333333333333
50,0,230.66666666666666,D3,R,115.33333333333333
42,0,230.66666666666666,F#2,L,115.33333333333333
62,44,230.70833333333334,D4,R,115.35416666666667
62,0,230.75,D4,R,115.375
62,44,230.75,D4,R,115.375
62,0,230.9375,D4,R,115.46875
50,53,230.9375,D3,R,115.46875
50,0,231.0,D3,R,115.5
62,45,231.125,D4,R,115.5625
62,0,231.25,D4,R,115.625
50,43,231.3125,D3,R,115.65625
43,0,231.33333333333331,G2,L,115.66666666666666
45,73,231.33333333333334,A2,L,115.66666666666667
50,0,231.5,D3,R,115.75
62,44,231.54166666666666,D4,R,115.77083333333333
62,0,231.58333333333331,D4,R,115.79166666666666
50,50,231.66666666666666,D3,R,115.83333333333333
50,0,231.75,D3,R,115.875
62,48,231.875,D4,R,115.9375
62,0,232.0,D4,R,116.0
45,73,232.0,A2,L,116.0
45,0,232.0,A2,L,116.0
50,51,232.0625,D3,R,116.03125
50,0,232.25,D3,R,116.125
46,75,232.25,A#2,R,116.125
62,39,232.29166666666666,D4,R,116.14583333333333
62,0,232.41666666666666,D4,R,116.20833333333333
45,0,232.5,A2,L,116.25
50,53,232.5,D3,L,116.25
50,0,232.6875,D3,L,116.34375
62,31,232.6875,D4,L,116.34375
62,0,232.75,D4,L,116.375
62,31,232.75,D4,L,116.375
62,0,232.875,D4,L,116.4375
50,39,232.875,D3,L,116.4375
62,39,233.0,D4,R,116.5
50,0,233.0,D3,L,116.5
46,0,233.0,A#2,R,116.5
48,63,233.0,C3,L,116.5
50,43,233.25,D3,R,116.625
62,0,233.25,D4,R,116.625
50,0,233.5,D3,R,116.75
62,40,233.54166666666666,D4,R,116.77083333333333
62,0,233.58333333333331,D4,R,116.79166666666666
50,51,233.66666666666666,D3,R,116.83333333333333
50,0,233.75,D3,R,116.875
48,0,233.75,C3,L,116.875
46,59,233.75,A#2,R,116.875
62,46,233.875,D4,L,116.9375
46,0,234.0,A#2,R,117.0
46,59,234.0,A#2,R,117.0
62,0,234.0,D4,L,117.0
50,49,234.125,D3,L,117.0625
62,44,234.25,D4,L,117.125
50,0,234.25,D3,L,117.125
62,0,234.5,D4,L,117.25
45,50,234.5,A2,L,117.25
46,0,234.5,A#2,R,117.25
50,52,234.54166666666666,D3,R,117.27083333333333
50,0,234.58333333333331,D3,R,117.29166666666666
62,49,234.66666666666666,D4,R,117.33333333333333
62,0,234.75,D4,R,117.375
50,49,234.84375,D3,R,117.421875
50,49,234.875,D3,R,117.4375
50,0,234.875,D3,R,117.4375
62,48,234.875,D4,R,117.4375
50,56,234.9375,D3,R,117.46875
50,0,234.9375,D3,R,117.46875
50,56,235.0,D3,R,117.5
62,0,235.0,D4,R,117.5
50,0,235.0,D3,R,117.5
62,48,235.0,D4,R,117.5
43,54,235.0,G2,R,117.5
62,0,235.375,D4,R,117.6875
43,54,235.375,G2,R,117.6875
62,55,235.375,D4,R,117.6875
43,0,235.375,G2,R,117.6875
43,0,235.5,G2,R,117.75
62,0,235.5,D4,R,117.75
43,54,235.5,G2,R,117.75
45,0,235.5,A2,L,117.75
50,48,235.5,D3,L,117.75
50,0,235.6875,D3,L,117.84375
62,49,235.6875,D4,L,117.84375
62,0,235.75,D4,L,117.875
62,49,235.75,D4,L,117.875
50,55,235.875,D3,L,117.9375
62,0,235.875,D4,L,117.9375
62,50,236.0,D4,R,118.0
43,0,236.0,G2,R,118.0
50,0,236.0,D3,L,118.0
42,57,236.0,F#2,L,118.0
50,0,236.0,D3,R,118.0
62,0,236.25,D4,R,118.125
50,51,236.25,D3,R,118.125
50,0,236.33333333333334,D3,R,118.16666666666667
62,49,236.41666666666666,D4,R,118.20833333333333
62,0,236.5,D4,R,118.25
50,48,236.625,D3,R,118.3125
62,46,236.75,D4,R,118.375
50,0,236.75,D3,R,118.375
42,0,237.0,F#2,L,118.5
62,0,237.0,D4,R,118.5
40,55,237.0,E2,R,118.5
50,48,237.0625,D3,R,118.53125
50,0,237.125,D3,R,118.5625
50,48,237.125,D3,R,118.5625
62,58,237.125,D4,R,118.5625
50,62,237.25,D3,R,118.625
50,0,237.25,D3,R,118.625
62,0,237.25,D4,R,118.625
38,46,237.75,D2,L,118.875
66,65,238.0,F#4,R,119.0
62,43,238.0,D4,L,119.0
40,0,238.0,E2,R,119.0
38,0,238.0,D2,L,119.0
50,0,238.0,D3,R,119.0
50,49,238.0625,D3,L,119.03125
50,0,238.125,D3,L,119.0625
38,51,238.125,D2,L,119.0625
38,0,238.25,D2,L,119.125
50,46,238.34375,D3,L,119.171875
50,0,238.375,D3,L,119.1875
50,46,238.375,D3,L,119.1875
50,0,238.5,D3,L,119.25
66,0,238.5,F#4,R,119.25
64,56,238.5,E4,R,119.25
67,68,238.5,G4,R,119.25
38,59,238.58333333333334,D2,L,119.29166666666667
50,51,238.66666666666666,D3,L,119.33333333333333
38,0,238.66666666666669,D2,L,119.33333333333334
50,0,238.83333333333331,D3,L,119.41666666666666
38,52,238.83333333333334,D2,L,119.41666666666667
67,0,239.0,G4,R,119.5
67,68,239.0,G4,R,119.5
38,0,239.0,D2,L,119.5
62,0,239.0,D4,L,119.5
50,53,239.0625,D3,L,119.53125
69,71,239.25,A4,R,119.625
66,60,239.25,F#4,R,119.625
67,68,239.25,G4,R,119.625
67,0,239.25,G4,R,119.625
50,0,239.25,D3,L,119.625
38,53,239.29166666666666,D2,L,119.64583333333333
38,0,239.33333333333331,D2,L,119.66666666666666
50,50,239.41666666666666,D3,L,119.70833333333333
50,50,239.5,D3,L,119.75
38,33,239.5,D2,L,119.75
50,0,239.5,D3,L,119.75
50,50,239.75,D3,L,119.875
38,0,239.75,D2,L,119.875
50,0,239.75,D3,L,119.875
50,0,239.875,D3,L,119.9375
50,49,239.9375,D3,L,119.96875
66,0,240.0,F#4,R,120.0
67,0,240.0,G4,R,120.0
69,0,240.0,A4,R,120.0
70,74,240.0,A#4,R,120.0
64,0,240.0,E4,R,120.0
50,0,240.0,D3,L,120.0
38,51,240.0,D2,L,120.0
38,0,240.25,D2,L,120.125
50,57,240.25,D3,L,120.125
67,56,240.25,G4,R,120.125
50,0,240.375,D3,L,120.1875
38,62,240.375,D2,L,120.1875
38,0,240.5,D2,L,120.25
50,58,240.5625,D3,L,120.28125
38,60,240.6875,D2,L,120.34375
50,0,240.6875,D3,L,120.34375
38,60,240.75,D2,L,120.375
70,0,240.75,A#4,R,120.375
69,60,240.75,A4,R,120.375
74,76,240.75,D5,R,120.375
38,0,240.75,D2,L,120.375
67,0,240.75,G4,R,120.375
38,0,240.875,D2,L,120.4375
50,57,240.875,D3,L,120.4375
50,0,241.0,D3,L,120.5
38,54,241.0,D2,L,120.5
74,76,241.0,D5,R,120.5
74,0,241.0,D5,R,120.5
69,0,241.0,A4,R,120.5
50,57,241.1875,D3,L,120.59375
38,0,241.1875,D2,L,120.59375
50,57,241.25,D3,L,120.625
50,0,241.25,D3,L,120.625
38,28,241.375,D2,L,120.6875
50,0,241.5,D3,L,120.75
74,0,241.5,D5,R,120.75
38,0,241.5,D2,L,120.75
38,28,241.5,D2,L,120.75
70,63,241.5,A#4,L,120.75
74,84,241.54166666666666,D5,R,120.77083333333333
74,84,241.66666666666666,D5,R,120.83333333333333
50,52,241.66666666666666,D3,R,120.83333333333333
74,0,241.66666666666666,D5,R,120.83333333333333
50,52,241.75,D3,R,120.875
50,0,241.75,D3,R,120.875
74,0,241.75,D5,R,120.875
38,37,241.875,D2,R,120.9375
50,0,241.9375,D3,R,120.96875
50,47,241.9375,D3,R,120.96875
38,0,242.0,D2,R,121.0
75,76,242.0,D#5,R,121.0
70,0,242.0,A#4,L,121.0
38,0,242.0,D2,L,121.0
50,0,242.0,D3,R,121.0
50,47,242.0,D3,R,121.0
38,57,242.25,D2,L,121.125
72,59,242.5,C5,L,121.25
38,0,242.5,D2,L,121.25
50,36,242.53125,D3,L,121.265625
38,58,242.625,D2,L,121.3125
50,0,242.625,D3,L,121.3125
75,76,242.75,D#5,R,121.375
50,47,242.75,D3,R,121.375
50,0,242.75,D3,R,121.375
75,0,242.75,D#5,R,121.375
38,0,242.875,D2,L,121.4375
50,38,242.875,D3,L,121.4375
38,57,242.9375,D2,R,121.46875
75,0,242.9375,D#5,R,121.46875
50,47,242.9375,D3,R,121.46875
50,0,242.9375,D3,R,121.46875
74,74,243.0,D5,R,121.5
38,57,243.0,D2,R,121.5
38,0,243.0,D2,R,121.5
50,0,243.0,D3,L,121.5
72,0,243.0,C5,L,121.5
50,0,243.0,D3,R,121.5
70,52,243.25,A#4,R,121.625
38,0,243.25,D2,R,121.625
38,55,243.25,D2,L,121.625
74,0,243.5,D5,R,121.75
38,0,243.5,D2,L,121.75
72,71,243.5,C5,R,121.75
50,17,243.5,D3,L,121.75
74,74,243.5,D5,R,121.75
38,55,243.58333333333334,D2,L,121.79166666666667
50,0,243.58333333333334,D3,L,121.79166666666667
38,0,243.75,D2,L,121.875
69,54,243.79166666666666,A4,L,121.89583333333333
69,0,243.83333333333331,A4,L,121.91666666666666
50,54,243.83333333333334,D3,L,121.91666666666667
69,54,243.83333333333334,A4,L,121.91666666666667
69,54,243.91666666666666,A4,L,121.95833333333333
69,0,243.91666666666669,A4,L,121.95833333333334
50,0,243.91666666666669,D3,L,121.95833333333334
72,71,244.0,C5,R,122.0
74,0,244.0,D5,R,122.0
38,18,244.0,D2,L,122.0
72,0,244.0,C5,R,122.0
70,0,244.0,A#4,R,122.0
69,0,244.0,A4,L,122.0
38,0,244.1875,D2,L,122.09375
50,51,244.1875,D3,L,122.09375
50,0,244.25,D3,L,122.125
50,51,244.25,D3,L,122.125
38,36,244.4375,D2,L,122.21875
38,36,244.5,D2,L,122.25
38,0,244.5,D2,L,122.25
67,67,244.5,G4,L,122.25
50,0,244.5,D3,L,122.25
72,0,244.5,C5,R,122.25
70,73,244.5,A#4,R,122.25
67,67,244.625,G4,L,122.3125
50,33,244.625,D3,L,122.3125
67,0,244.625,G4,L,122.3125
38,45,244.75,D2,L,122.375
67,0,244.75,G4,L,122.375
50,0,244.75,D3,L,122.375
50,56,244.9375,D3,L,122.46875
38,0,244.9375,D2,L,122.46875
50,0,245.0,D3,L,122.5
69,74,245.0,A4,R,122.5
38,0,245.0,D2,L,122.5
70,0,245.0,A#4,R,122.5
66,66,245.0,F#4,R,122.5
50,54,245.25,D3,L,122.625
50,0,245.3125,D3,L,122.65625
38,37,245.3125,D2,L,122.65625
38,0,245.5,D2,L,122.75
50,46,245.5,D3,L,122.75
38,45,245.625,D2,L,122.8125
50,0,245.625,D3,L,122.8125
50,54,245.75,D3,L,122.875
38,0,245.75,D2,L,122.875
38,51,245.875,D2,L,122.9375
66,0,246.0,F#4,R,123.0
38,0,246.0,D2,L,123.0
38,51,246.0,D2,L,123.0
50,69,246.0,D3,L,123.0
50,0,246.0,D3,L,123.0
67,78,246.0,G4,R,123.0
64,65,246.0,E4,R,123.0
69,0,246.0,A4,R,123.0
50,0,246.75,D3,L,123.375
64,0,246.75,E4,R,123.375
67,0,246.75,G4,R,123.375
54,67,246.8125,F#3,L,123.40625
66,74,246.8125,F#4,R,123.40625
66,0,247.0,F#4,R,123.5
62,67,247.0,D4,R,123.5
54,0,247.0,F#3,L,123.5
57,56,247.0,A3,L,123.5
38,0,247.0,D2,L,123.5
54,48,247.16666666666666,F#3,L,123.58333333333333
62,0,247.16666666666666,D4,R,123.58333333333333
57,0,247.16666666666666,A3,L,123.58333333333333
66,69,247.16666666666666,F#4,R,123.58333333333333
54,0,247.33333333333331,F#3,L,123.66666666666666
66,0,247.33333333333331,F#4,R,123.66666666666666
57,73,247.33333333333334,A3,L,123.66666666666667
62,74,247.33333333333334,D4,R,123.66666666666667
62,0,247.5,D4,R,123.75
57,0,247.5,A3,L,123.75
52,54,247.5625,E3,L,123.78125
69,59,247.5625,A4,R,123.78125
69,0,247.75,A4,R,123.875
52,0,247.75,E3,L,123.875
55,69,247.75,G3,L,123.875
64,70,247.75,E4,R,123.875
69,70,247.875,A4,R,123.9375
64,0,247.875,E4,R,123.9375
52,58,247.875,E3,L,123.9375
55,0,247.875,G3,L,123.9375
52,0,248.0,E3,L,124.0
64,74,248.0,E4,R,124.0
69,0,248.0,A4,R,124.0
55,74,248.0,G3,L,124.0
69,76,248.25,A4,R,124.125
55,0,248.25,G3,L,124.125
50,62,248.25,D3,L,124.125
64,0,248.25,E4,R,124.125
66,79,248.41666666666666,F#4,R,124.20833333333333
69,0,248.41666666666666,A4,R,124.20833333333333
66,0,248.5,F#4,R,124.25
50,0,248.5,D3,L,124.25
50,64,248.5,D3,L,124.25
54,61,248.5,F#3,L,124.25
69,67,248.5,A4,R,124.25
69,0,248.625,A4,R,124.3125
66,71,248.65625,F#4,R,124.328125
66,0,248.75,F#4,R,124.375
50,0,249.0,D3,L,124.5
54,0,249.0,F#3,L,124.5
50,88,249.0,D3,L,124.5
38,83,249.0,D2,L,124.5
69,79,249.09375,A4,R,124.546875
81,80,249.09375,A5,R,124.546875
83,68,249.09375,B5,R,124.546875
83,68,249.125,B5,R,124.5625
69,0,249.125,A4,R,124.5625
81,0,249.125,A5,R,124.5625
83,0,249.125,B5,R,124.5625
81,80,249.125,A5,R,124.5625
69,79,249.125,A4,R,124.5625
83,0,249.5,B5,R,124.75
69,0,249.5,A4,R,124.75
81,0,249.5,A5,R,124.75
61,67,250.0,C#4,L,125.0
73,88,250.0,C#5,R,125.0
61,0,250.5,C#4,L,125.25
73,0,250.5,C#5,R,125.25
62,65,250.625,D4,L,125.3125
74,73,250.625,D5,R,125.3125
38,0,251.0,D2,L,125.5
62,0,251.0,D4,L,125.5
50,0,251.0,D3,L,125.5
74,0,251.0,D5,R,125.5
54,64,251.375,F#3,L,125.6875
66,76,251.375,F#4,R,125.6875
66,0,251.5,F#4,R,125.75
62,64,251.5,D4,R,125.75
54,0,251.5,F#3,L,125.75
57,59,251.5625,A3,L,125.78125
57,0,251.75,A3,L,125.875
62,0,251.75,D4,R,125.875
54,50,251.79166666666666,F#3,L,125.89583333333333
66,64,251.79166666666666,F#4,R,125.89583333333333
66,0,251.83333333333331,F#4,R,125.91666666666666
54,0,251.83333333333331,F#3,L,125.91666666666666
57,64,251.91666666666666,A3,L,125.95833333333333
62,71,251.91666666666666,D4,R,125.95833333333333
57,64,252.0,A3,L,126.0
62,71,252.0,D4,R,126.0
57,0,252.0,A3,L,126.0
62,0,252.0,D4,R,126.0
62,0,252.125,D4,R,126.0625
69,68,252.125,A4,R,126.0625
52,62,252.125,E3,L,126.0625
57,0,252.125,A3,L,126.0625
69,0,252.25,A4,R,126.125
52,0,252.25,E3,L,126.125
64,69,252.3125,E4,R,126.15625
55,71,252.3125,G3,L,126.15625
55,0,252.4375,G3,L,126.21875
69,71,252.4375,A4,R,126.21875
64,0,252.4375,E4,R,126.21875
52,63,252.4375,E3,L,126.21875
52,0,252.5,E3,L,126.25
69,71,252.5,A4,R,126.25
69,0,252.5,A4,R,126.25
52,63,252.5,E3,L,126.25
52,0,252.625,E3,L,126.3125
64,69,252.625,E4,R,126.3125
55,72,252.625,G3,L,126.3125
69,0,252.625,A4,R,126.3125
55,0,252.75,G3,L,126.375
50,62,252.75,D3,L,126.375
69,74,252.75,A4,R,126.375
64,0,252.75,E4,R,126.375
66,80,252.9375,F#4,R,126.46875
66,80,253.0,F#4,R,126.5
69,70,253.0,A4,R,126.5
50,0,253.0,D3,L,126.5
66,0,253.0,F#4,R,126.5
69,0,253.0,A4,R,126.5
54,66,253.0,F#3,L,126.5
50,59,253.0625,D3,L,126.53125
69,0,253.1875,A4,R,126.59375
66,77,253.1875,F#4,R,126.59375
66,0,253.25,F#4,R,126.625
50,0,253.25,D3,L,126.625
50,59,253.25,D3,L,126.625
81,92,253.65625,A5,R,126.828125
81,0,253.6875,A5,R,126.84375
69,67,253.6875,A4,R,126.84375
69,0,253.75,A4,R,126.875
50,0,254.0,D3,L,127.0
66,0,254.0,F#4,R,127.0
54,0,254.0,F#3,L,127.0
38,85,254.0,D2,L,127.0
50,86,254.0,D3,L,127.0
61,75,254.5,C#4,L,127.25
73,87,254.5,C#5,R,127.25
61,0,255.0,C#4,L,127.5
38,0,255.0,D2,L,127.5
50,0,255.0,D3,L,127.5
73,0,255.0,C#5,R,127.5
62,74,255.125,D4,L,127.5625
74,87,255.125,D5,R,127.5625
74,0,255.5,D5,R,127.75
62,0,255.5,D4,L,127.75
62,74,255.5,D4,L,127.75
62,0,255.875,D4,L,127.9375
47,72,255.9375,B2,L,127.96875
47,0,256.0,B2,L,128.0
47,72,256.0,B2,L,128.0
71,73,256.0,B4,R,128.0
50,64,256.125,D3,L,128.0625
71,0,256.125,B4,R,128.0625
67,75,256.125,G4,R,128.0625
47,0,256.125,B2,L,128.0625
67,0,256.25,G4,R,128.125
50,0,256.25,D3,L,128.125
47,62,256.3125,B2,L,128.15625
71,68,256.3125,B4,R,128.15625
67,81,256.5,G4,R,128.25
71,0,256.5,B4,R,128.25
47,0,256.5,B2,L,128.25
50,74,256.5416666666667,D3,L,128.27083333333334
45,67,256.6666666666667,A2,L,128.33333333333334
50,0,256.6666666666667,D3,L,128.33333333333334
74,61,256.6666666666667,D5,R,128.33333333333334
67,0,256.6666666666667,G4,R,128.33333333333334
45,0,256.75,A2,L,128.375
69,74,256.8333333333333,A4,R,128.41666666666666
74,0,256.83333333333337,D5,R,128.41666666666669
48,70,256.875,C3,L,128.4375
45,62,257.0,A2,L,128.5
74,71,257.0,D5,R,128.5
48,0,257.0,C3,L,128.5
69,0,257.0,A4,R,128.5
45,0,257.125,A2,L,128.5625
48,71,257.125,C3,L,128.5625
48,0,257.25,C3,L,128.625
69,75,257.25,A4,L,128.625
43,67,257.3125,G2,L,128.65625
69,0,257.375,A4,L,128.6875
74,76,257.375,D5,L,128.6875
47,81,257.5,B2,L,128.75
74,0,257.5,D5,R,128.75
71,72,257.5,B4,R,128.75
43,0,257.5,G2,L,128.75
74,0,257.5,D5,L,128.75
43,42,257.625,G2,L,128.8125
47,0,257.625,B2,L,128.8125
71,0,257.625,B4,R,128.8125
74,75,257.625,D5,R,128.8125
71,79,257.75,B4,L,128.875
43,0,257.75,G2,L,128.875
71,0,258.0,B4,L,129.0
43,84,258.0,G2,L,129.0
31,88,258.0,G1,L,129.0
74,0,258.0,D5,R,129.0
74,87,258.1875,D5,R,129.09375
86,102,258.1875,D6,R,129.09375
86,102,258.25,D6,R,129.125
74,87,258.25,D5,R,129.125
86,0,258.25,D6,R,129.125
74,0,258.25,D5,R,129.125
66,64,259.0,F#4,L,129.5
74,0,259.0,D5,R,129.5
86,0,259.0,D6,R,129.5
78,90,259.0,F#5,R,129.5
78,0,259.5,F#5,R,129.75
66,0,259.5,F#4,L,129.75
79,68,259.6875,G5,R,129.84375
67,72,259.6875,G4,L,129.84375
79,0,259.75,G5,R,129.875
67,0,259.75,G4,L,129.875
67,72,259.75,G4,L,129.875
31,0,260.0,G1,L,130.0
43,0,260.0,G2,L,130.0
67,0,260.0,G4,L,130.0
47,72,260.5,B2,L,130.25
71,73,260.5,B4,R,130.25
50,65,260.6666666666667,D3,L,130.33333333333334
47,0,260.6666666666667,B2,L,130.33333333333334
67,64,260.6666666666667,G4,R,130.33333333333334
71,0,260.6666666666667,B4,R,130.33333333333334
47,57,260.8333333333333,B2,L,130.41666666666666
71,67,260.8333333333333,B4,R,130.41666666666666
67,0,260.83333333333337,G4,R,130.41666666666669
50,0,260.83333333333337,D3,L,130.41666666666669
47,0,261.0,B2,L,130.5
50,74,261.0,D3,L,130.5
71,0,261.0,B4,R,130.5
67,74,261.03125,G4,R,130.515625
50,0,261.125,D3,L,130.5625
67,0,261.125,G4,R,130.5625
74,74,261.1875,D5,R,130.59375
45,68,261.1875,A2,L,130.59375
45,0,261.25,A2,L,130.625
74,74,261.25,D5,R,130.625
74,0,261.25,D5,R,130.625
48,70,261.375,C3,L,130.6875
69,68,261.375,A4,R,130.6875
74,0,261.375,D5,R,130.6875
69,0,261.5,A4,R,130.75
45,70,261.5,A2,L,130.75
48,0,261.5,C3,L,130.75
74,73,261.5625,D5,L,130.78125
45,0,261.5625,A2,L,130.78125
69,68,261.6666666666667,A4,R,130.83333333333334
48,67,261.6875,C3,L,130.84375
48,67,261.75,C3,L,130.875
43,68,261.75,G2,L,130.875
74,0,261.75,D5,L,130.875
48,0,261.75,C3,L,130.875
74,70,261.8333333333333,D5,R,130.91666666666666
69,0,261.83333333333337,A4,R,130.91666666666669
71,72,262.0,B4,R,131.0
48,0,262.0,C3,L,131.0
47,69,262.0,B2,L,131.0
74,0,262.0,D5,R,131.0
43,0,262.0,G2,L,131.0
71,0,262.125,B4,R,131.0625
43,59,262.125,G2,L,131.0625
47,0,262.125,B2,L,131.0625
74,76,262.125,D5,R,131.0625
43,0,262.25,G2,L,131.125
71,76,262.3125,B4,L,131.15625
71,76,262.5,B4,L,131.25
71,0,262.5,B4,L,131.25
74,0,262.5,D5,R,131.25
71,0,262.6875,B4,L,131.34375
86,97,262.6875,D6,L,131.34375
74,86,262.75,D5,L,131.375
86,0,262.75,D6,L,131.375
43,79,263.0,G2,R,131.5
74,0,263.0,D5,L,131.5
31,77,263.0,G1,L,131.5
78,90,263.5,F#5,R,131.75
66,67,263.5,F#4,L,131.75
78,0,264.0,F#5,R,132.0
66,0,264.0,F#4,L,132.0
31,0,264.0,G1,L,132.0
43,0,264.0,G2,R,132.0
79,75,264.1875,G5,R,132.09375
79,0,264.25,G5,R,132.125
67,73,264.25,G4,R,132.125
67,0,265.0,G4,R,132.5
64,76,265.0,E4,R,132.5
52,72,265.0,E3,L,132.5
64,0,265.125,E4,R,132.5625
60,69,265.125,C4,R,132.5625
55,62,265.25,G3,R,132.625
60,0,265.25,C4,R,132.625
55,0,265.34375,G3,R,132.671875
64,70,265.34375,E4,R,132.671875
52,60,265.375,E3,L,132.6875
64,0,265.375,E4,R,132.6875
64,70,265.375,E4,R,132.6875
52,0,265.375,E3,L,132.6875
64,0,265.5,E4,R,132.75
55,65,265.5,G3,L,132.75
52,0,265.5,E3,L,132.75
60,72,265.5416666666667,C4,R,132.77083333333334
55,0,265.625,G3,L,132.8125
60,0,265.6666666666667,C4,R,132.83333333333334
67,65,265.6666666666667,G4,R,132.83333333333334
50,67,265.6875,D3,L,132.84375
67,0,265.75,G4,R,132.875
67,65,265.75,G4,R,132.875
50,67,265.75,D3,L,132.875
50,0,265.75,D3,L,132.875
67,0,265.875,G4,R,132.9375
62,64,265.9375,D4,R,132.96875
53,64,265.9375,F3,L,132.96875
50,0,265.9375,D3,L,132.96875
62,0,266.0,D4,R,133.0
53,0,266.0,F3,L,133.0
67,68,266.0625,G4,R,133.03125
50,60,266.0625,D3,L,133.03125
53,67,266.25,F3,L,133.125
67,0,266.25,G4,R,133.125
62,65,266.25,D4,R,133.125
50,0,266.25,D3,L,133.125
53,0,266.375,F3,L,133.1875
67,80,266.375,G4,R,133.1875
48,61,266.375,C3,L,133.1875
62,0,266.375,D4,R,133.1875
67,0,266.5,G4,R,133.25
48,0,266.5,C3,L,133.25
67,80,266.5,G4,R,133.25
67,0,266.625,G4,R,133.3125
64,75,266.625,E4,R,133.3125
64,0,266.75,E4,R,133.375
67,76,266.75,G4,R,133.375
52,59,266.75,E3,L,133.375
48,55,266.75,C3,L,133.375
67,0,266.875,G4,R,133.4375
64,79,266.875,E4,R,133.4375
64,0,267.0,E4,R,133.5
52,0,267.0,E3,L,133.5
48,0,267.0,C3,L,133.5
79,100,267.1875,G5,R,133.59375
67,82,267.21875,G4,R,133.609375
79,100,267.25,G5,R,133.625
67,0,267.25,G4,R,133.625
67,82,267.25,G4,R,133.625
36,80,267.25,C2,L,133.625
79,0,267.25,G5,R,133.625
48,81,267.25,C3,L,133.625
79,0,268.0,G5,R,134.0
59,69,268.0,B3,L,134.0
36,0,268.0,C2,L,134.0
36,80,268.0,C2,L,134.0
71,89,268.0,B4,R,134.0
67,0,268.0,G4,R,134.0
48,0,268.0,C3,L,134.0
59,0,268.75,B3,L,134.375
60,71,268.75,C4,L,134.375
72,84,268.75,C5,R,134.375
71,0,268.75,B4,R,134.375
60,0,269.0,C4,L,134.5
36,0,269.0,C2,L,134.5
72,0,269.0,C5,R,134.5
36,65,269.5416666666667,C2,L,134.77083333333334
64,82,269.5833333333333,E4,R,134.79166666666666
64,0,269.66666666666663,E4,R,134.83333333333331
36,0,269.6666666666667,C2,L,134.83333333333334
60,68,269.6666666666667,C4,R,134.83333333333334
48,62,269.6666666666667,C3,L,134.83333333333334
48,0,269.75,C3,L,134.875
36,54,269.75,C2,L,134.875
64,73,269.8333333333333,E4,R,134.91666666666666
60,0,269.83333333333337,C4,R,134.91666666666669
64,0,270.0,E4,R,135.0
36,0,270.0,C2,L,135.0
48,65,270.0,C3,L,135.0
48,0,270.1,C3,L,135.05
60,69,270.1,C4,L,135.05
65,80,270.2,F4,R,135.1
38,70,270.2,D2,L,135.1
60,0,270.20000000000005,C4,L,135.10000000000002
60,73,270.4,C4,R,135.2
38,0,270.4,D2,L,135.2
65,0,270.4,F4,R,135.2
48,62,270.4,C3,L,135.2
48,0,270.5,C3,L,135.25
60,0,270.59999999999997,C4,R,135.29999999999998
65,74,270.6,F4,R,135.3
38,38,270.625,D2,L,135.3125
48,65,270.7,C3,R,135.35
65,0,270.70000000000005,F4,R,135.35000000000002
40,3,270.75,E2,L,135.375
38,0,270.75,D2,L,135.375
48,0,270.8,C3,R,135.4
60,74,270.8,C4,R,135.4
40,58,271.0,E2,L,135.5
67,89,271.0,G4,R,135.5
60,0,271.0,C4,R,135.5
40,0,271.0,E2,L,135.5
40,0,271.125,E2,L,135.5625
48,67,271.125,C3,L,135.5625
48,0,271.25,C3,L,135.625
40,83,271.25,E2,L,135.625
40,0,271.4166666666667,E2,L,135.70833333333334
48,52,271.4166666666667,C3,L,135.70833333333334
48,0,271.5,C3,L,135.75
59,88,271.6666666666667,B3,R,135.83333333333334
67,0,271.6666666666667,G4,R,135.83333333333334
43,80,271.75,G2,L,135.875
55,81,271.75,G3,L,135.875
59,88,272.0,B3,R,136.0
43,0,272.0,G2,L,136.0
59,0,272.0,B3,R,136.0
55,0,272.0,G3,L,136.0
35,70,272.6666666666667,B1,L,136.33333333333334
60,79,272.6666666666667,C4,R,136.33333333333334
59,0,272.6666666666667,B3,R,136.33333333333334
47,69,272.6666666666667,B2,L,136.33333333333334
47,0,273.0,B2,L,136.5
35,0,273.0,B1,L,136.5
36,75,273.3333333333333,C2,L,136.66666666666666
48,70,273.3333333333333,C3,R,136.66666666666666
60,0,273.33333333333337,C4,R,136.66666666666669
36,0,274.0,C2,L,137.0
48,0,274.0,C3,R,137.0
67,95,276.5,G4,R,138.25
67,0,277.5,G4,R,138.75
64,94,277.5,E4,R,138.75
65,85,278.0,F4,R,139.0
64,0,278.0,E4,R,139.0
65,0,279.0,F4,R,139.5
64,90,279.0,E4,R,139.5
64,0,280.0,E4,R,140.0
64,90,280.0,E4,R,140.0
64,0,280.5,E4,R,140.25
62,80,280.5,D4,R,140.25
65,81,281.5,F4,R,140.75
65,81,282.0,F4,R,141.0
65,0,282.0,F4,R,141.0
62,86,282.0,D4,R,141.0
62,0,282.0,D4,R,141.0
64,85,282.5,E4,R,141.25
65,0,282.5,F4,R,141.25
62,0,283.0,D4,R,141.5
62,79,283.0,D4,R,141.5
52,73,283.5,E3,L,141.75
62,0,284.0,D4,R,142.0
64,0,284.0,E4,R,142.0
62,79,284.0,D4,R,142.0
52,73,284.0,E3,L,142.0
52,0,284.0,E3,L,142.0
62,79,284.5,D4,R,142.25
62,0,284.5,D4,R,142.25
43,75,284.5,G2,R,142.25
43,0,285.0,G2,R,142.5
52,0,285.0,E3,L,142.5
43,75,285.0,G2,R,142.5
62,0,285.0,D4,R,142.5
45,75,285.0,A2,L,142.5
61,69,285.25,C#4,R,142.625
43,0,285.25,G2,R,142.625
43,80,286.0,G2,R,143.0
61,0,286.0,C#4,R,143.0
45,0,286.0,A2,L,143.0
87,68,286.5,D#6,R,143.25
86,76,286.5,D6,L,143.25
84,85,286.6666666666667,C6,L,143.33333333333334
86,0,286.6666666666667,D6,L,143.33333333333334
84,0,286.75,C6,L,143.375
87,0,287.0,D#6,R,143.5
87,84,287.0625,D#6,L,143.53125
87,0,287.25,D#6,L,143.625
86,84,287.40625,D6,R,143.703125
86,0,287.5,D6,R,143.75
42,78,287.5,F#2,L,143.75
84,64,287.75,C6,R,143.875
43,0,288.0,G2,R,144.0
42,0,288.0,F#2,L,144.0
84,0,288.0,C6,R,144.0
42,78,288.0,F#2,L,144.0
50,85,288.25,D3,R,144.125
41,74,289.0,F2,R,144.5
50,0,289.0,D3,R,144.5
42,0,289.0,F#2,L,144.5
43,80,290.0,G2,R,145.0
41,0,290.0,F2,R,145.0
41,83,290.5,F2,R,145.25
84,72,291.0,C6,L,145.5
85,72,291.0,C#6,R,145.5
43,0,291.0,G2,R,145.5
82,80,291.25,A#5,L,145.625
84,0,291.25,C6,L,145.625
82,0,291.5,A#5,L,145.75
85,83,291.625,C#6,L,145.8125
41,0,292.0,F2,R,146.0
85,0,292.0,C#6,R,146.0
84,80,292.0,C6,R,146.0
85,0,292.0,C#6,L,146.0
40,77,292.0,E2,L,146.0
84,0,292.25,C6,R,146.125
82,69,292.3125,A#5,R,146.15625
82,0,292.5,A#5,R,146.25
82,69,292.5,A#5,R,146.25
82,0,292.6875,A#5,R,146.34375
81,86,292.6875,A5,R,146.34375
29,84,292.75,F1,L,146.375
41,81,292.75,F2,R,146.375
40,0,292.75,E2,L,146.375
81,0,292.75,A5,R,146.375
29,0,293.0,F1,L,146.5
41,0,293.0,F2,R,146.5
69,74,293.1875,A4,R,146.59375
69,0,293.25,A4,R,146.625
67,72,293.3125,G4,R,146.65625
67,0,293.5,G4,R,146.75
65,77,293.5833333333333,F4,R,146.79166666666666
65,0,293.66666666666663,F4,R,146.83333333333331
72,80,293.8333333333333,C5,R,146.91666666666666
43,74,294.0,G2,R,147.0
41,60,294.0,F2,L,147.0
72,0,294.0,C5,R,147.0
43,0,294.125,G2,R,147.0625
41,0,294.1875,F2,L,147.09375
45,76,294.1875,A2,L,147.09375
70,79,294.1875,A#4,R,147.09375
45,76,294.25,A2,L,147.125
45,0,294.25,A2,L,147.125
70,0,294.25,A#4,R,147.125
70,79,294.25,A#4,R,147.125
70,0,294.5,A#4,R,147.25
69,73,294.5625,A4,R,147.28125
69,0,294.75,A4,R,147.375
45,0,295.0,A2,L,147.5
81,77,295.0,A5,R,147.5
79,77,295.375,G5,R,147.6875
53,65,295.375,F3,L,147.6875
81,0,295.375,A5,R,147.6875
53,0,295.5,F3,L,147.75
55,67,295.5,G3,R,147.75
79,0,295.5,G5,R,147.75
77,72,295.625,F5,R,147.8125
55,0,295.625,G3,R,147.8125
57,72,295.625,A3,L,147.8125
84,79,296.0,C6,R,148.0
77,0,296.0,F5,R,148.0
57,0,296.0,A3,L,148.0
84,0,296.375,C6,R,148.1875
82,76,296.375,A#5,R,148.1875
82,0,296.5,A#5,R,148.25
82,76,296.5,A#5,R,148.25
82,0,296.6875,A#5,R,148.34375
81,76,296.71875,A5,R,148.359375
81,76,296.75,A5,R,148.375
81,0,296.75,A5,R,148.375
89,90,297.0,F6,R,148.5
81,0,297.0,A5,R,148.5
41,76,297.0,F2,L,148.5
41,0,297.5,F2,L,148.75
45,72,297.5416666666667,A2,L,148.77083333333334
43,70,297.6666666666667,G2,L,148.83333333333334
45,0,297.6666666666667,A2,L,148.83333333333334
41,74,297.75,F2,L,148.875
43,0,297.75,G2,L,148.875
89,0,298.0,F6,R,149.0
41,0,298.0,F2,L,149.0
81,72,298.25,A5,R,149.125
48,58,298.25,C3,L,149.125
82,70,298.375,A#5,L,149.1875
48,0,298.375,C3,L,149.1875
82,0,298.5,A#5,L,149.25
84,79,298.5,C6,L,149.25
84,0,298.5625,C6,L,149.28125
46,77,298.5625,A#2,L,149.28125
46,0,298.75,A#2,L,149.375
45,64,298.875,A2,L,149.4375
81,0,299.0,A5,R,149.5
45,0,299.0,A2,L,149.5
57,69,299.3125,A3,L,149.65625
57,0,299.5,A3,L,149.75
57,69,299.5,A3,L,149.75
77,68,299.6666666666667,F5,R,149.83333333333334
57,0,299.6875,A3,L,149.84375
55,71,299.6875,G3,L,149.84375
55,0,299.75,G3,L,149.875
79,71,299.8333333333333,G5,R,149.91666666666666
77,0,299.83333333333337,F5,R,149.91666666666669
53,57,300.0,F3,L,150.0
81,70,300.0,A5,R,150.0
79,0,300.0,G5,R,150.0
60,62,300.375,C4,R,150.1875
81,0,300.375,A5,R,150.1875
60,0,300.5,C4,R,150.25
58,63,300.75,A#3,R,150.375
57,68,301.0,A3,R,150.5
53,0,301.0,F3,L,150.5
58,0,301.0,A#3,R,150.5
57,0,301.375,A3,R,150.6875
86,81,301.46875,D6,R,150.734375
86,81,301.5,D6,R,150.75
86,0,301.5,D6,R,150.75
38,66,301.5,D2,L,150.75
65,74,301.875,F4,R,150.9375
86,0,301.875,D6,R,150.9375
38,0,302.0,D2,L,151.0
64,75,302.0,E4,R,151.0
65,0,302.0,F4,R,151.0
64,0,302.125,E4,R,151.0625
62,85,302.125,D4,R,151.0625
38,72,302.5,D2,L,151.25
69,78,302.5,A4,R,151.25
62,0,302.5,D4,R,151.25
38,0,302.6875,D2,L,151.34375
40,68,302.6875,E2,L,151.34375
40,0,302.75,E2,L,151.375
40,68,302.75,E2,L,151.375
41,81,302.8125,F2,L,151.40625
40,0,302.8125,E2,L,151.40625
67,83,302.8333333333333,G4,R,151.41666666666666
69,0,302.8333333333333,A4,R,151.41666666666666
41,0,303.0,F2,L,151.5
67,0,303.0,G4,R,151.5
65,70,303.25,F4,R,151.625
65,0,303.5,F4,R,151.75
77,74,303.625,F5,R,151.8125
77,0,303.875,F5,R,151.9375
76,74,303.9375,E5,R,151.96875
76,0,304.0,E5,R,152.0
76,74,304.0,E5,R,152.0
50,68,304.0,D3,L,152.0
52,64,304.125,E3,R,152.0625
76,0,304.125,E5,R,152.0625
50,0,304.25,D3,L,152.125
74,72,304.25,D5,R,152.125
52,0,304.25,E3,R,152.125
53,72,304.25,F3,L,152.125
74,0,304.5,D5,R,152.25
74,72,304.5,D5,R,152.25
81,70,304.6875,A5,R,152.34375
74,0,304.6875,D5,R,152.34375
81,0,304.75,A5,R,152.375
79,71,305.0,G5,R,152.5
53,0,305.0,F3,L,152.5
77,68,305.375,F5,R,152.6875
79,0,305.375,G5,R,152.6875
77,0,305.5,F5,R,152.75
38,70,305.75,D2,L,152.875
86,85,306.0,D6,R,153.0
38,0,306.0,D2,L,153.0
33,75,306.125,A1,L,153.0625
31,67,306.25,G1,L,153.125
29,73,306.4375,F1,L,153.21875
31,0,306.4375,G1,L,153.21875
29,73,306.5,F1,L,153.25
29,0,306.5,F1,L,153.25
33,0,306.5,A1,L,153.25
86,0,306.75,D6,R,153.375
77,74,306.875,F5,R,153.4375
41,68,306.875,F2,L,153.4375
29,0,306.875,F1,L,153.4375
77,0,307.0,F5,R,153.5
41,0,307.0,F2,L,153.5
79,76,307.0416666666667,G5,L,153.52083333333334
40,67,307.1666666666667,E2,L,153.58333333333334
79,0,307.1666666666667,G5,L,153.58333333333334
81,70,307.1875,A5,R,153.59375
81,0,307.25,A5,R,153.625
40,0,307.25,E2,L,153.625
40,67,307.25,E2,L,153.625
38,62,307.5625,D2,R,153.78125
38,0,307.75,D2,R,153.875
45,70,308.0,A2,R,154.0
40,0,308.0,E2,L,154.0
45,0,308.375,A2,R,154.1875
74,75,308.375,D5,R,154.1875
43,65,308.375,G2,L,154.1875
74,0,308.5,D5,R,154.25
43,0,308.5,G2,L,154.25
76,69,308.5416666666667,E5,R,154.27083333333334
77,79,308.5833333333333,F5,R,154.29166666666666
76,0,308.58333333333337,E5,R,154.29166666666669
41,65,308.625,F2,L,154.3125
77,0,308.75,F5,R,154.375
53,66,309.0,F3,R,154.5
41,0,309.0,F2,L,154.5
52,64,309.375,E3,R,154.6875
53,0,309.375,F3,R,154.6875
52,0,309.5,E3,R,154.75
50,70,309.75,D3,R,154.875
52,81,310.0,E3,L,155.0
50,0,310.0,D3,R,155.0
76,77,310.0625,E5,R,155.03125
76,0,310.25,E5,R,155.125
68,74,310.5,G#4,R,155.25
66,76,310.625,F#4,R,155.3125
68,0,310.625,G#4,R,155.3125
64,76,310.75,E4,R,155.375
66,0,310.75,F#4,R,155.375
64,0,311.0,E4,R,155.5
52,0,311.0,E3,L,155.5
71,72,311.125,B4,R,155.5625
40,68,311.125,E2,L,155.5625
42,77,311.25,F#2,R,155.625
71,0,311.25,B4,R,155.625
40,0,311.375,E2,L,155.6875
69,78,311.4375,A4,R,155.71875
44,78,311.4375,G#2,L,155.71875
42,0,311.4375,F#2,R,155.71875
44,0,311.5,G#2,L,155.75
44,78,311.5,G#2,L,155.75
69,78,311.5,A4,R,155.75
69,0,311.5,A4,R,155.75
68,78,311.875,G#4,R,155.9375
69,0,311.875,A4,R,155.9375
68,0,312.0,G#4,R,156.0
44,0,312.0,G#2,L,156.0
80,74,312.25,G#5,R,156.125
80,0,312.5,G#5,R,156.25
78,78,312.5,F#5,R,156.25
52,65,312.5833333333333,E3,L,156.29166666666666
52,0,312.66666666666663,E3,L,156.33333333333331
54,67,312.6666666666667,F#3,L,156.33333333333334
56,78,312.8333333333333,G#3,L,156.41666666666666
54,0,312.83333333333337,F#3,L,156.41666666666669
76,72,312.875,E5,R,156.4375
78,0,312.875,F#5,R,156.4375
76,0,313.0,E5,R,156.5
56,0,313.0,G#3,L,156.5
83,78,313.25,B5,R,156.625
83,0,313.5,B5,R,156.75
81,75,313.5625,A5,R,156.78125
81,0,313.75,A5,R,156.875
80,76,313.875,G#5,R,156.9375
86,87,314.0,D6,R,157.0
80,0,314.0,G#5,R,157.0
40,72,314.25,E2,L,157.125
40,0,314.5,E2,L,157.25
40,72,314.5,E2,L,157.25
40,0,314.625,E2,L,157.3125
44,73,314.625,G#2,L,157.3125
44,0,314.75,G#2,L,157.375
42,75,314.75,F#2,L,157.375
42,0,314.875,F#2,L,157.4375
40,76,314.875,E2,L,157.4375
40,0,315.0,E2,L,157.5
86,0,315.0,D6,R,157.5
83,78,315.25,B5,R,157.625
47,67,315.2916666666667,B2,L,157.64583333333334
85,73,315.4166666666667,C#6,L,157.70833333333334
47,0,315.4166666666667,B2,L,157.70833333333334
85,0,315.5,C#6,L,157.75
86,80,315.5,D6,R,157.75
83,0,315.5,B5,R,157.75
45,74,315.5,A2,L,157.75
85,73,315.5,C#6,L,157.75
86,0,316.0,D6,R,158.0
45,0,316.0,A2,L,158.0
44,65,316.0,G#2,R,158.0
85,0,316.0,C#6,L,158.0
44,0,316.375,G#2,R,158.1875
56,77,316.375,G#3,R,158.1875
56,77,316.5,G#3,R,158.25
56,0,316.5,G#3,R,158.25
80,80,316.75,G#5,R,158.375
54,74,316.75,F#3,L,158.375
81,70,316.875,A5,R,158.4375
56,0,316.875,G#3,R,158.4375
54,0,317.0,F#3,L,158.5
52,61,317.0,E3,L,158.5
80,0,317.0,G#5,R,158.5
81,0,317.0,A5,R,158.5
83,77,317.0,B5,R,158.5
83,0,317.375,B5,R,158.6875
59,72,317.375,B3,R,158.6875
59,0,317.5,B3,R,158.75
57,68,317.75,A3,R,158.875
52,0,318.0,E3,L,159.0
57,0,318.0,A3,R,159.0
56,81,318.125,G#3,R,159.0625
56,0,318.375,G#3,R,159.1875
81,81,318.4375,A5,R,159.21875
57,85,318.4375,A3,L,159.21875
81,81,318.5,A5,R,159.25
57,0,318.5,A3,L,159.25
57,85,318.5,A3,L,159.25
81,0,318.5,A5,R,159.25
76,69,318.875,E5,R,159.4375
81,0,318.875,A5,R,159.4375
57,0,318.875,A3,L,159.4375
57,70,318.875,A3,L,159.4375
76,0,319.0,E5,R,159.5
57,0,319.0,A3,L,159.5
59,73,319.0,B3,L,159.5
74,80,319.0,D5,R,159.5
59,0,319.125,B3,L,159.5625
61,69,319.125,C#4,L,159.5625
73,79,319.125,C#5,R,159.5625
74,0,319.125,D5,R,159.5625
73,0,319.5,C#5,R,159.75
57,58,319.5,A3,L,159.75
61,0,319.5,C#4,L,159.75
76,75,319.5,E5,R,159.75
57,0,319.6666666666667,A3,L,159.83333333333334
76,0,319.6666666666667,E5,R,159.83333333333334
59,74,319.8333333333333,B3,L,159.91666666666666
74,86,319.8333333333333,D5,R,159.91666666666666
74,0,320.0,D5,R,160.0
59,0,320.0,B3,L,160.0
73,70,320.25,C#5,R,160.125
61,70,320.25,C#4,L,160.125
80,83,320.5,G#5,R,160.25
61,0,320.5,C#4,L,160.25
59,80,320.5625,B3,L,160.28125
59,0,320.75,B3,L,160.375
73,0,321.0,C#5,R,160.5
81,84,321.0,A5,R,160.5
61,78,321.0,C#4,L,160.5
59,71,321.25,B3,L,160.625
61,0,321.25,C#4,L,160.625
57,82,321.3125,A3,L,160.65625
59,0,321.3125,B3,L,160.65625
57,0,321.5,A3,L,160.75
61,70,321.75,C#4,L,160.875
80,0,322.0,G#5,R,161.0
61,0,322.0,C#4,L,161.0
59,77,322.0625,B3,L,161.03125
59,0,322.25,B3,L,161.125
57,74,322.375,A3,L,161.1875
57,0,322.5,A3,L,161.25
59,89,322.75,B3,L,161.375
59,0,323.0,B3,L,161.5
81,0,323.0,A5,R,161.5
76,72,323.125,E5,R,161.5625
57,76,323.125,A3,L,161.5625
76,0,323.25,E5,R,161.625
57,0,323.25,A3,L,161.625
74,82,323.25,D5,R,161.625
59,74,323.25,B3,L,161.625
73,82,323.4375,C#5,R,161.71875
74,0,323.4375,D5,R,161.71875
59,0,323.4375,B3,L,161.71875
61,70,323.4375,C#4,L,161.71875
73,0,323.5,C#5,R,161.75
61,0,323.5,C#4,L,161.75
76,78,323.75,E5,R,161.875
57,76,323.8125,A3,L,161.90625
57,0,324.0,A3,L,162.0
76,0,324.0,E5,R,162.0
59,79,324.125,B3,L,162.0625
74,83,324.15625,D5,R,162.078125
74,0,324.25,D5,R,162.125
59,0,324.5,B3,L,162.25
73,74,324.5,C#5,R,162.25
61,70,324.5,C#4,L,162.25
61,0,324.6666666666667,C#4,L,162.33333333333334
73,0,324.6666666666667,C#5,R,162.33333333333334
59,83,324.8333333333333,B3,L,162.41666666666666
83,89,324.8333333333333,B5,R,162.41666666666666
59,0,325.0,B3,L,162.5
83,89,325.0,B5,R,162.5
83,0,325.0,B5,R,162.5
61,70,325.25,C#4,L,162.625
59,79,325.375,B3,L,162.6875
61,0,325.375,C#4,L,162.6875
59,0,325.5,B3,L,162.75
57,77,325.5,A3,L,162.75
57,0,326.0,A3,L,163.0
61,68,326.0,C#4,L,163.0
85,88,326.0,C#6,R,163.0
83,0,326.0,B5,R,163.0
61,0,326.25,C#4,L,163.125
59,79,326.3125,B3,L,163.15625
59,0,326.5,B3,L,163.25
57,75,326.625,A3,L,163.3125
57,0,327.0,A3,L,163.5
59,87,327.0,B3,L,163.5
85,0,327.0,C#6,R,163.5
59,0,327.375,B3,L,163.6875
57,75,327.375,A3,L,163.6875
76,72,327.375,E5,R,163.6875
74,76,327.5,D5,R,163.75
76,0,327.5,E5,R,163.75
57,0,327.5,A3,L,163.75
59,61,327.5,B3,L,163.75
59,0,327.625,B3,L,163.8125
73,79,327.6875,C#5,R,163.84375
74,0,327.6875,D5,R,163.84375
61,73,327.6875,C#4,L,163.84375
73,0,327.75,C#5,R,163.875
61,0,327.75,C#4,L,163.875
57,75,328.0,A3,L,164.0
76,76,328.0,E5,R,164.0
57,0,328.375,A3,L,164.1875
59,78,328.375,B3,L,164.1875
76,0,328.4,E5,R,164.2
74,85,328.4,D5,R,164.2
59,0,328.5,B3,L,164.25
61,68,328.75,C#4,L,164.375
74,0,328.79999999999995,D5,R,164.39999999999998
73,71,328.8,C#5,R,164.4
61,0,329.0,C#4,L,164.5
57,67,329.125,A3,L,164.5625
73,0,329.2,C#5,R,164.6
88,89,329.2,E6,R,164.6
59,79,329.5,B3,L,164.75
57,0,329.5,A3,L,164.75
59,0,329.75,B3,L,164.875
61,84,329.84375,C#4,L,164.921875
61,0,329.875,C#4,L,164.9375
88,0,330.0,E6,R,165.0
88,84,330.25,E6,L,165.125
86,82,330.375,D6,L,165.1875
86,0,330.5,D6,L,165.25
85,94,330.5,C#6,L,165.25
86,82,330.5,D6,L,165.25
88,0,331.0,E6,L,165.5
86,0,331.0,D6,L,165.5
85,0,331.0,C#6,L,165.5
52,58,331.25,E3,L,165.625
52,0,331.5,E3,L,165.75
56,61,331.6,G#3,L,165.8
85,63,331.65,C#6,L,165.825
56,0,331.65000000000003,G#3,L,165.82500000000002
85,0,331.79999999999995,C#6,L,165.89999999999998
83,68,331.8,B5,L,165.9
81,71,331.875,A5,R,165.9375
57,69,331.9,A3,L,165.95
83,0,331.90000000000003,B5,L,165.95000000000002
81,0,332.0,A5,R,166.0
57,0,332.0,A3,L,166.0
49,58,332.3125,C#3,R,166.15625
49,0,332.5,C#3,R,166.25
50,72,332.625,D3,R,166.3125
50,0,333.0,D3,R,166.5
52,68,333.0,E3,L,166.5
76,66,333.0,E5,R,166.5
52,0,333.125,E3,L,166.5625
74,75,333.125,D5,L,166.5625
74,0,333.25,D5,L,166.625
74,75,333.25,D5,L,166.625
74,0,333.3125,D5,L,166.65625
73,75,333.3125,C#5,L,166.65625
73,0,333.5,C#5,L,166.75
76,0,334.0,E5,R,167.0
76,54,334.5416666666667,E5,L,167.27083333333334
74,70,334.5833333333333,D5,L,167.29166666666666
76,54,334.5833333333333,E5,L,167.29166666666666
76,0,334.58333333333337,E5,L,167.29166666666669
74,0,334.66666666666663,D5,L,167.33333333333331
76,0,334.66666666666663,E5,L,167.33333333333331
74,70,334.6666666666667,D5,L,167.33333333333334
73,75,334.7083333333333,C#5,L,167.35416666666666
74,70,334.7083333333333,D5,L,167.35416666666666
74,0,334.70833333333337,D5,L,167.35416666666669
74,0,334.75,D5,L,167.375
73,75,334.75,C#5,L,167.375
73,0,334.75,C#5,L,167.375
73,0,335.0,C#5,L,167.5
37,52,335.5,C#2,L,167.75
37,0,335.875,C#2,L,167.9375
38,40,335.875,D2,L,167.9375
73,57,335.875,C#5,R,167.9375
38,0,336.0,D2,L,168.0
71,59,336.0,B4,L,168.0
73,0,336.0,C#5,R,168.0
71,0,336.125,B4,L,168.0625
69,64,336.125,A4,L,168.0625
69,0,336.25,A4,L,168.125
40,55,336.25,E2,L,168.125
40,0,336.5,E2,L,168.25
33,64,336.625,A1,L,168.3125
33,0,336.875,A1,L,168.4375
35,58,336.9375,B1,L,168.46875
35,0,337.0,B1,L,168.5
37,53,337.25,C#2,L,168.625
37,0,337.5,C#2,L,168.75
33,69,337.625,A1,L,168.8125
33,0,338.0,A1,L,169.0
51,55,338.5,D#3,L,169.25
54,45,338.875,F#3,L,169.4375
51,0,338.875,D#3,L,169.4375
54,0,339.0,F#3,L,169.5
52,62,339.0416666666667,E3,L,169.52083333333334
52,0,339.1666666666667,E3,L,169.58333333333334
51,67,339.1666666666667,D#3,L,169.58333333333334
51,0,339.25,D#3,L,169.625
51,67,339.25,D#3,L,169.625
51,0,340.0,D#3,L,170.0
52,58,340.0,E3,L,170.0
67,64,340.0,G4,R,170.0
67,0,340.25,G4,R,170.125
72,64,340.375,C5,R,170.1875
52,0,340.5,E3,L,170.25
52,57,340.5,E3,L,170.25
70,61,340.5,A#4,R,170.25
72,0,340.5,C5,R,170.25
69,66,340.6666666666667,A4,R,170.33333333333334
70,0,340.6666666666667,A#4,R,170.33333333333334
69,66,341.0,A4,R,170.5
69,0,341.0,A4,R,170.5
69,0,341.1,A4,R,170.55
72,62,341.1,C5,R,170.55
70,58,341.2,A#4,R,170.6
72,0,341.20000000000005,C5,R,170.60000000000002
69,61,341.4,A4,R,170.7
70,0,341.4,A#4,R,170.7
50,60,341.5,D3,L,170.75
69,0,341.79999999999995,A4,R,170.89999999999998
72,56,341.8,C5,R,170.9
70,50,342.0,A#4,R,171.0
50,60,342.0,D3,L,171.0
50,0,342.0,D3,L,171.0
72,0,342.0,C5,R,171.0
49,53,342.0,C#3,L,171.0
52,0,342.0,E3,L,171.0
69,58,342.0833333333333,A4,R,171.04166666666666
70,0,342.0833333333333,A#4,R,171.04166666666666
69,0,342.16666666666663,A4,R,171.08333333333331
69,58,342.1666666666667,A4,R,171.08333333333334
69,0,342.5,A4,R,171.25
51,63,343.0,D#3,R,171.5
50,0,343.0,D3,L,171.5
49,0,343.0,C#3,L,171.5
51,0,343.25,D#3,R,171.625
54,49,343.40625,F#3,R,171.703125
54,0,343.5,F#3,R,171.75
52,61,343.5416666666667,E3,R,171.77083333333334
52,0,343.6666666666667,E3,R,171.83333333333334
51,60,343.6666666666667,D#3,R,171.83333333333334
51,0,343.75,D#3,R,171.875
51,60,343.75,D#3,R,171.875
51,60,344.0,D#3,R,172.0
79,58,344.0,G5,R,172.0
51,0,344.0,D#3,R,172.0
52,52,344.5,E3,R,172.25
51,0,344.5,D#3,R,172.25
52,0,345.0,E3,R,172.5
79,0,345.0,G5,R,172.5
84,61,345.0,C6,R,172.5
52,58,345.0,E3,L,172.5
82,56,345.0833333333333,A#5,R,172.54166666666666
84,0,345.0833333333333,C6,R,172.54166666666666
82,0,345.25,A#5,R,172.625
81,64,345.25,A5,R,172.625
81,0,345.5,A5,R,172.75
81,64,345.5,A5,R,172.75
81,0,345.6666666666667,A5,R,172.83333333333334
84,60,345.6666666666667,C6,R,172.83333333333334
82,58,345.8333333333333,A#5,R,172.91666666666666
84,0,345.83333333333337,C6,R,172.91666666666669
82,0,346.0,A#5,R,173.0
81,65,346.0,A5,R,173.0
50,68,346.0,D3,L,173.0
52,0,346.0,E3,L,173.0
81,0,346.4,A5,R,173.2
84,60,346.4,C6,R,173.2
84,0,346.59999999999997,C6,R,173.29999999999998
82,61,346.6,A#5,R,173.3
50,0,346.75,D3,L,173.375
50,68,346.75,D3,L,173.375
82,0,346.8,A#5,R,173.4
81,87,346.8,A5,R,173.4
50,0,346.8125,D3,L,173.40625
49,80,346.8125,C#3,L,173.40625
49,0,347.0,C#3,L,173.5
81,0,347.0,A5,R,173.5
82,73,347.25,A#5,R,173.625
34,70,347.25,A#1,L,173.625
81,72,347.375,A5,R,173.6875
81,0,347.5,A5,R,173.75
34,0,347.5,A#1,L,173.75
33,78,347.5,A1,L,173.75
79,82,347.5416666666667,G5,R,173.77083333333334
31,76,347.5833333333333,G1,R,173.79166666666666
79,0,347.58333333333337,G5,R,173.79166666666669
31,0,347.75,G1,R,173.875
82,83,347.875,A#5,R,173.9375
34,85,347.875,A#1,L,173.9375
33,0,347.875,A1,L,173.9375
82,0,348.0,A#5,R,174.0
82,0,348.0,A#5,R,174.0
34,0,348.0,A#1,L,174.0
81,91,348.25,A5,R,174.125
33,89,348.25,A1,L,174.125
81,0,348.5,A5,R,174.25
33,0,348.5,A1,L,174.25
31,84,348.625,G1,L,174.3125
79,82,348.625,G5,R,174.3125
31,0,349.0,G1,L,174.5
79,0,349.0,G5,R,174.5
40,69,349.375,E2,L,174.6875
88,75,349.375,E6,R,174.6875
86,79,349.5,D6,R,174.75
88,0,349.5,E6,R,174.75
88,75,349.5,E6,R,174.75
38,71,349.5,D2,L,174.75
40,0,349.5,E2,L,174.75
86,0,349.625,D6,R,174.8125
85,84,349.625,C#6,R,174.8125
86,79,349.625,D6,R,174.8125
37,86,349.625,C#2,L,174.8125
85,0,350.0,C#6,R,175.0
38,0,350.0,D2,L,175.0
86,0,350.0,D6,R,175.0
88,0,350.0,E6,R,175.0
37,0,350.0,C#2,L,175.0
88,85,350.0,E6,R,175.0
40,82,350.0625,E2,L,175.03125
40,0,350.25,E2,L,175.125
86,91,350.375,D6,R,175.1875
38,90,350.375,D2,L,175.1875
88,0,350.375,E6,R,175.1875
38,0,350.5,D2,L,175.25
86,0,350.5,D6,R,175.25
37,86,350.75,C#2,L,175.375
85,90,350.75,C#6,R,175.375
37,0,351.0,C#2,L,175.5
85,0,351.0,C#6,R,175.5
91,81,351.5,G6,R,175.75
33,73,351.5,A1,L,175.75
35,69,351.5625,B1,L,175.78125
90,73,351.625,F#6,R,175.8125
91,0,351.625,G6,R,175.8125
35,0,351.75,B1,L,175.875
37,80,351.75,C#2,L,175.875
90,0,351.75,F#6,R,175.875
88,74,351.75,E6,R,175.875
33,0,352.0,A1,L,176.0
88,0,352.0,E6,R,176.0
37,0,352.0,C#2,L,176.0
37,70,352.25,C#2,L,176.125
88,69,352.25,E6,R,176.125
88,0,352.3333333333333,E6,R,176.16666666666666
86,80,352.3333333333333,D6,R,176.16666666666666
88,69,352.3333333333333,E6,R,176.16666666666666
37,0,352.375,C#2,L,176.1875
38,75,352.375,D2,L,176.1875
88,0,352.41666666666663,E6,R,176.20833333333331
86,0,352.41666666666663,D6,R,176.20833333333331
86,80,352.4166666666667,D6,R,176.20833333333334
86,0,352.5,D6,R,176.25
40,75,352.5,E2,L,176.25
38,0,352.5,D2,L,176.25
85,83,352.5,C#6,R,176.25
40,66,352.875,E2,L,176.4375
79,80,352.9375,G5,R,176.46875
79,0,353.0,G5,R,176.5
42,78,353.0,F#2,L,176.5
79,80,353.0,G5,R,176.5
40,0,353.0,E2,L,176.5
85,0,353.0,C#6,R,176.5
40,66,353.0,E2,L,176.5
40,0,353.0,E2,L,176.5
78,84,353.0,F#5,R,176.5
43,73,353.125,G2,L,176.5625
42,0,353.125,F#2,L,176.5625
78,84,353.125,F#5,R,176.5625
76,77,353.125,E5,R,176.5625
42,78,353.125,F#2,L,176.5625
78,0,353.125,F#5,R,176.5625
79,84,353.5,G5,R,176.75
78,0,353.5,F#5,R,176.75
76,0,353.5,E5,R,176.75
43,0,353.5,G2,L,176.75
45,73,353.5,A2,L,176.75
42,0,353.5,F#2,L,176.75
45,0,353.75,A2,L,176.875
79,0,353.75,G5,R,176.875
78,83,353.75,F#5,R,176.875
79,0,353.75,G5,R,176.875
47,78,353.75,B2,L,176.875
49,76,353.875,C#3,L,176.9375
76,82,353.875,E5,R,176.9375
47,0,353.875,B2,L,176.9375
49,76,354.0,C#3,L,177.0
49,0,354.0,C#3,L,177.0
78,0,354.0,F#5,R,177.0
76,0,354.0,E5,R,177.0
40,0,354.0,E2,L,177.0
49,0,354.25,C#3,L,177.125
49,76,354.25,C#3,L,177.125
76,77,354.25,E5,R,177.125
49,0,354.5,C#3,L,177.25
50,75,354.5,D3,L,177.25
74,84,354.5,D5,R,177.25
76,0,354.5,E5,R,177.25
73,77,354.625,C#5,R,177.3125
74,0,354.625,D5,R,177.3125
50,0,354.625,D3,L,177.3125
52,80,354.625,E3,L,177.3125
73,0,355.0,C#5,R,177.5
52,0,355.0,E3,L,177.5
76,80,355.0625,E5,R,177.53125
85,94,355.0625,C#6,R,177.53125
45,81,355.0625,A2,L,177.53125
85,94,355.25,C#6,R,177.625
76,80,355.25,E5,R,177.625
76,0,355.25,E5,R,177.625
85,0,355.25,C#6,R,177.625
45,81,355.25,A2,L,177.625
45,0,355.25,A2,L,177.625
76,80,355.5,E5,R,177.75
76,0,355.5,E5,R,177.75
85,94,355.5,C#6,R,177.75
85,0,355.5,C#6,R,177.75
85,0,355.6875,C#6,R,177.84375
76,0,355.6875,E5,R,177.84375
74,97,355.6875,D5,R,177.84375
86,89,355.6875,D6,R,177.84375
88,81,355.6875,E6,R,177.84375
38,94,355.75,D2,L,177.875
45,0,355.75,A2,L,177.875
74,0,355.75,D5,R,177.875
86,0,355.75,D6,R,177.875
88,0,355.75,E6,R,177.875
50,92,355.75,D3,L,177.875
38,0,356.0,D2,L,178.0
50,0,356.0,D3,L,178.0
73,79,356.375,C#5,R,178.1875
37,62,356.375,C#2,L,178.1875
73,0,356.5,C#5,R,178.25
71,74,356.5,B4,R,178.25
37,0,356.5,C#2,L,178.25
35,69,356.5,B1,L,178.25
37,62,356.5,C#2,L,178.25
73,79,356.5,C#5,R,178.25
69,82,356.6875,A4,R,178.34375
71,0,356.6875,B4,R,178.34375
69,82,356.75,A4,R,178.375
69,0,356.75,A4,R,178.375
35,0,356.75,B1,L,178.375
33,87,356.75,A1,L,178.375
69,0,357.0,A4,R,178.5
33,0,357.0,A1,L,178.5
73,0,357.0,C#5,R,178.5
37,0,357.0,C#2,L,178.5
43,76,357.125,G2,L,178.5625
79,76,357.125,G5,R,178.5625
79,0,357.375,G5,R,178.6875
43,0,357.375,G2,L,178.6875
78,84,357.4375,F#5,R,178.71875
42,85,357.4375,F#2,L,178.71875
78,0,357.5,F#5,R,178.75
42,0,357.5,F#2,L,178.75
42,85,357.5,F#2,L,178.75
42,0,357.75,F#2,L,178.875
40,76,357.75,E2,L,178.875
76,79,357.75,E5,R,178.875
76,0,358.0,E5,R,179.0
40,0,358.0,E2,L,179.0
38,78,358.125,D2,L,179.0625
74,82,358.125,D5,R,179.0625
38,0,358.5,D2,L,179.25
47,71,358.5,B2,L,179.25
83,81,358.5,B5,R,179.25
74,0,358.5,D5,R,179.25
83,0,358.75,B5,R,179.375
47,0,358.75,B2,L,179.375
45,77,358.8125,A2,L,179.40625
81,82,358.8125,A5,R,179.40625
81,0,359.0,A5,R,179.5
45,0,359.0,A2,L,179.5
43,73,359.125,G2,L,179.5625
79,69,359.125,G5,R,179.5625
43,0,359.5,G2,L,179.75
42,81,359.5,F#2,L,179.75
79,0,359.5,G5,R,179.75
78,78,359.5,F#5,R,179.75
78,0,359.6666666666667,F#5,R,179.83333333333334
42,0,359.75,F#2,L,179.875
50,81,359.8125,D3,L,179.90625
86,84,359.8333333333333,D6,R,179.91666666666666
50,0,360.0,D3,L,180.0
86,0,360.0,D6,R,180.0
85,86,360.1875,C#6,R,180.09375
49,79,360.1875,C#3,L,180.09375
49,0,360.25,C#3,L,180.125
49,79,360.25,C#3,L,180.125
85,86,360.25,C#6,R,180.125
85,0,360.25,C#6,R,180.125
85,0,360.5,C#6,R,180.25
83,85,360.5,B5,R,180.25
47,79,360.5,B2,L,180.25
49,0,360.5,C#3,L,180.25
83,0,360.6666666666667,B5,R,180.33333333333334
47,0,360.6666666666667,B2,L,180.33333333333334
81,82,360.8333333333333,A5,R,180.41666666666666
45,80,360.8333333333333,A2,L,180.41666666666666
45,0,361.0,A2,L,180.5
81,0,361.0,A5,R,180.5
91,84,361.1875,G6,R,180.59375
55,83,361.1875,G3,L,180.59375
55,83,361.25,G3,L,180.625
55,0,361.25,G3,L,180.625
91,0,361.25,G6,R,180.625
91,84,361.25,G6,R,180.625
54,86,361.5,F#3,L,180.75
55,0,361.5,G3,L,180.75
90,90,361.5,F#6,R,180.75
91,0,361.5,G6,R,180.75
90,0,361.6666666666667,F#6,R,180.83333333333334
54,0,361.6666666666667,F#3,L,180.83333333333334
52,86,361.8333333333333,E3,L,180.91666666666666
88,90,361.8333333333333,E6,R,180.91666666666666
52,0,362.0,E3,L,181.0
88,0,362.0,E6,R,181.0
50,98,362.25,D3,L,181.125
86,104,362.25,D6,R,181.125
86,0,363.0,D6,R,181.5
50,0,363.0,D3,L,181.5
76,78,363.5625,E5,R,181.78125
64,86,363.5625,E4,L,181.78125
52,87,363.5625,E3,L,181.78125
88,100,363.5625,E6,R,181.78125
88,0,363.75,E6,R,181.875
64,0,363.75,E4,L,181.875
76,0,363.75,E5,R,181.875
52,0,363.75,E3,L,181.875
52,69,364.375,E3,L,182.1875
53,79,364.375,F3,L,182.1875
65,89,364.375,F4,L,182.1875
77,90,364.40625,F5,R,182.203125
89,102,364.40625,F6,R,182.203125
52,0,364.5,E3,L,182.25
53,0,364.5,F3,L,182.25
89,0,364.5,F6,R,182.25
77,0,364.5,F5,R,182.25
65,0,364.5,F4,L,182.25
34,44,367.0,A#1,L,183.5
46,41,367.0,A#2,R,183.5
34,0,368.0,A#1,L,184.0
46,41,368.0,A#2,R,184.0
34,44,368.0,A#1,L,184.0
46,0,368.0,A#2,R,184.0
34,0,369.0,A#1,L,184.5
46,0,369.0,A#2,R,184.5
62,38,370.0,D4,R,185.0
66,46,370.0,F#4,R,185.0
33,44,370.0,A1,L,185.0
62,0,370.5,D4,R,185.25
66,0,370.5,F#4,R,185.25
57,47,370.625,A3,R,185.3125
66,57,371.0,F#4,R,185.5
45,36,371.0,A2,L,185.5
57,0,371.0,A3,R,185.5
45,0,371.25,A2,L,185.625
45,36,371.25,A2,L,185.625
62,43,371.25,D4,L,185.625
66,0,371.5,F#4,R,185.75
57,52,371.5,A3,R,185.75
66,59,371.625,F#4,R,185.8125
62,40,371.75,D4,R,185.875
66,59,371.75,F#4,R,185.875
66,0,371.75,F#4,R,185.875
57,0,372.0,A3,R,186.0
66,59,372.0,F#4,R,186.0
33,44,372.0,A1,L,186.0
45,0,372.0,A2,L,186.0
62,0,372.0,D4,L,186.0
33,0,372.0,A1,L,186.0
45,36,372.0,A2,L,186.0
62,40,372.0,D4,R,186.0
62,0,372.0,D4,R,186.0
66,0,372.0,F#4,R,186.0
66,0,372.1666666666667,F#4,R,186.08333333333334
57,40,372.1666666666667,A3,R,186.08333333333334
62,0,372.1666666666667,D4,R,186.08333333333334
45,0,372.6666666666667,A2,L,186.33333333333334
45,36,372.6666666666667,A2,L,186.33333333333334
57,0,372.6666666666667,A3,R,186.33333333333334
67,57,372.6666666666667,G4,R,186.33333333333334
64,46,372.6666666666667,E4,L,186.33333333333334
67,0,373.0,G4,R,186.5
57,39,373.0,A3,R,186.5
45,0,373.0,A2,L,186.5
64,0,373.0,E4,L,186.5
45,36,373.0,A2,L,186.5
45,36,373.3333333333333,A2,L,186.66666666666666
64,49,373.3333333333333,E4,L,186.66666666666666
45,0,373.3333333333333,A2,L,186.66666666666666
67,48,373.5,G4,R,186.75
57,0,373.5,A3,R,186.75
57,45,373.75,A3,R,186.875
67,0,373.75,G4,R,186.875
57,0,374.0,A3,R,187.0
66,52,374.0,F#4,R,187.0
64,0,374.0,E4,L,187.0
62,34,374.0,D4,R,187.0
45,0,374.0,A2,L,187.0
33,0,374.0,A1,L,187.0
33,56,374.1875,A1,L,187.09375
45,42,374.1875,A2,L,187.09375
45,42,374.25,A2,L,187.125
33,56,374.25,A1,L,187.125
45,0,374.25,A2,L,187.125
33,0,374.25,A1,L,187.125
66,0,374.5,F#4,R,187.25
57,54,374.5,A3,R,187.25
62,0,374.5,D4,R,187.25
57,0,375.0,A3,R,187.5
33,0,375.0,A1,L,187.5
45,0,375.0,A2,L,187.5
73,63,375.0,C#5,R,187.5
49,38,375.25,C#3,R,187.625
45,43,375.25,A2,L,187.625
73,0,376.0,C#5,R,188.0
45,43,376.0,A2,L,188.0
73,63,376.0,C#5,R,188.0
49,0,376.0,C#3,R,188.0
45,0,376.0,A2,L,188.0
49,38,376.0,C#3,R,188.0
45,42,376.5,A2,L,188.25
45,0,376.75,A2,L,188.375
74,70,376.75,D5,R,188.375
49,0,376.75,C#3,R,188.375
49,43,376.75,C#3,L,188.375
76,78,377.0,E5,L,188.5
74,70,377.0,D5,R,188.5
45,0,377.0,A2,L,188.5
49,0,377.0,C#3,L,188.5
73,0,377.0,C#5,R,188.5
74,0,377.0,D5,R,188.5
76,66,377.5,E5,L,188.75
74,0,377.5,D5,R,188.75
49,41,377.5,C#3,R,188.75
69,61,378.0,A4,R,189.0
76,0,378.0,E5,L,189.0
45,40,378.0,A2,L,189.0
76,66,378.0,E5,L,189.0
76,0,378.0,E5,L,189.0
49,0,378.0,C#3,R,189.0
45,0,378.25,A2,L,189.125
47,50,378.25,B2,L,189.125
50,48,378.25,D3,L,189.125
76,0,379.0,E5,L,189.5
47,0,379.0,B2,L,189.5
50,0,379.0,D3,L,189.5
49,49,379.0,C#3,L,189.5
52,49,379.0,E3,L,189.5
67,58,379.0,G4,R,189.5
69,0,379.0,A4,R,189.5
67,0,380.0,G4,R,190.0
65,78,380.0,F4,R,190.0
49,0,380.0,C#3,L,190.0
52,0,380.0,E3,L,190.0
38,81,380.0,D2,L,190.0
74,93,380.0,D5,R,190.0
65,0,380.375,F4,R,190.1875
73,73,380.375,C#5,R,190.1875
74,0,380.375,D5,R,190.1875
37,63,380.375,C#2,L,190.1875
73,73,380.5,C#5,R,190.25
73,0,380.5,C#5,R,190.25
71,61,380.5,B4,R,190.25
35,61,380.5,B1,L,190.25
38,0,380.5,D2,L,190.25
37,0,380.5,C#2,L,190.25
37,63,380.5,C#2,L,190.25
71,0,380.625,B4,R,190.3125
35,61,380.625,B1,L,190.3125
33,80,380.625,A1,L,190.3125
35,0,380.625,B1,L,190.3125
69,74,380.625,A4,R,190.3125
43,67,381.0,G2,L,190.5
37,0,381.0,C#2,L,190.5
35,0,381.0,B1,L,190.5
33,0,381.0,A1,L,190.5
69,0,381.0,A4,R,190.5
79,81,381.0,G5,R,190.5
73,0,381.0,C#5,R,190.5
77,82,381.375,F5,R,190.6875
79,0,381.375,G5,R,190.6875
43,0,381.5,G2,L,190.75
41,72,381.5,F2,L,190.75
77,0,381.5,F5,R,190.75
41,0,381.75,F2,L,190.875
40,80,381.75,E2,L,190.875
76,82,381.75,E5,R,190.875
40,0,382.0,E2,L,191.0
38,74,382.0,D2,L,191.0
76,0,382.0,E5,R,191.0
74,87,382.0625,D5,R,191.03125
74,87,382.25,D5,R,191.125
74,0,382.25,D5,R,191.125
38,0,382.375,D2,L,191.1875
46,79,382.4375,A#2,L,191.21875
74,0,382.4375,D5,R,191.21875
82,79,382.4375,A#5,R,191.21875
82,0,382.5,A#5,R,191.25
82,79,382.5,A#5,R,191.25
46,79,382.5,A#2,L,191.25
46,0,382.5,A#2,L,191.25
45,73,382.75,A2,L,191.375
82,0,382.75,A#5,R,191.375
81,85,382.75,A5,R,191.375
46,0,382.75,A#2,L,191.375
45,0,383.0,A2,L,191.5
43,72,383.0,G2,L,191.5
81,0,383.0,A5,R,191.5
79,85,383.0625,G5,R,191.53125
79,0,383.25,G5,R,191.625
43,0,383.375,G2,L,191.6875
41,73,383.4375,F2,L,191.71875
77,74,383.4375,F5,R,191.71875
41,0,383.5,F2,L,191.75
77,0,383.5,F5,R,191.75
50,83,383.75,D3,L,191.875
86,84,383.75,D6,R,191.875
86,0,383.875,D6,R,191.9375
87,19,383.875,D#6,R,191.9375
49,84,384.0,C#3,L,192.0
50,0,384.0,D3,L,192.0
87,0,384.0,D#6,R,192.0
85,86,384.0,C#6,R,192.0
85,0,384.375,C#6,R,192.1875
83,83,384.4375,B5,R,192.21875
47,80,384.5,B2,L,192.25
49,0,384.5,C#3,L,192.25
83,0,384.5,B5,R,192.25
83,83,384.5,B5,R,192.25
47,0,384.75,B2,L,192.375
45,87,384.75,A2,L,192.375
81,80,384.75,A5,R,192.375
83,0,384.75,B5,R,192.375
81,0,385.0,A5,R,192.5
45,0,385.0,A2,L,192.5
55,88,385.125,G3,L,192.5625
91,93,385.125,G6,R,192.5625
55,0,385.5,G3,L,192.75
53,92,385.5,F3,L,192.75
91,0,385.5,G6,R,192.75
89,92,385.5,F6,R,192.75
89,0,385.6666666666667,F6,R,192.83333333333334
53,0,385.6666666666667,F3,L,192.83333333333334
52,92,385.8333333333333,E3,L,192.91666666666666
88,92,385.8333333333333,E6,R,192.91666666666666
88,0,386.0,E6,R,193.0
52,0,386.0,E3,L,193.0
86,102,386.1875,D6,R,193.09375
50,99,386.1875,D3,L,193.09375
86,102,386.25,D6,R,193.125
86,0,386.25,D6,R,193.125
50,99,386.25,D3,L,193.125
50,0,386.25,D3,L,193.125
50,0,387.0,D3,L,193.5
86,0,387.0,D6,R,193.5
88,100,387.5625,E6,R,193.78125
76,87,387.5625,E5,R,193.78125
64,92,387.5625,E4,L,193.78125
52,90,387.5625,E3,L,193.78125
88,0,387.75,E6,R,193.875
76,0,387.75,E5,R,193.875
64,0,387.75,E4,L,193.875
52,0,387.75,E3,L,193.875
77,94,388.375,F5,L,194.1875
89,101,388.375,F6,R,194.1875
53,86,388.40625,F3,L,194.203125
77,0,388.40625,F5,L,194.203125
65,86,388.40625,F4,R,194.203125
89,0,388.40625,F6,R,194.203125
65,0,388.5,F4,R,194.25
53,0,388.5,F3,L,194.25
29,41,391.0,F1,L,195.5
41,38,391.0,F2,R,195.5
29,0,392.0,F1,L,196.0
41,0,392.0,F2,R,196.0
58,42,393.75,A#3,L,196.875
62,43,393.75,D4,R,196.875
58,42,394.0,A#3,L,197.0
62,43,394.0,D4,R,197.0
62,0,394.0,D4,R,197.0
46,44,394.0,A#2,R,197.0
58,0,394.0,A#3,L,197.0
34,37,394.0,A#1,L,197.0
46,0,394.75,A#2,R,197.375
53,39,394.75,F3,R,197.375
46,44,394.75,A#2,R,197.375
34,0,395.0,A#1,L,197.5
62,48,395.0,D4,R,197.5
58,44,395.0,A#3,L,197.5
53,0,395.0,F3,R,197.5
62,0,395.0,D4,R,197.5
58,0,395.0,A#3,L,197.5
46,0,395.0,A#2,R,197.5
46,44,395.0,A#2,R,197.5
34,37,395.0,A#1,L,197.5
46,44,395.5,A#2,R,197.75
62,0,395.5,D4,R,197.75
53,42,395.5,F3,R,197.75
46,0,395.5,A#2,R,197.75
62,43,395.75,D4,R,197.875
34,37,395.75,A#1,L,197.875
34,0,395.75,A#1,L,197.875
58,45,395.75,A#3,L,197.875
58,0,395.75,A#3,L,197.875
46,44,396.0,A#2,R,198.0
53,32,396.0,F3,R,198.0
58,45,396.0,A#3,L,198.0
46,0,396.0,A#2,R,198.0
62,0,396.0,D4,R,198.0
34,37,396.0,A#1,L,198.0
53,0,396.0,F3,R,198.0
34,0,396.0,A#1,L,198.0
58,0,396.0,A#3,L,198.0
62,43,396.0,D4,R,198.0
63,56,396.75,D#4,R,198.375
62,0,396.75,D4,R,198.375
63,0,397.0,D#4,R,198.5
58,0,397.0,A#3,L,198.5
34,37,397.0,A#1,L,198.5
60,44,397.0,C4,R,198.5
46,44,397.0,A#2,R,198.5
53,0,397.0,F3,R,198.5
63,56,397.0,D#4,R,198.5
34,0,397.0,A#1,L,198.5
46,0,397.0,A#2,R,198.5
46,44,397.25,A#2,R,198.625
46,0,397.25,A#2,R,198.625
60,0,397.25,C4,R,198.625
53,40,397.25,F3,R,198.625
63,0,397.5,D#4,R,198.75
63,55,397.5,D#4,R,198.75
46,44,397.75,A#2,R,198.875
46,0,397.75,A#2,R,198.875
53,0,397.75,F3,R,198.875
60,36,397.75,C4,R,198.875
34,0,398.0,A#1,L,199.0
60,0,398.0,C4,R,199.0
53,40,398.0,F3,R,199.0
63,0,398.0,D#4,R,199.0
46,0,398.0,A#2,R,199.0
53,0,398.5,F3,R,199.25
58,44,398.5,A#3,R,199.25
62,54,398.5,D4,R,199.25
34,45,398.5,A#1,L,199.25
46,52,398.5,A#2,L,199.25
34,0,398.75,A#1,L,199.375
53,45,398.75,F3,L,199.375
46,0,398.75,A#2,L,199.375
53,0,399.0,F3,L,199.5
58,0,399.0,A#3,R,199.5
62,0,399.0,D4,R,199.5
46,51,399.25,A#2,L,199.625
60,51,399.25,C4,R,199.625
57,41,399.25,A3,R,199.625
51,39,399.5,D#3,R,199.75
57,0,399.5,A3,R,199.75
53,29,399.75,F3,R,199.875
48,37,399.75,C3,L,199.875
46,0,399.75,A#2,L,199.875
60,0,399.75,C4,R,199.875
48,0,400.0,C3,L,200.0
46,53,400.0,A#2,R,200.0
51,0,400.0,D#3,R,200.0
53,0,400.0,F3,R,200.0
57,30,400.4,A3,R,200.2
46,0,400.4,A#2,R,200.2
51,42,400.5,D#3,L,200.25
48,37,400.5,C3,L,200.25
57,0,400.79999999999995,A3,R,200.39999999999998
46,46,400.8,A#2,R,200.4
51,44,401.0,D#3,L,200.5
51,0,401.0,D#3,L,200.5
53,28,401.0,F3,L,200.5
46,0,401.0,A#2,R,200.5
48,0,401.0,C3,L,200.5
48,37,401.0,C3,L,200.5
57,34,401.2,A3,R,200.6
57,0,401.59999999999997,A3,R,200.79999999999998
46,50,401.6,A#2,R,200.8
48,19,402.0,C3,L,201.0
53,0,402.0,F3,L,201.0
53,20,402.0,F3,L,201.0
46,0,402.0,A#2,R,201.0
51,23,402.0,D#3,L,201.0
51,0,402.0,D#3,L,201.0
57,11,402.0,A3,R,201.0
48,0,402.0,C3,L,201.0
48,31,402.5,C3,L,201.25
53,20,402.5,F3,L,201.25
51,23,402.5,D#3,L,201.25
53,0,402.5,F3,L,201.25
51,0,402.5,D#3,L,201.25
57,0,402.5,A3,R,201.25
46,50,402.5,A#2,R,201.25
48,0,402.5,C3,L,201.25
53,7,402.75,F3,L,201.375
53,0,402.75,F3,L,201.375
51,0,402.75,D#3,L,201.375
51,37,402.75,D#3,R,201.375
57,32,402.875,A3,R,201.4375
46,0,402.875,A#2,R,201.4375
46,47,403.0,A#2,L,201.5
53,0,403.0,F3,L,201.5
51,0,403.0,D#3,R,201.5
57,0,403.0,A3,R,201.5
72,74,403.0,C5,R,201.5
46,0,403.5,A#2,L,201.75
51,43,403.5,D#3,L,201.75
57,28,403.5,A3,R,201.75
51,0,403.75,D#3,L,201.875
53,31,403.75,F3,L,201.875
48,0,404.0,C3,L,202.0
57,0,404.0,A3,R,202.0
72,0,404.0,C5,R,202.0
53,0,404.0,F3,L,202.0
74,75,404.0,D5,R,202.0
46,55,404.0,A#2,L,202.0
50,42,404.375,D3,L,202.1875
50,0,404.5,D3,L,202.25
46,0,404.5,A#2,L,202.25
50,42,404.5,D3,L,202.25
58,43,404.5,A#3,L,202.25
53,28,404.5,F3,R,202.25
58,0,404.75,A#3,L,202.375
46,48,404.75,A#2,L,202.375
50,40,405.0,D3,L,202.5
53,0,405.0,F3,R,202.5
53,39,405.0,F3,R,202.5
50,0,405.0,D3,L,202.5
46,0,405.0,A#2,L,202.5
58,34,405.125,A#3,L,202.5625
53,0,405.5,F3,R,202.75
46,53,405.5,A#2,L,202.75
75,82,405.5,D#5,R,202.75
58,0,405.5,A#3,L,202.75
50,49,405.75,D3,L,202.875
50,0,405.75,D3,L,202.875
75,0,405.75,D#5,R,202.875
77,82,405.75,F5,R,202.875
53,38,405.875,F3,L,202.9375
46,0,405.875,A#2,L,202.9375
58,31,405.875,A#3,R,202.9375
77,0,405.875,F5,R,202.9375
53,0,406.0,F3,L,203.0
46,51,406.0,A#2,L,203.0
58,0,406.0,A#3,R,203.0
74,0,406.0,D5,R,203.0
77,70,406.0,F5,R,203.0
50,0,406.0,D3,L,203.0
46,0,406.5,A#2,L,203.25
46,51,406.5,A#2,L,203.25
50,48,406.5833333333333,D3,L,203.29166666666666
46,0,406.5833333333333,A#2,L,203.29166666666666
58,47,406.625,A#3,R,203.3125
50,0,406.66666666666663,D3,L,203.33333333333331
53,46,406.6666666666667,F3,L,203.33333333333334
77,0,407.0,F5,R,203.5
53,0,407.0,F3,L,203.5
58,0,407.0,A#3,R,203.5
48,52,407.0,C3,L,203.5
69,72,407.0,A4,R,203.5
51,53,407.25,D#3,L,203.625
48,0,407.25,C3,L,203.625
57,41,407.3333333333333,A3,R,203.66666666666666
69,0,407.3333333333333,A4,R,203.66666666666666
53,30,407.4375,F3,L,203.71875
51,0,407.4375,D#3,L,203.71875
53,0,407.5,F3,L,203.75
53,30,407.5,F3,L,203.75
57,0,407.66666666666663,A3,R,203.83333333333331
70,76,407.6666666666667,A#4,R,203.83333333333334
50,52,407.75,D3,L,203.875
53,0,407.75,F3,L,203.875
53,45,408.0,F3,R,204.0
50,0,408.0,D3,L,204.0
70,0,408.0,A#4,R,204.0
53,0,408.0833333333333,F3,R,204.04166666666666
58,50,408.0833333333333,A#3,R,204.04166666666666
58,0,408.16666666666663,A#3,R,204.08333333333331
58,50,408.1666666666667,A#3,R,204.08333333333334
58,0,408.5,A#3,R,204.25
51,48,408.5,D#3,L,204.25
55,49,409.0,G3,L,204.5
79,73,409.0,G5,R,204.5
51,0,409.0,D#3,L,204.5
58,44,409.125,A#3,R,204.5625
55,0,409.3333333333333,G3,L,204.66666666666666
51,59,409.3333333333333,D#3,L,204.66666666666666
58,0,409.5,A#3,R,204.75
51,0,409.66666666666663,D#3,L,204.83333333333331
55,45,409.6666666666667,G3,L,204.83333333333334
58,44,409.75,A#3,R,204.875
51,50,410.0,D#3,L,205.0
79,0,410.0,G5,R,205.0
55,0,410.0,G3,L,205.0
58,0,410.0,A#3,R,205.0
81,82,410.0,A5,R,205.0
58,44,410.0,A#3,R,205.0
58,0,410.375,A#3,R,205.1875
81,0,410.375,A5,R,205.1875
82,85,410.375,A#5,R,205.1875
58,44,410.375,A#3,R,205.1875
55,50,410.5,G3,L,205.25
51,0,410.5,D#3,L,205.25
58,0,410.5,A#3,R,205.25
58,42,410.5,A#3,R,205.25
82,85,410.5,A#5,R,205.25
82,0,410.5,A#5,R,205.25
58,0,411.0,A#3,R,205.5
51,39,411.0,D#3,L,205.5
82,0,411.0,A#5,R,205.5
82,80,411.0,A#5,R,205.5
55,0,411.0,G3,L,205.5
51,0,411.25,D#3,L,205.625
58,45,411.25,A#3,R,205.625
55,47,411.25,G3,L,205.625
75,77,411.5,D#5,R,205.75
55,0,411.5,G3,L,205.75
58,0,411.5,A#3,R,205.75
51,49,411.625,D#3,L,205.8125
59,52,412.0,B3,R,206.0
75,77,412.0,D#5,R,206.0
51,0,412.0,D#3,L,206.0
82,0,412.0,A#5,R,206.0
75,0,412.0,D#5,R,206.0
55,43,412.0,G3,L,206.0
51,48,412.3333333333333,D#3,L,206.16666666666666
55,0,412.3333333333333,G3,L,206.16666666666666
75,77,412.3333333333333,D#5,R,206.16666666666666
59,0,412.3333333333333,B3,R,206.16666666666666
75,0,412.3333333333333,D#5,R,206.16666666666666
77,80,412.3333333333333,F5,R,206.16666666666666
77,0,412.66666666666663,F5,R,206.33333333333331
51,0,412.66666666666663,D#3,L,206.33333333333331
75,0,412.66666666666663,D#5,R,206.33333333333331
55,52,412.6666666666667,G3,L,206.33333333333334
79,80,412.6666666666667,G5,R,206.33333333333334
59,49,412.6666666666667,B3,L,206.33333333333334
55,0,413.0,G3,L,206.5
59,0,413.0,B3,L,206.5
51,45,413.0,D#3,L,206.5
79,0,413.0,G5,R,206.5
79,72,413.0,G5,R,206.5
51,0,413.5,D#3,L,206.75
55,43,413.5,G3,L,206.75
60,45,413.5,C4,R,206.75
60,0,414.0,C4,R,207.0
72,74,414.0,C5,R,207.0
79,0,414.0,G5,R,207.0
51,45,414.0,D#3,L,207.0
55,0,414.0,G3,L,207.0
60,42,414.25,C4,R,207.125
55,48,414.25,G3,L,207.125
51,0,414.25,D#3,L,207.125
74,69,414.5,D5,R,207.25
60,42,414.5,C4,R,207.25
60,0,414.5,C4,R,207.25
51,44,414.5,D#3,L,207.25
55,0,414.5,G3,L,207.25
74,0,414.75,D5,R,207.375
60,0,414.75,C4,R,207.375
74,69,414.75,D5,R,207.375
74,0,414.875,D5,R,207.4375
75,77,414.875,D#5,R,207.4375
51,0,415.0,D#3,L,207.5
72,0,415.0,C5,R,207.5
60,35,415.0,C4,R,207.5
55,47,415.0,G3,L,207.5
75,0,415.0,D#5,R,207.5
60,0,415.3333333333333,C4,R,207.66666666666666
75,70,415.3333333333333,D#5,R,207.66666666666666
51,42,415.3333333333333,D#3,L,207.66666666666666
55,0,415.3333333333333,G3,L,207.66666666666666
51,0,415.66666666666663,D#3,L,207.83333333333331
75,0,415.66666666666663,D#5,R,207.83333333333331
60,38,415.6666666666667,C4,R,207.83333333333334
55,43,415.6666666666667,G3,L,207.83333333333334
75,70,415.6666666666667,D#5,R,207.83333333333334
75,70,416.0,D#5,R,208.0
60,38,416.0,C4,R,208.0
51,42,416.0,D#3,L,208.0
55,0,416.0,G3,L,208.0
75,0,416.0,D#5,R,208.0
60,0,416.0,C4,R,208.0
75,0,416.2,D#5,R,208.1
60,0,416.2,C4,R,208.1
67,65,416.2,G4,R,208.1
60,43,416.4,C4,R,208.2
67,0,416.4,G4,R,208.2
67,65,416.4,G4,R,208.2
55,43,416.5,G3,L,208.25
51,0,416.5,D#3,L,208.25
67,0,416.79999999999995,G4,R,208.39999999999998
60,0,416.79999999999995,C4,R,208.39999999999998
75,68,416.8,D#5,R,208.4
51,52,417.0,D#3,L,208.5
55,0,417.0,G3,L,208.5
75,0,417.2,D#5,R,208.6
72,66,417.2,C5,R,208.6
60,43,417.25,C4,L,208.625
55,53,417.25,G3,L,208.625
51,0,417.25,D#3,L,208.625
72,0,417.59999999999997,C5,R,208.79999999999998
70,64,417.6,A#4,R,208.8
55,0,417.75,G3,L,208.875
60,0,417.75,C4,L,208.875
53,52,417.75,F3,L,208.875
70,0,418.0,A#4,R,209.0
72,58,418.0,C5,R,209.0
53,0,418.0,F3,L,209.0
58,52,418.0,A#3,L,209.0
62,41,418.125,D4,R,209.0625
70,64,418.25,A#4,R,209.125
62,41,418.25,D4,R,209.125
62,0,418.25,D4,R,209.125
70,0,418.375,A#4,R,209.1875
62,0,418.375,D4,R,209.1875
62,41,418.375,D4,R,209.1875
69,59,418.4375,A4,R,209.21875
62,0,418.4375,D4,R,209.21875
62,41,418.4375,D4,R,209.21875
58,0,418.5,A#3,L,209.25
53,41,418.5,F3,L,209.25
69,59,418.5,A4,R,209.25
62,0,418.5,D4,R,209.25
69,0,418.5,A4,R,209.25
70,59,418.6875,A#4,R,209.34375
69,0,418.6875,A4,R,209.34375
70,0,418.75,A#4,R,209.375
70,59,418.75,A#4,R,209.375
65,55,418.875,F4,R,209.4375
70,0,418.875,A#4,R,209.4375
62,32,419.0,D4,L,209.5
53,0,419.0,F3,L,209.5
58,44,419.0,A#3,L,209.5
72,0,419.0,C5,R,209.5
65,0,419.0,F4,R,209.5
65,55,419.0,F4,R,209.5
65,0,419.125,F4,R,209.5625
67,61,419.125,G4,R,209.5625
67,0,419.25,G4,R,209.625
53,49,419.25,F3,R,209.625
62,0,419.375,D4,L,209.6875
58,0,419.375,A#3,L,209.6875
69,65,419.375,A4,L,209.6875
70,68,419.5,A#4,L,209.75
69,0,419.5,A4,L,209.75
62,23,419.5,D4,R,209.75
58,44,419.75,A#3,L,209.875
53,0,419.75,F3,R,209.875
72,58,419.75,C5,R,209.875
70,0,419.75,A#4,L,209.875
74,63,420.0,D5,R,210.0
58,0,420.0,A#3,L,210.0
62,0,420.0,D4,R,210.0
72,0,420.0,C5,R,210.0
53,44,420.0,F3,L,210.0
69,63,420.25,A4,R,210.125
74,0,420.25,D5,R,210.125
53,0,420.5,F3,L,210.25
62,24,420.5,D4,L,210.25
58,54,420.5,A#3,L,210.25
69,0,420.5,A4,R,210.25
70,65,420.5,A#4,R,210.25
53,48,420.75,F3,L,210.375
58,0,420.75,A#3,L,210.375
62,0,420.75,D4,L,210.375
70,0,420.8333333333333,A#4,R,210.41666666666666
72,69,420.8333333333333,C5,R,210.41666666666666
53,0,421.0,F3,L,210.5
53,48,421.0,F3,L,210.5
72,0,421.0,C5,R,210.5
74,65,421.0,D5,R,210.5
62,34,421.25,D4,L,210.625
53,0,421.25,F3,L,210.625
75,74,421.25,D#5,R,210.625
74,0,421.25,D5,R,210.625
58,42,421.25,A#3,L,210.625
53,46,421.5,F3,L,210.75
62,0,421.5,D4,L,210.75
58,0,421.5,A#3,L,210.75
75,0,421.5,D#5,R,210.75
77,70,421.5833333333333,F5,R,210.79166666666666
79,65,421.8333333333333,G5,R,210.91666666666666
77,0,421.8333333333333,F5,R,210.91666666666666
62,36,422.0,D4,L,211.0
53,0,422.0,F3,L,211.0
81,62,422.0,A5,R,211.0
58,45,422.0,A#3,L,211.0
79,0,422.0,G5,R,211.0
58,0,422.25,A#3,L,211.125
62,0,422.25,D4,L,211.125
53,45,422.25,F3,L,211.125
82,62,422.3333333333333,A#5,R,211.16666666666666
81,0,422.3333333333333,A5,R,211.16666666666666
82,0,422.5,A#5,R,211.25
77,59,422.5,F5,R,211.25
77,0,422.75,F5,R,211.375
79,63,422.75,G5,R,211.375
58,46,422.75,A#3,L,211.375
53,0,422.75,F3,L,211.375
62,33,422.75,D4,L,211.375
79,0,423.0,G5,R,211.5
53,44,423.0,F3,L,211.5
62,0,423.0,D4,L,211.5
58,0,423.0,A#3,L,211.5
81,57,423.0833333333333,A5,R,211.54166666666666
81,0,423.3333333333333,A5,R,211.66666666666666
82,66,423.3333333333333,A#5,R,211.66666666666666
82,0,423.5,A#5,R,211.75
84,68,423.5,C6,R,211.75
62,34,423.5,D4,L,211.75
58,47,423.5,A#3,L,211.75
53,0,423.5,F3,L,211.75
84,0,423.75,C6,R,211.875
86,73,423.75,D6,R,211.875
53,55,423.75,F3,L,211.875
62,0,423.75,D4,L,211.875
58,0,423.75,A#3,L,211.875
86,0,423.875,D6,R,211.9375
87,72,423.875,D#6,R,211.9375
86,77,424.0,D6,R,212.0
53,55,424.0,F3,L,212.0
53,0,424.0,F3,L,212.0
87,0,424.0,D#6,R,212.0
86,0,424.125,D6,R,212.0625
84,70,424.125,C6,R,212.0625
62,42,424.125,D4,L,212.0625
58,56,424.125,A#3,L,212.0625
53,0,424.125,F3,L,212.0625
84,0,424.25,C6,R,212.125
86,77,424.3125,D6,R,212.15625
62,0,424.5,D4,L,212.25
58,0,424.5,A#3,L,212.25
86,0,424.5,D6,R,212.25
87,76,424.5,D#6,R,212.25
89,75,424.625,F6,R,212.3125
54,51,424.625,F#3,L,212.3125
87,0,424.625,D#6,R,212.3125
87,67,424.875,D#6,R,212.4375
87,0,425.0,D#6,R,212.5
87,67,425.0,D#6,R,212.5
54,0,425.0,F#3,L,212.5
89,0,425.0,F6,R,212.5
60,47,425.0,C4,L,212.5
63,41,425.0,D#4,R,212.5
86,59,425.125,D6,L,212.5625
63,0,425.25,D#4,R,212.625
84,61,425.375,C6,R,212.6875
84,0,425.5,C6,R,212.75
54,51,425.5,F#3,L,212.75
86,0,425.5,D6,L,212.75
82,59,425.5,A#5,R,212.75
63,45,425.75,D#4,L,212.875
60,44,425.75,C4,L,212.875
54,0,425.75,F#3,L,212.875
82,0,425.75,A#5,R,212.875
81,64,425.75,A5,R,212.875
87,0,426.0,D#6,R,213.0
54,53,426.0,F#3,L,213.0
63,0,426.0,D#4,L,213.0
60,0,426.0,C4,L,213.0
60,0,426.0,C4,L,213.0
81,0,426.0,A5,R,213.0
79,63,426.1,G5,R,213.05
79,0,426.20000000000005,G5,R,213.10000000000002
77,61,426.3,F5,R,213.15
63,45,426.3333333333333,D#4,L,213.16666666666666
60,45,426.3333333333333,C4,L,213.16666666666666
54,0,426.3333333333333,F#3,L,213.16666666666666
75,74,426.4,D#5,R,213.2
77,0,426.40000000000003,F5,R,213.20000000000002
75,0,426.59999999999997,D#5,R,213.29999999999998
74,70,426.6,D5,R,213.3
55,56,427.0,G3,L,213.5
63,0,427.0,D#4,L,213.5
60,0,427.0,C4,L,213.5
74,0,427.0,D5,R,213.5
72,64,427.0,C5,R,213.5
74,66,427.25,D5,R,213.625
72,0,427.25,C5,R,213.625
60,45,427.375,C4,L,213.6875
55,0,427.375,G3,L,213.6875
74,0,427.5,D5,R,213.75
63,36,427.5,D#4,R,213.75
60,45,427.5,C4,L,213.75
60,0,427.5,C4,L,213.75
72,61,427.625,C5,R,213.8125
72,0,427.75,C5,R,213.875
71,59,427.75,B4,R,213.875
71,0,428.0,B4,R,214.0
63,0,428.0,D#4,R,214.0
60,0,428.0,C4,L,214.0
55,47,428.0,G3,R,214.0
72,61,428.125,C5,R,214.0625
72,0,428.25,C5,R,214.125
67,63,428.25,G4,R,214.125
60,41,428.25,C4,L,214.125
63,38,428.5,D#4,R,214.25
67,0,428.5,G4,R,214.25
60,0,428.5,C4,L,214.25
55,56,428.5,G3,L,214.25
55,0,428.5,G3,R,214.25
69,62,428.625,A4,R,214.3125
71,62,428.6875,B4,R,214.34375
63,0,428.6875,D#4,R,214.34375
72,69,428.75,C5,R,214.375
71,0,428.75,B4,R,214.375
55,0,429.0,G3,L,214.5
60,40,429.0,C4,L,214.5
63,32,429.0,D#4,L,214.5
74,71,429.0,D5,R,214.5
72,0,429.0,C5,R,214.5
69,0,429.0,A4,R,214.5
74,0,429.2,D5,R,214.6
75,63,429.3,D#5,R,214.65
55,56,429.4,G3,R,214.7
75,0,429.40000000000003,D#5,R,214.70000000000002
55,0,429.59999999999997,G3,R,214.79999999999998
55,56,429.6,G3,R,214.8
71,55,429.6,B4,R,214.8
72,65,429.8,C5,R,214.9
55,0,429.8,G3,R,214.9
71,0,429.8,B4,R,214.9
55,56,429.8,G3,R,214.9
55,0,430.0,G3,R,215.0
63,32,430.0,D#4,L,215.0
74,65,430.0,D5,R,215.0
72,0,430.0,C5,R,215.0
60,0,430.0,C4,L,215.0
63,0,430.0,D#4,L,215.0
60,46,430.0,C4,L,215.0
55,48,430.25,G3,R,215.125
55,48,430.375,G3,R,215.1875
55,0,430.375,G3,R,215.1875
75,77,430.375,D#5,R,215.1875
75,0,430.5,D#5,R,215.25
63,0,430.5,D#4,L,215.25
60,42,430.5,C4,L,215.25
55,0,430.5,G3,R,215.25
63,38,430.5,D#4,L,215.25
60,0,430.5,C4,L,215.25
77,69,430.5,F5,R,215.25
75,77,430.5,D#5,R,215.25
60,0,431.0,C4,L,215.5
63,0,431.0,D#4,L,215.5
55,53,431.0,G3,L,215.5
79,72,431.0,G5,R,215.5
77,0,431.0,F5,R,215.5
74,0,431.0,D5,R,215.5
75,0,431.0,D#5,R,215.5
81,73,431.25,A5,R,215.625
79,0,431.25,G5,R,215.625
60,45,431.25,C4,L,215.625
55,0,431.5,G3,L,215.75
63,39,431.5,D#4,R,215.75
81,0,431.5,A5,R,215.75
83,72,431.5,B5,L,215.75
60,0,431.75,C4,L,215.875
55,58,431.75,G3,L,215.875
63,0,431.75,D#4,R,215.875
84,74,431.75,C6,R,215.875
60,48,432.0,C4,L,216.0
84,0,432.0,C6,R,216.0
55,0,432.0,G3,L,216.0
84,74,432.0,C6,R,216.0
55,58,432.0,G3,L,216.0
83,0,432.0,B5,L,216.0
84,0,432.1,C6,R,216.05
79,66,432.1,G5,R,216.05
63,32,432.2,D#4,R,216.1
79,0,432.20000000000005,G5,R,216.10000000000002
81,63,432.3,A5,R,216.15
63,32,432.3,D#4,R,216.15
63,0,432.3,D#4,R,216.15
60,0,432.5,C4,L,216.25
55,56,432.5,G3,L,216.25
63,0,432.6,D#4,R,216.3
83,76,432.6,B5,R,216.3
81,0,432.6,A5,R,216.3
83,0,432.8,B5,R,216.4
84,70,432.8,C6,R,216.4
55,0,433.0,G3,L,216.5
84,0,433.0,C6,R,216.5
63,39,433.0,D#4,R,216.5
60,48,433.0,C4,L,216.5
55,0,433.0,G3,L,216.5
86,71,433.125,D6,L,216.5625
55,54,433.25,G3,L,216.625
63,0,433.25,D#4,R,216.625
87,71,433.25,D#6,R,216.625
86,0,433.25,D6,L,216.625
89,66,433.375,F6,R,216.6875
87,0,433.375,D#6,R,216.6875
89,66,433.5,F6,R,216.75
89,0,433.5,F6,R,216.75
60,0,433.5,C4,L,216.75
55,0,433.5,G3,L,216.75
63,40,433.5625,D#4,L,216.78125
60,54,433.5625,C4,L,216.78125
87,71,433.5833333333333,D#6,R,216.79166666666666
89,0,433.5833333333333,F6,R,216.79166666666666
87,0,433.66666666666663,D#6,R,216.83333333333331
86,72,433.6666666666667,D6,R,216.83333333333334
63,0,433.75,D#4,L,216.875
63,40,433.75,D#4,L,216.875
60,0,433.75,C4,L,216.875
87,73,433.8333333333333,D#6,R,216.91666666666666
86,0,433.83333333333337,D6,R,216.91666666666669
56,61,434.0,G#3,L,217.0
91,74,434.0,G6,R,217.0
87,0,434.0,D#6,R,217.0
63,0,434.0,D#4,L,217.0
91,0,434.4,G6,R,217.2
89,64,434.4,F6,R,217.2
62,45,434.5,D4,L,217.25
56,0,434.5,G#3,L,217.25
89,0,434.59999999999997,F6,R,217.29999999999998
65,42,434.6,F4,R,217.3
87,74,434.625,D#6,L,217.3125
87,74,434.75,D#6,L,217.375
56,52,434.75,G#3,L,217.375
87,0,434.75,D#6,L,217.375
65,0,434.8,F4,R,217.4
86,64,434.8,D6,R,217.4
86,0,435.0,D6,R,217.5
84,61,435.0,C6,R,217.5
87,0,435.0,D#6,L,217.5
56,52,435.0,G#3,L,217.5
56,0,435.0,G#3,L,217.5
62,0,435.0,D4,L,217.5
84,0,435.2,C6,R,217.6
83,63,435.2,B5,R,217.6
65,37,435.25,F4,L,217.625
62,46,435.25,D4,L,217.625
56,0,435.25,G#3,L,217.625
83,0,435.4,B5,R,217.7
80,71,435.4,G#5,R,217.7
62,0,435.5,D4,L,217.75
65,0,435.5,F4,L,217.75
80,0,435.59999999999997,G#5,R,217.79999999999998
56,59,435.6,G#3,R,217.8
79,72,435.625,G5,L,217.8125
77,65,435.75,F5,L,217.875
62,44,435.875,D4,L,217.9375
79,0,435.875,G5,L,217.9375
76,71,435.9,E5,R,217.95
56,0,435.90000000000003,G#3,R,217.95000000000002
76,0,436.0,E5,R,218.0
74,72,436.0,D5,R,218.0
77,0,436.0,F5,L,218.0
76,71,436.0,E5,R,218.0
62,0,436.0,D4,L,218.0
62,44,436.0,D4,L,218.0
65,47,436.0,F4,L,218.0
62,0,436.5,D4,L,218.25
57,49,436.5,A3,L,218.25
76,71,436.5,E5,R,218.25
76,0,436.5,E5,R,218.25
74,0,436.5,D5,R,218.25
65,0,436.5,F4,L,218.25
76,58,436.625,E5,R,218.3125
57,0,436.75,A3,L,218.375
62,41,436.75,D4,L,218.375
76,0,436.75,E5,R,218.375
65,30,436.75,F4,R,218.375
65,30,436.9375,F4,R,218.46875
65,0,436.9375,F4,R,218.46875
74,64,436.9375,D5,R,218.46875
62,0,437.0,D4,L,218.5
76,0,437.0,E5,R,218.5
62,41,437.0,D4,L,218.5
73,59,437.0,C#5,R,218.5
65,30,437.0,F4,R,218.5
74,0,437.0,D5,R,218.5
65,0,437.0,F4,R,218.5
57,48,437.25,A3,R,218.625
73,0,437.25,C#5,R,218.625
65,0,437.25,F4,R,218.625
74,65,437.5,D5,R,218.75
57,0,437.5,A3,R,218.75
62,49,437.5,D4,L,218.75
65,33,437.5,F4,L,218.75
62,0,437.5,D4,L,218.75
69,56,437.625,A4,R,218.8125
74,0,437.625,D5,R,218.8125
71,59,437.75,B4,R,218.875
73,69,437.875,C#5,R,218.9375
69,0,437.875,A4,R,218.9375
74,66,438.0,D5,R,219.0
71,0,438.0,B4,R,219.0
73,0,438.0,C#5,R,219.0
73,69,438.0,C#5,R,219.0
62,0,438.0,D4,L,219.0
57,54,438.0,A3,L,219.0
65,0,438.0,F4,L,219.0
73,0,438.25,C#5,R,219.125
65,36,438.25,F4,R,219.125
62,46,438.4,D4,L,219.2
57,0,438.4,A3,L,219.2
76,66,438.5,E5,R,219.25
65,0,438.5,F4,R,219.25
65,36,438.5,F4,R,219.25
77,70,438.75,F5,R,219.375
65,36,438.75,F4,R,219.375
76,0,438.75,E5,R,219.375
65,0,438.75,F4,R,219.375
62,0,438.79999999999995,D4,L,219.39999999999998
57,49,438.8,A3,L,219.4
74,0,439.0,D5,R,219.5
77,0,439.0,F5,R,219.5
65,0,439.0,F4,R,219.5
73,64,439.0833333333333,C#5,R,219.54166666666666
73,0,439.16666666666663,C#5,R,219.58333333333331
65,37,439.1666666666667,F4,R,219.58333333333334
62,47,439.2,D4,L,219.6
57,0,439.2,A3,L,219.6
65,37,439.3333333333333,F4,R,219.66666666666666
74,68,439.3333333333333,D5,R,219.66666666666666
65,0,439.33333333333337,F4,R,219.66666666666669
74,0,439.5,D5,R,219.75
76,64,439.5,E5,R,219.75
65,0,439.5,F4,R,219.75
62,0,439.59999999999997,D4,L,219.79999999999998
57,45,439.6,A3,L,219.8
77,61,439.875,F5,R,219.9375
62,41,440.0,D4,L,220.0
76,0,440.0,E5,R,220.0
65,31,440.0,F4,L,220.0
77,0,440.0,F5,R,220.0
77,61,440.0,F5,R,220.0
57,0,440.0,A3,L,220.0
79,69,440.0,G5,R,220.0
79,0,440.375,G5,R,220.1875
81,68,440.375,A5,R,220.1875
62,0,440.4,D4,L,220.2
65,0,440.4,F4,L,220.2
57,51,440.4,A3,L,220.2
77,0,440.5,F5,R,220.25
81,0,440.5,A5,R,220.25
77,60,440.625,F5,R,220.3125
65,34,440.75,F4,R,220.375
57,0,440.79999999999995,A3,L,220.39999999999998
62,39,440.8,D4,L,220.4
79,70,440.875,G5,R,220.4375
65,0,440.875,F4,R,220.4375
65,34,440.875,F4,R,220.4375
77,0,441.0,F5,R,220.5
79,0,441.0,G5,R,220.5
81,71,441.0,A5,R,220.5
79,70,441.0,G5,R,220.5
65,0,441.0,F4,R,220.5
57,44,441.2,A3,L,220.6
62,0,441.2,D4,L,220.6
83,71,441.375,B5,R,220.6875
79,70,441.375,G5,R,220.6875
81,0,441.375,A5,R,220.6875
79,0,441.375,G5,R,220.6875
79,0,441.5,G5,R,220.75
83,0,441.5,B5,R,220.75
83,71,441.5,B5,R,220.75
65,33,441.5,F4,R,220.75
57,0,441.59999999999997,A3,L,220.79999999999998
62,44,441.6,D4,L,220.8
83,0,441.75,B5,R,220.875
65,33,441.75,F4,R,220.875
65,0,441.75,F4,R,220.875
85,70,441.75,C#6,R,220.875
57,51,441.875,A3,R,220.9375
57,0,442.0,A3,R,221.0
57,51,442.0,A3,R,221.0
62,0,442.0,D4,L,221.0
85,0,442.0,C#6,R,221.0
65,0,442.0,F4,R,221.0
86,70,442.0,D6,R,221.0
86,0,442.125,D6,R,221.0625
85,73,442.125,C#6,R,221.0625
86,70,442.125,D6,R,221.0625
62,46,442.25,D4,L,221.125
85,73,442.25,C#6,R,221.125
65,41,442.25,F4,R,221.125
86,0,442.25,D6,R,221.125
85,0,442.25,C#6,R,221.125
57,0,442.5,A3,R,221.25
65,0,442.5,F4,R,221.25
85,0,442.5,C#6,R,221.25
88,67,442.5,E6,R,221.25
57,51,442.625,A3,R,221.3125
88,0,442.75,E6,R,221.375
86,74,442.75,D6,R,221.375
65,40,443.0,F4,L,221.5
62,0,443.0,D4,L,221.5
62,41,443.0,D4,L,221.5
57,0,443.0,A3,R,221.5
86,0,443.0,D6,R,221.5
89,74,443.0,F6,R,221.5
89,0,443.25,F6,R,221.625
88,69,443.25,E6,R,221.625
86,67,443.5,D6,R,221.75
62,0,443.5,D4,L,221.75
58,50,443.5,A#3,L,221.75
65,0,443.5,F4,L,221.75
88,0,443.5,E6,R,221.75
62,38,443.75,D4,L,221.875
85,68,443.75,C#6,R,221.875
58,0,443.75,A#3,L,221.875
65,40,443.875,F4,R,221.9375
86,0,443.875,D6,R,221.9375
65,40,444.0,F4,R,222.0
88,75,444.0,E6,R,222.0
85,0,444.0,C#6,R,222.0
65,0,444.0,F4,R,222.0
62,0,444.0,D4,L,222.0
62,38,444.0,D4,L,222.0
88,0,444.25,E6,R,222.125
65,0,444.25,F4,R,222.125
86,75,444.25,D6,R,222.125
58,42,444.25,A#3,L,222.125
62,0,444.5,D4,L,222.25
62,46,444.5,D4,L,222.25
89,77,444.5,F6,R,222.25
86,0,444.5,D6,R,222.25
65,40,444.6666666666667,F4,R,222.33333333333334
89,0,444.6666666666667,F6,R,222.33333333333334
62,0,444.75,D4,L,222.375
62,46,444.75,D4,L,222.375
88,73,444.75,E6,L,222.375
58,0,445.0,A#3,L,222.5
62,0,445.0,D4,L,222.5
88,0,445.0,E6,L,222.5
58,57,445.0,A#3,L,222.5
65,0,445.0,F4,R,222.5
86,75,445.0,D6,R,222.5
85,73,445.125,C#6,R,222.5625
65,40,445.25,F4,R,222.625
86,0,445.25,D6,R,222.625
85,0,445.5,C#6,R,222.75
88,79,445.5,E6,R,222.75
58,0,445.5,A#3,L,222.75
62,50,445.5,D4,L,222.75
86,70,445.75,D6,R,222.875
59,50,445.75,B3,L,222.875
88,0,445.75,E6,R,222.875
86,0,446.0,D6,R,223.0
90,70,446.0,F#6,R,223.0
65,0,446.0,F4,R,223.0
64,52,446.0,E4,L,223.0
62,43,446.0,D4,L,223.0
62,0,446.0,D4,L,223.0
59,50,446.0,B3,L,223.0
59,0,446.0,B3,L,223.0
88,66,446.1666666666667,E6,R,223.08333333333334
90,0,446.1666666666667,F#6,R,223.08333333333334
62,0,446.5,D4,L,223.25
88,0,446.5,E6,R,223.25
59,46,446.5,B3,L,223.25
64,0,446.5,E4,L,223.25
92,72,446.5833333333333,G#6,R,223.29166666666666
92,0,446.66666666666663,G#6,R,223.33333333333331
90,73,446.6666666666667,F#6,R,223.33333333333334
88,76,446.8333333333333,E6,R,223.41666666666666
90,0,446.83333333333337,F#6,R,223.41666666666669
64,49,447.0,E4,R,223.5
62,45,447.0,D4,L,223.5
88,0,447.0,E6,R,223.5
59,0,447.0,B3,L,223.5
59,0,447.0,B3,L,223.5
86,76,447.0625,D6,R,223.53125
59,62,447.25,B3,L,223.625
86,79,447.25,D6,R,223.625
86,0,447.25,D6,R,223.625
62,0,447.25,D4,L,223.625
85,75,447.5,C#6,R,223.75
86,0,447.5,D6,R,223.75
64,47,447.6666666666667,E4,R,223.83333333333334
85,0,447.6666666666667,C#6,R,223.83333333333334
62,41,447.75,D4,L,223.875
59,0,447.75,B3,L,223.875
88,77,447.8333333333333,E6,R,223.91666666666666
64,47,447.8333333333333,E4,R,223.91666666666666
64,0,447.83333333333337,E4,R,223.91666666666669
64,0,448.0,E4,R,224.0
64,0,448.0,E4,R,224.0
88,77,448.0,E6,R,224.0
86,82,448.0,D6,R,224.0
62,0,448.0,D4,L,224.0
88,0,448.0,E6,R,224.0
59,54,448.0,B3,L,224.0
88,0,448.25,E6,R,224.125
85,82,448.25,C#6,R,224.125
85,0,448.5,C#6,R,224.25
64,47,448.5,E4,L,224.25
85,82,448.5,C#6,R,224.25
62,39,448.5,D4,L,224.25
59,0,448.5,B3,L,224.25
83,77,448.5,B5,R,224.25
81,77,448.75,A5,R,224.375
83,0,448.75,B5,R,224.375
85,0,448.75,C#6,R,224.375
59,53,448.75,B3,L,224.375
59,0,449.0,B3,L,224.5
86,0,449.0,D6,R,224.5
59,53,449.0,B3,L,224.5
62,0,449.0,D4,L,224.5
64,0,449.0,E4,L,224.5
81,0,449.0,A5,R,224.5
81,77,449.0,A5,R,224.5
62,24,449.0,D4,L,224.5
81,0,449.0833333333333,A5,R,224.54166666666666
80,81,449.0833333333333,G#5,R,224.54166666666666
80,0,449.16666666666663,G#5,R,224.58333333333331
64,49,449.1666666666667,E4,R,224.58333333333334
85,77,449.25,C#6,L,224.625
59,0,449.25,B3,L,224.625
64,0,449.5,E4,R,224.75
83,77,449.5,B5,R,224.75
59,53,449.5,B3,L,224.75
62,0,449.5,D4,L,224.75
59,0,449.75,B3,L,224.875
83,0,449.75,B5,R,224.875
64,54,449.75,E4,L,224.875
81,74,449.75,A5,R,224.875
62,54,449.75,D4,L,224.875
81,0,450.0,A5,R,225.0
78,84,450.0,F#5,L,225.0
80,73,450.0,G#5,R,225.0
64,0,450.0,E4,L,225.0
62,0,450.0,D4,L,225.0
85,0,450.0,C#6,L,225.0
52,49,450.25,E3,R,225.125
78,0,450.5,F#5,L,225.25
76,78,450.5833333333333,E5,L,225.29166666666666
76,0,450.66666666666663,E5,L,225.33333333333331
59,55,450.6666666666667,B3,L,225.33333333333334
52,0,450.75,E3,R,225.375
62,50,450.75,D4,R,225.375
80,0,450.75,G#5,R,225.375
74,79,450.875,D5,R,225.4375
74,0,451.0,D5,R,225.5
73,83,451.0,C#5,R,225.5
62,0,451.0,D4,R,225.5
59,0,451.0,B3,L,225.5
52,57,451.0,E3,L,225.5
73,0,451.25,C#5,R,225.625
71,76,451.25,B4,R,225.625
59,52,451.5,B3,L,225.75
76,84,451.5,E5,R,225.75
62,50,451.5,D4,L,225.75
52,0,451.5,E3,L,225.75
71,0,451.75,B4,R,225.875
74,87,451.75,D5,R,225.875
59,0,451.75,B3,L,225.875
62,0,451.75,D4,L,225.875
52,55,451.75,E3,L,225.875
74,87,452.0,D5,R,226.0
73,87,452.0,C#5,R,226.0
76,0,452.0,E5,R,226.0
52,0,452.0,E3,L,226.0
59,63,452.0,B3,L,226.0
62,56,452.0,D4,R,226.0
74,0,452.0,D5,R,226.0
59,0,452.25,B3,L,226.125
71,75,452.25,B4,L,226.125
74,0,452.5,D5,R,226.25
69,77,452.5,A4,R,226.25
40,78,452.5,E2,L,226.25
73,0,452.5,C#5,R,226.25
71,0,452.5,B4,L,226.25
62,0,452.5,D4,R,226.25
69,0,452.75,A4,R,226.375
68,79,452.8125,G#4,R,226.40625
68,0,453.0,G#4,R,226.5
66,75,453.0,F#4,R,226.5
52,68,453.0,E3,L,226.5
40,0,453.0,E2,L,226.5
66,0,453.125,F#4,R,226.5625
64,67,453.1875,E4,R,226.59375
64,0,453.25,E4,R,226.625
64,67,453.25,E4,R,226.625
63,70,453.375,D#4,R,226.6875
64,0,453.375,E4,R,226.6875
64,75,453.5,E4,R,226.75
63,0,453.5,D#4,R,226.75
40,68,453.5,E2,L,226.75
52,0,453.5,E3,L,226.75
52,68,453.75,E3,R,226.875
64,0,453.75,E4,R,226.875
66,77,453.75,F#4,L,226.875
40,0,453.75,E2,L,226.875
68,70,453.875,G#4,L,226.9375
66,0,453.875,F#4,L,226.9375
69,77,454.0,A4,R,227.0
40,72,454.0,E2,L,227.0
68,0,454.0,G#4,L,227.0
52,0,454.0,E3,R,227.0
52,79,454.2,E3,L,227.1
40,0,454.2,E2,L,227.1
69,0,454.25,A4,R,227.125
71,67,454.25,B4,R,227.125
71,0,454.3125,B4,R,227.15625
73,77,454.3125,C#5,R,227.15625
74,81,454.5,D5,R,227.25
73,0,454.5,C#5,R,227.25
76,86,454.6,E5,R,227.3
74,0,454.6,D5,R,227.3
78,84,454.7,F#5,R,227.35
76,0,454.70000000000005,E5,R,227.35000000000002
80,72,454.8,G#5,R,227.4
45,100,454.8,A2,L,227.4
78,84,454.8,F#5,R,227.4
33,106,454.8,A1,L,227.4
81,99,454.8,A5,R,227.4
52,0,454.8,E3,L,227.4
78,0,454.8,F#5,R,227.4
81,99,454.9,A5,R,227.45
80,72,454.9,G#5,R,227.45
78,0,454.90000000000003,F#5,R,227.45000000000002
81,0,454.90000000000003,A5,R,227.45000000000002
80,0,454.90000000000003,G#5,R,227.45000000000002
80,0,455.0,G#5,R,227.5
81,100,455.0,A5,R,227.5
81,0,455.0,A5,R,227.5
45,0,455.6,A2,L,227.8
45,100,455.6,A2,L,227.8
33,0,455.6,A1,L,227.8
33,106,455.6,A1,L,227.8
45,0,455.8,A2,L,227.9
69,90,455.8,A4,L,227.9
73,80,455.8,C#5,L,227.9
76,84,455.8,E5,L,227.9
45,100,455.8,A2,L,227.9
33,0,455.8,A1,L,227.9
76,0,456.0,E5,L,228.0
69,0,456.0,A4,L,228.0
81,100,456.0,A5,R,228.0
76,84,456.0,E5,L,228.0
45,0,456.0,A2,L,228.0
73,80,456.0,C#5,L,228.0
73,0,456.0,C#5,L,228.0
69,90,456.0,A4,L,228.0
81,0,456.0,A5,R,228.0
76,0,457.0,E5,L,228.5
76,84,457.0,E5,L,228.5
69,90,457.0,A4,L,228.5
73,80,457.0,C#5,L,228.5
69,0,457.0,A4,L,228.5
37,87,457.0,C#2,L,228.5
73,0,457.0,C#5,L,228.5
49,87,457.25,C#3,R,228.625
37,0,458.0,C#2,L,229.0
81,0,458.0,A5,R,229.0
69,0,458.0,A4,L,229.0
73,0,458.0,C#5,L,229.0
49,0,458.0,C#3,R,229.0
76,0,458.0,E5,L,229.0
81,90,458.75,A5,R,229.375
40,82,458.75,E2,L,229.375
52,82,458.75,E3,L,229.375
69,82,458.75,A4,R,229.375
73,64,458.75,C#5,R,229.375
76,53,458.75,E5,R,229.375
52,0,459.0,E3,L,229.5
69,0,459.0,A4,R,229.5
73,0,459.0,C#5,R,229.5
40,0,459.0,E2,L,229.5
76,0,459.0,E5,R,229.5
81,0,459.0,A5,R,229.5
73,73,459.5,C#5,R,229.75
69,82,459.5,A4,R,229.75
49,73,459.5,C#3,L,229.75
81,87,459.5,A5,R,229.75
45,74,459.5,A2,L,229.75
52,75,459.5,E3,L,229.75
57,76,459.5,A3,L,229.75
76,70,459.5,E5,R,229.75
76,0,460.0,E5,R,230.0
49,73,460.0,C#3,L,230.0
45,74,460.0,A2,L,230.0
49,0,460.0,C#3,L,230.0
45,0,460.0,A2,L,230.0
52,0,460.0,E3,L,230.0
73,0,460.0,C#5,R,230.0
73,73,460.0,C#5,R,230.0
57,0,460.0,A3,L,230.0
76,70,460.0,E5,R,230.0
69,0,460.0,A4,R,230.0
81,0,460.0,A5,R,230.0
45,0,461.0,A2,L,230.5
73,0,461.0,C#5,R,230.5
49,0,461.0,C#3,L,230.5
76,0,461.0,E5,R,230.5
76,52,461.125,E5,R,230.5625
81,85,461.125,A5,R,230.5625
40,69,461.125,E2,L,230.5625
37,72,461.125,C#2,L,230.5625
69,71,461.125,A4,R,230.5625
45,68,461.125,A2,L,230.5625
73,55,461.125,C#5,R,230.5625
33,73,461.125,A1,L,230.5625
81,0,461.5,A5,R,230.75
76,0,461.5,E5,R,230.75
69,0,461.5,A4,R,230.75
33,0,461.5,A1,L,230.75
73,0,461.5,C#5,R,230.75
37,0,461.5,C#2,L,230.75
40,0,461.5,E2,L,230.75
45,0,461.5,A2,L,230.75
40,70,462.0,E2,L,231.0
44,68,462.0,G#2,L,231.0
83,87,462.0,B5,R,231.0
47,67,462.0,B2,L,231.0
52,73,462.0,E3,L,231.0
80,75,462.0,G#5,R,231.0
74,65,462.0,D5,R,231.0
71,71,462.0,B4,R,231.0
76,49,462.25,E5,R,231.125
83,0,463.0,B5,R,231.5
80,0,463.0,G#5,R,231.5
71,0,463.0,B4,R,231.5
76,0,463.0,E5,R,231.5
74,0,463.0,D5,R,231.5
47,0,463.0,B2,L,231.5
40,0,463.0,E2,L,231.5
44,0,463.0,G#2,L,231.5
52,0,463.0,E3,L,231.5
80,62,463.5,G#5,R,231.75
83,84,463.5,B5,R,231.75
74,60,463.5,D5,R,231.75
52,66,463.5,E3,L,231.75
44,73,463.5,G#2,L,231.75
71,67,463.5,B4,R,231.75
47,72,463.5,B2,L,231.75
40,70,463.5,E2,L,231.75
83,0,463.625,B5,R,231.8125
74,0,463.625,D5,R,231.8125
71,0,463.625,B4,R,231.8125
76,36,463.625,E5,R,231.8125
80,0,464.0,G#5,R,232.0
52,0,464.0,E3,L,232.0
33,82,464.0,A1,L,232.0
40,0,464.0,E2,L,232.0
44,0,464.0,G#2,L,232.0
76,0,464.0,E5,R,232.0
45,74,464.0,A2,L,232.0
47,0,464.0,B2,L,232.0
76,46,464.375,E5,R,232.1875
73,73,464.375,C#5,R,232.1875
81,87,464.375,A5,R,232.1875
69,80,464.375,A4,R,232.1875
69,0,464.5,A4,R,232.25
76,0,464.5,E5,R,232.25
73,0,464.5,C#5,R,232.25
81,0,464.5,A5,R,232.25
81,87,464.5,A5,R,232.25
81,0,465.0,A5,R,232.5
81,78,466.0,A5,L,233.0
85,91,466.0,C#6,R,233.0
45,0,466.0,A2,L,233.0
76,74,466.0,E5,L,233.0
33,0,466.0,A1,L,233.0
73,88,466.0,C#5,L,233.0
49,72,466.75,C#3,R,233.375
37,73,467.0,C#2,L,233.5
49,72,467.0,C#3,R,233.5
49,0,467.0,C#3,R,233.5
76,0,468.0,E5,L,234.0
85,0,468.0,C#6,R,234.0
49,0,468.0,C#3,R,234.0
73,0,468.0,C#5,L,234.0
81,0,468.0,A5,L,234.0
37,0,468.0,C#2,L,234.0
81,70,468.25,A5,R,234.125
76,57,468.25,E5,R,234.125
73,74,468.25,C#5,R,234.125
52,74,468.25,E3,L,234.125
85,81,468.25,C#6,R,234.125
79,62,468.25,G5,R,234.125
40,73,468.25,E2,L,234.125
79,0,469.0,G5,R,234.5
81,68,469.0,A5,R,234.5
79,57,469.0,G5,R,234.5
76,64,469.0,E5,R,234.5
73,76,469.0,C#5,R,234.5
85,0,469.0,C#6,R,234.5
81,0,469.0,A5,R,234.5
76,0,469.0,E5,R,234.5
85,83,469.0,C#6,R,234.5
40,0,469.0,E2,L,234.5
73,0,469.0,C#5,R,234.5
49,64,469.0,C#3,L,234.5
57,66,469.0,A3,L,234.5
52,0,469.0,E3,L,234.5
52,63,469.0,E3,L,234.5
45,65,469.0,A2,L,234.5
85,0,470.0,C#6,R,235.0
52,0,470.0,E3,L,235.0
79,0,470.0,G5,R,235.0
57,0,470.0,A3,L,235.0
81,0,470.0,A5,R,235.0
76,0,470.0,E5,R,235.0
49,0,470.0,C#3,L,235.0
45,0,470.0,A2,L,235.0
73,0,470.0,C#5,R,235.0
79,44,470.625,G5,R,235.3125
45,64,470.625,A2,L,235.3125
81,59,470.625,A5,R,235.3125
73,66,470.625,C#5,R,235.3125
37,59,470.625,C#2,L,235.3125
33,69,470.625,A1,L,235.3125
85,74,470.625,C#6,R,235.3125
76,46,470.625,E5,R,235.3125
40,59,470.625,E2,L,235.3125
76,0,471.0,E5,R,235.5
45,0,471.0,A2,L,235.5
81,0,471.0,A5,R,235.5
79,0,471.0,G5,R,235.5
33,0,471.0,A1,L,235.5
73,0,471.0,C#5,R,235.5
37,0,471.0,C#2,L,235.5
85,0,471.0,C#6,R,235.5
40,0,471.0,E2,L,235.5
79,50,471.5,G5,R,235.75
33,53,471.5,A1,L,235.75
73,54,471.5,C#5,R,235.75
37,59,471.5,C#2,L,235.75
76,52,471.5,E5,R,235.75
40,47,471.5,E2,L,235.75
85,71,471.5,C#6,R,235.75
45,53,471.5,A2,L,235.75
81,66,471.5,A5,R,235.75
45,0,472.0,A2,L,236.0
33,0,472.0,A1,L,236.0
76,0,472.0,E5,R,236.0
37,0,472.0,C#2,L,236.0
40,0,472.0,E2,L,236.0
73,0,472.0,C#5,R,236.0
85,0,472.0,C#6,R,236.0
81,0,472.0,A5,R,236.0
79,0,472.0,G5,R,236.0
85,72,472.84375,C#6,R,236.421875
76,47,472.84375,E5,R,236.421875
73,63,472.84375,C#5,R,236.421875
45,59,472.875,A2,L,236.4375
85,72,472.875,C#6,R,236.4375
76,47,472.875,E5,R,236.4375
40,53,472.875,E2,L,236.4375
73,63,472.875,C#5,R,236.4375
85,0,472.875,C#6,R,236.4375
76,0,472.875,E5,R,236.4375
73,0,472.875,C#5,R,236.4375
33,58,472.875,A1,L,236.4375
37,59,472.875,C#2,L,236.4375
40,0,473.0,E2,L,236.5
37,0,473.0,C#2,L,236.5
45,0,473.0,A2,L,236.5
33,0,473.0,A1,L,236.5
73,0,473.0,C#5,R,236.5
76,0,473.0,E5,R,236.5
85,0,473.0,C#6,R,236.5
74,62,473.625,D5,R,236.8125
86,75,473.625,D6,R,236.8125
78,52,473.625,F#5,R,236.8125
78,0,474.0,F#5,R,237.0
86,0,474.0,D6,R,237.0
74,0,474.0,D5,R,237.0
50,54,474.0,D3,L,237.0
38,53,474.0,D2,L,237.0
73,63,474.125,C#5,R,237.0625
73,0,474.25,C#5,R,237.125
71,61,474.25,B4,R,237.125
71,0,474.5,B4,R,237.25
69,71,474.5,A4,R,237.25
71,63,475.0,B4,R,237.5
38,0,475.0,D2,L,237.5
50,0,475.0,D3,L,237.5
69,0,475.0,A4,R,237.5
73,72,475.25,C#5,R,237.625
71,0,475.25,B4,R,237.625
73,0,475.5,C#5,R,237.75
74,69,475.5,D5,R,237.75
74,0,476.0,D5,R,238.0
76,61,476.0,E5,R,238.0
42,52,476.0,F#2,L,238.0
54,46,476.0,F#3,L,238.0
78,74,476.5,F#5,R,238.25
76,0,476.5,E5,R,238.25
79,76,476.75,G5,R,238.375
42,0,477.0,F#2,L,238.5
79,76,477.0,G5,R,238.5
79,0,477.0,G5,R,238.5
54,0,477.0,F#3,L,238.5
78,0,477.0,F#5,R,238.5
81,82,477.0,A5,R,238.5
83,83,477.5,B5,R,238.75
81,0,477.5,A5,R,238.75
45,58,477.5,A2,L,238.75
57,49,477.5,A3,L,238.75
85,86,477.75,C#6,R,238.875
83,0,477.75,B5,R,238.875
79,0,478.0,G5,R,239.0
85,86,478.0,C#6,R,239.0
57,0,478.0,A3,L,239.0
45,0,478.0,A2,L,239.0
85,0,478.0,C#6,R,239.0
50,48,478.25,D3,L,239.125
86,70,478.25,D6,R,239.125
62,39,478.25,D4,L,239.125
85,67,478.5,C#6,R,239.25
85,0,478.5,C#6,R,239.25
62,0,479.0,D4,L,239.5
50,0,479.0,D3,L,239.5
83,73,479.0,B5,R,239.5
86,0,479.0,D6,R,239.5
85,0,479.0,C#6,R,239.5
81,79,479.3333333333333,A5,R,239.66666666666666
83,0,479.3333333333333,B5,R,239.66666666666666
81,0,479.66666666666663,A5,R,239.83333333333331
79,75,479.6666666666667,G5,R,239.83333333333334
38,56,479.6875,D2,L,239.84375
50,54,479.6875,D3,L,239.84375
38,0,479.75,D2,L,239.875
50,0,479.75,D3,L,239.875
38,56,479.75,D2,L,239.875
50,54,479.75,D3,L,239.875
79,0,480.0,G5,R,240.0
78,80,480.0,F#5,R,240.0
50,0,480.0,D3,L,240.0
38,0,480.0,D2,L,240.0
81,68,480.5,A5,R,240.25
45,43,480.5,A2,L,240.25
78,0,480.75,F#5,R,240.375
57,48,480.75,A3,R,240.375
79,67,481.0,G5,R,240.5
81,0,481.0,A5,R,240.5
45,0,481.0,A2,L,240.5
57,0,481.0,A3,R,240.5
78,81,481.25,F#5,R,240.625
78,0,481.5,F#5,R,240.75
78,81,481.5,F#5,R,240.75
76,77,481.5,E5,R,240.75
78,0,482.0,F#5,R,241.0
79,0,482.0,G5,R,241.0
76,0,482.0,E5,R,241.0
33,64,482.0,A1,L,241.0
45,56,482.0,A2,L,241.0
74,78,482.0,D5,R,241.0
74,0,482.25,D5,R,241.125
73,68,482.25,C#5,R,241.125
33,0,482.3333333333333,A1,L,241.16666666666666
45,0,482.3333333333333,A2,L,241.16666666666666
50,53,482.6666666666667,D3,L,241.33333333333334
38,48,482.6666666666667,D2,L,241.33333333333334
74,66,482.75,D5,R,241.375
73,0,482.75,C#5,R,241.375
50,0,483.0,D3,L,241.5
74,66,483.0,D5,R,241.5
74,0,483.0,D5,R,241.5
50,53,483.0,D3,L,241.5
38,0,483.0,D2,L,241.5
38,48,483.0,D2,L,241.5
74,0,483.25,D5,R,241.625
73,59,483.2916666666667,C#5,R,241.64583333333334
71,60,483.3333333333333,B4,R,241.66666666666666
73,0,483.33333333333337,C#5,R,241.66666666666669
69,68,483.5,A4,R,241.75
71,0,483.5,B4,R,241.75
71,57,483.875,B4,R,241.9375
69,0,483.875,A4,R,241.9375
50,53,484.0,D3,L,242.0
38,48,484.0,D2,L,242.0
50,0,484.0,D3,L,242.0
38,0,484.0,D2,L,242.0
71,0,484.0,B4,R,242.0
73,72,484.0,C#5,R,242.0
73,0,484.1666666666667,C#5,R,242.08333333333334
74,76,484.1666666666667,D5,R,242.08333333333334
74,0,484.6666666666667,D5,R,242.33333333333334
76,67,484.6666666666667,E5,R,242.33333333333334
76,0,485.0,E5,R,242.5
78,67,485.0,F#5,R,242.5
50,0,485.0,D3,L,242.5
38,0,485.0,D2,L,242.5
42,55,485.0,F#2,L,242.5
54,51,485.0,F#3,L,242.5
79,72,485.5,G5,R,242.75
81,78,485.75,A5,R,242.875
78,0,485.75,F#5,R,242.875
54,0,486.0,F#3,L,243.0
81,78,486.0,A5,R,243.0
83,81,486.0,B5,R,243.0
42,0,486.0,F#2,L,243.0
81,0,486.0,A5,R,243.0
79,0,486.0,G5,R,243.0
57,50,486.5,A3,L,243.25
45,56,486.5,A2,L,243.25
81,0,486.5,A5,R,243.25
83,0,486.5,B5,R,243.25
84,79,486.5,C6,R,243.25
45,0,487.0,A2,L,243.5
57,0,487.0,A3,L,243.5
84,0,487.0,C6,R,243.5
86,75,487.1666666666667,D6,R,243.58333333333334
50,47,487.25,D3,L,243.625
62,47,487.25,D4,L,243.625
84,68,487.3333333333333,C6,R,243.66666666666666
86,0,487.33333333333337,D6,R,243.66666666666669
84,0,487.66666666666663,C6,R,243.83333333333331
83,68,487.6666666666667,B5,R,243.83333333333334
50,0,488.0,D3,L,244.0
83,0,488.0,B5,R,244.0
62,0,488.0,D4,L,244.0
81,73,488.0,A5,R,244.0
81,0,488.4,A5,R,244.2
79,70,488.4,G5,R,244.2
38,51,488.75,D2,L,244.375
50,46,488.75,D3,L,244.375
79,0,488.79999999999995,G5,R,244.39999999999998
78,70,488.8,F#5,R,244.4
50,0,489.0,D3,L,244.5
38,0,489.0,D2,L,244.5
78,0,489.2,F#5,R,244.6
76,64,489.2,E5,R,244.6
38,47,489.5,D2,L,244.75
50,46,489.5,D3,L,244.75
76,0,489.59999999999997,E5,R,244.79999999999998
74,65,489.6,D5,R,244.8
38,0,490.0,D2,L,245.0
50,0,490.0,D3,L,245.0
38,47,490.0,D2,L,245.0
50,46,490.0,D3,L,245.0
74,0,490.0,D5,R,245.0
76,59,490.0,E5,R,245.0
76,0,490.3333333333333,E5,R,245.16666666666666
74,66,490.3333333333333,D5,R,245.16666666666666
74,0,490.66666666666663,D5,R,245.33333333333331
72,60,490.6666666666667,C5,R,245.33333333333334
72,0,491.0,C5,R,245.5
71,60,491.0,B4,R,245.5
50,0,491.0,D3,L,245.5
38,0,491.0,D2,L,245.5
38,48,491.0625,D2,L,245.53125
50,55,491.0625,D3,L,245.53125
38,48,491.25,D2,L,245.625
38,0,491.25,D2,L,245.625
50,55,491.25,D3,L,245.625
50,0,491.25,D3,L,245.625
71,0,491.5,B4,R,245.75
69,57,491.5,A4,R,245.75
50,0,492.0,D3,L,246.0
38,0,492.0,D2,L,246.0
69,0,492.0,A4,R,246.0
67,56,492.0,G4,R,246.0
31,45,492.0,G1,L,246.0
43,33,492.25,G2,R,246.125
67,0,492.5,G4,R,246.25
69,56,492.5,A4,R,246.25
69,0,492.75,A4,R,246.375
71,52,492.75,B4,R,246.375
71,0,493.0,B4,R,246.5
72,50,493.0,C5,R,246.5
31,0,493.0,G1,L,246.5
43,0,493.0,G2,R,246.5
72,0,493.5,C5,R,246.75
74,61,493.5,D5,R,246.75
74,0,494.0,D5,R,247.0
76,55,494.0,E5,R,247.0
76,0,494.25,E5,R,247.125
74,62,494.25,D5,R,247.125
74,0,494.5,D5,R,247.25
76,56,494.5,E5,R,247.25
50,50,495.0,D3,L,247.5
38,49,495.0,D2,L,247.5
76,0,495.0,E5,R,247.5
74,61,495.0,D5,R,247.5
74,0,495.5,D5,R,247.75
72,57,495.5,C5,R,247.75
71,52,495.75,B4,R,247.875
72,0,495.75,C5,R,247.875
38,0,496.0,D2,L,248.0
71,0,496.0,B4,R,248.0
50,0,496.0,D3,L,248.0
69,54,496.0,A4,R,248.0
38,59,496.25,D2,L,248.125
50,54,496.25,D3,R,248.125
38,0,496.5,D2,L,248.25
31,66,496.5,G1,L,248.25
43,47,496.5,G2,L,248.25
50,0,496.5,D3,R,248.25
67,62,496.5,G4,R,248.25
67,0,496.75,G4,R,248.375
69,55,496.875,A4,R,248.4375
69,0,497.0,A4,R,248.5
69,0,497.0,A4,R,248.5
31,0,497.0,G1,L,248.5
43,0,497.0,G2,L,248.5
69,55,497.0,A4,R,248.5
31,56,497.25,G1,L,248.625
43,32,497.25,G2,L,248.625
71,56,497.25,B4,R,248.625
69,0,497.25,A4,R,248.625
71,0,497.75,B4,R,248.875
72,53,497.75,C5,R,248.875
72,0,498.0,C5,R,249.0
74,66,498.0,D5,R,249.0
43,0,498.0,G2,L,249.0
31,0,498.0,G1,L,249.0
76,57,498.5,E5,R,249.25
74,0,498.5,D5,R,249.25
76,0,499.0,E5,R,249.5
74,65,499.0,D5,R,249.5
76,57,499.25,E5,R,249.625
74,0,499.25,D5,R,249.625
74,58,499.5,D5,R,249.75
76,0,499.5,E5,R,249.75
38,50,499.5,D2,L,249.75
50,50,499.5,D3,L,249.75
74,0,500.0,D5,R,250.0
72,56,500.0,C5,R,250.0
50,50,500.0,D3,L,250.0
50,0,500.0,D3,L,250.0
38,0,500.0,D2,L,250.0
38,50,500.0,D2,L,250.0
71,55,500.5,B4,R,250.25
72,0,500.5,C5,R,250.25
38,0,500.5,D2,L,250.25
50,0,500.5,D3,L,250.25
69,57,500.75,A4,R,250.375
71,0,500.875,B4,R,250.4375
38,60,500.875,D2,L,250.4375
50,49,500.875,D3,R,250.4375
50,0,501.0,D3,R,250.5
67,62,501.0,G4,R,250.5
69,0,501.0,A4,R,250.5
31,78,501.0,G1,L,250.5
38,0,501.0,D2,L,250.5
69,55,501.5,A4,R,250.75
67,0,501.5,G4,R,250.75
31,0,501.75,G1,L,250.875
55,38,501.875,G3,L,250.9375
43,61,501.875,G2,L,250.9375
55,0,502.0,G3,L,251.0
43,0,502.0,G2,L,251.0
69,0,502.0,A4,R,251.0
71,60,502.0,B4,R,251.0
72,60,502.25,C5,R,251.125
71,0,502.25,B4,R,251.125
72,0,502.5,C5,R,251.25
72,60,502.5,C5,R,251.25
72,0,502.625,C5,R,251.3125
74,67,502.625,D5,R,251.3125
74,0,503.0,D5,R,251.5
76,65,503.0,E5,R,251.5
43,61,503.125,G2,L,251.5625
55,59,503.125,G3,R,251.5625
38,64,503.375,D2,L,251.6875
50,57,503.375,D3,L,251.6875
43,0,503.375,G2,L,251.6875
38,0,503.5,D2,L,251.75
74,60,503.5,D5,R,251.75
50,0,503.5,D3,L,251.75
55,0,503.5,G3,R,251.75
76,64,503.75,E5,R,251.875
76,0,503.75,E5,R,251.875
76,64,504.0,E5,R,252.0
76,0,504.0,E5,R,252.0
78,66,504.0,F#5,R,252.0
74,0,504.0,D5,R,252.0
50,40,504.0,D3,L,252.0
38,43,504.0,D2,L,252.0
78,0,504.5,F#5,R,252.25
79,55,504.5,G5,R,252.25
79,0,505.0,G5,R,252.5
76,0,505.0,E5,R,252.5
38,0,505.0,D2,L,252.5
81,60,505.0,A5,R,252.5
50,0,505.0,D3,L,252.5
83,66,505.25,B5,R,252.625
81,0,505.25,A5,R,252.625
38,57,505.4375,D2,L,252.71875
50,63,505.4375,D3,R,252.71875
38,0,505.5,D2,L,252.75
38,57,505.5,D2,L,252.75
50,0,505.5,D3,R,252.75
55,76,505.6875,G3,L,252.84375
43,68,505.6875,G2,L,252.84375
38,0,505.6875,D2,L,252.84375
79,65,505.75,G5,R,252.875
55,0,505.75,G3,L,252.875
43,0,505.75,G2,L,252.875
79,0,506.0,G5,R,253.0
81,61,506.0,A5,R,253.0
83,0,506.0,B5,R,253.0
81,0,506.5,A5,R,253.25
83,54,506.5,B5,R,253.25
43,48,506.5,G2,L,253.25
55,50,506.5,G3,L,253.25
83,0,506.8333333333333,B5,R,253.41666666666666
84,61,506.8333333333333,C6,R,253.41666666666666
43,0,507.0,G2,L,253.5
84,0,507.0,C6,R,253.5
55,0,507.0,G3,L,253.5
84,61,507.0,C6,R,253.5
84,0,507.25,C6,R,253.625
86,61,507.25,D6,R,253.625
88,67,507.5,E6,R,253.75
86,0,507.75,D6,R,253.875
43,52,507.75,G2,L,253.875
55,43,507.75,G3,R,253.875
43,0,507.9375,G2,L,253.96875
45,70,507.9375,A2,L,253.96875
57,68,507.9375,A3,L,253.96875
88,0,508.0,E6,R,254.0
55,0,508.0,G3,R,254.0
85,74,508.0,C#6,R,254.0
45,0,508.0,A2,L,254.0
57,0,508.0,A3,L,254.0
45,70,508.0,A2,L,254.0
57,68,508.0,A3,L,254.0
86,66,508.25,D6,R,254.125
85,0,508.25,C#6,R,254.125
88,67,508.75,E6,R,254.375
86,0,508.75,D6,R,254.375
45,0,508.75,A2,L,254.375
57,0,508.75,A3,L,254.375
45,62,508.75,A2,L,254.375
57,35,508.78125,A3,R,254.390625
57,0,508.875,A3,R,254.4375
90,70,509.0,F#6,R,254.5
45,0,509.0,A2,L,254.5
88,0,509.0,E6,R,254.5
91,68,509.5,G6,R,254.75
90,0,509.5,F#6,R,254.75
85,70,509.75,C#6,R,254.875
91,0,509.75,G6,R,254.875
57,50,509.875,A3,R,254.9375
85,70,509.875,C#6,R,254.9375
85,0,509.875,C#6,R,254.9375
45,60,509.875,A2,L,254.9375
85,0,510.0,C#6,R,255.0
45,0,510.0,A2,L,255.0
57,0,510.0,A3,R,255.0
86,70,510.0,D6,L,255.0
85,70,510.0,C#6,R,255.0
38,64,510.3333333333333,D2,R,255.16666666666666
85,0,510.3333333333333,C#6,R,255.16666666666666
38,0,510.66666666666663,D2,R,255.33333333333331
40,58,510.6666666666667,E2,R,255.33333333333334
40,0,511.0,E2,R,255.5
86,0,511.0,D6,L,255.5
42,64,511.0,F#2,R,255.5
43,63,511.3333333333333,G2,R,255.66666666666666
42,0,511.3333333333333,F#2,R,255.66666666666666
43,0,511.66666666666663,G2,R,255.83333333333331
45,64,511.6666666666667,A2,R,255.83333333333334
45,64,512.0,A2,R,256.0
45,0,512.0,A2,R,256.0
45,0,512.2,A2,R,256.1
47,63,512.2,B2,R,256.1
47,0,512.6,B2,R,256.3
45,64,512.6,A2,R,256.3
47,60,512.8,B2,R,256.4
45,0,512.8000000000001,A2,R,256.40000000000003
47,0,513.1999999999999,B2,R,256.59999999999997
73,71,513.2,C#5,R,256.6
73,71,513.4,C#5,R,256.7
45,56,513.4,A2,R,256.7
73,0,513.4000000000001,C#5,R,256.70000000000005
43,57,513.5,G2,L,256.75
73,71,513.6,C#5,R,256.8
73,0,513.6,C#5,R,256.8
45,0,513.6,A2,R,256.8
43,0,514.0,G2,L,257.0
42,69,514.0,F#2,L,257.0
73,0,514.0,C#5,R,257.0
42,0,514.4,F#2,L,257.2
40,54,514.4,E2,L,257.2
40,0,514.6,E2,L,257.3
73,69,514.6,C#5,L,257.3
38,62,514.7,D2,L,257.35
73,0,514.7,C#5,L,257.35
40,62,515.0,E2,L,257.5
38,0,515.0,D2,L,257.5
76,75,515.0,E5,R,257.5
40,0,515.5,E2,L,257.75
42,62,515.5,F#2,L,257.75
74,75,515.5,D5,R,257.75
76,0,515.75,E5,R,257.875
43,60,515.75,G2,R,257.875
42,0,516.0,F#2,L,258.0
45,65,516.0,A2,R,258.0
43,60,516.0,G2,R,258.0
43,0,516.0,G2,R,258.0
74,0,516.0,D5,R,258.0
47,65,516.5,B2,R,258.25
45,0,516.5,A2,R,258.25
43,0,516.5,G2,R,258.25
47,0,517.0,B2,R,258.5
45,66,517.0,A2,R,258.5
47,64,517.25,B2,R,258.625
45,0,517.5,A2,R,258.75
45,59,517.5,A2,L,258.75
76,66,517.5,E5,R,258.75
45,0,518.0,A2,L,259.0
43,56,518.0,G2,R,259.0
76,0,518.0,E5,R,259.0
76,66,518.0,E5,R,259.0
47,0,518.0,B2,R,259.0
42,69,518.5,F#2,R,259.25
76,0,518.5,E5,R,259.25
43,0,518.5,G2,R,259.25
40,64,518.75,E2,R,259.375
42,0,518.75,F#2,R,259.375
76,59,518.875,E5,R,259.4375
76,59,519.0,E5,R,259.5
40,0,519.0,E2,R,259.5
40,64,519.0,E2,R,259.5
38,70,519.0,D2,L,259.5
79,76,519.0,G5,R,259.5
76,0,519.0,E5,R,259.5
40,61,519.5,E2,L,259.75
38,0,519.5,D2,L,259.75
40,0,520.0,E2,R,260.0
79,0,520.0,G5,R,260.0
76,0,520.0,E5,R,260.0
40,0,520.0,E2,L,260.0
78,78,520.0,F#5,L,260.0
42,71,520.25,F#2,L,260.125
78,0,520.25,F#5,L,260.125
43,68,520.5,G2,L,260.25
42,0,520.5,F#2,L,260.25
43,0,520.75,G2,L,260.375
45,73,520.75,A2,L,260.375
81,88,521.0,A5,R,260.5
45,0,521.0,A2,L,260.5
47,71,521.0,B2,L,260.5
69,72,521.1666666666666,A4,L,260.5833333333333
69,0,521.3333333333333,A4,L,260.66666666666663
45,65,521.3333333333334,A2,L,260.6666666666667
45,65,521.5,A2,L,260.75
45,0,521.5,A2,L,260.75
47,66,521.75,B2,R,260.875
49,69,522.0,C#3,L,261.0
45,0,522.0,A2,L,261.0
47,66,522.0,B2,R,261.0
47,0,522.0,B2,L,261.0
47,0,522.0,B2,R,261.0
79,80,522.0,G5,R,261.0
50,73,522.5,D3,R,261.25
47,0,522.5,B2,R,261.25
79,0,522.5,G5,R,261.25
50,0,523.0,D3,R,261.5
52,66,523.0,E3,R,261.5
81,0,523.0,A5,R,261.5
49,0,523.0,C#3,L,261.5
54,75,523.25,F#3,R,261.625
69,74,523.375,A4,R,261.6875
52,0,523.375,E3,R,261.6875
79,86,523.5,G5,R,261.75
69,0,523.5,A4,R,261.75
50,78,523.5,D3,L,261.75
79,0,524.0,G5,R,262.0
54,0,524.0,F#3,R,262.0
52,73,524.0,E3,R,262.0
79,86,524.0,G5,R,262.0
50,0,524.0,D3,L,262.0
79,86,524.25,G5,R,262.125
54,67,524.25,F#3,L,262.125
78,81,524.25,F#5,R,262.125
79,0,524.25,G5,R,262.125
52,0,524.25,E3,R,262.125
43,67,524.75,G2,L,262.375
45,80,525.0,A2,L,262.5
79,0,525.0,G5,R,262.5
54,0,525.0,F#3,L,262.5
43,67,525.0,G2,L,262.5
78,0,525.0,F#5,R,262.5
43,0,525.0,G2,L,262.5
47,71,525.5,B2,L,262.75
45,0,525.5,A2,L,262.75
43,0,525.5,G2,L,262.75
69,72,525.625,A4,L,262.8125
45,70,525.75,A2,L,262.875
69,0,525.75,A4,L,262.875
47,0,526.0,B2,L,263.0
45,70,526.0,A2,L,263.0
45,0,526.0,A2,L,263.0
78,89,526.0,F#5,R,263.0
44,72,526.25,G#2,R,263.125
43,68,526.5,G2,L,263.25
76,76,526.5,E5,R,263.25
44,0,526.5,G#2,R,263.25
45,0,526.5,A2,L,263.25
76,0,526.75,E5,R,263.375
40,69,526.875,E2,R,263.4375
78,0,527.0,F#5,R,263.5
40,0,527.0,E2,R,263.5
40,69,527.0,E2,R,263.5
43,0,527.0,G2,L,263.5
37,72,527.25,C#2,R,263.625
40,0,527.25,E2,R,263.625
33,73,527.5,A1,R,263.75
37,0,527.75,C#2,R,263.875
76,68,527.75,E5,R,263.875
76,0,528.0,E5,R,264.0
38,67,528.0,D2,L,264.0
74,71,528.0,D5,R,264.0
33,0,528.0,A1,R,264.0
76,67,528.25,E5,R,264.125
74,0,528.25,D5,R,264.125
40,67,528.25,E2,L,264.125
38,0,528.25,D2,L,264.125
76,0,528.75,E5,R,264.375
78,74,528.75,F#5,R,264.375
42,72,528.75,F#2,L,264.375
42,0,529.0,F#2,L,264.5
43,73,529.0,G2,L,264.5
78,0,529.0,F#5,R,264.5
42,72,529.0,F#2,L,264.5
79,75,529.0,G5,R,264.5
40,0,529.0,E2,L,264.5
43,0,529.5,G2,L,264.75
45,76,529.5,A2,L,264.75
79,0,529.5,G5,R,264.75
81,79,529.5,A5,R,264.75
83,78,529.75,B5,R,264.875
47,77,529.75,B2,L,264.875
42,0,529.75,F#2,L,264.875
47,77,530.0,B2,L,265.0
47,0,530.0,B2,L,265.0
81,75,530.0,A5,R,265.0
45,72,530.0,A2,L,265.0
45,0,530.0,A2,L,265.0
83,78,530.0,B5,R,265.0
83,0,530.0,B5,R,265.0
81,0,530.0,A5,R,265.0
81,0,530.5,A5,R,265.25
83,75,530.5,B5,R,265.25
47,76,530.5,B2,L,265.25
45,0,530.5,A2,L,265.25
83,0,531.0,B5,R,265.5
47,0,531.0,B2,L,265.5
49,77,531.0,C#3,L,265.5
83,0,531.0,B5,R,265.5
85,81,531.0,C#6,R,265.5
47,0,531.0,B2,L,265.5
86,85,531.25,D6,R,265.625
50,79,531.25,D3,L,265.625
49,0,531.25,C#3,L,265.625
52,79,531.5,E3,L,265.75
50,0,531.5,D3,L,265.75
85,0,531.5,C#6,R,265.75
88,84,531.5,E6,R,265.75
88,0,532.0,E6,R,266.0
86,0,532.0,D6,R,266.0
90,82,532.0,F#6,R,266.0
54,78,532.0,F#3,L,266.0
52,0,532.0,E3,L,266.0
86,80,532.25,D6,R,266.125
50,77,532.25,D3,L,266.125
86,80,532.75,D6,R,266.375
88,77,532.75,E6,R,266.375
86,0,532.75,D6,R,266.375
54,0,532.75,F#3,L,266.375
52,77,532.75,E3,L,266.375
50,0,533.0,D3,L,266.5
88,0,533.0,E6,R,266.5
90,0,533.0,F#6,R,266.5
54,79,533.0,F#3,L,266.5
90,84,533.0,F#6,R,266.5
52,0,533.0,E3,L,266.5
86,0,533.0,D6,R,266.5
52,77,533.0,E3,L,266.5
91,89,533.5,G6,R,266.75
54,0,533.5,F#3,L,266.75
55,81,533.5,G3,L,266.75
90,0,533.5,F#6,R,266.75
55,0,533.75,G3,L,266.875
57,79,533.75,A3,L,266.875
93,92,533.75,A6,R,266.875
95,88,534.0,B6,R,267.0
93,92,534.0,A6,R,267.0
93,0,534.0,A6,R,267.0
57,0,534.0,A3,L,267.0
57,79,534.0,A3,L,267.0
52,0,534.0,E3,L,267.0
91,0,534.0,G6,R,267.0
57,0,534.125,A3,L,267.0625
59,83,534.125,B3,L,267.0625
95,0,534.5,B6,R,267.25
93,86,534.5,A6,R,267.25
59,0,534.5,B3,L,267.25
57,75,534.5,A3,L,267.25
93,0,534.75,A6,R,267.375
93,0,534.75,A6,R,267.375
95,87,534.75,B6,R,267.375
93,86,534.875,A6,R,267.4375
59,83,535.0,B3,L,267.5
57,0,535.0,A3,L,267.5
93,0,535.0,A6,R,267.5
95,82,535.0,B6,R,267.5
95,0,535.0,B6,R,267.5
93,86,535.0,A6,R,267.5
93,88,535.25,A6,R,267.625
95,0,535.25,B6,R,267.625
61,77,535.25,C#4,L,267.625
62,82,535.5,D4,L,267.75
59,0,535.5,B3,L,267.75
93,0,535.5,A6,R,267.75
95,88,535.5,B6,R,267.75
93,91,535.625,A6,R,267.8125
95,0,535.625,B6,R,267.8125
95,86,535.75,B6,R,267.875
93,0,535.75,A6,R,267.875
61,0,536.0,C#4,L,268.0
62,0,536.0,D4,L,268.0
64,82,536.0,E4,L,268.0
95,0,536.0,B6,R,268.0
93,0,536.0,A6,R,268.0
93,88,536.0,A6,R,268.0
93,0,536.125,A6,R,268.0625
95,81,536.125,B6,R,268.0625
93,89,536.25,A6,R,268.125
95,0,536.25,B6,R,268.125
93,0,536.375,A6,R,268.1875
95,89,536.375,B6,R,268.1875
66,85,536.5,F#4,L,268.25
95,0,536.5,B6,R,268.25
64,0,536.5,E4,L,268.25
81,95,536.75,A5,R,268.375
81,0,537.0,A5,R,268.5
83,79,537.0,B5,R,268.5
67,93,537.0,G4,L,268.5
66,0,537.0,F#4,L,268.5
83,0,537.25,B5,R,268.625
81,78,537.25,A5,R,268.625
81,0,537.375,A5,R,268.6875
83,77,537.375,B5,R,268.6875
83,0,537.5,B5,R,268.75
81,70,537.59375,A5,R,268.796875
81,0,537.625,A5,R,268.8125
81,70,537.625,A5,R,268.8125
81,0,537.75,A5,R,268.875
83,70,537.75,B5,R,268.875
83,0,538.0,B5,R,269.0
81,64,538.0,A5,R,269.0
81,0,538.125,A5,R,269.0625
83,59,538.125,B5,R,269.0625
83,0,538.25,B5,R,269.125
81,64,538.3125,A5,R,269.15625
81,0,538.5,A5,R,269.25
83,59,538.5,B5,R,269.25
83,0,538.6875,B5,R,269.34375
81,44,538.6875,A5,R,269.34375
81,0,538.75,A5,R,269.375
83,51,538.8125,B5,R,269.40625
83,0,539.0,B5,R,269.5
81,52,539.0,A5,R,269.5
67,0,539.0,G4,L,269.5
81,0,539.25,A5,R,269.625
57,54,539.25,A3,R,269.625
83,56,539.3125,B5,R,269.65625
83,0,539.5,B5,R,269.75
81,63,539.5,A5,R,269.75
59,70,539.5,B3,L,269.75
81,0,539.6666666666666,A5,R,269.8333333333333
83,63,539.6666666666666,B5,R,269.8333333333333
83,0,539.75,B5,R,269.875
81,70,539.875,A5,R,269.9375
59,0,540.0,B3,L,270.0
57,0,540.0,A3,R,270.0
61,71,540.0,C#4,L,270.0
81,0,540.0,A5,R,270.0
83,69,540.0,B5,R,270.0
61,0,540.25,C#4,L,270.125
81,76,540.25,A5,R,270.125
62,82,540.25,D4,L,270.125
83,0,540.25,B5,R,270.125
62,0,540.5,D4,L,270.25
81,0,540.5,A5,R,270.25
64,86,540.5,E4,L,270.25
83,72,540.55,B5,R,270.275
83,0,540.5999999999999,B5,R,270.29999999999995
81,75,540.6,A5,R,270.3
83,72,540.8,B5,R,270.4
81,0,540.8000000000001,A5,R,270.40000000000003
83,0,540.9,B5,R,270.45
81,74,540.95,A5,R,270.475
64,0,541.0,E4,L,270.5
81,74,541.0,A5,R,270.5
81,0,541.0,A5,R,270.5
66,90,541.0,F#4,L,270.5
83,73,541.125,B5,R,270.5625
81,0,541.125,A5,R,270.5625
81,80,541.25,A5,R,270.625
83,0,541.25,B5,R,270.625
67,102,541.3333333333334,G4,L,270.6666666666667
66,0,541.3333333333334,F#4,L,270.6666666666667
81,0,541.5,A5,R,270.75
82,75,541.5625,A#5,R,270.78125
81,75,541.75,A5,R,270.875
82,0,541.75,A#5,R,270.875
81,0,541.9375,A5,R,270.96875
82,70,541.9375,A#5,R,270.96875
67,102,542.0,G4,L,271.0
67,0,542.0,G4,L,271.0
82,70,542.0,A#5,R,271.0
82,0,542.0,A#5,R,271.0
81,75,542.125,A5,R,271.0625
82,0,542.125,A#5,R,271.0625
81,0,542.25,A5,R,271.125
82,69,542.3125,A#5,R,271.15625
81,66,542.5,A5,R,271.25
82,0,542.5,A#5,R,271.25
81,0,542.5833333333334,A5,R,271.2916666666667
82,61,542.6666666666666,A#5,R,271.3333333333333
82,0,542.75,A#5,R,271.375
81,52,542.8125,A5,R,271.40625
81,0,543.0,A5,R,271.5
82,59,543.0,A#5,R,271.5
81,56,543.1875,A5,R,271.59375
82,0,543.1875,A#5,R,271.59375
81,0,543.25,A5,R,271.625
82,57,543.3125,A#5,R,271.65625
67,0,543.5,G4,L,271.75
82,0,543.5,A#5,R,271.75
81,62,543.5416666666666,A5,R,271.7708333333333
81,0,543.5833333333333,A5,R,271.79166666666663
81,62,543.5833333333334,A5,R,271.7916666666667
57,52,543.5833333333334,A3,R,271.7916666666667
57,52,543.6666666666666,A3,R,271.8333333333333
81,0,543.6666666666667,A5,R,271.83333333333337
57,0,543.6666666666667,A3,R,271.83333333333337
57,52,543.75,A3,R,271.875
57,0,543.75,A3,R,271.875
82,62,543.75,A#5,L,271.875
82,0,543.9375,A#5,L,271.96875
81,60,543.96875,A5,L,271.984375
81,0,544.0,A5,L,272.0
81,60,544.0,A5,L,272.0
57,0,544.0,A3,R,272.0
57,52,544.0,A3,R,272.0
81,0,544.125,A5,L,272.0625
82,59,544.125,A#5,L,272.0625
82,0,544.25,A#5,L,272.125
81,55,544.3125,A5,L,272.15625
82,55,544.5,A#5,L,272.25
81,0,544.5,A5,L,272.25
81,51,544.6666666666666,A5,L,272.3333333333333
82,0,544.6666666666666,A#5,L,272.3333333333333
81,0,544.8333333333333,A5,L,272.41666666666663
82,56,544.8333333333334,A#5,L,272.4166666666667
57,0,545.0,A3,R,272.5
82,0,545.0,A#5,L,272.5
81,53,545.0,A5,L,272.5
81,0,545.1875,A5,L,272.59375
82,61,545.1875,A#5,L,272.59375
82,0,545.25,A#5,L,272.625
81,59,545.375,A5,L,272.6875
81,0,545.5,A5,L,272.75
82,58,545.5,A#5,L,272.75
81,60,545.75,A5,L,272.875
82,0,545.75,A#5,L,272.875
81,0,546.0,A5,L,273.0
50,41,546.0,D3,L,273.0
83,50,546.0625,B5,L,273.03125
83,0,546.25,B5,L,273.125
81,60,546.25,A5,L,273.125
81,0,546.375,A5,L,273.1875
83,59,546.40625,B5,L,273.203125
83,0,546.5,B5,L,273.25
81,53,546.625,A5,L,273.3125
81,0,546.75,A5,L,273.375
83,47,546.8125,B5,L,273.40625
83,0,547.0,B5,L,273.5
81,54,547.0625,A5,L,273.53125
83,51,547.25,B5,L,273.625
81,0,547.25,A5,L,273.625
81,48,547.5,A5,L,273.75
83,0,547.5,B5,L,273.75
81,0,547.625,A5,L,273.8125
83,51,547.625,B5,L,273.8125
81,57,547.75,A5,L,273.875
83,0,547.75,B5,L,273.875
81,0,548.0,A5,L,274.0
50,0,548.0,D3,L,274.0
83,57,548.0,B5,L,274.0
83,0,548.5,B5,L,274.25
43,44,548.5,G2,L,274.25
83,51,548.5,B5,R,274.25
84,38,548.6875,C6,R,274.34375
83,0,548.75,B5,R,274.375
50,43,548.75,D3,R,274.375
84,38,548.75,C6,R,274.375
84,0,548.75,C6,R,274.375
43,41,548.875,G2,L,274.4375
43,0,548.875,G2,L,274.4375
50,0,548.875,D3,R,274.4375
83,48,548.90625,B5,R,274.453125
84,0,549.0,C6,R,274.5
83,0,549.0,B5,R,274.5
43,0,549.0,G2,L,274.5
84,53,549.0,C6,R,274.5
50,48,549.1875,D3,L,274.59375
84,0,549.25,C6,R,274.625
83,52,549.25,B5,R,274.625
50,48,549.25,D3,L,274.625
50,0,549.25,D3,L,274.625
43,48,549.3125,G2,L,274.65625
84,49,549.375,C6,L,274.6875
50,0,549.375,D3,L,274.6875
83,0,549.5,B5,R,274.75
84,0,549.5,C6,L,274.75
43,0,549.5,G2,L,274.75
50,37,549.625,D3,L,274.8125
83,48,549.625,B5,R,274.8125
43,43,549.75,G2,L,274.875
50,0,549.75,D3,L,274.875
83,0,549.75,B5,R,274.875
84,50,549.75,C6,R,274.875
43,0,550.0,G2,L,275.0
84,0,550.0,C6,R,275.0
83,51,550.0,B5,R,275.0
50,45,550.0,D3,L,275.0
43,47,550.125,G2,L,275.0625
84,48,550.125,C6,R,275.0625
50,0,550.125,D3,L,275.0625
83,0,550.125,B5,R,275.0625
83,51,550.3125,B5,R,275.15625
84,0,550.375,C6,R,275.1875
50,48,550.375,D3,R,275.1875
50,0,550.5,D3,R,275.25
84,47,550.5,C6,R,275.25
43,46,550.5,G2,L,275.25
43,0,550.5,G2,L,275.25
83,0,550.5,B5,R,275.25
84,0,550.625,C6,R,275.3125
83,53,550.625,B5,R,275.3125
43,0,550.75,G2,L,275.375
50,50,550.75,D3,R,275.375
83,0,550.75,B5,R,275.375
84,50,550.8125,C6,R,275.40625
43,43,550.8125,G2,L,275.40625
50,0,550.8125,D3,R,275.40625
43,0,551.0,G2,L,275.5
84,0,551.0,C6,R,275.5
83,48,551.0,B5,R,275.5
83,0,551.09375,B5,R,275.546875
50,40,551.09375,D3,R,275.546875
50,0,551.125,D3,R,275.5625
50,40,551.125,D3,R,275.5625
50,0,551.1875,D3,R,275.59375
84,46,551.1875,C6,R,275.59375
84,46,551.25,C6,R,275.625
84,0,551.25,C6,R,275.625
43,36,551.25,G2,L,275.625
84,0,551.375,C6,R,275.6875
83,54,551.375,B5,R,275.6875
43,43,551.5,G2,L,275.75
83,0,551.5,B5,R,275.75
50,39,551.5,D3,R,275.75
43,0,551.5,G2,L,275.75
84,47,551.5625,C6,R,275.78125
50,0,551.5625,D3,R,275.78125
83,54,551.75,B5,R,275.875
84,0,551.75,C6,R,275.875
83,0,551.875,B5,R,275.9375
84,48,551.875,C6,R,275.9375
50,34,551.875,D3,L,275.9375
43,0,551.875,G2,L,275.9375
43,45,551.96875,G2,L,275.984375
84,0,552.0,C6,R,276.0
43,45,552.0,G2,L,276.0
83,54,552.0,B5,L,276.0
43,0,552.0,G2,L,276.0
50,0,552.0,D3,L,276.0
84,61,552.1875,C6,R,276.09375
50,43,552.25,D3,L,276.125
83,0,552.25,B5,L,276.125
84,0,552.25,C6,R,276.125
84,61,552.25,C6,R,276.125
84,0,552.3333333333334,C6,R,276.1666666666667
43,39,552.3333333333334,G2,R,276.1666666666667
83,46,552.4166666666666,B5,R,276.2083333333333
43,0,552.4166666666667,G2,R,276.20833333333337
84,65,552.5,C6,R,276.25
83,0,552.5,B5,R,276.25
50,51,552.5416666666666,D3,R,276.2708333333333
84,0,552.5416666666666,C6,R,276.2708333333333
50,51,552.6666666666666,D3,R,276.3333333333333
83,57,552.6666666666666,B5,R,276.3333333333333
50,0,552.6666666666666,D3,R,276.3333333333333
50,0,552.75,D3,R,276.375
50,0,552.75,D3,L,276.375
83,0,552.75,B5,R,276.375
82,63,552.875,A#5,R,276.4375
43,45,552.875,G2,L,276.4375
43,0,553.0,G2,L,276.5
43,0,553.0,G2,L,276.5
82,0,553.0,A#5,R,276.5
85,59,553.125,C#6,R,276.5625
85,0,553.1875,C#6,R,276.59375
50,45,553.1875,D3,R,276.59375
50,0,553.25,D3,R,276.625
50,45,553.25,D3,R,276.625
50,0,553.34375,D3,R,276.671875
82,54,553.34375,A#5,R,276.671875
43,47,553.375,G2,L,276.6875
82,0,553.375,A#5,R,276.6875
82,54,553.375,A#5,R,276.6875
43,0,553.5,G2,L,276.75
85,58,553.5,C#6,R,276.75
82,0,553.5,A#5,R,276.75
85,0,553.625,C#6,R,276.8125
82,52,553.625,A#5,R,276.8125
50,37,553.625,D3,L,276.8125
43,41,553.75,G2,L,276.875
50,0,553.75,D3,L,276.875
43,0,553.875,G2,L,276.9375
85,62,553.875,C#6,L,276.9375
82,52,554.0,A#5,R,277.0
85,0,554.0,C#6,L,277.0
82,0,554.0,A#5,R,277.0
50,45,554.0,D3,L,277.0
43,45,554.125,G2,L,277.0625
50,0,554.125,D3,L,277.0625
43,0,554.25,G2,L,277.125
85,60,554.2916666666666,C#6,L,277.1458333333333
50,33,554.4166666666666,D3,L,277.2083333333333
85,0,554.4166666666666,C#6,L,277.2083333333333
50,0,554.4583333333333,D3,L,277.22916666666663
43,41,554.4583333333334,G2,L,277.2291666666667
43,41,554.5,G2,L,277.25
82,0,554.5,A#5,R,277.25
43,0,554.5,G2,L,277.25
82,49,554.5416666666666,A#5,R,277.2708333333333
82,0,554.5833333333333,A#5,R,277.29166666666663
85,60,554.6666666666666,C#6,R,277.3333333333333
85,0,554.75,C#6,R,277.375
82,57,554.8125,A#5,R,277.40625
43,36,554.875,G2,R,277.4375
43,0,555.0,G2,L,277.5
82,0,555.0,A#5,R,277.5
43,0,555.0,G2,R,277.5
85,65,555.0,C#6,R,277.5
86,66,555.375,D6,R,277.6875
86,66,555.5,D6,R,277.75
85,0,555.5,C#6,R,277.75
38,48,555.5,D2,R,277.75
42,61,555.5,F#2,L,277.75
86,0,555.5,D6,R,277.75
38,0,555.625,D2,R,277.8125
38,48,555.625,D2,R,277.8125
81,64,555.625,A5,R,277.8125
38,0,555.75,D2,R,277.875
81,64,555.75,A5,R,277.875
81,0,555.75,A5,R,277.875
81,0,555.875,A5,R,277.9375
45,37,555.875,A2,L,277.9375
42,0,555.875,F#2,L,277.9375
78,45,555.875,F#5,R,277.9375
45,0,556.0,A2,L,278.0
78,0,556.0,F#5,R,278.0
74,60,556.0,D5,R,278.0
86,0,556.0,D6,R,278.0
50,44,556.0625,D3,R,278.03125
38,47,556.25,D2,L,278.125
50,0,556.25,D3,R,278.125
81,57,556.25,A5,R,278.125
81,0,556.375,A5,R,278.1875
78,62,556.375,F#5,R,278.1875
78,0,556.5,F#5,R,278.25
38,0,556.5,D2,L,278.25
74,58,556.5,D5,R,278.25
42,45,556.5,F#2,L,278.25
45,37,556.625,A2,R,278.3125
74,0,556.625,D5,R,278.3125
74,0,556.75,D5,R,278.375
42,0,556.75,F#2,L,278.375
50,54,556.75,D3,L,278.375
69,55,556.75,A4,R,278.375
45,0,556.75,A2,R,278.375
78,65,556.875,F#5,R,278.4375
74,61,556.9375,D5,R,278.46875
69,0,556.9375,A4,R,278.46875
50,0,557.0,D3,L,278.5
38,52,557.0,D2,L,278.5
78,0,557.0,F#5,R,278.5
78,65,557.0,F#5,R,278.5
42,49,557.0,F#2,R,278.5
74,61,557.0,D5,R,278.5
74,0,557.0,D5,R,278.5
42,0,557.25,F#2,R,278.625
69,55,557.25,A4,R,278.625
38,0,557.25,D2,L,278.625
42,49,557.25,F#2,R,278.625
45,42,557.25,A2,L,278.625
74,0,557.25,D5,R,278.625
69,0,557.5,A4,R,278.75
45,0,557.5,A2,L,278.75
42,0,557.5,F#2,R,278.75
50,56,557.5833333333334,D3,L,278.7916666666667
66,67,557.5833333333334,F#4,R,278.7916666666667
38,57,557.6666666666666,D2,L,278.8333333333333
74,67,557.6666666666666,D5,R,278.8333333333333
50,0,557.6666666666667,D3,L,278.83333333333337
66,0,557.6666666666667,F#4,R,278.83333333333337
74,0,557.8333333333333,D5,R,278.91666666666663
38,0,557.8333333333333,D2,L,278.91666666666663
38,57,557.8333333333334,D2,L,278.9166666666667
42,53,557.8333333333334,F#2,L,278.9166666666667
69,63,557.8333333333334,A4,R,278.9166666666667
69,0,558.0,A4,R,279.0
66,55,558.0,F#4,R,279.0
38,0,558.0,D2,L,279.0
78,0,558.0,F#5,R,279.0
42,0,558.0,F#2,L,279.0
45,38,558.0,A2,L,279.0
50,52,558.125,D3,L,279.0625
62,54,558.25,D4,R,279.125
66,0,558.25,F#4,R,279.125
45,0,558.25,A2,L,279.125
38,48,558.25,D2,L,279.125
69,61,558.375,A4,R,279.1875
69,61,558.5,A4,R,279.25
62,0,558.5,D4,R,279.25
66,63,558.5,F#4,R,279.25
42,50,558.5,F#2,L,279.25
38,0,558.5,D2,L,279.25
69,0,558.5,A4,R,279.25
38,48,558.5,D2,L,279.25
50,52,558.5,D3,L,279.25
50,0,558.5,D3,L,279.25
62,58,558.625,D4,R,279.3125
69,0,558.625,A4,R,279.3125
45,42,558.75,A2,R,279.375
66,0,558.75,F#4,R,279.375
50,0,558.875,D3,L,279.4375
45,0,558.875,A2,R,279.4375
57,55,558.9375,A3,R,279.46875
50,53,558.9375,D3,L,279.46875
50,0,559.0,D3,L,279.5
42,0,559.0,F#2,L,279.5
38,51,559.0,D2,L,279.5
50,53,559.0,D3,L,279.5
57,0,559.0,A3,R,279.5
57,55,559.0,A3,R,279.5
38,0,559.0,D2,L,279.5
62,0,559.0,D4,R,279.5
57,0,559.1,A3,R,279.55
66,67,559.1,F#4,R,279.55
66,67,559.2,F#4,R,279.6
62,53,559.2,D4,R,279.6
66,0,559.2,F#4,R,279.6
42,56,559.3,F#2,R,279.65
62,0,559.3000000000001,D4,R,279.65000000000003
66,0,559.3000000000001,F#4,R,279.65000000000003
42,0,559.4499999999999,F#2,R,279.72499999999997
42,56,559.45,F#2,R,279.725
57,60,559.45,A3,R,279.725
57,0,559.5,A3,R,279.75
57,60,559.5,A3,R,279.75
42,0,559.5,F#2,R,279.75
38,0,559.5,D2,L,279.75
45,45,559.5833333333334,A2,L,279.7916666666667
54,60,559.625,F#3,R,279.8125
57,0,559.625,A3,R,279.8125
50,56,559.6666666666666,D3,L,279.8333333333333
45,0,559.6666666666667,A2,L,279.83333333333337
62,64,559.75,D4,R,279.875
54,0,559.75,F#3,R,279.875
50,0,559.8333333333333,D3,L,279.91666666666663
38,54,559.8333333333334,D2,L,279.9166666666667
38,0,560.0,D2,L,280.0
42,56,560.0,F#2,R,280.0
62,0,560.0,D4,R,280.0
38,54,560.0,D2,L,280.0
50,0,560.0,D3,L,280.0
57,66,560.0625,A3,R,280.03125
45,40,560.25,A2,L,280.125
57,0,560.25,A3,R,280.125
54,59,560.25,F#3,R,280.125
38,0,560.25,D2,L,280.125
50,55,560.375,D3,L,280.1875
45,0,560.4375,A2,L,280.21875
57,60,560.4375,A3,L,280.21875
50,0,560.5,D3,L,280.25
57,0,560.5,A3,L,280.25
57,60,560.5,A3,L,280.25
57,0,560.55,A3,L,280.275
38,46,560.55,D2,L,280.275
38,0,560.5999999999999,D2,L,280.29999999999995
62,59,560.6,D4,L,280.3
38,46,560.6,D2,L,280.3
38,0,560.7,D2,L,280.35
62,0,560.7,D4,L,280.35
38,46,560.7,D2,L,280.35
42,59,560.7,F#2,L,280.35
54,0,560.75,F#3,R,280.375
57,62,560.75,A3,R,280.375
42,59,560.8,F#2,L,280.4
38,0,560.8000000000001,D2,L,280.40000000000003
42,0,560.8000000000001,F#2,L,280.40000000000003
57,0,560.875,A3,R,280.4375
54,55,560.875,F#3,R,280.4375
42,0,560.9,F#2,L,280.45
45,41,560.9,A2,L,280.45
54,55,561.0,F#3,R,280.5
45,0,561.0,A2,L,280.5
54,0,561.0,F#3,R,280.5
42,0,561.0,F#2,R,280.5
50,51,561.0833333333334,D3,L,280.5416666666667
57,61,561.125,A3,R,280.5625
54,0,561.125,F#3,R,280.5625
38,45,561.1666666666666,D2,L,280.5833333333333
50,0,561.1666666666667,D3,L,280.58333333333337
57,0,561.25,A3,R,280.625
62,57,561.3125,D4,R,280.65625
38,0,561.5,D2,L,280.75
45,42,561.5,A2,L,280.75
42,58,561.5,F#2,R,280.75
62,0,561.5,D4,R,280.75
57,59,561.5625,A3,R,280.78125
54,61,561.625,F#3,R,280.8125
57,0,561.625,A3,R,280.8125
45,0,561.75,A2,L,280.875
50,42,561.75,D3,L,280.875
57,55,561.75,A3,R,280.875
54,0,561.75,F#3,R,280.875
50,0,562.0,D3,L,281.0
42,0,562.0,F#2,R,281.0
50,53,562.0,D3,R,281.0
57,0,562.0,A3,R,281.0
38,52,562.0,D2,L,281.0
38,0,563.0,D2,L,281.5
50,0,563.0,D3,R,281.5
50,53,564.75,D3,R,282.375
38,46,564.75,D2,L,282.375
38,0,565.0,D2,L,282.5
50,0,565.0,D3,R,282.5
38,39,567.0,D2,L,283.5
50,50,567.0,D3,R,283.5
38,0,568.0,D2,L,284.0
50,0,568.0,D3,R,284.0
38,34,569.5,D2,L,284.75
50,44,569.5,D3,R,284.75
38,0,570.0,D2,L,285.0
50,0,570.0,D3,R,285.0
31,38,572.0,G1,L,286.0
71,63,572.0,B4,R,286.0
38,37,573.0,D2,R,286.5
72,75,574.5,C5,L,287.25
72,0,574.875,C5,L,287.4375
74,87,574.875,D5,L,287.4375
71,0,575.0,B4,R,287.5
74,0,575.0,D5,L,287.5
74,77,575.0,D5,L,287.5
38,0,576.0,D2,R,288.0
74,0,576.0,D5,L,288.0
31,0,576.0,G1,L,288.0
66,78,576.0,F#4,L,288.0
74,77,576.0,D5,L,288.0
33,46,576.375,A1,R,288.1875
33,46,576.5,A1,R,288.25
33,0,576.5,A1,R,288.25
38,42,576.5,D2,R,288.25
67,89,577.0,G4,R,288.5
33,0,577.0,A1,R,288.5
66,0,577.0,F#4,L,288.5
74,0,577.0,D5,L,288.5
38,0,577.0,D2,R,288.5
35,54,577.125,B1,L,288.5625
38,48,577.125,D2,R,288.5625
35,0,577.5,B1,L,288.75
38,0,577.5,D2,R,288.75
66,78,578.0,F#4,R,289.0
67,0,578.0,G4,R,289.0
45,42,578.0,A2,L,289.0
48,39,578.0,C3,L,289.0
50,44,578.0,D3,L,289.0
57,44,578.0,A3,L,289.0
60,45,579.0,C4,R,289.5
45,0,580.0,A2,L,290.0
48,0,580.0,C3,L,290.0
50,0,580.0,D3,L,290.0
57,0,580.0,A3,L,290.0
45,42,580.0,A2,L,290.0
48,39,580.0,C3,L,290.0
50,44,580.0,D3,L,290.0
60,45,580.0,C4,R,290.0
66,78,580.0,F#4,R,290.0
60,0,580.0,C4,R,290.0
66,0,580.0,F#4,R,290.0
45,0,581.0,A2,L,290.5
48,0,581.0,C3,L,290.5
50,0,581.0,D3,L,290.5
60,0,581.0,C4,R,290.5
66,0,581.0,F#4,R,290.5
67,57,581.75,G4,R,290.875
45,41,582.0,A2,L,291.0
48,37,582.0,C3,L,291.0
52,38,582.0,E3,L,291.0
57,45,582.0,A3,L,291.0
60,41,582.0,C4,R,291.0
67,57,582.0,G4,R,291.0
67,0,582.0,G4,R,291.0
69,48,582.75,A4,R,291.375
67,0,582.75,G4,R,291.375
50,43,582.875,D3,L,291.4375
57,38,582.875,A3,L,291.4375
45,0,583.0,A2,L,291.5
48,0,583.0,C3,L,291.5
52,0,583.0,E3,L,291.5
57,0,583.0,A3,L,291.5
48,38,583.0,C3,L,291.5
54,42,583.0,F#3,L,291.5
50,0,583.0,D3,L,291.5
57,0,583.0,A3,L,291.5
60,43,583.0,C4,R,291.5
50,43,583.0,D3,L,291.5
60,0,583.0,C4,R,291.5
57,38,583.0,A3,L,291.5
69,48,583.0,A4,R,291.5
69,0,583.0,A4,R,291.5
48,0,584.0,C3,L,292.0
54,0,584.0,F#3,L,292.0
83,63,584.0,B5,R,292.0
60,0,584.0,C4,R,292.0
50,0,584.0,D3,L,292.0
57,0,584.0,A3,L,292.0
69,0,584.0,A4,R,292.0
50,38,584.25,D3,L,292.125
50,0,584.5,D3,L,292.25
50,38,584.5,D3,L,292.25
50,0,584.5833333333334,D3,L,292.2916666666667
55,46,584.5833333333334,G3,L,292.2916666666667
55,0,584.8333333333334,G3,L,292.4166666666667
59,50,584.8333333333334,B3,L,292.4166666666667
59,0,585.0,B3,L,292.5
50,46,585.0,D3,L,292.5
50,0,585.3333333333334,D3,L,292.6666666666667
55,43,585.3333333333334,G3,L,292.6666666666667
55,0,585.5,G3,L,292.75
59,45,585.5,B3,L,292.75
59,0,585.75,B3,L,292.875
50,45,585.75,D3,L,292.875
55,49,586.0,G3,R,293.0
83,0,586.0,B5,R,293.0
50,0,586.0,D3,L,293.0
84,69,586.0,C6,L,293.0
86,77,586.125,D6,R,293.0625
55,0,586.125,G3,R,293.0625
59,51,586.25,B3,R,293.125
86,0,586.25,D6,R,293.125
59,0,586.5,B3,R,293.25
84,0,586.5,C6,L,293.25
50,43,586.5,D3,L,293.25
86,77,586.5833333333334,D6,R,293.2916666666667
86,77,586.8333333333334,D6,R,293.4166666666667
55,41,586.8333333333334,G3,R,293.4166666666667
86,0,586.8333333333334,D6,R,293.4166666666667
86,77,587.0,D6,R,293.5
86,0,587.0,D6,R,293.5
55,0,587.0,G3,R,293.5
50,0,587.0,D3,L,293.5
59,44,587.0833333333334,B3,R,293.5416666666667
86,0,587.0833333333334,D6,R,293.5416666666667
50,48,587.25,D3,L,293.625
78,71,587.3333333333334,F#5,R,293.6666666666667
59,0,587.3333333333334,B3,R,293.6666666666667
78,71,587.5,F#5,R,293.75
78,0,587.5,F#5,R,293.75
50,0,587.5,D3,L,293.75
55,45,587.5,G3,L,293.75
55,0,587.75,G3,L,293.875
59,45,587.75,B3,L,293.875
79,71,588.0,G5,R,294.0
78,0,588.0,F#5,R,294.0
59,0,588.0,B3,L,294.0
50,47,588.0833333333334,D3,L,294.0416666666667
55,46,588.3333333333334,G3,L,294.1666666666667
50,0,588.3333333333334,D3,L,294.1666666666667
59,51,588.5,B3,L,294.25
55,0,588.5,G3,L,294.25
50,44,588.75,D3,L,294.375
59,0,588.75,B3,L,294.375
83,70,589.0,B5,R,294.5
50,44,589.0,D3,L,294.5
50,0,589.0,D3,L,294.5
79,0,589.0,G5,R,294.5
50,0,589.0833333333334,D3,L,294.5416666666667
55,46,589.0833333333334,G3,L,294.5416666666667
59,47,589.3333333333334,B3,L,294.6666666666667
55,0,589.3333333333334,G3,L,294.6666666666667
50,46,589.5,D3,L,294.75
59,0,589.5,B3,L,294.75
73,66,589.5,C#5,R,294.75
55,46,589.8333333333334,G3,L,294.9166666666667
50,0,589.8333333333334,D3,L,294.9166666666667
73,66,590.0,C#5,R,295.0
73,0,590.0,C#5,R,295.0
83,0,590.0,B5,R,295.0
55,0,590.0,G3,L,295.0
59,47,590.1,B3,L,295.05
59,0,590.2,B3,L,295.1
74,74,590.25,D5,R,295.125
50,43,590.3,D3,L,295.15
50,0,590.5999999999999,D3,L,295.29999999999995
55,47,590.6,G3,L,295.3
59,43,590.8,B3,L,295.4
55,0,590.8000000000001,G3,L,295.40000000000003
74,0,591.0,D5,R,295.5
79,64,591.0,G5,R,295.5
59,0,591.0,B3,L,295.5
73,0,591.0,C#5,R,295.5
50,39,591.0833333333334,D3,L,295.5416666666667
50,0,591.3333333333334,D3,L,295.6666666666667
55,47,591.3333333333334,G3,L,295.6666666666667
55,0,591.5,G3,L,295.75
59,47,591.5625,B3,L,295.78125
59,0,591.75,B3,L,295.875
50,48,591.75,D3,L,295.875
55,45,592.0,G3,L,296.0
70,67,592.0,A#4,R,296.0
50,0,592.0,D3,L,296.0
79,0,592.0,G5,R,296.0
50,48,592.0,D3,L,296.0
55,0,592.25,G3,L,296.125
59,49,592.25,B3,L,296.125
70,0,592.5,A#4,R,296.25
59,0,592.5,B3,L,296.25
50,43,592.5,D3,L,296.25
71,61,592.5,B4,R,296.25
71,0,592.75,B4,R,296.375
55,46,592.75,G3,R,296.375
50,0,593.0,D3,L,296.5
50,0,593.0,D3,L,296.5
55,0,593.0,G3,R,296.5
59,52,593.0833333333334,B3,R,296.5416666666667
52,61,593.25,E3,L,296.625
83,73,593.3333333333334,B5,R,296.6666666666667
59,0,593.3333333333334,B3,R,296.6666666666667
83,0,593.5,B5,R,296.75
52,0,593.5,E3,L,296.75
83,73,593.5,B5,R,296.75
55,47,593.625,G3,L,296.8125
55,0,593.75,G3,L,296.875
59,54,593.75,B3,L,296.875
59,0,594.0,B3,L,297.0
83,73,594.0,B5,R,297.0
83,0,594.0,B5,R,297.0
52,54,594.125,E3,L,297.0625
52,0,594.375,E3,L,297.1875
55,51,594.375,G3,L,297.1875
55,0,594.5,G3,L,297.25
59,55,594.5625,B3,L,297.28125
59,0,594.75,B3,L,297.375
52,58,594.8333333333334,E3,L,297.4166666666667
87,67,594.9166666666666,D#6,L,297.4583333333333
52,0,594.9166666666667,E3,L,297.45833333333337
83,0,595.0,B5,R,297.5
87,0,595.0,D#6,L,297.5
87,67,595.0,D#6,L,297.5
55,50,595.125,G3,R,297.5625
55,0,595.25,G3,R,297.625
88,72,595.25,E6,R,297.625
88,0,595.2916666666666,E6,R,297.6458333333333
59,56,595.2916666666666,B3,R,297.6458333333333
59,0,595.4166666666666,B3,R,297.7083333333333
88,78,595.5,E6,R,297.75
87,0,595.5,D#6,L,297.75
52,56,595.5625,E3,L,297.78125
52,0,595.75,E3,L,297.875
55,46,595.875,G3,L,297.9375
78,68,596.0,F#5,R,298.0
55,0,596.0,G3,L,298.0
59,52,596.0,B3,L,298.0
88,78,596.0,E6,R,298.0
88,0,596.0,E6,R,298.0
59,0,596.375,B3,L,298.1875
52,53,596.375,E3,L,298.1875
52,0,596.5,E3,L,298.25
55,46,596.625,G3,L,298.3125
59,49,596.875,B3,L,298.4375
55,0,596.875,G3,L,298.4375
88,0,597.0,E6,R,298.5
79,69,597.0,G5,R,298.5
78,0,597.0,F#5,R,298.5
59,0,597.0,B3,L,298.5
52,48,597.1,E3,L,298.55
55,47,597.4,G3,L,298.7
52,0,597.4,E3,L,298.7
59,52,597.6,B3,L,298.8
55,0,597.6,G3,L,298.8
52,53,597.8,E3,L,298.9
59,0,597.8000000000001,B3,L,298.90000000000003
83,70,598.0,B5,R,299.0
52,0,598.0,E3,L,299.0
79,0,598.0,G5,R,299.0
55,51,598.125,G3,L,299.0625
59,51,598.375,B3,L,299.1875
55,0,598.375,G3,L,299.1875
59,0,598.5,B3,L,299.25
75,68,598.5,D#5,R,299.25
52,52,598.5,E3,L,299.25
52,0,598.75,E3,L,299.375
55,51,598.875,G3,L,299.4375
75,68,599.0,D#5,R,299.5
75,0,599.0,D#5,R,299.5
59,54,599.0,B3,L,299.5
83,0,599.0,B5,R,299.5
55,0,599.0,G3,L,299.5
75,0,599.25,D#5,R,299.625
75,68,599.25,D#5,R,299.625
76,69,599.25,E5,R,299.625
52,58,599.25,E3,L,299.625
59,0,599.25,B3,L,299.625
76,0,599.5,E5,R,299.75
75,0,599.5,D#5,R,299.75
55,50,599.625,G3,R,299.8125
59,58,599.75,B3,R,299.875
55,0,599.75,G3,R,299.875
52,0,600.0,E3,L,300.0
91,81,600.0,G6,R,300.0
59,0,600.0,B3,R,300.0
52,49,600.0833333333334,E3,L,300.0416666666667
55,52,600.3333333333334,G3,L,300.1666666666667
52,0,600.3333333333334,E3,L,300.1666666666667
55,0,600.5,G3,L,300.25
59,59,600.5833333333334,B3,L,300.2916666666667
52,54,600.8333333333334,E3,L,300.4166666666667
59,0,600.8333333333334,B3,L,300.4166666666667
52,0,601.0,E3,L,300.5
87,81,601.0,D#6,R,300.5
91,0,601.0,G6,R,300.5
55,51,601.125,G3,L,300.5625
59,54,601.25,B3,L,300.625
55,0,601.25,G3,L,300.625
88,80,601.5,E6,R,300.75
59,0,601.5,B3,L,300.75
52,43,601.5,E3,L,300.75
87,0,601.5,D#6,R,300.75
52,0,601.75,E3,L,300.875
55,56,601.75,G3,L,300.875
55,0,602.0,G3,L,301.0
59,52,602.0,B3,L,301.0
88,0,602.0,E6,R,301.0
59,0,602.1666666666666,B3,L,301.0833333333333
88,64,602.25,E6,R,301.125
45,57,602.3333333333334,A2,L,301.1666666666667
88,0,602.5,E6,R,301.25
88,64,602.5,E6,R,301.25
45,0,602.5,A2,L,301.25
45,57,602.5,A2,L,301.25
88,0,602.5833333333334,E6,R,301.2916666666667
49,51,602.5833333333334,C#3,R,301.2916666666667
90,67,602.6666666666666,F#6,R,301.3333333333333
49,51,602.6666666666666,C#3,R,301.3333333333333
49,0,602.6666666666667,C#3,R,301.33333333333337
45,0,602.75,A2,L,301.375
52,51,602.75,E3,L,301.375
49,0,602.8333333333333,C#3,R,301.41666666666663
90,0,602.8333333333333,F#6,R,301.41666666666663
88,74,602.8333333333334,E6,R,301.4166666666667
87,74,603.0,D#6,R,301.5
88,0,603.0,E6,R,301.5
52,0,603.0,E3,L,301.5
55,63,603.0,G3,L,301.5
88,74,603.2,E6,R,301.6
87,0,603.2,D#6,R,301.6
55,0,603.2,G3,L,301.6
45,60,603.2,A2,L,301.6
90,82,603.4,F#6,R,301.7
49,51,603.4,C#3,L,301.7
88,0,603.4000000000001,E6,R,301.70000000000005
45,0,603.4000000000001,A2,L,301.70000000000005
52,42,603.6,E3,L,301.8
90,0,603.6,F#6,R,301.8
91,74,603.6,G6,R,301.8
49,0,603.6,C#3,L,301.8
55,66,603.8,G3,L,301.9
90,84,603.8,F#6,R,301.9
52,0,603.8000000000001,E3,L,301.90000000000003
91,0,603.8000000000001,G6,R,301.90000000000003
90,0,604.0,F#6,R,302.0
88,74,604.0,E6,R,302.0
55,0,604.0,G3,L,302.0
45,56,604.0,A2,L,302.0
86,71,604.1875,D6,R,302.09375
86,0,604.25,D6,R,302.125
86,71,604.25,D6,R,302.125
49,54,604.25,C#3,R,302.125
88,0,604.25,E6,R,302.125
45,0,604.5,A2,L,302.25
49,0,604.5,C#3,R,302.25
85,68,604.5,C#6,R,302.25
52,45,604.5,E3,L,302.25
52,0,604.625,E3,L,302.3125
85,0,604.625,C#6,R,302.3125
83,76,604.625,B5,R,302.3125
55,66,604.625,G3,L,302.3125
83,0,604.75,B5,R,302.375
81,77,604.75,A5,R,302.375
86,0,605.0,D6,R,302.5
45,55,605.0,A2,R,302.5
55,0,605.0,G3,L,302.5
81,0,605.0,A5,R,302.5
49,49,605.1,C#3,L,302.55
79,71,605.125,G5,R,302.5625
49,0,605.2,C#3,L,302.6
78,79,605.2,F#5,L,302.6
49,49,605.2,C#3,L,302.6
79,0,605.25,G5,R,302.625
52,47,605.25,E3,R,302.625
45,0,605.375,A2,R,302.6875
76,70,605.375,E5,R,302.6875
52,0,605.375,E3,R,302.6875
78,0,605.4000000000001,F#5,L,302.70000000000005
49,0,605.4000000000001,C#3,L,302.70000000000005
55,61,605.4375,G3,R,302.71875
76,0,605.5,E5,R,302.75
55,0,605.5,G3,R,302.75
55,61,605.5,G3,R,302.75
74,75,605.5,D5,R,302.75
45,57,605.6,A2,L,302.8
73,71,605.75,C#5,R,302.875
55,0,605.75,G3,R,302.875
74,0,605.75,D5,R,302.875
49,55,605.8,C#3,L,302.9
45,57,605.8,A2,L,302.9
45,0,605.8000000000001,A2,L,302.90000000000003
52,53,606.0,E3,L,303.0
49,0,606.0,C#3,L,303.0
45,0,606.0,A2,L,303.0
73,0,606.0,C#5,R,303.0
71,73,606.0,B4,R,303.0
55,58,606.2,G3,L,303.1
52,0,606.2,E3,L,303.1
69,76,606.2,A4,R,303.1
71,0,606.2,B4,R,303.1
67,79,606.4,G4,R,303.2
45,62,606.4,A2,L,303.2
55,0,606.4000000000001,G3,L,303.20000000000005
69,0,606.4000000000001,A4,R,303.20000000000005
52,65,606.6,E3,L,303.3
45,0,606.6,A2,L,303.3
66,82,606.6,F#4,R,303.3
67,0,606.6,G4,R,303.3
55,68,606.8,G3,L,303.4
64,75,606.8,E4,R,303.4
66,0,606.8000000000001,F#4,R,303.40000000000003
52,0,606.8000000000001,E3,L,303.40000000000003
64,0,607.0,E4,R,303.5
55,0,607.0,G3,L,303.5
47,68,607.0833333333334,B2,L,303.5416666666667
62,76,607.125,D4,R,303.5625
47,68,607.3333333333334,B2,L,303.6666666666667
47,0,607.3333333333334,B2,L,303.6666666666667
50,65,607.3333333333334,D3,L,303.6666666666667
64,74,607.375,E4,R,303.6875
62,78,607.5,D4,R,303.75
47,0,607.5,B2,L,303.75
64,0,607.5,E4,R,303.75
64,74,607.5,E4,R,303.75
50,0,607.5,D3,L,303.75
50,65,607.5,D3,L,303.75
62,0,607.5,D4,R,303.75
50,0,607.75,D3,L,303.875
61,70,607.75,C#4,L,303.875
54,62,607.75,F#3,R,303.875
62,0,607.75,D4,R,303.875
47,66,608.0,B2,L,304.0
64,0,608.0,E4,R,304.0
54,0,608.0,F#3,R,304.0
61,0,608.0,C#4,L,304.0
50,55,608.1666666666666,D3,R,304.0833333333333
47,0,608.25,B2,L,304.125
62,79,608.25,D4,L,304.125
50,0,608.3333333333333,D3,R,304.16666666666663
64,82,608.3333333333334,E4,R,304.1666666666667
62,0,608.5,D4,L,304.25
64,0,608.5,E4,R,304.25
54,66,608.5,F#3,R,304.25
66,87,608.5833333333334,F#4,L,304.2916666666667
47,66,608.6666666666666,B2,L,304.3333333333333
66,0,608.6666666666667,F#4,L,304.33333333333337
67,87,608.75,G4,R,304.375
54,0,608.875,F#3,R,304.4375
50,60,608.875,D3,R,304.4375
47,0,609.0,B2,L,304.5
69,86,609.0,A4,R,304.5
50,60,609.0,D3,R,304.5
50,0,609.0,D3,R,304.5
54,62,609.0,F#3,L,304.5
67,0,609.0,G4,R,304.5
71,81,609.25,B4,R,304.625
69,0,609.25,A4,R,304.625
50,0,609.25,D3,R,304.625
54,0,609.25,F#3,L,304.625
43,67,609.25,G2,L,304.625
71,0,609.5,B4,R,304.75
73,82,609.5,C#5,R,304.75
50,75,609.625,D3,R,304.8125
50,0,609.75,D3,R,304.875
74,81,609.75,D5,R,304.875
73,0,609.75,C#5,R,304.875
52,70,609.8125,E3,R,304.90625
43,0,610.0,G2,L,305.0
52,0,610.0,E3,R,305.0
76,79,610.0,E5,R,305.0
74,0,610.0,D5,R,305.0
43,67,610.0,G2,L,305.0
78,89,610.125,F#5,R,305.0625
78,0,610.25,F#5,R,305.125
78,89,610.25,F#5,R,305.125
50,77,610.25,D3,R,305.125
76,0,610.5,E5,R,305.25
43,0,610.5,G2,L,305.25
79,82,610.5,G5,R,305.25
78,0,610.5,F#5,R,305.25
50,0,610.5,D3,R,305.25
81,83,610.5833333333334,A5,L,305.2916666666667
52,73,610.625,E3,R,305.3125
81,83,610.6666666666666,A5,L,305.3333333333333
43,71,610.6666666666666,G2,L,305.3333333333333
81,0,610.6666666666667,A5,L,305.33333333333337
52,0,610.75,E3,R,305.375
83,83,610.75,B5,R,305.375
81,0,610.8333333333333,A5,L,305.41666666666663
43,0,610.8333333333333,G2,L,305.41666666666663
43,71,610.8333333333334,G2,L,305.4166666666667
50,74,610.8333333333334,D3,L,305.4166666666667
79,0,611.0,G5,R,305.5
52,69,611.0,E3,L,305.5
43,0,611.0,G2,L,305.5
83,0,611.0,B5,R,305.5
50,0,611.0,D3,L,305.5
85,84,611.0,C#6,R,305.5
52,0,611.1666666666666,E3,L,305.5833333333333
86,88,611.2083333333334,D6,L,305.6041666666667
86,0,611.25,D6,L,305.625
86,88,611.25,D6,L,305.625
85,0,611.3333333333334,C#6,R,305.6666666666667
83,87,611.3333333333334,B5,R,305.6666666666667
86,0,611.5,D6,L,305.75
45,92,611.5,A2,L,305.75
83,0,611.5,B5,R,305.75
50,91,611.5,D3,L,305.75
54,92,611.5,F#3,L,305.75
81,98,611.5,A5,R,305.75
45,0,612.0,A2,L,306.0
54,0,612.0,F#3,L,306.0
50,0,612.0,D3,L,306.0
81,0,612.0,A5,R,306.0
85,96,613.5625,C#6,R,306.78125
79,59,613.59375,G5,R,306.796875
73,88,613.59375,C#5,R,306.796875
76,72,613.59375,E5,R,306.796875
73,0,613.625,C#5,R,306.8125
76,0,613.625,E5,R,306.8125
73,88,613.625,C#5,R,306.8125
76,72,613.625,E5,R,306.8125
79,59,613.625,G5,R,306.8125
45,96,613.625,A2,L,306.8125
79,0,613.625,G5,R,306.8125
33,102,613.625,A1,L,306.8125
85,0,613.75,C#6,R,306.875
73,0,614.0,C#5,R,307.0
76,0,614.0,E5,R,307.0
79,0,614.0,G5,R,307.0
33,0,614.0,A1,L,307.0
45,0,614.0,A2,L,307.0
38,77,615.75,D2,L,307.875
74,98,615.75,D5,R,307.875
38,77,616.0,D2,L,308.0
74,98,616.0,D5,R,308.0
73,74,616.0,C#5,R,308.0
38,0,616.0,D2,L,308.0
74,0,616.0,D5,R,308.0
37,67,616.0833333333334,C#2,L,308.0416666666667
38,0,616.0833333333334,D2,L,308.0416666666667
73,0,616.25,C#5,R,308.125
71,71,616.25,B4,R,308.125
35,65,616.3333333333334,B1,L,308.1666666666667
71,0,616.3333333333334,B4,R,308.1666666666667
69,80,616.3333333333334,A4,R,308.1666666666667
33,81,616.3333333333334,A1,L,308.1666666666667
37,0,616.3333333333334,C#2,L,308.1666666666667
35,0,616.5,B1,L,308.25
33,0,616.5,A1,L,308.25
69,0,616.5,A4,R,308.25
43,75,616.75,G2,L,308.375
79,83,616.8125,G5,R,308.40625
74,0,617.0,D5,R,308.5
79,0,617.0,G5,R,308.5
43,0,617.0,G2,L,308.5
78,93,617.125,F#5,R,308.5625
42,85,617.125,F#2,L,308.5625
76,89,617.375,E5,R,308.6875
42,0,617.375,F#2,L,308.6875
40,82,617.375,E2,L,308.6875
78,0,617.375,F#5,R,308.6875
76,0,617.5,E5,R,308.75
40,0,617.5,E2,L,308.75
74,99,617.75,D5,R,308.875
78,92,617.75,F#5,R,308.875
81,103,617.75,A5,R,308.875
45,101,617.75,A2,L,308.875
74,0,618.0,D5,R,309.0
78,0,618.0,F#5,R,309.0
81,0,618.0,A5,R,309.0
45,0,618.0,A2,L,309.0
33,104,619.25,A1,L,309.625
40,90,619.25,E2,L,309.625
85,100,619.25,C#6,R,309.625
81,52,619.25,A5,R,309.625
45,96,619.25,A2,L,309.625
73,96,619.25,C#5,R,309.625
37,88,619.25,C#2,L,309.625
76,82,619.25,E5,R,309.625
33,0,620.0,A1,L,310.0
37,0,620.0,C#2,L,310.0
40,0,620.0,E2,L,310.0
38,94,620.0,D2,L,310.0
42,98,620.0,F#2,L,310.0
45,0,620.0,A2,L,310.0
86,105,620.0,D6,R,310.0
81,90,620.0,A5,R,310.0
74,102,620.0,D5,R,310.0
85,0,620.0,C#6,R,310.0
81,0,620.0,A5,R,310.0
76,0,620.0,E5,R,310.0
73,0,620.0,C#5,R,310.0
78,99,620.0,F#5,R,310.0
45,96,620.0,A2,L,310.0
50,98,620.0,D3,L,310.0
86,0,621.0,D6,R,310.5
38,0,621.0,D2,L,310.5
42,0,621.0,F#2,L,310.5
81,0,621.0,A5,R,310.5
45,0,621.0,A2,L,310.5
78,0,621.0,F#5,R,310.5
74,0,621.0,D5,R,310.5
50,0,621.0,D3,L,310.5
69,47,670.0,A4,R,335.0
50,30,671.0,D3,L,335.5
57,30,671.0,A3,R,335.5
53,34,671.0,F3,L,335.5
69,0,672.0,A4,R,336.0
50,0,672.0,D3,L,336.0
57,0,672.0,A3,R,336.0
69,47,672.0,A4,R,336.0
53,0,672.0,F3,L,336.0
57,34,673.0,A3,R,336.5
50,38,673.0,D3,L,336.5
53,31,673.0,F3,L,336.5
57,0,673.75,A3,R,336.875
70,55,673.75,A#4,R,336.875
69,0,674.0,A4,R,337.0
53,0,674.0,F3,L,337.0
69,58,674.0,A4,R,337.0
50,0,674.0,D3,L,337.0
70,0,674.0,A#4,R,337.0
69,0,674.3333333333334,A4,R,337.1666666666667
67,57,674.3333333333334,G4,R,337.1666666666667
50,32,674.5,D3,L,337.25
57,21,674.5,A3,L,337.25
53,33,674.5,F3,L,337.25
65,45,674.6666666666666,F4,R,337.3333333333333
67,0,674.6666666666667,G4,R,337.33333333333337
65,0,675.0,F4,R,337.5
65,45,675.0,F4,R,337.5
65,0,676.0,F4,R,338.0
65,45,676.0,F4,R,338.0
57,0,676.0,A3,L,338.0
53,0,676.0,F3,L,338.0
50,0,676.0,D3,L,338.0
74,49,676.0,D5,R,338.0
53,34,676.5,F3,L,338.25
65,0,676.5,F4,R,338.25
57,26,676.5,A3,R,338.25
50,32,676.5,D3,L,338.25
50,0,677.0,D3,L,338.5
57,0,677.0,A3,R,338.5
53,0,677.0,F3,L,338.5
74,0,677.0,D5,R,338.5
50,33,678.0,D3,L,339.0
53,31,678.0,F3,L,339.0
69,42,678.0,A4,R,339.0
57,28,678.5,A3,R,339.25
53,0,679.0,F3,L,339.5
57,0,679.0,A3,R,339.5
50,0,679.0,D3,L,339.5
50,31,680.0,D3,L,340.0
53,33,680.0,F3,L,340.0
69,0,680.0,A4,R,340.0
57,25,680.0,A3,R,340.0
50,0,681.0,D3,L,340.5
53,0,681.0,F3,L,340.5
57,0,681.0,A3,R,340.5
50,25,682.0,D3,L,341.0
53,27,682.0,F3,L,341.0
57,18,682.0,A3,R,341.0
57,0,683.0,A3,R,341.5
53,0,683.0,F3,L,341.5
50,0,683.0,D3,L,341.5
50,11,683.5,D3,L,341.75
57,17,683.5,A3,R,341.75
53,25,683.5,F3,L,341.75
57,0,684.0,A3,R,342.0
53,0,684.0,F3,L,342.0
50,0,684.0,D3,L,342.0
53,31,698.0,F3,L,349.0
68,46,698.0,G#4,R,349.0
56,36,699.0,G#3,L,349.5
50,36,699.0,D3,L,349.5
59,25,699.0,B3,R,349.5
68,46,700.0,G#4,R,350.0
50,0,700.0,D3,L,350.0
68,0,700.0,G#4,R,350.0
56,0,700.0,G#3,L,350.0
59,0,700.0,B3,R,350.0
53,0,700.0,F3,L,350.0
50,33,700.5,D3,L,350.25
56,30,700.5,G#3,L,350.25
53,29,700.5,F3,L,350.25
59,24,700.5,B3,R,350.25
59,0,701.0,B3,R,350.5
50,0,701.0,D3,L,350.5
56,0,701.0,G#3,L,350.5
53,0,701.0,F3,L,350.5
70,51,701.25,A#4,R,350.625
70,0,701.5,A#4,R,350.75
68,56,701.5,G#4,R,350.75
68,0,701.5,G#4,R,350.75
67,57,701.75,G4,R,350.875
68,0,702.0,G#4,R,351.0
67,57,702.0,G4,R,351.0
67,0,702.0,G4,R,351.0
50,32,702.0,D3,L,351.0
53,28,702.0,F3,L,351.0
65,49,702.0,F4,R,351.0
59,22,702.0,B3,L,351.0
56,29,702.0,G#3,L,351.0
59,0,703.0,B3,L,351.5
67,0,703.0,G4,R,351.5
50,0,703.0,D3,L,351.5
53,0,703.0,F3,L,351.5
56,0,703.0,G#3,L,351.5
65,0,704.0,F4,R,352.0
77,55,704.0,F5,R,352.0
56,24,704.0,G#3,L,352.0
53,29,704.0,F3,L,352.0
50,30,704.0,D3,L,352.0
59,16,704.5,B3,R,352.25
56,0,705.0,G#3,L,352.5
53,0,705.0,F3,L,352.5
50,0,705.0,D3,L,352.5
77,0,705.0,F5,R,352.5
59,0,705.0,B3,R,352.5
68,44,706.0,G#4,R,353.0
50,25,706.0,D3,L,353.0
53,26,706.0,F3,L,353.0
56,21,706.0,G#3,L,353.0
59,10,706.5,B3,R,353.25
59,0,707.0,B3,R,353.5
50,0,707.0,D3,L,353.5
53,0,707.0,F3,L,353.5
56,0,707.0,G#3,L,353.5
56,25,707.5,G#3,L,353.75
59,28,707.5,B3,R,353.75
53,24,707.5,F3,L,353.75
50,34,707.5,D3,L,353.75
50,0,708.0,D3,L,354.0
53,24,708.0,F3,L,354.0
59,0,708.0,B3,R,354.0
56,25,708.0,G#3,L,354.0
59,28,708.0,B3,R,354.0
68,0,708.0,G#4,R,354.0
56,0,708.0,G#3,L,354.0
53,0,708.0,F3,L,354.0
68,44,708.0,G#4,R,354.0
50,34,708.0,D3,L,354.0
59,0,709.0,B3,R,354.5
50,0,709.0,D3,L,354.5
56,0,709.0,G#3,L,354.5
53,0,709.0,F3,L,354.5
50,23,709.25,D3,L,354.625
59,10,709.25,B3,R,354.625
53,21,709.25,F3,L,354.625
56,23,709.25,G#3,L,354.625
59,0,710.0,B3,R,355.0
53,0,710.0,F3,L,355.0
56,0,710.0,G#3,L,355.0
50,0,710.0,D3,L,355.0
56,22,711.0,G#3,L,355.5
53,23,711.0,F3,L,355.5
50,27,711.0,D3,L,355.5
59,22,711.0,B3,R,355.5
56,0,712.0,G#3,L,356.0
50,0,712.0,D3,L,356.0
53,0,712.0,F3,L,356.0
68,0,712.0,G#4,R,356.0
59,0,712.0,B3,R,356.0
82,55,727.0,A#5,R,363.5
60,30,727.5,C4,R,363.75
52,32,727.5,E3,L,363.75
55,35,727.5,G3,L,363.75
58,36,727.5,A#3,L,363.75
55,35,728.0,G3,L,364.0
82,0,728.0,A#5,R,364.0
60,0,728.0,C4,R,364.0
82,55,728.0,A#5,R,364.0
60,30,728.0,C4,R,364.0
52,0,728.0,E3,L,364.0
55,0,728.0,G3,L,364.0
52,32,728.0,E3,L,364.0
58,0,728.0,A#3,L,364.0
58,36,728.0,A#3,L,364.0
58,0,729.0,A#3,L,364.5
52,0,729.0,E3,L,364.5
52,29,729.0,E3,L,364.5
60,16,729.0,C4,R,364.5
55,28,729.0,G3,L,364.5
58,27,729.0,A#3,L,364.5
60,0,729.0,C4,R,364.5
55,0,729.0,G3,L,364.5
52,0,730.0,E3,L,365.0
55,0,730.0,G3,L,365.0
58,0,730.0,A#3,L,365.0
82,0,730.0,A#5,R,365.0
60,0,730.0,C4,R,365.0
84,54,730.25,C6,R,365.125
84,54,730.5,C6,R,365.25
84,0,730.5,C6,R,365.25
84,0,730.5833333333334,C6,R,365.2916666666667
82,62,730.5833333333334,A#5,R,365.2916666666667
81,60,730.8333333333334,A5,R,365.4166666666667
82,0,730.8333333333334,A#5,R,365.4166666666667
79,55,731.0,G5,R,365.5
81,0,731.0,A5,R,365.5
55,24,731.0,G3,L,365.5
52,20,731.0,E3,L,365.5
58,27,731.0,A#3,L,365.5
60,12,731.0,C4,L,365.5
60,0,732.0,C4,L,366.0
79,55,732.0,G5,R,366.0
55,0,732.0,G3,L,366.0
79,0,732.0,G5,R,366.0
58,0,732.0,A#3,L,366.0
52,0,732.0,E3,L,366.0
79,0,733.0,G5,R,366.5
52,29,733.0,E3,L,366.5
55,25,733.0,G3,L,366.5
58,23,733.0,A#3,L,366.5
84,50,733.0,C6,R,366.5
60,11,733.25,C4,R,366.625
60,0,734.0,C4,R,367.0
52,0,734.0,E3,L,367.0
55,0,734.0,G3,L,367.0
81,40,734.0,A5,R,367.0
58,0,734.0,A#3,L,367.0
84,0,734.0,C6,R,367.0
60,26,735.0,C4,R,367.5
57,23,735.0,A3,L,367.5
53,26,735.0,F3,L,367.5
60,0,736.0,C4,R,368.0
57,0,736.0,A3,L,368.0
53,0,736.0,F3,L,368.0
81,0,736.0,A5,R,368.0
60,29,736.5,C4,R,368.25
57,27,736.5,A3,L,368.25
53,30,736.5,F3,L,368.25
60,0,737.0,C4,R,368.5
57,0,737.0,A3,L,368.5
53,0,737.0,F3,L,368.5
60,22,738.0,C4,R,369.0
57,27,738.25,A3,L,369.125
53,22,738.25,F3,L,369.125
60,0,739.0,C4,R,369.5
53,0,739.0,F3,L,369.5
57,0,739.0,A3,L,369.5
60,22,740.0,C4,R,370.0
53,20,740.0,F3,L,370.0
57,24,740.0,A3,L,370.0
60,0,741.0,C4,R,370.5
53,0,741.0,F3,L,370.5
57,0,741.0,A3,L,370.5
57,41,756.0,A3,L,378.0
79,54,756.0,G5,R,378.0
64,32,756.0,E4,L,378.0
61,22,756.0,C#4,L,378.0
67,42,757.0,G4,R,378.5
67,32,758.0,G4,R,379.0
64,0,758.0,E4,L,379.0
57,30,758.0,A3,L,379.0
61,23,758.0,C#4,L,379.0
64,29,758.0,E4,L,379.0
67,0,758.0,G4,R,379.0
57,0,758.0,A3,L,379.0
61,0,758.0,C#4,L,379.0
67,0,759.0,G4,R,379.5
79,0,759.0,G5,R,379.5
57,0,759.0,A3,L,379.5
61,0,759.0,C#4,L,379.5
64,0,759.0,E4,L,379.5
81,42,759.0833333333334,A5,R,379.5416666666667
81,0,759.3333333333334,A5,R,379.6666666666667
79,60,759.3333333333334,G5,R,379.6666666666667
79,0,759.5,G5,R,379.75
77,56,759.5833333333334,F5,R,379.7916666666667
77,0,759.8333333333334,F5,R,379.9166666666667
76,57,759.8333333333334,E5,R,379.9166666666667
57,32,760.0,A3,L,380.0
61,22,760.0,C#4,L,380.0
64,21,760.0,E4,L,380.0
76,0,760.0,E5,R,380.0
76,57,760.0,E5,R,380.0
67,33,760.0,G4,L,380.0
61,0,761.0,C#4,L,380.5
57,0,761.0,A3,L,380.5
64,0,761.0,E4,L,380.5
67,0,761.0,G4,L,380.5
81,50,761.5,A5,R,380.75
76,57,761.5,E5,R,380.75
76,0,761.5,E5,R,380.75
61,21,761.75,C#4,L,380.875
57,26,761.75,A3,L,380.875
64,27,761.75,E4,L,380.875
67,23,762.0,G4,R,381.0
76,0,762.0,E5,R,381.0
57,0,762.0,A3,L,381.0
64,0,762.0,E4,L,381.0
81,0,762.0,A5,R,381.0
64,27,762.0,E4,L,381.0
57,26,762.0,A3,L,381.0
61,0,762.0,C#4,L,381.0
57,0,763.0,A3,L,381.5
64,0,763.0,E4,L,381.5
62,33,763.0,D4,L,381.5
67,0,763.0,G4,R,381.5
74,44,763.0,D5,R,381.5
65,29,763.5,F4,R,381.75
62,33,764.0,D4,L,382.0
74,44,764.0,D5,R,382.0
74,0,764.0,D5,R,382.0
65,0,764.0,F4,R,382.0
62,0,764.0,D4,L,382.0
65,29,764.0,F4,R,382.0
65,0,765.0,F4,R,382.5
74,0,765.0,D5,R,382.5
62,0,765.0,D4,L,382.5
74,44,766.0,D5,R,383.0
65,34,766.0,F4,L,383.0
69,36,766.5,A4,R,383.25
74,0,767.0,D5,R,383.5
65,0,767.0,F4,L,383.5
69,0,767.0,A4,R,383.5
65,54,768.0,F4,L,384.0
74,72,768.0,D5,R,384.0
69,50,768.5,A4,R,384.25
65,0,769.0,F4,L,384.5
69,0,769.0,A4,R,384.5
74,0,769.0,D5,R,384.5
74,79,770.0,D5,R,385.0
65,55,770.0,F4,L,385.0
69,54,770.5,A4,R,385.25
74,0,771.0,D5,R,385.5
69,0,771.0,A4,R,385.5
65,0,771.0,F4,L,385.5
74,52,772.0,D5,R,386.0
65,31,772.0,F4,L,386.0
69,28,773.0,A4,R,386.5
69,28,776.0,A4,R,388.0
74,52,776.0,D5,R,388.0
69,0,776.0,A4,R,388.0
65,0,776.0,F4,L,388.0
65,31,776.0,F4,L,388.0
74,0,776.0,D5,R,388.0
69,0,779.0,A4,R,389.5
65,0,779.0,F4,L,389.5
67,43,780.0,G4,R,390.0
74,0,780.0,D5,R,390.0
73,56,780.0,C#5,L,390.0
69,36,780.0,A4,R,390.0
64,41,780.5,E4,L,390.25
64,41,782.0,E4,L,391.0
64,0,782.0,E4,L,391.0
69,36,784.0,A4,R,392.0
64,0,784.0,E4,L,392.0
67,43,784.0,G4,R,392.0
64,41,784.0,E4,L,392.0
69,0,784.0,A4,R,392.0
67,0,784.0,G4,R,392.0
73,0,784.0,C#5,L,392.0
73,56,784.0,C#5,L,392.0
74,59,784.6666666666666,D5,R,392.3333333333333
73,0,785.0,C#5,L,392.5
74,0,785.3333333333333,D5,R,392.66666666666663
76,66,785.3333333333334,E5,R,392.6666666666667
64,0,786.0,E4,L,393.0
65,35,786.0,F4,L,393.0
69,0,786.0,A4,R,393.0
67,0,786.0,G4,R,393.0
76,66,786.0,E5,R,393.0
76,0,786.0,E5,R,393.0
62,40,786.0,D4,L,393.0
77,70,786.0,F5,R,393.0
69,39,787.0,A4,R,393.5
76,0,787.0,E5,R,393.5
62,0,788.0,D4,L,394.0
69,39,788.0,A4,R,394.0
77,70,788.0,F5,R,394.0
77,0,788.0,F5,R,394.0
65,0,788.0,F4,L,394.0
62,40,788.0,D4,L,394.0
65,35,788.0,F4,L,394.0
69,0,788.0,A4,R,394.0
69,0,790.0,A4,R,395.0
79,62,790.0,G5,R,395.0
69,39,790.0,A4,R,395.0
77,0,791.0,F5,R,395.5
77,74,791.0,F5,R,395.5
77,0,792.0,F5,R,396.0
79,0,792.0,G5,R,396.0
69,0,792.0,A4,R,396.0
77,74,792.0,F5,R,396.0
65,0,792.0,F4,L,396.0
62,0,792.0,D4,L,396.0
76,66,793.0,E5,R,396.5
61,42,794.0,C#4,L,397.0
64,47,794.0,E4,L,397.0
69,42,794.0,A4,R,397.0
76,0,794.0,E5,R,397.0
77,0,794.0,F5,R,397.0
57,42,794.0,A3,L,397.0
76,66,794.0,E5,R,397.0
69,0,795.0,A4,R,397.5
64,0,795.0,E4,L,397.5
76,66,795.0,E5,R,397.5
76,0,795.0,E5,R,397.5
57,44,796.0,A3,L,398.0
64,45,796.0,E4,R,398.0
61,44,796.0,C#4,L,398.0
55,50,796.0,G3,L,398.0
76,66,796.0,E5,R,398.0
61,0,796.0,C#4,L,398.0
57,0,796.0,A3,L,398.0
76,0,796.0,E5,R,398.0
77,74,798.0,F5,R,399.0
76,66,798.0,E5,R,399.0
76,0,798.0,E5,R,399.0
76,0,799.0,E5,R,399.5
77,0,799.0,F5,R,399.5
77,74,799.0,F5,R,399.5
79,80,799.0,G5,R,399.5
57,0,800.0,A3,L,400.0
61,0,800.0,C#4,L,400.0
64,0,800.0,E4,R,400.0
79,0,800.0,G5,R,400.0
53,55,800.0,F3,L,400.0
79,80,800.0,G5,R,400.0
81,82,800.0,A5,R,400.0
55,0,800.0,G3,L,400.0
57,54,800.0,A3,L,400.0
77,0,800.0,F5,R,400.0
62,57,801.0,D4,R,400.5
79,0,801.0,G5,R,400.5
62,0,802.0,D4,R,401.0
57,0,802.0,A3,L,401.0
53,0,802.0,F3,L,401.0
81,0,802.0,A5,R,401.0
53,65,803.5,F3,L,401.75
65,69,803.5,F4,R,401.75
65,0,804.0,F4,R,402.0
65,69,804.0,F4,R,402.0
53,65,804.0,F3,L,402.0
53,0,804.0,F3,L,402.0
53,0,805.0,F3,L,402.5
65,0,805.0,F4,R,402.5
53,63,805.5,F3,L,402.75
81,78,805.5,A5,R,402.75
41,62,805.5,F2,L,402.75
69,59,805.5,A4,R,402.75
69,0,806.0,A4,R,403.0
41,0,806.0,F2,L,403.0
53,0,806.0,F3,L,403.0
81,0,806.0,A5,R,403.0
71,62,807.0,B4,R,403.5
83,83,807.0,B5,R,403.5
40,64,807.0,E2,L,403.5
52,63,807.0,E3,L,403.5
40,0,808.0,E2,L,404.0
83,0,808.0,B5,R,404.0
71,0,808.0,B4,R,404.0
52,0,808.0,E3,L,404.0
85,91,808.5,C#6,R,404.25
33,80,808.5,A1,L,404.25
73,73,808.5,C#5,R,404.25
45,76,808.5,A2,L,404.25
85,0,810.0,C#6,R,405.0
73,0,810.0,C#5,R,405.0
45,0,810.0,A2,L,405.0
88,86,810.0,E6,R,405.0
76,69,810.0,E5,R,405.0
33,0,810.0,A1,L,405.0
38,63,810.25,D2,L,405.125
50,65,810.25,D3,L,405.125
76,0,811.0,E5,R,405.5
50,0,811.0,D3,L,405.5
38,0,811.0,D2,L,405.5
88,0,811.0,E6,R,405.5
74,46,812.0,D5,L,406.0
86,71,812.0,D6,R,406.0
32,43,812.5,G#1,L,406.25
44,39,812.5,G#2,R,406.25
32,0,813.0,G#1,L,406.5
74,0,813.0,D5,L,406.5
44,0,813.0,G#2,R,406.5
86,0,813.0,D6,R,406.5
73,37,814.0,C#5,L,407.0
85,51,814.0,C#6,R,407.0
45,37,815.0,A2,R,407.5
33,44,815.0,A1,L,407.5
73,0,816.0,C#5,L,408.0
45,37,816.0,A2,R,408.0
45,0,816.0,A2,R,408.0
33,44,816.0,A1,L,408.0
85,0,816.0,C#6,R,408.0
33,0,816.0,A1,L,408.0
45,0,820.0,A2,R,410.0
33,0,820.0,A1,L,410.0
45,33,822.0,A2,R,411.0
38,36,822.0,D2,L,411.0
38,36,824.0,D2,L,412.0
45,0,824.0,A2,R,412.0
38,0,824.0,D2,L,412.0
45,33,824.0,A2,R,412.0
38,0,828.0,D2,L,414.0
45,0,828.0,A2,R,414.0
76,65,829.0,E5,R,414.5
33,46,830.0,A1,L,415.0
45,32,830.0,A2,R,415.0
77,54,832.0,F5,L,416.0
33,0,832.0,A1,L,416.0
45,32,832.0,A2,R,416.0
45,0,832.0,A2,R,416.0
76,0,832.0,E5,R,416.0
33,46,832.0,A1,L,416.0
77,0,832.25,F5,L,416.125
76,66,832.25,E5,L,416.125
74,69,832.5,D5,L,416.25
76,0,832.5,E5,L,416.25
76,72,833.0,E5,L,416.5
74,0,833.0,D5,L,416.5
81,79,834.0,A5,L,417.0
76,0,834.0,E5,L,417.0
81,79,836.0,A5,L,418.0
33,0,836.0,A1,L,418.0
81,0,836.0,A5,L,418.0
79,79,836.0,G5,L,418.0
45,32,836.0,A2,R,418.0
45,0,836.0,A2,R,418.0
33,46,836.0,A1,L,418.0
81,0,837.0,A5,L,418.5
79,0,837.0,G5,L,418.5
79,80,837.0,G5,L,418.5
33,0,837.0,A1,L,418.5
38,55,838.0,D2,L,419.0
77,91,838.0,F5,R,419.0
79,0,839.0,G5,L,419.5
33,67,840.0,A1,L,420.0
38,0,840.0,D2,L,420.0
38,55,840.0,D2,L,420.0
45,62,840.0,A2,L,420.0
76,86,840.0,E5,R,420.0
77,91,840.0,F5,R,420.0
45,0,840.0,A2,R,420.0
77,0,840.0,F5,R,420.0
77,0,841.0,F5,R,420.5
38,0,841.0,D2,L,420.5
45,0,841.0,A2,L,420.5
33,0,841.0,A1,L,420.5
33,67,841.0,A1,L,420.5
45,62,841.0,A2,L,420.5
76,86,842.0,E5,R,421.0
79,87,842.0,G5,R,421.0
76,0,842.0,E5,R,421.0
33,0,843.0,A1,L,421.5
76,0,843.0,E5,R,421.5
77,93,843.0,F5,R,421.5
45,0,843.0,A2,L,421.5
79,0,843.0,G5,R,421.5
34,91,844.0,A#1,L,422.0
46,98,844.0,A#2,L,422.0
77,0,844.0,F5,R,422.0
76,98,844.0,E5,R,422.0
76,0,845.0,E5,R,422.5
82,98,846.0,A#5,L,423.0
88,102,846.0,E6,R,423.0
79,94,846.0,G5,L,423.0
85,91,846.0,C#6,L,423.0
88,0,848.0,E6,R,424.0
85,0,848.0,C#6,L,424.0
88,102,848.0,E6,R,424.0
85,91,848.0,C#6,L,424.0
34,0,848.0,A#1,L,424.0
82,98,848.0,A#5,L,424.0
79,94,848.0,G5,L,424.0
79,0,848.0,G5,L,424.0
46,0,848.0,A#2,L,424.0
82,0,848.0,A#5,L,424.0
85,91,848.25,C#6,L,424.125
82,98,848.25,A#5,L,424.125
79,94,848.25,G5,L,424.125
34,77,848.25,A#1,L,424.125
85,0,848.25,C#6,L,424.125
46,83,848.25,A#2,R,424.125
82,0,848.25,A#5,L,424.125
79,0,848.25,G5,L,424.125
85,0,849.0,C#6,L,424.5
82,0,849.0,A#5,L,424.5
79,0,849.0,G5,L,424.5
34,0,849.0,A#1,L,424.5
46,0,849.0,A#2,R,424.5
49,79,849.0,C#3,R,424.5
85,91,849.0,C#6,L,424.5
82,98,849.0,A#5,L,424.5
79,94,849.0,G5,L,424.5
37,81,849.0,C#2,L,424.5
85,91,849.3333333333334,C#6,L,424.6666666666667
82,98,849.3333333333334,A#5,L,424.6666666666667
49,0,849.3333333333334,C#3,R,424.6666666666667
82,0,849.3333333333334,A#5,L,424.6666666666667
79,94,849.3333333333334,G5,L,424.6666666666667
85,0,849.3333333333334,C#6,L,424.6666666666667
79,0,849.3333333333334,G5,L,424.6666666666667
37,0,849.3333333333334,C#2,L,424.6666666666667
85,91,849.6666666666666,C#6,L,424.8333333333333
52,73,849.6666666666666,E3,R,424.8333333333333
82,98,849.6666666666666,A#5,L,424.8333333333333
79,94,849.6666666666666,G5,L,424.8333333333333
40,73,849.6666666666666,E2,L,424.8333333333333
85,0,849.6666666666667,C#6,L,424.83333333333337
82,0,849.6666666666667,A#5,L,424.83333333333337
79,0,849.6666666666667,G5,L,424.83333333333337
79,94,850.0,G5,L,425.0
85,0,850.0,C#6,L,425.0
82,0,850.0,A#5,L,425.0
52,0,850.0,E3,R,425.0
79,0,850.0,G5,L,425.0
40,0,850.0,E2,L,425.0
82,98,850.0,A#5,L,425.0
85,91,850.0,C#6,L,425.0
79,0,850.5,G5,L,425.25
82,0,850.5,A#5,L,425.25
85,91,850.5,C#6,L,425.25
55,63,850.5,G3,R,425.25
82,98,850.5,A#5,L,425.25
79,94,850.5,G5,L,425.25
43,57,850.5,G2,L,425.25
85,0,850.5,C#6,L,425.25
85,91,851.0,C#6,L,425.5
82,98,851.0,A#5,L,425.5
79,94,851.0,G5,L,425.5
46,65,851.0,A#2,L,425.5
82,0,851.0,A#5,L,425.5
79,0,851.0,G5,L,425.5
43,0,851.0,G2,L,425.5
85,0,851.0,C#6,L,425.5
58,64,851.0,A#3,R,425.5
55,0,851.0,G3,R,425.5
46,0,851.75,A#2,L,425.875
79,0,851.75,G5,L,425.875
82,0,851.75,A#5,L,425.875
58,0,851.75,A#3,R,425.875
79,94,851.75,G5,L,425.875
82,98,851.75,A#5,L,425.875
85,0,851.75,C#6,L,425.875
85,91,851.75,C#6,L,425.875
49,54,851.75,C#3,L,425.875
61,52,851.75,C#4,R,425.875
85,91,852.0,C#6,L,426.0
61,0,852.0,C#4,R,426.0
82,0,852.0,A#5,L,426.0
88,102,852.0,E6,R,426.0
82,98,852.0,A#5,L,426.0
88,0,852.0,E6,R,426.0
85,0,852.0,C#6,L,426.0
49,0,852.0,C#3,L,426.0
79,94,852.0,G5,L,426.0
79,0,852.0,G5,L,426.0
79,94,852.5,G5,L,426.25
82,0,852.5,A#5,L,426.25
85,0,852.5,C#6,L,426.25
52,55,852.5,E3,L,426.25
64,57,852.5,E4,R,426.25
82,98,852.5,A#5,L,426.25
85,91,852.5,C#6,L,426.25
79,0,852.5,G5,L,426.25
82,98,853.0,A#5,L,426.5
82,0,853.0,A#5,L,426.5
52,0,853.0,E3,L,426.5
79,94,853.0,G5,L,426.5
85,0,853.0,C#6,L,426.5
85,91,853.0,C#6,L,426.5
79,0,853.0,G5,L,426.5
64,0,853.0,E4,R,426.5
82,0,853.25,A#5,L,426.625
85,0,853.25,C#6,L,426.625
55,59,853.25,G3,L,426.625
79,94,853.25,G5,L,426.625
82,98,853.25,A#5,L,426.625
85,91,853.25,C#6,L,426.625
79,0,853.25,G5,L,426.625
67,57,853.25,G4,R,426.625
67,0,854.0,G4,R,427.0
82,0,854.0,A#5,L,427.0
55,0,854.0,G3,L,427.0
79,0,854.0,G5,L,427.0
85,91,854.0,C#6,L,427.0
85,0,854.0,C#6,L,427.0
69,60,854.0,A4,R,427.0
57,59,854.0,A3,L,427.0
82,98,854.0,A#5,L,427.0
79,94,854.0,G5,L,427.0
82,0,854.75,A#5,L,427.375
69,0,854.75,A4,R,427.375
57,0,854.75,A3,L,427.375
85,0,854.75,C#6,L,427.375
70,67,854.75,A#4,R,427.375
79,0,854.75,G5,L,427.375
58,65,854.75,A#3,L,427.375
79,94,854.75,G5,L,427.375
82,98,854.75,A#5,L,427.375
85,91,854.75,C#6,L,427.375
85,0,855.0,C#6,L,427.5
79,94,855.0,G5,L,427.5
82,0,855.0,A#5,L,427.5
58,0,855.0,A#3,L,427.5
79,0,855.0,G5,L,427.5
82,98,855.0,A#5,L,427.5
85,91,855.0,C#6,L,427.5
70,0,855.0,A#4,R,427.5
79,94,856.0,G5,L,428.0
85,0,856.0,C#6,L,428.0
88,102,856.0,E6,R,428.0
34,91,856.0,A#1,L,428.0
82,0,856.0,A#5,L,428.0
46,97,856.0,A#2,R,428.0
85,91,856.0,C#6,L,428.0
79,0,856.0,G5,L,428.0
82,98,856.0,A#5,L,428.0
88,0,856.0,E6,R,428.0
79,0,857.0,G5,L,428.5
85,0,857.0,C#6,L,428.5
82,0,857.0,A#5,L,428.5
88,0,857.0,E6,R,428.5
79,95,858.0,G5,L,429.0
82,95,858.0,A#5,L,429.0
85,93,858.0,C#6,L,429.0
88,101,858.0,E6,R,429.0
82,0,860.0,A#5,L,430.0
85,0,860.0,C#6,L,430.0
34,0,860.0,A#1,L,430.0
79,95,860.0,G5,L,430.0
88,0,860.0,E6,R,430.0
82,95,860.0,A#5,L,430.0
34,48,860.0,A#1,R,430.0
88,101,860.0,E6,R,430.0
79,0,860.0,G5,L,430.0
85,93,860.0,C#6,L,430.0
46,0,860.0,A#2,R,430.0
34,0,860.5,A#1,R,430.25
37,47,860.5,C#2,R,430.25
40,51,861.0,E2,R,430.5
37,0,861.0,C#2,R,430.5
40,0,861.25,E2,R,430.625
43,56,861.25,G2,R,430.625
43,0,861.5,G2,R,430.75
46,55,861.5,A#2,R,430.75
46,0,862.0,A#2,R,431.0
49,49,862.0,C#3,R,431.0
49,0,862.25,C#3,R,431.125
52,56,862.25,E3,R,431.125
52,0,862.5,E3,R,431.25
55,56,862.5625,G3,R,431.28125
55,0,862.75,G3,R,431.375
58,56,862.875,A#3,R,431.4375
58,0,863.0,A#3,R,431.5
58,56,863.0,A#3,R,431.5
61,51,863.0,C#4,R,431.5
58,0,863.5,A#3,R,431.75
61,0,863.5,C#4,R,431.75
64,46,863.5,E4,R,431.75
88,101,864.0,E6,R,432.0
82,95,864.0,A#5,L,432.0
67,49,864.0,G4,R,432.0
88,0,864.0,E6,R,432.0
79,95,864.0,G5,L,432.0
85,0,864.0,C#6,L,432.0
85,93,864.0,C#6,L,432.0
64,0,864.0,E4,R,432.0
82,0,864.0,A#5,L,432.0
79,0,864.0,G5,L,432.0
88,0,865.0,E6,R,432.5
67,0,865.0,G4,R,432.5
79,0,865.0,G5,L,432.5
85,0,865.0,C#6,L,432.5
82,0,865.0,A#5,L,432.5
34,37,865.75,A#1,L,432.875
46,42,865.75,A#2,L,432.875
85,40,865.75,C#6,R,432.875
88,53,865.75,E6,R,432.875
79,43,865.75,G5,R,432.875
88,0,866.0,E6,R,433.0
46,0,866.0,A#2,L,433.0
85,0,866.0,C#6,R,433.0
79,0,866.0,G5,R,433.0
85,40,866.0,C#6,R,433.0
79,43,866.0,G5,R,433.0
46,42,866.0,A#2,L,433.0
88,53,866.0,E6,R,433.0
34,0,866.0,A#1,L,433.0
34,37,866.0,A#1,L,433.0
79,0,867.0,G5,R,433.5
88,0,867.0,E6,R,433.5
46,0,867.0,A#2,L,433.5
34,0,867.0,A#1,L,433.5
85,0,867.0,C#6,R,433.5
88,51,867.75,E6,R,433.875
33,41,867.75,A1,L,433.875
45,33,867.75,A2,L,433.875
88,0,868.0,E6,R,434.0
89,52,868.0,F6,R,434.0
33,0,868.0,A1,L,434.0
45,0,868.0,A2,L,434.0
33,41,868.0,A1,L,434.0
89,0,868.5,F6,R,434.25
88,47,868.5,E6,R,434.25
88,0,868.75,E6,R,434.375
89,54,868.75,F6,R,434.375
89,0,869.0,F6,R,434.5
86,52,869.0,D6,R,434.5
33,0,869.0,A1,L,434.5
86,0,869.5,D6,R,434.75
88,48,869.5,E6,R,434.75
88,0,869.75,E6,R,434.875
86,49,869.75,D6,R,434.875
86,0,870.0,D6,R,435.0
88,49,870.0833333333334,E6,R,435.0416666666667
88,0,870.3333333333334,E6,R,435.1666666666667
33,47,870.375,A1,L,435.1875
45,37,870.375,A2,L,435.1875
85,56,870.4166666666666,C#6,R,435.2083333333333
85,0,870.5,C#6,R,435.25
33,0,870.5,A1,L,435.25
45,0,870.5,A2,L,435.25
33,47,870.5,A1,L,435.25
45,37,870.5,A2,L,435.25
85,56,870.5,C#6,R,435.25
86,62,870.75,D6,R,435.375
85,0,870.75,C#6,R,435.375
86,0,871.0,D6,R,435.5
33,0,871.0,A1,L,435.5
45,0,871.0,A2,L,435.5
85,48,871.1666666666666,C#6,R,435.5833333333333
85,0,871.3333333333333,C#6,R,435.66666666666663
86,51,871.3333333333334,D6,R,435.6666666666667
82,58,871.6666666666666,A#5,R,435.8333333333333
86,0,871.6666666666667,D6,R,435.83333333333337
82,0,872.0,A#5,R,436.0
84,51,872.0,C6,R,436.0
84,0,872.3333333333334,C6,R,436.1666666666667
82,51,872.3333333333334,A#5,R,436.1666666666667
84,47,872.5,C6,R,436.25
82,0,872.5,A#5,R,436.25
81,46,873.0,A5,R,436.5
84,0,873.0,C6,R,436.5
81,0,873.3333333333334,A5,R,436.6666666666667
82,45,873.3333333333334,A#5,R,436.6666666666667
82,0,873.5,A#5,R,436.75
81,48,873.625,A5,R,436.8125
82,43,874.0,A#5,R,437.0
81,0,874.0,A5,R,437.0
82,0,874.25,A#5,R,437.125
79,49,874.25,G5,R,437.125
79,0,874.5,G5,R,437.25
81,44,874.5833333333334,A5,R,437.2916666666667
81,0,874.8333333333334,A5,R,437.4166666666667
79,49,874.8333333333334,G5,R,437.4166666666667
79,0,875.0,G5,R,437.5
81,41,875.25,A5,R,437.625
81,0,875.5,A5,R,437.75
77,46,875.5833333333334,F5,R,437.7916666666667
77,0,875.8333333333334,F5,R,437.9166666666667
79,37,875.8333333333334,G5,R,437.9166666666667
79,0,876.0,G5,R,438.0
77,46,876.0,F5,R,438.0
79,37,876.0,G5,R,438.0
77,0,876.25,F5,R,438.125
79,0,876.25,G5,R,438.125
77,46,876.25,F5,R,438.125
77,0,876.4375,F5,R,438.21875
79,48,876.4375,G5,R,438.21875
79,0,876.5,G5,R,438.25
79,48,876.5,G5,R,438.25
79,0,876.75,G5,R,438.375
76,53,876.75,E5,R,438.375
76,0,877.0,E5,R,438.5
77,47,877.125,F5,R,438.5625
77,0,877.5,F5,R,438.75
76,49,877.5,E5,R,438.75
76,0,877.75,E5,R,438.875
77,41,877.75,F5,R,438.875
77,0,878.0,F5,R,439.0
74,59,878.0,D5,R,439.0
74,0,878.25,D5,R,439.125
76,40,878.375,E5,R,439.1875
76,0,878.5,E5,R,439.25
76,40,878.5,E5,R,439.25
76,0,878.75,E5,R,439.375
74,51,878.75,D5,R,439.375
74,0,878.875,D5,R,439.4375
76,40,878.9375,E5,R,439.46875
76,0,879.0,E5,R,439.5
73,57,879.25,C#5,R,439.625
73,0,879.5,C#5,R,439.75
74,54,879.625,D5,R,439.8125
74,0,879.875,D5,R,439.9375
73,51,879.875,C#5,R,439.9375
73,0,880.0,C#5,R,440.0
73,51,880.0,C#5,R,440.0
73,0,880.1875,C#5,R,440.09375
74,50,880.1875,D5,R,440.09375
74,0,880.25,D5,R,440.125
70,61,880.5,A#4,R,440.25
70,0,880.75,A#4,R,440.375
72,44,880.875,C5,R,440.4375
72,0,881.0,C5,R,440.5
72,44,881.0,C5,R,440.5
70,51,881.125,A#4,R,440.5625
72,0,881.125,C5,R,440.5625
72,44,881.375,C5,R,440.6875
70,0,881.375,A#4,R,440.6875
72,0,881.5,C5,R,440.75
69,53,881.75,A4,R,440.875
69,0,882.0,A4,R,441.0
70,44,882.1666666666666,A#4,R,441.0833333333333
70,0,882.3333333333333,A#4,R,441.16666666666663
69,49,882.3333333333334,A4,R,441.1666666666667
70,51,882.6666666666666,A#4,R,441.3333333333333
69,0,882.6666666666667,A4,R,441.33333333333337
68,55,883.0,G#4,R,441.5
70,0,883.0,A#4,R,441.5
69,45,883.25,A4,R,441.625
68,0,883.25,G#4,R,441.625
68,55,883.5,G#4,R,441.75
69,0,883.5,A4,R,441.75
69,42,883.8333333333334,A4,R,441.9166666666667
68,0,883.8333333333334,G#4,R,441.9166666666667
69,42,884.0,A4,R,442.0
69,0,884.0,A4,R,442.0
67,47,884.25,G4,R,442.125
69,0,884.25,A4,R,442.125
69,46,884.5,A4,R,442.25
67,0,884.5,G4,R,442.25
67,47,884.8333333333334,G4,R,442.4166666666667
69,0,884.8333333333334,A4,R,442.4166666666667
67,47,885.0,G4,R,442.5
67,0,885.0,G4,R,442.5
69,43,885.125,A4,R,442.5625
67,0,885.125,G4,R,442.5625
65,48,885.5,F4,R,442.75
69,0,885.5,A4,R,442.75
69,41,885.75,A4,R,442.875
65,0,885.75,F4,R,442.875
65,43,886.0,F4,R,443.0
69,0,886.0,A4,R,443.0
69,36,886.5,A4,R,443.25
65,0,886.5,F4,R,443.25
64,44,887.0,E4,R,443.5
69,0,887.0,A4,R,443.5
69,39,887.25,A4,R,443.625
64,0,887.25,E4,R,443.625
64,40,887.5,E4,R,443.75
69,0,887.5,A4,R,443.75
69,39,887.875,A4,R,443.9375
64,0,887.875,E4,R,443.9375
69,0,888.0,A4,R,444.0
69,41,888.75,A4,R,444.375
53,38,888.75,F3,L,444.375
53,0,889.0,F3,L,444.5
65,34,889.0,F4,R,444.5
57,30,889.0,A3,L,444.5
69,0,889.0,A4,R,444.5
57,0,889.25,A3,L,444.625
69,48,889.25,A4,R,444.625
65,0,889.25,F4,R,444.625
53,47,889.25,F3,L,444.625
65,37,889.5,F4,R,444.75
57,41,889.5,A3,L,444.75
69,0,889.5,A4,R,444.75
53,0,889.5,F3,L,444.75
69,50,889.75,A4,R,444.875
57,0,889.75,A3,L,444.875
53,43,889.75,F3,L,444.875
65,0,889.75,F4,R,444.875
65,43,889.875,F4,R,444.9375
69,0,890.0,A4,R,445.0
57,41,890.0,A3,R,445.0
65,0,890.0,F4,R,445.0
53,0,890.0,F3,L,445.0
65,43,890.0,F4,R,445.0
57,0,890.125,A3,R,445.0625
69,47,890.125,A4,R,445.0625
53,46,890.2,F3,L,445.1
69,0,890.375,A4,R,445.1875
65,36,890.375,F4,R,445.1875
57,41,890.4,A3,L,445.2
53,0,890.4000000000001,F3,L,445.20000000000005
65,0,890.5,F4,R,445.25
57,0,890.6,A3,L,445.3
53,26,890.6,F3,L,445.3
69,43,890.625,A4,R,445.3125
65,42,890.75,F4,R,445.375
69,0,890.75,A4,R,445.375
57,44,890.8,A3,L,445.4
53,0,890.8000000000001,F3,L,445.40000000000003
53,39,891.0,F3,L,445.5
65,0,891.0,F4,R,445.5
69,42,891.0,A4,R,445.5
65,0,891.0,F4,R,445.5
57,0,891.0,A3,L,445.5
69,0,891.25,A4,R,445.625
65,40,891.25,F4,R,445.625
65,0,891.2916666666666,F4,R,445.6458333333333
57,37,891.2916666666666,A3,R,445.6458333333333
65,40,891.2916666666666,F4,R,445.6458333333333
65,0,891.4166666666666,F4,R,445.7083333333333
57,0,891.4166666666666,A3,R,445.7083333333333
53,50,891.5,F3,L,445.75
69,42,891.5,A4,R,445.75
53,0,891.5,F3,L,445.75
65,41,891.75,F4,R,445.875
69,0,891.75,A4,R,445.875
57,40,891.8125,A3,R,445.90625
65,0,891.8125,F4,R,445.90625
69,36,891.9375,A4,R,445.96875
53,45,892.0,F3,L,446.0
69,36,892.0,A4,R,446.0
65,42,892.0,F4,R,446.0
69,0,892.0,A4,R,446.0
53,0,892.0,F3,L,446.0
57,0,892.0,A3,R,446.0
57,40,892.125,A3,L,446.0625
53,0,892.125,F3,L,446.0625
65,0,892.25,F4,R,446.125
69,40,892.375,A4,R,446.1875
53,44,892.375,F3,L,446.1875
57,0,892.375,A3,L,446.1875
69,0,892.5,A4,R,446.25
53,0,892.5,F3,L,446.25
65,40,892.625,F4,R,446.3125
57,37,892.625,A3,L,446.3125
65,0,892.75,F4,R,446.375
57,0,892.75,A3,L,446.375
69,39,892.75,A4,R,446.375
53,45,892.8125,F3,L,446.40625
69,0,893.0,A4,R,446.5
53,0,893.0,F3,L,446.5
65,41,893.0,F4,R,446.5
69,0,893.0,A4,R,446.5
57,41,893.0,A3,L,446.5
53,44,893.25,F3,L,446.625
57,0,893.25,A3,L,446.625
69,42,893.25,A4,R,446.625
65,0,893.25,F4,R,446.625
65,41,893.5,F4,R,446.75
69,0,893.5,A4,R,446.75
53,0,893.5,F3,L,446.75
57,38,893.5,A3,L,446.75
69,43,893.75,A4,R,446.875
65,0,893.75,F4,R,446.875
53,40,893.75,F3,L,446.875
57,0,893.75,A3,L,446.875
65,36,894.0,F4,R,447.0
57,38,894.0,A3,L,447.0
53,0,894.0,F3,L,447.0
69,0,894.0,A4,R,447.0
57,0,894.2,A3,L,447.1
65,0,894.2,F4,R,447.1
53,48,894.2,F3,L,447.1
69,45,894.2,A4,R,447.1
65,42,894.4,F4,R,447.2
57,38,894.4,A3,L,447.2
53,0,894.4000000000001,F3,L,447.20000000000005
69,0,894.4000000000001,A4,R,447.20000000000005
69,40,894.6,A4,R,447.3
65,0,894.6,F4,R,447.3
53,45,894.6,F3,L,447.3
57,0,894.6,A3,L,447.3
65,39,894.8,F4,R,447.4
69,0,894.8000000000001,A4,R,447.40000000000003
53,0,894.8000000000001,F3,L,447.40000000000003
57,40,894.9,A3,R,447.45
65,0,894.9,F4,R,447.45
69,42,895.0,A4,R,447.5
57,0,895.0,A3,R,447.5
53,41,895.0,F3,L,447.5
65,40,895.25,F4,R,447.625
69,0,895.25,A4,R,447.625
57,40,895.25,A3,L,447.625
53,0,895.25,F3,L,447.625
69,41,895.5,A4,R,447.75
65,0,895.5,F4,R,447.75
53,43,895.5,F3,L,447.75
57,0,895.5,A3,L,447.75
65,40,895.75,F4,R,447.875
69,0,895.75,A4,R,447.875
57,43,895.75,A3,L,447.875
53,0,895.75,F3,L,447.875
69,44,895.9375,A4,R,447.96875
65,0,895.9375,F4,R,447.96875
69,44,896.0,A4,R,448.0
69,0,896.0,A4,R,448.0
53,43,896.0,F3,L,448.0
57,0,896.0,A3,L,448.0
57,38,896.125,A3,L,448.0625
53,0,896.125,F3,L,448.0625
65,43,896.1666666666666,F4,R,448.0833333333333
69,0,896.1666666666666,A4,R,448.0833333333333
65,0,896.3333333333333,F4,R,448.16666666666663
69,44,896.3333333333334,A4,R,448.1666666666667
57,0,896.375,A3,L,448.1875
53,49,896.375,F3,L,448.1875
65,43,896.5,F4,R,448.25
69,0,896.5,A4,R,448.25
57,39,896.5,A3,L,448.25
53,0,896.5,F3,L,448.25
69,42,896.75,A4,R,448.375
65,0,896.75,F4,R,448.375
53,46,896.75,F3,L,448.375
57,0,896.75,A3,L,448.375
69,0,897.0,A4,R,448.5
57,48,897.0,A3,L,448.5
53,0,897.0,F3,L,448.5
65,44,897.0,F4,R,448.5
53,37,897.25,F3,L,448.625
57,0,897.25,A3,L,448.625
69,40,897.25,A4,R,448.625
65,0,897.25,F4,R,448.625
65,40,897.5,F4,R,448.75
53,0,897.5,F3,L,448.75
57,40,897.5,A3,L,448.75
69,0,897.5,A4,R,448.75
57,0,897.75,A3,L,448.875
65,0,897.75,F4,R,448.875
69,38,897.75,A4,R,448.875
53,46,897.75,F3,L,448.875
57,28,898.0,A3,L,449.0
53,0,898.0,F3,L,449.0
65,43,898.0,F4,R,449.0
69,0,898.0,A4,R,449.0
53,48,898.25,F3,L,449.125
57,0,898.25,A3,L,449.125
69,44,898.25,A4,R,449.125
65,0,898.25,F4,R,449.125
69,0,898.5,A4,R,449.25
65,44,898.5,F4,R,449.25
57,32,898.5625,A3,R,449.28125
53,52,898.75,F3,L,449.375
53,0,898.75,F3,L,449.375
69,33,898.75,A4,R,449.375
57,0,898.75,A3,R,449.375
65,0,899.0,F4,R,449.5
57,35,899.0,A3,L,449.5
53,0,899.0,F3,L,449.5
69,0,899.0,A4,R,449.5
65,39,899.0,F4,R,449.5
69,37,899.2,A4,R,449.6
65,0,899.2,F4,R,449.6
57,0,899.25,A3,L,449.625
53,47,899.25,F3,L,449.625
65,40,899.4,F4,R,449.7
69,0,899.4000000000001,A4,R,449.70000000000005
57,34,899.6,A3,R,449.8
65,0,899.6,F4,R,449.8
53,0,899.75,F3,L,449.875
53,39,899.75,F3,L,449.875
69,43,899.8,A4,R,449.9
57,0,899.8000000000001,A3,R,449.90000000000003
53,0,900.0,F3,L,450.0
57,39,900.0,A3,L,450.0
69,0,900.0,A4,R,450.0
65,37,900.0,F4,R,450.0
57,0,900.25,A3,L,450.125
69,45,900.25,A4,R,450.125
65,0,900.25,F4,R,450.125
53,49,900.3125,F3,L,450.15625
53,0,900.5,F3,L,450.25
57,40,900.5,A3,L,450.25
65,44,900.5,F4,R,450.25
69,0,900.5,A4,R,450.25
53,45,900.75,F3,L,450.375
69,37,900.75,A4,R,450.375
57,0,900.75,A3,L,450.375
65,0,900.75,F4,R,450.375
57,37,901.0,A3,L,450.5
69,0,901.0,A4,R,450.5
65,48,901.0,F4,R,450.5
53,0,901.0,F3,L,450.5
53,43,901.25,F3,L,450.625
57,0,901.25,A3,L,450.625
65,0,901.25,F4,R,450.625
69,41,901.2916666666666,A4,R,450.6458333333333
69,0,901.4166666666666,A4,R,450.7083333333333
65,47,901.4166666666666,F4,R,450.7083333333333
53,0,901.5,F3,L,450.75
57,38,901.5,A3,L,450.75
65,0,901.5,F4,R,450.75
57,0,901.625,A3,L,450.8125
53,43,901.625,F3,L,450.8125
69,44,901.625,A4,R,450.8125
53,0,901.875,F3,L,450.9375
57,40,901.875,A3,L,450.9375
65,44,901.875,F4,R,450.9375
69,0,901.875,A4,R,450.9375
65,0,902.0,F4,R,451.0
57,40,902.0,A3,L,451.0
57,0,902.0,A3,L,451.0
69,44,902.125,A4,R,451.0625
53,46,902.125,F3,L,451.0625
57,0,902.125,A3,L,451.0625
57,34,902.375,A3,L,451.1875
69,0,902.375,A4,R,451.1875
65,44,902.375,F4,R,451.1875
53,0,902.375,F3,L,451.1875
65,0,902.5,F4,R,451.25
69,39,902.5,A4,R,451.25
57,0,902.5,A3,L,451.25
53,42,902.5,F3,L,451.25
53,0,902.75,F3,L,451.375
69,0,902.75,A4,R,451.375
57,43,902.75,A3,L,451.375
65,41,902.8125,F4,R,451.40625
65,0,903.0,F4,R,451.5
69,39,903.0,A4,R,451.5
53,44,903.0,F3,L,451.5
57,0,903.0,A3,L,451.5
53,0,903.25,F3,L,451.625
65,32,903.25,F4,R,451.625
69,0,903.25,A4,R,451.625
57,37,903.25,A3,L,451.625
57,0,903.5,A3,L,451.75
53,40,903.5,F3,L,451.75
69,37,903.5,A4,R,451.75
65,0,903.5,F4,R,451.75
69,0,903.75,A4,R,451.875
65,31,903.75,F4,R,451.875
57,37,903.8125,A3,R,451.90625
65,0,903.8125,F4,R,451.90625
69,40,904.0,A4,R,452.0
57,0,904.0,A3,R,452.0
53,42,904.0,F3,L,452.0
53,0,904.0,F3,L,452.0
65,45,904.125,F4,R,452.0625
69,0,904.125,A4,R,452.0625
65,0,904.25,F4,R,452.125
57,35,904.2916666666666,A3,R,452.1458333333333
57,0,904.3333333333333,A3,R,452.16666666666663
69,45,904.4166666666666,A4,R,452.2083333333333
69,45,904.5,A4,R,452.25
53,46,904.5,F3,L,452.25
53,0,904.5,F3,L,452.25
69,0,904.5,A4,R,452.25
69,0,904.625,A4,R,452.3125
53,0,904.625,F3,L,452.3125
57,37,904.625,A3,L,452.3125
65,41,904.625,F4,R,452.3125
57,0,904.875,A3,L,452.4375
53,43,904.875,F3,L,452.4375
69,45,904.875,A4,R,452.4375
65,0,904.875,F4,R,452.4375
53,0,905.0,F3,L,452.5
69,0,905.0,A4,R,452.5
57,33,905.125,A3,L,452.5625
65,43,905.125,F4,R,452.5625
57,0,905.375,A3,L,452.6875
65,0,905.375,F4,R,452.6875
69,42,905.375,A4,R,452.6875
53,42,905.375,F3,L,452.6875
53,0,905.5,F3,L,452.75
69,0,905.5,A4,R,452.75
65,45,905.5,F4,R,452.75
57,43,905.75,A3,R,452.875
65,0,906.0,F4,R,453.0
53,48,906.0,F3,L,453.0
57,0,906.0,A3,R,453.0
69,45,906.0,A4,R,453.0
53,0,906.3333333333334,F3,L,453.1666666666667
57,38,906.3333333333334,A3,L,453.1666666666667
65,37,906.3333333333334,F4,R,453.1666666666667
69,0,906.3333333333334,A4,R,453.1666666666667
53,36,906.5,F3,L,453.25
57,0,906.5,A3,L,453.25
65,0,906.5,F4,R,453.25
69,43,906.5625,A4,R,453.28125
53,0,906.75,F3,L,453.375
57,38,906.75,A3,L,453.375
69,0,906.75,A4,R,453.375
65,43,906.8125,F4,R,453.40625
69,35,907.0,A4,R,453.5
53,44,907.0,F3,L,453.5
65,0,907.0,F4,R,453.5
57,0,907.0,A3,L,453.5
53,0,907.25,F3,L,453.625
57,44,907.25,A3,L,453.625
69,0,907.25,A4,R,453.625
65,41,907.25,F4,R,453.625
57,0,907.5,A3,L,453.75
53,46,907.5,F3,L,453.75
65,0,907.5,F4,R,453.75
69,43,907.5,A4,R,453.75
65,41,907.75,F4,R,453.875
57,41,907.75,A3,L,453.875
69,0,907.75,A4,R,453.875
53,0,907.75,F3,L,453.875
57,0,908.0,A3,L,454.0
65,0,908.0,F4,R,454.0
69,43,908.0,A4,R,454.0
53,40,908.0833333333334,F3,L,454.0416666666667
53,0,908.1666666666667,F3,L,454.08333333333337
69,0,908.25,A4,R,454.125
65,40,908.3125,F4,R,454.15625
57,40,908.3333333333334,A3,L,454.1666666666667
53,45,908.5,F3,L,454.25
69,39,908.5,A4,R,454.25
57,0,908.5,A3,L,454.25
65,0,908.5,F4,R,454.25
69,0,908.75,A4,R,454.375
65,38,908.75,F4,R,454.375
53,0,908.75,F3,L,454.375
57,44,908.75,A3,L,454.375
65,0,909.0,F4,R,454.5
57,0,909.0,A3,L,454.5
69,45,909.0416666666666,A4,R,454.5208333333333
53,49,909.0416666666666,F3,L,454.5208333333333
53,0,909.0833333333333,F3,L,454.54166666666663
69,0,909.1666666666666,A4,R,454.5833333333333
65,34,909.1666666666666,F4,R,454.5833333333333
57,38,909.1666666666666,A3,L,454.5833333333333
65,0,909.25,F4,R,454.625
57,0,909.25,A3,L,454.625
57,38,909.25,A3,L,454.625
57,0,909.375,A3,L,454.6875
53,46,909.375,F3,L,454.6875
69,46,909.5,A4,R,454.75
53,0,909.5,F3,L,454.75
65,41,909.625,F4,R,454.8125
69,0,909.625,A4,R,454.8125
57,38,909.625,A3,L,454.8125
69,44,909.875,A4,R,454.9375
57,0,909.875,A3,L,454.9375
53,39,909.875,F3,L,454.9375
65,0,909.875,F4,R,454.9375
69,0,910.0,A4,R,455.0
65,42,910.0,F4,R,455.0
57,35,910.0,A3,L,455.0
53,0,910.0,F3,L,455.0
57,0,910.25,A3,L,455.125
69,42,910.25,A4,R,455.125
65,0,910.25,F4,R,455.125
53,52,910.25,F3,L,455.125
53,0,910.5,F3,L,455.25
65,40,910.5,F4,R,455.25
57,40,910.5,A3,L,455.25
69,0,910.5,A4,R,455.25
53,51,910.75,F3,R,455.375
65,0,910.75,F4,R,455.375
69,40,910.8125,A4,R,455.40625
53,0,911.0,F3,R,455.5
69,0,911.0,A4,R,455.5
57,0,911.0,A3,L,455.5
65,46,911.0,F4,R,455.5
65,0,911.0833333333334,F4,R,455.5416666666667
57,36,911.0833333333334,A3,R,455.5416666666667
57,0,911.1666666666667,A3,R,455.58333333333337
53,45,911.25,F3,L,455.625
69,48,911.2916666666666,A4,R,455.6458333333333
69,0,911.4166666666666,A4,R,455.7083333333333
65,57,911.4166666666666,F4,R,455.7083333333333
65,0,911.5,F4,R,455.75
65,57,911.5,F4,R,455.75
65,0,911.75,F4,R,455.875
53,0,911.75,F3,L,455.875
69,54,911.875,A4,R,455.9375
50,49,911.875,D3,L,455.9375
53,52,911.875,F3,L,455.9375
69,0,912.0,A4,R,456.0
50,49,912.0,D3,L,456.0
53,52,912.0,F3,L,456.0
53,0,912.0,F3,L,456.0
50,0,912.0,D3,L,456.0
69,54,912.0,A4,R,456.0
57,59,912.25,A3,L,456.125
53,0,912.25,F3,L,456.125
50,0,912.25,D3,L,456.125
65,37,912.25,F4,R,456.125
69,0,912.25,A4,R,456.125
53,42,912.375,F3,L,456.1875
50,43,912.375,D3,L,456.1875
69,55,912.375,A4,R,456.1875
65,0,912.375,F4,R,456.1875
57,0,912.375,A3,L,456.1875
53,0,912.5,F3,L,456.25
50,0,912.5,D3,L,456.25
69,0,912.5,A4,R,456.25
57,59,912.625,A3,L,456.3125
65,27,912.625,F4,R,456.3125
50,26,912.875,D3,L,456.4375
57,0,912.875,A3,L,456.4375
69,42,912.875,A4,R,456.4375
65,0,912.875,F4,R,456.4375
53,39,912.875,F3,L,456.4375
53,0,913.0,F3,L,456.5
69,0,913.0,A4,R,456.5
50,0,913.0,D3,L,456.5
57,51,913.125,A3,L,456.5625
65,31,913.125,F4,R,456.5625
57,0,913.25,A3,L,456.625
69,44,913.25,A4,R,456.625
65,0,913.25,F4,R,456.625
53,41,913.3125,F3,L,456.65625
50,31,913.3125,D3,L,456.65625
53,0,913.5,F3,L,456.75
50,0,913.5,D3,L,456.75
69,0,913.5,A4,R,456.75
57,45,913.5625,A3,L,456.78125
65,30,913.5625,F4,R,456.78125
69,42,913.75,A4,R,456.875
65,0,913.75,F4,R,456.875
50,37,913.75,D3,L,456.875
57,0,913.75,A3,L,456.875
53,39,913.75,F3,L,456.875
65,34,914.0,F4,R,457.0
69,0,914.0,A4,R,457.0
53,0,914.0,F3,L,457.0
50,0,914.0,D3,L,457.0
57,46,914.0,A3,L,457.0
57,0,914.25,A3,L,457.125
69,45,914.25,A4,R,457.125
65,0,914.25,F4,R,457.125
50,34,914.25,D3,L,457.125
53,38,914.25,F3,L,457.125
69,0,914.5,A4,R,457.25
50,0,914.5,D3,L,457.25
65,23,914.5,F4,R,457.25
57,46,914.5,A3,L,457.25
53,0,914.5,F3,L,457.25
69,48,914.6875,A4,R,457.34375
53,39,914.6875,F3,L,457.34375
57,0,914.6875,A3,L,457.34375
65,0,914.6875,F4,R,457.34375
50,35,914.6875,D3,L,457.34375
69,48,914.75,A4,R,457.375
50,0,914.75,D3,L,457.375
53,39,914.75,F3,L,457.375
53,0,914.75,F3,L,457.375
50,35,914.75,D3,L,457.375
69,0,914.75,A4,R,457.375
53,0,915.0,F3,L,457.5
65,28,915.0,F4,R,457.5
50,0,915.0,D3,L,457.5
57,49,915.0,A3,L,457.5
69,0,915.0,A4,R,457.5
65,0,915.125,F4,R,457.5625
69,41,915.125,A4,R,457.5625
53,34,915.2,F3,L,457.6
50,30,915.2,D3,L,457.6
57,0,915.2,A3,L,457.6
69,0,915.375,A4,R,457.6875
65,27,915.375,F4,R,457.6875
57,46,915.4,A3,L,457.7
50,0,915.4000000000001,D3,L,457.70000000000005
53,0,915.4000000000001,F3,L,457.70000000000005
65,0,915.5,F4,R,457.75
53,40,915.6,F3,L,457.8
50,34,915.6,D3,L,457.8
57,0,915.6,A3,L,457.8
69,44,915.625,A4,R,457.8125
57,43,915.8,A3,L,457.9
53,0,915.8000000000001,F3,L,457.90000000000003
50,0,915.8000000000001,D3,L,457.90000000000003
65,34,915.875,F4,R,457.9375
69,0,915.875,A4,R,457.9375
57,0,916.0,A3,L,458.0
65,0,916.0,F4,R,458.0
53,44,916.0625,F3,L,458.03125
50,43,916.0625,D3,L,458.03125
69,45,916.0625,A4,R,458.03125
57,47,916.25,A3,L,458.125
50,0,916.25,D3,L,458.125
53,0,916.25,F3,L,458.125
69,0,916.25,A4,R,458.125
65,35,916.3125,F4,R,458.15625
50,36,916.5,D3,L,458.25
69,40,916.5,A4,R,458.25
65,0,916.5,F4,R,458.25
57,0,916.5,A3,L,458.25
53,37,916.5,F3,L,458.25
50,0,916.75,D3,L,458.375
65,33,916.75,F4,R,458.375
69,0,916.75,A4,R,458.375
57,45,916.75,A3,L,458.375
53,0,916.75,F3,L,458.375
69,40,916.9166666666666,A4,R,458.4583333333333
53,43,916.9166666666666,F3,L,458.4583333333333
65,0,916.9166666666666,F4,R,458.4583333333333
50,37,916.9166666666666,D3,L,458.4583333333333
57,0,916.9166666666666,A3,L,458.4583333333333
50,0,917.0,D3,L,458.5
69,0,917.0,A4,R,458.5
53,0,917.0,F3,L,458.5
53,43,917.0,F3,L,458.5
57,52,917.125,A3,L,458.5625
65,40,917.125,F4,R,458.5625
53,0,917.125,F3,L,458.5625
69,49,917.375,A4,R,458.6875
50,36,917.375,D3,L,458.6875
57,0,917.375,A3,L,458.6875
53,45,917.375,F3,L,458.6875
65,0,917.375,F4,R,458.6875
53,0,917.5,F3,L,458.75
50,0,917.5,D3,L,458.75
69,0,917.5,A4,R,458.75
57,50,917.625,A3,L,458.8125
65,27,917.6666666666666,F4,R,458.8333333333333
53,34,917.75,F3,L,458.875
50,46,917.75,D3,L,458.875
57,0,917.75,A3,L,458.875
65,0,917.8333333333333,F4,R,458.91666666666663
69,43,917.8333333333334,A4,R,458.9166666666667
57,51,918.0,A3,L,459.0
53,0,918.0,F3,L,459.0
50,0,918.0,D3,L,459.0
65,34,918.0,F4,R,459.0
69,0,918.0,A4,R,459.0
57,0,918.25,A3,L,459.125
65,0,918.25,F4,R,459.125
53,43,918.3125,F3,L,459.15625
50,36,918.3125,D3,L,459.15625
69,45,918.3125,A4,R,459.15625
57,49,918.5,A3,L,459.25
53,0,918.5,F3,L,459.25
50,0,918.5,D3,L,459.25
69,0,918.5,A4,R,459.25
65,35,918.5,F4,R,459.25
50,36,918.75,D3,L,459.375
57,0,918.75,A3,L,459.375
65,0,918.75,F4,R,459.375
69,50,918.75,A4,R,459.375
53,43,918.75,F3,L,459.375
50,0,919.0,D3,L,459.5
65,26,919.0,F4,R,459.5
69,0,919.0,A4,R,459.5
57,48,919.0,A3,L,459.5
53,0,919.0,F3,L,459.5
65,0,919.1875,F4,R,459.59375
69,46,919.1875,A4,R,459.59375
53,41,919.1875,F3,L,459.59375
50,42,919.1875,D3,L,459.59375
57,0,919.1875,A3,L,459.59375
69,0,919.25,A4,R,459.625
69,46,919.25,A4,R,459.625
53,41,919.25,F3,L,459.625
50,42,919.25,D3,L,459.625
53,0,919.25,F3,L,459.625
50,0,919.25,D3,L,459.625
65,36,919.375,F4,R,459.6875
69,0,919.375,A4,R,459.6875
65,0,919.5,F4,R,459.75
57,50,919.5,A3,L,459.75
53,0,919.5,F3,L,459.75
50,0,919.5,D3,L,459.75
69,41,919.625,A4,R,459.8125
53,41,919.625,F3,L,459.8125
50,33,919.625,D3,L,459.8125
57,0,919.625,A3,L,459.8125
69,0,919.875,A4,R,459.9375
65,33,919.875,F4,R,459.9375
57,50,919.875,A3,L,459.9375
53,0,919.875,F3,L,459.9375
50,0,919.875,D3,L,459.9375
65,0,920.0,F4,R,460.0
69,42,920.0,A4,R,460.0
53,45,920.0,F3,L,460.0
50,36,920.0,D3,L,460.0
57,0,920.0,A3,L,460.0
69,0,920.25,A4,R,460.125
57,47,920.25,A3,L,460.125
53,0,920.25,F3,L,460.125
50,0,920.25,D3,L,460.125
65,38,920.3125,F4,R,460.15625
65,0,920.5,F4,R,460.25
53,38,920.5,F3,L,460.25
50,28,920.5,D3,L,460.25
57,0,920.5,A3,L,460.25
69,42,920.5,A4,R,460.25
57,51,920.75,A3,L,460.375
53,0,920.75,F3,L,460.375
50,0,920.75,D3,L,460.375
69,0,920.75,A4,R,460.375
65,40,920.75,F4,R,460.375
53,45,921.0,F3,L,460.5
50,43,921.0,D3,L,460.5
57,0,921.0,A3,L,460.5
65,0,921.0,F4,R,460.5
69,45,921.0,A4,R,460.5
57,51,921.1875,A3,L,460.59375
53,0,921.1875,F3,L,460.59375
50,0,921.1875,D3,L,460.59375
69,0,921.2,A4,R,460.6
65,26,921.2,F4,R,460.6
57,51,921.25,A3,L,460.625
57,0,921.25,A3,L,460.625
53,40,921.375,F3,L,460.6875
50,42,921.375,D3,L,460.6875
57,0,921.375,A3,L,460.6875
69,48,921.4,A4,R,460.7
65,0,921.4000000000001,F4,R,460.70000000000005
53,0,921.5,F3,L,460.75
50,0,921.5,D3,L,460.75
69,0,921.6,A4,R,460.8
65,30,921.6,F4,R,460.8
57,54,921.625,A3,L,460.8125
57,0,921.75,A3,L,460.875
69,44,921.8,A4,R,460.9
65,0,921.8000000000001,F4,R,460.90000000000003
53,39,921.8125,F3,L,460.90625
50,40,921.8125,D3,L,460.90625
57,45,922.0,A3,L,461.0
53,0,922.0,F3,L,461.0
50,0,922.0,D3,L,461.0
69,0,922.0,A4,R,461.0
65,42,922.0,F4,R,461.0
53,48,922.25,F3,L,461.125
50,49,922.25,D3,L,461.125
57,0,922.25,A3,L,461.125
65,0,922.25,F4,R,461.125
69,45,922.25,A4,R,461.125
57,49,922.5,A3,L,461.25
65,38,922.5,F4,R,461.25
69,0,922.5,A4,R,461.25
53,0,922.5,F3,L,461.25
50,0,922.5,D3,L,461.25
53,48,922.75,F3,L,461.375
57,0,922.75,A3,L,461.375
65,0,922.75,F4,R,461.375
50,48,922.75,D3,L,461.375
67,46,922.7916666666666,G4,R,461.3958333333333
67,0,922.9166666666666,G4,R,461.4583333333333
55,45,922.9166666666666,G3,R,461.4583333333333
50,0,923.0,D3,L,461.5
53,0,923.0,F3,L,461.5
55,0,923.0,G3,R,461.5
59,52,923.125,B3,L,461.5625
65,43,923.125,F4,R,461.5625
53,43,923.25,F3,L,461.625
59,0,923.25,B3,L,461.625
50,31,923.25,D3,L,461.625
67,48,923.25,G4,R,461.625
55,34,923.375,G3,R,461.6875
65,0,923.375,F4,R,461.6875
50,0,923.5,D3,L,461.75
65,39,923.5,F4,R,461.75
55,0,923.5,G3,R,461.75
53,0,923.5,F3,L,461.75
59,49,923.5,B3,L,461.75
59,0,923.75,B3,L,461.875
50,39,923.75,D3,L,461.875
67,47,923.75,G4,R,461.875
53,38,923.75,F3,L,461.875
65,0,923.75,F4,R,461.875
55,39,923.75,G3,L,461.875
67,0,924.0,G4,R,462.0
53,0,924.0,F3,L,462.0
55,0,924.0,G3,L,462.0
59,44,924.0,B3,L,462.0
65,41,924.0,F4,R,462.0
67,0,924.0,G4,R,462.0
50,0,924.0,D3,L,462.0
50,39,924.25,D3,L,462.125
67,47,924.25,G4,R,462.125
53,44,924.25,F3,L,462.125
65,0,924.25,F4,R,462.125
55,31,924.25,G3,L,462.125
59,0,924.25,B3,L,462.125
67,0,924.5,G4,R,462.25
53,0,924.5,F3,L,462.25
50,0,924.5,D3,L,462.25
65,37,924.5,F4,R,462.25
59,49,924.5,B3,L,462.25
55,0,924.5,G3,L,462.25
59,0,924.625,B3,L,462.3125
67,40,924.6875,G4,R,462.34375
53,43,924.6875,F3,L,462.34375
50,38,924.6875,D3,L,462.34375
65,0,924.6875,F4,R,462.34375
55,30,924.6875,G3,L,462.34375
53,0,924.75,F3,L,462.375
50,0,924.75,D3,L,462.375
53,43,924.75,F3,L,462.375
50,38,924.75,D3,L,462.375
67,40,924.75,G4,R,462.375
55,30,924.75,G3,L,462.375
55,0,924.75,G3,L,462.375
67,0,924.75,G4,R,462.375
65,42,924.875,F4,R,462.4375
67,0,924.875,G4,R,462.4375
50,0,925.0,D3,L,462.5
53,0,925.0,F3,L,462.5
55,0,925.0,G3,L,462.5
53,43,925.0,F3,L,462.5
59,47,925.0,B3,R,462.5
65,0,925.0,F4,R,462.5
55,39,925.0,G3,L,462.5
50,37,925.0,D3,L,462.5
67,37,925.125,G4,R,462.5625
59,0,925.125,B3,R,462.5625
50,0,925.375,D3,L,462.6875
59,51,925.375,B3,L,462.6875
55,0,925.375,G3,L,462.6875
53,0,925.375,F3,L,462.6875
67,0,925.375,G4,R,462.6875
65,37,925.375,F4,R,462.6875
55,34,925.5,G3,L,462.75
65,0,925.5,F4,R,462.75
59,0,925.5,B3,L,462.75
53,41,925.5,F3,L,462.75
50,30,925.5,D3,L,462.75
67,44,925.5,G4,R,462.75
65,41,925.875,F4,R,462.9375
53,0,925.875,F3,L,462.9375
59,52,925.875,B3,L,462.9375
50,0,925.875,D3,L,462.9375
67,0,925.875,G4,R,462.9375
55,0,925.875,G3,L,462.9375
65,0,926.0,F4,R,463.0
59,0,926.0,B3,L,463.0
67,40,926.125,G4,R,463.0625
50,33,926.125,D3,L,463.0625
53,25,926.125,F3,L,463.0625
55,29,926.125,G3,L,463.0625
59,58,926.375,B3,L,463.1875
55,0,926.375,G3,L,463.1875
67,0,926.375,G4,R,463.1875
50,0,926.375,D3,L,463.1875
65,45,926.375,F4,R,463.1875
53,0,926.375,F3,L,463.1875
65,0,926.5,F4,R,463.25
59,0,926.5,B3,L,463.25
50,42,926.5833333333334,D3,L,463.2916666666667
53,44,926.5833333333334,F3,L,463.2916666666667
67,40,926.5833333333334,G4,R,463.2916666666667
55,32,926.5833333333334,G3,L,463.2916666666667
50,0,926.6666666666667,D3,L,463.33333333333337
53,0,926.6666666666667,F3,L,463.33333333333337
55,0,926.6666666666667,G3,L,463.33333333333337
67,0,926.6666666666667,G4,R,463.33333333333337
59,59,926.8333333333334,B3,L,463.4166666666667
65,40,926.8333333333334,F4,R,463.4166666666667
65,0,927.0,F4,R,463.5
59,0,927.0,B3,L,463.5
67,53,927.0,G4,R,463.5
50,35,927.0833333333334,D3,L,463.5416666666667
53,45,927.0833333333334,F3,L,463.5416666666667
55,40,927.0833333333334,G3,L,463.5416666666667
55,0,927.1666666666667,G3,L,463.58333333333337
50,0,927.1666666666667,D3,L,463.58333333333337
53,0,927.1666666666667,F3,L,463.58333333333337
67,0,927.25,G4,R,463.625
65,45,927.3125,F4,R,463.65625
59,47,927.3333333333334,B3,L,463.6666666666667
59,0,927.5,B3,L,463.75
50,18,927.5,D3,L,463.75
53,45,927.5,F3,L,463.75
55,28,927.5,G3,L,463.75
65,0,927.5,F4,R,463.75
67,41,927.5,G4,R,463.75
50,0,927.75,D3,L,463.875
53,0,927.75,F3,L,463.875
55,0,927.75,G3,L,463.875
59,56,927.75,B3,L,463.875
67,0,927.75,G4,R,463.875
65,44,927.75,F4,R,463.875
65,0,928.0,F4,R,464.0
67,51,928.0,G4,R,464.0
59,0,928.0,B3,L,464.0
50,25,928.0,D3,L,464.0
53,42,928.0,F3,L,464.0
55,37,928.0,G3,L,464.0
67,0,928.25,G4,R,464.125
59,63,928.25,B3,L,464.125
50,0,928.25,D3,L,464.125
53,0,928.25,F3,L,464.125
65,46,928.25,F4,R,464.125
55,0,928.25,G3,L,464.125
53,48,928.5,F3,L,464.25
67,56,928.5,G4,R,464.25
65,0,928.5,F4,R,464.25
55,37,928.5,G3,L,464.25
50,44,928.5,D3,L,464.25
59,0,928.5,B3,L,464.25
55,0,928.75,G3,L,464.375
50,0,928.75,D3,L,464.375
59,57,928.75,B3,L,464.375
67,0,928.75,G4,R,464.375
53,0,928.75,F3,L,464.375
65,42,928.75,F4,R,464.375
55,37,929.0,G3,L,464.5
53,43,929.0,F3,L,464.5
59,0,929.0,B3,L,464.5
65,0,929.0,F4,R,464.5
50,21,929.0,D3,L,464.5
67,42,929.0,G4,R,464.5
67,0,929.1875,G4,R,464.59375
65,40,929.1875,F4,R,464.59375
59,53,929.1875,B3,L,464.59375
55,0,929.1875,G3,L,464.59375
53,0,929.1875,F3,L,464.59375
65,0,929.25,F4,R,464.625
65,40,929.25,F4,R,464.625
59,53,929.25,B3,L,464.625
59,0,929.25,B3,L,464.625
55,39,929.375,G3,L,464.6875
50,30,929.375,D3,L,464.6875
59,0,929.375,B3,L,464.6875
53,44,929.375,F3,L,464.6875
65,0,929.375,F4,R,464.6875
67,47,929.375,G4,R,464.6875
50,0,929.375,D3,L,464.6875
55,39,929.5,G3,L,464.75
50,30,929.5,D3,L,464.75
55,0,929.5,G3,L,464.75
50,0,929.5,D3,L,464.75
53,0,929.5,F3,L,464.75
67,0,929.5,G4,R,464.75
65,39,929.625,F4,R,464.8125
59,55,929.6666666666666,B3,L,464.8333333333333
55,0,929.6666666666666,G3,L,464.8333333333333
50,0,929.6666666666666,D3,L,464.8333333333333
65,0,929.75,F4,R,464.875
59,0,929.8333333333333,B3,L,464.91666666666663
53,39,929.8333333333334,F3,L,464.9166666666667
55,40,929.8333333333334,G3,L,464.9166666666667
67,52,929.8333333333334,G4,R,464.9166666666667
50,16,929.9166666666666,D3,R,464.9583333333333
67,0,929.9166666666667,G4,R,464.95833333333337
59,53,930.0,B3,L,465.0
53,0,930.0,F3,L,465.0
50,0,930.0,D3,R,465.0
65,45,930.0,F4,R,465.0
55,0,930.0,G3,L,465.0
59,0,930.25,B3,L,465.125
65,0,930.375,F4,R,465.1875
67,43,930.375,G4,R,465.1875
55,25,930.375,G3,L,465.1875
53,41,930.375,F3,L,465.1875
59,53,930.5,B3,L,465.25
55,0,930.5,G3,L,465.25
53,0,930.5,F3,L,465.25
67,0,930.5,G4,R,465.25
65,36,930.5625,F4,R,465.28125
65,0,930.75,F4,R,465.375
59,0,930.75,B3,L,465.375
53,43,930.75,F3,L,465.375
67,51,930.75,G4,R,465.375
55,26,930.8125,G3,R,465.40625
50,17,930.875,D3,R,465.4375
55,0,930.875,G3,R,465.4375
53,0,931.0,F3,L,465.5
59,55,931.0,B3,L,465.5
67,0,931.0,G4,R,465.5
65,41,931.0,F4,R,465.5
50,0,931.0,D3,R,465.5
50,59,931.25,D3,L,465.625
55,46,931.25,G3,L,465.625
59,0,931.25,B3,L,465.625
65,0,931.25,F4,R,465.625
53,55,931.25,F3,L,465.625
67,63,931.25,G4,R,465.625
59,58,931.5,B3,L,465.75
55,0,931.5,G3,L,465.75
65,45,931.5,F4,R,465.75
50,0,931.5,D3,L,465.75
67,0,931.5,G4,R,465.75
53,0,931.5,F3,L,465.75
50,14,931.75,D3,L,465.875
53,48,931.75,F3,L,465.875
59,0,931.75,B3,L,465.875
67,53,931.75,G4,R,465.875
65,0,931.75,F4,R,465.875
55,35,931.75,G3,L,465.875
65,44,931.9375,F4,R,465.96875
67,0,931.9375,G4,R,465.96875
53,0,932.0,F3,L,466.0
65,0,932.0,F4,R,466.0
65,44,932.0,F4,R,466.0
50,0,932.0,D3,L,466.0
59,63,932.0,B3,L,466.0
55,0,932.0,G3,L,466.0
65,0,932.2222222222222,F4,R,466.1111111111111
67,48,932.2222222222222,G4,R,466.1111111111111
59,0,932.25,B3,L,466.125
50,38,932.25,D3,L,466.125
53,43,932.25,F3,L,466.125
55,37,932.25,G3,L,466.125
67,0,932.4444444444443,G4,R,466.2222222222222
65,38,932.4444444444445,F4,R,466.22222222222223
50,0,932.5,D3,L,466.25
53,0,932.5,F3,L,466.25
55,0,932.5,G3,L,466.25
59,58,932.5,B3,L,466.25
50,40,932.625,D3,L,466.3125
53,41,932.625,F3,L,466.3125
55,28,932.625,G3,L,466.3125
59,0,932.625,B3,L,466.3125
65,0,932.6666666666666,F4,R,466.3333333333333
67,47,932.6666666666666,G4,R,466.3333333333333
50,0,932.875,D3,L,466.4375
53,0,932.875,F3,L,466.4375
55,0,932.875,G3,L,466.4375
59,49,932.875,B3,L,466.4375
67,0,932.8888888888888,G4,R,466.4444444444444
65,41,932.8888888888889,F4,R,466.44444444444446
59,0,933.0,B3,L,466.5
65,0,933.0,F4,R,466.5
67,45,933.1111111111111,G4,R,466.55555555555554
55,38,933.125,G3,L,466.5625
53,46,933.125,F3,L,466.5625
50,33,933.125,D3,L,466.5625
67,0,933.3333333333333,G4,R,466.66666666666663
65,38,933.3333333333334,F4,R,466.6666666666667
59,58,933.375,B3,L,466.6875
55,0,933.375,G3,L,466.6875
53,0,933.375,F3,L,466.6875
50,0,933.375,D3,L,466.6875
59,0,933.5,B3,L,466.75
50,38,933.5,D3,L,466.75
53,39,933.5,F3,L,466.75
55,32,933.5,G3,L,466.75
65,0,933.5555555555555,F4,R,466.77777777777777
67,46,933.5555555555555,G4,R,466.77777777777777
59,54,933.75,B3,L,466.875
50,0,933.75,D3,L,466.875
53,0,933.75,F3,L,466.875
55,0,933.75,G3,L,466.875
67,0,933.7777777777777,G4,R,466.88888888888886
65,30,933.7777777777778,F4,R,466.8888888888889
65,0,934.0,F4,R,467.0
59,0,934.0,B3,L,467.0
55,39,934.0,G3,L,467.0
53,46,934.0,F3,L,467.0
50,46,934.0,D3,L,467.0
67,55,934.0625,G4,R,467.03125
55,0,934.25,G3,L,467.125
50,0,934.25,D3,L,467.125
67,0,934.25,G4,R,467.125
53,0,934.25,F3,L,467.125
65,41,934.3125,F4,R,467.15625
59,57,934.3125,B3,L,467.15625
55,31,934.5,G3,L,467.25
53,39,934.5,F3,L,467.25
50,21,934.5,D3,L,467.25
65,0,934.5,F4,R,467.25
59,0,934.5,B3,L,467.25
67,39,934.5,G4,R,467.25
67,0,934.75,G4,R,467.375
53,0,934.75,F3,L,467.375
55,0,934.75,G3,L,467.375
59,54,934.75,B3,L,467.375
65,36,934.75,F4,R,467.375
50,0,934.75,D3,L,467.375
55,36,935.0,G3,L,467.5
50,21,935.0,D3,L,467.5
59,0,935.0,B3,L,467.5
53,46,935.0,F3,L,467.5
65,0,935.0,F4,R,467.5
67,49,935.0,G4,R,467.5
59,43,935.25,B3,L,467.625
55,0,935.25,G3,L,467.625
53,0,935.25,F3,L,467.625
50,0,935.25,D3,L,467.625
67,0,935.25,G4,R,467.625
65,28,935.25,F4,R,467.625
53,42,935.375,F3,L,467.6875
50,16,935.375,D3,L,467.6875
59,0,935.375,B3,L,467.6875
65,0,935.375,F4,R,467.6875
67,49,935.375,G4,R,467.6875
55,39,935.375,G3,L,467.6875
55,0,935.5,G3,L,467.75
67,0,935.5,G4,R,467.75
53,0,935.5,F3,L,467.75
55,39,935.5,G3,L,467.75
53,42,935.5,F3,L,467.75
50,16,935.5,D3,L,467.75
50,0,935.5,D3,L,467.75
65,37,935.625,F4,R,467.8125
59,38,935.75,B3,R,467.875
65,0,935.75,F4,R,467.875
53,43,935.875,F3,L,467.9375
53,0,935.875,F3,L,467.9375
67,43,935.875,G4,R,467.9375
55,36,935.875,G3,L,467.9375
55,0,935.875,G3,L,467.9375
50,0,935.875,D3,L,467.9375
59,0,935.875,B3,R,467.9375
50,26,935.9375,D3,R,467.96875
53,0,936.0,F3,L,468.0
50,0,936.0,D3,R,468.0
55,0,936.0,G3,L,468.0
50,26,936.0,D3,R,468.0
67,0,936.0,G4,R,468.0
65,41,936.125,F4,R,468.0625
50,0,936.125,D3,R,468.0625
53,42,936.25,F3,L,468.125
59,22,936.25,B3,L,468.125
65,0,936.25,F4,R,468.125
67,45,936.25,G4,R,468.125
67,0,936.3333333333334,G4,R,468.1666666666667
55,34,936.3333333333334,G3,R,468.1666666666667
53,0,936.3333333333334,F3,L,468.1666666666667
59,0,936.3333333333334,B3,L,468.1666666666667
50,18,936.3333333333334,D3,L,468.1666666666667
53,42,936.3333333333334,F3,L,468.1666666666667
50,18,936.4166666666666,D3,L,468.2083333333333
53,0,936.4166666666667,F3,L,468.20833333333337
50,0,936.4166666666667,D3,L,468.20833333333337
50,0,936.5,D3,L,468.25
55,0,936.5,G3,R,468.25
65,40,936.5,F4,R,468.25
59,22,936.625,B3,R,468.3125
65,0,936.625,F4,R,468.3125
55,45,936.75,G3,L,468.375
53,48,936.75,F3,L,468.375
59,0,936.75,B3,R,468.375
67,51,936.75,G4,R,468.375
50,43,936.75,D3,L,468.375
67,0,937.0,G4,R,468.5
55,0,937.0,G3,L,468.5
59,50,937.0,B3,L,468.5
65,33,937.0,F4,R,468.5
50,0,937.0,D3,L,468.5
53,0,937.0,F3,L,468.5
67,45,937.125,G4,R,468.5625
55,34,937.1666666666666,G3,L,468.5833333333333
59,0,937.1666666666666,B3,L,468.5833333333333
53,43,937.1666666666666,F3,L,468.5833333333333
65,0,937.25,F4,R,468.625
50,7,937.25,D3,R,468.625
55,0,937.25,G3,L,468.625
55,34,937.25,G3,L,468.625
53,0,937.25,F3,L,468.625
50,0,937.375,D3,R,468.6875
65,39,937.4375,F4,R,468.71875
65,0,937.5,F4,R,468.75
59,51,937.5,B3,L,468.75
65,39,937.5,F4,R,468.75
67,0,937.5,G4,R,468.75
55,0,937.5,G3,L,468.75
65,0,937.625,F4,R,468.8125
67,46,937.625,G4,R,468.8125
50,38,937.625,D3,L,468.8125
59,0,937.625,B3,L,468.8125
55,31,937.625,G3,L,468.8125
53,47,937.625,F3,L,468.8125
50,0,937.875,D3,L,468.9375
67,0,937.875,G4,R,468.9375
65,38,937.875,F4,R,468.9375
55,0,937.875,G3,L,468.9375
59,57,937.875,B3,L,468.9375
53,0,937.875,F3,L,468.9375
65,0,938.0,F4,R,469.0
67,49,938.0,G4,R,469.0
59,0,938.0,B3,L,469.0
53,38,938.0,F3,L,469.0
55,24,938.0,G3,L,469.0
55,0,938.25,G3,L,469.125
59,59,938.25,B3,L,469.125
67,0,938.25,G4,R,469.125
53,0,938.25,F3,L,469.125
65,38,938.3125,F4,R,469.15625
53,39,938.5,F3,L,469.25
65,0,938.5,F4,R,469.25
67,45,938.5,G4,R,469.25
59,0,938.5,B3,L,469.25
55,25,938.5,G3,L,469.25
50,25,938.625,D3,R,469.3125
67,0,938.625,G4,R,469.3125
59,58,938.75,B3,L,469.375
55,0,938.75,G3,L,469.375
50,0,938.75,D3,R,469.375
53,0,938.75,F3,L,469.375
65,37,938.75,F4,R,469.375
53,41,938.875,F3,L,469.4375
67,45,938.9375,G4,R,469.46875
65,0,938.9375,F4,R,469.46875
55,19,939.0,G3,R,469.5
53,0,939.0,F3,L,469.5
59,0,939.0,B3,L,469.5
67,0,939.0,G4,R,469.5
50,29,939.0,D3,L,469.5
53,41,939.0,F3,L,469.5
50,0,939.125,D3,L,469.5625
65,42,939.125,F4,L,469.5625
55,0,939.25,G3,R,469.625
59,55,939.2916666666666,B3,R,469.6458333333333
59,0,939.3333333333333,B3,R,469.66666666666663
53,0,939.375,F3,L,469.6875
50,39,939.375,D3,L,469.6875
53,46,939.375,F3,L,469.6875
65,0,939.375,F4,L,469.6875
55,35,939.375,G3,L,469.6875
67,56,939.4166666666666,G4,R,469.7083333333333
50,39,939.5,D3,L,469.75
67,0,939.5,G4,R,469.75
50,0,939.5,D3,L,469.75
53,46,939.5,F3,L,469.75
55,0,939.5,G3,L,469.75
55,35,939.5,G3,L,469.75
67,56,939.5,G4,R,469.75
53,0,939.5,F3,L,469.75
67,0,939.625,G4,R,469.8125
55,0,939.625,G3,L,469.8125
65,35,939.625,F4,R,469.8125
59,53,939.625,B3,L,469.8125
50,25,939.875,D3,L,469.9375
67,45,939.875,G4,R,469.9375
59,0,939.875,B3,L,469.9375
55,12,939.875,G3,L,469.9375
65,0,939.875,F4,R,469.9375
50,0,939.875,D3,L,469.9375
53,0,939.875,F3,L,469.9375
53,38,939.875,F3,L,469.9375
53,0,940.0,F3,L,470.0
67,0,940.0,G4,R,470.0
50,25,940.0,D3,L,470.0
55,0,940.0,G3,L,470.0
55,12,940.0,G3,L,470.0
50,0,940.0,D3,L,470.0
65,34,940.15625,F4,R,470.078125
55,0,940.1666666666666,G3,L,470.0833333333333
50,0,940.1666666666666,D3,L,470.0833333333333
59,52,940.1666666666666,B3,L,470.0833333333333
65,0,940.25,F4,R,470.125
67,45,940.3125,G4,R,470.15625
59,0,940.3333333333333,B3,L,470.16666666666663
55,40,940.3333333333334,G3,L,470.1666666666667
53,44,940.3333333333334,F3,L,470.1666666666667
50,36,940.3333333333334,D3,L,470.1666666666667
55,0,940.5,G3,L,470.25
53,0,940.5,F3,L,470.25
50,0,940.5,D3,L,470.25
67,0,940.5,G4,R,470.25
65,34,940.5625,F4,R,470.28125
59,49,940.5625,B3,L,470.28125
59,0,940.75,B3,L,470.375
65,0,940.75,F4,R,470.375
67,47,940.75,G4,R,470.375
53,41,940.75,F3,L,470.375
50,38,940.75,D3,L,470.375
67,0,940.875,G4,R,470.4375
55,26,940.875,G3,R,470.4375
59,52,941.0,B3,L,470.5
53,0,941.0,F3,L,470.5
50,0,941.0,D3,L,470.5
55,0,941.0,G3,R,470.5
65,27,941.0625,F4,R,470.53125
67,44,941.1875,G4,R,470.59375
67,44,941.25,G4,R,470.625
53,44,941.25,F3,L,470.625
65,0,941.25,F4,R,470.625
55,31,941.25,G3,R,470.625
59,0,941.25,B3,L,470.625
67,0,941.25,G4,R,470.625
50,36,941.3125,D3,L,470.65625
67,0,941.375,G4,R,470.6875
65,36,941.375,F4,R,470.6875
65,0,941.5,F4,R,470.75
65,36,941.5,F4,R,470.75
50,36,941.5,D3,L,470.75
55,0,941.5,G3,R,470.75
59,59,941.5,B3,R,470.75
50,0,941.5,D3,L,470.75
53,43,941.6875,F3,L,470.84375
50,17,941.6875,D3,L,470.84375
67,44,941.6875,G4,R,470.84375
55,32,941.6875,G3,L,470.84375
59,0,941.6875,B3,R,470.84375
50,0,941.6875,D3,L,470.84375
55,32,941.75,G3,L,470.875
53,43,941.75,F3,L,470.875
50,17,941.75,D3,L,470.875
55,0,941.75,G3,L,470.875
53,0,941.75,F3,L,470.875
67,0,941.75,G4,R,470.875
50,0,941.75,D3,L,470.875
67,44,941.75,G4,R,470.875
65,34,941.9375,F4,R,470.96875
67,0,941.9375,G4,R,470.96875
65,0,942.0,F4,R,471.0
65,0,942.0,F4,R,471.0
65,34,942.0,F4,R,471.0
53,0,942.0,F3,L,471.0
59,58,942.0,B3,L,471.0
55,0,942.0,G3,L,471.0
53,0,942.0,F3,L,471.0
50,0,942.0,D3,L,471.0
50,32,942.1666666666666,D3,L,471.0833333333333
55,27,942.1666666666666,G3,L,471.0833333333333
53,43,942.1666666666666,F3,L,471.0833333333333
59,0,942.1666666666666,B3,L,471.0833333333333
65,0,942.1875,F4,R,471.09375
67,50,942.1875,G4,R,471.09375
67,0,942.25,G4,R,471.125
67,50,942.25,G4,R,471.125
55,0,942.3333333333333,G3,L,471.16666666666663
50,0,942.3333333333333,D3,L,471.16666666666663
53,0,942.3333333333333,F3,L,471.16666666666663
67,0,942.4375,G4,R,471.21875
65,19,942.4375,F4,R,471.21875
65,19,942.5,F4,R,471.25
65,0,942.5,F4,R,471.25
59,57,942.5,B3,L,471.25
67,46,942.625,G4,R,471.3125
65,0,942.625,F4,R,471.3125
59,0,942.75,B3,L,471.375
53,41,942.75,F3,L,471.375
50,19,942.75,D3,L,471.375
67,0,942.75,G4,R,471.375
55,30,942.75,G3,R,471.375
55,0,942.875,G3,R,471.4375
65,39,942.875,F4,R,471.4375
65,0,942.9375,F4,R,471.46875
59,59,942.9375,B3,R,471.46875
59,0,943.0,B3,R,471.5
53,0,943.0,F3,L,471.5
50,0,943.0,D3,L,471.5
59,59,943.0,B3,R,471.5
67,41,943.0625,G4,R,471.53125
55,30,943.125,G3,R,471.5625
53,42,943.125,F3,L,471.5625
50,32,943.125,D3,L,471.5625
59,0,943.125,B3,R,471.5625
67,0,943.25,G4,R,471.625
65,36,943.3125,F4,R,471.65625
55,0,943.375,G3,R,471.6875
59,54,943.375,B3,R,471.6875
65,0,943.5,F4,R,471.75
59,54,943.5,B3,R,471.75
53,0,943.5,F3,L,471.75
53,42,943.5,F3,L,471.75
50,0,943.5,D3,L,471.75
59,0,943.5,B3,R,471.75
67,44,943.5625,G4,R,471.78125
55,28,943.625,G3,R,471.8125
50,39,943.625,D3,L,471.8125
59,0,943.625,B3,R,471.8125
67,0,943.75,G4,R,471.875
59,59,943.75,B3,L,471.875
55,0,943.75,G3,R,471.875
65,39,943.75,F4,R,471.875
50,0,943.75,D3,L,471.875
59,0,944.0,B3,L,472.0
53,39,944.0,F3,L,472.0
50,41,944.0,D3,L,472.0
53,0,944.0,F3,L,472.0
67,48,944.0,G4,R,472.0
65,0,944.0,F4,R,472.0
55,32,944.125,G3,R,472.0625
67,0,944.125,G4,R,472.0625
59,56,944.2222222222222,B3,L,472.1111111111111
53,0,944.2222222222222,F3,L,472.1111111111111
50,0,944.2222222222222,D3,L,472.1111111111111
65,37,944.25,F4,R,472.125
55,0,944.25,G3,R,472.125
59,0,944.4444444444443,B3,L,472.2222222222222
55,38,944.4444444444445,G3,L,472.22222222222223
53,46,944.4444444444445,F3,L,472.22222222222223
50,38,944.4444444444445,D3,L,472.22222222222223
67,51,944.5,G4,R,472.25
65,0,944.5,F4,R,472.25
59,57,944.6666666666666,B3,L,472.3333333333333
55,0,944.6666666666666,G3,L,472.3333333333333
53,0,944.6666666666666,F3,L,472.3333333333333
50,0,944.6666666666666,D3,L,472.3333333333333
67,0,944.75,G4,R,472.375
65,43,944.7916666666666,F4,R,472.3958333333333
65,0,944.8333333333333,F4,R,472.41666666666663
59,0,944.8888888888888,B3,L,472.4444444444444
50,40,944.8888888888889,D3,L,472.44444444444446
53,38,944.8888888888889,F3,L,472.44444444444446
67,54,944.9166666666666,G4,R,472.4583333333333
67,0,945.0,G4,R,472.5
55,25,945.0,G3,R,472.5
59,57,945.1111111111111,B3,L,472.55555555555554
53,0,945.1111111111111,F3,L,472.55555555555554
50,0,945.1111111111111,D3,L,472.55555555555554
55,0,945.125,G3,R,472.5625
65,48,945.125,F4,R,472.5625
67,55,945.5,G4,R,472.75
65,0,945.5,F4,R,472.75
52,52,945.5555555555555,E3,L,472.77777777777777
59,0,945.5555555555555,B3,L,472.77777777777777
55,49,945.5555555555555,G3,L,472.77777777777777
67,0,945.6666666666666,G4,R,472.8333333333333
52,0,945.7777777777777,E3,L,472.88888888888886
55,0,945.7777777777777,G3,L,472.88888888888886
60,50,945.7777777777778,C4,L,472.8888888888889
64,44,945.8333333333334,E4,R,472.9166666666667
64,0,946.0,E4,R,473.0
60,0,946.0,C4,L,473.0
55,53,946.0625,G3,L,473.03125
52,44,946.0625,E3,L,473.03125
67,43,946.0833333333334,G4,R,473.0416666666667
67,0,946.1666666666667,G4,R,473.08333333333337
55,0,946.25,G3,L,473.125
60,52,946.25,C4,L,473.125
52,0,946.25,E3,L,473.125
64,47,946.3333333333334,E4,R,473.1666666666667
52,44,946.5,E3,L,473.25
67,49,946.5,G4,R,473.25
55,49,946.5,G3,L,473.25
64,0,946.5,E4,R,473.25
60,0,946.5,C4,L,473.25
60,56,946.75,C4,L,473.375
64,40,946.75,E4,R,473.375
52,0,946.75,E3,L,473.375
55,0,946.75,G3,L,473.375
67,0,946.75,G4,R,473.375
67,55,947.0,G4,R,473.5
64,0,947.0,E4,R,473.5
60,0,947.0,C4,L,473.5
52,44,947.0,E3,L,473.5
55,30,947.0833333333334,G3,R,473.5416666666667
67,0,947.0833333333334,G4,R,473.5416666666667
55,0,947.25,G3,R,473.625
60,57,947.25,C4,L,473.625
52,0,947.25,E3,L,473.625
64,40,947.25,E4,R,473.625
52,43,947.5,E3,L,473.75
60,0,947.5,C4,L,473.75
55,49,947.5,G3,L,473.75
67,42,947.5,G4,R,473.75
64,0,947.5,E4,R,473.75
52,0,947.75,E3,L,473.875
55,0,947.75,G3,L,473.875
60,51,947.75,C4,L,473.875
64,42,947.75,E4,R,473.875
67,0,947.75,G4,R,473.875
60,0,947.875,C4,L,473.9375
55,49,947.9375,G3,L,473.96875
67,44,947.9375,G4,R,473.96875
64,0,947.9375,E4,R,473.96875
52,43,947.9375,E3,L,473.96875
55,0,948.0,G3,L,474.0
67,44,948.0,G4,R,474.0
55,49,948.0,G3,L,474.0
52,0,948.0,E3,L,474.0
67,0,948.0,G4,R,474.0
60,40,948.2,C4,L,474.1
55,0,948.2,G3,L,474.1
64,35,948.25,E4,R,474.125
67,0,948.25,G4,R,474.125
67,49,948.375,G4,R,474.1875
64,0,948.375,E4,R,474.1875
55,54,948.4,G3,L,474.2
52,51,948.4,E3,L,474.2
60,0,948.4000000000001,C4,L,474.20000000000005
67,0,948.5,G4,R,474.25
60,54,948.6,C4,L,474.3
55,0,948.6,G3,L,474.3
52,0,948.6,E3,L,474.3
64,40,948.625,E4,R,474.3125
64,0,948.75,E4,R,474.375
55,47,948.8,G3,L,474.4
52,38,948.8,E3,L,474.4
60,0,948.8000000000001,C4,L,474.40000000000003
67,42,948.8125,G4,R,474.40625
64,43,949.0,E4,R,474.5
67,0,949.0,G4,R,474.5
55,0,949.0,G3,L,474.5
52,0,949.0,E3,L,474.5
60,44,949.125,C4,R,474.5625
64,0,949.125,E4,R,474.5625
67,47,949.25,G4,R,474.625
60,0,949.25,C4,R,474.625
55,47,949.25,G3,L,474.625
52,36,949.25,E3,L,474.625
67,0,949.5,G4,R,474.75
55,0,949.5,G3,L,474.75
52,0,949.5,E3,L,474.75
64,46,949.5416666666666,E4,R,474.7708333333333
64,0,949.5833333333333,E4,R,474.79166666666663
60,41,949.5833333333334,C4,R,474.7916666666667
55,51,949.6875,G3,L,474.84375
52,41,949.6875,E3,L,474.84375
60,0,949.7083333333334,C4,R,474.8541666666667
67,45,949.7083333333334,G4,R,474.8541666666667
55,51,949.75,G3,L,474.875
67,45,949.75,G4,R,474.875
52,41,949.75,E3,L,474.875
55,0,949.75,G3,L,474.875
52,0,949.75,E3,L,474.875
67,0,949.75,G4,R,474.875
60,32,950.0,C4,L,475.0
55,0,950.0,G3,L,475.0
64,42,950.0,E4,R,475.0
67,0,950.0,G4,R,475.0
52,0,950.0,E3,L,475.0
52,38,950.125,E3,L,475.0625
60,0,950.125,C4,L,475.0625
64,0,950.125,E4,R,475.0625
67,48,950.125,G4,R,475.0625
55,50,950.125,G3,L,475.0625
52,0,950.375,E3,L,475.1875
67,0,950.375,G4,R,475.1875
64,44,950.375,E4,R,475.1875
60,53,950.375,C4,L,475.1875
55,0,950.375,G3,L,475.1875
64,0,950.5,E4,R,475.25
60,0,950.5,C4,L,475.25
67,51,950.5625,G4,R,475.28125
55,57,950.5625,G3,L,475.28125
52,39,950.5625,E3,L,475.28125
67,0,950.75,G4,R,475.375
64,51,950.75,E4,R,475.375
52,0,950.75,E3,L,475.375
55,0,950.75,G3,L,475.375
64,0,950.8333333333334,E4,R,475.4166666666667
60,51,950.8333333333334,C4,R,475.4166666666667
60,0,951.0,C4,R,475.5
52,45,951.125,E3,L,475.5625
55,51,951.125,G3,L,475.5625
72,56,951.125,C5,R,475.5625
67,60,951.375,G4,R,475.6875
72,0,951.375,C5,R,475.6875
60,56,951.375,C4,L,475.6875
52,0,951.375,E3,L,475.6875
55,0,951.375,G3,L,475.6875
60,56,951.5,C4,L,475.75
67,0,951.5,G4,R,475.75
60,0,951.5,C4,L,475.75
67,60,951.5,G4,R,475.75
60,0,951.625,C4,L,475.8125
72,59,951.625,C5,R,475.8125
67,0,951.6875,G4,R,475.84375
52,34,951.6875,E3,L,475.84375
55,47,951.6875,G3,R,475.84375
52,0,951.75,E3,L,475.875
52,34,951.75,E3,L,475.875
55,0,951.75,G3,R,475.875
55,47,951.75,G3,R,475.875
60,51,951.875,C4,L,475.9375
52,0,951.875,E3,L,475.9375
55,0,951.875,G3,R,475.9375
67,27,951.875,G4,R,475.9375
72,0,952.0,C5,R,476.0
67,0,952.0,G4,R,476.0
60,0,952.0,C4,L,476.0
67,27,952.0,G4,R,476.0
60,51,952.0,C4,L,476.0
55,44,952.125,G3,L,476.0625
52,49,952.125,E3,L,476.0625
60,0,952.125,C4,L,476.0625
72,55,952.125,C5,R,476.0625
67,0,952.125,G4,R,476.0625
72,0,952.375,C5,R,476.1875
55,0,952.375,G3,L,476.1875
52,0,952.375,E3,L,476.1875
60,57,952.375,C4,L,476.1875
67,47,952.375,G4,R,476.1875
67,0,952.5,G4,R,476.25
60,0,952.5,C4,L,476.25
60,57,952.5,C4,L,476.25
60,0,952.5625,C4,L,476.28125
72,53,952.5625,C5,R,476.28125
52,41,952.5625,E3,L,476.28125
55,43,952.5625,G3,L,476.28125
72,0,952.75,C5,R,476.375
55,0,952.75,G3,L,476.375
52,0,952.75,E3,L,476.375
67,40,952.875,G4,R,476.4375
60,47,952.875,C4,L,476.4375
55,41,953.0,G3,L,476.5
60,0,953.0,C4,L,476.5
72,53,953.0,C5,R,476.5
67,0,953.0,G4,R,476.5
52,40,953.0,E3,L,476.5
52,0,953.25,E3,L,476.625
55,0,953.25,G3,L,476.625
60,59,953.25,C4,L,476.625
72,0,953.25,C5,R,476.625
67,48,953.25,G4,R,476.625
67,0,953.4375,G4,R,476.71875
72,52,953.46875,C5,R,476.734375
55,45,953.5,G3,L,476.75
52,39,953.5,E3,L,476.75
72,52,953.5,C5,R,476.75
72,0,953.5,C5,R,476.75
60,0,953.5,C4,L,476.75
60,55,953.6875,C4,L,476.84375
55,0,953.6875,G3,L,476.84375
72,0,953.6875,C5,R,476.84375
67,47,953.6875,G4,R,476.84375
52,0,953.6875,E3,L,476.84375
67,0,953.75,G4,R,476.875
60,0,953.75,C4,L,476.875
60,55,953.75,C4,L,476.875
67,47,953.75,G4,R,476.875
72,59,953.9375,C5,R,476.96875
67,0,953.9375,G4,R,476.96875
72,0,954.0,C5,R,477.0
52,41,954.0,E3,L,477.0
60,0,954.0,C4,L,477.0
55,49,954.0,G3,L,477.0
72,59,954.0,C5,R,477.0
52,0,954.25,E3,L,477.125
67,28,954.25,G4,R,477.125
55,0,954.25,G3,L,477.125
60,53,954.25,C4,L,477.125
72,0,954.25,C5,R,477.125
67,0,954.375,G4,R,477.1875
72,55,954.4375,C5,R,477.21875
72,55,954.5,C5,R,477.25
72,0,954.5,C5,R,477.25
60,0,954.5,C4,L,477.25
52,44,954.5,E3,L,477.25
55,49,954.5,G3,L,477.25
72,0,954.75,C5,R,477.375
52,0,954.75,E3,L,477.375
55,0,954.75,G3,L,477.375
60,47,954.75,C4,L,477.375
67,48,954.75,G4,R,477.375
60,0,954.875,C4,L,477.4375
52,45,954.9375,E3,L,477.46875
72,56,954.9375,C5,R,477.46875
55,47,954.9375,G3,L,477.46875
67,0,954.9375,G4,R,477.46875
72,0,955.0,C5,R,477.5
52,0,955.0,E3,L,477.5
55,0,955.0,G3,L,477.5
52,45,955.0,E3,L,477.5
55,47,955.0,G3,L,477.5
67,50,955.125,G4,R,477.5625
52,0,955.125,E3,L,477.5625
55,0,955.125,G3,L,477.5625
60,55,955.125,C4,L,477.5625
52,45,955.375,E3,L,477.6875
55,44,955.375,G3,L,477.6875
72,52,955.375,C5,R,477.6875
67,0,955.375,G4,R,477.6875
60,0,955.375,C4,L,477.6875
52,0,955.5,E3,L,477.75
55,0,955.5,G3,L,477.75
72,0,955.5,C5,R,477.75
67,54,955.625,G4,R,477.8125
60,53,955.75,C4,R,477.875
67,0,955.75,G4,R,477.875
52,45,955.8125,E3,L,477.90625
55,49,955.8125,G3,L,477.90625
72,58,955.8125,C5,R,477.90625
67,53,956.0,G4,R,478.0
52,0,956.0,E3,L,478.0
60,0,956.0,C4,R,478.0
55,0,956.0,G3,L,478.0
60,37,956.0,C4,L,478.0
72,0,956.0,C5,R,478.0
67,0,956.25,G4,R,478.125
60,0,956.25,C4,L,478.125
52,44,956.25,E3,L,478.125
72,52,956.25,C5,R,478.125
55,50,956.25,G3,L,478.125
72,0,956.5,C5,R,478.25
67,54,956.5,G4,R,478.25
67,0,956.625,G4,R,478.3125
60,24,956.625,C4,R,478.3125
57,49,957.0,A3,L,478.5
74,60,957.0,D5,R,478.5
52,0,957.0,E3,L,478.5
60,0,957.0,C4,R,478.5
60,43,957.0,C4,L,478.5
72,48,957.0,C5,R,478.5
55,0,957.0,G3,L,478.5
53,48,957.0,F3,L,478.5
57,0,957.25,A3,L,478.625
60,0,957.25,C4,L,478.625
74,0,957.25,D5,R,478.625
72,0,957.25,C5,R,478.625
53,0,957.25,F3,L,478.625
69,50,957.375,A4,R,478.6875
62,56,957.375,D4,L,478.6875
62,0,957.5,D4,L,478.75
62,56,957.5,D4,L,478.75
69,0,957.5,A4,R,478.75
72,47,957.625,C5,R,478.8125
62,0,957.625,D4,L,478.8125
60,41,957.625,C4,L,478.8125
74,59,957.625,D5,R,478.8125
53,47,957.625,F3,L,478.8125
57,47,957.625,A3,L,478.8125
74,0,957.875,D5,R,478.9375
62,60,957.875,D4,L,478.9375
72,0,957.875,C5,R,478.9375
69,47,957.875,A4,R,478.9375
60,0,958.0,C4,L,479.0
74,60,958.0,D5,R,479.0
69,0,958.0,A4,R,479.0
60,32,958.0,C4,L,479.0
53,43,958.0,F3,L,479.0
62,60,958.0,D4,L,479.0
62,0,958.0,D4,L,479.0
57,50,958.0,A3,L,479.0
57,0,958.0,A3,L,479.0
53,0,958.0,F3,L,479.0
72,40,958.0,C5,R,479.0
53,43,958.25,F3,L,479.125
60,0,958.25,C4,L,479.125
57,0,958.25,A3,L,479.125
53,0,958.25,F3,L,479.125
72,0,958.25,C5,R,479.125
74,0,958.25,D5,R,479.125
57,50,958.25,A3,L,479.125
69,48,958.34375,A4,R,479.171875
53,0,958.375,F3,L,479.1875
69,48,958.375,A4,R,479.1875
62,55,958.375,D4,L,479.1875
57,0,958.375,A3,L,479.1875
69,0,958.375,A4,R,479.1875
69,0,958.5,A4,R,479.25
60,39,958.5,C4,L,479.25
57,49,958.5,A3,L,479.25
53,45,958.5,F3,L,479.25
62,0,958.5,D4,L,479.25
72,44,958.53125,C5,R,479.265625
74,58,958.53125,D5,R,479.265625
72,0,958.625,C5,R,479.3125
74,0,958.625,D5,R,479.3125
62,55,958.75,D4,L,479.375
69,45,958.75,A4,R,479.375
60,0,958.75,C4,L,479.375
57,0,958.75,A3,L,479.375
53,0,958.75,F3,L,479.375
62,0,959.0,D4,L,479.5
69,0,959.0,A4,R,479.5
60,39,959.0,C4,R,479.5
57,45,959.0,A3,L,479.5
62,0,959.0,D4,L,479.5
72,47,959.0,C5,R,479.5
74,59,959.0,D5,R,479.5
53,31,959.0625,F3,L,479.53125
62,57,959.25,D4,L,479.625
53,0,959.25,F3,L,479.625
60,0,959.25,C4,R,479.625
72,0,959.25,C5,R,479.625
74,0,959.25,D5,R,479.625
69,48,959.25,A4,R,479.625
62,0,959.4166666666666,D4,L,479.7083333333333
57,51,959.4166666666666,A3,L,479.7083333333333
53,47,959.4166666666666,F3,L,479.7083333333333
74,64,959.4375,D5,R,479.71875
72,52,959.4375,C5,R,479.71875
69,0,959.5,A4,R,479.75
60,39,959.5,C4,R,479.75
72,0,959.5,C5,R,479.75
57,51,959.5,A3,L,479.75
53,0,959.5,F3,L,479.75
74,64,959.5,D5,R,479.75
53,47,959.5,F3,L,479.75
72,52,959.5,C5,R,479.75
74,0,959.5,D5,R,479.75
57,0,959.5,A3,L,479.75
60,0,959.6875,C4,R,479.84375
69,48,959.6875,A4,R,479.84375
69,48,959.75,A4,R,479.875
57,0,959.75,A3,L,479.875
53,0,959.75,F3,L,479.875
69,0,959.75,A4,R,479.875
57,0,959.75,A3,L,479.875
62,55,959.75,D4,L,479.875
69,0,959.875,A4,R,479.9375
60,41,959.875,C4,L,479.9375
53,49,959.875,F3,L,479.9375
72,61,959.875,C5,R,479.9375
57,53,959.875,A3,L,479.9375
74,69,959.875,D5,R,479.9375
72,0,959.875,C5,R,479.9375
74,0,959.875,D5,R,479.9375
53,49,960.0,F3,L,480.0
74,69,960.0,D5,R,480.0
53,0,960.0,F3,L,480.0
57,53,960.0,A3,L,480.0
72,0,960.0,C5,R,480.0
57,0,960.0,A3,L,480.0
74,0,960.0,D5,R,480.0
60,41,960.0,C4,L,480.0
62,0,960.0,D4,L,480.0
60,0,960.0,C4,L,480.0
62,52,960.0,D4,L,480.0
69,52,960.1875,A4,R,480.09375
69,52,960.25,A4,R,480.125
69,0,960.25,A4,R,480.125
69,0,960.375,A4,R,480.1875
60,42,960.375,C4,L,480.1875
62,0,960.375,D4,L,480.1875
53,43,960.375,F3,L,480.1875
72,51,960.375,C5,R,480.1875
57,48,960.375,A3,L,480.1875
74,64,960.375,D5,R,480.1875
72,0,960.5,C5,R,480.25
53,0,960.5,F3,L,480.25
60,0,960.5,C4,L,480.25
74,0,960.5,D5,R,480.25
57,0,960.5,A3,L,480.25
74,64,960.5,D5,R,480.25
72,51,960.5,C5,R,480.25
74,0,960.5,D5,R,480.25
69,54,960.625,A4,R,480.3125
62,52,960.6875,D4,R,480.34375
74,0,960.6875,D5,R,480.34375
72,0,960.6875,C5,R,480.34375
53,45,960.75,F3,L,480.375
60,38,960.75,C4,L,480.375
62,52,960.75,D4,R,480.375
62,0,960.75,D4,R,480.375
57,53,960.75,A3,L,480.375
74,59,960.8125,D5,R,480.40625
72,49,960.8125,C5,R,480.40625
62,0,960.8125,D4,R,480.40625
60,0,961.0,C4,L,480.5
74,0,961.0,D5,R,480.5
72,0,961.0,C5,R,480.5
62,41,961.0,D4,L,480.5
57,0,961.0,A3,L,480.5
60,0,961.0,C4,L,480.5
53,0,961.0,F3,L,480.5
53,0,961.0,F3,L,480.5
57,0,961.0,A3,L,480.5
69,0,961.0,A4,R,480.5
69,49,961.0625,A4,R,480.53125
69,0,961.25,A4,R,480.625
62,0,961.25,D4,L,480.625
74,61,961.25,D5,R,480.625
57,51,961.25,A3,L,480.625
60,44,961.25,C4,L,480.625
53,44,961.25,F3,L,480.625
72,46,961.25,C5,R,480.625
74,0,961.5,D5,R,480.75
69,52,961.5,A4,R,480.75
57,51,961.5,A3,L,480.75
72,0,961.5,C5,R,480.75
57,0,961.5,A3,L,480.75
69,0,961.5833333333334,A4,R,480.7916666666667
62,37,961.5833333333334,D4,R,480.7916666666667
72,49,961.6666666666666,C5,R,480.8333333333333
74,58,961.6666666666666,D5,R,480.8333333333333
62,0,961.6666666666667,D4,R,480.83333333333337
57,0,961.6875,A3,L,480.84375
57,52,961.6875,A3,L,480.84375
53,51,961.6875,F3,L,480.84375
60,47,961.6875,C4,L,480.84375
72,49,961.75,C5,R,480.875
74,58,961.75,D5,R,480.875
60,47,961.75,C4,L,480.875
57,52,961.75,A3,L,480.875
53,0,961.75,F3,L,480.875
60,0,961.75,C4,L,480.875
53,51,961.75,F3,L,480.875
72,0,961.75,C5,R,480.875
57,0,961.75,A3,L,480.875
74,0,961.75,D5,R,480.875
69,40,961.9375,A4,R,480.96875
69,0,962.0,A4,R,481.0
69,40,962.0,A4,R,481.0
72,0,962.0,C5,R,481.0
60,0,962.0,C4,L,481.0
57,0,962.0,A3,L,481.0
74,0,962.0,D5,R,481.0
53,0,962.0,F3,L,481.0
62,34,962.0,D4,R,481.0
53,0,962.0,F3,L,481.0
60,0,962.0,C4,L,481.0
72,47,962.125,C5,R,481.0625
57,60,962.125,A3,L,481.0625
53,45,962.125,F3,L,481.0625
62,0,962.125,D4,R,481.0625
60,50,962.125,C4,L,481.0625
74,66,962.125,D5,R,481.0625
62,34,962.125,D4,R,481.0625
69,62,962.25,A4,R,481.125
72,0,962.25,C5,R,481.125
62,0,962.25,D4,R,481.125
74,0,962.25,D5,R,481.125
57,0,962.5,A3,L,481.25
53,0,962.5,F3,L,481.25
57,60,962.5,A3,L,481.25
60,0,962.5,C4,L,481.25
53,45,962.5,F3,L,481.25
57,0,962.6875,A3,L,481.34375
54,48,962.6875,F#3,L,481.34375
57,46,962.6875,A3,L,481.34375
60,48,962.6875,C4,L,481.34375
53,0,962.6875,F3,L,481.34375
60,48,962.75,C4,L,481.375
72,52,962.75,C5,R,481.375
54,0,962.75,F#3,L,481.375
57,0,962.75,A3,L,481.375
60,0,962.75,C4,L,481.375
74,69,962.75,D5,R,481.375
54,48,962.75,F#3,L,481.375
57,46,962.75,A3,L,481.375
69,0,962.75,A4,R,481.375
69,47,962.75,A4,R,481.375
69,0,963.0,A4,R,481.5
57,0,963.0,A3,L,481.5
69,0,963.0,A4,R,481.5
60,0,963.0,C4,L,481.5
66,59,963.0,F#4,R,481.5
74,0,963.0,D5,R,481.5
72,0,963.0,C5,R,481.5
54,0,963.0,F#3,L,481.5
62,57,963.1,D4,L,481.55
72,43,963.125,C5,R,481.5625
74,64,963.125,D5,R,481.5625
69,50,963.125,A4,R,481.5625
66,0,963.125,F#4,R,481.5625
62,0,963.2,D4,L,481.6
54,26,963.2,F#3,L,481.6
60,47,963.2,C4,L,481.6
57,46,963.2,A3,L,481.6
69,50,963.375,A4,R,481.6875
66,53,963.375,F#4,R,481.6875
69,0,963.375,A4,R,481.6875
62,59,963.4,D4,L,481.7
57,0,963.4000000000001,A3,L,481.70000000000005
54,0,963.4000000000001,F#3,L,481.70000000000005
60,0,963.4000000000001,C4,L,481.70000000000005
74,0,963.5,D5,R,481.75
72,0,963.5,C5,R,481.75
66,0,963.5,F#4,R,481.75
69,0,963.5,A4,R,481.75
54,44,963.6,F#3,L,481.8
62,0,963.6,D4,L,481.8
60,44,963.6,C4,L,481.8
57,51,963.6,A3,L,481.8
72,44,963.625,C5,R,481.8125
74,65,963.625,D5,R,481.8125
69,31,963.6875,A4,R,481.84375
69,31,963.75,A4,R,481.875
69,0,963.75,A4,R,481.875
62,56,963.8,D4,L,481.9
54,0,963.8000000000001,F#3,L,481.90000000000003
60,0,963.8000000000001,C4,L,481.90000000000003
57,0,963.8000000000001,A3,L,481.90000000000003
69,0,963.875,A4,R,481.9375
66,53,963.875,F#4,R,481.9375
74,0,964.0,D5,R,482.0
62,0,964.0,D4,L,482.0
57,54,964.0,A3,L,482.0
66,0,964.0,F#4,R,482.0
60,45,964.0,C4,L,482.0
69,45,964.0,A4,R,482.0
72,0,964.0,C5,R,482.0
74,68,964.0,D5,R,482.0
54,44,964.0,F#3,L,482.0
72,53,964.0,C5,R,482.0
57,0,964.25,A3,L,482.125
54,0,964.25,F#3,L,482.125
69,0,964.25,A4,R,482.125
72,0,964.25,C5,R,482.125
60,0,964.25,C4,L,482.125
74,0,964.25,D5,R,482.125
62,51,964.3125,D4,L,482.15625
66,54,964.3125,F#4,R,482.15625
54,44,964.5,F#3,L,482.25
74,66,964.5,D5,R,482.25
60,45,964.5,C4,L,482.25
57,54,964.5,A3,L,482.25
62,0,964.5,D4,L,482.25
72,44,964.5,C5,R,482.25
66,0,964.5,F#4,R,482.25
69,43,964.625,A4,R,482.3125
62,61,964.75,D4,L,482.375
57,0,964.75,A3,L,482.375
60,0,964.75,C4,L,482.375
66,55,964.75,F#4,R,482.375
54,0,964.75,F#3,L,482.375
69,0,964.75,A4,R,482.375
69,47,965.0,A4,R,482.5
66,0,965.0,F#4,R,482.5
57,54,965.0,A3,L,482.5
72,0,965.0,C5,R,482.5
74,0,965.0,D5,R,482.5
74,66,965.0,D5,R,482.5
54,49,965.0,F#3,L,482.5
72,35,965.0,C5,R,482.5
62,0,965.0,D4,L,482.5
69,47,965.0833333333334,A4,R,482.5416666666667
74,0,965.0833333333334,D5,R,482.5416666666667
72,0,965.0833333333334,C5,R,482.5416666666667
60,46,965.0833333333334,C4,R,482.5416666666667
69,0,965.0833333333334,A4,R,482.5416666666667
62,64,965.25,D4,L,482.625
57,0,965.25,A3,L,482.625
54,0,965.25,F#3,L,482.625
60,0,965.25,C4,R,482.625
69,0,965.25,A4,R,482.625
66,55,965.25,F#4,R,482.625
72,40,965.4375,C5,R,482.71875
57,57,965.4375,A3,L,482.71875
60,57,965.4375,C4,L,482.71875
54,55,965.4375,F#3,L,482.71875
62,0,965.4375,D4,L,482.71875
66,0,965.4375,F#4,R,482.71875
74,70,965.4375,D5,R,482.71875
69,51,965.4375,A4,R,482.71875
69,51,965.5,A4,R,482.75
72,40,965.5,C5,R,482.75
72,0,965.5,C5,R,482.75
60,57,965.5,C4,L,482.75
57,57,965.5,A3,L,482.75
54,55,965.5,F#3,L,482.75
60,0,965.5,C4,L,482.75
57,0,965.5,A3,L,482.75
54,0,965.5,F#3,L,482.75
69,0,965.5,A4,R,482.75
74,0,965.5,D5,R,482.75
74,70,965.5,D5,R,482.75
69,0,965.75,A4,R,482.875
60,0,965.75,C4,L,482.875
57,0,965.75,A3,L,482.875
54,0,965.75,F#3,L,482.875
62,61,965.75,D4,L,482.875
66,50,965.75,F#4,R,482.875
74,0,965.75,D5,R,482.875
72,0,965.75,C5,R,482.875
54,54,965.875,F#3,L,482.9375
72,57,965.875,C5,R,482.9375
74,72,965.875,D5,R,482.9375
54,0,966.0,F#3,L,483.0
54,54,966.0,F#3,L,483.0
57,56,966.0,A3,L,483.0
62,0,966.0,D4,L,483.0
69,24,966.0,A4,R,483.0
72,0,966.0,C5,R,483.0
74,0,966.0,D5,R,483.0
60,48,966.0,C4,R,483.0
72,57,966.0,C5,R,483.0
74,72,966.0,D5,R,483.0
66,0,966.0,F#4,R,483.0
60,0,966.125,C4,R,483.0625
60,48,966.125,C4,R,483.0625
69,0,966.125,A4,R,483.0625
57,0,966.1875,A3,L,483.09375
62,52,966.1875,D4,L,483.09375
60,0,966.1875,C4,R,483.09375
66,51,966.1875,F#4,R,483.09375
62,52,966.25,D4,L,483.125
62,0,966.25,D4,L,483.125
66,0,966.25,F#4,R,483.125
66,51,966.25,F#4,R,483.125
72,0,966.375,C5,R,483.1875
54,0,966.375,F#3,L,483.1875
54,57,966.375,F#3,L,483.1875
57,52,966.375,A3,L,483.1875
60,45,966.375,C4,L,483.1875
74,77,966.375,D5,R,483.1875
69,45,966.375,A4,R,483.1875
62,0,966.375,D4,L,483.1875
74,0,966.375,D5,R,483.1875
66,0,966.375,F#4,R,483.1875
72,50,966.375,C5,R,483.1875
60,0,966.5,C4,L,483.25
69,0,966.5,A4,R,483.25
74,0,966.5,D5,R,483.25
57,0,966.5,A3,L,483.25
72,50,966.5,C5,R,483.25
60,45,966.5,C4,L,483.25
54,0,966.5,F#3,L,483.25
74,77,966.5,D5,R,483.25
69,45,966.5,A4,R,483.25
72,0,966.5,C5,R,483.25
66,59,966.625,F#4,R,483.3125
69,0,966.625,A4,R,483.3125
74,0,966.625,D5,R,483.3125
62,54,966.625,D4,L,483.3125
60,0,966.625,C4,L,483.3125
60,53,966.75,C4,L,483.375
57,57,966.75,A3,L,483.375
62,0,966.75,D4,L,483.375
54,55,966.75,F#3,L,483.375
72,56,966.75,C5,R,483.375
66,0,966.75,F#4,R,483.375
74,72,966.75,D5,R,483.375
72,0,966.875,C5,R,483.4375
69,32,966.9375,A4,R,483.46875
72,0,966.9375,C5,R,483.46875
74,0,966.9375,D5,R,483.46875
54,0,967.0,F#3,L,483.5
60,0,967.0,C4,L,483.5
57,0,967.0,A3,L,483.5
69,32,967.0,A4,R,483.5
69,0,967.0,A4,R,483.5
62,55,967.0,D4,L,483.5
66,66,967.0,F#4,R,483.5
57,61,967.25,A3,L,483.625
69,50,967.25,A4,R,483.625
72,52,967.25,C5,R,483.625
62,0,967.25,D4,L,483.625
54,51,967.25,F#3,L,483.625
74,74,967.25,D5,R,483.625
60,60,967.25,C4,L,483.625
66,0,967.25,F#4,R,483.625
66,61,967.5,F#4,L,483.75
54,0,967.5,F#3,L,483.75
57,0,967.5,A3,L,483.75
60,0,967.5,C4,L,483.75
66,0,967.75,F#4,L,483.875
72,48,967.75,C5,R,483.875
69,0,967.75,A4,R,483.875
60,57,967.75,C4,L,483.875
72,0,967.75,C5,R,483.875
74,78,967.75,D5,R,483.875
74,0,967.75,D5,R,483.875
54,49,967.75,F#3,L,483.875
57,54,967.75,A3,L,483.875
69,29,967.75,A4,R,483.875
60,0,967.875,C4,L,483.9375
62,3,967.875,D4,L,483.9375
57,0,967.875,A3,L,483.9375
54,0,967.875,F#3,L,483.9375
74,0,967.875,D5,R,483.9375
66,69,967.875,F#4,R,483.9375
69,0,967.875,A4,R,483.9375
72,0,967.875,C5,R,483.9375
62,0,968.0,D4,L,484.0
66,0,968.0,F#4,R,484.0
69,0,968.0,A4,R,484.0
76,74,968.5,E5,R,484.25
55,71,968.5,G3,L,484.25
55,0,968.75,G3,L,484.375
67,48,968.75,G4,L,484.375
64,56,968.75,E4,L,484.375
60,60,968.75,C4,L,484.375
76,0,968.75,E5,R,484.375
72,66,968.75,C5,R,484.375
72,0,969.0,C5,R,484.5
76,66,969.0,E5,R,484.5
55,60,969.0,G3,L,484.5
67,0,969.0,G4,L,484.5
64,0,969.0,E4,L,484.5
60,0,969.0,C4,L,484.5
72,65,969.25,C5,R,484.625
76,0,969.25,E5,R,484.625
67,62,969.25,G4,L,484.625
64,58,969.25,E4,L,484.625
60,57,969.25,C4,L,484.625
55,0,969.25,G3,L,484.625
72,0,969.5,C5,R,484.75
55,69,969.5,G3,L,484.75
67,0,969.5,G4,L,484.75
64,0,969.5,E4,L,484.75
60,0,969.5,C4,L,484.75
76,68,969.5,E5,R,484.75
72,66,969.75,C5,R,484.875
67,42,969.75,G4,L,484.875
55,0,969.75,G3,L,484.875
64,51,969.75,E4,L,484.875
76,0,969.75,E5,R,484.875
72,0,969.8125,C5,R,484.90625
60,45,969.8125,C4,R,484.90625
55,69,970.0,G3,L,485.0
60,0,970.0,C4,R,485.0
67,0,970.0,G4,L,485.0
64,0,970.0,E4,L,485.0
76,68,970.0,E5,R,485.0
76,0,970.1875,E5,R,485.09375
72,63,970.1875,C5,R,485.09375
60,51,970.2,C4,L,485.1
55,0,970.2,G3,L,485.1
64,50,970.2,E4,L,485.1
67,52,970.2,G4,L,485.1
72,0,970.25,C5,R,485.125
72,63,970.25,C5,R,485.125
72,0,970.375,C5,R,485.1875
76,67,970.375,E5,R,485.1875
55,66,970.4,G3,L,485.2
60,0,970.4000000000001,C4,L,485.20000000000005
64,0,970.4000000000001,E4,L,485.20000000000005
67,0,970.4000000000001,G4,L,485.20000000000005
76,0,970.5,E5,R,485.25
72,65,970.59375,C5,R,485.296875
64,42,970.6,E4,L,485.3
67,49,970.6,G4,L,485.3
55,0,970.6,G3,L,485.3
72,65,970.625,C5,R,485.3125
72,0,970.625,C5,R,485.3125
60,45,970.6875,C4,R,485.34375
72,0,970.75,C5,R,485.375
76,68,970.75,E5,R,485.375
60,0,970.75,C4,R,485.375
60,45,970.75,C4,R,485.375
55,67,970.8,G3,L,485.4
64,0,970.8000000000001,E4,L,485.40000000000003
67,0,970.8000000000001,G4,L,485.40000000000003
67,42,971.0,G4,L,485.5
72,69,971.0,C5,R,485.5
64,49,971.0,E4,L,485.5
60,52,971.0,C4,L,485.5
76,0,971.0,E5,R,485.5
60,0,971.0,C4,R,485.5
55,0,971.0,G3,L,485.5
64,0,971.25,E4,L,485.625
60,0,971.25,C4,L,485.625
72,0,971.25,C5,R,485.625
76,73,971.25,E5,R,485.625
55,71,971.25,G3,L,485.625
67,0,971.25,G4,L,485.625
67,31,971.5,G4,L,485.75
60,38,971.5,C4,L,485.75
55,0,971.5,G3,L,485.75
76,0,971.5,E5,R,485.75
64,46,971.5,E4,L,485.75
72,63,971.5416666666666,C5,R,485.7708333333333
72,0,971.6666666666666,C5,R,485.8333333333333
55,68,971.6875,G3,L,485.84375
67,0,971.6875,G4,L,485.84375
60,0,971.6875,C4,L,485.84375
76,65,971.7083333333334,E5,R,485.8541666666667
55,0,971.75,G3,L,485.875
76,65,971.75,E5,R,485.875
76,0,971.75,E5,R,485.875
55,68,971.75,G3,L,485.875
76,0,971.875,E5,R,485.9375
64,0,971.875,E4,L,485.9375
72,66,971.9375,C5,R,485.96875
64,48,971.9375,E4,L,485.96875
67,51,971.9375,G4,L,485.96875
67,0,972.0,G4,L,486.0
55,0,972.0,G3,L,486.0
64,48,972.0,E4,L,486.0
67,51,972.0,G4,L,486.0
64,0,972.0,E4,L,486.0
60,53,972.0,C4,R,486.0
55,66,972.0,G3,L,486.0
72,0,972.0,C5,R,486.0
60,0,972.1666666666666,C4,R,486.0833333333333
76,62,972.1666666666666,E5,R,486.0833333333333
55,0,972.25,G3,L,486.125
76,0,972.3333333333333,E5,R,486.16666666666663
72,68,972.3333333333334,C5,R,486.1666666666667
67,44,972.375,G4,L,486.1875
67,0,972.375,G4,L,486.1875
64,0,972.375,E4,L,486.1875
60,54,972.375,C4,L,486.1875
64,51,972.375,E4,L,486.1875
64,0,972.5,E4,L,486.25
67,0,972.5,G4,L,486.25
72,0,972.5,C5,R,486.25
60,0,972.5,C4,L,486.25
60,54,972.5,C4,L,486.25
76,70,972.5,E5,R,486.25
55,65,972.5625,G3,L,486.28125
60,0,972.5625,C4,L,486.28125
67,46,972.75,G4,L,486.375
72,68,972.75,C5,R,486.375
55,0,972.75,G3,L,486.375
64,48,972.75,E4,L,486.375
76,0,972.875,E5,R,486.4375
60,47,972.875,C4,R,486.4375
76,63,973.0,E5,R,486.5
60,0,973.0,C4,R,486.5
72,0,973.0,C5,R,486.5
67,0,973.0,G4,L,486.5
55,68,973.0,G3,L,486.5
64,0,973.0,E4,L,486.5
76,0,973.1428571428571,E5,R,486.57142857142856
64,48,973.1875,E4,L,486.59375
72,67,973.2142857142857,C5,R,486.60714285714283
64,0,973.25,E4,L,486.625
64,48,973.25,E4,L,486.625
55,0,973.25,G3,L,486.625
60,46,973.25,C4,L,486.625
72,0,973.2857142857142,C5,R,486.6428571428571
67,34,973.2857142857143,G4,R,486.64285714285717
64,0,973.375,E4,L,486.6875
55,59,973.375,G3,L,486.6875
67,0,973.4285714285714,G4,R,486.7142857142857
76,61,973.4285714285714,E5,R,486.7142857142857
60,0,973.5,C4,L,486.75
60,56,973.5,C4,L,486.75
55,0,973.5,G3,L,486.75
55,59,973.5,G3,L,486.75
67,52,973.5,G4,L,486.75
72,72,973.5714285714286,C5,R,486.7857142857143
76,0,973.5714285714286,E5,R,486.7857142857143
64,41,973.6428571428571,E4,R,486.82142857142856
72,0,973.6428571428571,C5,R,486.82142857142856
72,72,973.6428571428571,C5,R,486.82142857142856
64,0,973.8571428571428,E4,R,486.9285714285714
72,0,973.8571428571428,C5,R,486.9285714285714
77,67,973.9285714285714,F5,R,486.9642857142857
77,67,974.0,F5,R,487.0
77,0,974.0,F5,R,487.0
60,0,974.0,C4,L,487.0
55,67,974.0,G3,L,487.0
55,0,974.0,G3,L,487.0
67,0,974.0,G4,L,487.0
55,0,974.25,G3,L,487.125
65,27,974.25,F4,L,487.125
62,27,974.25,D4,L,487.125
59,46,974.25,B3,L,487.125
67,47,974.25,G4,L,487.125
77,0,974.25,F5,R,487.125
74,59,974.25,D5,R,487.125
71,46,974.25,B4,L,487.125
74,0,974.5,D5,R,487.25
77,51,974.5,F5,R,487.25
67,0,974.5,G4,L,487.25
59,0,974.5,B3,L,487.25
65,0,974.5,F4,L,487.25
62,0,974.5,D4,L,487.25
55,63,974.5,G3,L,487.25
71,0,974.5,B4,L,487.25
71,46,974.625,B4,L,487.3125
65,29,974.625,F4,L,487.3125
55,0,974.625,G3,L,487.3125
74,56,974.625,D5,R,487.3125
67,4,974.75,G4,R,487.375
65,0,974.75,F4,L,487.375
77,0,974.75,F5,R,487.375
71,0,974.75,B4,L,487.375
59,44,974.75,B3,L,487.375
77,53,974.875,F5,R,487.4375
67,0,974.875,G4,R,487.4375
59,0,974.875,B3,L,487.4375
55,66,974.875,G3,L,487.4375
74,58,975.0,D5,R,487.5
77,0,975.0,F5,R,487.5
55,0,975.0,G3,L,487.5
74,0,975.0,D5,R,487.5
62,41,975.0625,D4,L,487.53125
59,42,975.0625,B3,L,487.53125
71,44,975.0625,B4,L,487.53125
65,37,975.0625,F4,L,487.53125
55,61,975.25,G3,L,487.625
71,0,975.25,B4,L,487.625
65,0,975.25,F4,L,487.625
62,0,975.25,D4,L,487.625
59,0,975.25,B3,L,487.625
74,0,975.25,D5,R,487.625
77,49,975.3125,F5,R,487.65625
74,55,975.5,D5,R,487.75
71,29,975.5,B4,L,487.75
65,49,975.5,F4,L,487.75
55,0,975.5,G3,L,487.75
77,0,975.5,F5,R,487.75
59,33,975.5833333333334,B3,L,487.7916666666667
67,24,975.5833333333334,G4,R,487.7916666666667
71,29,975.5833333333334,B4,L,487.7916666666667
71,0,975.5833333333334,B4,L,487.7916666666667
65,49,975.5833333333334,F4,L,487.7916666666667
62,29,975.5833333333334,D4,L,487.7916666666667
65,0,975.5833333333334,F4,L,487.7916666666667
59,33,975.6666666666666,B3,L,487.8333333333333
62,29,975.6666666666666,D4,L,487.8333333333333
71,0,975.6666666666667,B4,L,487.83333333333337
59,0,975.6666666666667,B3,L,487.83333333333337
65,0,975.6666666666667,F4,L,487.83333333333337
62,0,975.6666666666667,D4,L,487.83333333333337
67,0,975.75,G4,R,487.875
55,64,975.75,G3,L,487.875
62,0,975.75,D4,L,487.875
59,0,975.75,B3,L,487.875
77,49,975.7916666666666,F5,R,487.8958333333333
62,44,975.875,D4,L,487.9375
59,47,975.875,B3,L,487.9375
55,0,975.875,G3,L,487.9375
65,51,975.875,F4,L,487.9375
67,44,975.875,G4,L,487.9375
77,0,975.9166666666666,F5,R,487.9583333333333
71,45,975.9583333333334,B4,R,487.9791666666667
71,0,976.0,B4,R,488.0
71,45,976.0,B4,R,488.0
65,0,976.0,F4,L,488.0
67,0,976.0,G4,L,488.0
74,0,976.0,D5,R,488.0
74,55,976.0,D5,R,488.0
59,0,976.0,B3,L,488.0
62,0,976.0,D4,L,488.0
65,51,976.0,F4,L,488.0
67,44,976.0,G4,L,488.0
59,47,976.0,B3,L,488.0
62,44,976.0,D4,L,488.0
59,0,976.1875,B3,L,488.09375
62,0,976.1875,D4,L,488.09375
55,63,976.1875,G3,L,488.09375
74,0,976.25,D5,R,488.125
77,54,976.25,F5,R,488.125
55,63,976.25,G3,L,488.125
71,0,976.25,B4,R,488.125
55,0,976.25,G3,L,488.125
62,39,976.4375,D4,L,488.21875
71,43,976.4375,B4,L,488.21875
67,24,976.4375,G4,L,488.21875
74,56,976.4375,D5,R,488.21875
65,38,976.4375,F4,L,488.21875
55,0,976.4375,G3,L,488.21875
62,39,976.5,D4,L,488.25
74,0,976.5,D5,R,488.25
74,56,976.5,D5,R,488.25
67,24,976.5,G4,L,488.25
77,0,976.5,F5,R,488.25
59,42,976.5,B3,R,488.25
65,0,976.5,F4,L,488.25
62,0,976.5,D4,L,488.25
65,38,976.5,F4,L,488.25
67,0,976.5,G4,L,488.25
71,0,976.5,B4,L,488.25
71,43,976.5,B4,L,488.25
67,0,976.625,G4,L,488.3125
71,0,976.625,B4,L,488.3125
59,0,976.625,B3,R,488.3125
77,61,976.625,F5,R,488.3125
62,0,976.625,D4,L,488.3125
65,0,976.625,F4,L,488.3125
55,66,976.625,G3,L,488.3125
77,0,976.875,F5,R,488.4375
74,55,976.9375,D5,R,488.46875
62,35,977.0,D4,L,488.5
65,19,977.0,F4,L,488.5
71,33,977.0,B4,L,488.5
67,28,977.0,G4,L,488.5
74,0,977.0,D5,R,488.5
74,55,977.0,D5,R,488.5
74,0,977.0,D5,R,488.5
65,0,977.0,F4,L,488.5
67,0,977.0,G4,L,488.5
55,0,977.0,G3,L,488.5
59,47,977.0,B3,L,488.5
55,67,977.125,G3,L,488.5625
71,0,977.125,B4,L,488.5625
67,0,977.125,G4,L,488.5625
65,0,977.125,F4,L,488.5625
59,0,977.125,B3,L,488.5625
62,0,977.125,D4,L,488.5625
77,51,977.125,F5,R,488.5625
74,0,977.125,D5,R,488.5625
59,45,977.375,B3,L,488.6875
67,25,977.375,G4,L,488.6875
74,52,977.375,D5,R,488.6875
77,0,977.375,F5,R,488.6875
62,39,977.375,D4,L,488.6875
65,37,977.375,F4,L,488.6875
71,33,977.375,B4,L,488.6875
55,0,977.375,G3,L,488.6875
65,0,977.5,F4,L,488.75
74,0,977.5,D5,R,488.75
62,0,977.5,D4,L,488.75
59,0,977.5,B3,L,488.75
67,25,977.5,G4,L,488.75
67,0,977.5,G4,L,488.75
71,0,977.5,B4,L,488.75
55,62,977.625,G3,L,488.8125
77,53,977.625,F5,R,488.8125
71,38,977.875,B4,L,488.9375
67,40,977.875,G4,L,488.9375
65,39,977.875,F4,L,488.9375
67,0,977.875,G4,L,488.9375
77,0,977.875,F5,R,488.9375
62,39,977.875,D4,L,488.9375
74,56,977.875,D5,R,488.9375
59,39,977.875,B3,L,488.9375
55,0,977.875,G3,L,488.9375
62,0,978.0,D4,L,489.0
59,0,978.0,B3,L,489.0
65,0,978.0,F4,L,489.0
67,0,978.0,G4,L,489.0
71,0,978.0,B4,L,489.0
59,39,978.0,B3,L,489.0
62,39,978.0,D4,L,489.0
74,0,978.0,D5,R,489.0
74,56,978.0,D5,R,489.0
55,62,978.125,G3,L,489.0625
62,0,978.125,D4,L,489.0625
59,0,978.125,B3,L,489.0625
77,51,978.125,F5,R,489.0625
65,38,978.25,F4,R,489.125
74,0,978.25,D5,R,489.125
55,0,978.375,G3,L,489.1875
74,47,978.375,D5,R,489.1875
67,17,978.375,G4,L,489.1875
62,32,978.375,D4,L,489.1875
77,0,978.375,F5,R,489.1875
59,52,978.375,B3,L,489.1875
62,0,978.5,D4,L,489.25
67,17,978.5,G4,L,489.25
67,0,978.5,G4,L,489.25
59,0,978.5,B3,L,489.25
65,0,978.5,F4,R,489.25
71,24,978.5,B4,R,489.25
74,47,978.5,D5,R,489.25
74,0,978.5,D5,R,489.25
62,32,978.5,D4,L,489.25
59,52,978.5,B3,L,489.25
71,0,978.625,B4,R,489.3125
77,51,978.625,F5,R,489.3125
59,0,978.625,B3,L,489.3125
67,0,978.625,G4,L,489.3125
62,0,978.625,D4,L,489.3125
55,62,978.625,G3,L,489.3125
65,49,978.875,F4,L,489.4375
71,34,978.875,B4,L,489.4375
62,45,978.875,D4,L,489.4375
55,0,978.875,G3,L,489.4375
59,50,978.875,B3,L,489.4375
62,45,979.0,D4,L,489.5
62,0,979.0,D4,L,489.5
59,50,979.0,B3,L,489.5
59,0,979.0,B3,L,489.5
77,0,979.0,F5,R,489.5
71,0,979.0,B4,L,489.5
65,0,979.0,F4,L,489.5
74,0,979.0,D5,R,489.5
74,47,979.0,D5,R,489.5
59,0,980.0,B3,L,490.0
62,0,980.0,D4,L,490.0
74,0,980.0,D5,R,490.0
89,52,980.3333333333334,F6,R,490.1666666666667
35,45,980.3333333333334,B1,L,490.1666666666667
43,38,980.6666666666666,G2,L,490.3333333333333
91,56,980.6666666666666,G6,R,490.3333333333333
89,0,980.6666666666667,F6,R,490.33333333333337
35,0,980.6666666666667,B1,L,490.33333333333337
91,0,981.0,G6,R,490.5
43,0,981.0,G2,L,490.5
89,47,981.1666666666666,F6,R,490.5833333333333
35,48,981.1666666666666,B1,L,490.5833333333333
89,0,981.3333333333333,F6,R,490.66666666666663
35,0,981.3333333333333,B1,L,490.66666666666663
43,41,981.3333333333334,G2,L,490.6666666666667
91,58,981.3333333333334,G6,R,490.6666666666667
88,60,981.6666666666666,E6,R,490.8333333333333
35,45,981.6666666666666,B1,L,490.8333333333333
43,0,981.6666666666667,G2,L,490.83333333333337
91,0,981.6666666666667,G6,R,490.83333333333337
35,0,982.0,B1,L,491.0
88,0,982.0,E6,R,491.0
89,48,982.1,F6,R,491.05
43,37,982.1666666666666,G2,L,491.0833333333333
43,0,982.3333333333333,G2,L,491.16666666666663
35,46,982.3333333333334,B1,L,491.1666666666667
88,53,982.4,E6,R,491.2
89,0,982.4,F6,R,491.2
35,0,982.6666666666667,B1,L,491.33333333333337
88,0,982.6999999999999,E6,R,491.34999999999997
89,54,982.7,F6,R,491.35
43,39,982.8,G2,R,491.4
89,0,982.8000000000001,F6,R,491.40000000000003
43,0,983.0,G2,R,491.5
86,55,983.0,D6,R,491.5
35,47,983.125,B1,L,491.5625
35,0,983.5,B1,L,491.75
43,41,983.5,G2,L,491.75
88,45,983.5,E6,R,491.75
86,0,983.5,D6,R,491.75
43,0,983.8333333333334,G2,L,491.9166666666667
35,47,983.8333333333334,B1,L,491.9166666666667
86,48,983.8333333333334,D6,R,491.9166666666667
88,0,983.8333333333334,E6,R,491.9166666666667
35,0,984.0,B1,L,492.0
35,47,984.0,B1,L,492.0
86,0,984.0,D6,R,492.0
88,54,984.125,E6,R,492.0625
88,0,984.25,E6,R,492.125
43,40,984.25,G2,R,492.125
43,0,984.5,G2,R,492.25
35,0,984.5,B1,L,492.25
84,60,984.5833333333334,C6,R,492.2916666666667
35,47,984.5833333333334,B1,L,492.2916666666667
35,0,984.6666666666667,B1,L,492.33333333333337
86,51,984.8333333333334,D6,R,492.4166666666667
43,38,984.8333333333334,G2,L,492.4166666666667
84,0,984.8333333333334,C6,R,492.4166666666667
43,0,985.0,G2,L,492.5
84,49,985.0,C6,R,492.5
86,0,985.0,D6,R,492.5
35,40,985.0833333333334,B1,L,492.5416666666667
84,0,985.25,C6,R,492.625
35,0,985.3333333333334,B1,L,492.6666666666667
86,51,985.375,D6,R,492.6875
43,41,985.4166666666666,G2,L,492.7083333333333
86,0,985.5,D6,R,492.75
43,0,985.5,G2,L,492.75
43,41,985.5,G2,L,492.75
43,0,986.0,G2,L,493.0
31,39,986.0,G1,L,493.0
83,51,986.0,B5,R,493.0
83,0,986.25,B5,R,493.125
31,0,986.25,G1,L,493.125
43,25,986.25,G2,L,493.125
84,48,986.25,C6,R,493.125
84,0,986.5,C6,R,493.25
43,0,986.5,G2,L,493.25
31,36,986.5833333333334,G1,L,493.2916666666667
83,42,986.5833333333334,B5,R,493.2916666666667
31,0,986.8333333333334,G1,L,493.4166666666667
84,49,986.8333333333334,C6,R,493.4166666666667
83,0,986.8333333333334,B5,R,493.4166666666667
43,39,986.8333333333334,G2,L,493.4166666666667
84,0,987.0,C6,R,493.5
43,0,987.0,G2,L,493.5
31,42,987.25,G1,L,493.625
81,55,987.25,A5,R,493.625
31,0,987.5,G1,L,493.75
81,0,987.5,A5,R,493.75
83,51,987.5833333333334,B5,R,493.7916666666667
43,41,987.5833333333334,G2,L,493.7916666666667
43,0,987.8333333333334,G2,L,493.9166666666667
83,0,987.8333333333334,B5,R,493.9166666666667
81,48,987.9166666666666,A5,R,493.9583333333333
31,45,987.9166666666666,G1,L,493.9583333333333
81,48,988.0,A5,R,494.0
81,0,988.0,A5,R,494.0
31,45,988.0,G1,L,494.0
31,0,988.0,G1,L,494.0
83,52,988.125,B5,R,494.0625
81,0,988.125,A5,R,494.0625
83,0,988.25,B5,R,494.125
43,39,988.25,G2,R,494.125
43,0,988.5,G2,R,494.25
31,0,988.5,G1,L,494.25
31,44,988.5,G1,L,494.25
79,55,988.5,G5,R,494.25
43,37,989.0,G2,L,494.5
81,47,989.0,A5,R,494.5
31,0,989.0,G1,L,494.5
79,0,989.0,G5,R,494.5
81,0,989.25,A5,R,494.625
79,44,989.25,G5,R,494.625
31,46,989.25,G1,L,494.625
43,0,989.25,G2,L,494.625
79,0,989.5,G5,R,494.75
81,48,989.5625,A5,R,494.78125
43,40,989.625,G2,R,494.8125
81,0,989.625,A5,R,494.8125
31,46,990.0,G1,L,495.0
31,0,990.0,G1,L,495.0
77,60,990.0,F5,R,495.0
43,0,990.0,G2,R,495.0
31,0,990.3333333333334,G1,L,495.1666666666667
77,0,990.3333333333334,F5,R,495.1666666666667
43,40,990.3333333333334,G2,L,495.1666666666667
79,52,990.3333333333334,G5,R,495.1666666666667
79,0,990.5,G5,R,495.25
77,50,990.5833333333334,F5,R,495.2916666666667
77,50,990.6666666666666,F5,R,495.3333333333333
31,42,990.6666666666666,G1,L,495.3333333333333
43,0,990.6666666666667,G2,L,495.33333333333337
77,0,990.6666666666667,F5,R,495.33333333333337
79,50,990.9166666666666,G5,R,495.4583333333333
77,0,990.9166666666666,F5,R,495.4583333333333
31,0,991.0,G1,L,495.5
43,42,991.0,G2,R,495.5
79,0,991.0,G5,R,495.5
43,0,991.3333333333334,G2,R,495.6666666666667
76,53,991.3333333333334,E5,R,495.6666666666667
76,53,991.4166666666666,E5,R,495.7083333333333
36,44,991.4166666666666,C2,R,495.7083333333333
76,0,991.4166666666667,E5,R,495.70833333333337
76,53,991.5,E5,R,495.75
36,44,991.5,C2,R,495.75
36,0,991.5,C2,R,495.75
76,0,991.5,E5,R,495.75
77,44,991.75,F5,R,495.875
36,0,991.75,C2,R,495.875
76,0,991.75,E5,R,495.875
43,39,991.75,G2,L,495.875
43,0,992.0,G2,L,496.0
77,0,992.0,F5,R,496.0
36,45,992.0,C2,L,496.0
76,46,992.0,E5,R,496.0
76,46,992.25,E5,R,496.125
76,0,992.25,E5,R,496.125
77,46,992.3333333333334,F5,R,496.1666666666667
76,0,992.3333333333334,E5,R,496.1666666666667
43,44,992.4166666666666,G2,R,496.2083333333333
77,0,992.4166666666667,F5,R,496.20833333333337
43,44,992.5,G2,R,496.25
43,0,992.5,G2,R,496.25
43,0,992.75,G2,R,496.375
36,55,992.75,C2,L,496.375
74,65,992.75,D5,R,496.375
36,0,992.75,C2,L,496.375
36,0,993.0,C2,L,496.5
43,47,993.0,G2,L,496.5
74,0,993.0,D5,R,496.5
76,57,993.0,E5,R,496.5
74,62,993.25,D5,R,496.625
36,51,993.5,C2,R,496.75
76,0,993.5,E5,R,496.75
36,51,993.625,C2,R,496.8125
36,0,993.625,C2,R,496.8125
76,55,993.625,E5,R,496.8125
36,0,993.75,C2,R,496.875
43,46,993.75,G2,R,496.875
76,0,993.75,E5,R,496.875
36,57,994.0,C2,L,497.0
43,0,994.0,G2,L,497.0
74,0,994.0,D5,R,497.0
72,70,994.0,C5,R,497.0
43,0,994.0,G2,R,497.0
36,0,994.3333333333334,C2,L,497.1666666666667
43,51,994.3333333333334,G2,L,497.1666666666667
72,0,994.375,C5,R,497.1875
74,67,994.375,D5,R,497.1875
74,0,994.5,D5,R,497.25
74,67,994.5,D5,R,497.25
36,54,994.6666666666666,C2,L,497.3333333333333
43,0,994.6666666666667,G2,L,497.33333333333337
72,67,994.75,C5,R,497.375
74,0,994.75,D5,R,497.375
72,0,995.0,C5,R,497.5
36,0,995.0,C2,L,497.5
74,63,995.0416666666666,D5,R,497.5208333333333
74,0,995.0833333333333,D5,R,497.54166666666663
43,53,995.0833333333334,G2,R,497.5416666666667
43,0,995.25,G2,R,497.625
36,56,995.3333333333334,C2,L,497.6666666666667
71,66,995.5,B4,R,497.75
71,0,995.625,B4,R,497.8125
72,60,995.625,C5,R,497.8125
43,54,995.6666666666666,G2,L,497.8333333333333
36,0,995.6666666666667,C2,L,497.83333333333337
36,56,996.0,C2,L,498.0
43,0,996.0,G2,L,498.0
71,53,996.0,B4,R,498.0
72,0,996.0,C5,R,498.0
72,61,996.25,C5,L,498.125
36,0,996.25,C2,L,498.125
72,0,996.3125,C5,L,498.15625
43,45,996.3125,G2,L,498.15625
43,0,996.5,G2,L,498.25
71,0,996.75,B4,R,498.375
69,64,996.75,A4,R,498.375
40,53,996.75,E2,L,498.375
69,0,997.0,A4,R,498.5
71,58,997.0,B4,R,498.5
40,0,997.0,E2,L,498.5
48,53,997.0,C3,L,498.5
69,60,997.25,A4,R,498.625
71,0,997.5,B4,R,498.75
40,57,997.5,E2,R,498.75
48,0,997.5,C3,L,498.75
71,62,997.625,B4,L,498.8125
71,0,997.75,B4,L,498.875
48,53,997.75,C3,L,498.875
40,0,998.0,E2,R,499.0
67,73,998.0,G4,R,499.0
40,63,998.0,E2,L,499.0
69,0,998.0,A4,R,499.0
48,0,998.0,C3,L,499.0
67,0,998.375,G4,R,499.1875
69,67,998.375,A4,R,499.1875
40,0,998.5,E2,L,499.25
48,58,998.5,C3,L,499.25
69,0,998.5,A4,R,499.25
69,67,998.5,A4,R,499.25
67,73,998.75,G4,R,499.375
69,0,998.75,A4,R,499.375
69,68,998.9375,A4,L,499.46875
48,0,999.0,C3,L,499.5
48,54,999.0,C3,L,499.5
40,63,999.0,E2,R,499.5
69,68,999.0,A4,L,499.5
69,0,999.0,A4,L,499.5
67,0,999.0,G4,R,499.5
69,0,999.25,A4,L,499.625
40,59,999.25,E2,L,499.625
65,70,999.375,F4,R,499.6875
40,0,999.375,E2,R,499.6875
65,0,999.5,F4,R,499.75
65,70,999.5,F4,R,499.75
67,67,999.5,G4,L,499.75
48,0,999.5,C3,L,499.75
67,67,999.75,G4,L,499.875
48,48,999.75,C3,L,499.875
67,0,999.75,G4,L,499.875
40,0,1000.0,E2,L,500.0
40,54,1000.0,E2,L,500.0
67,0,1000.0,G4,L,500.0
48,0,1000.0,C3,L,500.0
65,0,1000.0,F4,R,500.0
65,68,1000.0,F4,R,500.0
65,0,1000.25,F4,R,500.125
67,69,1000.3333333333334,G4,R,500.1666666666667
48,48,1000.4166666666666,C3,R,500.2083333333333
67,0,1000.4166666666667,G4,R,500.20833333333337
48,0,1000.5,C3,R,500.25
48,48,1000.5,C3,R,500.25
48,0,1000.75,C3,R,500.375
64,70,1000.75,E4,R,500.375
40,0,1000.75,E2,L,500.375
40,52,1000.75,E2,L,500.375
40,0,1001.0,E2,L,500.5
40,52,1001.0,E2,L,500.5
64,0,1001.0,E4,R,500.5
67,66,1001.125,G4,R,500.5625
40,0,1001.1666666666666,E2,L,500.5833333333333
48,51,1001.1666666666666,C3,L,500.5833333333333
48,0,1001.3333333333333,C3,L,500.66666666666663
40,57,1001.3333333333334,E2,L,500.6666666666667
67,0,1001.5,G4,R,500.75
64,67,1001.5,E4,R,500.75
64,0,1001.625,E4,R,500.8125
40,0,1001.6666666666667,E2,L,500.83333333333337
67,66,1001.6875,G4,R,500.84375
48,55,1001.75,C3,R,500.875
67,0,1001.75,G4,R,500.875
48,55,1002.0,C3,R,501.0
48,0,1002.0,C3,R,501.0
41,54,1002.25,F2,L,501.125
69,64,1002.25,A4,R,501.125
48,0,1002.25,C3,R,501.125
69,64,1002.5,A4,R,501.25
69,0,1002.5,A4,R,501.25
48,52,1002.5,C3,L,501.25
41,0,1002.5,F2,L,501.25
71,58,1002.5833333333334,B4,R,501.2916666666667
69,0,1002.5833333333334,A4,R,501.2916666666667
69,64,1002.8333333333334,A4,R,501.4166666666667
71,0,1002.8333333333334,B4,R,501.4166666666667
69,0,1003.0,A4,R,501.5
69,64,1003.0,A4,R,501.5
41,48,1003.0,F2,L,501.5
48,0,1003.0,C3,L,501.5
41,0,1003.125,F2,L,501.5625
71,61,1003.125,B4,L,501.5625
48,55,1003.25,C3,L,501.625
71,0,1003.25,B4,L,501.625
67,73,1003.5,G4,R,501.75
41,48,1003.5,F2,L,501.75
48,0,1003.5,C3,L,501.75
69,64,1003.75,A4,R,501.875
48,56,1003.75,C3,L,501.875
69,0,1003.75,A4,R,501.875
41,48,1004.0,F2,L,502.0
48,56,1004.0,C3,L,502.0
67,0,1004.0,G4,R,502.0
41,0,1004.0,F2,L,502.0
67,73,1004.0,G4,R,502.0
48,0,1004.0,C3,L,502.0
69,0,1004.0,A4,R,502.0
69,65,1004.375,A4,R,502.1875
67,0,1004.375,G4,R,502.1875
48,57,1004.5,C3,R,502.25
69,0,1004.5,A4,R,502.25
69,65,1004.5,A4,R,502.25
65,70,1005.0,F4,R,502.5
69,0,1005.0,A4,R,502.5
48,0,1005.0,C3,L,502.5
41,52,1005.0,F2,L,502.5
48,0,1005.0,C3,R,502.5
41,0,1005.0,F2,L,502.5
41,0,1005.25,F2,L,502.625
67,67,1005.25,G4,R,502.625
65,0,1005.25,F4,R,502.625
48,56,1005.25,C3,L,502.625
48,0,1005.5,C3,L,502.75
67,0,1005.5,G4,R,502.75
41,52,1005.5,F2,L,502.75
65,66,1005.5833333333334,F4,R,502.7916666666667
67,69,1005.6666666666666,G4,R,502.8333333333333
65,0,1005.6666666666667,F4,R,502.83333333333337
67,0,1005.8333333333333,G4,R,502.91666666666663
48,54,1005.8333333333334,C3,R,502.9166666666667
41,0,1006.0,F2,L,503.0
41,53,1006.0,F2,L,503.0
64,76,1006.0,E4,R,503.0
48,54,1006.0,C3,R,503.0
48,0,1006.0,C3,R,503.0
41,0,1006.5,F2,L,503.25
48,61,1006.5,C3,L,503.25
64,0,1006.5,E4,R,503.25
65,64,1006.5,F4,R,503.25
48,0,1006.5,C3,R,503.25
64,72,1006.75,E4,R,503.375
65,0,1006.75,F4,R,503.375
41,55,1006.75,F2,L,503.375
48,0,1006.75,C3,L,503.375
65,68,1007.0,F4,R,503.5
64,0,1007.0,E4,R,503.5
48,56,1007.0,C3,L,503.5
41,0,1007.0,F2,L,503.5
65,0,1007.5,F4,R,503.75
62,73,1007.5,D4,R,503.75
38,56,1007.5,D2,L,503.75
48,0,1007.5,C3,L,503.75
50,51,1007.75,D3,L,503.875
64,66,1007.75,E4,R,503.875
62,0,1007.75,D4,R,503.875
38,0,1008.0,D2,L,504.0
62,67,1008.0,D4,R,504.0
50,51,1008.0,D3,L,504.0
38,56,1008.0,D2,L,504.0
50,0,1008.0,D3,L,504.0
64,0,1008.0,E4,R,504.0
64,73,1008.375,E4,R,504.1875
62,0,1008.375,D4,R,504.1875
64,0,1008.5,E4,R,504.25
50,53,1008.5,D3,R,504.25
50,0,1008.75,D3,R,504.375
38,0,1008.75,D2,L,504.375
60,75,1008.75,C4,R,504.375
38,59,1008.75,D2,L,504.375
60,0,1009.0,C4,R,504.5
62,70,1009.0,D4,R,504.5
38,0,1009.0,D2,L,504.5
50,0,1009.0,D3,L,504.5
50,57,1009.1666666666666,D3,L,504.5833333333333
50,0,1009.3333333333333,D3,L,504.66666666666663
38,61,1009.3333333333334,D2,L,504.6666666666667
60,70,1009.5,C4,R,504.75
62,0,1009.5,D4,R,504.75
62,70,1009.625,D4,R,504.8125
60,0,1009.625,C4,R,504.8125
38,0,1009.6666666666667,D2,L,504.83333333333337
62,0,1009.75,D4,R,504.875
50,63,1009.75,D3,R,504.875
38,59,1010.0,D2,L,505.0
50,0,1010.0,D3,R,505.0
59,78,1010.0,B3,R,505.0
50,57,1010.5,D3,L,505.25
59,0,1010.5,B3,R,505.25
38,0,1010.5,D2,L,505.25
60,67,1010.5,C4,R,505.25
59,72,1010.75,B3,R,505.375
38,59,1010.75,D2,L,505.375
50,0,1010.75,D3,L,505.375
60,0,1010.75,C4,R,505.375
60,70,1011.0,C4,R,505.5
59,0,1011.0,B3,R,505.5
38,0,1011.0,D2,L,505.5
38,59,1011.0,D2,L,505.5
60,0,1011.125,C4,R,505.5625
50,61,1011.125,D3,R,505.5625
38,66,1011.5,D2,L,505.75
50,0,1011.5,D3,R,505.75
38,0,1011.5,D2,L,505.75
57,79,1011.5,A3,R,505.75
57,0,1011.75,A3,R,505.875
38,0,1011.75,D2,L,505.875
59,73,1011.75,B3,R,505.875
50,57,1011.75,D3,L,505.875
59,0,1012.0,B3,R,506.0
50,0,1012.0,D3,L,506.0
57,75,1012.0,A3,R,506.0
38,60,1012.0,D2,L,506.0
38,0,1012.25,D2,L,506.125
50,65,1012.3125,D3,L,506.15625
59,75,1012.3333333333334,B3,R,506.1666666666667
57,0,1012.3333333333334,A3,R,506.1666666666667
59,0,1012.5,B3,R,506.25
50,0,1012.5,D3,L,506.25
55,80,1012.875,G3,R,506.4375
55,80,1013.0,G3,R,506.5
33,73,1013.0,A1,R,506.5
55,0,1013.0,G3,R,506.5
57,69,1013.25,A3,R,506.625
45,54,1013.25,A2,L,506.625
33,0,1013.25,A1,R,506.625
57,0,1013.5,A3,R,506.75
55,76,1013.5833333333334,G3,R,506.7916666666667
57,76,1013.8333333333334,A3,R,506.9166666666667
55,0,1013.8333333333334,G3,R,506.9166666666667
45,0,1014.0,A2,L,507.0
55,0,1014.0,G3,R,507.0
31,29,1014.0,G1,R,507.0
57,0,1014.0,A3,R,507.0
43,50,1014.2,G2,L,507.1
53,78,1014.25,F3,R,507.125
31,0,1014.25,G1,R,507.125
31,61,1014.4,G1,L,507.2
43,0,1014.4000000000001,G2,L,507.20000000000005
55,72,1014.6,G3,L,507.3
31,0,1014.6,G1,L,507.3
55,72,1014.7,G3,L,507.35
43,58,1014.7,G2,L,507.35
55,0,1014.7,G3,L,507.35
53,71,1015.0,F3,L,507.5
53,0,1015.0,F3,R,507.5
55,0,1015.0,G3,L,507.5
43,0,1015.0,G2,L,507.5
31,68,1015.125,G1,L,507.5625
55,73,1015.25,G3,R,507.625
43,59,1015.2916666666666,G2,R,507.6458333333333
55,0,1015.2916666666666,G3,R,507.6458333333333
43,0,1015.3333333333333,G2,R,507.66666666666663
43,59,1015.3333333333334,G2,R,507.6666666666667
31,64,1015.5,G1,L,507.75
31,0,1015.5,G1,L,507.75
52,77,1015.5,E3,R,507.75
43,0,1015.5,G2,R,507.75
52,0,1015.875,E3,R,507.9375
53,70,1015.875,F3,R,507.9375
53,0,1016.0,F3,L,508.0
43,55,1016.0,G2,L,508.0
31,0,1016.0,G1,L,508.0
53,0,1016.0,F3,R,508.0
53,70,1016.0,F3,R,508.0
31,63,1016.25,G1,L,508.125
43,0,1016.25,G2,L,508.125
53,0,1016.25,F3,R,508.125
52,72,1016.25,E3,R,508.125
53,66,1016.4375,F3,R,508.21875
52,0,1016.4375,E3,R,508.21875
53,0,1016.5,F3,R,508.25
53,66,1016.5,F3,R,508.25
43,55,1016.5,G2,R,508.25
31,65,1016.75,G1,L,508.375
53,0,1016.75,F3,R,508.375
50,81,1016.75,D3,R,508.375
31,65,1017.0,G1,L,508.5
31,0,1017.0,G1,L,508.5
50,0,1017.0,D3,R,508.5
50,81,1017.0,D3,R,508.5
43,0,1017.0,G2,R,508.5
52,71,1017.0,E3,R,508.5
43,55,1017.0,G2,L,508.5
31,0,1017.0,G1,L,508.5
52,0,1017.5,E3,R,508.75
50,76,1017.5,D3,R,508.75
31,66,1017.5,G1,L,508.75
43,0,1017.5,G2,L,508.75
50,0,1017.6875,D3,R,508.84375
52,71,1017.6875,E3,R,508.84375
52,0,1017.75,E3,R,508.875
52,71,1017.75,E3,R,508.875
43,59,1017.75,G2,L,508.875
31,0,1017.75,G1,L,508.875
31,0,1018.0,G1,L,509.0
50,0,1018.0,D3,R,509.0
31,62,1018.0,G1,L,509.0
43,0,1018.0,G2,L,509.0
52,0,1018.0,E3,R,509.0
48,82,1018.0,C3,R,509.0
43,55,1018.5,G2,L,509.25
31,0,1018.5,G1,L,509.25
48,0,1018.5,C3,R,509.25
50,71,1018.5,D3,R,509.25
50,0,1018.75,D3,R,509.375
43,0,1018.75,G2,L,509.375
31,67,1018.75,G1,L,509.375
48,69,1018.75,C3,R,509.375
48,0,1019.0,C3,R,509.5
31,0,1019.0,G1,L,509.5
50,71,1019.0,D3,R,509.5
50,0,1019.125,D3,R,509.5625
43,57,1019.125,G2,R,509.5625
31,68,1019.3333333333334,G1,L,509.6666666666667
47,78,1019.5,B2,R,509.75
43,0,1019.5,G2,R,509.75
43,57,1019.6666666666666,G2,L,509.8333333333333
31,0,1019.6666666666667,G1,L,509.83333333333337
47,0,1019.75,B2,R,509.875
48,69,1019.75,C3,R,509.875
31,64,1020.0,G1,L,510.0
47,69,1020.0,B2,R,510.0
48,0,1020.0,C3,R,510.0
43,0,1020.0,G2,L,510.0
48,69,1020.25,C3,R,510.125
47,0,1020.25,B2,R,510.125
43,58,1020.375,G2,R,510.1875
48,0,1020.375,C3,R,510.1875
43,0,1020.5,G2,R,510.25
31,66,1020.75,G1,L,510.375
45,77,1020.75,A2,R,510.375
31,0,1020.75,G1,L,510.375
45,0,1021.0,A2,R,510.5
31,0,1021.0,G1,L,510.5
47,69,1021.0,B2,R,510.5
43,52,1021.125,G2,R,510.5625
45,63,1021.5,A2,R,510.75
43,0,1021.5,G2,R,510.75
31,57,1021.5,G1,L,510.75
45,0,1021.625,A2,R,510.8125
47,67,1021.625,B2,R,510.8125
47,0,1021.75,B2,R,510.875
43,58,1021.75,G2,R,510.875
31,62,1022.0,G1,L,511.0
43,72,1022.0,G2,R,511.0
31,0,1022.0,G1,L,511.0
47,0,1022.0,B2,R,511.0
43,0,1022.0,G2,R,511.0
43,0,1022.5,G2,R,511.25
45,73,1022.5,A2,R,511.25
43,36,1022.5625,G2,R,511.28125
43,0,1022.75,G2,R,511.375
45,0,1022.75,A2,R,511.375
31,60,1022.75,G1,R,511.375
31,0,1023.0,G1,L,511.5
31,0,1023.0,G1,R,511.5
45,53,1023.0,A2,R,511.5
31,60,1023.0,G1,R,511.5
45,0,1023.5,A2,R,511.75
53,78,1023.5,F3,R,511.75
31,67,1023.5,G1,L,511.75
31,0,1024.0,G1,R,512.0
31,0,1024.0,G1,L,512.0
65,67,1024.0,F4,R,512.0
53,0,1024.0,F3,R,512.0
41,61,1024.125,F2,R,512.0625
65,0,1024.25,F4,R,512.125
53,61,1024.375,F3,R,512.1875
31,60,1024.5,G1,R,512.25
53,0,1024.5,F3,R,512.25
53,61,1024.5,F3,R,512.25
41,0,1024.5,F2,R,512.25
65,65,1024.625,F4,R,512.3125
31,60,1024.625,G1,R,512.3125
31,0,1024.625,G1,R,512.3125
41,56,1024.75,F2,L,512.375
31,0,1025.0,G1,R,512.5
65,0,1025.0,F4,R,512.5
53,0,1025.0,F3,R,512.5
52,71,1025.0,E3,R,512.5
31,65,1025.0,G1,L,512.5
41,0,1025.0,F2,L,512.5
64,68,1025.25,E4,R,512.625
52,0,1025.25,E3,R,512.625
41,35,1025.375,F2,R,512.6875
41,0,1025.5,F2,R,512.75
40,21,1025.5,E2,R,512.75
41,35,1025.5,F2,R,512.75
31,0,1025.5,G1,L,512.75
31,57,1025.5,G1,L,512.75
40,0,1025.625,E2,R,512.8125
52,58,1025.625,E3,R,512.8125
41,0,1025.625,F2,R,512.8125
64,63,1025.875,E4,R,512.9375
52,0,1025.875,E3,R,512.9375
64,0,1026.0,E4,R,513.0
31,0,1026.0,G1,L,513.0
64,0,1026.0,E4,R,513.0
31,58,1026.3333333333333,G1,L,513.1666666666666
50,70,1026.3333333333333,D3,R,513.1666666666666
50,0,1026.6666666666665,D3,R,513.3333333333333
31,0,1026.6666666666665,G1,L,513.3333333333333
62,63,1026.6666666666667,D4,R,513.3333333333334
38,50,1026.6666666666667,D2,L,513.3333333333334
50,54,1027.0,D3,R,513.5
31,53,1027.0,G1,L,513.5
38,0,1027.0,D2,L,513.5
62,0,1027.0,D4,R,513.5
50,0,1027.25,D3,R,513.625
38,49,1027.25,D2,L,513.625
31,0,1027.25,G1,L,513.625
62,57,1027.25,D4,R,513.625
62,0,1027.5,D4,R,513.75
31,52,1027.5833333333333,G1,R,513.7916666666666
31,0,1027.6666666666665,G1,R,513.8333333333333
48,61,1027.6666666666667,C3,R,513.8333333333334
31,52,1027.6666666666667,G1,R,513.8333333333334
31,52,1027.8333333333333,G1,R,513.9166666666666
48,0,1027.8333333333335,C3,R,513.9166666666667
31,0,1027.8333333333335,G1,R,513.9166666666667
31,0,1028.0,G1,R,514.0
38,0,1028.0,D2,L,514.0
36,52,1028.0,C2,L,514.0
60,56,1028.0,C4,R,514.0
31,50,1028.25,G1,R,514.125
48,40,1028.375,C3,R,514.1875
60,0,1028.375,C4,R,514.1875
48,0,1028.5,C3,R,514.25
48,40,1028.5,C3,R,514.25
48,0,1028.5833333333333,C3,R,514.2916666666666
60,47,1028.5833333333333,C4,R,514.2916666666666
60,0,1028.6666666666665,C4,R,514.3333333333333
36,48,1028.6666666666667,C2,R,514.3333333333334
36,0,1028.75,C2,R,514.375
36,48,1028.75,C2,R,514.375
36,0,1029.0,C2,L,514.5
31,44,1029.0,G1,R,514.5
31,0,1029.0,G1,R,514.5
36,0,1029.0,C2,R,514.5
47,53,1029.125,B2,R,514.5625
35,39,1029.3333333333333,B1,L,514.6666666666666
59,45,1029.375,B3,R,514.6875
47,0,1029.375,B2,R,514.6875
59,0,1029.5,B3,R,514.75
59,45,1029.5,B3,R,514.75
59,0,1029.625,B3,R,514.8125
35,0,1029.6666666666665,B1,L,514.8333333333333
31,45,1029.6666666666667,G1,L,514.8333333333334
47,45,1029.6875,B2,R,514.84375
47,45,1029.75,B2,R,514.875
47,0,1029.75,B2,R,514.875
31,0,1030.0,G1,R,515.0
35,46,1030.0,B1,L,515.0
31,0,1030.0,G1,L,515.0
59,40,1030.0,B3,R,515.0
47,0,1030.0,B2,R,515.0
59,0,1030.25,B3,R,515.125
31,47,1030.3333333333333,G1,R,515.1666666666666
31,0,1030.4166666666665,G1,R,515.2083333333333
31,47,1030.4166666666667,G1,R,515.2083333333334
45,58,1030.4166666666667,A2,R,515.2083333333334
31,0,1030.5,G1,R,515.25
45,0,1030.5,A2,R,515.25
45,58,1030.5,A2,R,515.25
33,48,1030.75,A1,L,515.375
35,0,1030.75,B1,L,515.375
45,0,1030.75,A2,R,515.375
57,53,1030.75,A3,R,515.375
31,44,1031.0,G1,L,515.5
33,0,1031.0,A1,L,515.5
45,42,1031.0,A2,R,515.5
57,0,1031.0,A3,R,515.5
45,0,1031.25,A2,R,515.625
57,50,1031.3125,A3,R,515.65625
33,45,1031.3333333333333,A1,L,515.6666666666666
31,0,1031.3333333333333,G1,L,515.6666666666666
57,0,1031.5,A3,R,515.75
33,0,1031.6666666666665,A1,L,515.8333333333333
31,29,1031.6666666666667,G1,L,515.8333333333334
43,50,1031.75,G2,R,515.875
43,0,1032.0,G2,R,516.0
31,0,1032.0,G1,L,516.0
43,19,1032.125,G2,L,516.0625
55,50,1032.125,G3,R,516.0625
55,0,1032.25,G3,R,516.125
43,23,1032.3333333333333,G2,R,516.1666666666666
43,0,1032.4166666666665,G2,R,516.2083333333333
31,44,1032.4166666666667,G1,R,516.2083333333334
43,23,1032.4166666666667,G2,R,516.2083333333334
43,0,1032.5,G2,R,516.25
43,0,1032.5,G2,L,516.25
31,0,1032.5,G1,R,516.25
31,44,1032.5,G1,R,516.25
31,0,1032.625,G1,R,516.3125
55,48,1032.6875,G3,R,516.34375
43,54,1032.75,G2,R,516.375
55,0,1032.75,G3,R,516.375
43,0,1033.0,G2,R,516.5
31,46,1033.0,G1,L,516.5
55,54,1033.125,G3,R,516.5625
31,0,1033.5,G1,L,516.75
67,57,1033.5,G4,R,516.75
43,51,1033.5,G2,L,516.75
55,0,1033.5,G3,R,516.75
55,52,1033.8333333333333,G3,R,516.9166666666666
67,0,1033.8333333333333,G4,R,516.9166666666666
67,44,1034.0,G4,R,517.0
55,0,1034.0,G3,R,517.0
31,43,1034.0,G1,L,517.0
43,0,1034.0,G2,L,517.0
43,48,1034.1875,G2,L,517.09375
31,0,1034.1875,G1,L,517.09375
43,48,1034.25,G2,L,517.125
43,0,1034.25,G2,L,517.125
67,0,1035.0,G4,R,517.5
43,0,1035.0,G2,L,517.5
35,44,1035.5,B1,L,517.75
60,33,1035.5,C4,R,517.75
36,40,1035.75,C2,L,517.875
35,0,1035.75,B1,L,517.875
36,0,1036.0,C2,L,518.0
60,0,1036.0,C4,R,518.0
35,47,1036.125,B1,L,518.0625
36,52,1036.375,C2,L,518.1875
35,0,1036.375,B1,L,518.1875
36,0,1036.5,C2,L,518.25
35,39,1036.625,B1,L,518.3125
36,46,1036.875,C2,L,518.4375
35,0,1036.875,B1,L,518.4375
35,41,1037.0,B1,L,518.5
36,0,1037.0,C2,L,518.5
35,0,1037.25,B1,L,518.625
36,49,1037.3125,C2,L,518.65625
35,47,1037.5,B1,L,518.75
36,0,1037.5,C2,L,518.75
36,48,1037.75,C2,L,518.875
35,0,1037.75,B1,L,518.875
35,50,1037.875,B1,L,518.9375
36,0,1037.875,C2,L,518.9375
35,0,1038.0,B1,L,519.0
36,49,1038.1666666666667,C2,L,519.0833333333334
35,46,1038.3333333333333,B1,L,519.1666666666666
36,0,1038.3333333333335,C2,L,519.1666666666667
35,0,1038.5,B1,L,519.25
36,49,1038.5625,C2,L,519.28125
35,44,1038.75,B1,L,519.375
36,0,1038.75,C2,L,519.375
36,46,1039.0,C2,L,519.5
35,0,1039.0,B1,L,519.5
35,48,1039.1666666666667,B1,L,519.5833333333334
36,0,1039.1666666666667,C2,L,519.5833333333334
35,0,1039.25,B1,L,519.625
36,46,1039.4375,C2,L,519.71875
36,46,1039.5,C2,L,519.75
36,0,1039.5,C2,L,519.75
36,0,1039.625,C2,L,519.8125
35,46,1039.625,B1,L,519.8125
36,44,1039.875,C2,L,519.9375
35,0,1039.875,B1,L,519.9375
36,0,1040.0,C2,L,520.0
35,38,1040.0833333333333,B1,L,520.0416666666666
35,0,1040.1666666666665,B1,L,520.0833333333333
36,44,1040.3333333333333,C2,L,520.1666666666666
36,0,1040.5,C2,L,520.25
35,39,1040.5,B1,L,520.25
35,0,1040.75,B1,L,520.375
36,43,1040.75,C2,L,520.375
36,0,1041.0,C2,L,520.5
35,29,1041.0,B1,L,520.5
36,46,1041.25,C2,L,520.625
35,0,1041.25,B1,L,520.625
36,0,1041.5,C2,L,520.75
35,42,1041.5,B1,L,520.75
35,0,1041.75,B1,L,520.875
36,45,1041.75,C2,L,520.875
35,31,1041.875,B1,L,520.9375
36,0,1042.0,C2,L,521.0
68,51,1042.0,G#4,L,521.0
35,31,1042.0,B1,L,521.0
35,0,1042.0,B1,L,521.0
68,0,1042.375,G#4,L,521.1875
36,30,1042.375,C2,L,521.1875
68,51,1042.375,G#4,L,521.1875
35,38,1042.5,B1,R,521.25
36,0,1042.5,C2,L,521.25
68,51,1042.5,G#4,L,521.25
68,0,1042.5,G#4,L,521.25
35,0,1042.875,B1,R,521.4375
35,42,1042.875,B1,R,521.4375
36,14,1043.0,C2,R,521.5
35,0,1043.0,B1,L,521.5
35,0,1043.0,B1,R,521.5
35,42,1043.25,B1,R,521.625
36,0,1043.25,C2,R,521.625
36,48,1043.375,C2,R,521.6875
35,0,1043.5,B1,R,521.75
36,48,1043.5,C2,R,521.75
68,51,1043.5,G#4,L,521.75
36,0,1043.5,C2,R,521.75
67,68,1043.5,G4,R,521.75
68,0,1043.5,G#4,L,521.75
35,41,1043.75,B1,L,521.875
68,0,1043.75,G#4,L,521.875
68,51,1043.75,G#4,L,521.875
67,68,1044.0,G4,R,522.0
36,0,1044.0,C2,R,522.0
67,0,1044.0,G4,R,522.0
36,40,1044.0,C2,L,522.0
68,0,1044.0,G#4,L,522.0
35,0,1044.0,B1,L,522.0
36,0,1044.25,C2,L,522.125
35,41,1044.25,B1,L,522.125
35,0,1044.5,B1,L,522.25
36,44,1044.5625,C2,L,522.28125
36,0,1044.6875,C2,L,522.34375
35,45,1044.6875,B1,L,522.34375
35,0,1044.75,B1,L,522.375
35,45,1044.75,B1,L,522.375
36,39,1045.0,C2,L,522.5
67,0,1045.0,G4,R,522.5
67,68,1045.0,G4,R,522.5
35,0,1045.0,B1,L,522.5
36,0,1045.125,C2,L,522.5625
35,41,1045.125,B1,L,522.5625
67,0,1045.375,G4,R,522.6875
67,68,1045.375,G4,R,522.6875
67,0,1045.4375,G4,R,522.71875
36,47,1045.4375,C2,R,522.71875
36,0,1045.5,C2,R,522.75
35,0,1045.5,B1,L,522.75
35,41,1045.5833333333333,B1,R,522.7916666666666
35,0,1045.8333333333333,B1,R,522.9166666666666
36,49,1045.8333333333333,C2,R,522.9166666666666
72,63,1046.0,C5,L,523.0
36,0,1046.0,C2,R,523.0
35,34,1046.0833333333333,B1,R,523.0416666666666
35,0,1046.1666666666665,B1,R,523.0833333333333
36,48,1046.3333333333333,C2,R,523.1666666666666
36,48,1046.5,C2,R,523.25
36,0,1046.5,C2,R,523.25
72,63,1046.75,C5,L,523.375
72,0,1046.75,C5,L,523.375
35,42,1046.875,B1,L,523.4375
72,0,1046.875,C5,L,523.4375
36,0,1047.0,C2,R,523.5
74,70,1047.0,D5,R,523.5
35,0,1047.0,B1,L,523.5
35,42,1047.0,B1,L,523.5
36,49,1047.25,C2,L,523.625
35,0,1047.25,B1,L,523.625
35,44,1047.5,B1,L,523.75
36,0,1047.5,C2,L,523.75
35,0,1047.75,B1,L,523.875
36,44,1047.75,C2,L,523.875
36,0,1048.0,C2,L,524.0
35,41,1048.0,B1,L,524.0
74,0,1048.0,D5,R,524.0
74,70,1048.0,D5,R,524.0
35,0,1048.25,B1,L,524.125
36,40,1048.2916666666667,C2,L,524.1458333333334
36,0,1048.4166666666667,C2,L,524.2083333333334
35,41,1048.4166666666667,B1,L,524.2083333333334
35,41,1048.5,B1,L,524.25
35,0,1048.5,B1,L,524.25
35,0,1048.6666666666667,B1,L,524.3333333333334
36,43,1048.6666666666667,C2,L,524.3333333333334
35,46,1048.8333333333333,B1,L,524.4166666666666
36,0,1048.8333333333335,C2,L,524.4166666666667
35,0,1049.0,B1,L,524.5
36,41,1049.125,C2,L,524.5625
36,0,1049.25,C2,L,524.625
35,43,1049.25,B1,L,524.625
35,0,1049.5,B1,L,524.75
36,45,1049.5,C2,L,524.75
36,0,1049.75,C2,L,524.875
35,40,1049.75,B1,L,524.875
35,0,1050.0,B1,L,525.0
36,43,1050.0416666666667,C2,L,525.0208333333334
36,0,1050.1666666666667,C2,L,525.0833333333334
35,38,1050.2083333333333,B1,L,525.1041666666666
35,0,1050.25,B1,L,525.125
35,38,1050.25,B1,L,525.125
36,39,1050.5,C2,L,525.25
35,0,1050.5,B1,L,525.25
35,42,1050.6666666666667,B1,L,525.3333333333334
36,0,1050.6666666666667,C2,L,525.3333333333334
35,0,1050.8333333333335,B1,L,525.4166666666667
74,70,1051.0,D5,R,525.5
74,0,1051.0,D5,R,525.5
36,43,1051.0,C2,L,525.5
35,24,1051.25,B1,L,525.625
36,0,1051.25,C2,L,525.625
74,0,1051.5,D5,R,525.75
36,41,1051.5,C2,R,525.75
76,67,1051.5,E5,L,525.75
35,40,1051.75,B1,R,525.875
36,0,1051.75,C2,R,525.875
76,0,1052.0,E5,L,526.0
35,0,1052.0,B1,L,526.0
35,0,1052.0,B1,R,526.0
76,67,1052.0,E5,L,526.0
36,44,1052.125,C2,R,526.0625
35,41,1052.25,B1,R,526.125
36,0,1052.25,C2,R,526.125
35,0,1052.5,B1,R,526.25
36,45,1052.5833333333333,C2,R,526.2916666666666
36,0,1052.8333333333333,C2,R,526.4166666666666
35,28,1052.8333333333333,B1,R,526.4166666666666
35,0,1053.0,B1,R,526.5
77,71,1053.0,F5,R,526.5
36,47,1053.125,C2,L,526.5625
35,43,1053.375,B1,L,526.6875
36,0,1053.375,C2,L,526.6875
35,0,1053.5,B1,L,526.75
36,33,1053.6666666666667,C2,L,526.8333333333334
35,43,1053.8333333333333,B1,L,526.9166666666666
36,0,1053.8333333333335,C2,L,526.9166666666667
35,0,1054.0,B1,L,527.0
76,0,1054.0,E5,L,527.0
36,45,1054.1666666666667,C2,L,527.0833333333334
35,43,1054.3333333333333,B1,L,527.1666666666666
36,0,1054.3333333333335,C2,L,527.1666666666667
35,0,1054.5,B1,L,527.25
36,42,1054.625,C2,L,527.3125
36,0,1054.75,C2,L,527.375
35,44,1054.75,B1,L,527.375
35,0,1055.0,B1,L,527.5
36,42,1055.125,C2,L,527.5625
35,39,1055.25,B1,L,527.625
36,0,1055.25,C2,L,527.625
35,0,1055.5,B1,L,527.75
36,34,1055.5833333333333,C2,L,527.7916666666666
36,0,1055.6666666666665,C2,L,527.8333333333333
35,38,1055.6666666666667,B1,L,527.8333333333334
35,0,1055.8333333333335,B1,L,527.9166666666667
36,42,1056.0,C2,L,528.0
77,0,1056.0,F5,R,528.0
77,71,1056.0,F5,R,528.0
36,0,1056.1666666666667,C2,L,528.0833333333334
35,35,1056.1666666666667,B1,L,528.0833333333334
35,0,1056.3333333333335,B1,L,528.1666666666667
36,39,1056.5,C2,L,528.25
35,36,1056.6666666666667,B1,L,528.3333333333334
36,0,1056.6666666666667,C2,L,528.3333333333334
35,0,1056.8333333333335,B1,L,528.4166666666667
36,42,1057.0416666666667,C2,L,528.5208333333334
36,0,1057.1666666666667,C2,L,528.5833333333334
35,41,1057.1666666666667,B1,L,528.5833333333334
35,41,1057.25,B1,L,528.625
35,0,1057.25,B1,L,528.625
36,34,1057.5,C2,L,528.75
35,0,1057.5,B1,L,528.75
35,30,1057.75,B1,L,528.875
36,0,1057.75,C2,L,528.875
76,63,1058.0,E5,L,529.0
35,0,1058.0,B1,L,529.0
36,39,1058.0625,C2,L,529.03125
36,0,1058.25,C2,L,529.125
35,34,1058.25,B1,L,529.125
74,78,1058.5,D5,L,529.25
35,0,1058.5,B1,L,529.25
35,36,1058.75,B1,L,529.375
74,0,1058.75,D5,L,529.375
74,78,1058.75,D5,L,529.375
35,0,1059.0,B1,L,529.5
76,0,1059.0,E5,L,529.5
74,0,1059.0,D5,L,529.5
77,0,1059.0,F5,R,529.5
35,41,1059.5,B1,L,529.75
74,67,1059.5,D5,R,529.75
36,32,1059.875,C2,L,529.9375
35,0,1060.0,B1,L,530.0
36,0,1060.0,C2,L,530.0
36,32,1060.0,C2,L,530.0
35,39,1060.0,B1,L,530.0
74,67,1060.0,D5,R,530.0
74,0,1060.0,D5,R,530.0
74,0,1060.5,D5,R,530.25
35,0,1060.5,B1,L,530.25
36,39,1060.5,C2,L,530.25
36,0,1060.625,C2,L,530.3125
35,38,1060.625,B1,L,530.3125
76,50,1060.625,E5,R,530.3125
74,56,1060.75,D5,R,530.375
76,0,1060.75,E5,R,530.375
72,56,1060.875,C5,R,530.4375
36,0,1061.0,C2,L,530.5
74,0,1061.0,D5,R,530.5
35,0,1061.0,B1,L,530.5
36,35,1061.0,C2,L,530.5
74,63,1061.0,D5,R,530.5
72,0,1061.0,C5,R,530.5
72,56,1061.0,C5,R,530.5
36,0,1061.125,C2,L,530.5625
35,39,1061.125,B1,L,530.5625
36,35,1061.5,C2,L,530.75
35,0,1061.5,B1,L,530.75
36,0,1061.6666666666667,C2,L,530.8333333333334
35,38,1061.6666666666667,B1,L,530.8333333333334
35,0,1061.8333333333335,B1,L,530.9166666666667
36,37,1062.0,C2,L,531.0
74,0,1062.0,D5,R,531.0
76,57,1062.0,E5,R,531.0
72,0,1062.0,C5,R,531.0
35,38,1062.25,B1,L,531.125
36,0,1062.25,C2,L,531.125
36,39,1062.5,C2,L,531.25
35,0,1062.5,B1,L,531.25
35,41,1062.875,B1,L,531.4375
36,0,1062.875,C2,L,531.4375
76,0,1063.0,E5,R,531.5
72,55,1063.0,C5,R,531.5
35,0,1063.0,B1,L,531.5
35,41,1063.0,B1,L,531.5
35,0,1063.25,B1,L,531.625
36,22,1063.25,C2,L,531.625
36,0,1063.5,C2,L,531.75
35,47,1063.5,B1,L,531.75
35,0,1063.75,B1,L,531.875
36,45,1063.75,C2,L,531.875
36,0,1063.875,C2,L,531.9375
35,48,1063.875,B1,L,531.9375
35,0,1064.0,B1,L,532.0
72,0,1064.0,C5,R,532.0
36,42,1064.25,C2,L,532.125
35,34,1064.5,B1,L,532.25
36,0,1064.5,C2,L,532.25
35,0,1064.75,B1,L,532.375
36,36,1064.75,C2,L,532.375
36,0,1064.875,C2,L,532.4375
35,37,1064.875,B1,L,532.4375
35,0,1065.0,B1,L,532.5
35,46,1065.25,B1,L,532.625
35,0,1065.5,B1,L,532.75
36,26,1065.5,C2,L,532.75
36,0,1065.75,C2,L,532.875
35,39,1065.8125,B1,L,532.90625
36,37,1066.0,C2,L,533.0
35,0,1066.0,B1,L,533.0
36,0,1066.25,C2,L,533.125
35,35,1066.25,B1,L,533.125
35,0,1066.5,B1,L,533.25
36,30,1066.5,C2,L,533.25
36,0,1066.75,C2,L,533.375
35,38,1066.75,B1,L,533.375
35,0,1067.0,B1,L,533.5
36,34,1067.125,C2,L,533.5625
36,0,1067.25,C2,L,533.625
35,35,1067.25,B1,L,533.625
35,0,1067.75,B1,L,533.875
35,42,1067.75,B1,L,533.875
35,0,1068.0,B1,L,534.0
36,27,1068.125,C2,L,534.0625
36,0,1068.25,C2,L,534.125
35,38,1068.25,B1,L,534.125
35,0,1068.5,B1,L,534.25
36,40,1068.5833333333333,C2,L,534.2916666666666
35,36,1068.8333333333333,B1,L,534.4166666666666
36,0,1068.8333333333333,C2,L,534.4166666666666
35,0,1069.0,B1,L,534.5
36,37,1069.1666666666667,C2,L,534.5833333333334
35,44,1069.3333333333333,B1,L,534.6666666666666
36,0,1069.3333333333335,C2,L,534.6666666666667
35,0,1069.5,B1,L,534.75
36,28,1069.5833333333333,C2,L,534.7916666666666
36,0,1069.7083333333333,C2,L,534.8541666666666
35,39,1069.7083333333333,B1,L,534.8541666666666
35,0,1069.75,B1,L,534.875
35,39,1069.75,B1,L,534.875
35,0,1070.0,B1,L,535.0
36,40,1070.0833333333333,C2,L,535.0416666666666
36,0,1070.1666666666665,C2,L,535.0833333333333
35,37,1070.1666666666667,B1,L,535.0833333333334
35,0,1070.3333333333335,B1,L,535.1666666666667
36,34,1070.5,C2,L,535.25
35,43,1070.625,B1,L,535.3125
36,0,1070.625,C2,L,535.3125
36,10,1071.0,C2,R,535.5
35,37,1071.0,B1,L,535.5
35,0,1071.0,B1,L,535.5
36,0,1071.25,C2,R,535.625
36,7,1071.375,C2,R,535.6875
36,0,1071.5,C2,R,535.75
35,46,1071.5,B1,R,535.75
35,0,1071.6666666666667,B1,R,535.8333333333334
36,34,1071.8333333333333,C2,R,535.9166666666666
36,0,1072.0,C2,R,536.0
35,37,1072.0,B1,R,536.0
35,0,1072.0,B1,L,536.0
36,45,1072.375,C2,R,536.1875
35,0,1072.375,B1,R,536.1875
36,0,1072.5,C2,R,536.25
35,37,1072.5,B1,R,536.25
35,0,1072.875,B1,R,536.4375
36,39,1072.875,C2,R,536.4375
36,0,1073.0,C2,R,536.5
35,38,1073.0,B1,R,536.5
35,0,1073.375,B1,R,536.6875
36,34,1073.375,C2,R,536.6875
35,37,1073.5,B1,R,536.75
36,0,1073.5,C2,R,536.75
80,58,1074.0,G#5,R,537.0
35,0,1074.0,B1,R,537.0
36,34,1074.125,C2,R,537.0625
36,0,1074.25,C2,R,537.125
35,32,1074.25,B1,R,537.125
35,0,1074.375,B1,R,537.1875
36,45,1074.375,C2,R,537.1875
36,0,1074.5,C2,R,537.25
35,39,1074.5,B1,R,537.25
35,0,1074.75,B1,R,537.375
36,37,1074.75,C2,R,537.375
35,31,1075.0,B1,R,537.5
36,0,1075.0,C2,R,537.5
79,68,1075.2,G5,L,537.6
79,0,1075.4,G5,L,537.7
36,44,1075.4,C2,L,537.7
79,68,1075.4,G5,L,537.7
79,68,1075.6,G5,L,537.8
35,32,1075.6,B1,L,537.8
79,0,1075.6000000000001,G5,L,537.8000000000001
36,0,1075.6000000000001,C2,L,537.8000000000001
79,0,1075.8,G5,L,537.9
79,68,1075.8,G5,L,537.9
35,0,1075.8,B1,L,537.9
79,0,1075.8999999999999,G5,L,537.9499999999999
36,37,1075.9,C2,L,537.95
79,68,1075.9,G5,L,537.95
36,0,1076.0,C2,L,538.0
79,0,1076.0,G5,L,538.0
35,37,1076.0,B1,L,538.0
79,68,1076.0,G5,L,538.0
80,0,1076.0,G#5,R,538.0
83,75,1076.0,B5,R,538.0
35,0,1076.0,B1,R,538.0
35,0,1076.1666666666667,B1,L,538.0833333333334
79,68,1076.1666666666667,G5,L,538.0833333333334
79,0,1076.1666666666667,G5,L,538.0833333333334
36,38,1076.3333333333333,C2,L,538.1666666666666
79,68,1076.3333333333333,G5,L,538.1666666666666
79,0,1076.3333333333335,G5,L,538.1666666666667
79,68,1076.5,G5,L,538.25
79,0,1076.5,G5,L,538.25
36,0,1076.5,C2,L,538.25
79,0,1076.625,G5,L,538.3125
35,29,1076.625,B1,L,538.3125
79,68,1076.625,G5,L,538.3125
35,0,1077.0,B1,L,538.5
36,39,1077.0,C2,R,538.5
79,0,1077.0,G5,L,538.5
35,41,1077.25,B1,R,538.625
36,0,1077.25,C2,R,538.625
35,0,1077.5,B1,R,538.75
36,41,1077.5,C2,R,538.75
36,0,1077.75,C2,R,538.875
35,36,1077.75,B1,R,538.875
35,0,1078.0,B1,R,539.0
36,39,1078.0,C2,R,539.0
86,77,1078.0,D6,L,539.0
36,0,1078.25,C2,R,539.125
35,35,1078.25,B1,R,539.125
36,39,1078.625,C2,L,539.3125
83,0,1079.0,B5,R,539.5
35,41,1079.0,B1,L,539.5
36,0,1079.0,C2,L,539.5
35,0,1079.0,B1,R,539.5
36,43,1079.25,C2,L,539.625
35,0,1079.25,B1,L,539.625
36,0,1079.75,C2,L,539.875
35,36,1079.75,B1,L,539.875
89,79,1080.0,F6,R,540.0
35,0,1080.0,B1,L,540.0
86,0,1080.0,D6,L,540.0
36,44,1080.0625,C2,R,540.03125
36,0,1080.25,C2,R,540.125
35,30,1080.375,B1,R,540.1875
35,0,1080.5,B1,R,540.25
36,38,1080.625,C2,R,540.3125
36,0,1080.875,C2,R,540.4375
35,31,1080.875,B1,R,540.4375
35,0,1081.0,B1,R,540.5
36,36,1081.25,C2,R,540.625
36,0,1081.375,C2,R,540.6875
35,38,1081.375,B1,R,540.6875
35,0,1081.5,B1,R,540.75
36,38,1081.625,C2,R,540.8125
35,34,1081.875,B1,R,540.9375
36,0,1081.875,C2,R,540.9375
35,0,1082.0,B1,R,541.0
36,36,1082.1875,C2,R,541.09375
36,0,1082.25,C2,R,541.125
36,36,1082.25,C2,R,541.125
35,38,1082.5,B1,R,541.25
36,0,1082.5,C2,R,541.25
36,40,1082.75,C2,R,541.375
35,0,1082.75,B1,R,541.375
36,0,1083.0,C2,R,541.5
88,67,1083.0,E6,R,541.5
35,35,1083.125,B1,L,541.5625
36,42,1083.375,C2,L,541.6875
35,0,1083.375,B1,L,541.6875
36,0,1083.5,C2,L,541.75
35,39,1083.5,B1,L,541.75
36,36,1083.875,C2,L,541.9375
35,0,1083.875,B1,L,541.9375
88,67,1084.0,E6,R,542.0
88,0,1084.0,E6,R,542.0
89,0,1084.0,F6,R,542.0
86,63,1084.0,D6,L,542.0
36,0,1084.0,C2,L,542.0
89,79,1084.0,F6,R,542.0
35,41,1084.125,B1,L,542.0625
35,0,1084.5,B1,L,542.25
36,27,1084.5,C2,L,542.25
36,0,1085.0,C2,L,542.5
84,54,1085.0,C6,L,542.5
84,54,1085.25,C6,L,542.625
35,44,1085.25,B1,L,542.625
84,0,1085.25,C6,L,542.625
35,0,1085.5,B1,L,542.75
84,0,1085.5,C6,L,542.75
84,54,1085.5,C6,L,542.75
84,0,1085.5625,C6,L,542.78125
36,27,1085.5625,C2,L,542.78125
84,54,1085.5625,C6,L,542.78125
36,0,1085.75,C2,L,542.875
84,0,1085.75,C6,L,542.875
84,54,1085.75,C6,L,542.875
86,0,1086.0,D6,L,543.0
35,44,1086.0,B1,L,543.0
84,0,1086.0,C6,L,543.0
89,0,1086.0,F6,R,543.0
88,0,1086.0,E6,R,543.0
36,43,1086.125,C2,L,543.0625
35,0,1086.125,B1,L,543.0625
35,46,1086.25,B1,L,543.125
36,0,1086.25,C2,L,543.125
35,0,1086.5,B1,L,543.25
36,37,1086.5,C2,L,543.25
36,0,1086.75,C2,L,543.375
34,46,1086.75,A#1,L,543.375
34,0,1087.0,A#1,L,543.5
34,44,1087.28125,A#1,L,543.640625
34,0,1087.375,A#1,L,543.6875
34,48,1087.625,A#1,L,543.8125
34,0,1088.0,A#1,L,544.0
33,59,1088.125,A1,L,544.0625
36,14,1088.375,C2,L,544.1875
33,0,1088.5,A1,L,544.25
33,53,1088.5,A1,L,544.25
36,14,1088.5,C2,L,544.25
36,0,1088.5,C2,L,544.25
33,0,1089.0,A1,L,544.5
33,53,1089.0,A1,L,544.5
36,0,1089.0,C2,L,544.5
33,0,1089.25,A1,L,544.625
36,30,1089.25,C2,L,544.625
32,38,1089.5,G#1,L,544.75
36,0,1089.5,C2,L,544.75
32,0,1089.75,G#1,L,544.875
36,31,1089.75,C2,L,544.875
36,0,1090.0,C2,L,545.0
32,55,1090.0,G#1,L,545.0
32,0,1090.25,G#1,L,545.125
32,45,1090.25,G#1,L,545.125
32,0,1090.5,G#1,L,545.25
36,20,1090.625,C2,L,545.3125
31,50,1090.875,G1,L,545.4375
36,0,1090.875,C2,L,545.4375
31,0,1091.0,G1,L,545.5
36,42,1091.125,C2,L,545.5625
36,0,1091.25,C2,L,545.625
31,46,1091.25,G1,L,545.625
36,25,1091.75,C2,R,545.875
31,0,1091.75,G1,L,545.875
31,46,1091.75,G1,L,545.875
36,0,1092.0,C2,R,546.0
76,63,1092.0,E5,R,546.0
31,0,1092.0,G1,L,546.0
33,56,1092.25,A1,L,546.125
33,50,1092.75,A1,L,546.375
33,0,1092.75,A1,L,546.375
33,0,1093.0,A1,L,546.5
33,48,1093.125,A1,L,546.5625
33,0,1093.5,A1,L,546.75
36,18,1093.5,C2,L,546.75
36,0,1093.6875,C2,L,546.84375
34,41,1093.6875,A#1,L,546.84375
34,0,1093.75,A#1,L,546.875
36,25,1094.0,C2,L,547.0
36,0,1094.125,C2,L,547.0625
34,47,1094.125,A#1,L,547.0625
34,0,1094.5,A#1,L,547.25
34,45,1094.5,A#1,L,547.25
34,0,1095.0,A#1,L,547.5
35,47,1095.0625,B1,L,547.53125
35,0,1095.25,B1,L,547.625
36,21,1095.375,C2,L,547.6875
36,0,1095.5,C2,L,547.75
36,21,1095.5,C2,L,547.75
35,42,1095.5,B1,L,547.75
36,0,1096.0,C2,L,548.0
35,0,1096.0,B1,L,548.0
35,45,1096.0,B1,L,548.0
76,0,1096.0,E5,R,548.0
35,0,1096.125,B1,L,548.0625
79,52,1096.125,G5,L,548.0625
79,0,1096.375,G5,L,548.1875
77,54,1096.375,F5,L,548.1875
77,0,1096.5,F5,L,548.25
35,49,1096.5,B1,L,548.25
76,60,1096.5,E5,R,548.25
76,0,1097.0,E5,R,548.5
35,0,1097.0,B1,L,548.5
36,37,1097.0,C2,L,548.5
35,38,1097.125,B1,L,548.5625
36,0,1097.125,C2,L,548.5625
35,0,1097.375,B1,L,548.6875
36,38,1097.375,C2,L,548.6875
36,0,1097.5,C2,L,548.75
35,44,1097.5,B1,L,548.75
35,0,1097.75,B1,L,548.875
36,43,1097.8125,C2,L,548.90625
34,43,1098.0,A#1,L,549.0
36,0,1098.0,C2,L,549.0
34,0,1098.25,A#1,L,549.125
36,46,1098.3125,C2,L,549.15625
36,0,1098.5,C2,L,549.25
34,43,1098.5,A#1,L,549.25
34,0,1098.6666666666667,A#1,L,549.3333333333334
36,24,1098.8333333333333,C2,L,549.4166666666666
36,0,1098.9166666666665,C2,L,549.4583333333333
34,45,1098.9166666666667,A#1,L,549.4583333333334
34,45,1099.0,A#1,L,549.5
34,0,1099.0,A#1,L,549.5
36,25,1099.3125,C2,L,549.65625
33,59,1099.375,A1,L,549.6875
34,0,1099.375,A#1,L,549.6875
33,0,1099.5,A1,L,549.75
36,0,1099.5,C2,L,549.75
36,39,1099.6666666666667,C2,L,549.8333333333334
33,50,1099.8333333333333,A1,L,549.9166666666666
36,0,1099.8333333333335,C2,L,549.9166666666667
33,0,1100.0,A1,L,550.0
36,39,1100.125,C2,L,550.0625
36,0,1100.25,C2,L,550.125
33,53,1100.3125,A1,L,550.15625
33,0,1100.5,A1,L,550.25
36,45,1100.5,C2,L,550.25
36,0,1100.75,C2,L,550.375
32,45,1100.78125,G#1,L,550.390625
32,0,1100.875,G#1,L,550.4375
32,52,1101.125,G#1,L,550.5625
32,0,1101.5,G#1,L,550.75
32,50,1101.5,G#1,L,550.75
32,0,1102.0,G#1,L,551.0
31,42,1102.25,G1,L,551.125
31,0,1102.5,G1,L,551.25
36,43,1102.5,C2,L,551.25
31,35,1102.625,G1,L,551.3125
36,0,1102.625,C2,L,551.3125
76,57,1103.0,E5,R,551.5
31,0,1103.0,G1,L,551.5
36,25,1103.0,C2,L,551.5
36,0,1103.0833333333333,C2,L,551.5416666666666
31,42,1103.0833333333333,G1,L,551.5416666666666
31,0,1103.25,G1,L,551.625
33,54,1103.625,A1,L,551.8125
33,0,1104.0,A1,L,552.0
76,57,1104.0,E5,R,552.0
76,0,1104.0,E5,R,552.0
33,46,1104.125,A1,L,552.0625
33,57,1104.5,A1,L,552.25
33,0,1104.5,A1,L,552.25
34,47,1105.0,A#1,L,552.5
33,0,1105.0,A1,L,552.5
34,0,1105.25,A#1,L,552.625
36,27,1105.2916666666667,C2,L,552.6458333333334
34,41,1105.4166666666667,A#1,L,552.7083333333334
36,0,1105.4166666666667,C2,L,552.7083333333334
34,0,1105.5,A#1,L,552.75
34,49,1105.75,A#1,L,552.875
34,0,1106.0,A#1,L,553.0
35,45,1106.375,B1,L,553.1875
35,0,1106.5,B1,L,553.25
36,30,1106.6666666666667,C2,L,553.3333333333334
35,43,1106.8333333333333,B1,L,553.4166666666666
36,0,1106.8333333333335,C2,L,553.4166666666667
35,0,1107.0,B1,L,553.5
36,44,1107.125,C2,L,553.5625
79,48,1107.25,G5,R,553.625
36,0,1107.375,C2,L,553.6875
35,35,1107.375,B1,L,553.6875
79,48,1107.5,G5,R,553.75
79,0,1107.5,G5,R,553.75
35,0,1107.5,B1,L,553.75
35,35,1107.5,B1,L,553.75
77,58,1107.5833333333333,F5,R,553.7916666666666
79,0,1107.5833333333333,G5,R,553.7916666666666
76,54,1107.8333333333333,E5,R,553.9166666666666
77,0,1107.8333333333333,F5,R,553.9166666666666
35,43,1107.875,B1,L,553.9375
35,0,1107.875,B1,L,553.9375
35,0,1108.0,B1,L,554.0
76,0,1108.0,E5,R,554.0
76,0,1108.0,E5,R,554.0
76,54,1108.0,E5,R,554.0
36,43,1108.25,C2,L,554.125
36,0,1108.5,C2,L,554.25
35,39,1108.5,B1,L,554.25
36,44,1108.6875,C2,L,554.34375
35,0,1108.6875,B1,L,554.34375
36,44,1108.75,C2,L,554.375
36,0,1108.75,C2,L,554.375
36,0,1108.875,C2,L,554.4375
35,43,1108.875,B1,L,554.4375
76,0,1109.0,E5,R,554.5
35,0,1109.0,B1,L,554.5
36,47,1109.125,C2,L,554.5625
36,0,1109.375,C2,L,554.6875
35,48,1109.375,B1,L,554.6875
35,0,1109.5,B1,L,554.75
36,38,1109.6666666666667,C2,L,554.8333333333334
35,39,1109.8333333333333,B1,L,554.9166666666666
36,0,1109.8333333333335,C2,L,554.9166666666667
35,0,1110.0,B1,L,555.0
36,43,1110.125,C2,L,555.0625
36,0,1110.25,C2,L,555.125
35,43,1110.25,B1,L,555.125
35,0,1110.5,B1,L,555.25
36,40,1110.5,C2,L,555.25
36,0,1110.75,C2,L,555.375
35,44,1110.75,B1,L,555.375
35,0,1111.0,B1,L,555.5
36,41,1111.0,C2,L,555.5
35,47,1111.125,B1,L,555.5625
36,0,1111.125,C2,L,555.5625
35,0,1111.5,B1,L,555.75
36,39,1111.5,C2,L,555.75
35,45,1111.625,B1,L,555.8125
36,0,1111.625,C2,L,555.8125
36,38,1111.875,C2,L,555.9375
35,0,1111.875,B1,L,555.9375
36,0,1112.0,C2,L,556.0
35,46,1112.0,B1,L,556.0
36,40,1112.375,C2,L,556.1875
35,0,1112.375,B1,L,556.1875
36,0,1112.5,C2,L,556.25
35,48,1112.5,B1,L,556.25
35,0,1112.75,B1,L,556.375
36,41,1112.8125,C2,L,556.40625
36,0,1113.0,C2,L,556.5
35,44,1113.0,B1,L,556.5
35,0,1113.125,B1,L,556.5625
79,45,1113.125,G5,L,556.5625
77,51,1113.25,F5,R,556.625
79,0,1113.25,G5,L,556.625
36,44,1113.25,C2,L,556.625
77,0,1113.5,F5,R,556.75
36,0,1113.5,C2,L,556.75
76,45,1113.5,E5,R,556.75
35,44,1113.5833333333333,B1,L,556.7916666666666
35,0,1113.6666666666665,B1,L,556.8333333333333
36,46,1113.8333333333333,C2,L,556.9166666666666
76,0,1114.0,E5,R,557.0
36,0,1114.0,C2,L,557.0
35,42,1114.0,B1,L,557.0
35,0,1114.375,B1,L,557.1875
36,39,1114.375,C2,L,557.1875
36,0,1114.5,C2,L,557.25
35,44,1114.5,B1,L,557.25
35,0,1114.75,B1,L,557.375
36,33,1114.8125,C2,L,557.40625
36,0,1115.0,C2,L,557.5
35,43,1115.0,B1,L,557.5
35,0,1115.25,B1,L,557.625
36,38,1115.2916666666667,C2,L,557.6458333333334
36,0,1115.3333333333335,C2,L,557.6666666666667
35,39,1115.4166666666667,B1,L,557.7083333333334
35,0,1115.5,B1,L,557.75
36,44,1115.6666666666667,C2,L,557.8333333333334
35,45,1115.8333333333333,B1,L,557.9166666666666
36,0,1115.8333333333335,C2,L,557.9166666666667
35,0,1116.0,B1,L,558.0
36,41,1116.125,C2,L,558.0625
36,0,1116.25,C2,L,558.125
35,38,1116.25,B1,L,558.125
35,0,1116.5,B1,L,558.25
36,39,1116.5,C2,L,558.25
36,0,1116.75,C2,L,558.375
35,40,1116.75,B1,L,558.375
35,0,1117.0,B1,L,558.5
36,40,1117.0625,C2,L,558.53125
35,42,1117.25,B1,L,558.625
36,0,1117.25,C2,L,558.625
36,43,1117.5,C2,L,558.75
35,0,1117.5,B1,L,558.75
36,0,1117.6666666666667,C2,L,558.8333333333334
35,46,1117.6666666666667,B1,L,558.8333333333334
35,0,1117.8333333333335,B1,L,558.9166666666667
36,47,1118.0,C2,L,559.0
35,44,1118.125,B1,L,559.0625
36,0,1118.125,C2,L,559.0625
35,0,1118.375,B1,L,559.1875
36,33,1118.375,C2,L,559.1875
35,51,1118.4375,B1,L,559.21875
79,48,1118.5,G5,L,559.25
35,51,1118.5,B1,L,559.25
36,0,1118.5,C2,L,559.25
36,33,1118.5,C2,L,559.25
35,0,1118.5,B1,L,559.25
36,0,1118.75,C2,L,559.375
77,49,1118.75,F5,L,559.375
76,49,1119.0,E5,L,559.5
79,0,1119.0,G5,L,559.5
35,0,1119.0,B1,L,559.5
48,26,1119.0,C3,R,559.5
77,49,1119.0,F5,L,559.5
77,0,1119.0,F5,L,559.5
76,0,1119.5,E5,L,559.75
76,49,1119.5,E5,L,559.75
36,40,1119.5,C2,L,559.75
77,0,1120.0,F5,L,560.0
36,0,1120.0,C2,L,560.0
76,0,1120.0,E5,L,560.0
36,40,1120.0,C2,L,560.0
76,49,1120.0,E5,L,560.0
48,26,1120.0,C3,R,560.0
48,0,1120.0,C3,R,560.0
36,0,1121.0,C2,L,560.5
76,0,1121.0,E5,L,560.5
36,40,1121.0,C2,L,560.5
48,0,1124.0,C3,R,562.0
48,26,1124.0,C3,R,562.0
36,40,1124.0,C2,L,562.0
36,0,1124.0,C2,L,562.0
48,0,1125.0,C3,R,562.5
68,59,1125.0,G#4,R,562.5
36,0,1125.0,C2,L,562.5
50,42,1126.0,D3,R,563.0
38,41,1126.0,D2,L,563.0
67,69,1128.0,G4,R,564.0
68,59,1128.0,G#4,R,564.0
50,0,1128.0,D3,R,564.0
68,0,1128.0,G#4,R,564.0
38,0,1128.0,D2,L,564.0
40,52,1128.5,E2,L,564.25
52,47,1128.5,E3,L,564.25
68,0,1129.0,G#4,R,564.5
40,0,1130.0,E2,L,565.0
52,47,1130.0,E3,L,565.0
52,0,1130.0,E3,L,565.0
53,57,1131.0,F3,L,565.5
67,69,1131.0,G4,R,565.5
41,59,1131.0,F2,L,565.5
52,0,1131.0,E3,L,565.5
67,0,1131.0,G4,R,565.5
60,61,1131.0,C4,R,565.5
67,0,1132.0,G4,R,566.0
53,57,1132.0,F3,L,566.0
60,0,1132.0,C4,R,566.0
60,61,1132.0,C4,R,566.0
41,59,1132.0,F2,L,566.0
53,0,1132.0,F3,L,566.0
41,0,1132.0,F2,L,566.0
41,0,1133.0,F2,L,566.5
53,0,1133.0,F3,L,566.5
60,0,1133.0,C4,R,566.5
45,59,1134.0,A2,L,567.0
57,62,1134.0,A3,R,567.0
57,0,1136.0,A3,R,568.0
45,0,1136.0,A2,L,568.0
59,78,1137.0,B3,R,568.5
47,71,1137.0,B2,L,568.5
47,0,1138.0,B2,L,569.0
59,0,1139.0,B3,R,569.5
49,73,1140.0,C#3,L,570.0
61,74,1140.0,C#4,R,570.0
49,0,1142.0,C#3,L,571.0
61,0,1142.0,C#4,R,571.0
62,71,1143.0,D4,L,571.5
89,90,1143.0,F6,R,571.5
77,67,1143.0,F5,R,571.5
50,74,1143.0,D3,L,571.5
89,90,1144.0,F6,R,572.0
62,0,1144.0,D4,L,572.0
50,0,1144.0,D3,L,572.0
62,71,1144.0,D4,L,572.0
77,0,1144.0,F5,R,572.0
89,0,1144.0,F6,R,572.0
77,67,1144.0,F5,R,572.0
50,74,1144.0,D3,L,572.0
89,0,1145.0,F6,R,572.5
62,0,1145.0,D4,L,572.5
77,0,1145.0,F5,R,572.5
57,64,1145.5,A3,L,572.75
91,89,1145.5,G6,R,572.75
79,77,1145.5,G5,R,572.75
62,64,1145.5,D4,L,572.75
62,64,1146.0,D4,L,573.0
57,64,1146.0,A3,L,573.0
91,89,1146.0,G6,R,573.0
79,77,1146.0,G5,R,573.0
57,0,1146.0,A3,L,573.0
79,0,1146.0,G5,R,573.0
91,0,1146.0,G6,R,573.0
62,0,1146.0,D4,L,573.0
57,0,1147.0,A3,L,573.5
62,0,1147.0,D4,L,573.5
50,0,1147.0,D3,L,573.5
79,0,1147.0,G5,R,573.5
91,0,1147.0,G6,R,573.5
89,94,1147.0,F6,R,573.5
77,80,1147.0,F5,R,573.5
77,0,1148.0,F5,R,574.0
88,93,1148.0,E6,R,574.0
89,0,1148.0,F6,R,574.0
58,73,1148.0,A#3,L,574.0
76,75,1148.0,E5,R,574.0
64,71,1148.0,E4,L,574.0
61,65,1148.0,C#4,L,574.0
76,0,1149.0,E5,R,574.5
58,0,1149.3333333333333,A#3,L,574.6666666666666
61,0,1149.3333333333333,C#4,L,574.6666666666666
64,0,1149.3333333333333,E4,L,574.6666666666666
88,0,1150.0,E6,R,575.0
60,74,1150.6666666666667,C4,L,575.3333333333334
63,79,1150.6666666666667,D#4,L,575.3333333333334
69,78,1150.6666666666667,A4,L,575.3333333333334
77,86,1151.0,F5,R,575.5
89,96,1151.0,F6,R,575.5
89,0,1152.0,F6,R,576.0
77,0,1152.0,F5,R,576.0
63,0,1152.0,D#4,L,576.0
87,99,1152.0,D#6,R,576.0
75,93,1152.0,D#5,R,576.0
63,79,1152.0,D#4,L,576.0
60,74,1152.0,C4,L,576.0
69,0,1152.0,A4,L,576.0
60,0,1152.0,C4,L,576.0
69,78,1152.0,A4,L,576.0
75,0,1153.0,D#5,R,576.5
87,0,1153.0,D#6,R,576.5
69,0,1153.0,A4,L,576.5
63,0,1153.0,D#4,L,576.5
60,0,1153.0,C4,L,576.5
69,78,1153.0,A4,L,576.5
69,0,1153.75,A4,L,576.875
60,85,1153.75,C4,L,576.875
63,83,1153.75,D#4,L,576.875
66,83,1153.75,F#4,L,576.875
69,78,1153.75,A4,L,576.875
87,101,1154.0,D#6,R,577.0
60,0,1154.0,C4,L,577.0
63,0,1154.0,D#4,L,577.0
66,0,1154.0,F#4,L,577.0
69,0,1154.0,A4,L,577.0
60,85,1154.0,C4,L,577.0
63,83,1154.0,D#4,L,577.0
75,93,1154.0,D#5,R,577.0
66,83,1154.0,F#4,L,577.0
69,64,1154.25,A4,L,577.125
66,0,1154.25,F#4,L,577.125
60,0,1154.25,C4,L,577.125
63,0,1154.25,D#4,L,577.125
87,0,1154.5,D#6,R,577.25
63,50,1154.5,D#4,R,577.25
60,44,1154.5,C4,L,577.25
66,53,1154.5,F#4,R,577.25
69,0,1154.5,A4,L,577.25
87,101,1154.5,D#6,R,577.25
69,55,1154.75,A4,L,577.375
60,0,1154.75,C4,L,577.375
69,0,1154.875,A4,L,577.4375
66,58,1154.875,F#4,R,577.4375
63,65,1154.875,D#4,R,577.4375
87,0,1154.875,D#6,R,577.4375
66,0,1154.875,F#4,R,577.4375
63,0,1154.875,D#4,R,577.4375
87,101,1154.875,D#6,R,577.4375
60,49,1154.875,C4,L,577.4375
60,0,1155.0,C4,L,577.5
87,0,1155.0,D#6,R,577.5
63,0,1155.0,D#4,R,577.5
87,101,1155.0,D#6,R,577.5
66,0,1155.0,F#4,R,577.5
69,58,1155.0,A4,L,577.5
69,58,1155.1875,A4,L,577.59375
69,0,1155.1875,A4,L,577.59375
69,0,1155.21875,A4,L,577.609375
60,61,1155.21875,C4,L,577.609375
60,0,1155.25,C4,L,577.625
60,61,1155.25,C4,L,577.625
87,0,1155.25,D#6,R,577.625
63,65,1155.25,D#4,R,577.625
66,54,1155.25,F#4,R,577.625
87,101,1155.25,D#6,R,577.625
69,59,1155.4375,A4,L,577.71875
60,0,1155.4375,C4,L,577.71875
87,101,1155.5,D#6,R,577.75
87,0,1155.5,D#6,R,577.75
66,0,1155.5,F#4,R,577.75
69,59,1155.5,A4,L,577.75
63,0,1155.5,D#4,R,577.75
69,0,1155.5,A4,L,577.75
66,48,1155.5625,F#4,R,577.78125
60,53,1155.5625,C4,L,577.78125
87,0,1155.5625,D#6,R,577.78125
69,0,1155.5625,A4,L,577.78125
87,101,1155.5625,D#6,R,577.78125
63,55,1155.5625,D#4,R,577.78125
69,67,1155.75,A4,L,577.875
63,55,1155.75,D#4,R,577.875
60,0,1155.75,C4,L,577.875
87,101,1155.75,D#6,R,577.875
66,48,1155.75,F#4,R,577.875
87,0,1155.75,D#6,R,577.875
66,0,1155.75,F#4,R,577.875
63,0,1155.75,D#4,R,577.875
69,0,1155.875,A4,L,577.9375
60,39,1155.9375,C4,L,577.96875
66,0,1155.9375,F#4,R,577.96875
87,0,1155.9375,D#6,R,577.96875
63,53,1155.9375,D#4,R,577.96875
87,101,1155.9375,D#6,R,577.96875
63,0,1155.9375,D#4,R,577.96875
66,51,1155.9375,F#4,R,577.96875
60,0,1156.0,C4,L,578.0
60,39,1156.0,C4,L,578.0
63,0,1156.0,D#4,R,578.0
66,0,1156.0,F#4,R,578.0
75,93,1156.0,D#5,R,578.0
63,53,1156.0,D#4,R,578.0
66,51,1156.0,F#4,R,578.0
87,101,1156.0,D#6,R,578.0
87,0,1156.0,D#6,R,578.0
75,0,1156.0,D#5,R,578.0
60,0,1156.125,C4,L,578.0625
69,64,1156.125,A4,L,578.0625
69,0,1156.25,A4,L,578.125
63,62,1156.25,D#4,L,578.125
69,63,1156.375,A4,L,578.1875
63,77,1156.5,D#4,R,578.25
87,101,1156.5,D#6,R,578.25
66,0,1156.5,F#4,R,578.25
63,0,1156.5,D#4,L,578.25
60,80,1156.5,C4,L,578.25
63,0,1156.5,D#4,R,578.25
87,0,1156.5,D#6,R,578.25
66,36,1156.5,F#4,R,578.25
69,63,1156.5,A4,L,578.25
69,0,1156.5,A4,L,578.25
60,0,1156.75,C4,L,578.375
60,80,1156.75,C4,L,578.375
69,71,1156.75,A4,L,578.375
63,0,1157.0,D#4,R,578.5
69,0,1157.0,A4,L,578.5
66,0,1157.0,F#4,R,578.5
87,0,1157.0,D#6,R,578.5
60,0,1157.0,C4,L,578.5
87,101,1157.0,D#6,R,578.5
69,0,1157.0,A4,L,578.5
66,46,1157.0,F#4,R,578.5
63,34,1157.0714285714287,D#4,L,578.5357142857143
69,62,1157.142857142857,A4,L,578.5714285714286
63,0,1157.1428571428573,D#4,L,578.5714285714287
69,0,1157.357142857143,A4,L,578.6785714285714
63,55,1157.357142857143,D#4,L,578.6785714285714
66,50,1157.375,F#4,R,578.6875
87,0,1157.375,D#6,R,578.6875
87,101,1157.375,D#6,R,578.6875
66,0,1157.375,F#4,R,578.6875
60,41,1157.4285714285713,C4,L,578.7142857142857
63,0,1157.4285714285716,D#4,L,578.7142857142858
87,0,1157.5,D#6,R,578.75
87,101,1157.5,D#6,R,578.75
66,0,1157.5,F#4,R,578.75
60,0,1157.5714285714284,C4,L,578.7857142857142
69,64,1157.642857142857,A4,L,578.8214285714286
69,0,1157.7142857142858,A4,L,578.8571428571429
87,0,1157.75,D#6,R,578.875
63,58,1157.75,D#4,R,578.875
87,101,1157.75,D#6,R,578.875
60,37,1157.7857142857142,C4,L,578.8928571428571
66,42,1157.857142857143,F#4,L,578.9285714285714
60,0,1157.857142857143,C4,L,578.9285714285714
63,0,1158.0,D#4,R,579.0
87,0,1158.0,D#6,R,579.0
87,101,1158.0,D#6,R,579.0
75,0,1158.0,D#5,R,579.0
66,0,1158.0,F#4,L,579.0
69,64,1158.0,A4,L,579.0
87,0,1158.125,D#6,R,579.0625
63,53,1158.125,D#4,R,579.0625
66,54,1158.125,F#4,R,579.0625
87,101,1158.125,D#6,R,579.0625
60,44,1158.1666666666667,C4,L,579.0833333333334
69,0,1158.1666666666667,A4,L,579.0833333333334
69,65,1158.3333333333333,A4,L,579.1666666666666
60,0,1158.3333333333335,C4,L,579.1666666666667
69,0,1158.5,A4,L,579.25
60,39,1158.5,C4,L,579.25
63,0,1158.5,D#4,R,579.25
66,0,1158.5,F#4,R,579.25
63,64,1158.5,D#4,R,579.25
87,0,1158.5,D#6,R,579.25
66,43,1158.5416666666667,F#4,R,579.2708333333334
63,0,1158.5416666666667,D#4,R,579.2708333333334
66,0,1158.6666666666667,F#4,R,579.3333333333334
69,67,1158.7083333333333,A4,R,579.3541666666666
63,49,1158.75,D#4,R,579.375
69,67,1158.75,A4,R,579.375
69,0,1158.75,A4,R,579.375
69,65,1158.875,A4,R,579.4375
69,0,1158.875,A4,R,579.4375
63,0,1159.0,D#4,R,579.5
60,0,1159.0,C4,L,579.5
69,65,1159.0,A4,R,579.5
69,0,1159.0,A4,R,579.5
84,96,1159.0,C6,R,579.5
66,74,1159.25,F#4,L,579.625
60,75,1159.25,C4,L,579.625
63,67,1159.25,D#4,L,579.625
69,69,1159.5,A4,L,579.75
60,0,1159.5,C4,L,579.75
63,0,1159.5,D#4,L,579.75
66,0,1159.5,F#4,L,579.75
69,0,1159.75,A4,R,579.875
60,46,1159.75,C4,L,579.875
63,59,1159.75,D#4,R,579.875
66,55,1159.75,F#4,R,579.875
69,0,1159.75,A4,L,579.875
60,0,1160.0,C4,L,580.0
69,64,1160.0,A4,L,580.0
84,96,1160.0,C6,R,580.0
63,0,1160.0,D#4,R,580.0
66,0,1160.0,F#4,R,580.0
84,0,1160.0,C6,R,580.0
63,59,1160.125,D#4,R,580.0625
66,55,1160.125,F#4,R,580.0625
69,0,1160.125,A4,L,580.0625
60,39,1160.125,C4,L,580.0625
60,0,1160.375,C4,L,580.1875
69,67,1160.375,A4,L,580.1875
63,0,1160.5,D#4,R,580.25
69,0,1160.5,A4,L,580.25
60,45,1160.5,C4,L,580.25
66,0,1160.5,F#4,R,580.25
66,56,1160.5625,F#4,R,580.28125
63,64,1160.5625,D#4,R,580.28125
60,0,1160.75,C4,L,580.375
66,0,1160.75,F#4,R,580.375
63,0,1160.75,D#4,R,580.375
69,66,1160.75,A4,L,580.375
69,0,1161.0,A4,L,580.5
66,50,1161.0,F#4,R,580.5
63,60,1161.0,D#4,R,580.5
60,41,1161.0714285714287,C4,L,580.5357142857143
69,68,1161.142857142857,A4,L,580.5714285714286
60,0,1161.1428571428573,C4,L,580.5714285714287
63,0,1161.25,D#4,R,580.625
66,0,1161.25,F#4,R,580.625
69,0,1161.2857142857142,A4,L,580.6428571428571
60,45,1161.2857142857142,C4,L,580.6428571428571
63,54,1161.3125,D#4,R,580.65625
66,50,1161.3125,F#4,R,580.65625
86,70,1161.4285714285713,D6,L,580.7142857142857
60,0,1161.4285714285713,C4,L,580.7142857142857
66,0,1161.5,F#4,R,580.75
69,72,1161.5,A4,R,580.75
63,0,1161.5,D#4,R,580.75
69,0,1161.625,A4,R,580.8125
84,85,1161.625,C6,R,580.8125
86,0,1161.7142857142856,D6,L,580.8571428571428
63,49,1161.7142857142858,D#4,L,580.8571428571429
66,56,1161.7142857142858,F#4,L,580.8571428571429
82,88,1161.75,A#5,R,580.875
84,0,1161.75,C6,R,580.875
66,56,1161.7857142857142,F#4,L,580.8928571428571
60,44,1161.7857142857142,C4,L,580.8928571428571
63,0,1161.7857142857144,D#4,L,580.8928571428572
66,0,1161.7857142857144,F#4,L,580.8928571428572
82,0,1162.0,A#5,R,581.0
81,97,1162.0,A5,R,581.0
66,0,1162.0,F#4,L,581.0
60,0,1162.0,C4,L,581.0
69,70,1162.0,A4,L,581.0
84,0,1162.0,C6,R,581.0
63,50,1162.2,D#4,L,581.1
69,0,1162.2,A4,L,581.1
66,42,1162.25,F#4,R,581.125
63,0,1162.4,D#4,L,581.2
69,65,1162.4,A4,L,581.2
66,0,1162.5,F#4,R,581.25
66,58,1162.5,F#4,R,581.25
63,59,1162.6,D#4,L,581.3
69,0,1162.6000000000001,A4,L,581.3000000000001
69,60,1162.8,A4,L,581.4
63,0,1162.8,D#4,L,581.4
66,0,1163.0,F#4,R,581.5
63,56,1163.0,D#4,R,581.5
66,51,1163.0,F#4,R,581.5
60,56,1163.0,C4,L,581.5
69,0,1163.0,A4,L,581.5
63,0,1163.25,D#4,R,581.625
66,0,1163.25,F#4,R,581.625
69,65,1163.25,A4,R,581.625
87,103,1163.5,D#6,L,581.75
60,0,1163.5,C4,L,581.75
69,0,1163.5,A4,R,581.75
66,38,1163.5,F#4,R,581.75
63,56,1163.5625,D#4,L,581.78125
60,41,1163.5625,C4,L,581.78125
66,0,1163.75,F#4,R,581.875
69,67,1163.75,A4,R,581.875
63,0,1163.75,D#4,L,581.875
60,0,1163.75,C4,L,581.875
63,61,1163.875,D#4,L,581.9375
60,38,1163.875,C4,L,581.9375
66,48,1163.875,F#4,R,581.9375
69,0,1163.875,A4,R,581.9375
87,103,1164.0,D#6,L,582.0
87,0,1164.0,D#6,L,582.0
60,0,1164.0,C4,L,582.0
81,0,1164.0,A5,R,582.0
63,0,1164.0,D#4,L,582.0
60,38,1164.0,C4,L,582.0
66,0,1164.0,F#4,R,582.0
69,67,1164.125,A4,R,582.0625
60,0,1164.25,C4,L,582.125
69,0,1164.25,A4,R,582.125
63,51,1164.25,D#4,R,582.125
63,0,1164.375,D#4,R,582.1875
69,46,1164.375,A4,R,582.1875
66,22,1164.375,F#4,L,582.1875
66,0,1164.5,F#4,L,582.25
69,0,1164.5,A4,R,582.25
69,46,1164.5,A4,R,582.25
60,78,1164.5,C4,L,582.25
63,65,1164.5,D#4,L,582.25
66,70,1164.5,F#4,L,582.25
66,0,1164.75,F#4,L,582.375
60,0,1164.75,C4,L,582.375
63,0,1164.75,D#4,L,582.375
69,72,1164.875,A4,L,582.4375
87,0,1165.0,D#6,L,582.5
69,0,1165.0,A4,L,582.5
69,72,1165.0,A4,L,582.5
69,0,1165.0,A4,R,582.5
84,95,1165.0,C6,R,582.5
69,0,1165.125,A4,L,582.5625
63,52,1165.125,D#4,L,582.5625
63,0,1165.25,D#4,L,582.625
66,23,1165.25,F#4,L,582.625
66,0,1165.375,F#4,L,582.6875
69,60,1165.375,A4,L,582.6875
69,0,1165.5,A4,L,582.75
60,46,1165.5,C4,L,582.75
84,0,1165.5,C6,R,582.75
63,51,1165.5,D#4,R,582.75
66,54,1165.5,F#4,R,582.75
84,95,1165.5,C6,R,582.75
69,51,1165.75,A4,L,582.875
60,0,1165.75,C4,L,582.875
84,95,1166.0,C6,R,583.0
63,0,1166.0,D#4,R,583.0
66,0,1166.0,F#4,R,583.0
84,0,1166.0,C6,R,583.0
63,58,1166.0,D#4,R,583.0
66,54,1166.0,F#4,R,583.0
60,60,1166.0,C4,L,583.0
69,0,1166.0,A4,L,583.0
60,0,1166.1666666666667,C4,L,583.0833333333334
69,63,1166.1666666666667,A4,L,583.0833333333334
60,43,1166.3333333333333,C4,L,583.1666666666666
69,0,1166.3333333333335,A4,L,583.1666666666667
63,0,1166.375,D#4,R,583.1875
66,54,1166.375,F#4,R,583.1875
63,54,1166.375,D#4,R,583.1875
84,0,1166.375,C6,R,583.1875
84,95,1166.375,C6,R,583.1875
66,0,1166.375,F#4,R,583.1875
69,59,1166.5,A4,L,583.25
63,0,1166.5,D#4,R,583.25
66,0,1166.5,F#4,R,583.25
84,0,1166.5,C6,R,583.25
84,95,1166.5,C6,R,583.25
60,0,1166.5,C4,L,583.25
69,0,1166.75,A4,L,583.375
84,0,1166.75,C6,R,583.375
63,58,1166.75,D#4,R,583.375
84,95,1166.75,C6,R,583.375
66,57,1166.75,F#4,R,583.375
60,47,1166.75,C4,L,583.375
66,0,1167.0,F#4,R,583.5
84,0,1167.0,C6,R,583.5
84,95,1167.0,C6,R,583.5
69,61,1167.0,A4,L,583.5
60,0,1167.0,C4,L,583.5
63,0,1167.0,D#4,R,583.5
84,0,1167.1875,C6,R,583.59375
66,60,1167.1875,F#4,R,583.59375
63,67,1167.1875,D#4,R,583.59375
84,95,1167.1875,C6,R,583.59375
69,0,1167.25,A4,L,583.625
60,53,1167.25,C4,L,583.625
84,95,1167.25,C6,R,583.625
84,0,1167.25,C6,R,583.625
63,0,1167.25,D#4,R,583.625
66,0,1167.25,F#4,R,583.625
63,67,1167.25,D#4,R,583.625
66,60,1167.25,F#4,R,583.625
84,95,1167.5,C6,R,583.75
84,0,1167.5,C6,R,583.75
69,59,1167.5,A4,L,583.75
60,0,1167.5,C4,L,583.75
66,0,1167.5,F#4,R,583.75
63,0,1167.5,D#4,R,583.75
63,54,1167.625,D#4,R,583.8125
84,0,1167.625,C6,R,583.8125
66,50,1167.625,F#4,R,583.8125
69,0,1167.625,A4,L,583.8125
60,53,1167.625,C4,L,583.8125
84,95,1167.625,C6,R,583.8125
60,0,1167.875,C4,L,583.9375
69,46,1167.875,A4,L,583.9375
84,95,1168.0,C6,R,584.0
66,0,1168.0,F#4,R,584.0
84,0,1168.0,C6,R,584.0
69,0,1168.0,A4,L,584.0
63,0,1168.0,D#4,R,584.0
63,59,1168.0625,D#4,L,584.03125
60,51,1168.0625,C4,L,584.03125
84,0,1168.0833333333333,C6,R,584.0416666666666
66,40,1168.0833333333333,F#4,R,584.0416666666666
84,95,1168.0833333333333,C6,R,584.0416666666666
66,0,1168.1666666666665,F#4,R,584.0833333333333
84,0,1168.1666666666665,C6,R,584.0833333333333
84,95,1168.1666666666667,C6,R,584.0833333333334
63,0,1168.25,D#4,L,584.125
60,0,1168.25,C4,L,584.125
69,56,1168.3333333333333,A4,R,584.1666666666666
84,0,1168.3333333333335,C6,R,584.1666666666667
63,53,1168.5,D#4,L,584.25
69,0,1168.5,A4,R,584.25
66,47,1168.5,F#4,R,584.25
60,46,1168.5,C4,L,584.25
66,0,1168.75,F#4,R,584.375
69,61,1168.75,A4,R,584.375
60,0,1168.875,C4,L,584.4375
63,0,1168.875,D#4,L,584.4375
60,37,1168.96875,C4,L,584.484375
63,52,1168.96875,D#4,L,584.484375
69,0,1169.0,A4,R,584.5
66,46,1169.0,F#4,R,584.5
60,37,1169.0,C4,L,584.5
60,0,1169.0,C4,L,584.5
63,0,1169.0,D#4,L,584.5
63,52,1169.0,D#4,L,584.5
66,0,1169.1666666666667,F#4,R,584.5833333333334
69,64,1169.1666666666667,A4,R,584.5833333333334
66,50,1169.3333333333333,F#4,R,584.6666666666666
69,0,1169.3333333333335,A4,R,584.6666666666667
60,0,1169.375,C4,L,584.6875
63,0,1169.375,D#4,L,584.6875
63,53,1169.375,D#4,L,584.6875
60,48,1169.375,C4,L,584.6875
69,68,1169.5,A4,R,584.75
60,0,1169.5,C4,L,584.75
63,0,1169.5,D#4,L,584.75
66,0,1169.5,F#4,R,584.75
84,102,1170.0,C6,R,585.0
60,65,1170.0,C4,L,585.0
63,67,1170.0,D#4,L,585.0
69,0,1170.0,A4,R,585.0
66,66,1170.25,F#4,R,585.125
69,68,1170.25,A4,L,585.125
63,0,1170.25,D#4,L,585.125
60,0,1170.25,C4,L,585.125
66,0,1170.5,F#4,R,585.25
63,59,1170.5,D#4,R,585.25
66,49,1170.5,F#4,R,585.25
60,58,1170.5,C4,L,585.25
69,0,1170.5,A4,L,585.25
69,66,1170.75,A4,L,585.375
60,0,1170.75,C4,L,585.375
63,59,1171.0,D#4,R,585.5
60,48,1171.0,C4,L,585.5
63,0,1171.0,D#4,R,585.5
66,47,1171.0,F#4,R,585.5
69,0,1171.0,A4,L,585.5
66,0,1171.0,F#4,R,585.5
69,69,1171.25,A4,L,585.625
60,0,1171.25,C4,L,585.625
63,0,1171.375,D#4,R,585.6875
66,58,1171.375,F#4,R,585.6875
60,45,1171.375,C4,L,585.6875
63,64,1171.375,D#4,R,585.6875
69,0,1171.375,A4,L,585.6875
66,0,1171.375,F#4,R,585.6875
66,0,1171.5,F#4,R,585.75
63,0,1171.5,D#4,R,585.75
60,0,1171.5,C4,L,585.75
69,67,1171.625,A4,L,585.8125
60,50,1171.75,C4,L,585.875
69,0,1171.75,A4,L,585.875
63,57,1171.75,D#4,R,585.875
66,50,1171.8125,F#4,L,585.90625
69,66,1172.0,A4,L,586.0
84,0,1172.0,C6,R,586.0
60,0,1172.0,C4,L,586.0
66,0,1172.0,F#4,L,586.0
63,0,1172.0,D#4,R,586.0
86,80,1172.111111111111,D6,R,586.0555555555555
63,50,1172.125,D#4,L,586.0625
60,55,1172.125,C4,L,586.0625
69,0,1172.125,A4,L,586.0625
66,53,1172.125,F#4,L,586.0625
86,0,1172.2222222222222,D6,R,586.1111111111111
84,82,1172.2222222222222,C6,R,586.1111111111111
84,0,1172.3333333333333,C6,R,586.1666666666666
82,86,1172.3333333333333,A#5,R,586.1666666666666
84,82,1172.3333333333333,C6,R,586.1666666666666
63,0,1172.375,D#4,L,586.1875
60,0,1172.375,C4,L,586.1875
69,72,1172.375,A4,L,586.1875
66,0,1172.375,F#4,L,586.1875
84,0,1172.4444444444443,C6,R,586.2222222222222
84,82,1172.4444444444443,C6,R,586.2222222222222
82,0,1172.4444444444443,A#5,R,586.2222222222222
82,86,1172.4444444444443,A#5,R,586.2222222222222
69,72,1172.5,A4,L,586.25
69,0,1172.5,A4,L,586.25
63,57,1172.625,D#4,L,586.3125
60,59,1172.625,C4,L,586.3125
69,0,1172.625,A4,L,586.3125
66,60,1172.625,F#4,L,586.3125
84,0,1172.6666666666665,C6,R,586.3333333333333
82,0,1172.6666666666665,A#5,R,586.3333333333333
81,95,1172.6666666666667,A5,R,586.3333333333334
81,95,1172.888888888889,A5,R,586.4444444444445
69,67,1172.888888888889,A4,R,586.4444444444445
81,0,1172.888888888889,A5,R,586.4444444444445
63,0,1173.0,D#4,L,586.5
66,0,1173.0,F#4,L,586.5
60,0,1173.0,C4,L,586.5
66,55,1173.111111111111,F#4,R,586.5555555555555
81,95,1173.111111111111,A5,R,586.5555555555555
69,0,1173.111111111111,A4,R,586.5555555555555
81,0,1173.111111111111,A5,R,586.5555555555555
60,56,1173.125,C4,L,586.5625
63,55,1173.125,D#4,L,586.5625
81,95,1173.3333333333333,A5,R,586.6666666666666
69,65,1173.3333333333333,A4,R,586.6666666666666
81,0,1173.3333333333333,A5,R,586.6666666666666
66,0,1173.3333333333333,F#4,R,586.6666666666666
63,0,1173.5,D#4,L,586.75
60,55,1173.5,C4,L,586.75
63,54,1173.5,D#4,L,586.75
60,0,1173.5,C4,L,586.75
69,0,1173.5555555555554,A4,R,586.7777777777777
81,0,1173.5555555555554,A5,R,586.7777777777777
66,57,1173.5555555555557,F#4,R,586.7777777777778
81,95,1173.5555555555557,A5,R,586.7777777777778
66,0,1173.7777777777778,F#4,R,586.8888888888889
81,95,1173.7777777777778,A5,R,586.8888888888889
69,69,1173.7777777777778,A4,R,586.8888888888889
81,0,1173.7777777777778,A5,R,586.8888888888889
66,62,1174.0,F#4,L,587.0
60,59,1174.0,C4,L,587.0
63,0,1174.0,D#4,L,587.0
60,0,1174.0,C4,L,587.0
87,97,1174.0,D#6,R,587.0
63,61,1174.0,D#4,L,587.0
69,0,1174.0,A4,R,587.0
81,0,1174.0,A5,R,587.0
60,0,1174.25,C4,L,587.125
63,0,1174.25,D#4,L,587.125
66,0,1174.25,F#4,L,587.125
69,59,1174.25,A4,L,587.125
69,0,1174.375,A4,L,587.1875
63,50,1174.4375,D#4,R,587.21875
66,55,1174.4375,F#4,R,587.21875
60,60,1174.4375,C4,L,587.21875
63,0,1174.5,D#4,R,587.25
66,0,1174.5,F#4,R,587.25
66,55,1174.5,F#4,R,587.25
60,0,1174.5,C4,L,587.25
60,60,1174.5,C4,L,587.25
60,0,1174.75,C4,L,587.375
63,48,1174.75,D#4,R,587.375
66,61,1174.75,F#4,R,587.375
66,0,1174.75,F#4,R,587.375
69,40,1174.75,A4,L,587.375
60,64,1174.8125,C4,L,587.40625
69,0,1174.8125,A4,L,587.40625
63,0,1175.0,D#4,R,587.5
66,0,1175.0,F#4,R,587.5
69,70,1175.0,A4,L,587.5
60,0,1175.0,C4,L,587.5
87,0,1175.0,D#6,R,587.5
86,109,1175.4375,D6,R,587.71875
85,49,1175.4375,C#6,R,587.71875
85,0,1175.5,C#6,R,587.75
85,49,1175.5,C#6,R,587.75
86,109,1175.5,D6,R,587.75
62,81,1175.5,D4,L,587.75
67,86,1175.5,G4,L,587.75
69,0,1175.5,A4,L,587.75
58,82,1175.5,A#3,L,587.75
86,0,1175.5,D6,R,587.75
67,0,1175.75,G4,L,587.875
70,75,1175.75,A#4,L,587.875
58,0,1175.75,A#3,L,587.875
62,0,1175.75,D4,L,587.875
85,0,1176.0,C#6,R,588.0
86,0,1176.0,D6,R,588.0
58,62,1176.0,A#3,L,588.0
67,47,1176.0,G4,R,588.0
70,0,1176.0,A#4,L,588.0
62,63,1176.0,D4,R,588.0
86,109,1176.0,D6,R,588.0
70,70,1176.25,A#4,L,588.125
58,0,1176.25,A#3,L,588.125
67,0,1176.5,G4,R,588.25
62,50,1176.5,D4,R,588.25
58,46,1176.5,A#3,L,588.25
70,0,1176.5,A#4,L,588.25
62,0,1176.5,D4,R,588.25
67,53,1176.5,G4,R,588.25
70,70,1176.625,A#4,L,588.3125
58,0,1176.625,A#3,L,588.3125
62,0,1176.75,D4,R,588.375
67,0,1176.75,G4,R,588.375
58,53,1176.8125,A#3,L,588.40625
62,51,1176.8125,D4,R,588.40625
70,0,1176.875,A#4,L,588.4375
67,47,1176.875,G4,L,588.4375
58,0,1177.0,A#3,L,588.5
62,0,1177.0,D4,R,588.5
67,0,1177.0,G4,L,588.5
70,61,1177.03125,A#4,L,588.515625
70,0,1177.125,A#4,L,588.5625
62,50,1177.25,D4,R,588.625
58,52,1177.25,A#3,L,588.625
67,52,1177.25,G4,R,588.625
62,0,1177.5,D4,R,588.75
58,0,1177.5,A#3,L,588.75
67,0,1177.5,G4,R,588.75
70,66,1177.5416666666667,A#4,L,588.7708333333334
62,52,1177.625,D4,R,588.8125
70,0,1177.6666666666667,A#4,L,588.8333333333334
58,59,1177.6666666666667,A#3,L,588.8333333333334
58,0,1177.75,A#3,L,588.875
67,45,1177.7916666666667,G4,L,588.8958333333334
70,68,1177.9166666666667,A#4,L,588.9583333333334
67,0,1177.9166666666667,G4,L,588.9583333333334
62,0,1178.0,D4,R,589.0
70,0,1178.0,A#4,L,589.0
58,63,1178.125,A#3,L,589.0625
67,65,1178.125,G4,R,589.0625
62,53,1178.125,D4,R,589.0625
58,0,1178.375,A#3,L,589.1875
70,72,1178.375,A#4,L,589.1875
62,0,1178.5,D4,R,589.25
67,0,1178.5,G4,R,589.25
70,72,1178.5,A#4,L,589.25
70,0,1178.5,A#4,L,589.25
70,0,1178.5833333333333,A#4,L,589.2916666666666
58,61,1178.5833333333333,A#3,L,589.2916666666666
67,55,1178.625,G4,R,589.3125
58,0,1178.6666666666665,A#3,L,589.3333333333333
58,61,1178.6666666666667,A#3,L,589.3333333333334
62,48,1178.6666666666667,D4,L,589.3333333333334
62,0,1178.75,D4,L,589.375
58,0,1178.75,A#3,L,589.375
70,65,1178.875,A#4,L,589.4375
62,44,1179.0,D4,R,589.5
67,0,1179.0,G4,R,589.5
70,0,1179.0,A#4,L,589.5
67,49,1179.0,G4,R,589.5
58,53,1179.0833333333333,A#3,L,589.5416666666666
58,0,1179.1666666666665,A#3,L,589.5833333333333
70,63,1179.3333333333333,A#4,L,589.6666666666666
62,50,1179.5,D4,R,589.75
67,53,1179.5,G4,R,589.75
67,0,1179.5,G4,R,589.75
62,0,1179.5,D4,R,589.75
70,0,1179.5,A#4,L,589.75
58,49,1179.5,A#3,L,589.75
58,0,1179.75,A#3,L,589.875
70,65,1179.75,A#4,L,589.875
62,40,1180.0,D4,R,590.0
70,0,1180.0,A#4,L,590.0
67,34,1180.0,G4,R,590.0
58,48,1180.0,A#3,L,590.0
67,0,1180.0,G4,R,590.0
62,0,1180.0,D4,R,590.0
86,0,1180.0,D6,R,590.0
70,75,1180.25,A#4,L,590.125
58,0,1180.25,A#3,L,590.125
70,0,1180.5,A#4,L,590.25
67,36,1180.5,G4,R,590.25
62,0,1180.5,D4,R,590.25
67,0,1180.5,G4,R,590.25
62,28,1180.625,D4,L,590.3125
67,0,1180.75,G4,R,590.375
70,56,1180.75,A#4,R,590.375
70,0,1181.0,A#4,R,590.5
62,48,1181.0,D4,L,590.5
62,0,1181.0,D4,L,590.5
58,49,1181.0,A#3,L,590.5
67,48,1181.0,G4,L,590.5
82,93,1181.0,A#5,R,590.5
70,64,1181.25,A#4,R,590.625
67,0,1181.5,G4,L,590.75
58,55,1181.5,A#3,L,590.75
70,0,1181.5,A#4,R,590.75
62,55,1181.5,D4,R,590.75
58,0,1181.5,A#3,L,590.75
62,0,1181.5,D4,L,590.75
58,0,1181.625,A#3,L,590.8125
67,17,1181.625,G4,L,590.8125
67,0,1181.75,G4,L,590.875
70,73,1181.75,A#4,L,590.875
62,0,1181.875,D4,R,590.9375
62,50,1181.875,D4,R,590.9375
70,0,1181.875,A#4,L,590.9375
58,65,1181.875,A#3,L,590.9375
62,50,1182.0,D4,R,591.0
62,0,1182.0,D4,R,591.0
58,0,1182.0,A#3,L,591.0
58,65,1182.0,A#3,L,591.0
58,0,1182.125,A#3,L,591.0625
70,77,1182.125,A#4,L,591.0625
62,50,1182.375,D4,R,591.1875
67,35,1182.375,G4,R,591.1875
58,51,1182.375,A#3,L,591.1875
70,0,1182.375,A#4,L,591.1875
62,0,1182.375,D4,R,591.1875
58,0,1182.5,A#3,L,591.25
70,76,1182.5,A#4,L,591.25
67,35,1182.5,G4,R,591.25
67,0,1182.5,G4,R,591.25
62,0,1182.5,D4,R,591.25
70,0,1182.75,A#4,L,591.375
58,50,1182.75,A#3,L,591.375
67,0,1182.75,G4,R,591.375
62,47,1182.75,D4,R,591.375
58,0,1182.9166666666667,A#3,L,591.4583333333334
67,29,1182.9166666666667,G4,L,591.4583333333334
62,0,1183.0,D4,R,591.5
70,69,1183.0,A#4,R,591.5
82,0,1183.0,A#5,R,591.5
67,51,1183.0,G4,L,591.5
62,49,1183.0,D4,L,591.5
58,54,1183.0,A#3,L,591.5
67,0,1183.0,G4,L,591.5
84,73,1183.1666666666667,C6,R,591.5833333333334
70,0,1183.1666666666667,A#4,R,591.5833333333334
82,83,1183.3333333333333,A#5,R,591.6666666666666
84,0,1183.3333333333335,C6,R,591.6666666666667
70,71,1183.5,A#4,L,591.75
82,0,1183.5,A#5,R,591.75
81,82,1183.5,A5,R,591.75
58,0,1183.5,A#3,L,591.75
62,0,1183.5,D4,L,591.75
67,0,1183.5,G4,L,591.75
82,83,1183.5,A#5,R,591.75
62,65,1183.625,D4,L,591.8125
79,95,1183.75,G5,R,591.875
70,0,1183.75,A#4,L,591.875
58,64,1183.75,A#3,L,591.875
58,0,1183.875,A#3,L,591.9375
70,76,1183.875,A#4,L,591.9375
67,55,1183.875,G4,R,591.9375
82,0,1183.875,A#5,R,591.9375
81,0,1183.875,A5,R,591.9375
79,0,1184.0,G5,R,592.0
79,95,1184.0,G5,R,592.0
67,0,1184.0,G4,R,592.0
70,0,1184.0,A#4,L,592.0
62,0,1184.0,D4,L,592.0
62,58,1184.0,D4,R,592.0
70,76,1184.0,A#4,L,592.0
58,55,1184.1666666666667,A#3,L,592.0833333333334
70,0,1184.1666666666667,A#4,L,592.0833333333334
67,18,1184.3333333333333,G4,L,592.1666666666666
58,0,1184.3333333333335,A#3,L,592.1666666666667
67,0,1184.4166666666665,G4,L,592.2083333333333
70,76,1184.4166666666667,A#4,L,592.2083333333334
70,76,1184.5,A#4,L,592.25
62,0,1184.5,D4,R,592.25
70,0,1184.5,A#4,L,592.25
58,67,1184.625,A#3,L,592.3125
62,59,1184.625,D4,R,592.3125
70,0,1184.75,A#4,L,592.375
67,38,1184.75,G4,L,592.375
58,0,1184.875,A#3,L,592.4375
70,80,1184.875,A#4,L,592.4375
70,0,1185.0,A#4,L,592.5
70,80,1185.0,A#4,L,592.5
86,100,1185.0,D6,L,592.5
62,0,1185.0,D4,R,592.5
79,0,1185.0,G5,R,592.5
67,0,1185.0,G4,L,592.5
86,100,1185.125,D6,L,592.5625
58,72,1185.125,A#3,L,592.5625
62,58,1185.125,D4,R,592.5625
86,0,1185.125,D6,L,592.5625
67,34,1185.25,G4,R,592.625
70,81,1185.375,A#4,R,592.6875
67,0,1185.375,G4,R,592.6875
58,67,1185.5,A#3,L,592.75
86,0,1185.5,D6,L,592.75
70,0,1185.5,A#4,L,592.75
62,54,1185.5,D4,R,592.75
62,0,1185.5,D4,R,592.75
70,0,1185.5,A#4,R,592.75
58,0,1185.5,A#3,L,592.75
67,10,1185.75,G4,L,592.875
70,77,1185.75,A#4,R,592.875
62,0,1185.875,D4,R,592.9375
62,29,1185.875,D4,R,592.9375
70,77,1185.9375,A#4,R,592.96875
67,23,1185.9375,G4,R,592.96875
70,0,1185.9375,A#4,R,592.96875
67,23,1186.0,G4,R,593.0
86,97,1186.0,D6,R,593.0
58,0,1186.0,A#3,L,593.0
62,29,1186.0,D4,R,593.0
62,0,1186.0,D4,R,593.0
67,0,1186.0,G4,L,593.0
70,0,1186.0,A#4,R,593.0
67,0,1186.0,G4,R,593.0
62,73,1186.5,D4,L,593.25
64,64,1186.5,E4,L,593.25
58,93,1186.5,A#3,L,593.25
67,0,1187.0,G4,R,593.5
64,0,1187.0,E4,L,593.5
62,0,1187.0,D4,R,593.5
62,0,1187.0,D4,L,593.5
58,0,1187.0,A#3,L,593.5
86,0,1187.0,D6,R,593.5
67,77,1187.0,G4,R,593.5
86,97,1187.0,D6,R,593.5
58,57,1187.21875,A#3,L,593.609375
58,0,1187.25,A#3,L,593.625
86,97,1187.25,D6,R,593.625
64,46,1187.25,E4,L,593.625
67,0,1187.25,G4,R,593.625
86,0,1187.25,D6,R,593.625
62,49,1187.25,D4,R,593.625
58,57,1187.25,A#3,L,593.625
64,0,1187.375,E4,L,593.6875
67,73,1187.375,G4,L,593.6875
67,0,1187.5,G4,L,593.75
58,55,1187.5,A#3,L,593.75
62,0,1187.5,D4,R,593.75
86,0,1187.5,D6,R,593.75
62,62,1187.5,D4,R,593.75
64,56,1187.5,E4,R,593.75
86,97,1187.5,D6,R,593.75
67,67,1187.75,G4,L,593.875
58,0,1187.75,A#3,L,593.875
86,97,1188.0,D6,R,594.0
62,0,1188.0,D4,R,594.0
64,0,1188.0,E4,R,594.0
86,0,1188.0,D6,R,594.0
67,0,1188.0,G4,L,594.0
62,60,1188.0,D4,R,594.0
58,0,1188.0,A#3,L,594.0
58,56,1188.0,A#3,L,594.0
64,38,1188.0833333333333,E4,L,594.0416666666666
58,0,1188.0833333333333,A#3,L,594.0416666666666
64,0,1188.1666666666665,E4,L,594.0833333333333
67,58,1188.25,G4,L,594.125
58,57,1188.375,A#3,L,594.1875
64,51,1188.375,E4,R,594.1875
86,0,1188.375,D6,R,594.1875
62,0,1188.375,D4,R,594.1875
62,64,1188.375,D4,R,594.1875
67,0,1188.375,G4,L,594.1875
86,97,1188.375,D6,R,594.1875
58,0,1188.5,A#3,L,594.25
86,97,1188.5,D6,R,594.25
64,0,1188.5,E4,R,594.25
62,0,1188.5,D4,R,594.25
86,0,1188.5,D6,R,594.25
64,51,1188.5,E4,R,594.25
67,65,1188.625,G4,L,594.3125
86,97,1188.75,D6,R,594.375
86,0,1188.75,D6,R,594.375
64,0,1188.75,E4,R,594.375
86,0,1188.84375,D6,R,594.421875
62,58,1188.84375,D4,R,594.421875
86,97,1188.84375,D6,R,594.421875
58,55,1188.875,A#3,L,594.4375
86,97,1188.875,D6,R,594.4375
67,0,1188.875,G4,L,594.4375
62,58,1188.875,D4,R,594.4375
62,0,1188.875,D4,R,594.4375
86,0,1188.875,D6,R,594.4375
64,29,1188.9375,E4,L,594.46875
64,29,1189.0,E4,L,594.5
62,0,1189.0,D4,R,594.5
64,0,1189.0,E4,L,594.5
58,0,1189.0,A#3,L,594.5
67,53,1189.0,G4,L,594.5
86,0,1189.0,D6,R,594.5
86,97,1189.0,D6,R,594.5
86,0,1189.25,D6,R,594.625
67,0,1189.25,G4,L,594.625
58,62,1189.25,A#3,L,594.625
86,97,1189.25,D6,R,594.625
64,64,1189.25,E4,R,594.625
62,63,1189.25,D4,R,594.625
58,0,1189.5,A#3,L,594.75
67,64,1189.5,G4,L,594.75
64,0,1189.5,E4,L,594.75
64,29,1189.5,E4,L,594.75
58,53,1189.6875,A#3,L,594.84375
64,0,1189.6875,E4,L,594.84375
67,0,1189.75,G4,L,594.875
64,37,1189.75,E4,L,594.875
86,97,1189.75,D6,R,594.875
62,63,1189.75,D4,R,594.875
86,0,1189.75,D6,R,594.875
64,0,1189.75,E4,R,594.875
62,0,1189.75,D4,R,594.875
58,53,1189.75,A#3,L,594.875
58,0,1189.75,A#3,L,594.875
64,0,1190.0,E4,L,595.0
67,64,1190.0,G4,L,595.0
58,0,1190.0,A#3,L,595.0
86,97,1190.0,D6,R,595.0
86,0,1190.0,D6,R,595.0
62,0,1190.0,D4,R,595.0
86,97,1190.125,D6,R,595.0625
64,42,1190.125,E4,R,595.0625
62,61,1190.125,D4,R,595.0625
86,0,1190.125,D6,R,595.0625
67,0,1190.125,G4,L,595.0625
58,43,1190.125,A#3,L,595.0625
67,65,1190.375,G4,L,595.1875
58,0,1190.375,A#3,L,595.1875
86,97,1190.5,D6,R,595.25
86,0,1190.5,D6,R,595.25
64,0,1190.5,E4,R,595.25
62,0,1190.5,D4,R,595.25
67,0,1190.5,G4,L,595.25
64,49,1190.5625,E4,R,595.28125
86,97,1190.5625,D6,R,595.28125
62,58,1190.5625,D4,R,595.28125
86,0,1190.5625,D6,R,595.28125
58,51,1190.5625,A#3,L,595.28125
58,0,1190.75,A#3,L,595.375
86,0,1190.75,D6,R,595.375
64,0,1190.75,E4,R,595.375
62,0,1190.75,D4,R,595.375
86,97,1190.75,D6,R,595.375
67,57,1190.875,G4,L,595.4375
58,48,1191.0,A#3,L,595.5
62,58,1191.0,D4,L,595.5
67,0,1191.0,G4,L,595.5
86,0,1191.0,D6,R,595.5
64,36,1191.0,E4,R,595.5
67,59,1191.25,G4,R,595.625
64,0,1191.25,E4,R,595.625
64,54,1191.375,E4,R,595.6875
58,0,1191.375,A#3,L,595.6875
62,0,1191.375,D4,L,595.6875
58,41,1191.375,A#3,L,595.6875
62,56,1191.375,D4,L,595.6875
67,0,1191.375,G4,R,595.6875
58,0,1191.5,A#3,L,595.75
62,0,1191.5,D4,L,595.75
67,74,1191.5,G4,R,595.75
64,0,1191.5,E4,R,595.75
67,0,1191.75,G4,R,595.875
62,31,1191.75,D4,R,595.875
62,0,1192.0,D4,R,596.0
58,65,1192.0,A#3,L,596.0
82,101,1192.0,A#5,R,596.0
62,69,1192.0,D4,L,596.0
64,41,1192.125,E4,R,596.0625
67,65,1192.25,G4,R,596.125
64,0,1192.25,E4,R,596.125
62,0,1192.375,D4,L,596.1875
58,0,1192.375,A#3,L,596.1875
62,55,1192.4375,D4,R,596.21875
67,0,1192.4375,G4,R,596.21875
58,61,1192.4375,A#3,L,596.21875
67,76,1192.5,G4,L,596.25
58,0,1192.5,A#3,L,596.25
62,0,1192.5,D4,R,596.25
58,56,1192.75,A#3,L,596.375
62,62,1192.75,D4,R,596.375
67,0,1192.75,G4,L,596.375
67,74,1193.0,G4,L,596.5
62,0,1193.0,D4,R,596.5
58,0,1193.0,A#3,L,596.5
62,49,1193.15625,D4,R,596.578125
67,0,1193.1666666666667,G4,L,596.5833333333334
58,57,1193.1666666666667,A#3,L,596.5833333333334
62,0,1193.25,D4,R,596.625
67,75,1193.3333333333333,G4,L,596.6666666666666
58,0,1193.3333333333335,A#3,L,596.6666666666667
67,0,1193.5,G4,L,596.75
58,63,1193.5,A#3,L,596.75
62,59,1193.5,D4,R,596.75
82,0,1193.5,A#5,R,596.75
67,76,1193.75,G4,R,596.875
62,0,1193.875,D4,R,596.9375
62,58,1193.875,D4,R,596.9375
58,68,1193.9375,A#3,L,596.96875
67,0,1194.0,G4,R,597.0
58,0,1194.0,A#3,L,597.0
58,68,1194.0,A#3,L,597.0
62,0,1194.0,D4,R,597.0
58,0,1194.0,A#3,L,597.0
64,32,1194.0,E4,L,597.0
62,58,1194.0,D4,R,597.0
84,78,1194.0,C6,R,597.0
67,76,1194.25,G4,L,597.125
64,0,1194.25,E4,L,597.125
84,0,1194.25,C6,R,597.125
62,58,1194.25,D4,R,597.125
62,0,1194.25,D4,R,597.125
82,92,1194.25,A#5,R,597.125
58,59,1194.375,A#3,L,597.1875
81,84,1194.375,A5,R,597.1875
62,0,1194.375,D4,R,597.1875
64,54,1194.375,E4,L,597.1875
67,0,1194.375,G4,L,597.1875
62,64,1194.375,D4,L,597.1875
67,72,1194.5,G4,L,597.25
64,0,1194.5,E4,L,597.25
62,0,1194.5,D4,L,597.25
81,0,1194.5,A5,R,597.25
81,84,1194.5,A5,R,597.25
58,0,1194.5,A#3,L,597.25
58,73,1194.75,A#3,L,597.375
67,0,1194.75,G4,L,597.375
79,96,1195.0,G5,R,597.5
58,0,1195.0,A#3,L,597.5
82,0,1195.0,A#5,R,597.5
58,0,1195.0,A#3,L,597.5
81,0,1195.0,A5,R,597.5
67,72,1195.0833333333333,G4,L,597.5416666666666
67,0,1195.1666666666665,G4,L,597.5833333333333
58,67,1195.1666666666667,A#3,L,597.5833333333334
62,71,1195.25,D4,R,597.625
64,53,1195.25,E4,R,597.625
67,73,1195.3333333333333,G4,L,597.6666666666666
58,0,1195.3333333333335,A#3,L,597.6666666666667
62,0,1195.375,D4,R,597.6875
64,0,1195.375,E4,R,597.6875
62,59,1195.375,D4,R,597.6875
64,45,1195.375,E4,R,597.6875
62,66,1195.5,D4,R,597.75
58,70,1195.5,A#3,L,597.75
64,60,1195.5,E4,R,597.75
62,0,1195.5,D4,R,597.75
64,0,1195.5,E4,R,597.75
67,0,1195.5,G4,L,597.75
58,0,1195.75,A#3,L,597.875
67,80,1195.7916666666667,G4,L,597.8958333333334
67,80,1195.8333333333333,G4,L,597.9166666666666
67,0,1195.8333333333335,G4,L,597.9166666666667
58,83,1195.9583333333333,A#3,L,597.9791666666666
62,71,1195.9583333333333,D4,L,597.9791666666666
64,71,1195.9583333333333,E4,L,597.9791666666666
67,0,1195.9583333333333,G4,L,597.9791666666666
62,0,1196.0,D4,R,598.0
64,0,1196.0,E4,R,598.0
79,96,1196.0,G5,R,598.0
91,104,1196.0,G6,R,598.0
79,0,1196.0,G5,R,598.0
62,71,1196.0,D4,L,598.0
64,71,1196.0,E4,L,598.0
58,0,1196.0,A#3,L,598.0
62,0,1196.0,D4,L,598.0
58,83,1196.0,A#3,L,598.0
64,0,1196.0,E4,L,598.0
62,0,1196.1666666666667,D4,L,598.0833333333334
64,0,1196.1666666666667,E4,L,598.0833333333334
67,83,1196.1666666666667,G4,L,598.0833333333334
58,0,1196.1666666666667,A#3,L,598.0833333333334
58,85,1196.3333333333333,A#3,L,598.1666666666666
67,0,1196.3333333333335,G4,L,598.1666666666667
64,46,1196.375,E4,R,598.1875
91,0,1196.375,G6,R,598.1875
62,72,1196.375,D4,R,598.1875
64,0,1196.5,E4,R,598.25
64,46,1196.5,E4,R,598.25
62,0,1196.5,D4,R,598.25
58,0,1196.5,A#3,L,598.25
67,83,1196.5833333333333,G4,L,598.2916666666666
67,0,1196.6666666666665,G4,L,598.3333333333333
64,41,1196.6666666666667,E4,R,598.3333333333334
58,84,1196.6666666666667,A#3,L,598.3333333333334
62,78,1196.6666666666667,D4,L,598.3333333333334
64,0,1196.6666666666667,E4,R,598.3333333333334
67,75,1196.8333333333333,G4,R,598.4166666666666
64,0,1196.8333333333335,E4,R,598.4166666666667
58,0,1196.8333333333335,A#3,L,598.4166666666667
62,0,1196.8333333333335,D4,L,598.4166666666667
67,0,1197.0,G4,R,598.5
79,0,1197.0,G5,R,598.5
69,91,1197.4375,A4,L,598.71875
81,92,1197.4375,A5,R,598.71875
86,88,1197.4375,D6,R,598.71875
89,92,1197.4375,F6,R,598.71875
57,94,1197.4375,A3,L,598.71875
93,109,1197.4375,A6,R,598.71875
62,82,1197.4375,D4,L,598.71875
65,87,1197.4375,F4,L,598.71875
86,0,1197.5,D6,R,598.75
57,0,1197.5,A3,L,598.75
69,0,1197.5,A4,L,598.75
62,0,1197.5,D4,L,598.75
65,0,1197.5,F4,L,598.75
57,94,1197.5,A3,L,598.75
81,0,1197.5,A5,R,598.75
65,87,1197.5,F4,L,598.75
93,109,1197.5,A6,R,598.75
86,88,1197.5,D6,R,598.75
81,92,1197.5,A5,R,598.75
62,82,1197.5,D4,L,598.75
93,0,1197.5,A6,R,598.75
89,0,1197.5,F6,R,598.75
89,92,1197.5,F6,R,598.75
86,0,1197.75,D6,R,598.875
93,0,1197.75,A6,R,598.875
88,25,1197.75,E6,R,598.875
81,0,1197.75,A5,R,598.875
89,0,1197.75,F6,R,598.875
65,0,1198.0,F4,L,599.0
88,0,1198.0,E6,R,599.0
57,0,1198.0,A3,L,599.0
62,0,1198.0,D4,L,599.0
69,37,1203.5,A4,R,601.75
61,24,1203.5,C#4,R,601.75
73,48,1203.5,C#5,R,601.75
64,34,1203.5,E4,R,601.75
37,37,1203.625,C#2,L,601.8125
40,36,1203.625,E2,L,601.8125
45,39,1203.625,A2,L,601.8125
33,48,1203.625,A1,L,601.8125
73,0,1204.0,C#5,R,602.0
64,0,1204.0,E4,R,602.0
61,0,1204.0,C#4,R,602.0
69,0,1204.0,A4,R,602.0
33,0,1204.0,A1,L,602.0
37,0,1204.0,C#2,L,602.0
45,0,1204.0,A2,L,602.0
40,0,1204.0,E2,L,602.0
74,47,1209.5,D5,R,604.75
69,31,1209.75,A4,L,604.875
62,35,1209.75,D4,L,604.875
65,27,1210.0,F4,R,605.0
74,47,1210.0,D5,R,605.0
62,0,1210.0,D4,L,605.0
69,0,1210.0,A4,L,605.0
62,35,1210.0,D4,L,605.0
69,31,1210.0,A4,L,605.0
50,46,1210.0,D3,L,605.0
74,0,1210.0,D5,R,605.0
65,0,1211.0,F4,R,605.5
74,0,1211.0,D5,R,605.5
62,0,1211.0,D4,L,605.5
69,0,1211.0,A4,L,605.5
74,60,1212.0,D5,R,606.0
50,0,1212.0,D3,L,606.0
50,46,1212.0,D3,L,606.0
45,29,1215.0,A2,R,607.5
45,0,1215.75,A2,R,607.875
45,29,1215.75,A2,R,607.875
45,0,1215.875,A2,R,607.9375
76,39,1215.875,E5,R,607.9375
45,29,1215.875,A2,R,607.9375
76,0,1216.0,E5,R,608.0
45,0,1216.0,A2,R,608.0
45,29,1216.0,A2,R,608.0
50,0,1216.0,D3,L,608.0
74,0,1216.0,D5,R,608.0
73,47,1216.125,C#5,L,608.0625
74,12,1216.125,D5,R,608.0625
45,29,1216.125,A2,R,608.0625
45,0,1216.125,A2,R,608.0625
74,55,1216.5,D5,L,608.25
73,0,1216.5,C#5,L,608.25
74,0,1216.5,D5,R,608.25
45,29,1216.5,A2,R,608.25
45,0,1216.5,A2,R,608.25
74,0,1217.0,D5,L,608.5
76,63,1217.0,E5,L,608.5
77,65,1217.75,F5,L,608.875
45,29,1218.0,A2,R,609.0
45,0,1218.0,A2,R,609.0
77,0,1218.0,F5,L,609.0
76,0,1218.0,E5,L,609.0
79,59,1218.375,G5,L,609.1875
79,0,1218.5,G5,L,609.25
79,59,1218.5,G5,L,609.25
79,0,1218.5416666666667,G5,L,609.2708333333334
77,60,1218.5416666666667,F5,L,609.2708333333334
77,0,1218.6666666666667,F5,L,609.3333333333334
76,58,1218.6666666666667,E5,L,609.3333333333334
76,0,1218.75,E5,L,609.375
76,58,1218.75,E5,L,609.375
76,0,1219.0,E5,L,609.5
77,69,1219.0,F5,L,609.5
79,72,1219.5,G5,L,609.75
77,0,1219.5,F5,L,609.75
79,0,1220.0,G5,L,610.0
79,72,1220.0,G5,L,610.0
45,0,1220.0,A2,R,610.0
79,0,1220.5,G5,L,610.25
81,66,1220.5,A5,L,610.25
53,37,1220.5,F3,R,610.25
81,0,1221.0,A5,L,610.5
50,36,1221.0,D3,L,610.5
50,0,1222.0,D3,L,611.0
53,0,1222.0,F3,R,611.0
62,19,1222.1666666666667,D4,L,611.0833333333334
57,33,1222.1666666666667,A3,L,611.0833333333334
65,31,1222.1666666666667,F4,R,611.0833333333334
57,33,1222.3333333333333,A3,L,611.1666666666666
53,24,1222.3333333333333,F3,R,611.1666666666666
65,31,1222.3333333333333,F4,R,611.1666666666666
50,34,1222.3333333333333,D3,L,611.1666666666666
62,19,1222.3333333333333,D4,L,611.1666666666666
65,0,1222.3333333333335,F4,R,611.1666666666667
62,0,1222.3333333333335,D4,L,611.1666666666667
57,0,1222.3333333333335,A3,L,611.1666666666667
53,0,1222.5,F3,R,611.25
65,0,1222.5,F4,R,611.25
50,0,1222.5,D3,L,611.25
57,0,1222.5,A3,L,611.25
62,0,1222.5,D4,L,611.25
53,29,1223.5,F3,L,611.75
65,26,1223.5,F4,R,611.75
50,39,1223.5,D3,L,611.75
62,20,1223.5,D4,L,611.75
57,24,1223.75,A3,R,611.875
57,24,1224.0,A3,R,612.0
57,0,1224.0,A3,R,612.0
53,0,1224.0,F3,L,612.0
65,0,1224.0,F4,R,612.0
62,0,1224.0,D4,L,612.0
50,0,1224.0,D3,L,612.0
50,35,1225.0,D3,L,612.5
65,28,1225.0,F4,R,612.5
57,0,1225.0,A3,R,612.5
53,26,1225.0,F3,L,612.5
57,27,1225.0,A3,L,612.5
62,27,1225.0,D4,L,612.5
53,0,1226.0,F3,L,613.0
57,0,1226.0,A3,L,613.0
62,0,1226.0,D4,L,613.0
50,0,1226.0,D3,L,613.0
65,0,1226.0,F4,R,613.0
65,20,1226.5,F4,R,613.25
57,29,1226.5,A3,L,613.25
53,30,1226.5,F3,L,613.25
50,37,1226.5,D3,L,613.25
62,26,1226.5,D4,L,613.25
53,0,1227.0,F3,L,613.5
57,0,1227.0,A3,L,613.5
65,0,1227.0,F4,R,613.5
62,0,1227.0,D4,L,613.5
50,0,1227.0,D3,L,613.5
50,27,1227.875,D3,L,613.9375
53,20,1227.875,F3,L,613.9375
57,17,1227.875,A3,L,613.9375
62,14,1227.875,D4,L,613.9375
53,0,1228.0,F3,L,614.0
62,0,1228.0,D4,L,614.0
50,27,1228.0,D3,L,614.0
53,20,1228.0,F3,L,614.0
57,17,1228.0,A3,L,614.0
62,14,1228.0,D4,L,614.0
57,0,1228.0,A3,L,614.0
65,11,1228.0,F4,R,614.0
50,0,1228.0,D3,L,614.0
62,0,1229.0,D4,L,614.5
65,0,1229.0,F4,R,614.5
57,0,1229.0,A3,L,614.5
50,0,1229.0,D3,L,614.5
53,0,1229.0,F3,L,614.5
65,20,1229.25,F4,R,614.625
62,17,1229.25,D4,L,614.625
57,22,1229.25,A3,L,614.625
53,20,1229.25,F3,L,614.625
50,23,1229.25,D3,L,614.625
57,0,1230.0,A3,L,615.0
53,0,1230.0,F3,L,615.0
50,0,1230.0,D3,L,615.0
62,0,1230.0,D4,L,615.0
65,0,1230.0,F4,R,615.0
65,15,1230.75,F4,R,615.375
62,18,1230.75,D4,L,615.375
53,23,1230.75,F3,L,615.375
50,27,1230.75,D3,L,615.375
57,25,1231.0,A3,R,615.5
62,0,1231.0,D4,L,615.5
50,0,1231.0,D3,L,615.5
53,0,1231.0,F3,L,615.5
50,27,1231.0,D3,L,615.5
62,18,1231.0,D4,L,615.5
65,15,1231.0,F4,R,615.5
65,0,1231.0,F4,R,615.5
50,0,1232.0,D3,L,616.0
62,0,1232.0,D4,L,616.0
53,34,1232.0,F3,R,616.0
65,0,1232.0,F4,R,616.0
57,0,1232.0,A3,R,616.0
74,54,1235.0,D5,R,617.5
53,34,1236.0,F3,R,618.0
74,54,1236.0,D5,R,618.0
53,0,1236.0,F3,R,618.0
74,0,1236.0,D5,R,618.0
50,39,1238.0,D3,L,619.0
74,0,1239.0,D5,R,619.5
53,0,1239.0,F3,R,619.5
76,47,1239.375,E5,R,619.6875
76,0,1239.5,E5,R,619.75
76,47,1239.5,E5,R,619.75
74,49,1239.5416666666667,D5,R,619.7708333333334
76,0,1239.5416666666667,E5,R,619.7708333333334
73,56,1239.6666666666667,C#5,R,619.8333333333334
74,0,1239.6666666666667,D5,R,619.8333333333334
73,56,1239.75,C#5,R,619.875
73,0,1239.75,C#5,R,619.875
74,58,1240.0,D5,R,620.0
50,0,1240.0,D3,L,620.0
50,39,1240.0,D3,L,620.0
73,0,1240.0,C#5,R,620.0
76,58,1240.5,E5,R,620.25
74,0,1241.0,D5,R,620.5
76,0,1241.5,E5,R,620.75
77,58,1241.5,F5,R,620.75
77,0,1242.0,F5,R,621.0
79,49,1242.0,G5,R,621.0
79,0,1242.25,G5,R,621.125
77,50,1242.25,F5,R,621.125
77,0,1242.5,F5,R,621.25
76,54,1242.5,E5,R,621.25
76,0,1243.0,E5,R,621.5
77,70,1243.0,F5,R,621.5
79,74,1243.5,G5,R,621.75
77,0,1243.5,F5,R,621.75
80,62,1244.0,G#5,R,622.0
79,0,1244.0,G5,R,622.0
50,0,1244.0,D3,L,622.0
50,40,1244.5,D3,L,622.25
53,22,1244.5,F3,L,622.25
59,27,1244.5,B3,R,622.25
56,32,1244.5,G#3,L,622.25
80,0,1245.0,G#5,R,622.5
65,34,1246.0,F4,L,623.0
50,0,1246.0,D3,L,623.0
68,41,1246.0,G#4,R,623.0
56,0,1246.0,G#3,L,623.0
59,0,1246.0,B3,R,623.0
53,0,1246.0,F3,L,623.0
56,29,1246.25,G#3,R,623.125
50,26,1246.25,D3,L,623.125
53,23,1246.25,F3,R,623.125
59,9,1246.25,B3,R,623.125
56,0,1247.0,G#3,R,623.5
50,0,1247.0,D3,L,623.5
53,0,1247.0,F3,R,623.5
68,0,1247.0,G#4,R,623.5
59,0,1247.0,B3,R,623.5
65,0,1247.0,F4,L,623.5
50,36,1247.5,D3,L,623.75
56,27,1247.5,G#3,R,623.75
68,46,1247.5,G#4,R,623.75
59,19,1247.5,B3,R,623.75
65,36,1247.5,F4,R,623.75
53,25,1247.75,F3,L,623.875
65,0,1248.0,F4,R,624.0
56,0,1248.0,G#3,R,624.0
68,0,1248.0,G#4,R,624.0
50,0,1248.0,D3,L,624.0
53,0,1248.0,F3,L,624.0
59,0,1248.0,B3,R,624.0
56,27,1249.0,G#3,R,624.5
59,28,1249.0,B3,R,624.5
50,31,1249.0,D3,L,624.5
65,33,1249.0,F4,R,624.5
68,41,1249.0,G#4,R,624.5
53,27,1249.25,F3,L,624.625
53,0,1250.0,F3,L,625.0
59,0,1250.0,B3,R,625.0
68,0,1250.0,G#4,R,625.0
65,0,1250.0,F4,R,625.0
56,0,1250.0,G#3,R,625.0
50,0,1250.0,D3,L,625.0
68,39,1250.5,G#4,R,625.25
65,30,1250.5,F4,R,625.25
53,23,1250.5,F3,L,625.25
56,23,1250.5,G#3,L,625.25
59,22,1250.5,B3,R,625.25
50,32,1250.5,D3,L,625.25
68,0,1251.0,G#4,R,625.5
65,0,1251.0,F4,R,625.5
53,0,1252.0,F3,L,626.0
59,0,1252.0,B3,R,626.0
65,24,1252.0,F4,R,626.0
68,30,1252.0,G#4,R,626.0
50,0,1252.0,D3,L,626.0
59,15,1252.0,B3,R,626.0
53,24,1252.0,F3,L,626.0
50,26,1252.0,D3,L,626.0
56,0,1252.0,G#3,L,626.0
56,23,1252.0,G#3,L,626.0
65,0,1253.0,F4,R,626.5
53,0,1253.0,F3,L,626.5
56,0,1253.0,G#3,L,626.5
68,0,1253.0,G#4,R,626.5
50,0,1253.0,D3,L,626.5
50,19,1253.0,D3,L,626.5
68,28,1253.0,G#4,R,626.5
59,0,1253.0,B3,R,626.5
65,26,1253.0,F4,R,626.5
56,21,1253.5,G#3,R,626.75
59,18,1253.5,B3,R,626.75
53,23,1253.5,F3,L,626.75
50,0,1254.0,D3,L,627.0
59,0,1254.0,B3,R,627.0
53,0,1254.0,F3,L,627.0
65,0,1254.0,F4,R,627.0
56,0,1254.0,G#3,R,627.0
68,0,1254.0,G#4,R,627.0
53,18,1255.0,F3,L,627.5
65,28,1255.0,F4,R,627.5
50,29,1255.0,D3,L,627.5
59,27,1255.0,B3,R,627.5
56,14,1255.0,G#3,L,627.5
68,29,1255.0,G#4,R,627.5
55,41,1256.0,G3,R,628.0
50,0,1256.0,D3,L,628.0
68,0,1256.0,G#4,R,628.0
65,0,1256.0,F4,R,628.0
59,0,1256.0,B3,R,628.0
56,0,1256.0,G#3,L,628.0
53,0,1256.0,F3,L,628.0
76,53,1259.0,E5,R,629.5
55,0,1260.0,G3,R,630.0
55,41,1260.0,G3,R,630.0
76,0,1260.0,E5,R,630.0
76,53,1260.0,E5,R,630.0
48,33,1262.0,C3,L,631.0
76,0,1263.0,E5,R,631.5
55,0,1263.0,G3,R,631.5
77,49,1263.25,F5,L,631.625
76,53,1263.5833333333333,E5,R,631.7916666666666
76,0,1263.6666666666665,E5,R,631.8333333333333
74,60,1263.6666666666667,D5,R,631.8333333333334
76,59,1263.8333333333333,E5,R,631.9166666666666
74,0,1263.8333333333335,D5,R,631.9166666666667
48,33,1264.0,C3,L,632.0
77,0,1264.0,F5,L,632.0
76,59,1264.0,E5,R,632.0
76,0,1264.0,E5,R,632.0
48,0,1264.0,C3,L,632.0
77,62,1264.5,F5,R,632.25
76,0,1264.5,E5,R,632.25
77,62,1265.0,F5,R,632.5
77,0,1265.0,F5,R,632.5
79,62,1265.25,G5,R,632.625
77,0,1265.25,F5,R,632.625
79,0,1266.0,G5,R,633.0
81,57,1266.0,A5,R,633.0
81,0,1266.2,A5,R,633.1
79,59,1266.2,G5,R,633.1
78,67,1266.4,F#5,R,633.2
79,0,1266.4,G5,R,633.2
79,73,1266.6,G5,R,633.3
78,0,1266.6000000000001,F#5,R,633.3000000000001
79,73,1267.0,G5,R,633.5
81,76,1267.0,A5,R,633.5
79,0,1267.0,G5,R,633.5
48,0,1268.0,C3,L,634.0
82,62,1268.0,A#5,R,634.0
79,0,1268.0,G5,R,634.0
81,0,1268.0,A5,R,634.0
81,76,1268.0,A5,R,634.0
58,24,1268.5,A#3,R,634.25
55,26,1268.5,G3,L,634.25
52,31,1268.5,E3,L,634.25
81,0,1268.5,A5,R,634.25
82,0,1269.0,A#5,R,634.5
60,15,1269.0,C4,R,634.5
58,0,1270.0,A#3,R,635.0
67,38,1270.0,G4,R,635.0
70,39,1270.0,A#4,R,635.0
60,0,1270.0,C4,R,635.0
55,0,1270.0,G3,L,635.0
52,32,1270.0,E3,L,635.0
55,29,1270.0,G3,L,635.0
60,19,1270.0,C4,L,635.0
52,0,1270.0,E3,L,635.0
58,31,1270.25,A#3,R,635.125
70,0,1271.0,A#4,R,635.5
67,0,1271.0,G4,R,635.5
52,0,1271.0,E3,L,635.5
55,0,1271.0,G3,L,635.5
58,0,1271.0,A#3,R,635.5
60,0,1271.0,C4,L,635.5
70,35,1271.5,A#4,R,635.75
67,37,1271.5,G4,R,635.75
60,21,1271.5,C4,R,635.75
55,20,1271.5,G3,L,635.75
58,26,1271.5,A#3,L,635.75
52,21,1271.5,E3,L,635.75
70,0,1272.0,A#4,R,636.0
67,0,1272.0,G4,R,636.0
58,26,1272.0,A#3,L,636.0
55,20,1272.0,G3,L,636.0
60,21,1272.0,C4,R,636.0
58,0,1272.0,A#3,L,636.0
55,0,1272.0,G3,L,636.0
60,0,1272.0,C4,R,636.0
52,0,1272.0,E3,L,636.0
52,21,1272.0,E3,L,636.0
60,0,1273.0,C4,R,636.5
55,0,1273.0,G3,L,636.5
58,0,1273.0,A#3,L,636.5
52,0,1273.0,E3,L,636.5
52,29,1273.25,E3,L,636.625
58,30,1273.25,A#3,L,636.625
70,37,1273.25,A#4,R,636.625
60,27,1273.25,C4,R,636.625
67,38,1273.25,G4,R,636.625
55,22,1273.25,G3,L,636.625
67,0,1274.0,G4,R,637.0
57,31,1274.0,A3,L,637.0
53,34,1274.0,F3,L,637.0
58,0,1274.0,A#3,L,637.0
55,0,1274.0,G3,L,637.0
69,36,1274.0,A4,R,637.0
60,0,1274.0,C4,R,637.0
52,0,1274.0,E3,L,637.0
70,0,1274.0,A#4,R,637.0
60,27,1275.0,C4,L,637.5
65,27,1275.0,F4,R,637.5
69,0,1276.0,A4,R,638.0
65,0,1276.0,F4,R,638.0
60,0,1276.0,C4,L,638.0
53,0,1276.0,F3,L,638.0
69,27,1276.0,A4,R,638.0
57,0,1276.0,A3,L,638.0
60,20,1276.5,C4,L,638.25
57,25,1276.5,A3,L,638.25
65,24,1276.5,F4,R,638.25
53,25,1276.5,F3,L,638.25
53,0,1277.0,F3,L,638.5
65,0,1277.0,F4,R,638.5
57,0,1277.0,A3,L,638.5
60,0,1277.0,C4,L,638.5
69,0,1277.0,A4,R,638.5
69,29,1277.5,A4,R,638.75
53,29,1278.0,F3,L,639.0
57,31,1278.0,A3,L,639.0
60,20,1278.0,C4,L,639.0
65,29,1278.0,F4,R,639.0
69,0,1278.0,A4,R,639.0
69,29,1278.0,A4,R,639.0
69,29,1279.0,A4,R,639.5
53,0,1279.0,F3,L,639.5
60,0,1279.0,C4,L,639.5
57,0,1279.0,A3,L,639.5
69,0,1279.0,A4,R,639.5
65,0,1279.0,F4,R,639.5
53,27,1279.5,F3,L,639.75
65,21,1279.5,F4,R,639.75
60,25,1279.5,C4,L,639.75
57,29,1279.5,A3,L,639.75
53,0,1280.0,F3,L,640.0
69,0,1280.0,A4,R,640.0
57,0,1280.0,A3,L,640.0
60,0,1280.0,C4,L,640.0
65,0,1280.0,F4,R,640.0
51,41,1282.0,D#3,R,641.0
51,0,1284.0,D#3,R,642.0
75,63,1284.0,D#5,R,642.0
51,41,1284.0,D#3,R,642.0
46,45,1287.0,A#2,L,643.5
46,45,1288.0,A#2,L,644.0
75,0,1288.0,D#5,R,644.0
51,0,1288.0,D#3,R,644.0
46,0,1288.0,A#2,L,644.0
77,49,1288.1666666666667,F5,R,644.0833333333334
75,56,1288.3333333333333,D#5,R,644.1666666666666
77,0,1288.3333333333335,F5,R,644.1666666666667
75,0,1288.5,D#5,R,644.25
74,54,1288.5833333333333,D5,R,644.2916666666666
74,0,1288.8333333333333,D5,R,644.4166666666666
75,65,1288.8333333333333,D#5,R,644.4166666666666
75,0,1289.0,D#5,R,644.5
75,65,1289.0,D#5,R,644.5
77,64,1289.5,F5,R,644.75
75,0,1290.0,D#5,R,645.0
79,71,1290.0,G5,R,645.0
77,64,1290.0,F5,R,645.0
77,0,1290.0,F5,R,645.0
77,0,1291.0,F5,R,645.5
79,0,1291.0,G5,R,645.5
81,62,1291.125,A5,R,645.5625
81,0,1291.5,A5,R,645.75
82,54,1292.0,A#5,R,646.0
46,0,1292.0,A#2,L,646.0
46,45,1292.0,A#2,L,646.0
46,0,1293.0,A#2,L,646.5
74,51,1293.0,D5,R,646.5
82,0,1293.0,A#5,R,646.5
49,35,1294.0,C#3,L,647.0
74,0,1294.0,D5,R,647.0
45,37,1294.0,A2,L,647.0
73,51,1294.0,C#5,R,647.0
52,30,1294.5,E3,L,647.25
73,0,1294.5,C#5,R,647.25
55,31,1294.5,G3,R,647.25
49,0,1295.0,C#3,L,647.5
55,0,1295.0,G3,R,647.5
45,0,1295.0,A2,L,647.5
52,0,1295.0,E3,L,647.5
57,32,1296.0,A3,L,648.0
49,34,1296.0,C#3,L,648.0
45,30,1296.0,A2,L,648.0
61,21,1296.0,C#4,R,648.0
67,30,1296.0,G4,R,648.0
64,32,1296.0,E4,R,648.0
55,28,1296.25,G3,R,648.125
52,30,1296.25,E3,R,648.125
61,0,1297.0,C#4,R,648.5
67,0,1297.0,G4,R,648.5
57,0,1297.0,A3,L,648.5
52,0,1297.0,E3,R,648.5
55,0,1297.0,G3,R,648.5
45,0,1297.0,A2,L,648.5
49,0,1297.0,C#3,L,648.5
64,0,1297.0,E4,R,648.5
45,27,1297.5,A2,L,648.75
52,22,1297.5,E3,L,648.75
55,26,1297.5,G3,L,648.75
49,24,1297.5,C#3,L,648.75
57,22,1297.5,A3,R,648.75
67,33,1297.5,G4,R,648.75
64,26,1297.5,E4,R,648.75
61,16,1297.5,C#4,R,648.75
55,0,1298.0,G3,L,649.0
67,0,1298.0,G4,R,649.0
64,0,1298.0,E4,R,649.0
61,0,1298.0,C#4,R,649.0
57,0,1298.0,A3,R,649.0
45,0,1298.0,A2,L,649.0
52,0,1298.0,E3,L,649.0
49,0,1298.0,C#3,L,649.0
61,21,1299.25,C#4,R,649.625
45,28,1299.25,A2,L,649.625
55,21,1299.25,G3,L,649.625
67,33,1299.25,G4,R,649.625
52,28,1299.25,E3,L,649.625
57,27,1299.25,A3,R,649.625
64,24,1299.25,E4,R,649.625
49,24,1299.25,C#3,L,649.625
49,0,1300.0,C#3,L,650.0
52,0,1300.0,E3,L,650.0
67,0,1300.0,G4,R,650.0
61,0,1300.0,C#4,R,650.0
57,0,1300.0,A3,R,650.0
45,0,1300.0,A2,L,650.0
55,0,1300.0,G3,L,650.0
64,0,1300.0,E4,R,650.0
57,24,1301.0,A3,L,650.5
62,25,1301.0,D4,L,650.5
53,33,1301.0,F3,L,650.5
50,37,1301.0,D3,L,650.5
65,29,1301.25,F4,R,650.625
53,0,1302.0,F3,L,651.0
62,0,1302.0,D4,L,651.0
50,0,1302.0,D3,L,651.0
57,0,1302.0,A3,L,651.0
65,0,1302.0,F4,R,651.0
53,41,1303.0,F3,R,651.5
45,39,1303.0,A2,L,651.5
41,44,1303.0,F2,L,651.5
53,0,1304.0,F3,R,652.0
41,0,1304.0,F2,L,652.0
45,0,1304.0,A2,L,652.0
53,60,1305.0,F3,R,652.5
41,57,1305.0,F2,L,652.5
45,58,1305.0,A2,L,652.5
45,0,1306.0,A2,L,653.0
53,0,1306.0,F3,R,653.0
41,0,1306.0,F2,L,653.0
41,63,1307.0,F2,L,653.5
53,64,1307.0,F3,R,653.5
45,63,1307.0,A2,L,653.5
45,0,1308.0,A2,L,654.0
41,0,1308.0,F2,L,654.0
53,0,1308.0,F3,R,654.0
57,37,1309.0,A3,L,654.5
69,49,1309.0,A4,R,654.5
53,33,1310.0,F3,R,655.0
45,34,1310.0,A2,L,655.0
41,35,1310.0,F2,L,655.0
70,65,1312.0,A#4,R,656.0
69,0,1312.0,A4,R,656.0
53,33,1312.0,F3,R,656.0
45,34,1312.0,A2,L,656.0
41,35,1312.0,F2,L,656.0
45,0,1312.0,A2,L,656.0
41,0,1312.0,F2,L,656.0
57,0,1312.0,A3,L,656.0
53,0,1312.0,F3,R,656.0
58,50,1313.0,A#3,R,656.5
53,0,1313.0,F3,R,656.5
53,33,1313.0,F3,R,656.5
70,0,1314.0,A#4,R,657.0
45,34,1314.0,A2,L,657.0
45,0,1314.0,A2,L,657.0
41,35,1314.0,F2,L,657.0
41,0,1314.0,F2,L,657.0
53,0,1314.0,F3,R,657.0
58,0,1314.0,A#3,R,657.0
69,64,1314.25,A4,R,657.125
57,50,1314.25,A3,L,657.125
41,35,1314.25,F2,L,657.125
45,0,1314.25,A2,L,657.125
41,0,1314.25,F2,L,657.125
45,34,1314.25,A2,L,657.125
57,0,1315.0,A3,L,657.5
45,0,1315.0,A2,L,657.5
41,0,1315.0,F2,L,657.5
69,0,1315.0,A4,R,657.5
67,65,1316.0,G4,R,658.0
45,44,1316.0,A2,L,658.0
52,43,1316.0,E3,L,658.0
40,43,1316.0,E2,L,658.0
55,50,1317.0,G3,R,658.5
55,0,1318.0,G3,R,659.0
69,64,1318.0,A4,R,659.0
67,0,1318.0,G4,R,659.0
57,49,1319.0,A3,R,659.5
69,0,1320.0,A4,R,660.0
40,0,1320.0,E2,L,660.0
45,0,1320.0,A2,L,660.0
57,0,1320.0,A3,R,660.0
52,0,1320.0,E3,L,660.0
67,73,1320.5,G4,R,660.25
55,57,1320.5,G3,L,660.25
67,0,1321.0,G4,R,660.5
50,50,1322.0,D3,L,661.0
38,52,1322.0,D2,L,661.0
55,0,1322.0,G3,L,661.0
65,70,1322.0,F4,R,661.0
45,54,1322.0,A2,L,661.0
53,52,1323.0,F3,R,661.5
65,0,1324.0,F4,R,662.0
38,52,1324.0,D2,L,662.0
53,0,1324.0,F3,R,662.0
50,50,1324.0,D3,L,662.0
45,54,1324.0,A2,L,662.0
38,0,1324.0,D2,L,662.0
50,0,1324.0,D3,L,662.0
45,0,1324.0,A2,L,662.0
67,71,1324.6666666666667,G4,R,662.3333333333334
67,71,1325.3333333333333,G4,R,662.6666666666666
64,56,1325.3333333333333,E4,R,662.6666666666666
67,0,1325.3333333333335,G4,R,662.6666666666667
64,0,1326.6666666666665,E4,R,663.3333333333333
67,0,1326.6666666666665,G4,R,663.3333333333333
67,71,1326.6666666666667,G4,R,663.3333333333334
65,72,1326.6666666666667,F4,R,663.3333333333334
62,55,1327.0,D4,L,663.5
50,0,1327.0,D3,L,663.5
45,0,1327.0,A2,L,663.5
62,0,1328.0,D4,L,664.0
38,0,1328.0,D2,L,664.0
61,52,1328.0,C#4,L,664.0
65,0,1328.0,F4,R,664.0
67,0,1328.0,G4,R,664.0
64,74,1328.0,E4,R,664.0
45,50,1329.0,A2,R,664.5
33,54,1329.0,A1,L,664.5
43,52,1331.0,G2,R,665.5
31,54,1331.0,G1,L,665.5
33,0,1331.0,A1,L,665.5
45,0,1331.0,A2,R,665.5
31,54,1332.0,G1,L,666.0
61,52,1332.0,C#4,L,666.0
31,0,1332.0,G1,L,666.0
64,0,1332.0,E4,R,666.0
64,74,1332.0,E4,R,666.0
43,52,1332.0,G2,R,666.0
43,0,1332.0,G2,R,666.0
61,0,1332.0,C#4,L,666.0
64,0,1333.0,E4,R,666.5
43,0,1333.0,G2,R,666.5
65,74,1333.0,F4,R,666.5
61,0,1333.0,C#4,L,666.5
31,0,1333.0,G1,L,666.5
62,57,1333.0,D4,L,666.5
65,0,1334.0,F4,R,667.0
67,85,1334.0,G4,R,667.0
62,0,1334.0,D4,L,667.0
64,71,1334.0,E4,L,667.0
67,0,1334.3333333333333,G4,R,667.1666666666666
69,82,1334.3333333333333,A4,R,667.1666666666666
65,65,1334.3333333333333,F4,L,667.1666666666666
64,0,1334.3333333333333,E4,L,667.1666666666666
65,0,1334.6666666666665,F4,L,667.3333333333333
69,0,1334.6666666666665,A4,R,667.3333333333333
29,70,1334.6666666666667,F1,L,667.3333333333334
69,82,1334.6666666666667,A4,R,667.3333333333334
41,70,1334.6666666666667,F2,R,667.3333333333334
65,65,1334.6666666666667,F4,L,667.3333333333334
65,0,1336.0,F4,L,668.0
29,0,1336.0,F1,L,668.0
69,0,1336.0,A4,R,668.0
41,0,1336.0,F2,R,668.0
53,72,1337.5,F3,L,668.75
65,73,1337.5,F4,R,668.75
53,0,1338.0,F3,L,669.0
53,72,1338.0,F3,L,669.0
65,0,1338.0,F4,R,669.0
41,70,1339.0,F2,L,669.5
53,0,1339.0,F3,L,669.5
81,82,1339.0,A5,R,669.5
69,68,1339.0,A4,R,669.5
53,67,1339.0,F3,L,669.5
53,0,1340.0,F3,L,670.0
41,0,1340.0,F2,L,670.0
69,0,1340.0,A4,R,670.0
81,0,1340.0,A5,R,670.0
71,67,1340.5,B4,R,670.25
83,83,1340.5,B5,R,670.25
52,74,1340.5,E3,L,670.25
40,73,1340.5,E2,L,670.25
71,0,1341.0,B4,R,670.5
52,0,1341.0,E3,L,670.5
83,0,1341.0,B5,R,670.5
40,0,1341.0,E2,L,670.5
73,82,1342.0,C#5,R,671.0
85,94,1342.0,C#6,R,671.0
45,74,1342.0,A2,L,671.0
33,82,1342.0,A1,L,671.0
73,0,1343.0,C#5,R,671.5
85,0,1343.0,C#6,R,671.5
45,0,1343.0,A2,L,671.5
33,0,1343.0,A1,L,671.5
38,66,1343.5,D2,L,671.75
50,69,1343.5,D3,L,671.75
76,68,1343.5,E5,R,671.75
88,87,1343.5,E6,R,671.75
76,68,1344.0,E5,R,672.0
88,0,1344.0,E6,R,672.0
76,0,1344.0,E5,R,672.0
88,87,1344.0,E6,R,672.0
38,0,1344.0,D2,L,672.0
50,0,1344.0,D3,L,672.0
38,66,1344.0,D2,L,672.0
76,0,1345.0,E5,R,672.5
86,79,1345.0,D6,R,672.5
32,52,1345.0,G#1,L,672.5
74,64,1345.0,D5,R,672.5
88,0,1345.0,E6,R,672.5
38,0,1345.0,D2,L,672.5
44,51,1345.0,G#2,L,672.5
86,0,1346.0,D6,R,673.0
74,0,1346.0,D5,R,673.0
44,0,1346.0,G#2,L,673.0
32,0,1346.0,G#1,L,673.0
45,33,1347.0,A2,L,673.5
85,48,1347.0,C#6,R,673.5
73,37,1347.0,C#5,R,673.5
33,46,1347.5,A1,L,673.75
33,0,1348.0,A1,L,674.0
45,0,1348.0,A2,L,674.0
33,46,1348.0,A1,L,674.0
73,0,1348.0,C#5,R,674.0
45,33,1348.0,A2,L,674.0
85,0,1348.0,C#6,R,674.0
73,37,1348.0,C#5,R,674.0
85,48,1348.0,C#6,R,674.0
73,0,1349.0,C#5,R,674.5
85,0,1349.0,C#6,R,674.5
45,33,1352.0,A2,L,676.0
33,46,1352.0,A1,L,676.0
45,0,1352.0,A2,L,676.0
33,0,1352.0,A1,L,676.0
33,0,1353.0,A1,L,676.5
45,0,1353.0,A2,L,676.5
45,33,1354.0,A2,R,677.0
38,41,1354.0,D2,L,677.0
45,33,1356.0,A2,R,678.0
45,0,1356.0,A2,R,678.0
38,41,1356.0,D2,L,678.0
38,0,1356.0,D2,L,678.0
38,0,1360.0,D2,L,680.0
45,0,1360.0,A2,R,680.0
45,33,1360.0,A2,R,680.0
38,41,1360.0,D2,L,680.0
45,0,1361.0,A2,R,680.5
76,71,1361.0,E5,R,680.5
38,0,1362.0,D2,L,681.0
33,48,1362.0,A1,L,681.0
45,40,1362.0,A2,R,681.0
77,62,1363.75,F5,L,681.875
33,48,1364.0,A1,L,682.0
45,0,1364.0,A2,R,682.0
45,40,1364.0,A2,R,682.0
33,0,1364.0,A1,L,682.0
76,0,1364.0,E5,R,682.0
77,0,1364.0,F5,L,682.0
76,66,1364.0,E5,L,682.0
76,0,1364.25,E5,L,682.125
74,69,1364.25,D5,L,682.125
74,0,1364.5,D5,L,682.25
76,78,1364.5,E5,L,682.25
76,0,1365.0,E5,L,682.5
81,82,1365.0,A5,L,682.5
81,0,1367.0,A5,L,683.5
81,82,1367.0,A5,L,683.5
81,0,1367.25,A5,L,683.625
81,82,1367.25,A5,L,683.625
79,80,1367.25,G5,L,683.625
45,0,1368.0,A2,R,684.0
45,40,1368.0,A2,R,684.0
81,0,1368.0,A5,L,684.0
33,0,1368.0,A1,L,684.0
79,0,1368.0,G5,L,684.0
79,72,1368.0,G5,L,684.0
38,51,1369.0,D2,L,684.5
45,40,1370.0,A2,R,685.0
45,0,1370.0,A2,R,685.0
77,85,1370.0,F5,R,685.0
79,0,1370.0,G5,L,685.0
38,0,1371.0,D2,L,685.5
45,0,1371.0,A2,R,685.5
76,84,1371.0,E5,R,685.5
77,0,1371.0,F5,R,685.5
33,67,1371.0,A1,L,685.5
45,57,1371.5,A2,R,685.75
45,0,1372.0,A2,R,686.0
76,84,1372.0,E5,R,686.0
45,57,1372.0,A2,R,686.0
76,0,1372.0,E5,R,686.0
33,67,1372.0,A1,L,686.0
33,0,1372.0,A1,L,686.0
79,91,1372.5,G5,L,686.25
76,0,1373.0,E5,R,686.5
33,0,1374.0,A1,L,687.0
34,90,1374.0,A#1,L,687.0
46,101,1374.0,A#2,L,687.0
45,0,1374.0,A2,R,687.0
77,95,1374.0,F5,R,687.0
79,0,1374.0,G5,L,687.0
77,0,1374.5,F5,R,687.25
76,97,1374.5,E5,R,687.25
76,0,1376.0,E5,R,688.0
88,100,1376.0,E6,R,688.0
46,101,1376.0,A#2,L,688.0
34,0,1376.0,A#1,L,688.0
46,0,1376.0,A#2,L,688.0
79,101,1376.0,G5,L,688.0
82,94,1376.0,A#5,L,688.0
85,94,1376.0,C#6,L,688.0
34,90,1376.0,A#1,L,688.0
79,0,1378.0,G5,L,689.0
82,0,1378.0,A#5,L,689.0
85,0,1378.0,C#6,L,689.0
79,101,1378.0,G5,L,689.0
82,94,1378.0,A#5,L,689.0
46,0,1378.0,A#2,L,689.0
85,94,1378.0,C#6,L,689.0
34,0,1378.0,A#1,L,689.0
46,83,1378.5,A#2,R,689.25
85,94,1378.5,C#6,L,689.25
82,0,1378.5,A#5,L,689.25
79,101,1378.5,G5,L,689.25
85,0,1378.5,C#6,L,689.25
79,0,1378.5,G5,L,689.25
82,94,1378.5,A#5,L,689.25
34,76,1378.5,A#1,L,689.25
46,0,1379.0,A#2,R,689.5
49,78,1379.0,C#3,R,689.5
79,101,1379.0,G5,L,689.5
34,0,1379.0,A#1,L,689.5
79,0,1379.0,G5,L,689.5
82,0,1379.0,A#5,L,689.5
85,0,1379.0,C#6,L,689.5
37,82,1379.0,C#2,L,689.5
82,94,1379.0,A#5,L,689.5
85,94,1379.0,C#6,L,689.5
82,0,1379.75,A#5,L,689.875
85,94,1379.75,C#6,L,689.875
82,94,1379.75,A#5,L,689.875
79,101,1379.75,G5,L,689.875
40,80,1379.75,E2,L,689.875
85,0,1379.75,C#6,L,689.875
49,0,1379.75,C#3,R,689.875
79,0,1379.75,G5,L,689.875
37,0,1379.75,C#2,L,689.875
52,81,1379.75,E3,R,689.875
88,100,1380.0,E6,R,690.0
79,0,1380.0,G5,L,690.0
52,0,1380.0,E3,R,690.0
82,0,1380.0,A#5,L,690.0
85,0,1380.0,C#6,L,690.0
79,101,1380.0,G5,L,690.0
82,94,1380.0,A#5,L,690.0
85,94,1380.0,C#6,L,690.0
40,0,1380.0,E2,L,690.0
88,0,1380.0,E6,R,690.0
82,94,1380.5,A#5,L,690.25
85,0,1380.5,C#6,L,690.25
43,67,1380.5,G2,L,690.25
79,101,1380.5,G5,L,690.25
82,0,1380.5,A#5,L,690.25
55,70,1380.5,G3,R,690.25
85,94,1380.5,C#6,L,690.25
79,0,1380.5,G5,L,690.25
58,71,1381.0,A#3,R,690.5
46,64,1381.0,A#2,L,690.5
85,0,1381.0,C#6,L,690.5
82,94,1381.0,A#5,L,690.5
82,0,1381.0,A#5,L,690.5
79,0,1381.0,G5,L,690.5
43,0,1381.0,G2,L,690.5
85,94,1381.0,C#6,L,690.5
55,0,1381.0,G3,R,690.5
79,101,1381.0,G5,L,690.5
58,0,1381.75,A#3,R,690.875
61,58,1381.75,C#4,R,690.875
85,94,1381.75,C#6,L,690.875
49,61,1381.75,C#3,L,690.875
85,0,1381.75,C#6,L,690.875
79,101,1381.75,G5,L,690.875
82,0,1381.75,A#5,L,690.875
79,0,1381.75,G5,L,690.875
46,0,1381.75,A#2,L,690.875
82,94,1381.75,A#5,L,690.875
82,0,1382.0,A#5,L,691.0
79,0,1382.0,G5,L,691.0
85,0,1382.0,C#6,L,691.0
79,101,1382.0,G5,L,691.0
49,0,1382.0,C#3,L,691.0
82,94,1382.0,A#5,L,691.0
85,94,1382.0,C#6,L,691.0
61,0,1382.0,C#4,R,691.0
64,57,1382.5,E4,R,691.25
85,94,1382.5,C#6,L,691.25
82,94,1382.5,A#5,L,691.25
79,101,1382.5,G5,L,691.25
52,57,1382.5,E3,L,691.25
85,0,1382.5,C#6,L,691.25
82,0,1382.5,A#5,L,691.25
79,0,1382.5,G5,L,691.25
79,0,1383.0,G5,L,691.5
85,0,1383.0,C#6,L,691.5
79,101,1383.0,G5,L,691.5
52,0,1383.0,E3,L,691.5
64,0,1383.0,E4,R,691.5
82,94,1383.0,A#5,L,691.5
85,94,1383.0,C#6,L,691.5
82,0,1383.0,A#5,L,691.5
67,56,1383.25,G4,R,691.625
85,0,1383.25,C#6,L,691.625
82,0,1383.25,A#5,L,691.625
79,0,1383.25,G5,L,691.625
55,58,1383.25,G3,L,691.625
79,101,1383.25,G5,L,691.625
82,94,1383.25,A#5,L,691.625
85,94,1383.25,C#6,L,691.625
82,94,1384.0,A#5,L,692.0
55,0,1384.0,G3,L,692.0
79,0,1384.0,G5,L,692.0
82,0,1384.0,A#5,L,692.0
67,0,1384.0,G4,R,692.0
88,100,1384.0,E6,R,692.0
69,54,1384.0,A4,R,692.0
57,54,1384.0,A3,L,692.0
85,0,1384.0,C#6,L,692.0
88,0,1384.0,E6,R,692.0
85,94,1384.0,C#6,L,692.0
79,101,1384.0,G5,L,692.0
82,0,1384.75,A#5,L,692.375
85,0,1384.75,C#6,L,692.375
58,60,1384.75,A#3,L,692.375
79,101,1384.75,G5,L,692.375
57,0,1384.75,A3,L,692.375
82,94,1384.75,A#5,L,692.375
85,94,1384.75,C#6,L,692.375
69,0,1384.75,A4,R,692.375
70,62,1384.75,A#4,R,692.375
79,0,1384.75,G5,L,692.375
79,0,1385.0,G5,L,692.5
58,0,1385.0,A#3,L,692.5
85,0,1385.0,C#6,L,692.5
82,0,1385.0,A#5,L,692.5
79,101,1385.0,G5,L,692.5
82,94,1385.0,A#5,L,692.5
70,0,1385.0,A#4,R,692.5
85,94,1385.0,C#6,L,692.5
46,93,1386.0,A#2,R,693.0
34,87,1386.0,A#1,L,693.0
85,0,1387.0,C#6,L,693.5
79,0,1387.0,G5,L,693.5
88,0,1387.0,E6,R,693.5
82,0,1387.0,A#5,L,693.5
46,0,1388.0,A#2,R,694.0
34,87,1388.0,A#1,L,694.0
85,89,1388.0,C#6,L,694.0
82,94,1388.0,A#5,L,694.0
79,97,1388.0,G5,L,694.0
34,0,1388.0,A#1,L,694.0
88,96,1388.0,E6,R,694.0
46,93,1388.0,A#2,R,694.0
46,0,1389.0,A#2,R,694.5
34,0,1390.0,A#1,L,695.0
34,45,1390.0,A#1,R,695.0
34,0,1390.25,A#1,R,695.125
37,50,1390.25,C#2,R,695.125
37,0,1390.5,C#2,R,695.25
40,52,1390.5,E2,R,695.25
43,56,1391.0,G2,R,695.5
40,0,1391.0,E2,R,695.5
46,61,1391.25,A#2,R,695.625
43,0,1391.25,G2,R,695.625
46,0,1391.5,A#2,R,695.75
49,50,1391.625,C#3,R,695.8125
52,48,1391.875,E3,R,695.9375
49,0,1391.875,C#3,R,695.9375
79,0,1392.0,G5,L,696.0
82,0,1392.0,A#5,L,696.0
85,0,1392.0,C#6,L,696.0
79,97,1392.0,G5,L,696.0
82,94,1392.0,A#5,L,696.0
85,89,1392.0,C#6,L,696.0
88,0,1392.0,E6,R,696.0
52,0,1392.0,E3,R,696.0
88,96,1392.0,E6,R,696.0
55,58,1392.1875,G3,R,696.09375
55,0,1392.25,G3,R,696.125
55,58,1392.25,G3,R,696.125
58,53,1392.5,A#3,R,696.25
55,0,1392.5,G3,R,696.25
58,0,1392.75,A#3,R,696.375
61,46,1392.75,C#4,R,696.375
61,0,1393.0,C#4,R,696.5
64,46,1393.1666666666667,E4,R,696.5833333333334
64,0,1393.6666666666667,E4,R,696.8333333333334
67,51,1393.6666666666667,G4,R,696.8333333333334
82,0,1394.0,A#5,L,697.0
85,0,1394.0,C#6,L,697.0
79,0,1394.0,G5,L,697.0
88,0,1394.0,E6,R,697.0
67,0,1394.0,G4,R,697.0
34,40,1395.5,A#1,L,697.75
46,43,1395.5,A#2,L,697.75
88,52,1395.5,E6,R,697.75
79,44,1395.5,G5,R,697.75
85,39,1395.5,C#6,R,697.75
34,0,1396.0,A#1,L,698.0
85,0,1396.0,C#6,R,698.0
88,0,1396.0,E6,R,698.0
79,0,1396.0,G5,R,698.0
46,0,1396.0,A#2,L,698.0
33,44,1397.0,A1,L,698.5
88,44,1397.2,E6,R,698.6
88,0,1397.3,E6,R,698.65
45,34,1397.3,A2,R,698.65
88,44,1397.3,E6,R,698.65
45,0,1397.6,A2,R,698.8
45,34,1397.6,A2,R,698.8
89,49,1397.6,F6,R,698.8
88,0,1397.6,E6,R,698.8
45,0,1397.8,A2,R,698.9
88,45,1397.8,E6,R,698.9
89,0,1397.8,F6,R,698.9
88,0,1398.0,E6,R,699.0
89,50,1398.0,F6,R,699.0
33,0,1398.0,A1,L,699.0
89,0,1398.5,F6,R,699.25
86,45,1398.5,D6,R,699.25
86,0,1398.75,D6,R,699.375
88,47,1398.8125,E6,R,699.40625
88,0,1399.0,E6,R,699.5
86,45,1399.125,D6,R,699.5625
86,0,1399.375,D6,R,699.6875
88,43,1399.375,E6,R,699.6875
88,0,1399.5,E6,R,699.75
45,32,1399.75,A2,L,699.875
33,44,1399.75,A1,L,699.875
85,53,1399.75,C#6,R,699.875
45,32,1400.0,A2,L,700.0
33,44,1400.0,A1,L,700.0
45,0,1400.0,A2,L,700.0
33,0,1400.0,A1,L,700.0
85,0,1400.0,C#6,R,700.0
86,54,1400.0,D6,R,700.0
86,0,1400.25,D6,R,700.125
85,47,1400.375,C#6,R,700.1875
85,47,1400.5,C#6,R,700.25
85,0,1400.5,C#6,R,700.25
85,0,1400.625,C#6,R,700.3125
86,52,1400.625,D6,R,700.3125
33,0,1401.0,A1,L,700.5
45,0,1401.0,A2,L,700.5
86,0,1401.0,D6,R,700.5
82,58,1401.0,A#5,R,700.5
82,0,1401.25,A#5,R,700.625
84,49,1401.25,C6,R,700.625
84,0,1401.5,C6,R,700.75
82,48,1401.5,A#5,R,700.75
82,0,1401.75,A#5,R,700.875
84,46,1401.875,C6,R,700.9375
84,46,1402.0,C6,R,701.0
84,0,1402.0,C6,R,701.0
84,0,1402.25,C6,R,701.125
81,48,1402.25,A5,R,701.125
81,0,1402.5,A5,R,701.25
82,44,1402.5,A#5,R,701.25
82,0,1402.875,A#5,R,701.4375
81,45,1402.875,A5,R,701.4375
81,0,1403.0,A5,R,701.5
81,45,1403.0,A5,R,701.5
81,0,1403.25,A5,R,701.625
82,41,1403.25,A#5,R,701.625
82,0,1403.5,A#5,R,701.75
79,46,1403.5,G5,R,701.75
81,42,1403.75,A5,R,701.875
79,0,1403.75,G5,R,701.875
81,0,1404.0,A5,R,702.0
79,44,1404.125,G5,R,702.0625
81,46,1404.375,A5,R,702.1875
79,0,1404.375,G5,R,702.1875
81,0,1404.5,A5,R,702.25
77,48,1404.75,F5,R,702.375
77,0,1405.0,F5,R,702.5
79,48,1405.0,G5,R,702.5
79,0,1405.1666666666667,G5,R,702.5833333333334
77,41,1405.3333333333333,F5,R,702.6666666666666
79,47,1405.5,G5,R,702.75
77,0,1405.5,F5,R,702.75
79,0,1406.0,G5,R,703.0
76,38,1406.0,E5,R,703.0
76,0,1406.25,E5,R,703.125
77,40,1406.25,F5,R,703.125
77,0,1406.5,F5,R,703.25
76,35,1406.5833333333333,E5,R,703.2916666666666
77,37,1406.8333333333333,F5,R,703.4166666666666
76,0,1406.8333333333333,E5,R,703.4166666666666
77,0,1407.0,F5,R,703.5
74,44,1407.25,D5,R,703.625
74,0,1407.5,D5,R,703.75
76,33,1407.5,E5,R,703.75
74,48,1407.75,D5,R,703.875
76,0,1407.75,E5,R,703.875
74,0,1408.0,D5,R,704.0
76,27,1408.125,E5,R,704.0625
73,53,1408.5,C#5,R,704.25
76,0,1408.5,E5,R,704.25
74,51,1408.75,D5,R,704.375
73,0,1408.75,C#5,R,704.375
73,48,1409.0,C#5,R,704.5
74,0,1409.0,D5,R,704.5
73,0,1409.25,C#5,R,704.625
74,56,1409.25,D5,R,704.625
74,0,1409.5,D5,R,704.75
70,60,1409.625,A#4,R,704.8125
70,0,1410.0,A#4,R,705.0
72,46,1410.0,C5,R,705.0
72,0,1410.25,C5,R,705.125
70,61,1410.25,A#4,R,705.125
70,0,1410.375,A#4,R,705.1875
72,56,1410.4375,C5,R,705.21875
72,0,1410.5,C5,R,705.25
72,56,1410.5,C5,R,705.25
72,0,1410.75,C5,R,705.375
69,50,1410.75,A4,R,705.375
69,0,1411.0,A4,R,705.5
70,44,1411.125,A#4,R,705.5625
70,0,1411.375,A#4,R,705.6875
69,51,1411.375,A4,R,705.6875
69,0,1411.5,A4,R,705.75
69,51,1411.5,A4,R,705.75
70,41,1411.75,A#4,R,705.875
69,0,1411.75,A4,R,705.875
68,44,1412.0,G#4,R,706.0
70,0,1412.0,A#4,R,706.0
68,0,1412.2857142857142,G#4,R,706.1428571428571
69,53,1412.2857142857142,A4,R,706.1428571428571
69,0,1412.5714285714284,A4,R,706.2857142857142
68,54,1412.5714285714287,G#4,R,706.2857142857143
68,0,1412.857142857143,G#4,R,706.4285714285714
69,50,1412.857142857143,A4,R,706.4285714285714
69,0,1413.0,A4,R,706.5
67,52,1413.142857142857,G4,R,706.5714285714286
69,44,1413.4285714285713,A4,R,706.7142857142857
67,0,1413.4285714285713,G4,R,706.7142857142857
69,0,1413.7142857142856,A4,R,706.8571428571428
67,53,1413.7142857142858,G4,R,706.8571428571429
67,0,1414.0,G4,R,707.0
69,47,1414.0,A4,R,707.0
69,0,1414.5,A4,R,707.25
66,53,1414.5,F#4,R,707.25
66,0,1414.75,F#4,R,707.375
69,43,1414.75,A4,R,707.375
66,50,1415.0,F#4,R,707.5
69,0,1415.0,A4,R,707.5
66,0,1415.25,F#4,R,707.625
69,44,1415.25,A4,R,707.625
69,0,1415.75,A4,R,707.875
64,37,1415.75,E4,R,707.875
64,0,1416.0,E4,R,708.0
69,37,1416.125,A4,R,708.0625
69,0,1416.5,A4,R,708.25
64,41,1416.5833333333333,E4,R,708.2916666666666
64,0,1416.8333333333333,E4,R,708.4166666666666
64,41,1416.8333333333333,E4,R,708.4166666666666
69,42,1416.8333333333333,A4,R,708.4166666666666
64,0,1417.0,E4,R,708.5
69,0,1417.0,A4,R,708.5
54,47,1417.5,F#3,L,708.75
69,44,1417.5,A4,R,708.75
66,42,1417.875,F#4,R,708.9375
66,42,1418.0,F#4,R,709.0
69,0,1418.0,A4,R,709.0
66,0,1418.0,F#4,R,709.0
54,0,1418.0,F#3,L,709.0
57,45,1418.0,A3,R,709.0
57,0,1418.125,A3,R,709.0625
69,45,1418.125,A4,R,709.0625
54,52,1418.125,F#3,L,709.0625
69,0,1418.375,A4,R,709.1875
66,43,1418.4375,F#4,R,709.21875
57,43,1418.5,A3,L,709.25
54,0,1418.5,F#3,L,709.25
66,43,1418.5,F#4,R,709.25
66,0,1418.5,F#4,R,709.25
54,57,1418.625,F#3,L,709.3125
57,0,1418.625,A3,L,709.3125
69,51,1418.625,A4,R,709.3125
66,0,1418.625,F#4,R,709.3125
69,0,1418.75,A4,R,709.375
66,45,1418.8333333333333,F#4,R,709.4166666666666
66,0,1418.9166666666665,F#4,R,709.4583333333333
57,29,1418.9166666666667,A3,R,709.4583333333334
54,0,1419.0,F#3,L,709.5
69,46,1419.0,A4,R,709.5
66,0,1419.0,F#4,R,709.5
57,0,1419.0,A3,R,709.5
54,48,1419.0625,F#3,L,709.53125
57,38,1419.25,A3,L,709.625
54,0,1419.25,F#3,L,709.625
69,0,1419.25,A4,R,709.625
66,34,1419.3125,F#4,R,709.65625
69,38,1419.5,A4,R,709.75
66,0,1419.5,F#4,R,709.75
54,43,1419.5,F#3,L,709.75
57,0,1419.5,A3,L,709.75
69,0,1419.75,A4,R,709.875
57,35,1419.75,A3,L,709.875
54,0,1419.75,F#3,L,709.875
66,34,1419.75,F#4,R,709.875
66,0,1420.0,F#4,R,710.0
54,44,1420.0,F#3,L,710.0
57,0,1420.0,A3,L,710.0
69,43,1420.0,A4,R,710.0
54,0,1420.25,F#3,L,710.125
57,20,1420.25,A3,L,710.125
69,0,1420.25,A4,R,710.125
66,43,1420.25,F#4,R,710.125
57,0,1420.375,A3,L,710.1875
66,0,1420.4166666666667,F#4,R,710.2083333333334
69,48,1420.4166666666667,A4,R,710.2083333333334
54,50,1420.4375,F#3,L,710.21875
54,50,1420.5,F#3,L,710.25
54,0,1420.5,F#3,L,710.25
69,0,1420.5,A4,R,710.25
69,48,1420.5,A4,R,710.25
57,41,1420.625,A3,L,710.3125
54,0,1420.625,F#3,L,710.3125
69,0,1420.6666666666667,A4,R,710.3333333333334
66,41,1420.6666666666667,F#4,R,710.3333333333334
69,46,1420.8333333333333,A4,R,710.4166666666666
66,0,1420.8333333333335,F#4,R,710.4166666666667
54,43,1420.875,F#3,L,710.4375
57,0,1420.875,A3,L,710.4375
54,0,1421.0,F#3,L,710.5
57,34,1421.0,A3,L,710.5
69,0,1421.0,A4,R,710.5
66,43,1421.125,F#4,R,710.5625
57,0,1421.25,A3,L,710.625
66,0,1421.25,F#4,R,710.625
69,49,1421.25,A4,R,710.625
54,51,1421.3125,F#3,L,710.65625
66,43,1421.5,F#4,R,710.75
69,0,1421.5,A4,R,710.75
54,0,1421.5,F#3,L,710.75
57,28,1421.5,A3,L,710.75
54,51,1421.75,F#3,L,710.875
69,49,1421.75,A4,R,710.875
66,0,1421.75,F#4,R,710.875
57,0,1421.75,A3,L,710.875
66,44,1422.0,F#4,R,711.0
69,0,1422.0,A4,R,711.0
54,0,1422.0,F#3,L,711.0
66,0,1422.1,F#4,R,711.05
57,16,1422.1,A3,R,711.05
54,48,1422.1875,F#3,L,711.09375
57,0,1422.1999999999998,A3,R,711.0999999999999
69,49,1422.2,A4,R,711.1
54,0,1422.25,F#3,L,711.125
54,48,1422.25,F#3,L,711.125
69,0,1422.3,A4,R,711.15
66,43,1422.4,F#4,R,711.2
57,37,1422.5,A3,L,711.25
66,0,1422.5,F#4,R,711.25
54,0,1422.5,F#3,L,711.25
57,0,1422.625,A3,L,711.3125
54,53,1422.625,F#3,L,711.3125
69,46,1422.625,A4,R,711.3125
66,51,1422.8125,F#4,R,711.40625
57,41,1422.875,A3,R,711.4375
69,0,1422.875,A4,R,711.4375
57,0,1423.0,A3,R,711.5
69,55,1423.0,A4,R,711.5
66,0,1423.0,F#4,R,711.5
54,60,1423.0,F#3,L,711.5
54,0,1423.0,F#3,L,711.5
69,0,1423.25,A4,R,711.625
66,45,1423.3333333333333,F#4,R,711.6666666666666
66,0,1423.4166666666665,F#4,R,711.7083333333333
57,30,1423.4166666666667,A3,R,711.7083333333334
54,53,1423.5,F#3,L,711.75
54,0,1423.5,F#3,L,711.75
69,51,1423.5,A4,R,711.75
57,0,1423.5,A3,R,711.75
66,49,1423.75,F#4,R,711.875
69,0,1423.75,A4,R,711.875
66,0,1423.875,F#4,R,711.9375
57,25,1423.875,A3,R,711.9375
57,0,1424.0,A3,R,712.0
69,47,1424.0,A4,R,712.0
54,45,1424.0,F#3,L,712.0
54,0,1424.0,F#3,L,712.0
66,42,1424.1875,F#4,R,712.09375
69,0,1424.25,A4,R,712.125
57,24,1424.25,A3,R,712.125
66,42,1424.25,F#4,R,712.125
66,0,1424.25,F#4,R,712.125
54,0,1424.375,F#3,L,712.1875
57,0,1424.375,A3,R,712.1875
69,48,1424.4375,A4,R,712.21875
54,49,1424.4375,F#3,L,712.21875
69,0,1424.5,A4,R,712.25
69,48,1424.5,A4,R,712.25
54,0,1424.5,F#3,L,712.25
54,49,1424.5,F#3,L,712.25
66,38,1424.625,F#4,R,712.3125
69,0,1424.625,A4,R,712.3125
54,0,1424.625,F#3,L,712.3125
57,28,1424.625,A3,L,712.3125
54,50,1424.75,F#3,L,712.375
57,0,1424.75,A3,L,712.375
66,0,1424.75,F#4,R,712.375
69,49,1424.75,A4,R,712.375
57,33,1425.0,A3,L,712.5
66,0,1425.0,F#4,R,712.5
69,0,1425.0,A4,R,712.5
54,0,1425.0,F#3,L,712.5
66,45,1425.0625,F#4,R,712.53125
69,49,1425.25,A4,R,712.625
54,50,1425.25,F#3,L,712.625
66,0,1425.25,F#4,R,712.625
57,0,1425.25,A3,L,712.625
54,0,1425.5,F#3,L,712.75
66,46,1425.5,F#4,R,712.75
69,0,1425.5,A4,R,712.75
57,41,1425.5416666666667,A3,L,712.7708333333334
57,0,1425.6666666666667,A3,L,712.8333333333334
54,58,1425.6666666666667,F#3,L,712.8333333333334
66,0,1425.6875,F#4,R,712.84375
69,53,1425.6875,A4,R,712.84375
54,0,1425.75,F#3,L,712.875
54,58,1425.75,F#3,L,712.875
69,53,1425.75,A4,R,712.875
69,0,1425.75,A4,R,712.875
66,44,1425.9375,F#4,R,712.96875
54,0,1426.0,F#3,L,713.0
66,0,1426.0,F#4,R,713.0
69,0,1426.0,A4,R,713.0
57,35,1426.0,A3,R,713.0
66,44,1426.0,F#4,R,713.0
57,0,1426.125,A3,R,713.0625
69,48,1426.125,A4,R,713.0625
54,52,1426.125,F#3,L,713.0625
66,47,1426.375,F#4,R,713.1875
66,0,1426.375,F#4,R,713.1875
69,0,1426.375,A4,R,713.1875
57,34,1426.4375,A3,R,713.21875
66,0,1426.5,F#4,R,713.25
57,0,1426.5,A3,R,713.25
57,34,1426.5,A3,R,713.25
54,0,1426.5,F#3,L,713.25
54,50,1426.5,F#3,L,713.25
57,0,1426.625,A3,R,713.3125
69,47,1426.625,A4,R,713.3125
66,44,1426.8125,F#4,R,713.40625
69,0,1426.875,A4,R,713.4375
57,16,1426.9375,A3,R,713.46875
54,47,1427.0,F#3,L,713.5
54,0,1427.0,F#3,L,713.5
57,16,1427.0,A3,R,713.5
57,0,1427.0,A3,R,713.5
69,38,1427.0,A4,R,713.5
66,0,1427.0,F#4,R,713.5
57,0,1427.25,A3,R,713.625
69,0,1427.25,A4,R,713.625
66,45,1427.25,F#4,R,713.625
66,0,1427.3333333333333,F#4,R,713.6666666666666
57,31,1427.3333333333333,A3,R,713.6666666666666
57,0,1427.5,A3,R,713.75
54,48,1427.5,F#3,L,713.75
54,0,1427.5,F#3,L,713.75
69,42,1427.5,A4,R,713.75
66,44,1427.6875,F#4,R,713.84375
69,0,1427.75,A4,R,713.875
66,0,1427.75,F#4,R,713.875
57,37,1427.75,A3,R,713.875
66,44,1427.75,F#4,R,713.875
69,48,1427.875,A4,R,713.9375
57,0,1427.875,A3,R,713.9375
54,0,1427.875,F#3,L,713.9375
54,52,1427.875,F#3,L,713.9375
69,0,1428.0,A4,R,714.0
66,50,1428.0,F#4,R,714.0
54,0,1428.0,F#3,L,714.0
66,0,1428.0,F#4,R,714.0
57,33,1428.25,A3,R,714.125
54,60,1428.375,F#3,L,714.1875
69,55,1428.5,A4,R,714.25
57,0,1428.5,A3,R,714.25
54,0,1428.5,F#3,L,714.25
57,45,1428.6666666666667,A3,L,714.3333333333334
69,0,1428.6875,A4,R,714.34375
66,47,1428.6875,F#4,R,714.34375
66,0,1428.75,F#4,R,714.375
66,47,1428.75,F#4,R,714.375
54,46,1428.8333333333333,F#3,L,714.4166666666666
57,0,1428.8333333333335,A3,L,714.4166666666667
66,0,1428.875,F#4,R,714.4375
69,49,1428.875,A4,R,714.4375
54,0,1429.0,F#3,L,714.5
66,0,1429.0,F#4,R,714.5
69,0,1429.0,A4,R,714.5
66,51,1429.0833333333333,F#4,R,714.5416666666666
66,0,1429.1666666666665,F#4,R,714.5833333333333
57,28,1429.1666666666667,A3,R,714.5833333333334
54,53,1429.25,F#3,L,714.625
57,28,1429.25,A3,R,714.625
57,0,1429.25,A3,R,714.625
69,48,1429.3125,A4,R,714.65625
57,0,1429.3125,A3,R,714.65625
69,0,1429.5,A4,R,714.75
66,46,1429.5,F#4,R,714.75
57,36,1429.625,A3,R,714.8125
66,0,1429.625,F#4,R,714.8125
54,0,1429.75,F#3,L,714.875
69,44,1429.75,A4,R,714.875
57,0,1429.75,A3,R,714.875
54,56,1429.75,F#3,L,714.875
54,0,1430.0,F#3,L,715.0
57,38,1430.0,A3,L,715.0
69,0,1430.0,A4,R,715.0
66,40,1430.0,F#4,R,715.0
57,0,1430.25,A3,L,715.125
54,49,1430.25,F#3,L,715.125
69,40,1430.25,A4,R,715.125
66,0,1430.25,F#4,R,715.125
66,47,1430.5,F#4,R,715.25
69,0,1430.5,A4,R,715.25
57,30,1430.5625,A3,R,715.28125
57,0,1430.75,A3,R,715.375
69,40,1430.75,A4,R,715.375
54,52,1430.75,F#3,L,715.375
54,0,1430.75,F#3,L,715.375
69,0,1431.0,A4,R,715.5
54,0,1431.0,F#3,L,715.5
66,43,1431.0,F#4,R,715.5
66,0,1431.0,F#4,R,715.5
57,42,1431.125,A3,R,715.5625
69,54,1431.25,A4,R,715.625
54,58,1431.25,F#3,L,715.625
57,0,1431.25,A3,R,715.625
54,0,1431.5,F#3,L,715.75
66,38,1431.5,F#4,R,715.75
57,41,1431.5,A3,L,715.75
69,0,1431.5,A4,R,715.75
66,0,1431.75,F#4,R,715.875
69,48,1431.75,A4,R,715.875
54,57,1431.75,F#3,L,715.875
57,0,1431.75,A3,L,715.875
66,47,1432.0,F#4,R,716.0
66,0,1432.0,F#4,R,716.0
54,0,1432.0,F#3,L,716.0
69,0,1432.0,A4,R,716.0
57,39,1432.125,A3,R,716.0625
66,0,1432.125,F#4,R,716.0625
69,48,1432.25,A4,R,716.125
57,0,1432.25,A3,R,716.125
54,50,1432.25,F#3,L,716.125
66,47,1432.5,F#4,R,716.25
69,0,1432.5,A4,R,716.25
66,0,1432.625,F#4,R,716.3125
57,8,1432.625,A3,R,716.3125
54,0,1432.75,F#3,L,716.375
69,50,1432.75,A4,R,716.375
57,0,1432.75,A3,R,716.375
54,51,1432.75,F#3,L,716.375
66,52,1432.875,F#4,R,716.4375
66,0,1433.0,F#4,R,716.5
54,0,1433.0,F#3,L,716.5
69,0,1433.0,A4,R,716.5
57,37,1433.0,A3,R,716.5
66,52,1433.0,F#4,R,716.5
54,50,1433.25,F#3,L,716.625
69,48,1433.25,A4,R,716.625
57,0,1433.25,A3,R,716.625
69,0,1433.5,A4,R,716.75
66,41,1433.5,F#4,R,716.75
66,0,1433.5,F#4,R,716.75
57,35,1433.5625,A3,R,716.78125
57,0,1433.75,A3,R,716.875
69,43,1433.75,A4,R,716.875
54,0,1433.75,F#3,L,716.875
54,53,1433.75,F#3,L,716.875
54,0,1434.0,F#3,L,717.0
57,44,1434.0,A3,L,717.0
66,0,1434.0,F#4,R,717.0
69,0,1434.0,A4,R,717.0
66,51,1434.0,F#4,R,717.0
57,0,1434.25,A3,L,717.125
69,58,1434.3333333333333,A4,R,717.1666666666666
66,0,1434.3333333333333,F#4,R,717.1666666666666
54,58,1434.375,F#3,L,717.1875
69,0,1434.5,A4,R,717.25
54,58,1434.5,F#3,L,717.25
54,0,1434.5,F#3,L,717.25
54,0,1434.75,F#3,L,717.375
66,51,1434.75,F#4,R,717.375
57,49,1434.75,A3,L,717.375
57,0,1435.0,A3,L,717.5
69,48,1435.0,A4,R,717.5
54,55,1435.0,F#3,L,717.5
66,0,1435.0,F#4,R,717.5
66,52,1435.125,F#4,R,717.5625
69,0,1435.125,A4,R,717.5625
57,35,1435.25,A3,R,717.625
66,0,1435.25,F#4,R,717.625
69,49,1435.375,A4,R,717.6875
57,0,1435.375,A3,R,717.6875
54,55,1435.375,F#3,L,717.6875
54,0,1435.375,F#3,L,717.6875
69,0,1435.5,A4,R,717.75
54,0,1435.5,F#3,L,717.75
66,49,1435.625,F#4,R,717.8125
57,37,1435.625,A3,L,717.8125
57,0,1435.875,A3,L,717.9375
69,51,1435.875,A4,R,717.9375
54,52,1435.875,F#3,L,717.9375
66,0,1435.875,F#4,R,717.9375
54,0,1436.0,F#3,L,718.0
57,40,1436.0,A3,L,718.0
66,51,1436.0,F#4,R,718.0
69,0,1436.0,A4,R,718.0
57,0,1436.25,A3,L,718.125
69,48,1436.25,A4,R,718.125
66,0,1436.25,F#4,R,718.125
54,55,1436.25,F#3,L,718.125
57,41,1436.5,A3,L,718.25
54,0,1436.5,F#3,L,718.25
66,51,1436.5,F#4,R,718.25
69,0,1436.5,A4,R,718.25
57,0,1436.75,A3,L,718.375
66,0,1436.75,F#4,R,718.375
69,46,1436.75,A4,R,718.375
54,53,1436.7916666666667,F#3,L,718.3958333333334
54,0,1436.8333333333335,F#3,L,718.4166666666667
69,0,1436.9375,A4,R,718.46875
66,44,1436.9375,F#4,R,718.46875
57,42,1436.9583333333333,A3,L,718.4791666666666
57,42,1437.0,A3,L,718.5
57,0,1437.0,A3,L,718.5
66,44,1437.0,F#4,R,718.5
66,0,1437.0,F#4,R,718.5
69,47,1437.125,A4,R,718.5625
66,0,1437.125,F#4,R,718.5625
54,52,1437.125,F#3,L,718.5625
57,0,1437.125,A3,L,718.5625
66,52,1437.375,F#4,R,718.6875
69,0,1437.375,A4,R,718.6875
57,38,1437.4375,A3,R,718.71875
66,0,1437.5,F#4,R,718.75
57,0,1437.5,A3,R,718.75
54,0,1437.5,F#3,L,718.75
57,38,1437.5,A3,R,718.75
57,0,1437.625,A3,R,718.8125
54,53,1437.625,F#3,L,718.8125
69,47,1437.625,A4,R,718.8125
57,39,1437.75,A3,L,718.875
69,0,1437.75,A4,R,718.875
54,0,1437.75,F#3,L,718.875
66,48,1437.8125,F#4,R,718.90625
69,49,1438.0,A4,R,719.0
66,0,1438.0,F#4,R,719.0
57,0,1438.0,A3,L,719.0
54,52,1438.0833333333333,F#3,L,719.0416666666666
69,0,1438.25,A4,R,719.125
66,45,1438.3125,F#4,R,719.15625
54,0,1438.3333333333333,F#3,L,719.1666666666666
57,35,1438.3333333333333,A3,L,719.1666666666666
69,50,1438.5,A4,R,719.25
57,0,1438.5,A3,L,719.25
54,58,1438.5,F#3,L,719.25
66,0,1438.5,F#4,R,719.25
69,0,1438.75,A4,R,719.375
66,50,1438.7916666666667,F#4,R,719.3958333333334
57,39,1438.8333333333333,A3,R,719.4166666666666
66,0,1438.8333333333335,F#4,R,719.4166666666667
57,0,1438.9166666666665,A3,R,719.4583333333333
69,49,1439.0,A4,R,719.5
54,54,1439.0,F#3,L,719.5
54,0,1439.0,F#3,L,719.5
66,46,1439.1666666666667,F#4,R,719.5833333333334
69,0,1439.1666666666667,A4,R,719.5833333333334
54,0,1439.25,F#3,L,719.625
57,27,1439.25,A3,L,719.625
57,0,1439.375,A3,L,719.6875
54,55,1439.375,F#3,L,719.6875
54,0,1439.5,F#3,L,719.75
69,50,1439.5416666666667,A4,L,719.7708333333334
69,50,1439.5833333333333,A4,L,719.7916666666666
57,53,1439.5833333333333,A3,L,719.7916666666666
69,0,1439.5833333333335,A4,L,719.7916666666667
69,0,1439.6666666666665,A4,L,719.8333333333333
57,0,1439.6666666666665,A3,L,719.8333333333333
66,0,1439.6666666666667,F#4,R,719.8333333333334
66,55,1439.6666666666667,F#4,R,719.8333333333334
66,55,1440.0,F#4,R,720.0
66,0,1440.0,F#4,R,720.0
72,53,1440.0,C5,R,720.0
48,51,1440.0,C3,L,720.0
66,0,1440.5,F#4,R,720.25
69,43,1440.5,A4,R,720.25
48,0,1440.5,C3,L,720.25
51,36,1440.5,D#3,L,720.25
72,0,1440.5,C5,R,720.25
63,8,1440.5625,D#4,L,720.28125
57,37,1440.5625,A3,L,720.28125
54,21,1440.5625,F#3,L,720.28125
66,14,1440.625,F#4,R,720.3125
72,57,1440.75,C5,R,720.375
66,0,1440.75,F#4,R,720.375
48,53,1440.75,C3,L,720.375
54,0,1440.75,F#3,L,720.375
57,0,1440.75,A3,L,720.375
63,0,1440.75,D#4,L,720.375
72,0,1441.0,C5,R,720.5
66,43,1441.0,F#4,R,720.5
69,42,1441.0,A4,R,720.5
51,0,1441.0,D#3,L,720.5
69,0,1441.0,A4,R,720.5
48,0,1441.0,C3,L,720.5
54,36,1441.0,F#3,L,720.5
63,15,1441.0,D#4,L,720.5
51,38,1441.0,D#3,L,720.5
66,0,1441.125,F#4,R,720.5625
57,4,1441.125,A3,R,720.5625
69,0,1441.125,A4,R,720.5625
72,45,1441.25,C5,R,720.625
57,0,1441.25,A3,R,720.625
54,0,1441.25,F#3,L,720.625
63,0,1441.25,D#4,L,720.625
51,0,1441.25,D#3,L,720.625
48,38,1441.2916666666667,C3,L,720.6458333333334
48,0,1441.3333333333335,C3,L,720.6666666666667
51,34,1441.4166666666667,D#3,L,720.7083333333334
63,16,1441.5,D#4,R,720.75
69,47,1441.5,A4,R,720.75
66,33,1441.5,F#4,R,720.75
51,34,1441.5,D#3,L,720.75
72,0,1441.5,C5,R,720.75
51,0,1441.5,D#3,L,720.75
63,0,1441.625,D#4,R,720.8125
69,0,1441.625,A4,R,720.8125
72,53,1441.625,C5,R,720.8125
51,0,1441.625,D#3,L,720.8125
66,0,1441.625,F#4,R,720.8125
48,48,1441.625,C3,L,720.8125
66,32,1441.875,F#4,R,720.9375
48,0,1442.0,C3,L,721.0
72,0,1442.0,C5,R,721.0
66,32,1442.0,F#4,R,721.0
66,0,1442.0,F#4,R,721.0
69,45,1442.0,A4,R,721.0
51,31,1442.0,D#3,L,721.0
69,0,1442.125,A4,R,721.0625
72,56,1442.125,C5,R,721.0625
51,0,1442.125,D#3,L,721.0625
48,58,1442.125,C3,L,721.0625
63,37,1442.375,D#4,L,721.1875
48,0,1442.375,C3,L,721.1875
69,46,1442.375,A4,R,721.1875
66,0,1442.375,F#4,R,721.1875
66,46,1442.375,F#4,L,721.1875
63,0,1442.5,D#4,L,721.25
69,46,1442.5,A4,R,721.25
66,0,1442.5,F#4,L,721.25
69,0,1442.5,A4,R,721.25
72,0,1442.5,C5,R,721.25
51,22,1442.5,D#3,R,721.25
51,0,1442.625,D#3,R,721.3125
48,56,1442.625,C3,L,721.3125
72,54,1442.625,C5,R,721.3125
72,0,1442.75,C5,R,721.375
48,0,1442.75,C3,L,721.375
51,49,1442.75,D#3,L,721.375
54,34,1442.75,F#3,L,721.375
66,43,1442.75,F#4,R,721.375
69,48,1442.75,A4,R,721.375
69,0,1443.0,A4,R,721.5
69,0,1443.0,A4,R,721.5
72,51,1443.0,C5,R,721.5
51,0,1443.0,D#3,L,721.5
54,0,1443.0,F#3,L,721.5
66,0,1443.0,F#4,R,721.5
48,55,1443.0833333333333,C3,L,721.5416666666666
48,0,1443.3333333333333,C3,L,721.6666666666666
51,42,1443.3333333333333,D#3,L,721.6666666666666
72,0,1443.375,C5,R,721.6875
63,26,1443.375,D#4,R,721.6875
66,32,1443.375,F#4,R,721.6875
69,44,1443.375,A4,R,721.6875
63,0,1443.5,D#4,R,721.75
66,0,1443.5,F#4,R,721.75
69,0,1443.5,A4,R,721.75
51,0,1443.5,D#3,L,721.75
57,14,1443.5,A3,L,721.75
72,48,1443.5625,C5,R,721.78125
48,53,1443.625,C3,L,721.8125
57,0,1443.625,A3,L,721.8125
69,47,1443.75,A4,R,721.875
66,38,1443.75,F#4,R,721.875
51,41,1443.75,D#3,L,721.875
72,0,1443.75,C5,R,721.875
54,5,1443.875,F#3,L,721.9375
48,0,1443.875,C3,L,721.9375
66,0,1444.0,F#4,R,722.0
54,0,1444.0,F#3,L,722.0
51,0,1444.0,D#3,L,722.0
48,48,1444.0,C3,L,722.0
69,0,1444.0,A4,R,722.0
72,48,1444.0,C5,R,722.0
69,44,1444.25,A4,R,722.125
63,22,1444.25,D#4,L,722.125
54,24,1444.25,F#3,L,722.125
66,32,1444.25,F#4,R,722.125
51,38,1444.25,D#3,L,722.125
48,0,1444.25,C3,L,722.125
72,0,1444.25,C5,R,722.125
66,0,1444.5,F#4,R,722.25
48,35,1444.5,C3,L,722.25
69,0,1444.5,A4,R,722.25
72,40,1444.5,C5,R,722.25
63,0,1444.5,D#4,L,722.25
51,0,1444.5,D#3,L,722.25
54,0,1444.5,F#3,L,722.25
48,0,1444.625,C3,L,722.3125
54,29,1444.6875,F#3,L,722.34375
69,43,1444.6875,A4,R,722.34375
51,35,1444.6875,D#3,L,722.34375
72,0,1444.6875,C5,R,722.34375
66,40,1444.6875,F#4,R,722.34375
66,40,1444.75,F#4,R,722.375
69,0,1444.75,A4,R,722.375
66,0,1444.75,F#4,R,722.375
69,43,1444.75,A4,R,722.375
51,35,1444.75,D#3,L,722.375
54,29,1444.75,F#3,L,722.375
54,0,1444.75,F#3,L,722.375
51,0,1444.75,D#3,L,722.375
72,41,1444.9375,C5,R,722.46875
69,0,1444.9375,A4,R,722.46875
66,0,1444.9375,F#4,R,722.46875
51,0,1445.0,D#3,L,722.5
72,41,1445.0,C5,R,722.5
72,0,1445.0,C5,R,722.5
54,0,1445.0,F#3,L,722.5
48,45,1445.0,C3,L,722.5
69,44,1445.125,A4,R,722.5625
48,0,1445.125,C3,L,722.5625
72,0,1445.125,C5,R,722.5625
51,36,1445.125,D#3,L,722.5625
66,31,1445.125,F#4,R,722.5625
66,0,1445.375,F#4,R,722.6875
69,0,1445.375,A4,R,722.6875
72,49,1445.375,C5,R,722.6875
48,51,1445.375,C3,L,722.6875
51,0,1445.375,D#3,L,722.6875
72,0,1445.5,C5,R,722.75
48,0,1445.5,C3,L,722.75
66,11,1445.625,F#4,R,722.8125
69,39,1445.625,A4,R,722.8125
51,35,1445.625,D#3,L,722.8125
66,0,1445.75,F#4,R,722.875
51,0,1445.75,D#3,L,722.875
48,63,1445.75,C3,L,722.875
69,0,1445.75,A4,R,722.875
72,67,1445.75,C5,R,722.875
48,0,1446.0,C3,L,723.0
51,35,1446.0,D#3,L,723.0
72,0,1446.0,C5,R,723.0
66,34,1446.0,F#4,R,723.0
69,30,1446.0,A4,R,723.0
66,0,1446.25,F#4,R,723.125
72,54,1446.25,C5,R,723.125
48,50,1446.25,C3,L,723.125
51,0,1446.25,D#3,L,723.125
69,0,1446.25,A4,R,723.125
72,0,1446.5,C5,R,723.25
48,0,1446.5,C3,L,723.25
51,40,1446.5,D#3,L,723.25
66,26,1446.5833333333333,F#4,R,723.2916666666666
69,43,1446.5833333333333,A4,R,723.2916666666666
69,0,1446.6666666666665,A4,R,723.3333333333333
66,0,1446.6666666666665,F#4,R,723.3333333333333
72,56,1446.6666666666667,C5,R,723.3333333333334
51,0,1446.6875,D#3,L,723.34375
48,50,1446.6875,C3,L,723.34375
48,0,1446.75,C3,L,723.375
48,50,1446.75,C3,L,723.375
48,0,1447.0,C3,L,723.5
51,36,1447.0,D#3,L,723.5
69,49,1447.0,A4,R,723.5
66,27,1447.0,F#4,R,723.5
72,0,1447.0,C5,R,723.5
72,51,1447.1875,C5,R,723.59375
69,0,1447.1875,A4,R,723.59375
66,0,1447.1875,F#4,R,723.59375
72,0,1447.25,C5,R,723.625
72,51,1447.25,C5,R,723.625
48,47,1447.25,C3,L,723.625
51,0,1447.25,D#3,L,723.625
51,47,1447.375,D#3,L,723.6875
48,0,1447.375,C3,L,723.6875
72,0,1447.375,C5,R,723.6875
66,37,1447.375,F#4,R,723.6875
69,43,1447.375,A4,R,723.6875
66,0,1447.5,F#4,R,723.75
69,0,1447.5,A4,R,723.75
51,0,1447.5,D#3,L,723.75
48,50,1447.625,C3,L,723.8125
72,48,1447.625,C5,R,723.8125
51,23,1447.875,D#3,L,723.9375
48,0,1447.875,C3,L,723.9375
69,46,1447.875,A4,R,723.9375
66,7,1447.875,F#4,R,723.9375
72,0,1447.875,C5,R,723.9375
69,0,1448.0,A4,R,724.0
72,56,1448.0,C5,R,724.0
51,0,1448.0,D#3,L,724.0
48,56,1448.0,C3,L,724.0
66,0,1448.0,F#4,R,724.0
72,0,1448.25,C5,R,724.125
66,31,1448.25,F#4,R,724.125
69,48,1448.25,A4,R,724.125
51,46,1448.25,D#3,L,724.125
48,0,1448.25,C3,L,724.125
66,0,1448.5,F#4,R,724.25
72,59,1448.5,C5,R,724.25
69,0,1448.5,A4,R,724.25
51,0,1448.5,D#3,L,724.25
48,58,1448.5,C3,L,724.25
72,0,1448.75,C5,R,724.375
51,24,1448.7916666666667,D#3,R,724.3958333333334
69,33,1448.8333333333333,A4,R,724.4166666666666
51,0,1448.8333333333335,D#3,R,724.4166666666667
69,0,1448.9166666666665,A4,R,724.4583333333333
48,0,1449.0,C3,L,724.5
48,54,1449.0,C3,L,724.5
72,53,1449.0416666666667,C5,R,724.5208333333334
72,0,1449.1666666666667,C5,R,724.5833333333334
66,36,1449.1666666666667,F#4,R,724.5833333333334
69,45,1449.1666666666667,A4,R,724.5833333333334
48,0,1449.1666666666667,C3,L,724.5833333333334
51,40,1449.1666666666667,D#3,L,724.5833333333334
69,45,1449.25,A4,R,724.625
66,36,1449.25,F#4,R,724.625
69,0,1449.25,A4,R,724.625
66,0,1449.25,F#4,R,724.625
54,7,1449.3333333333333,F#3,L,724.6666666666666
51,0,1449.3333333333335,D#3,L,724.6666666666667
54,0,1449.4166666666665,F#3,L,724.7083333333333
48,48,1449.4166666666667,C3,L,724.7083333333334
54,7,1449.4166666666667,F#3,L,724.7083333333334
48,48,1449.5,C3,L,724.75
48,0,1449.5,C3,L,724.75
54,0,1449.5,F#3,L,724.75
69,0,1449.5,A4,R,724.75
66,0,1449.5,F#4,R,724.75
72,51,1449.5833333333333,C5,R,724.7916666666666
48,0,1449.625,C3,L,724.8125
72,0,1449.6666666666665,C5,R,724.8333333333333
66,22,1449.6666666666667,F#4,R,724.8333333333334
69,44,1449.6666666666667,A4,R,724.8333333333334
51,40,1449.6875,D#3,L,724.84375
51,40,1449.75,D#3,L,724.875
51,0,1449.75,D#3,L,724.875
69,0,1449.8333333333335,A4,R,724.9166666666667
66,0,1449.8333333333335,F#4,R,724.9166666666667
72,55,1449.9166666666667,C5,R,724.9583333333334
48,54,1450.0,C3,L,725.0
51,0,1450.0,D#3,L,725.0
72,55,1450.0,C5,R,725.0
72,0,1450.0,C5,R,725.0
69,41,1450.0,A4,R,725.0
51,38,1450.125,D#3,L,725.0625
48,0,1450.125,C3,L,725.0625
69,0,1450.25,A4,R,725.125
72,0,1450.25,C5,R,725.125
72,55,1450.25,C5,R,725.125
48,54,1450.375,C3,L,725.1875
72,52,1450.375,C5,R,725.1875
51,0,1450.375,D#3,L,725.1875
72,0,1450.375,C5,R,725.1875
48,0,1450.5,C3,L,725.25
48,54,1450.5,C3,L,725.25
72,0,1450.5,C5,R,725.25
51,43,1450.625,D#3,L,725.3125
48,0,1450.625,C3,L,725.3125
69,40,1450.625,A4,R,725.3125
54,11,1450.75,F#3,L,725.375
51,0,1450.75,D#3,L,725.375
48,51,1450.875,C3,L,725.4375
54,0,1450.875,F#3,L,725.4375
69,0,1450.875,A4,R,725.4375
72,55,1450.875,C5,R,725.4375
48,0,1451.0,C3,L,725.5
72,0,1451.0,C5,R,725.5
51,35,1451.0625,D#3,L,725.53125
69,43,1451.0833333333333,A4,R,725.5416666666666
69,0,1451.1666666666665,A4,R,725.5833333333333
66,27,1451.1666666666667,F#4,R,725.5833333333334
69,43,1451.1666666666667,A4,R,725.5833333333334
51,0,1451.25,D#3,L,725.625
72,59,1451.3333333333333,C5,R,725.6666666666666
66,0,1451.3333333333335,F#4,R,725.6666666666667
69,0,1451.3333333333335,A4,R,725.6666666666667
48,56,1451.375,C3,L,725.6875
72,0,1451.5,C5,R,725.75
48,0,1451.5,C3,L,725.75
48,56,1451.5,C3,L,725.75
69,42,1451.625,A4,R,725.8125
48,0,1451.625,C3,L,725.8125
54,21,1451.625,F#3,L,725.8125
51,31,1451.625,D#3,L,725.8125
69,0,1451.875,A4,R,725.9375
72,58,1451.875,C5,R,725.9375
54,0,1451.875,F#3,L,725.9375
51,0,1451.875,D#3,L,725.9375
48,50,1451.875,C3,L,725.9375
72,0,1452.0,C5,R,726.0
48,50,1452.0,C3,L,726.0
48,0,1452.0,C3,L,726.0
69,39,1452.0,A4,R,726.0
54,26,1452.2,F#3,L,726.1
48,0,1452.2,C3,L,726.1
51,46,1452.2,D#3,L,726.1
69,0,1452.25,A4,R,726.125
72,54,1452.375,C5,R,726.1875
51,0,1452.4,D#3,L,726.2
48,52,1452.4,C3,L,726.2
54,0,1452.4,F#3,L,726.2
72,0,1452.5,C5,R,726.25
51,40,1452.6,D#3,L,726.3
54,23,1452.6,F#3,L,726.3
48,0,1452.6000000000001,C3,L,726.3000000000001
69,45,1452.625,A4,R,726.3125
69,0,1452.75,A4,R,726.375
54,0,1452.8,F#3,L,726.4
51,0,1452.8,D#3,L,726.4
48,50,1452.8,C3,L,726.4
72,54,1452.8125,C5,R,726.40625
72,0,1453.0,C5,R,726.5
69,47,1453.0,A4,R,726.5
48,0,1453.0,C3,L,726.5
51,31,1453.0,D#3,L,726.5
69,0,1453.125,A4,R,726.5625
54,12,1453.125,F#3,R,726.5625
54,0,1453.25,F#3,R,726.625
51,0,1453.25,D#3,L,726.625
48,53,1453.25,C3,L,726.625
72,51,1453.25,C5,R,726.625
48,0,1453.5,C3,L,726.75
51,26,1453.5,D#3,L,726.75
72,0,1453.5,C5,R,726.75
69,41,1453.5,A4,R,726.75
51,0,1453.75,D#3,L,726.875
72,54,1453.75,C5,R,726.875
69,0,1453.75,A4,R,726.875
48,55,1453.75,C3,L,726.875
72,0,1453.875,C5,R,726.9375
48,0,1453.875,C3,L,726.9375
51,43,1453.875,D#3,L,726.9375
69,41,1453.875,A4,R,726.9375
69,0,1454.0,A4,R,727.0
51,0,1454.0,D#3,L,727.0
69,41,1454.0,A4,R,727.0
48,50,1454.125,C3,L,727.0625
72,57,1454.125,C5,R,727.0625
69,0,1454.125,A4,R,727.0625
48,0,1454.375,C3,L,727.1875
51,29,1454.375,D#3,L,727.1875
69,36,1454.375,A4,R,727.1875
72,0,1454.375,C5,R,727.1875
51,0,1454.5,D#3,L,727.25
48,54,1454.5,C3,L,727.25
72,54,1454.5,C5,R,727.25
69,0,1454.5,A4,R,727.25
48,0,1454.75,C3,L,727.375
51,44,1454.75,D#3,L,727.375
69,42,1454.75,A4,R,727.375
72,0,1454.75,C5,R,727.375
69,0,1455.0,A4,R,727.5
72,52,1455.0,C5,R,727.5
48,50,1455.0,C3,L,727.5
51,0,1455.0,D#3,L,727.5
72,0,1455.25,C5,R,727.625
51,32,1455.25,D#3,L,727.625
48,0,1455.25,C3,L,727.625
69,39,1455.2916666666667,A4,R,727.6458333333334
69,0,1455.4166666666667,A4,R,727.7083333333334
72,53,1455.4166666666667,C5,R,727.7083333333334
72,53,1455.5,C5,R,727.75
51,0,1455.5,D#3,L,727.75
72,0,1455.5,C5,R,727.75
48,51,1455.5,C3,L,727.75
69,40,1455.625,A4,R,727.8125
72,0,1455.75,C5,R,727.875
51,30,1455.75,D#3,R,727.875
48,54,1455.875,C3,L,727.9375
48,0,1455.875,C3,L,727.9375
72,53,1455.875,C5,R,727.9375
51,0,1455.875,D#3,R,727.9375
48,0,1456.0,C3,L,728.0
72,0,1456.0,C5,R,728.0
69,0,1456.0,A4,R,728.0
51,42,1456.125,D#3,R,728.0625
51,0,1456.1875,D#3,R,728.09375
69,36,1456.1875,A4,R,728.09375
69,36,1456.25,A4,R,728.125
69,0,1456.25,A4,R,728.125
72,56,1456.375,C5,R,728.1875
69,0,1456.375,A4,R,728.1875
48,47,1456.375,C3,L,728.1875
69,43,1456.5,A4,R,728.25
72,0,1456.5,C5,R,728.25
51,41,1456.5,D#3,L,728.25
48,0,1456.5,C3,L,728.25
48,51,1456.75,C3,L,728.375
51,0,1456.875,D#3,L,728.4375
72,62,1456.875,C5,L,728.4375
69,0,1457.0,A4,R,728.5
72,62,1457.0,C5,L,728.5
72,0,1457.0,C5,L,728.5
48,0,1457.0,C3,L,728.5
51,14,1457.125,D#3,L,728.5625
72,0,1457.125,C5,L,728.5625
69,41,1457.125,A4,R,728.5625
69,0,1457.25,A4,R,728.625
69,41,1457.25,A4,R,728.625
69,0,1457.3333333333333,A4,R,728.6666666666666
48,51,1457.3333333333333,C3,R,728.6666666666666
48,0,1457.4166666666665,C3,R,728.7083333333333
72,53,1457.4166666666667,C5,R,728.7083333333334
72,0,1457.5,C5,R,728.75
51,0,1457.5,D#3,L,728.75
69,50,1457.5625,A4,R,728.78125
51,48,1457.5625,D#3,L,728.78125
54,26,1457.625,F#3,R,728.8125
54,0,1457.75,F#3,R,728.875
48,50,1457.75,C3,L,728.875
51,0,1457.75,D#3,L,728.875
69,0,1457.75,A4,R,728.875
72,54,1457.75,C5,R,728.875
48,0,1458.0,C3,L,729.0
72,0,1458.0,C5,R,729.0
54,14,1458.0,F#3,R,729.0
51,40,1458.0625,D#3,L,729.03125
69,30,1458.111111111111,A4,R,729.0555555555555
54,0,1458.111111111111,F#3,R,729.0555555555555
69,0,1458.2222222222222,A4,R,729.1111111111111
72,52,1458.2222222222222,C5,R,729.1111111111111
48,52,1458.25,C3,L,729.125
51,0,1458.25,D#3,L,729.125
48,0,1458.4166666666667,C3,L,729.2083333333334
69,46,1458.4444444444443,A4,R,729.2222222222222
72,0,1458.4444444444443,C5,R,729.2222222222222
51,38,1458.4583333333333,D#3,L,729.2291666666666
51,38,1458.5,D#3,L,729.25
51,0,1458.5,D#3,L,729.25
69,0,1458.5555555555554,A4,R,729.2777777777777
54,9,1458.5555555555557,F#3,R,729.2777777777778
48,57,1458.625,C3,L,729.3125
51,0,1458.625,D#3,L,729.3125
72,57,1458.6666666666667,C5,R,729.3333333333334
54,0,1458.6666666666667,F#3,R,729.3333333333334
51,42,1458.875,D#3,L,729.4375
48,0,1458.875,C3,L,729.4375
72,0,1458.888888888889,C5,R,729.4444444444445
69,35,1458.888888888889,A4,R,729.4444444444445
69,0,1459.0,A4,R,729.5
51,0,1459.0,D#3,L,729.5
72,56,1459.111111111111,C5,R,729.5555555555555
48,48,1459.125,C3,L,729.5625
72,0,1459.2222222222222,C5,R,729.6111111111111
69,49,1459.2222222222222,A4,R,729.6111111111111
48,0,1459.25,C3,L,729.625
51,35,1459.25,D#3,L,729.625
69,49,1459.3333333333333,A4,R,729.6666666666666
69,0,1459.3333333333333,A4,R,729.6666666666666
51,0,1459.5,D#3,L,729.75
69,0,1459.5555555555554,A4,R,729.7777777777777
72,60,1459.5555555555557,C5,R,729.7777777777778
48,56,1459.5833333333333,C3,L,729.7916666666666
72,0,1459.7777777777778,C5,R,729.8888888888889
54,21,1459.8333333333333,F#3,L,729.9166666666666
48,0,1459.8333333333333,C3,L,729.9166666666666
51,36,1459.8333333333333,D#3,L,729.9166666666666
69,37,1459.888888888889,A4,R,729.9444444444445
72,55,1460.0,C5,R,730.0
48,48,1460.0,C3,L,730.0
54,0,1460.0,F#3,L,730.0
51,0,1460.0,D#3,L,730.0
69,0,1460.0,A4,R,730.0
48,0,1460.25,C3,L,730.125
51,48,1460.25,D#3,L,730.125
54,27,1460.25,F#3,L,730.125
69,40,1460.25,A4,R,730.125
72,0,1460.25,C5,R,730.125
72,49,1460.5,C5,R,730.25
69,0,1460.5,A4,R,730.25
51,0,1460.5,D#3,L,730.25
48,45,1460.5,C3,L,730.25
54,0,1460.5,F#3,L,730.25
69,45,1460.75,A4,R,730.375
72,0,1460.75,C5,R,730.375
48,0,1460.75,C3,L,730.375
51,44,1460.75,D#3,L,730.375
69,0,1461.0,A4,R,730.5
72,57,1461.0,C5,R,730.5
48,48,1461.0,C3,L,730.5
51,0,1461.0,D#3,L,730.5
72,0,1461.25,C5,R,730.625
48,0,1461.25,C3,L,730.625
51,39,1461.25,D#3,L,730.625
69,47,1461.25,A4,R,730.625
54,32,1461.3125,F#3,R,730.65625
54,0,1461.5,F#3,R,730.75
51,0,1461.5,D#3,L,730.75
48,49,1461.5416666666667,C3,L,730.7708333333334
72,57,1461.5416666666667,C5,R,730.7708333333334
48,0,1461.6666666666667,C3,L,730.8333333333334
51,44,1461.6666666666667,D#3,L,730.8333333333334
54,30,1461.6666666666667,F#3,L,730.8333333333334
72,0,1461.6666666666667,C5,R,730.8333333333334
69,48,1461.6666666666667,A4,R,730.8333333333334
69,0,1461.75,A4,R,730.875
69,48,1461.75,A4,R,730.875
69,0,1461.75,A4,R,730.875
51,0,1461.75,D#3,L,730.875
54,0,1461.75,F#3,L,730.875
51,44,1461.75,D#3,L,730.875
54,30,1461.75,F#3,L,730.875
72,59,1461.875,C5,R,730.9375
72,0,1462.0,C5,R,731.0
69,0,1462.0,A4,R,731.0
48,50,1462.0,C3,R,731.0
72,59,1462.0,C5,R,731.0
51,0,1462.0,D#3,L,731.0
54,0,1462.0,F#3,L,731.0
48,0,1462.125,C3,R,731.0625
69,49,1462.125,A4,R,731.0625
48,50,1462.125,C3,R,731.0625
51,31,1462.1666666666667,D#3,L,731.0833333333334
48,0,1462.375,C3,R,731.1875
69,0,1462.375,A4,R,731.1875
48,50,1462.375,C3,R,731.1875
72,62,1462.375,C5,R,731.1875
54,30,1462.4166666666667,F#3,L,731.2083333333334
48,14,1462.4166666666667,C3,L,731.2083333333334
51,0,1462.4166666666667,D#3,L,731.2083333333334
48,0,1462.5,C3,L,731.25
72,62,1462.5,C5,R,731.25
54,30,1462.5,F#3,L,731.25
48,14,1462.5,C3,L,731.25
54,0,1462.5,F#3,L,731.25
48,50,1462.5,C3,R,731.25
72,0,1462.5,C5,R,731.25
48,0,1462.5,C3,R,731.25
48,0,1462.75,C3,R,731.375
66,12,1462.75,F#4,R,731.375
72,0,1462.75,C5,R,731.375
72,0,1463.0,C5,R,731.5
66,0,1463.0,F#4,R,731.5
48,0,1463.0,C3,L,731.5
54,0,1463.0,F#3,L,731.5
48,61,1463.0,C3,L,731.5
72,65,1463.0,C5,R,731.5
67,44,1463.5,G4,R,731.75
72,0,1463.5,C5,R,731.75
48,0,1463.5,C3,L,731.75
52,38,1463.5,E3,L,731.75
55,19,1463.5625,G3,R,731.78125
55,0,1463.75,G3,R,731.875
48,50,1463.75,C3,L,731.875
72,51,1463.75,C5,R,731.875
52,0,1463.75,E3,L,731.875
67,50,1463.875,G4,R,731.9375
72,0,1463.875,C5,R,731.9375
52,45,1463.875,E3,L,731.9375
52,45,1464.0,E3,L,732.0
55,30,1464.0,G3,R,732.0
67,0,1464.0,G4,R,732.0
67,0,1464.0,G4,R,732.0
52,0,1464.0,E3,L,732.0
48,0,1464.0,C3,L,732.0
48,51,1464.0,C3,L,732.0
72,51,1464.125,C5,R,732.0625
55,0,1464.125,G3,R,732.0625
48,0,1464.25,C3,L,732.125
52,43,1464.375,E3,L,732.1875
67,47,1464.375,G4,R,732.1875
72,0,1464.375,C5,R,732.1875
55,32,1464.4375,G3,R,732.21875
55,32,1464.5,G3,R,732.25
55,0,1464.5,G3,R,732.25
67,0,1464.5,G4,R,732.25
52,0,1464.5,E3,L,732.25
72,55,1464.625,C5,R,732.3125
55,0,1464.625,G3,R,732.3125
48,54,1464.625,C3,L,732.3125
72,0,1464.75,C5,R,732.375
67,50,1464.8333333333333,G4,R,732.4166666666666
48,0,1464.875,C3,L,732.4375
52,37,1464.875,E3,L,732.4375
67,0,1464.9166666666665,G4,R,732.4583333333333
55,27,1464.9166666666667,G3,R,732.4583333333334
72,51,1465.0,C5,R,732.5
52,0,1465.0,E3,L,732.5
55,0,1465.0,G3,R,732.5
48,57,1465.0,C3,L,732.5
52,0,1465.0,E3,L,732.5
48,0,1465.25,C3,L,732.625
52,36,1465.25,E3,L,732.625
72,0,1465.25,C5,R,732.625
55,32,1465.25,G3,L,732.625
67,46,1465.25,G4,R,732.625
67,0,1465.5,G4,R,732.75
72,53,1465.5,C5,R,732.75
48,56,1465.5,C3,L,732.75
55,0,1465.5,G3,L,732.75
52,0,1465.5,E3,L,732.75
67,53,1465.75,G4,R,732.875
48,0,1465.75,C3,L,732.875
52,48,1465.75,E3,L,732.875
72,0,1465.75,C5,R,732.875
55,37,1465.75,G3,L,732.875
52,0,1466.0,E3,L,733.0
67,0,1466.0,G4,R,733.0
72,59,1466.0,C5,R,733.0
55,0,1466.0,G3,L,733.0
48,62,1466.0,C3,L,733.0
55,23,1466.2222222222222,G3,L,733.1111111111111
52,40,1466.2222222222222,E3,L,733.1111111111111
48,0,1466.2222222222222,C3,L,733.1111111111111
67,49,1466.25,G4,R,733.125
72,0,1466.25,C5,R,733.125
52,0,1466.4444444444443,E3,L,733.2222222222222
48,51,1466.4444444444443,C3,L,733.2222222222222
55,0,1466.4444444444443,G3,L,733.2222222222222
67,0,1466.5,G4,R,733.25
72,50,1466.5,C5,R,733.25
72,0,1466.625,C5,R,733.3125
67,55,1466.625,G4,R,733.3125
48,0,1466.6666666666665,C3,L,733.3333333333333
52,48,1466.6666666666667,E3,L,733.3333333333334
55,34,1466.6666666666667,G3,L,733.3333333333334
67,0,1466.875,G4,R,733.4375
72,47,1466.875,C5,R,733.4375
48,50,1466.888888888889,C3,L,733.4444444444445
55,0,1466.888888888889,G3,L,733.4444444444445
52,0,1466.888888888889,E3,L,733.4444444444445
48,0,1467.0,C3,L,733.5
72,0,1467.0,C5,R,733.5
67,49,1467.0833333333333,G4,R,733.5416666666666
52,33,1467.111111111111,E3,L,733.5555555555555
67,0,1467.1666666666665,G4,R,733.5833333333333
55,36,1467.1666666666667,G3,R,733.5833333333334
72,55,1467.3333333333333,C5,R,733.6666666666666
48,61,1467.3333333333333,C3,L,733.6666666666666
52,0,1467.3333333333333,E3,L,733.6666666666666
55,0,1467.3333333333335,G3,R,733.6666666666667
72,0,1467.5,C5,R,733.75
67,55,1467.5,G4,R,733.75
48,0,1467.5555555555554,C3,L,733.7777777777777
52,43,1467.5555555555557,E3,L,733.7777777777778
55,33,1467.5555555555557,G3,L,733.7777777777778
67,0,1467.75,G4,R,733.875
72,59,1467.75,C5,R,733.875
48,53,1467.7777777777778,C3,L,733.8888888888889
55,0,1467.7777777777778,G3,L,733.8888888888889
52,0,1467.7777777777778,E3,L,733.8888888888889
72,0,1467.875,C5,R,733.9375
67,54,1467.9375,G4,R,733.96875
67,54,1468.0,G4,R,734.0
48,0,1468.0,C3,L,734.0
52,32,1468.0,E3,L,734.0
55,44,1468.0,G3,L,734.0
67,0,1468.0,G4,R,734.0
55,0,1468.25,G3,L,734.125
72,55,1468.25,C5,R,734.125
52,0,1468.25,E3,L,734.125
48,60,1468.25,C3,L,734.125
67,0,1468.25,G4,R,734.125
52,32,1468.375,E3,L,734.1875
55,34,1468.375,G3,L,734.1875
67,52,1468.375,G4,R,734.1875
72,0,1468.375,C5,R,734.1875
48,0,1468.375,C3,L,734.1875
55,0,1468.5,G3,L,734.25
52,32,1468.5,E3,L,734.25
55,34,1468.5,G3,L,734.25
67,0,1468.5,G4,R,734.25
52,0,1468.5,E3,L,734.25
72,69,1468.6875,C5,R,734.34375
55,0,1468.75,G3,L,734.375
52,0,1468.75,E3,L,734.375
48,68,1468.75,C3,L,734.375
72,0,1468.75,C5,R,734.375
72,69,1468.75,C5,R,734.375
72,0,1468.875,C5,R,734.4375
67,57,1468.9375,G4,R,734.46875
67,0,1469.0,G4,R,734.5
67,57,1469.0,G4,R,734.5
48,0,1469.0,C3,L,734.5
52,41,1469.0,E3,L,734.5
52,0,1469.125,E3,L,734.5625
67,0,1469.1875,G4,R,734.59375
72,51,1469.1875,C5,R,734.59375
48,53,1469.1875,C3,L,734.59375
48,53,1469.25,C3,L,734.625
48,0,1469.25,C3,L,734.625
72,0,1469.25,C5,R,734.625
67,56,1469.3125,G4,R,734.65625
67,0,1469.5,G4,R,734.75
52,41,1469.5,E3,R,734.75
48,0,1469.5,C3,L,734.75
48,53,1469.5,C3,L,734.75
52,0,1469.5625,E3,R,734.78125
72,48,1469.5625,C5,R,734.78125
72,0,1469.75,C5,R,734.875
48,0,1469.75,C3,L,734.875
67,53,1469.75,G4,R,734.875
67,0,1469.875,G4,R,734.9375
60,22,1469.875,C4,R,734.9375
52,45,1469.875,E3,L,734.9375
55,25,1469.875,G3,L,734.9375
48,60,1470.0,C3,L,735.0
72,59,1470.0,C5,R,735.0
60,0,1470.0,C4,R,735.0
55,0,1470.0,G3,L,735.0
52,0,1470.0,E3,L,735.0
67,56,1470.25,G4,R,735.125
72,0,1470.25,C5,R,735.125
55,40,1470.3125,G3,R,735.15625
67,0,1470.3125,G4,R,735.15625
48,0,1470.3333333333333,C3,L,735.1666666666666
52,43,1470.3333333333333,E3,L,735.1666666666666
55,0,1470.5,G3,R,735.25
72,61,1470.5,C5,R,735.25
52,0,1470.5,E3,L,735.25
48,63,1470.5,C3,L,735.25
67,58,1470.625,G4,R,735.3125
72,0,1470.625,C5,R,735.3125
48,0,1470.75,C3,L,735.375
52,40,1470.75,E3,L,735.375
67,0,1470.75,G4,R,735.375
55,32,1470.75,G3,R,735.375
72,61,1470.875,C5,R,735.4375
48,66,1470.875,C3,L,735.4375
52,0,1470.875,E3,L,735.4375
55,0,1470.875,G3,R,735.4375
48,0,1471.0,C3,L,735.5
72,0,1471.0,C5,R,735.5
48,66,1471.0,C3,L,735.5
67,49,1471.125,G4,R,735.5625
55,29,1471.1875,G3,R,735.59375
48,0,1471.2,C3,L,735.6
52,39,1471.2,E3,L,735.6
72,64,1471.25,C5,R,735.625
55,29,1471.25,G3,R,735.625
55,0,1471.25,G3,R,735.625
48,65,1471.3,C3,L,735.65
52,0,1471.3,E3,L,735.65
72,0,1471.5,C5,R,735.75
55,0,1471.5,G3,R,735.75
67,0,1471.5,G4,R,735.75
67,52,1471.55,G4,R,735.775
48,0,1471.6,C3,L,735.8
55,34,1471.6,G3,R,735.8
52,42,1471.6,E3,L,735.8
67,52,1471.6,G4,R,735.8
67,0,1471.6,G4,R,735.8
67,0,1471.6999999999998,G4,R,735.8499999999999
55,0,1471.6999999999998,G3,R,735.8499999999999
60,2,1471.7,C4,R,735.85
72,59,1471.8,C5,R,735.9
48,63,1471.8,C3,L,735.9
52,0,1471.8,E3,L,735.9
60,0,1471.8,C4,R,735.9
72,0,1471.8999999999999,C5,R,735.9499999999999
67,59,1472.0,G4,R,736.0
48,0,1472.0,C3,L,736.0
52,36,1472.0,E3,L,736.0
55,38,1472.125,G3,R,736.0625
67,0,1472.125,G4,R,736.0625
55,0,1472.25,G3,R,736.125
72,51,1472.25,C5,R,736.125
52,0,1472.25,E3,L,736.125
48,61,1472.25,C3,L,736.125
72,0,1472.375,C5,R,736.1875
67,56,1472.375,G4,R,736.1875
67,0,1472.5,G4,R,736.25
55,40,1472.5,G3,R,736.25
48,0,1472.5,C3,L,736.25
52,51,1472.5,E3,L,736.25
72,61,1472.6666666666667,C5,L,736.3333333333334
52,0,1472.6666666666667,E3,L,736.3333333333334
48,64,1472.75,C3,R,736.375
72,0,1472.8333333333335,C5,L,736.4166666666667
55,0,1472.875,G3,R,736.4375
67,60,1472.875,G4,R,736.4375
52,30,1473.0,E3,L,736.5
55,41,1473.0,G3,R,736.5
48,0,1473.0,C3,R,736.5
67,0,1473.0,G4,R,736.5
55,0,1473.1,G3,R,736.55
72,63,1473.15,C5,R,736.575
72,0,1473.2,C5,R,736.6
48,61,1473.2,C3,R,736.6
67,58,1473.3,G4,R,736.65
48,61,1473.3,C3,R,736.65
48,0,1473.3,C3,R,736.65
67,0,1473.3999999999999,G4,R,736.6999999999999
48,0,1473.3999999999999,C3,R,736.6999999999999
48,61,1473.4,C3,R,736.7
55,36,1473.45,G3,R,736.725
48,61,1473.45,C3,R,736.725
48,0,1473.45,C3,R,736.725
55,0,1473.5,G3,R,736.75
55,36,1473.5,G3,R,736.75
48,0,1473.5,C3,R,736.75
52,41,1473.5,E3,L,736.75
52,0,1473.5,E3,L,736.75
72,63,1473.5625,C5,L,736.78125
72,0,1473.75,C5,L,736.875
67,60,1473.75,G4,L,736.875
60,30,1474.0,C4,L,737.0
52,0,1474.0,E3,L,737.0
55,0,1474.0,G3,R,737.0
74,59,1474.0,D5,R,737.0
67,0,1474.0,G4,L,737.0
50,58,1474.125,D3,L,737.0625
50,0,1474.375,D3,L,737.1875
50,58,1474.375,D3,L,737.1875
60,0,1474.375,C4,L,737.1875
50,0,1474.4375,D3,L,737.21875
53,50,1474.4375,F3,L,737.21875
56,38,1474.5,G#3,L,737.25
74,0,1474.5,D5,R,737.25
53,50,1474.5,F3,L,737.25
53,0,1474.5,F3,L,737.25
68,34,1474.5833333333333,G#4,R,737.2916666666666
71,47,1474.5833333333333,B4,R,737.2916666666666
68,0,1474.6666666666665,G#4,R,737.3333333333333
71,0,1474.6666666666665,B4,R,737.3333333333333
74,65,1474.6666666666667,D5,R,737.3333333333334
50,62,1474.75,D3,L,737.375
56,0,1474.75,G#3,L,737.375
74,0,1474.8333333333335,D5,R,737.4166666666667
68,51,1474.9166666666667,G#4,R,737.4583333333334
71,50,1474.9166666666667,B4,R,737.4583333333334
71,50,1475.0,B4,R,737.5
53,38,1475.0,F3,L,737.5
50,0,1475.0,D3,L,737.5
68,0,1475.0,G#4,R,737.5
71,0,1475.0,B4,R,737.5
68,51,1475.0,G#4,R,737.5
53,0,1475.0,F3,L,737.5
56,41,1475.0,G#3,L,737.5
53,0,1475.125,F3,L,737.5625
50,58,1475.125,D3,L,737.5625
68,0,1475.125,G#4,R,737.5625
74,67,1475.125,D5,R,737.5625
71,0,1475.125,B4,R,737.5625
56,0,1475.125,G#3,L,737.5625
71,56,1475.375,B4,R,737.6875
68,49,1475.375,G#4,R,737.6875
53,48,1475.375,F3,L,737.6875
56,46,1475.375,G#3,L,737.6875
74,0,1475.375,D5,R,737.6875
50,0,1475.375,D3,L,737.6875
56,0,1475.5,G#3,L,737.75
68,0,1475.5,G#4,R,737.75
71,0,1475.5,B4,R,737.75
53,0,1475.5,F3,L,737.75
74,66,1475.625,D5,R,737.8125
50,63,1475.625,D3,L,737.8125
50,0,1475.75,D3,L,737.875
56,39,1475.75,G#3,L,737.875
53,47,1475.75,F3,L,737.875
59,19,1475.75,B3,L,737.875
74,0,1475.75,D5,R,737.875
68,48,1475.8125,G#4,R,737.90625
71,52,1475.8125,B4,R,737.90625
56,0,1476.0,G#3,L,738.0
59,0,1476.0,B3,L,738.0
68,0,1476.0,G#4,R,738.0
71,0,1476.0,B4,R,738.0
74,67,1476.0,D5,R,738.0
50,62,1476.0,D3,L,738.0
53,0,1476.0,F3,L,738.0
56,38,1476.2222222222222,G#3,L,738.1111111111111
71,55,1476.2222222222222,B4,R,738.1111111111111
68,50,1476.2222222222222,G#4,R,738.1111111111111
59,28,1476.2222222222222,B3,L,738.1111111111111
50,0,1476.2222222222222,D3,L,738.1111111111111
74,0,1476.2222222222222,D5,R,738.1111111111111
53,48,1476.2222222222222,F3,L,738.1111111111111
56,0,1476.4444444444443,G#3,L,738.2222222222222
71,0,1476.4444444444443,B4,R,738.2222222222222
68,0,1476.4444444444443,G#4,R,738.2222222222222
59,0,1476.4444444444443,B3,L,738.2222222222222
74,65,1476.4444444444443,D5,R,738.2222222222222
53,0,1476.4444444444443,F3,L,738.2222222222222
50,68,1476.4444444444443,D3,L,738.2222222222222
74,0,1476.6666666666665,D5,R,738.3333333333333
50,0,1476.6666666666665,D3,L,738.3333333333333
53,53,1476.6666666666667,F3,L,738.3333333333334
68,26,1476.6666666666667,G#4,R,738.3333333333334
71,53,1476.6666666666667,B4,R,738.3333333333334
56,46,1476.6666666666667,G#3,L,738.3333333333334
50,73,1476.888888888889,D3,L,738.4444444444445
53,0,1476.888888888889,F3,L,738.4444444444445
68,0,1476.888888888889,G#4,R,738.4444444444445
56,0,1476.888888888889,G#3,L,738.4444444444445
71,0,1476.888888888889,B4,R,738.4444444444445
74,72,1476.888888888889,D5,R,738.4444444444445
56,48,1477.111111111111,G#3,L,738.5555555555555
53,50,1477.111111111111,F3,L,738.5555555555555
74,0,1477.111111111111,D5,R,738.5555555555555
71,53,1477.111111111111,B4,R,738.5555555555555
50,0,1477.111111111111,D3,L,738.5555555555555
68,52,1477.111111111111,G#4,R,738.5555555555555
68,0,1477.3333333333333,G#4,R,738.6666666666666
56,0,1477.3333333333333,G#3,L,738.6666666666666
53,0,1477.3333333333333,F3,L,738.6666666666666
74,68,1477.3333333333333,D5,R,738.6666666666666
71,0,1477.3333333333333,B4,R,738.6666666666666
50,70,1477.3333333333333,D3,L,738.6666666666666
50,0,1477.5555555555554,D3,L,738.7777777777777
74,0,1477.5555555555554,D5,R,738.7777777777777
71,53,1477.5555555555557,B4,R,738.7777777777778
56,34,1477.5555555555557,G#3,L,738.7777777777778
53,44,1477.5555555555557,F3,L,738.7777777777778
68,39,1477.5555555555557,G#4,R,738.7777777777778
71,0,1477.7777777777778,B4,R,738.8888888888889
74,62,1477.7777777777778,D5,R,738.8888888888889
68,0,1477.7777777777778,G#4,R,738.8888888888889
56,0,1477.7777777777778,G#3,L,738.8888888888889
53,0,1477.7777777777778,F3,L,738.8888888888889
50,63,1477.7777777777778,D3,L,738.8888888888889
56,46,1478.0,G#3,L,739.0
68,35,1478.0,G#4,R,739.0
71,55,1478.0,B4,R,739.0
50,0,1478.0,D3,L,739.0
53,48,1478.0,F3,L,739.0
74,0,1478.0,D5,R,739.0
56,0,1478.25,G#3,L,739.125
71,0,1478.25,B4,R,739.125
68,0,1478.25,G#4,R,739.125
53,0,1478.25,F3,L,739.125
74,65,1478.2916666666667,D5,R,739.1458333333334
50,67,1478.2916666666667,D3,L,739.1458333333334
74,0,1478.4166666666667,D5,R,739.2083333333334
53,41,1478.4166666666667,F3,L,739.2083333333334
71,55,1478.4166666666667,B4,R,739.2083333333334
56,53,1478.4166666666667,G#3,L,739.2083333333334
50,0,1478.4166666666667,D3,L,739.2083333333334
68,52,1478.4166666666667,G#4,R,739.2083333333334
56,0,1478.5,G#3,L,739.25
53,41,1478.5,F3,L,739.25
53,0,1478.5,F3,L,739.25
68,0,1478.5,G#4,R,739.25
71,0,1478.5,B4,R,739.25
74,68,1478.625,D5,R,739.3125
53,0,1478.625,F3,L,739.3125
50,67,1478.625,D3,L,739.3125
71,51,1478.875,B4,R,739.4375
74,0,1478.875,D5,R,739.4375
68,46,1478.875,G#4,R,739.4375
50,0,1478.875,D3,L,739.4375
53,46,1478.875,F3,L,739.4375
56,42,1478.875,G#3,L,739.4375
68,0,1479.0,G#4,R,739.5
71,0,1479.0,B4,R,739.5
74,62,1479.0,D5,R,739.5
53,0,1479.0,F3,L,739.5
56,0,1479.0,G#3,L,739.5
50,65,1479.0625,D3,L,739.53125
71,53,1479.25,B4,R,739.625
50,0,1479.25,D3,L,739.625
53,41,1479.25,F3,L,739.625
74,0,1479.375,D5,R,739.6875
56,29,1479.375,G#3,R,739.6875
56,0,1479.5,G#3,R,739.75
74,70,1479.5,D5,R,739.75
50,70,1479.5,D3,L,739.75
53,0,1479.5,F3,L,739.75
53,52,1479.75,F3,L,739.875
71,55,1479.75,B4,R,739.875
68,56,1479.75,G#4,R,739.875
74,0,1479.75,D5,R,739.875
50,0,1479.75,D3,L,739.875
56,36,1479.75,G#3,L,739.875
68,0,1480.0,G#4,R,740.0
74,66,1480.0,D5,R,740.0
53,0,1480.0,F3,L,740.0
56,0,1480.0,G#3,L,740.0
71,0,1480.0,B4,R,740.0
71,0,1480.0,B4,R,740.0
50,66,1480.0,D3,L,740.0
71,47,1480.125,B4,R,740.0625
50,0,1480.2,D3,L,740.1
68,41,1480.2,G#4,L,740.1
56,38,1480.25,G#3,R,740.125
74,0,1480.25,D5,R,740.125
68,0,1480.3,G#4,L,740.15
53,31,1480.3,F3,L,740.15
53,0,1480.35,F3,L,740.175
53,31,1480.35,F3,L,740.175
59,3,1480.35,B3,L,740.175
59,0,1480.5,B3,L,740.25
71,0,1480.5,B4,R,740.25
56,0,1480.5,G#3,R,740.25
53,0,1480.5,F3,L,740.25
74,63,1480.5,D5,R,740.25
50,66,1480.55,D3,L,740.275
50,0,1480.6,D3,L,740.3
50,66,1480.6,D3,L,740.3
71,53,1480.625,B4,R,740.3125
50,0,1480.6499999999999,D3,L,740.3249999999999
68,44,1480.65,G#4,L,740.325
74,0,1480.75,D5,R,740.375
59,18,1480.75,B3,R,740.375
56,40,1480.8,G#3,L,740.4
53,43,1480.8,F3,L,740.4
68,0,1480.8000000000002,G#4,L,740.4000000000001
74,66,1480.875,D5,R,740.4375
59,0,1480.875,B3,R,740.4375
53,0,1480.8999999999999,F3,L,740.4499999999999
56,0,1480.8999999999999,G#3,L,740.4499999999999
50,72,1480.9,D3,L,740.45
74,0,1481.0,D5,R,740.5
74,66,1481.0,D5,R,740.5
68,43,1481.0,G#4,L,740.5
50,72,1481.0,D3,L,740.5
71,0,1481.0,B4,R,740.5
50,0,1481.0,D3,L,740.5
74,0,1481.0833333333333,D5,R,740.5416666666666
71,60,1481.0833333333333,B4,R,740.5416666666666
53,49,1481.125,F3,L,740.5625
50,0,1481.125,D3,L,740.5625
71,0,1481.1666666666665,B4,R,740.5833333333333
56,51,1481.1666666666667,G#3,R,740.5833333333334
74,67,1481.3333333333333,D5,R,740.6666666666666
56,0,1481.3333333333335,G#3,R,740.6666666666667
53,0,1481.375,F3,L,740.6875
50,68,1481.375,D3,L,740.6875
68,48,1481.5,G#4,L,740.75
71,54,1481.5,B4,R,740.75
50,0,1481.5,D3,L,740.75
74,0,1481.5,D5,R,740.75
71,0,1481.625,B4,R,740.8125
56,25,1481.625,G#3,R,740.8125
68,0,1481.625,G#4,L,740.8125
53,49,1481.625,F3,L,740.8125
50,70,1481.75,D3,L,740.875
53,0,1481.75,F3,L,740.875
74,66,1481.75,D5,R,740.875
56,0,1481.75,G#3,R,740.875
71,56,1482.0,B4,R,741.0
74,0,1482.0,D5,R,741.0
68,0,1482.0,G#4,L,741.0
68,43,1482.0,G#4,L,741.0
50,0,1482.0,D3,L,741.0
53,34,1482.125,F3,L,741.0625
71,0,1482.125,B4,R,741.0625
68,0,1482.125,G#4,L,741.0625
56,52,1482.125,G#3,R,741.0625
56,0,1482.25,G#3,R,741.125
74,75,1482.25,D5,R,741.125
50,77,1482.25,D3,L,741.125
53,0,1482.25,F3,L,741.125
53,57,1482.5,F3,L,741.25
50,0,1482.5,D3,L,741.25
68,53,1482.5,G#4,R,741.25
74,0,1482.5,D5,R,741.25
71,60,1482.5,B4,R,741.25
56,47,1482.5625,G#3,L,741.28125
74,65,1482.75,D5,R,741.375
71,0,1482.75,B4,R,741.375
56,0,1482.75,G#3,L,741.375
50,68,1482.75,D3,L,741.375
68,0,1482.75,G#4,R,741.375
68,47,1483.0,G#4,R,741.5
71,58,1483.0,B4,R,741.5
50,0,1483.0,D3,L,741.5
53,53,1483.0,F3,L,741.5
56,39,1483.0,G#3,L,741.5
53,0,1483.0,F3,L,741.5
59,22,1483.0,B3,L,741.5
74,0,1483.0,D5,R,741.5
50,70,1483.1666666666667,D3,L,741.5833333333334
56,0,1483.1666666666667,G#3,L,741.5833333333334
59,0,1483.1666666666667,B3,L,741.5833333333334
53,0,1483.1666666666667,F3,L,741.5833333333334
74,67,1483.25,D5,R,741.625
71,0,1483.25,B4,R,741.625
68,0,1483.25,G#4,R,741.625
50,0,1483.4166666666667,D3,L,741.7083333333334
53,60,1483.4166666666667,F3,L,741.7083333333334
56,48,1483.4166666666667,G#3,L,741.7083333333334
59,40,1483.4166666666667,B3,L,741.7083333333334
53,0,1483.5,F3,L,741.75
56,0,1483.5,G#3,L,741.75
59,0,1483.5,B3,L,741.75
53,60,1483.5,F3,L,741.75
56,48,1483.5,G#3,L,741.75
59,40,1483.5,B3,L,741.75
74,0,1483.5,D5,R,741.75
68,38,1483.5,G#4,R,741.75
71,57,1483.5,B4,R,741.75
50,73,1483.625,D3,L,741.8125
68,0,1483.625,G#4,R,741.8125
71,0,1483.625,B4,R,741.8125
74,71,1483.625,D5,R,741.8125
53,0,1483.75,F3,L,741.875
56,0,1483.75,G#3,L,741.875
59,0,1483.75,B3,L,741.875
53,59,1483.75,F3,L,741.875
68,45,1483.875,G#4,R,741.9375
71,63,1483.875,B4,R,741.9375
74,0,1483.875,D5,R,741.9375
53,59,1483.875,F3,L,741.9375
56,46,1483.875,G#3,L,741.9375
53,0,1483.875,F3,L,741.9375
71,0,1484.0,B4,R,742.0
56,46,1484.0,G#3,L,742.0
53,59,1484.0,F3,L,742.0
56,0,1484.0,G#3,L,742.0
50,0,1484.0,D3,L,742.0
68,0,1484.0,G#4,R,742.0
71,63,1484.0,B4,R,742.0
53,0,1484.0,F3,L,742.0
53,0,1484.0833333333333,F3,L,742.0416666666666
56,0,1484.0833333333333,G#3,L,742.0416666666666
50,68,1484.0833333333333,D3,L,742.0416666666666
71,0,1484.125,B4,R,742.0625
74,67,1484.125,D5,R,742.0625
50,0,1484.3333333333333,D3,L,742.1666666666666
53,39,1484.3333333333333,F3,L,742.1666666666666
56,48,1484.3333333333333,G#3,L,742.1666666666666
74,0,1484.375,D5,R,742.1875
68,39,1484.375,G#4,R,742.1875
71,64,1484.375,B4,R,742.1875
68,0,1484.5,G#4,R,742.25
56,0,1484.5,G#3,L,742.25
71,0,1484.5,B4,R,742.25
53,0,1484.5,F3,L,742.25
74,71,1484.625,D5,R,742.3125
50,60,1484.6666666666667,D3,L,742.3333333333334
71,50,1484.75,B4,R,742.375
50,60,1484.8333333333333,D3,L,742.4166666666666
53,28,1484.8333333333333,F3,L,742.4166666666666
50,0,1484.8333333333335,D3,L,742.4166666666667
74,0,1484.875,D5,R,742.4375
68,54,1484.875,G#4,R,742.4375
71,0,1485.0,B4,R,742.5
68,0,1485.0,G#4,R,742.5
68,54,1485.0,G#4,R,742.5
74,75,1485.0,D5,R,742.5
50,0,1485.0,D3,L,742.5
53,28,1485.0,F3,L,742.5
53,0,1485.0,F3,L,742.5
68,0,1485.25,G#4,R,742.625
68,25,1485.25,G#4,R,742.625
74,0,1485.25,D5,R,742.625
50,79,1485.5,D3,L,742.75
53,0,1485.5,F3,L,742.75
74,80,1485.5,D5,R,742.75
69,60,1485.75,A4,R,742.875
68,0,1485.75,G#4,R,742.875
74,0,1486.0,D5,R,743.0
53,50,1486.0,F3,L,743.0
50,0,1486.0,D3,L,743.0
69,0,1486.0,A4,R,743.0
57,54,1486.0,A3,R,743.0
69,60,1486.0,A4,R,743.0
62,34,1486.0625,D4,L,743.03125
62,0,1486.25,D4,L,743.125
50,65,1486.25,D3,L,743.125
74,72,1486.25,D5,R,743.125
69,0,1486.25,A4,R,743.125
57,0,1486.25,A3,R,743.125
62,37,1486.5,D4,L,743.25
69,63,1486.5,A4,R,743.25
50,0,1486.5,D3,L,743.25
57,52,1486.5,A3,L,743.25
53,48,1486.5,F3,L,743.25
74,0,1486.5,D5,R,743.25
62,0,1486.75,D4,L,743.375
50,69,1486.75,D3,L,743.375
69,0,1486.75,A4,R,743.375
57,0,1486.75,A3,L,743.375
74,75,1486.75,D5,R,743.375
53,0,1486.75,F3,L,743.375
53,53,1487.0,F3,L,743.5
57,56,1487.0,A3,L,743.5
62,41,1487.0,D4,L,743.5
69,68,1487.0,A4,R,743.5
74,0,1487.0,D5,R,743.5
50,0,1487.0,D3,L,743.5
53,0,1487.0,F3,L,743.5
65,26,1487.0625,F4,R,743.53125
65,26,1487.125,F4,R,743.5625
74,74,1487.125,D5,R,743.5625
65,0,1487.125,F4,R,743.5625
50,78,1487.125,D3,L,743.5625
62,0,1487.125,D4,L,743.5625
57,0,1487.125,A3,L,743.5625
53,0,1487.125,F3,L,743.5625
74,74,1487.25,D5,R,743.625
74,0,1487.25,D5,R,743.625
65,0,1487.25,F4,R,743.625
50,0,1487.375,D3,L,743.6875
65,33,1487.375,F4,L,743.6875
69,67,1487.375,A4,R,743.6875
62,50,1487.375,D4,L,743.6875
57,63,1487.375,A3,L,743.6875
74,0,1487.375,D5,R,743.6875
53,60,1487.375,F3,L,743.6875
57,0,1487.5,A3,L,743.75
65,0,1487.5,F4,L,743.75
69,0,1487.5,A4,R,743.75
53,60,1487.5,F3,L,743.75
74,72,1487.5,D5,R,743.75
62,0,1487.5,D4,L,743.75
50,76,1487.5,D3,L,743.75
53,0,1487.5,F3,L,743.75
57,58,1487.75,A3,L,743.875
74,0,1487.75,D5,R,743.875
69,67,1487.75,A4,R,743.875
53,0,1487.75,F3,L,743.875
53,54,1487.75,F3,L,743.875
69,68,1487.75,A4,R,743.875
50,0,1487.75,D3,L,743.875
69,0,1487.75,A4,R,743.875
62,18,1487.9375,D4,R,743.96875
69,0,1487.9375,A4,R,743.96875
69,0,1487.9375,A4,R,743.96875
50,73,1488.0,D3,L,744.0
57,0,1488.0,A3,L,744.0
62,0,1488.0,D4,R,744.0
74,70,1488.0,D5,R,744.0
53,0,1488.0,F3,L,744.0
62,18,1488.0,D4,R,744.0
50,0,1488.25,D3,L,744.125
69,62,1488.25,A4,R,744.125
53,47,1488.25,F3,L,744.125
57,53,1488.25,A3,L,744.125
62,47,1488.25,D4,L,744.125
62,0,1488.25,D4,R,744.125
65,10,1488.375,F4,R,744.1875
74,0,1488.375,D5,R,744.1875
53,0,1488.5,F3,L,744.25
57,0,1488.5,A3,L,744.25
50,79,1488.5,D3,L,744.25
74,68,1488.5,D5,R,744.25
65,0,1488.5,F4,R,744.25
62,0,1488.5,D4,L,744.25
74,0,1488.625,D5,R,744.3125
69,67,1488.71875,A4,R,744.359375
62,24,1488.75,D4,L,744.375
53,55,1488.75,F3,L,744.375
50,0,1488.75,D3,L,744.375
57,58,1488.75,A3,L,744.375
69,67,1488.75,A4,R,744.375
69,0,1488.75,A4,R,744.375
69,0,1489.0,A4,R,744.5
53,0,1489.0,F3,L,744.5
57,0,1489.0,A3,L,744.5
62,0,1489.0,D4,L,744.5
50,75,1489.0,D3,L,744.5
69,0,1489.0,A4,R,744.5
74,70,1489.0,D5,R,744.5
74,0,1489.125,D5,R,744.5625
69,52,1489.125,A4,R,744.5625
50,0,1489.25,D3,L,744.625
53,40,1489.25,F3,L,744.625
57,47,1489.25,A3,L,744.625
69,0,1489.25,A4,R,744.625
62,23,1489.25,D4,R,744.625
62,0,1489.375,D4,R,744.6875
74,68,1489.375,D5,R,744.6875
74,0,1489.5,D5,R,744.75
74,68,1489.5,D5,R,744.75
50,75,1489.5,D3,L,744.75
57,0,1489.5,A3,L,744.75
53,0,1489.5,F3,L,744.75
74,0,1489.5833333333333,D5,R,744.7916666666666
69,62,1489.5833333333333,A4,R,744.7916666666666
50,0,1489.625,D3,L,744.8125
57,51,1489.625,A3,L,744.8125
53,50,1489.625,F3,L,744.8125
69,0,1489.6666666666665,A4,R,744.8333333333333
62,33,1489.6666666666667,D4,R,744.8333333333334
62,33,1489.75,D4,R,744.875
62,0,1489.75,D4,R,744.875
62,0,1489.8125,D4,R,744.90625
74,73,1489.8125,D5,R,744.90625
50,74,1489.875,D3,R,744.9375
50,0,1490.0,D3,R,745.0
57,0,1490.0,A3,L,745.0
50,74,1490.0,D3,R,745.0
69,63,1490.0,A4,R,745.0
53,0,1490.0,F3,L,745.0
74,0,1490.0,D5,R,745.0
50,0,1490.125,D3,R,745.0625
69,0,1490.125,A4,R,745.0625
62,44,1490.125,D4,R,745.0625
53,49,1490.125,F3,L,745.0625
57,57,1490.125,A3,L,745.0625
74,72,1490.25,D5,R,745.125
57,0,1490.25,A3,L,745.125
50,74,1490.25,D3,L,745.125
69,61,1490.375,A4,R,745.1875
62,0,1490.375,D4,R,745.1875
53,0,1490.5,F3,L,745.25
69,0,1490.5,A4,R,745.25
74,0,1490.5,D5,R,745.25
62,31,1490.5,D4,R,745.25
69,61,1490.5,A4,R,745.25
53,43,1490.5,F3,L,745.25
69,0,1490.75,A4,R,745.375
74,66,1490.75,D5,R,745.375
74,0,1490.875,D5,R,745.4375
69,63,1490.875,A4,R,745.4375
57,55,1491.0,A3,L,745.5
50,0,1491.0,D3,L,745.5
62,0,1491.0,D4,R,745.5
69,0,1491.0,A4,R,745.5
53,0,1491.0,F3,L,745.5
65,28,1491.0833333333333,F4,R,745.5416666666666
65,0,1491.1666666666665,F4,R,745.5833333333333
57,0,1491.25,A3,L,745.625
52,74,1491.25,E3,L,745.625
73,76,1491.3333333333333,C#5,R,745.6666666666666
73,0,1491.5,C#5,R,745.75
52,0,1491.5,E3,L,745.75
52,74,1491.5,E3,L,745.75
69,53,1491.625,A4,R,745.8125
55,60,1491.625,G3,L,745.8125
64,43,1491.625,E4,L,745.8125
61,55,1491.625,C#4,L,745.8125
52,0,1491.625,E3,L,745.8125
67,46,1491.625,G4,L,745.8125
57,51,1491.625,A3,L,745.8125
52,59,1491.875,E3,L,745.9375
67,0,1491.875,G4,L,745.9375
64,0,1491.875,E4,L,745.9375
73,67,1491.875,C#5,R,745.9375
61,0,1491.875,C#4,L,745.9375
52,59,1492.0,E3,L,746.0
55,0,1492.0,G3,L,746.0
73,0,1492.0,C#5,R,746.0
73,67,1492.0,C#5,R,746.0
69,0,1492.0,A4,R,746.0
52,0,1492.0,E3,L,746.0
57,0,1492.0,A3,L,746.0
55,52,1492.125,G3,L,746.0625
61,38,1492.125,C#4,L,746.0625
52,0,1492.125,E3,L,746.0625
69,50,1492.125,A4,R,746.0625
52,59,1492.125,E3,L,746.0625
55,52,1492.25,G3,L,746.125
57,42,1492.25,A3,R,746.125
61,0,1492.25,C#4,L,746.125
55,0,1492.25,G3,L,746.125
52,0,1492.25,E3,L,746.125
73,0,1492.25,C#5,R,746.125
61,38,1492.25,C#4,L,746.125
57,0,1492.375,A3,R,746.1875
73,76,1492.375,C#5,R,746.1875
52,63,1492.375,E3,L,746.1875
61,0,1492.375,C#4,L,746.1875
55,0,1492.375,G3,L,746.1875
52,0,1492.5,E3,L,746.25
73,0,1492.5,C#5,R,746.25
52,63,1492.5,E3,L,746.25
69,0,1492.5,A4,R,746.25
52,0,1492.625,E3,L,746.3125
55,55,1492.625,G3,L,746.3125
57,31,1492.625,A3,L,746.3125
69,54,1492.625,A4,R,746.3125
61,39,1492.625,C#4,L,746.3125
67,53,1492.625,G4,L,746.3125
69,0,1492.875,A4,R,746.4375
73,78,1492.875,C#5,R,746.4375
67,0,1492.875,G4,L,746.4375
52,68,1492.875,E3,L,746.4375
61,0,1492.875,C#4,L,746.4375
57,0,1492.875,A3,L,746.4375
55,0,1492.875,G3,L,746.4375
73,0,1493.0,C#5,R,746.5
69,64,1493.0,A4,R,746.5
52,0,1493.0,E3,L,746.5
55,59,1493.0625,G3,L,746.53125
57,50,1493.0625,A3,L,746.53125
61,38,1493.0625,C#4,L,746.53125
67,52,1493.125,G4,R,746.5625
55,0,1493.25,G3,L,746.625
67,0,1493.25,G4,R,746.625
73,75,1493.25,C#5,R,746.625
57,0,1493.25,A3,L,746.625
61,0,1493.25,C#4,L,746.625
52,67,1493.25,E3,L,746.625
52,0,1493.5,E3,L,746.75
69,0,1493.5,A4,R,746.75
73,0,1493.5,C#5,R,746.75
69,62,1493.5,A4,R,746.75
67,52,1493.5,G4,L,746.75
61,37,1493.5,C#4,L,746.75
55,59,1493.5,G3,L,746.75
57,39,1493.625,A3,R,746.8125
67,0,1493.75,G4,L,746.875
55,0,1493.75,G3,L,746.875
61,0,1493.75,C#4,L,746.875
73,77,1493.75,C#5,R,746.875
57,0,1493.75,A3,R,746.875
52,68,1493.75,E3,L,746.875
61,35,1494.0,C#4,L,747.0
57,46,1494.0,A3,L,747.0
55,54,1494.0,G3,L,747.0
52,0,1494.0,E3,L,747.0
69,59,1494.0,A4,R,747.0
69,0,1494.0,A4,R,747.0
73,0,1494.0,C#5,R,747.0
67,49,1494.125,G4,R,747.0625
61,0,1494.25,C#4,L,747.125
57,0,1494.25,A3,L,747.125
55,0,1494.25,G3,L,747.125
67,0,1494.25,G4,R,747.125
73,80,1494.25,C#5,R,747.125
52,77,1494.25,E3,L,747.125
69,59,1494.375,A4,R,747.1875
69,0,1494.375,A4,R,747.1875
67,49,1494.5,G4,R,747.25
52,0,1494.5,E3,L,747.25
55,59,1494.5,G3,L,747.25
73,0,1494.5,C#5,R,747.25
57,52,1494.5,A3,L,747.25
69,0,1494.5,A4,R,747.25
69,59,1494.5,A4,R,747.25
61,40,1494.5,C#4,L,747.25
73,76,1494.75,C#5,R,747.375
52,68,1494.75,E3,L,747.375
61,0,1494.75,C#4,L,747.375
57,0,1494.75,A3,L,747.375
69,0,1494.75,A4,R,747.375
55,0,1494.75,G3,L,747.375
67,0,1494.75,G4,R,747.375
61,46,1494.875,C#4,L,747.4375
69,62,1494.875,A4,R,747.4375
55,56,1494.875,G3,L,747.4375
52,0,1494.875,E3,L,747.4375
67,54,1494.875,G4,L,747.4375
61,0,1495.0,C#4,L,747.5
57,47,1495.0,A3,R,747.5
67,54,1495.0,G4,L,747.5
69,62,1495.0,A4,R,747.5
69,0,1495.0,A4,R,747.5
55,0,1495.0,G3,L,747.5
67,0,1495.0,G4,L,747.5
55,56,1495.0,G3,L,747.5
73,0,1495.0,C#5,R,747.5
67,0,1495.125,G4,L,747.5625
57,0,1495.125,A3,R,747.5625
73,76,1495.125,C#5,R,747.5625
55,0,1495.125,G3,L,747.5625
52,71,1495.125,E3,L,747.5625
73,0,1495.375,C#5,R,747.6875
69,56,1495.375,A4,R,747.6875
67,46,1495.375,G4,L,747.6875
52,0,1495.375,E3,L,747.6875
55,45,1495.375,G3,L,747.6875
61,38,1495.375,C#4,L,747.6875
69,0,1495.5,A4,R,747.75
73,76,1495.5,C#5,R,747.75
67,0,1495.5,G4,L,747.75
57,12,1495.5,A3,L,747.75
52,67,1495.5,E3,L,747.75
67,46,1495.5,G4,L,747.75
51,51,1495.5,D#3,L,747.75
61,0,1495.5,C#4,L,747.75
55,0,1495.5,G3,L,747.75
52,0,1495.75,E3,L,747.875
55,16,1495.75,G3,L,747.875
67,0,1495.75,G4,L,747.875
57,12,1495.75,A3,L,747.875
57,0,1495.75,A3,L,747.875
69,0,1495.75,A4,R,747.875
69,63,1495.75,A4,R,747.875
51,0,1495.75,D#3,L,747.875
51,51,1495.75,D#3,L,747.875
73,0,1495.75,C#5,R,747.875
51,0,1495.875,D#3,L,747.9375
61,36,1495.875,C#4,L,747.9375
57,0,1495.875,A3,L,747.9375
67,44,1495.875,G4,R,747.9375
57,47,1496.0,A3,R,748.0
69,0,1496.0,A4,R,748.0
67,0,1496.0,G4,R,748.0
61,0,1496.0,C#4,L,748.0
55,0,1496.0,G3,L,748.0
52,68,1496.0,E3,L,748.0
73,77,1496.0625,C#5,R,748.03125
57,0,1496.0625,A3,R,748.03125
55,58,1496.25,G3,L,748.125
67,43,1496.25,G4,L,748.125
61,25,1496.25,C#4,L,748.125
73,0,1496.25,C#5,R,748.125
69,59,1496.25,A4,R,748.125
57,48,1496.375,A3,R,748.1875
57,0,1496.5,A3,R,748.25
67,0,1497.0,G4,L,748.5
61,0,1497.0,C#4,L,748.5
55,0,1497.0,G3,L,748.5
52,0,1497.0,E3,L,748.5
69,0,1497.0,A4,R,748.5
87,41,1497.75,D#6,R,748.875
35,45,1498.0,B1,R,749.0
87,0,1498.0,D#6,R,749.0
87,41,1498.0,D#6,R,749.0
89,48,1498.5,F6,R,749.25
35,0,1498.5,B1,R,749.25
36,39,1498.5,C2,L,749.25
89,0,1498.75,F6,R,749.375
87,54,1498.75,D#6,R,749.375
35,49,1498.75,B1,L,749.375
35,0,1499.0,B1,L,749.5
87,0,1499.0,D#6,R,749.5
89,54,1499.0,F6,R,749.5
35,49,1499.0,B1,L,749.5
36,0,1499.0,C2,L,749.5
87,0,1499.0,D#6,R,749.5
36,44,1499.25,C2,R,749.625
35,47,1499.5,B1,L,749.75
86,52,1499.5,D6,R,749.75
36,0,1499.5,C2,R,749.75
35,0,1499.5,B1,L,749.75
86,0,1499.8333333333333,D6,R,749.9166666666666
87,42,1499.8333333333333,D#6,R,749.9166666666666
87,0,1499.9166666666665,D#6,R,749.9583333333333
36,36,1499.9166666666667,C2,R,749.9583333333334
87,42,1499.9166666666667,D#6,R,749.9583333333334
36,0,1500.0,C2,R,750.0
87,0,1500.0,D#6,R,750.0
89,0,1500.0,F6,R,750.0
35,50,1500.0,B1,L,750.0
35,0,1500.0,B1,L,750.0
36,36,1500.0,C2,R,750.0
86,45,1500.0,D6,R,750.0
87,52,1500.5,D#6,R,750.25
86,0,1500.5,D6,R,750.25
36,0,1500.5,C2,R,750.25
36,36,1500.75,C2,R,750.375
87,0,1500.75,D#6,R,750.375
84,51,1500.875,C6,R,750.4375
35,0,1501.0,B1,L,750.5
87,53,1501.0,D#6,R,750.5
36,0,1501.0,C2,R,750.5
35,47,1501.0,B1,L,750.5
84,0,1501.0,C6,R,750.5
84,51,1501.0,C6,R,750.5
87,0,1501.25,D#6,R,750.625
36,42,1501.25,C2,R,750.625
87,53,1501.25,D#6,R,750.625
35,0,1501.5,B1,L,750.75
36,0,1501.5,C2,R,750.75
87,0,1501.5,D#6,R,750.75
35,43,1501.5,B1,L,750.75
84,46,1501.5625,C6,R,750.78125
84,0,1501.75,C6,R,750.875
87,50,1501.8125,D#6,R,750.90625
35,0,1502.0,B1,L,751.0
84,0,1502.0,C6,R,751.0
36,43,1502.0,C2,R,751.0
87,0,1502.0,D#6,R,751.0
36,0,1502.25,C2,R,751.125
75,45,1502.3125,D#5,R,751.15625
35,44,1502.375,B1,R,751.1875
35,44,1502.5,B1,R,751.25
35,0,1502.5,B1,R,751.25
75,0,1502.5,D#5,R,751.25
84,48,1502.625,C6,R,751.3125
35,0,1502.75,B1,R,751.375
36,40,1502.75,C2,R,751.375
84,0,1502.875,C6,R,751.4375
75,46,1502.875,D#5,R,751.4375
35,46,1502.875,B1,L,751.4375
75,0,1503.0,D#5,R,751.5
75,46,1503.0,D#5,R,751.5
36,0,1503.0,C2,R,751.5
84,45,1503.0,C6,R,751.5
35,0,1503.0,B1,L,751.5
36,47,1503.0,C2,L,751.5
36,0,1503.5,C2,L,751.75
81,42,1503.5,A5,R,751.75
84,0,1503.5,C6,R,751.75
30,45,1503.625,F#1,L,751.8125
30,0,1504.0,F#1,L,752.0
81,0,1504.0,A5,R,752.0
36,43,1504.0,C2,R,752.0
75,0,1504.0,D#5,R,752.0
84,53,1504.125,C6,R,752.0625
30,39,1504.25,F#1,R,752.125
84,0,1504.25,C6,R,752.125
30,0,1504.5,F#1,R,752.25
81,43,1504.5,A5,R,752.25
84,34,1504.625,C6,R,752.3125
81,0,1504.625,A5,R,752.3125
36,45,1504.625,C2,L,752.3125
84,0,1505.0,C6,R,752.5
75,59,1505.0,D#5,R,752.5
36,0,1505.0,C2,R,752.5
36,0,1505.0,C2,L,752.5
30,37,1505.0,F#1,L,752.5
36,44,1505.25,C2,L,752.625
84,45,1505.25,C6,R,752.625
30,0,1505.25,F#1,L,752.625
75,0,1505.25,D#5,R,752.625
75,47,1505.5,D#5,R,752.75
30,27,1505.5,F#1,L,752.75
36,0,1505.5,C2,L,752.75
84,0,1505.5,C6,R,752.75
36,45,1505.875,C2,L,752.9375
30,0,1505.875,F#1,L,752.9375
84,45,1505.875,C6,R,752.9375
75,0,1505.875,D#5,R,752.9375
36,45,1506.0,C2,L,753.0
36,0,1506.0,C2,L,753.0
84,45,1506.0,C6,R,753.0
84,0,1506.0,C6,R,753.0
74,51,1506.25,D5,R,753.125
84,0,1506.25,C6,R,753.125
36,0,1506.25,C2,L,753.125
30,32,1506.25,F#1,L,753.125
30,0,1506.5,F#1,L,753.25
74,0,1506.5,D5,R,753.25
36,44,1506.5833333333333,C2,L,753.2916666666666
84,48,1506.5833333333333,C6,R,753.2916666666666
84,0,1506.8333333333333,C6,R,753.4166666666666
74,48,1506.8333333333333,D5,R,753.4166666666666
36,0,1506.8333333333333,C2,L,753.4166666666666
30,37,1506.8333333333333,F#1,L,753.4166666666666
36,46,1507.0,C2,L,753.5
30,0,1507.0,F#1,L,753.5
74,0,1507.0,D5,R,753.5
84,52,1507.125,C6,R,753.5625
36,0,1507.5,C2,L,753.75
84,0,1507.5,C6,R,753.75
72,41,1507.5,C5,R,753.75
30,32,1507.5,F#1,L,753.75
72,0,1507.6666666666667,C5,R,753.8333333333334
30,0,1507.75,F#1,L,753.875
36,46,1507.8125,C2,L,753.90625
84,31,1507.8333333333333,C6,R,753.9166666666666
84,0,1508.0,C6,R,754.0
36,0,1508.0,C2,L,754.0
30,37,1508.05,F#1,R,754.025
30,0,1508.1,F#1,R,754.05
30,37,1508.1,F#1,R,754.05
72,44,1508.1,C5,R,754.05
30,0,1508.3,F#1,R,754.15
72,0,1508.3,C5,R,754.15
84,48,1508.3,C6,R,754.15
84,0,1508.3999999999999,C6,R,754.1999999999999
36,47,1508.4,C2,R,754.2
36,0,1508.5,C2,R,754.25
36,47,1508.5,C2,R,754.25
35,54,1508.75,B1,L,754.375
36,0,1508.75,C2,R,754.375
87,62,1508.75,D#6,R,754.375
36,49,1509.0,C2,L,754.5
35,0,1509.0,B1,L,754.5
89,60,1509.0,F6,R,754.5
87,0,1509.0,D#6,R,754.5
35,52,1509.5,B1,L,754.75
36,0,1509.5,C2,L,754.75
87,58,1509.5,D#6,R,754.75
89,0,1509.5,F6,R,754.75
89,61,1509.75,F6,R,754.875
87,0,1509.75,D#6,R,754.875
35,0,1509.75,B1,L,754.875
36,48,1509.75,C2,L,754.875
86,65,1510.0,D6,R,755.0
89,0,1510.0,F6,R,755.0
36,0,1510.0,C2,L,755.0
35,50,1510.1666666666667,B1,L,755.0833333333334
36,52,1510.3333333333333,C2,L,755.1666666666666
35,0,1510.3333333333335,B1,L,755.1666666666667
86,0,1510.5,D6,R,755.25
87,58,1510.5,D#6,R,755.25
36,0,1510.6666666666665,C2,L,755.3333333333333
35,50,1510.6666666666667,B1,L,755.3333333333334
87,0,1510.75,D#6,R,755.375
86,62,1510.75,D6,R,755.375
86,0,1511.0,D6,R,755.5
35,0,1511.0,B1,L,755.5
87,61,1511.0,D#6,R,755.5
36,49,1511.0,C2,L,755.5
36,0,1511.25,C2,L,755.625
87,0,1511.25,D#6,R,755.625
35,48,1511.375,B1,L,755.6875
84,66,1511.375,C6,R,755.6875
35,0,1511.5,B1,L,755.75
36,54,1511.5,C2,L,755.75
84,66,1511.5,C6,R,755.75
84,0,1511.5,C6,R,755.75
84,0,1511.625,C6,R,755.8125
87,63,1511.625,D#6,R,755.8125
36,0,1512.0,C2,L,756.0
87,0,1512.0,D#6,R,756.0
84,55,1512.0,C6,R,756.0
35,43,1512.0,B1,L,756.0
84,0,1512.25,C6,R,756.125
87,61,1512.25,D#6,R,756.125
87,0,1512.2916666666667,D#6,R,756.1458333333334
36,53,1512.2916666666667,C2,R,756.1458333333334
36,53,1512.3333333333333,C2,R,756.1666666666666
36,0,1512.3333333333335,C2,R,756.1666666666667
35,0,1512.5,B1,L,756.25
36,0,1512.5,C2,R,756.25
75,69,1512.625,D#5,R,756.3125
35,47,1512.625,B1,L,756.3125
35,0,1513.0,B1,L,756.5
84,61,1513.0,C6,R,756.5
75,0,1513.0,D#5,R,756.5
36,55,1513.0,C2,L,756.5
36,0,1513.25,C2,L,756.625
35,39,1513.25,B1,L,756.625
75,53,1513.25,D#5,R,756.625
84,0,1513.25,C6,R,756.625
84,53,1513.5,C6,R,756.75
35,0,1513.5,B1,L,756.75
36,47,1513.5,C2,L,756.75
75,0,1513.5,D#5,R,756.75
30,52,1514.0,F#1,L,757.0
36,0,1514.0,C2,L,757.0
84,0,1514.0,C6,R,757.0
81,61,1514.1666666666667,A5,R,757.0833333333334
84,56,1514.3333333333333,C6,R,757.1666666666666
81,0,1514.3333333333335,A5,R,757.1666666666667
30,0,1514.5,F#1,L,757.25
36,49,1514.5,C2,L,757.25
84,0,1514.6666666666665,C6,R,757.3333333333333
81,54,1514.6666666666667,A5,R,757.3333333333334
36,0,1514.75,C2,L,757.375
30,54,1514.75,F#1,L,757.375
84,55,1515.0,C6,R,757.5
81,0,1515.0,A5,R,757.5
30,0,1515.0,F#1,L,757.5
36,51,1515.0833333333333,C2,R,757.5416666666666
84,0,1515.0833333333333,C6,R,757.5416666666666
84,55,1515.0833333333333,C6,R,757.5416666666666
30,54,1515.25,F#1,L,757.625
36,0,1515.3333333333333,C2,R,757.6666666666666
75,66,1515.3333333333333,D#5,R,757.6666666666666
84,0,1515.3333333333333,C6,R,757.6666666666666
36,58,1515.5,C2,L,757.75
30,0,1515.5,F#1,L,757.75
84,54,1515.5,C6,R,757.75
75,0,1515.5,D#5,R,757.75
84,0,1515.75,C6,R,757.875
36,0,1515.875,C2,L,757.9375
75,62,1515.875,D#5,R,757.9375
30,51,1515.875,F#1,L,757.9375
30,0,1516.0,F#1,L,758.0
30,51,1516.0,F#1,L,758.0
75,62,1516.0,D#5,R,758.0
75,0,1516.0,D#5,R,758.0
75,0,1516.25,D#5,R,758.125
84,58,1516.25,C6,R,758.125
30,0,1516.25,F#1,L,758.125
36,53,1516.25,C2,L,758.125
84,0,1516.5,C6,R,758.25
36,0,1516.5,C2,L,758.25
74,63,1516.625,D5,R,758.3125
30,45,1516.625,F#1,L,758.3125
36,57,1517.0,C2,L,758.5
74,0,1517.0,D5,R,758.5
84,59,1517.0,C6,R,758.5
30,0,1517.0,F#1,L,758.5
84,0,1517.25,C6,R,758.625
74,58,1517.25,D5,R,758.625
36,0,1517.25,C2,L,758.625
30,45,1517.25,F#1,L,758.625
74,0,1517.5,D5,R,758.75
84,57,1517.5833333333333,C6,R,758.7916666666666
84,0,1517.6666666666665,C6,R,758.8333333333333
84,57,1517.6666666666667,C6,R,758.8333333333334
36,54,1517.6666666666667,C2,R,758.8333333333334
84,0,1517.8333333333335,C6,R,758.9166666666667
36,0,1517.8333333333335,C2,R,758.9166666666667
72,67,1517.9166666666667,C5,R,758.9583333333334
72,67,1518.0,C5,R,759.0
72,0,1518.0,C5,R,759.0
30,50,1518.0,F#1,L,759.0
30,0,1518.0,F#1,L,759.0
72,0,1518.25,C5,R,759.125
30,0,1518.25,F#1,L,759.125
36,55,1518.25,C2,L,759.125
84,58,1518.25,C6,R,759.125
84,0,1518.5,C6,R,759.25
36,0,1518.5,C2,L,759.25
30,52,1518.5,F#1,L,759.25
72,59,1518.5625,C5,R,759.28125
72,0,1518.75,C5,R,759.375
84,65,1518.8125,C6,R,759.40625
30,0,1519.0,F#1,L,759.5
84,0,1519.0,C6,R,759.5
36,55,1519.1666666666667,C2,R,759.5833333333334
35,42,1519.3333333333333,B1,L,759.6666666666666
76,52,1519.3333333333333,E5,R,759.6666666666666
36,0,1519.3333333333335,C2,R,759.6666666666667
76,0,1519.6666666666665,E5,R,759.8333333333333
35,0,1519.6666666666665,B1,L,759.8333333333333
77,52,1519.6666666666667,F5,R,759.8333333333334
36,47,1519.6666666666667,C2,L,759.8333333333334
35,48,1520.0,B1,L,760.0
76,47,1520.0,E5,R,760.0
77,0,1520.0,F5,R,760.0
36,0,1520.0,C2,L,760.0
76,47,1520.25,E5,R,760.125
76,0,1520.25,E5,R,760.125
77,52,1520.3333333333333,F5,R,760.1666666666666
76,0,1520.3333333333333,E5,R,760.1666666666666
77,0,1520.4166666666665,F5,R,760.2083333333333
36,48,1520.4166666666667,C2,R,760.2083333333334
35,0,1520.5,B1,L,760.25
36,48,1520.5,C2,R,760.25
36,0,1520.5,C2,R,760.25
35,45,1520.6875,B1,L,760.34375
35,45,1520.75,B1,L,760.375
35,0,1520.75,B1,L,760.375
74,63,1520.75,D5,R,760.375
36,0,1520.75,C2,R,760.375
76,56,1521.0,E5,R,760.5
35,0,1521.0,B1,L,760.5
36,49,1521.0,C2,L,760.5
74,0,1521.0,D5,R,760.5
74,56,1521.3333333333333,D5,R,760.6666666666666
36,0,1521.3333333333333,C2,L,760.6666666666666
35,45,1521.3333333333333,B1,L,760.6666666666666
76,0,1521.3333333333333,E5,R,760.6666666666666
35,0,1521.5,B1,L,760.75
36,41,1521.5,C2,L,760.75
74,0,1521.5,D5,R,760.75
76,52,1521.625,E5,R,760.8125
76,0,1522.0,E5,R,761.0
72,63,1522.0,C5,R,761.0
36,0,1522.0,C2,L,761.0
35,43,1522.0,B1,L,761.0
36,51,1522.3333333333333,C2,L,761.1666666666666
76,59,1522.3333333333333,E5,R,761.1666666666666
72,0,1522.3333333333333,C5,R,761.1666666666666
35,0,1522.3333333333333,B1,L,761.1666666666666
36,0,1522.5,C2,L,761.25
76,0,1522.5,E5,R,761.25
36,51,1522.5,C2,L,761.25
72,54,1522.625,C5,R,761.3125
35,50,1522.625,B1,L,761.3125
36,0,1522.625,C2,L,761.3125
36,50,1523.0,C2,R,761.5
35,0,1523.0,B1,L,761.5
72,0,1523.0,C5,R,761.5
64,64,1523.25,E4,R,761.625
36,0,1523.25,C2,R,761.625
35,43,1523.25,B1,L,761.625
36,54,1523.5,C2,L,761.75
72,67,1523.5,C5,R,761.75
64,0,1523.5,E4,R,761.75
35,0,1523.5,B1,L,761.75
64,55,1523.875,E4,R,761.9375
35,42,1523.875,B1,L,761.9375
36,46,1524.0,C2,L,762.0
35,42,1524.0,B1,L,762.0
36,0,1524.0,C2,L,762.0
64,0,1524.0,E4,R,762.0
35,0,1524.0,B1,L,762.0
72,0,1524.0,C5,R,762.0
64,55,1524.0,E4,R,762.0
72,63,1524.0,C5,R,762.0
36,0,1524.5,C2,L,762.25
72,0,1524.5,C5,R,762.25
69,61,1524.5,A4,R,762.25
31,48,1524.5,G1,L,762.25
72,57,1525.0,C5,R,762.5
69,0,1525.0,A4,R,762.5
36,52,1525.0,C2,L,762.5
35,0,1525.0,B1,L,762.5
31,0,1525.0,G1,L,762.5
64,0,1525.0,E4,R,762.5
31,50,1525.25,G1,L,762.625
69,60,1525.25,A4,R,762.625
72,0,1525.25,C5,R,762.625
36,0,1525.25,C2,L,762.625
69,0,1525.5,A4,R,762.75
72,59,1525.5,C5,R,762.75
36,51,1525.5,C2,L,762.75
31,0,1525.5,G1,L,762.75
67,70,1525.75,G4,R,762.875
67,0,1526.0,G4,R,763.0
31,46,1526.0,G1,L,763.0
36,0,1526.0,C2,L,763.0
67,70,1526.0,G4,R,763.0
72,0,1526.0,C5,R,763.0
72,60,1526.0,C5,R,763.0
72,60,1526.25,C5,R,763.125
36,53,1526.25,C2,R,763.125
72,0,1526.25,C5,R,763.125
72,0,1526.5,C5,R,763.25
67,65,1526.5,G4,R,763.25
31,48,1526.5,G1,L,763.25
31,0,1526.5,G1,L,763.25
36,0,1526.5,C2,R,763.25
67,0,1526.75,G4,R,763.375
72,61,1526.75,C5,R,763.375
36,50,1526.75,C2,L,763.375
31,0,1527.0,G1,L,763.5
36,0,1527.0,C2,L,763.5
67,0,1527.0,G4,R,763.5
31,50,1527.0,G1,L,763.5
72,0,1527.0,C5,R,763.5
36,50,1527.0,C2,L,763.5
72,61,1527.0,C5,R,763.5
65,64,1527.25,F4,R,763.625
72,0,1527.25,C5,R,763.625
65,0,1527.5,F4,R,763.75
72,59,1527.5,C5,R,763.75
36,50,1527.625,C2,R,763.8125
31,51,1527.75,G1,L,763.875
36,0,1527.75,C2,R,763.875
31,0,1527.75,G1,L,763.875
65,54,1527.75,F4,R,763.875
31,0,1528.0,G1,L,764.0
31,51,1528.0,G1,L,764.0
36,0,1528.0,C2,L,764.0
72,0,1528.0,C5,R,764.0
65,0,1528.0,F4,R,764.0
72,59,1528.1,C5,R,764.05
72,0,1528.1999999999998,C5,R,764.0999999999999
36,55,1528.2,C2,R,764.1
72,59,1528.2,C5,R,764.1
64,63,1528.4,E4,R,764.2
36,0,1528.4,C2,R,764.2
72,0,1528.4,C5,R,764.2
31,0,1528.5,G1,L,764.25
31,55,1528.5,G1,L,764.25
31,0,1528.75,G1,L,764.375
36,61,1528.75,C2,L,764.375
72,63,1528.8,C5,R,764.4
64,0,1528.8000000000002,E4,R,764.4000000000001
64,63,1529.0,E4,R,764.5
72,0,1529.0,C5,R,764.5
31,55,1529.0,G1,L,764.5
36,0,1529.0,C2,L,764.5
36,57,1529.25,C2,L,764.625
31,0,1529.25,G1,L,764.625
72,64,1529.25,C5,R,764.625
64,0,1529.25,E4,R,764.625
37,52,1529.75,C#2,L,764.875
72,0,1529.75,C5,R,764.875
65,53,1529.75,F4,R,764.875
37,0,1530.0,C#2,L,765.0
67,65,1530.0,G4,R,765.0
36,0,1530.0,C2,L,765.0
38,49,1530.0,D2,L,765.0
65,0,1530.0,F4,R,765.0
37,52,1530.0,C#2,L,765.0
38,0,1530.5,D2,L,765.25
37,61,1530.5,C#2,L,765.25
67,0,1530.5,G4,R,765.25
65,52,1530.5,F4,R,765.25
65,0,1530.6666666666667,F4,R,765.3333333333334
67,63,1530.6666666666667,G4,R,765.3333333333334
38,55,1530.8333333333333,D2,R,765.4166666666666
67,0,1530.8333333333335,G4,R,765.4166666666667
37,0,1531.0,C#2,L,765.5
37,0,1531.0,C#2,L,765.5
37,69,1531.0,C#2,L,765.5
38,55,1531.0,D2,R,765.5
38,0,1531.0,D2,R,765.5
64,74,1531.0,E4,R,765.5
38,0,1531.5,D2,R,765.75
38,58,1531.5,D2,L,765.75
37,0,1531.5,C#2,L,765.75
64,0,1531.5,E4,R,765.75
65,62,1531.5,F4,R,765.75
37,69,1531.75,C#2,L,765.875
38,0,1531.75,D2,L,765.875
64,64,1531.75,E4,R,765.875
65,0,1531.75,F4,R,765.875
37,0,1532.0,C#2,L,766.0
38,64,1532.0,D2,L,766.0
64,0,1532.0,E4,R,766.0
65,65,1532.0,F4,R,766.0
65,0,1532.5,F4,R,766.25
38,0,1532.5,D2,L,766.25
62,73,1532.5,D4,R,766.25
37,68,1532.5,C#2,L,766.25
65,69,1532.75,F4,R,766.375
62,0,1532.75,D4,R,766.375
37,0,1532.75,C#2,L,766.375
38,60,1532.75,D2,L,766.375
65,0,1533.0,F4,R,766.5
62,64,1533.0,D4,R,766.5
37,66,1533.0,C#2,L,766.5
38,0,1533.0,D2,L,766.5
62,0,1533.25,D4,R,766.625
65,65,1533.2916666666667,F4,R,766.6458333333334
65,0,1533.4166666666667,F4,R,766.7083333333334
38,64,1533.4166666666667,D2,R,766.7083333333334
38,64,1533.5,D2,R,766.75
38,0,1533.5,D2,R,766.75
37,66,1533.75,C#2,L,766.875
50,70,1533.75,D3,R,766.875
37,0,1533.75,C#2,L,766.875
38,0,1534.0,D2,R,767.0
37,0,1534.0,C#2,L,767.0
62,69,1534.0,D4,R,767.0
38,61,1534.0,D2,L,767.0
50,70,1534.0,D3,R,767.0
50,0,1534.0,D3,R,767.0
38,0,1534.5,D2,L,767.25
37,61,1534.5,C#2,L,767.25
50,68,1534.5,D3,R,767.25
62,0,1534.5,D4,R,767.25
38,55,1534.75,D2,L,767.375
62,63,1534.75,D4,R,767.375
50,0,1534.75,D3,R,767.375
38,0,1535.0,D2,L,767.5
32,54,1535.0,G#1,L,767.5
37,0,1535.0,C#2,L,767.5
62,63,1535.0,D4,R,767.5
50,0,1535.0,D3,R,767.5
38,55,1535.0,D2,L,767.5
62,0,1535.0,D4,R,767.5
59,69,1535.25,B3,R,767.625
62,0,1535.25,D4,R,767.625
62,59,1535.5,D4,R,767.75
59,0,1535.5,B3,R,767.75
32,0,1535.5,G#1,L,767.75
38,50,1535.5,D2,L,767.75
59,69,1535.75,B3,R,767.875
62,0,1535.75,D4,R,767.875
38,0,1535.75,D2,L,767.875
32,60,1535.75,G#1,L,767.875
59,69,1536.0,B3,R,768.0
38,0,1536.0,D2,L,768.0
32,0,1536.0,G#1,L,768.0
38,60,1536.0,D2,L,768.0
59,0,1536.0,B3,R,768.0
59,0,1536.142857142857,B3,R,768.0714285714286
62,64,1536.142857142857,D4,R,768.0714285714286
38,0,1536.5,D2,L,768.25
32,58,1536.5,G#1,L,768.25
62,0,1536.5714285714284,D4,R,768.2857142857142
53,73,1536.5714285714287,F3,R,768.2857142857143
53,0,1536.857142857143,F3,R,768.4285714285714
62,71,1536.857142857143,D4,R,768.4285714285714
32,0,1537.0,G#1,L,768.5
38,58,1537.0,D2,L,768.5
38,0,1537.125,D2,L,768.5625
32,60,1537.125,G#1,L,768.5625
62,0,1537.142857142857,D4,R,768.5714285714286
53,67,1537.142857142857,F3,R,768.5714285714286
62,67,1537.4285714285713,D4,R,768.7142857142857
53,0,1537.4285714285713,F3,R,768.7142857142857
32,0,1537.5,G#1,L,768.75
38,61,1537.5,D2,L,768.75
38,0,1537.75,D2,L,768.875
32,62,1537.75,G#1,L,768.875
62,0,1537.8571428571427,D4,R,768.9285714285713
52,77,1537.857142857143,E3,R,768.9285714285714
32,0,1538.0,G#1,L,769.0
62,65,1538.0,D4,R,769.0
52,0,1538.0,E3,R,769.0
32,62,1538.0,G#1,L,769.0
52,77,1538.0,E3,R,769.0
32,0,1538.142857142857,G#1,L,769.0714285714286
38,60,1538.142857142857,D2,L,769.0714285714286
32,65,1538.4285714285713,G#1,L,769.2142857142857
38,0,1538.4285714285713,D2,L,769.2142857142857
52,0,1538.5,E3,R,769.25
52,70,1538.5,E3,R,769.25
62,0,1538.5,D4,R,769.25
52,0,1538.75,E3,R,769.375
62,70,1538.75,D4,R,769.375
32,0,1538.8571428571427,G#1,L,769.4285714285713
38,69,1538.857142857143,D2,L,769.4285714285714
50,82,1539.0,D3,R,769.5
62,0,1539.0,D4,R,769.5
38,0,1539.142857142857,D2,L,769.5714285714286
32,67,1539.142857142857,G#1,L,769.5714285714286
38,73,1539.4285714285713,D2,L,769.7142857142857
32,0,1539.4285714285713,G#1,L,769.7142857142857
50,0,1539.5,D3,R,769.75
62,68,1539.5833333333333,D4,R,769.7916666666666
62,0,1539.6666666666665,D4,R,769.8333333333333
50,80,1539.6666666666667,D3,R,769.8333333333334
38,0,1539.7142857142856,D2,L,769.8571428571428
32,71,1539.7142857142858,G#1,L,769.8571428571429
50,0,1540.0,D3,R,770.0
62,75,1540.0,D4,R,770.0
32,0,1540.0,G#1,L,770.0
38,63,1540.0,D2,L,770.0
38,0,1540.3333333333333,D2,L,770.1666666666666
62,0,1540.3333333333333,D4,R,770.1666666666666
33,63,1540.6666666666667,A1,L,770.3333333333334
57,59,1540.6666666666667,A3,R,770.3333333333334
33,0,1541.0,A1,L,770.5
45,51,1541.0,A2,L,770.5
57,0,1541.0,A3,R,770.5
58,60,1541.0,A#3,R,770.5
33,65,1541.25,A1,L,770.625
57,64,1541.25,A3,R,770.625
58,0,1541.25,A#3,R,770.625
45,0,1541.25,A2,L,770.625
33,0,1541.5,A1,L,770.75
58,69,1541.5,A#3,R,770.75
57,0,1541.5,A3,R,770.75
45,61,1541.5,A2,L,770.75
33,70,1541.75,A1,R,770.875
55,74,1542.0,G3,R,771.0
33,70,1542.0,A1,R,771.0
33,0,1542.0,A1,R,771.0
45,53,1542.0,A2,L,771.0
45,0,1542.0,A2,L,771.0
58,0,1542.0,A#3,R,771.0
55,0,1542.25,G3,R,771.125
57,65,1542.25,A3,R,771.125
57,0,1542.5,A3,R,771.25
33,70,1542.5,A1,L,771.25
45,0,1542.5,A2,L,771.25
55,70,1542.5,G3,R,771.25
55,0,1542.75,G3,R,771.375
45,59,1542.75,A2,L,771.375
57,66,1542.75,A3,R,771.375
45,0,1543.0,A2,L,771.5
45,59,1543.0,A2,L,771.5
33,0,1543.0,A1,R,771.5
33,0,1543.0,A1,L,771.5
53,70,1543.0,F3,R,771.5
57,0,1543.0,A3,R,771.5
33,74,1543.0,A1,L,771.5
45,60,1543.5,A2,L,771.75
57,63,1543.5,A3,R,771.75
33,0,1543.5,A1,L,771.75
53,0,1543.5,F3,R,771.75
33,75,1543.75,A1,L,771.875
45,0,1543.75,A2,L,771.875
53,61,1543.75,F3,R,771.875
57,0,1543.75,A3,R,771.875
53,0,1544.0,F3,R,772.0
57,68,1544.0,A3,R,772.0
45,0,1544.0,A2,L,772.0
33,75,1544.0,A1,L,772.0
33,0,1544.0,A1,L,772.0
45,63,1544.0,A2,L,772.0
52,74,1544.5,E3,R,772.25
57,0,1544.5,A3,R,772.25
45,0,1544.5,A2,L,772.25
33,74,1544.5,A1,L,772.25
45,60,1544.75,A2,L,772.375
33,0,1544.75,A1,L,772.375
52,0,1544.75,E3,R,772.375
57,65,1544.75,A3,R,772.375
52,62,1545.0,E3,R,772.5
33,0,1545.0,A1,L,772.5
57,0,1545.0,A3,R,772.5
45,0,1545.0,A2,L,772.5
33,74,1545.0,A1,L,772.5
33,0,1545.5,A1,L,772.75
45,62,1545.5,A2,L,772.75
57,63,1545.5,A3,R,772.75
52,0,1545.5,E3,R,772.75
57,0,1545.75,A3,R,772.875
50,74,1545.75,D3,R,772.875
33,76,1545.75,A1,L,772.875
45,0,1545.75,A2,L,772.875
50,74,1546.0,D3,R,773.0
50,0,1546.0,D3,R,773.0
33,76,1546.0,A1,L,773.0
33,0,1546.0,A1,L,773.0
57,64,1546.0833333333333,A3,R,773.0416666666666
50,0,1546.0833333333333,D3,R,773.0416666666666
57,0,1546.1666666666665,A3,R,773.0833333333333
57,64,1546.1666666666667,A3,R,773.0833333333334
33,0,1546.1666666666667,A1,L,773.0833333333334
45,59,1546.1666666666667,A2,L,773.0833333333334
33,73,1546.3333333333333,A1,L,773.1666666666666
45,0,1546.3333333333335,A2,L,773.1666666666667
50,68,1546.4166666666667,D3,R,773.2083333333334
57,0,1546.4166666666667,A3,R,773.2083333333334
50,68,1546.5,D3,R,773.25
50,0,1546.5,D3,R,773.25
50,0,1546.625,D3,R,773.3125
33,0,1546.6666666666665,A1,L,773.3333333333333
45,59,1546.6666666666667,A2,L,773.3333333333334
57,57,1546.6875,A3,R,773.34375
57,57,1546.75,A3,R,773.375
57,0,1546.75,A3,R,773.375
57,0,1547.0,A3,R,773.5
45,0,1547.0,A2,L,773.5
50,73,1547.1666666666667,D3,R,773.5833333333334
33,79,1547.1666666666667,A1,L,773.5833333333334
45,62,1547.3333333333333,A2,L,773.6666666666666
62,72,1547.3333333333333,D4,R,773.6666666666666
50,0,1547.3333333333335,D3,R,773.6666666666667
33,0,1547.3333333333335,A1,L,773.6666666666667
45,0,1547.6666666666665,A2,L,773.8333333333333
62,0,1547.6666666666665,D4,R,773.8333333333333
33,70,1547.6666666666667,A1,L,773.8333333333334
50,70,1547.6666666666667,D3,R,773.8333333333334
45,55,1548.0,A2,L,774.0
33,0,1548.0,A1,L,774.0
62,73,1548.0,D4,R,774.0
50,0,1548.0,D3,R,774.0
33,79,1548.25,A1,L,774.125
50,83,1548.25,D3,R,774.125
62,0,1548.25,D4,R,774.125
50,0,1548.5,D3,R,774.25
45,65,1548.5,A2,L,774.25
45,0,1548.5,A2,L,774.25
62,68,1548.625,D4,R,774.3125
33,0,1549.0,A1,L,774.5
45,0,1549.0,A2,L,774.5
33,77,1549.0,A1,L,774.5
62,0,1549.0,D4,R,774.5
50,74,1549.1,D3,R,774.55
50,0,1549.1999999999998,D3,R,774.5999999999999
62,72,1549.2,D4,R,774.6
62,0,1549.3,D4,R,774.65
45,63,1549.3,A2,R,774.65
33,80,1549.5,A1,L,774.75
33,0,1549.5,A1,L,774.75
53,81,1549.6,F3,R,774.8
45,0,1549.6,A2,R,774.8
33,0,1550.0,A1,L,775.0
45,67,1550.0,A2,L,775.0
65,75,1550.0,F4,R,775.0
53,0,1550.0,F3,R,775.0
65,0,1550.25,F4,R,775.125
53,78,1550.25,F3,R,775.125
33,81,1550.25,A1,L,775.125
45,66,1550.5,A2,L,775.25
45,0,1550.5,A2,L,775.25
53,0,1550.5,F3,R,775.25
65,76,1550.5,F4,R,775.25
55,87,1551.0,G3,R,775.5
33,0,1551.0,A1,L,775.5
33,71,1551.0,A1,L,775.5
65,0,1551.0,F4,R,775.5
45,0,1551.0,A2,L,775.5
43,57,1551.5,G2,L,775.75
55,0,1551.5,G3,R,775.75
67,78,1551.5,G4,R,775.75
33,0,1551.5,A1,L,775.75
33,69,1551.75,A1,L,775.875
43,0,1551.75,G2,L,775.875
55,70,1551.75,G3,R,775.875
67,0,1551.75,G4,R,775.875
43,59,1552.0,G2,L,776.0
33,0,1552.0,A1,L,776.0
55,0,1552.0,G3,R,776.0
67,75,1552.0,G4,R,776.0
33,77,1552.3333333333333,A1,L,776.1666666666666
43,0,1552.3333333333333,G2,L,776.1666666666666
67,0,1552.3333333333333,G4,R,776.1666666666666
53,75,1552.3333333333333,F3,R,776.1666666666666
53,0,1552.6666666666665,F3,R,776.3333333333333
33,0,1552.6666666666665,A1,L,776.3333333333333
65,69,1552.6666666666667,F4,R,776.3333333333334
41,65,1552.6666666666667,F2,L,776.3333333333334
53,62,1553.0,F3,R,776.5
65,0,1553.0,F4,R,776.5
41,0,1553.0,F2,L,776.5
33,73,1553.0,A1,L,776.5
65,65,1553.25,F4,R,776.625
53,0,1553.25,F3,R,776.625
33,0,1553.25,A1,L,776.625
41,68,1553.25,F2,L,776.625
65,0,1553.5,F4,R,776.75
33,77,1553.5,A1,L,776.75
52,69,1553.5,E3,R,776.75
41,0,1553.5,F2,L,776.75
33,0,1554.0,A1,L,777.0
40,60,1554.0,E2,L,777.0
52,0,1554.0,E3,R,777.0
64,63,1554.0,E4,R,777.0
64,0,1554.25,E4,R,777.125
52,61,1554.25,E3,R,777.125
33,74,1554.25,A1,L,777.125
40,0,1554.5,E2,L,777.25
40,63,1554.5,E2,L,777.25
52,0,1554.5,E3,R,777.25
64,70,1554.53125,E4,R,777.265625
64,0,1554.625,E4,R,777.3125
64,70,1554.625,E4,R,777.3125
50,75,1555.0,D3,R,777.5
33,78,1555.0,A1,L,777.5
40,0,1555.0,E2,L,777.5
33,0,1555.0,A1,L,777.5
64,0,1555.0,E4,R,777.5
50,0,1555.25,D3,R,777.625
38,61,1555.25,D2,L,777.625
33,0,1555.25,A1,L,777.625
62,67,1555.25,D4,R,777.625
62,0,1555.5,D4,R,777.75
50,66,1555.5,D3,R,777.75
38,0,1555.5,D2,L,777.75
33,76,1555.5,A1,L,777.75
50,0,1555.75,D3,R,777.875
62,65,1555.7916666666667,D4,R,777.8958333333334
38,59,1555.8333333333333,D2,R,777.9166666666666
62,0,1555.8333333333335,D4,R,777.9166666666667
33,70,1556.0,A1,L,778.0
33,0,1556.0,A1,L,778.0
49,61,1556.0,C#3,R,778.0
38,59,1556.0,D2,R,778.0
38,0,1556.0,D2,R,778.0
37,59,1556.5,C#2,L,778.25
33,0,1556.5,A1,L,778.25
49,0,1556.5,C#3,R,778.25
38,0,1556.5,D2,R,778.25
61,63,1556.5,C#4,R,778.25
49,52,1557.0,C#3,R,778.5
37,0,1557.0,C#2,L,778.5
33,69,1557.0,A1,L,778.5
61,0,1557.0,C#4,R,778.5
49,0,1557.125,C#3,R,778.5625
61,59,1557.125,C#4,R,778.5625
37,58,1557.125,C#2,L,778.5625
37,58,1557.5,C#2,L,778.75
37,0,1557.5,C#2,L,778.75
33,70,1557.5,A1,R,778.75
61,0,1557.5,C#4,R,778.75
46,67,1557.625,A#2,R,778.8125
37,0,1557.875,C#2,L,778.9375
34,60,1557.875,A#1,L,778.9375
46,0,1557.875,A#2,R,778.9375
58,63,1557.875,A#3,R,778.9375
34,0,1558.0,A#1,L,779.0
34,60,1558.0,A#1,L,779.0
33,0,1558.0,A1,L,779.0
33,0,1558.0,A1,R,779.0
58,63,1558.0,A#3,R,779.0
58,0,1558.0,A#3,R,779.0
33,53,1558.25,A1,L,779.125
46,54,1558.25,A#2,R,779.125
58,0,1558.25,A#3,R,779.125
34,0,1558.25,A#1,L,779.125
46,0,1558.5,A#2,R,779.25
33,0,1558.5,A1,L,779.25
58,56,1558.5,A#3,R,779.25
34,57,1558.5833333333333,A#1,L,779.2916666666666
33,54,1558.8333333333333,A1,L,779.4166666666666
34,0,1558.8333333333333,A#1,L,779.4166666666666
45,56,1558.875,A2,R,779.4375
58,0,1558.875,A#3,R,779.4375
33,54,1559.0,A1,L,779.5
45,56,1559.0,A2,R,779.5
45,0,1559.0,A2,R,779.5
33,0,1559.0,A1,L,779.5
33,0,1559.25,A1,L,779.625
45,45,1559.25,A2,L,779.625
45,0,1559.25,A2,R,779.625
57,50,1559.25,A3,R,779.625
45,44,1559.5,A2,R,779.75
57,0,1559.5,A3,R,779.75
45,0,1559.55,A2,R,779.775
45,44,1559.55,A2,R,779.775
33,63,1559.55,A1,R,779.775
33,63,1559.7,A1,R,779.85
33,0,1559.7,A1,R,779.85
45,0,1559.7,A2,R,779.85
33,0,1559.8,A1,R,779.9
57,54,1559.8,A3,R,779.9
57,0,1559.8999999999999,A3,R,779.9499999999999
45,57,1559.9,A2,R,779.95
33,70,1560.0,A1,L,780.0
45,0,1560.0,A2,R,780.0
45,0,1560.0,A2,L,780.0
57,66,1560.0,A3,R,780.0
45,52,1560.375,A2,R,780.1875
57,0,1560.375,A3,R,780.1875
45,52,1560.5,A2,R,780.25
45,0,1560.5,A2,R,780.25
69,57,1560.5,A4,R,780.25
45,0,1560.75,A2,R,780.375
69,0,1560.75,A4,R,780.375
33,56,1560.75,A1,R,780.375
57,55,1560.875,A3,R,780.4375
33,0,1561.0,A1,R,780.5
57,0,1561.0,A3,R,780.5
57,55,1561.0,A3,R,780.5
33,0,1561.0,A1,L,780.5
45,52,1561.0,A2,R,780.5
57,0,1561.25,A3,R,780.625
69,57,1561.25,A4,R,780.625
33,48,1561.5,A1,R,780.75
69,0,1561.5,A4,R,780.75
33,0,1562.0,A1,R,781.0
45,0,1562.0,A2,R,781.0
62,37,1562.5,D4,R,781.25
37,45,1562.5,C#2,L,781.25
37,0,1563.0,C#2,L,781.5
62,0,1563.0,D4,R,781.5
38,43,1563.0,D2,R,781.5
38,0,1563.5,D2,R,781.75
37,52,1563.5,C#2,R,781.75
37,0,1563.75,C#2,R,781.875
38,52,1563.75,D2,R,781.875
38,0,1563.875,D2,R,781.9375
37,47,1563.875,C#2,R,781.9375
37,0,1564.0,C#2,R,782.0
38,51,1564.125,D2,R,782.0625
37,47,1564.375,C#2,R,782.1875
38,0,1564.375,D2,R,782.1875
38,50,1564.5,D2,R,782.25
37,0,1564.5,C#2,R,782.25
37,46,1564.75,C#2,R,782.375
38,0,1564.75,D2,R,782.375
37,0,1565.0,C#2,R,782.5
38,46,1565.0,D2,R,782.5
38,0,1565.1666666666667,D2,R,782.5833333333334
37,48,1565.1666666666667,C#2,R,782.5833333333334
37,0,1565.25,C#2,R,782.625
37,48,1565.25,C#2,R,782.625
38,44,1565.4375,D2,R,782.71875
38,44,1565.5,D2,R,782.75
37,0,1565.5,C#2,R,782.75
38,0,1565.5,D2,R,782.75
37,46,1565.5,C#2,R,782.75
37,0,1565.875,C#2,R,782.9375
38,41,1565.875,D2,R,782.9375
38,0,1566.0,D2,R,783.0
37,51,1566.0,C#2,R,783.0
38,0,1566.0,D2,R,783.0
37,0,1566.25,C#2,R,783.125
38,45,1566.3125,D2,R,783.15625
37,42,1566.5,C#2,R,783.25
38,0,1566.5,D2,R,783.25
37,0,1566.75,C#2,R,783.375
38,42,1566.75,D2,R,783.375
38,0,1566.875,D2,R,783.4375
37,46,1566.875,C#2,R,783.4375
37,0,1567.0,C#2,R,783.5
38,45,1567.125,D2,R,783.5625
38,0,1567.25,D2,R,783.625
37,46,1567.3125,C#2,R,783.65625
37,0,1567.5,C#2,R,783.75
38,45,1567.625,D2,R,783.8125
37,41,1567.75,C#2,R,783.875
38,0,1567.75,D2,R,783.875
38,48,1568.0,D2,R,784.0
37,0,1568.0,C#2,R,784.0
38,0,1568.25,D2,R,784.125
37,38,1568.25,C#2,R,784.125
37,0,1568.5,C#2,R,784.25
38,41,1568.5,D2,R,784.25
38,0,1568.625,D2,R,784.3125
37,45,1568.625,C#2,R,784.3125
37,0,1569.0,C#2,R,784.5
38,42,1569.0,D2,R,784.5
38,0,1569.0625,D2,R,784.53125
37,50,1569.0625,C#2,R,784.53125
37,0,1569.25,C#2,R,784.625
38,40,1569.375,D2,R,784.6875
38,0,1569.5,D2,R,784.75
37,39,1569.5,C#2,L,784.75
37,0,1569.875,C#2,L,784.9375
38,39,1569.875,D2,L,784.9375
38,0,1570.0,D2,L,785.0
37,45,1570.0,C#2,L,785.0
70,55,1570.0,A#4,R,785.0
37,0,1570.25,C#2,L,785.125
38,44,1570.25,D2,L,785.125
38,0,1570.5,D2,L,785.25
37,45,1570.5833333333333,C#2,L,785.2916666666666
37,0,1570.6666666666665,C#2,L,785.3333333333333
38,45,1570.6666666666667,D2,L,785.3333333333334
69,63,1570.8333333333333,A4,L,785.4166666666666
38,0,1570.8333333333335,D2,L,785.4166666666667
70,0,1571.0,A#4,R,785.5
37,42,1571.0,C#2,R,785.5
69,0,1571.0,A4,L,785.5
69,63,1571.0,A4,L,785.5
37,0,1571.25,C#2,R,785.625
38,41,1571.25,D2,R,785.625
38,0,1571.375,D2,R,785.6875
37,45,1571.375,C#2,R,785.6875
37,0,1571.5,C#2,R,785.75
38,43,1571.6666666666667,D2,R,785.8333333333334
37,44,1571.8333333333333,C#2,R,785.9166666666666
38,0,1571.8333333333335,D2,R,785.9166666666667
37,0,1572.0,C#2,R,786.0
69,63,1572.0,A4,L,786.0
69,0,1572.0,A4,L,786.0
38,39,1572.1666666666667,D2,R,786.0833333333334
69,63,1572.25,A4,L,786.125
37,40,1572.25,C#2,L,786.125
69,0,1572.25,A4,L,786.125
74,66,1572.3333333333333,D5,R,786.1666666666666
38,0,1572.3333333333335,D2,R,786.1666666666667
74,66,1572.5,D5,R,786.25
74,0,1572.5,D5,R,786.25
37,0,1572.5,C#2,L,786.25
69,0,1572.5,A4,L,786.25
38,47,1572.625,D2,L,786.3125
37,47,1572.75,C#2,L,786.375
38,0,1572.75,D2,L,786.375
38,43,1573.0,D2,L,786.5
37,0,1573.0,C#2,L,786.5
38,0,1573.1666666666667,D2,L,786.5833333333334
37,39,1573.2083333333333,C#2,L,786.6041666666666
37,39,1573.25,C#2,L,786.625
37,0,1573.25,C#2,L,786.625
38,39,1573.5,D2,L,786.75
37,0,1573.5,C#2,L,786.75
38,0,1573.875,D2,L,786.9375
37,44,1573.875,C#2,L,786.9375
74,0,1574.0,D5,R,787.0
75,77,1574.0,D#5,L,787.0
37,0,1574.0,C#2,L,787.0
37,44,1574.0,C#2,L,787.0
75,0,1574.25,D#5,L,787.125
75,77,1574.25,D#5,L,787.125
38,38,1574.25,D2,L,787.125
38,0,1574.5,D2,L,787.25
75,0,1574.5,D#5,L,787.25
37,39,1574.5,C#2,L,787.25
75,77,1574.5,D#5,L,787.25
38,45,1574.75,D2,L,787.375
37,0,1574.75,C#2,L,787.375
75,0,1574.75,D#5,L,787.375
75,77,1574.75,D#5,L,787.375
37,47,1575.0,C#2,L,787.5
75,0,1575.0,D#5,L,787.5
75,77,1575.0,D#5,L,787.5
38,0,1575.0,D2,L,787.5
76,74,1575.0,E5,R,787.5
37,0,1575.0,C#2,L,787.5
37,0,1575.25,C#2,L,787.625
75,77,1575.25,D#5,L,787.625
38,30,1575.25,D2,L,787.625
75,0,1575.25,D#5,L,787.625
37,35,1575.625,C#2,R,787.8125
75,77,1575.75,D#5,L,787.875
38,0,1575.75,D2,L,787.875
75,0,1575.75,D#5,L,787.875
38,37,1575.9375,D2,L,787.96875
75,77,1575.9375,D#5,L,787.96875
75,0,1575.9375,D#5,L,787.96875
76,0,1576.0,E5,R,788.0
37,0,1576.0,C#2,R,788.0
76,74,1576.0,E5,R,788.0
38,0,1576.0,D2,L,788.0
75,0,1576.0,D#5,L,788.0
38,37,1576.0,D2,L,788.0
38,0,1576.1666666666667,D2,L,788.0833333333334
37,31,1576.1666666666667,C#2,L,788.0833333333334
38,40,1576.3333333333333,D2,L,788.1666666666666
37,0,1576.3333333333335,C#2,L,788.1666666666667
38,0,1576.5,D2,L,788.25
38,45,1576.75,D2,L,788.375
38,0,1577.0,D2,L,788.5
37,3,1577.03125,C#2,L,788.515625
37,0,1577.125,C#2,L,788.5625
38,47,1577.2916666666667,D2,L,788.6458333333334
38,0,1577.4166666666667,D2,L,788.7083333333334
37,48,1577.4166666666667,C#2,L,788.7083333333334
37,0,1577.5,C#2,L,788.75
38,41,1577.75,D2,L,788.875
38,0,1577.875,D2,L,788.9375
37,45,1577.875,C#2,L,788.9375
37,0,1578.0,C#2,L,789.0
37,44,1578.25,C#2,L,789.125
38,21,1578.25,D2,R,789.125
38,0,1578.5,D2,R,789.25
38,43,1578.625,D2,R,789.3125
38,0,1578.75,D2,R,789.375
37,45,1578.84375,C#2,R,789.421875
37,45,1578.875,C#2,R,789.4375
37,0,1578.875,C#2,R,789.4375
37,0,1579.0,C#2,R,789.5
77,74,1579.0,F5,L,789.5
37,0,1579.0,C#2,L,789.5
38,41,1579.0,D2,R,789.5
76,0,1579.0,E5,R,789.5
37,37,1579.25,C#2,R,789.625
38,0,1579.25,D2,R,789.625
38,31,1579.75,D2,R,789.875
37,0,1579.75,C#2,R,789.875
37,44,1579.875,C#2,R,789.9375
37,0,1580.0,C#2,R,790.0
79,66,1580.0,G5,R,790.0
37,44,1580.0,C#2,R,790.0
38,0,1580.0,D2,R,790.0
77,0,1580.0,F5,L,790.0
77,74,1580.0,F5,L,790.0
38,45,1580.2,D2,L,790.1
77,0,1580.2,F5,L,790.1
38,0,1580.4,D2,L,790.2
37,45,1580.4,C#2,L,790.2
37,0,1580.6000000000001,C#2,L,790.3000000000001
38,41,1580.7,D2,L,790.35
38,0,1580.8,D2,L,790.4
37,43,1580.8,C#2,L,790.4
37,0,1581.0,C#2,R,790.5
37,0,1581.0,C#2,L,790.5
38,42,1581.125,D2,L,790.5625
38,0,1581.25,D2,L,790.625
37,42,1581.25,C#2,L,790.625
37,0,1581.5,C#2,L,790.75
38,38,1581.5625,D2,L,790.78125
38,0,1581.75,D2,L,790.875
37,48,1581.75,C#2,L,790.875
38,43,1582.0,D2,L,791.0
37,0,1582.0,C#2,L,791.0
37,39,1582.25,C#2,L,791.125
38,0,1582.25,D2,L,791.125
38,46,1582.4375,D2,L,791.21875
37,0,1582.4375,C#2,L,791.21875
38,46,1582.5,D2,L,791.25
38,0,1582.5,D2,L,791.25
37,45,1582.625,C#2,L,791.3125
38,0,1582.625,D2,L,791.3125
37,0,1582.875,C#2,L,791.4375
38,43,1582.875,D2,L,791.4375
38,0,1583.0,D2,L,791.5
37,44,1583.0833333333333,C#2,L,791.5416666666666
37,0,1583.1666666666665,C#2,L,791.5833333333333
38,45,1583.3333333333333,D2,L,791.6666666666666
37,48,1583.5,C#2,L,791.75
38,0,1583.5,D2,L,791.75
37,0,1583.6666666666667,C#2,L,791.8333333333334
38,42,1583.8333333333333,D2,L,791.9166666666666
79,66,1584.0,G5,R,792.0
77,66,1584.0,F5,R,792.0
37,41,1584.0,C#2,L,792.0
38,0,1584.0,D2,L,792.0
79,0,1584.0,G5,R,792.0
38,39,1584.375,D2,L,792.1875
37,0,1584.375,C#2,L,792.1875
37,49,1584.5,C#2,L,792.25
38,0,1584.5,D2,L,792.25
37,0,1584.6666666666667,C#2,L,792.3333333333334
38,48,1584.8333333333333,D2,L,792.4166666666666
77,0,1585.0,F5,R,792.5
79,0,1585.0,G5,R,792.5
77,66,1585.0,F5,R,792.5
38,0,1585.0,D2,L,792.5
37,44,1585.0,C#2,L,792.5
76,75,1585.25,E5,L,792.625
37,0,1585.375,C#2,L,792.6875
38,43,1585.375,D2,L,792.6875
38,0,1585.5,D2,L,792.75
37,42,1585.5,C#2,L,792.75
37,0,1585.875,C#2,L,792.9375
38,15,1585.875,D2,L,792.9375
76,76,1586.0,E5,R,793.0
77,0,1586.0,F5,R,793.0
76,0,1586.0,E5,L,793.0
38,0,1586.0,D2,L,793.0
37,35,1586.0,C#2,L,793.0
37,0,1586.25,C#2,L,793.125
38,40,1586.375,D2,L,793.1875
38,0,1586.5,D2,L,793.25
37,45,1586.6875,C#2,L,793.34375
37,0,1586.75,C#2,L,793.375
37,45,1586.75,C#2,L,793.375
38,33,1586.875,D2,L,793.4375
77,55,1587.0,F5,L,793.5
76,0,1587.0,E5,R,793.5
38,33,1587.0,D2,L,793.5
38,0,1587.0,D2,L,793.5
37,0,1587.0,C#2,L,793.5
77,55,1587.125,F5,L,793.5625
37,46,1587.125,C#2,L,793.5625
76,62,1587.125,E5,R,793.5625
77,0,1587.125,F5,L,793.5625
38,0,1587.25,D2,L,793.625
74,67,1587.25,D5,L,793.625
37,0,1587.375,C#2,L,793.6875
77,0,1587.375,F5,L,793.6875
38,47,1587.375,D2,L,793.6875
76,75,1587.5,E5,R,793.75
38,0,1587.5,D2,L,793.75
76,0,1587.5,E5,R,793.75
37,49,1587.625,C#2,R,793.8125
76,75,1587.625,E5,R,793.8125
76,0,1587.625,E5,R,793.8125
76,75,1587.875,E5,R,793.9375
37,0,1587.875,C#2,R,793.9375
76,0,1587.875,E5,R,793.9375
38,44,1587.875,D2,R,793.9375
76,75,1588.0,E5,R,794.0
38,0,1588.0,D2,R,794.0
37,42,1588.0,C#2,R,794.0
76,0,1588.0,E5,R,794.0
74,0,1588.0,D5,L,794.0
76,0,1588.1666666666667,E5,R,794.0833333333334
76,75,1588.1666666666667,E5,R,794.0833333333334
37,0,1588.1666666666667,C#2,R,794.0833333333334
38,35,1588.25,D2,L,794.125
77,52,1588.3333333333333,F5,R,794.1666666666666
76,0,1588.3333333333335,E5,R,794.1666666666667
37,42,1588.5,C#2,L,794.25
38,0,1588.5,D2,L,794.25
77,0,1588.5,F5,R,794.25
77,52,1588.5,F5,R,794.25
37,0,1588.6666666666667,C#2,L,794.3333333333334
38,40,1588.8333333333333,D2,L,794.4166666666666
74,62,1589.0,D5,R,794.5
77,0,1589.0,F5,R,794.5
38,0,1589.0,D2,L,794.5
37,35,1589.0833333333333,C#2,L,794.5416666666666
37,0,1589.1666666666665,C#2,L,794.5833333333333
38,44,1589.3333333333333,D2,L,794.6666666666666
37,46,1589.5,C#2,L,794.75
38,0,1589.5,D2,L,794.75
37,0,1589.75,C#2,L,794.875
38,36,1589.7916666666667,D2,L,794.8958333333334
38,36,1589.8333333333333,D2,L,794.9166666666666
38,0,1589.8333333333335,D2,L,794.9166666666667
37,48,1589.9583333333333,C#2,L,794.9791666666666
38,0,1589.9583333333333,D2,L,794.9791666666666
37,48,1590.0,C#2,L,795.0
37,0,1590.0,C#2,L,795.0
74,0,1590.0,D5,R,795.0
37,0,1590.25,C#2,L,795.125
38,41,1590.25,D2,L,795.125
37,45,1590.5,C#2,L,795.25
38,0,1590.5,D2,L,795.25
37,0,1590.75,C#2,L,795.375
38,47,1590.75,D2,L,795.375
37,46,1590.875,C#2,L,795.4375
38,0,1590.875,D2,L,795.4375
37,0,1591.0,C#2,L,795.5
38,48,1591.1666666666667,D2,L,795.5833333333334
37,42,1591.3333333333333,C#2,L,795.6666666666666
38,0,1591.3333333333335,D2,L,795.6666666666667
37,0,1591.5,C#2,L,795.75
38,43,1591.625,D2,L,795.8125
37,39,1591.75,C#2,L,795.875
38,0,1591.75,D2,L,795.875
37,0,1592.0,C#2,L,796.0
38,34,1592.1666666666667,D2,L,796.0833333333334
37,42,1592.3333333333333,C#2,L,796.1666666666666
38,0,1592.3333333333335,D2,L,796.1666666666667
37,0,1592.5,C#2,L,796.25
38,39,1592.6666666666667,D2,L,796.3333333333334
37,38,1592.8333333333333,C#2,L,796.4166666666666
38,0,1592.8333333333335,D2,L,796.4166666666667
37,0,1593.0,C#2,L,796.5
38,37,1593.25,D2,L,796.625
38,0,1593.375,D2,L,796.6875
37,36,1593.375,C#2,L,796.6875
37,0,1593.5,C#2,L,796.75
38,38,1593.6666666666667,D2,L,796.8333333333334
37,37,1593.8333333333333,C#2,L,796.9166666666666
38,0,1593.8333333333335,D2,L,796.9166666666667
37,0,1594.0,C#2,L,797.0
38,41,1594.125,D2,L,797.0625
37,37,1594.375,C#2,L,797.1875
38,0,1594.375,D2,L,797.1875
37,0,1594.5,C#2,L,797.25
38,39,1594.625,D2,L,797.3125
38,0,1595.0,D2,L,797.5
37,24,1595.0,C#2,L,797.5
37,0,1595.25,C#2,L,797.625
38,36,1595.25,D2,L,797.625
38,0,1595.375,D2,L,797.6875
37,43,1595.375,C#2,L,797.6875
37,0,1595.5,C#2,L,797.75
37,43,1595.5,C#2,L,797.75
38,38,1595.75,D2,L,797.875
37,0,1595.75,C#2,L,797.875
38,0,1595.9375,D2,L,797.96875
37,40,1595.9375,C#2,L,797.96875
37,0,1596.0,C#2,L,798.0
37,40,1596.0,C#2,L,798.0
37,0,1596.25,C#2,L,798.125
38,30,1596.25,D2,L,798.125
37,37,1596.5,C#2,L,798.25
38,0,1596.5,D2,L,798.25
37,0,1596.75,C#2,L,798.375
38,36,1596.75,D2,L,798.375
38,0,1596.875,D2,L,798.4375
37,40,1596.875,C#2,L,798.4375
37,0,1597.0,C#2,L,798.5
38,39,1597.1666666666667,D2,L,798.5833333333334
37,46,1597.3333333333333,C#2,L,798.6666666666666
38,0,1597.3333333333335,D2,L,798.6666666666667
37,0,1597.5,C#2,L,798.75
38,42,1597.625,D2,L,798.8125
38,0,1597.875,D2,L,798.9375
37,29,1597.875,C#2,L,798.9375
37,0,1598.0,C#2,L,799.0
37,29,1598.0,C#2,L,799.0
37,0,1598.25,C#2,L,799.125
38,30,1598.2916666666667,D2,L,799.1458333333334
38,0,1598.3333333333335,D2,L,799.1666666666667
37,43,1598.4166666666667,C#2,L,799.2083333333334
37,0,1598.5,C#2,L,799.25
38,29,1598.6666666666667,D2,L,799.3333333333334
37,43,1598.8333333333333,C#2,L,799.4166666666666
38,0,1598.8333333333335,D2,L,799.4166666666667
37,0,1599.0,C#2,L,799.5
38,30,1599.1666666666667,D2,L,799.5833333333334
37,36,1599.3333333333333,C#2,L,799.6666666666666
38,0,1599.3333333333335,D2,L,799.6666666666667
37,0,1599.5,C#2,L,799.75
38,21,1599.75,D2,L,799.875
38,0,1599.875,D2,L,799.9375
37,34,1599.875,C#2,L,799.9375
37,34,1600.0,C#2,L,800.0
37,0,1600.0,C#2,L,800.0
82,67,1600.0,A#5,R,800.0
38,38,1600.25,D2,L,800.125
37,0,1600.25,C#2,L,800.125
37,42,1600.5,C#2,L,800.25
38,0,1600.5,D2,L,800.25
38,37,1600.75,D2,L,800.375
37,0,1600.75,C#2,L,800.375
37,43,1601.0,C#2,L,800.5
38,0,1601.0,D2,L,800.5
81,72,1601.1666666666667,A5,L,800.5833333333334
37,0,1601.1666666666667,C#2,L,800.5833333333334
38,43,1601.25,D2,R,800.625
38,0,1601.5,D2,R,800.75
37,39,1601.5,C#2,R,800.75
81,0,1601.5,A5,L,800.75
81,72,1601.5,A5,L,800.75
37,0,1601.875,C#2,R,800.9375
38,40,1601.875,D2,R,800.9375
81,72,1602.0,A5,L,801.0
82,0,1602.0,A#5,R,801.0
38,0,1602.0,D2,R,801.0
81,0,1602.0,A5,L,801.0
37,48,1602.0833333333333,C#2,R,801.0416666666666
37,0,1602.1666666666665,C#2,R,801.0833333333333
38,36,1602.3333333333333,D2,R,801.1666666666666
38,0,1602.5,D2,R,801.25
37,34,1602.5833333333333,C#2,R,801.2916666666666
37,0,1602.6666666666665,C#2,R,801.3333333333333
85,77,1602.6666666666667,C#6,R,801.3333333333334
38,46,1602.8333333333333,D2,R,801.4166666666666
85,77,1602.8333333333333,C#6,R,801.4166666666666
85,0,1602.8333333333335,C#6,R,801.4166666666667
81,0,1603.0,A5,L,801.5
85,77,1603.0,C#6,R,801.5
38,0,1603.0,D2,R,801.5
85,0,1603.0,C#6,R,801.5
37,42,1603.0,C#2,L,801.5
38,41,1603.25,D2,L,801.625
37,0,1603.25,C#2,L,801.625
37,44,1603.4166666666667,C#2,L,801.7083333333334
38,0,1603.4166666666667,D2,L,801.7083333333334
37,44,1603.5,C#2,L,801.75
37,0,1603.5,C#2,L,801.75
38,46,1603.75,D2,L,801.875
37,0,1603.75,C#2,L,801.875
85,0,1604.0,C#6,R,802.0
37,39,1604.0,C#2,L,802.0
38,0,1604.0,D2,L,802.0
85,77,1604.0,C#6,R,802.0
85,0,1604.25,C#6,R,802.125
38,42,1604.25,D2,R,802.125
85,77,1604.25,C#6,R,802.125
85,0,1604.5,C#6,R,802.25
37,39,1604.5,C#2,R,802.25
38,0,1604.5,D2,R,802.25
37,0,1604.875,C#2,R,802.4375
38,46,1604.875,D2,R,802.4375
88,83,1605.0,E6,L,802.5
38,0,1605.0,D2,R,802.5
37,0,1605.0,C#2,L,802.5
37,36,1605.125,C#2,R,802.5625
37,0,1605.5,C#2,R,802.75
38,34,1605.5,D2,R,802.75
38,0,1606.0,D2,R,803.0
88,0,1606.0,E6,L,803.0
91,85,1606.0,G6,R,803.0
37,33,1606.25,C#2,R,803.125
38,45,1606.2916666666667,D2,L,803.1458333333334
38,0,1606.4166666666667,D2,L,803.2083333333334
37,47,1606.4166666666667,C#2,L,803.2083333333334
37,0,1606.5,C#2,L,803.25
38,41,1606.75,D2,L,803.375
37,37,1606.875,C#2,L,803.4375
38,0,1606.875,D2,L,803.4375
37,0,1607.0,C#2,R,803.5
37,0,1607.0,C#2,L,803.5
38,34,1607.2,D2,L,803.6
38,0,1607.3,D2,L,803.65
37,45,1607.3,C#2,L,803.65
37,0,1607.6,C#2,L,803.8
38,41,1607.6,D2,L,803.8
37,47,1607.8,C#2,L,803.9
38,0,1607.8,D2,L,803.9
91,85,1608.0,G6,R,804.0
37,0,1608.0,C#2,L,804.0
91,0,1608.0,G6,R,804.0
38,44,1608.125,D2,L,804.0625
38,0,1608.25,D2,L,804.125
37,48,1608.28125,C#2,L,804.140625
37,0,1608.375,C#2,L,804.1875
38,29,1608.5,D2,L,804.25
38,0,1608.75,D2,L,804.375
37,26,1608.75,C#2,L,804.375
89,68,1609.0,F6,L,804.5
37,0,1609.0,C#2,L,804.5
38,25,1609.125,D2,L,804.5625
38,0,1609.25,D2,L,804.625
37,46,1609.25,C#2,L,804.625
38,35,1609.5,D2,L,804.75
37,0,1609.5,C#2,L,804.75
38,0,1609.625,D2,L,804.8125
37,44,1609.6875,C#2,L,804.84375
37,0,1609.75,C#2,L,804.875
37,44,1609.75,C#2,L,804.875
37,0,1610.0,C#2,L,805.0
88,69,1610.0,E6,R,805.0
88,69,1610.5,E6,R,805.25
86,60,1610.5,D6,R,805.25
88,0,1610.5,E6,R,805.25
37,40,1610.5,C#2,L,805.25
88,0,1611.0,E6,R,805.5
86,0,1611.0,D6,R,805.5
91,0,1611.0,G6,R,805.5
86,60,1611.0,D6,R,805.5
38,36,1611.0,D2,L,805.5
37,0,1611.0,C#2,L,805.5
89,0,1611.0,F6,L,805.5
37,18,1611.25,C#2,L,805.625
38,0,1611.25,D2,L,805.625
37,0,1611.5,C#2,L,805.75
37,16,1611.625,C#2,L,805.8125
86,0,1612.0,D6,R,806.0
37,0,1612.0,C#2,L,806.0
36,49,1612.125,C2,L,806.0625
36,0,1612.375,C2,L,806.1875
38,22,1612.375,D2,L,806.1875
36,44,1612.5,C2,L,806.25
38,0,1612.5,D2,L,806.25
36,0,1612.6666666666667,C2,L,806.3333333333334
38,43,1612.8333333333333,D2,L,806.4166666666666
36,43,1613.0,C2,L,806.5
38,0,1613.0,D2,L,806.5
36,0,1613.375,C2,L,806.6875
35,48,1613.4375,B1,L,806.71875
35,48,1613.5,B1,L,806.75
35,0,1613.5,B1,L,806.75
38,31,1613.75,D2,L,806.875
35,0,1613.75,B1,L,806.875
35,35,1613.875,B1,L,806.9375
38,0,1613.875,D2,L,806.9375
35,0,1614.0,B1,L,807.0
35,53,1614.25,B1,L,807.125
35,0,1614.75,B1,L,807.375
34,36,1614.84375,A#1,L,807.421875
34,36,1614.875,A#1,L,807.4375
34,0,1614.875,A#1,L,807.4375
34,0,1615.0,A#1,L,807.5
34,50,1615.125,A#1,L,807.5625
38,32,1615.125,D2,R,807.5625
38,0,1615.5,D2,R,807.75
34,0,1615.5,A#1,L,807.75
34,45,1615.625,A#1,R,807.8125
34,0,1616.0,A#1,R,808.0
38,9,1616.0,D2,R,808.0
38,0,1616.25,D2,R,808.125
33,57,1616.25,A1,R,808.125
33,0,1616.5,A1,R,808.25
38,39,1616.5833333333333,D2,R,808.2916666666666
38,0,1616.6666666666665,D2,R,808.3333333333333
33,44,1616.6666666666667,A1,R,808.3333333333334
33,0,1616.8333333333335,A1,R,808.4166666666667
33,51,1617.1666666666667,A1,R,808.5833333333334
33,0,1617.3333333333335,A1,R,808.6666666666667
35,47,1617.625,B1,L,808.8125
77,74,1617.6666666666667,F5,R,808.8333333333334
77,0,1618.0,F5,R,809.0
35,0,1618.0,B1,L,809.0
77,74,1618.0,F5,R,809.0
38,23,1618.0833333333333,D2,L,809.0416666666666
38,0,1618.1666666666665,D2,L,809.0833333333333
38,23,1618.1666666666667,D2,L,809.0833333333334
35,41,1618.1666666666667,B1,L,809.0833333333334
38,0,1618.25,D2,L,809.125
35,0,1618.25,B1,L,809.125
35,47,1618.5,B1,L,809.25
36,49,1619.0,C2,L,809.5
35,0,1619.0,B1,L,809.5
36,0,1619.375,C2,L,809.6875
38,25,1619.375,D2,L,809.6875
38,0,1619.5,D2,L,809.75
36,41,1619.5,C2,L,809.75
36,0,1620.0,C2,L,810.0
36,51,1620.0,C2,L,810.0
77,0,1620.0,F5,R,810.0
77,74,1620.0,F5,R,810.0
38,3,1620.375,D2,L,810.1875
36,0,1620.375,C2,L,810.1875
38,0,1620.5,D2,L,810.25
37,39,1620.5,C#2,L,810.25
38,37,1620.75,D2,L,810.375
37,0,1620.75,C#2,L,810.375
37,48,1620.875,C#2,L,810.4375
38,0,1620.875,D2,L,810.4375
38,28,1621.0,D2,L,810.5
37,0,1621.0,C#2,L,810.5
77,0,1621.5,F5,R,810.75
81,57,1621.5,A5,R,810.75
81,0,1621.75,A5,R,810.875
79,63,1621.75,G5,R,810.875
37,39,1622.0,C#2,L,811.0
38,0,1622.0,D2,L,811.0
79,0,1622.0,G5,R,811.0
77,63,1622.0,F5,R,811.0
37,0,1622.1666666666667,C#2,L,811.0833333333334
38,40,1622.3333333333333,D2,L,811.1666666666666
37,39,1622.5,C#2,L,811.25
38,0,1622.5,D2,L,811.25
37,0,1622.6666666666667,C#2,L,811.3333333333334
38,24,1622.8333333333333,D2,L,811.4166666666666
77,0,1623.0,F5,R,811.5
38,0,1623.0,D2,L,811.5
37,41,1623.0,C#2,L,811.5
37,0,1623.25,C#2,L,811.625
38,40,1623.25,D2,L,811.625
38,0,1623.5,D2,L,811.75
36,38,1623.5,C2,L,811.75
36,0,1623.75,C2,L,811.875
38,43,1623.7916666666667,D2,L,811.8958333333334
38,0,1623.9166666666667,D2,L,811.9583333333334
36,32,1623.9583333333333,C2,L,811.9791666666666
36,32,1624.0,C2,L,812.0
36,0,1624.0,C2,L,812.0
36,0,1624.25,C2,L,812.125
38,32,1624.25,D2,L,812.125
38,0,1624.5,D2,L,812.25
36,43,1624.5,C2,L,812.25
36,0,1624.75,C2,L,812.375
38,35,1624.75,D2,L,812.375
38,0,1624.875,D2,L,812.4375
35,47,1624.90625,B1,L,812.453125
35,0,1625.0,B1,L,812.5
38,33,1625.1666666666667,D2,L,812.5833333333334
35,39,1625.3333333333333,B1,L,812.6666666666666
38,0,1625.3333333333335,D2,L,812.6666666666667
35,0,1625.5,B1,L,812.75
35,46,1625.75,B1,L,812.875
35,0,1626.0,B1,L,813.0
38,19,1626.125,D2,L,813.0625
38,0,1626.25,D2,L,813.125
34,37,1626.3125,A#1,L,813.15625
34,0,1626.5,A#1,L,813.25
34,53,1626.625,A#1,L,813.3125
34,0,1627.0,A#1,L,813.5
34,45,1627.125,A#1,L,813.5625
34,0,1627.5,A#1,L,813.75
33,56,1627.75,A1,L,813.875
38,33,1628.0,D2,L,814.0
33,0,1628.0,A1,L,814.0
33,46,1628.1666666666667,A1,L,814.0833333333334
38,0,1628.1666666666667,D2,L,814.0833333333334
33,0,1628.3333333333335,A1,L,814.1666666666667
38,10,1628.5416666666667,D2,L,814.2708333333334
33,46,1628.5833333333333,A1,L,814.2916666666666
38,0,1628.5833333333335,D2,L,814.2916666666667
33,0,1628.75,A1,L,814.375
35,50,1629.125,B1,L,814.5625
35,0,1629.5,B1,L,814.75
35,39,1629.625,B1,L,814.8125
77,61,1630.0,F5,R,815.0
35,43,1630.0,B1,L,815.0
35,0,1630.0,B1,L,815.0
35,0,1630.5,B1,L,815.25
36,49,1630.625,C2,L,815.3125
36,0,1631.0,C2,L,815.5
36,34,1631.0,C2,L,815.5
36,0,1631.5,C2,L,815.75
36,47,1631.625,C2,L,815.8125
77,0,1632.0,F5,R,816.0
36,0,1632.0,C2,L,816.0
77,61,1632.0,F5,R,816.0
37,39,1632.125,C#2,L,816.0625
37,47,1632.5,C#2,L,816.25
37,0,1632.5,C#2,L,816.25
77,0,1633.0,F5,R,816.5
37,44,1633.0,C#2,L,816.5
37,0,1633.0,C#2,L,816.5
81,47,1633.125,A5,L,816.5625
37,0,1633.125,C#2,L,816.5625
79,49,1633.25,G5,L,816.625
81,0,1633.25,A5,L,816.625
77,54,1633.5,F5,R,816.75
37,46,1633.5,C#2,L,816.75
79,0,1633.5,G5,L,816.75
77,0,1633.8333333333333,F5,R,816.9166666666666
38,39,1633.8333333333333,D2,R,816.9166666666666
38,0,1634.0,D2,R,817.0
37,0,1634.0,C#2,L,817.0
37,38,1634.0625,C#2,R,817.03125
37,0,1634.25,C#2,R,817.125
38,34,1634.375,D2,R,817.1875
37,43,1634.5,C#2,R,817.25
38,0,1634.5,D2,R,817.25
38,24,1634.875,D2,R,817.4375
37,0,1634.875,C#2,R,817.4375
38,0,1635.0,D2,R,817.5
37,46,1635.0,C#2,R,817.5
38,38,1635.25,D2,R,817.625
37,0,1635.25,C#2,R,817.625
37,44,1635.375,C#2,R,817.6875
38,0,1635.375,D2,R,817.6875
37,44,1635.5,C#2,R,817.75
37,0,1635.5,C#2,R,817.75
37,0,1635.6666666666667,C#2,R,817.8333333333334
38,38,1635.6666666666667,D2,R,817.8333333333334
37,46,1635.8333333333333,C#2,R,817.9166666666666
38,0,1635.8333333333335,D2,R,817.9166666666667
37,0,1636.0,C#2,R,818.0
38,17,1636.25,D2,R,818.125
37,39,1636.3333333333333,C#2,R,818.1666666666666
37,0,1636.5,C#2,R,818.25
38,6,1636.5,D2,R,818.25
38,0,1636.75,D2,R,818.375
37,40,1636.75,C#2,R,818.375
37,0,1637.0,C#2,R,818.5
38,30,1637.0,D2,R,818.5
38,0,1637.0,D2,R,818.5
38,0,1637.125,D2,R,818.5625
37,47,1637.125,C#2,R,818.5625
38,3,1637.5,D2,R,818.75
37,0,1637.5,C#2,R,818.75
37,32,1637.625,C#2,R,818.8125
37,0,1638.0,C#2,R,819.0
37,42,1638.0,C#2,R,819.0
38,0,1638.0,D2,R,819.0
37,0,1638.25,C#2,R,819.125
38,24,1638.25,D2,R,819.125
38,0,1638.5,D2,R,819.25
37,45,1638.5,C#2,R,819.25
81,49,1638.75,A5,R,819.375
37,0,1638.875,C#2,R,819.4375
38,10,1638.875,D2,R,819.4375
79,55,1638.9375,G5,R,819.46875
38,0,1638.9375,D2,R,819.46875
38,10,1638.9375,D2,R,819.46875
38,0,1639.0,D2,R,819.5
79,0,1639.0,G5,R,819.5
79,55,1639.0,G5,R,819.5
81,0,1639.0,A5,R,819.5
77,60,1639.0,F5,R,819.5
37,36,1639.0,C#2,L,819.5
37,0,1639.375,C#2,L,819.6875
38,22,1639.375,D2,L,819.6875
38,0,1639.5,D2,L,819.75
37,26,1639.5833333333333,C#2,L,819.7916666666666
37,0,1639.6666666666665,C#2,L,819.8333333333333
38,6,1639.8333333333333,D2,L,819.9166666666666
38,0,1640.0,D2,L,820.0
37,44,1640.0,C#2,L,820.0
77,0,1640.0,F5,R,820.0
79,0,1640.0,G5,R,820.0
37,0,1640.375,C#2,L,820.1875
37,53,1640.375,C#2,L,820.1875
37,53,1640.5,C#2,L,820.25
37,0,1640.5,C#2,L,820.25
37,0,1640.75,C#2,L,820.375
38,20,1640.75,D2,L,820.375
38,0,1641.0,D2,L,820.5
37,43,1641.0,C#2,L,820.5
37,37,1641.5,C#2,L,820.75
37,0,1641.5,C#2,L,820.75
37,32,1641.875,C#2,L,820.9375
37,0,1641.875,C#2,L,820.9375
37,0,1642.0,C#2,L,821.0
37,37,1642.25,C#2,L,821.125
38,24,1642.5,D2,L,821.25
37,0,1642.5,C#2,L,821.25
37,42,1642.6666666666667,C#2,L,821.3333333333334
38,0,1642.6666666666667,D2,L,821.3333333333334
37,0,1642.75,C#2,L,821.375
38,29,1642.875,D2,L,821.4375
38,0,1643.0,D2,L,821.5
37,49,1643.0833333333333,C#2,L,821.5416666666666
37,0,1643.1666666666665,C#2,L,821.5833333333333
38,30,1643.3333333333333,D2,L,821.6666666666666
38,0,1643.5,D2,L,821.75
37,39,1643.5,C#2,L,821.75
37,0,1643.875,C#2,L,821.9375
37,42,1643.875,C#2,L,821.9375
37,0,1644.0,C#2,L,822.0
37,53,1644.25,C#2,L,822.125
37,0,1644.5,C#2,L,822.25
81,50,1644.6666666666667,A5,L,822.3333333333334
79,51,1644.9166666666667,G5,L,822.4583333333334
81,0,1644.9166666666667,A5,L,822.4583333333334
77,50,1645.0,F5,L,822.5
79,0,1645.0,G5,L,822.5
79,51,1645.0,G5,L,822.5
79,0,1646.0,G5,L,823.0
38,37,1646.0,D2,L,823.0
50,37,1646.0,D3,R,823.0
77,0,1647.0,F5,L,823.5
50,0,1648.0,D3,R,824.0
50,37,1648.0,D3,R,824.0
38,0,1648.0,D2,L,824.0
38,37,1648.0,D2,L,824.0
38,0,1651.0,D2,L,825.5
50,0,1651.0,D3,R,825.5
40,44,1652.0,E2,L,826.0
70,54,1652.0,A#4,R,826.0
52,40,1653.0,E3,R,826.5
40,0,1654.0,E2,L,827.0
52,0,1654.0,E3,R,827.0
69,54,1655.0,A4,L,827.5
70,0,1655.0,A#4,R,827.5
54,50,1655.0,F#3,R,827.5
42,51,1655.5,F#2,L,827.75
69,54,1656.0,A4,L,828.0
42,0,1656.0,F#2,L,828.0
69,0,1656.0,A4,L,828.0
42,51,1656.0,F#2,L,828.0
54,50,1656.0,F#3,R,828.0
54,0,1656.0,F#3,R,828.0
54,0,1657.0,F#3,R,828.5
42,0,1657.0,F#2,L,828.5
62,62,1658.0,D4,R,829.0
55,60,1658.0,G3,L,829.0
43,56,1658.0,G2,L,829.0
69,0,1659.0,A4,L,829.5
62,0,1660.0,D4,R,830.0
43,0,1660.0,G2,L,830.0
55,0,1660.0,G3,L,830.0
46,80,1661.0,A#2,L,830.5
58,78,1661.0,A#3,R,830.5
58,0,1663.0,A#3,R,831.5
46,0,1663.0,A#2,L,831.5
86,91,1664.0,D6,R,832.0
74,78,1664.0,D5,R,832.0
62,75,1664.0,D4,L,832.0
50,78,1664.0,D3,L,832.0
62,0,1665.0,D4,L,832.5
50,0,1665.0,D3,L,832.5
86,0,1666.0,D6,R,833.0
74,0,1666.0,D5,R,833.0
88,89,1667.0,E6,R,833.5
76,75,1667.0,E5,R,833.5
59,84,1667.0,B3,L,833.5
47,79,1667.0,B2,L,833.5
76,0,1668.0,E5,R,834.0
59,0,1668.0,B3,L,834.0
47,0,1668.0,B2,L,834.0
88,0,1668.0,E6,R,834.0
74,87,1668.25,D5,R,834.125
86,93,1668.25,D6,R,834.125
74,0,1669.0,D5,R,834.5
86,0,1669.0,D6,R,834.5
85,97,1670.0,C#6,R,835.0
73,86,1670.0,C#5,R,835.0
57,80,1670.0,A3,L,835.0
45,83,1670.0,A2,L,835.0
45,0,1671.0,A2,L,835.5
85,0,1671.0,C#6,R,835.5
57,0,1671.0,A3,L,835.5
86,100,1672.0,D6,R,836.0
82,95,1672.0,A#5,R,836.0
74,95,1672.0,D5,R,836.0
77,78,1672.0,F5,R,836.0
73,0,1672.0,C#5,R,836.0
46,93,1673.0,A#2,L,836.5
50,89,1673.0,D3,L,836.5
86,100,1673.0,D6,R,836.5
82,95,1673.0,A#5,R,836.5
74,95,1673.0,D5,R,836.5
58,98,1673.0,A#3,L,836.5
53,84,1673.0,F3,L,836.5
74,0,1673.0,D5,R,836.5
82,0,1673.0,A#5,R,836.5
86,0,1673.0,D6,R,836.5
74,0,1673.125,D5,R,836.5625
86,100,1673.125,D6,R,836.5625
82,95,1673.125,A#5,R,836.5625
86,0,1673.125,D6,R,836.5625
74,95,1673.125,D5,R,836.5625
82,0,1673.125,A#5,R,836.5625
78,12,1673.125,F#5,R,836.5625
74,0,1673.5,D5,R,836.75
82,0,1673.5,A#5,R,836.75
86,100,1673.5,D6,R,836.75
86,0,1673.5,D6,R,836.75
74,95,1673.5,D5,R,836.75
78,0,1673.5,F#5,R,836.75
82,95,1673.5,A#5,R,836.75
74,0,1674.0,D5,R,837.0
82,0,1674.0,A#5,R,837.0
86,0,1674.0,D6,R,837.0
74,95,1674.0,D5,R,837.0
82,95,1674.0,A#5,R,837.0
86,100,1674.0,D6,R,837.0
46,0,1676.0,A#2,L,838.0
50,89,1676.0,D3,L,838.0
46,93,1676.0,A#2,L,838.0
50,0,1676.0,D3,L,838.0
74,0,1676.0,D5,R,838.0
82,0,1676.0,A#5,R,838.0
86,0,1676.0,D6,R,838.0
58,0,1676.0,A#3,L,838.0
77,0,1676.0,F5,R,838.0
77,78,1676.0,F5,R,838.0
53,0,1676.0,F3,L,838.0
46,0,1677.0,A#2,L,838.5
50,0,1677.0,D3,L,838.5
77,0,1677.0,F5,R,838.5
50,82,1678.0,D3,L,839.0
53,81,1678.0,F3,L,839.0
58,88,1678.0,A#3,L,839.0
77,76,1678.0,F5,R,839.0
82,84,1678.0,A#5,R,839.0
86,96,1678.0,D6,R,839.0
46,91,1678.0,A#2,L,839.0
74,86,1678.0,D5,R,839.0
46,0,1680.0,A#2,L,840.0
50,0,1680.0,D3,L,840.0
53,0,1680.0,F3,L,840.0
58,0,1680.0,A#3,L,840.0
86,0,1680.0,D6,R,840.0
82,0,1680.0,A#5,R,840.0
74,0,1680.0,D5,R,840.0
77,0,1680.0,F5,R,840.0
46,48,1682.0,A#2,L,841.0
55,25,1682.0,G3,L,841.0
79,44,1682.0,G5,R,841.0
76,41,1682.0,E5,R,841.0
82,40,1682.0,A#5,R,841.0
88,58,1682.0,E6,R,841.0
52,31,1682.0,E3,L,841.0
43,45,1682.0,G2,L,841.0
46,0,1684.0,A#2,L,842.0
43,0,1684.0,G2,L,842.0
55,0,1684.0,G3,L,842.0
52,0,1684.0,E3,L,842.0
82,0,1684.0,A#5,R,842.0
76,0,1684.0,E5,R,842.0
79,0,1684.0,G5,R,842.0
88,0,1684.0,E6,R,842.0
79,37,1688.25,G5,L,844.125
76,35,1688.25,E5,L,844.125
85,45,1688.25,C#6,R,844.125
73,32,1688.25,C#5,L,844.125
57,14,1688.5,A3,R,844.25
52,29,1688.5,E3,L,844.25
49,37,1688.5,C#3,L,844.25
45,29,1688.5,A2,L,844.25
73,0,1689.0,C#5,L,844.5
57,0,1689.0,A3,R,844.5
85,0,1689.0,C#6,R,844.5
52,0,1689.0,E3,L,844.5
49,0,1689.0,C#3,L,844.5
45,0,1689.0,A2,L,844.5
76,0,1689.0,E5,L,844.5
79,0,1689.0,G5,L,844.5
56,43,1695.3333333333333,G#3,R,847.6666666666666
53,43,1695.5,F3,L,847.75
56,0,1695.6666666666665,G#3,R,847.8333333333333
62,37,1695.6666666666667,D4,R,847.8333333333334
62,0,1696.0,D4,R,848.0
53,42,1696.0,F3,L,848.0
56,57,1696.0,G#3,R,848.0
53,0,1696.0,F3,L,848.0
62,53,1696.25,D4,R,848.125
56,0,1696.25,G#3,R,848.125
53,0,1696.375,F3,L,848.1875
53,47,1696.375,F3,L,848.1875
56,51,1696.375,G#3,R,848.1875
62,0,1696.375,D4,R,848.1875
53,0,1696.5,F3,L,848.25
56,0,1696.5,G#3,R,848.25
62,55,1696.625,D4,R,848.3125
62,0,1696.75,D4,R,848.375
56,42,1696.8333333333333,G#3,R,848.4166666666666
56,0,1696.9166666666665,G#3,R,848.4583333333333
53,20,1696.9166666666667,F3,R,848.4583333333334
53,0,1697.0,F3,R,848.5
62,57,1697.0,D4,R,848.5
62,0,1697.1875,D4,R,848.59375
56,49,1697.1875,G#3,R,848.59375
53,42,1697.25,F3,L,848.625
56,0,1697.25,G#3,R,848.625
56,49,1697.25,G#3,R,848.625
56,0,1697.375,G#3,R,848.6875
62,52,1697.40625,D4,R,848.703125
53,0,1697.5,F3,L,848.75
62,0,1697.5,D4,R,848.75
53,46,1697.5,F3,L,848.75
56,51,1697.5625,G#3,R,848.78125
56,0,1697.75,G#3,R,848.875
62,51,1697.75,D4,R,848.875
62,0,1698.0,D4,R,849.0
56,53,1698.0,G#3,R,849.0
53,41,1698.0,F3,L,849.0
53,0,1698.0,F3,L,849.0
53,0,1698.1666666666667,F3,L,849.0833333333334
56,0,1698.1875,G#3,R,849.09375
62,48,1698.1875,D4,R,849.09375
62,0,1698.25,D4,R,849.125
62,48,1698.25,D4,R,849.125
53,43,1698.3333333333333,F3,L,849.1666666666666
62,0,1698.375,D4,R,849.1875
56,55,1698.375,G#3,R,849.1875
53,0,1698.5,F3,L,849.25
56,0,1698.5,G#3,R,849.25
62,58,1698.5,D4,R,849.25
62,0,1698.625,D4,R,849.3125
56,48,1698.71875,G#3,R,849.359375
56,48,1698.75,G#3,R,849.375
56,0,1698.75,G#3,R,849.375
53,48,1698.75,F3,L,849.375
53,43,1699.0,F3,L,849.5
56,0,1699.0,G#3,R,849.5
62,61,1699.0,D4,R,849.5
53,0,1699.0,F3,L,849.5
62,0,1699.0625,D4,R,849.53125
56,54,1699.0625,G#3,R,849.53125
56,0,1699.25,G#3,R,849.625
62,59,1699.25,D4,R,849.625
62,0,1699.375,D4,R,849.6875
56,51,1699.4375,G#3,R,849.71875
56,0,1699.5,G#3,R,849.75
56,51,1699.5,G#3,R,849.75
53,0,1699.5,F3,L,849.75
53,48,1699.5833333333333,F3,L,849.7916666666666
56,0,1699.625,G#3,R,849.8125
62,57,1699.65625,D4,R,849.828125
56,54,1699.75,G#3,R,849.875
62,0,1699.75,D4,R,849.875
53,0,1699.8333333333333,F3,L,849.9166666666666
53,42,1699.8333333333333,F3,L,849.9166666666666
53,0,1700.0,F3,L,850.0
62,62,1700.0,D4,L,850.0
56,0,1700.0,G#3,R,850.0
53,56,1700.25,F3,R,850.125
56,61,1700.25,G#3,R,850.125
33,76,1700.3333333333333,A1,L,850.1666666666666
62,0,1700.3333333333333,D4,L,850.1666666666666
53,0,1700.5,F3,R,850.25
56,0,1700.5,G#3,R,850.25
33,0,1700.5,A1,L,850.25
45,55,1700.5,A2,L,850.25
62,57,1700.5625,D4,R,850.28125
45,0,1700.75,A2,L,850.375
56,60,1700.75,G#3,R,850.375
53,47,1700.75,F3,R,850.375
62,0,1700.75,D4,R,850.375
33,64,1700.75,A1,L,850.375
33,0,1701.0,A1,L,850.5
45,44,1701.0,A2,L,850.5
56,0,1701.0,G#3,R,850.5
53,0,1701.0,F3,R,850.5
45,0,1701.0625,A2,L,850.53125
62,50,1701.0625,D4,L,850.53125
62,0,1701.125,D4,L,850.5625
33,56,1701.125,A1,L,850.5625
56,56,1701.21875,G#3,R,850.609375
56,56,1701.25,G#3,R,850.625
56,0,1701.25,G#3,R,850.625
33,0,1701.25,A1,L,850.625
53,35,1701.25,F3,L,850.625
56,0,1701.375,G#3,R,850.6875
45,46,1701.375,A2,R,850.6875
45,0,1701.5,A2,R,850.75
62,43,1701.5416666666667,D4,R,850.7708333333334
33,55,1701.5833333333333,A1,R,850.7916666666666
62,0,1701.5833333333335,D4,R,850.7916666666667
33,0,1701.6666666666665,A1,R,850.8333333333333
56,54,1701.6666666666667,G#3,R,850.8333333333334
56,0,1701.75,G#3,R,850.875
53,28,1701.75,F3,R,850.875
53,0,1701.75,F3,L,850.875
45,28,1701.875,A2,L,850.9375
53,0,1701.875,F3,R,850.9375
62,53,1701.875,D4,R,850.9375
45,0,1702.0,A2,L,851.0
33,61,1702.0,A1,L,851.0
62,0,1702.0,D4,R,851.0
56,49,1702.0833333333333,G#3,R,851.0416666666666
33,0,1702.125,A1,L,851.0625
53,32,1702.125,F3,L,851.0625
56,0,1702.1666666666665,G#3,R,851.0833333333333
45,44,1702.25,A2,L,851.125
53,0,1702.25,F3,L,851.125
62,53,1702.3333333333333,D4,R,851.1666666666666
33,56,1702.375,A1,L,851.1875
45,0,1702.375,A2,L,851.1875
33,0,1702.5,A1,L,851.25
33,56,1702.5,A1,L,851.25
56,50,1702.5,G#3,R,851.25
62,0,1702.5,D4,R,851.25
53,41,1702.55,F3,R,851.275
56,0,1702.55,G#3,R,851.275
45,47,1702.6,A2,R,851.3
53,0,1702.6,F3,R,851.3
45,0,1702.6999999999998,A2,R,851.3499999999999
62,52,1702.7,D4,R,851.35
62,0,1702.8,D4,R,851.4
33,61,1702.8,A1,R,851.4
33,0,1702.875,A1,L,851.4375
53,43,1702.875,F3,L,851.4375
33,0,1702.8999999999999,A1,R,851.4499999999999
56,55,1702.9,G#3,R,851.45
45,48,1703.0,A2,L,851.5
56,0,1703.0,G#3,R,851.5
53,0,1703.0,F3,L,851.5
62,62,1703.125,D4,L,851.5625
62,0,1703.25,D4,L,851.625
53,54,1703.25,F3,R,851.625
56,69,1703.25,G#3,R,851.625
33,59,1703.3125,A1,L,851.65625
33,0,1703.5,A1,L,851.75
45,52,1703.5,A2,L,851.75
62,53,1703.5,D4,R,851.75
56,0,1703.5,G#3,R,851.75
53,0,1703.5,F3,R,851.75
56,61,1703.75,G#3,R,851.875
45,0,1703.75,A2,L,851.875
33,64,1703.75,A1,L,851.875
62,0,1703.75,D4,R,851.875
56,0,1703.875,G#3,R,851.9375
53,31,1703.875,F3,R,851.9375
33,0,1704.0,A1,L,852.0
53,0,1704.0,F3,R,852.0
62,54,1704.0,D4,R,852.0
45,0,1704.0,A2,L,852.0
45,52,1704.0,A2,L,852.0
45,0,1704.25,A2,L,852.125
33,62,1704.25,A1,L,852.125
62,0,1704.25,D4,R,852.125
56,51,1704.25,G#3,R,852.125
53,48,1704.25,F3,R,852.125
62,59,1704.4375,D4,L,852.21875
33,0,1704.5,A1,L,852.25
62,59,1704.5,D4,L,852.25
62,0,1704.5,D4,L,852.25
56,0,1704.5,G#3,R,852.25
45,52,1704.5,A2,L,852.25
53,48,1704.5,F3,R,852.25
53,0,1704.5,F3,R,852.25
56,51,1704.5,G#3,R,852.25
56,59,1704.625,G#3,R,852.3125
45,0,1704.625,A2,L,852.3125
53,41,1704.625,F3,L,852.3125
33,65,1704.6875,A1,R,852.34375
53,0,1704.6875,F3,R,852.34375
56,0,1704.6875,G#3,R,852.34375
33,0,1704.75,A1,R,852.375
45,53,1704.875,A2,L,852.4375
62,50,1704.875,D4,R,852.4375
53,0,1704.875,F3,L,852.4375
45,0,1705.0,A2,L,852.5
33,67,1705.0,A1,L,852.5
56,0,1705.0,G#3,R,852.5
62,0,1705.0,D4,L,852.5
62,0,1705.0,D4,R,852.5
53,34,1705.0,F3,R,852.5
56,55,1705.0,G#3,R,852.5
53,0,1705.25,F3,R,852.625
56,0,1705.25,G#3,R,852.625
33,0,1705.25,A1,L,852.625
62,37,1705.2916666666667,D4,R,852.6458333333334
33,66,1705.2916666666667,A1,L,852.6458333333334
45,48,1705.2916666666667,A2,L,852.6458333333334
33,66,1705.3333333333333,A1,L,852.6666666666666
45,0,1705.3333333333335,A2,L,852.6666666666667
33,0,1705.3333333333335,A1,L,852.6666666666667
33,0,1705.4166666666665,A1,L,852.7083333333333
53,20,1705.4166666666667,F3,L,852.7083333333334
56,57,1705.4166666666667,G#3,R,852.7083333333334
62,0,1705.4166666666667,D4,R,852.7083333333334
53,0,1705.5,F3,L,852.75
56,0,1705.5,G#3,R,852.75
33,75,1705.625,A1,L,852.8125
62,52,1705.625,D4,R,852.8125
62,0,1705.875,D4,R,852.9375
45,3,1705.875,A2,R,852.9375
33,70,1706.0,A1,L,853.0
45,0,1706.0,A2,R,853.0
33,0,1706.0,A1,L,853.0
45,61,1706.2,A2,R,853.1
45,0,1706.4,A2,R,853.2
89,96,1706.4,F6,R,853.2
33,0,1706.5,A1,L,853.25
33,90,1706.5,A1,L,853.25
41,85,1706.5,F2,L,853.25
38,88,1706.5,D2,L,853.25
89,96,1706.8,F6,R,853.4
45,73,1706.8,A2,R,853.4
89,0,1706.8000000000002,F6,R,853.4000000000001
38,51,1707.0,D2,L,853.5
45,0,1707.0,A2,R,853.5
89,96,1707.0,F6,R,853.5
33,0,1707.0,A1,L,853.5
38,0,1707.0,D2,L,853.5
41,0,1707.0,F2,L,853.5
33,53,1707.0,A1,L,853.5
89,0,1707.0,F6,R,853.5
89,0,1707.2,F6,R,853.6
41,27,1707.2,F2,R,853.6
89,96,1707.2,F6,R,853.6
38,0,1707.25,D2,L,853.625
33,0,1707.25,A1,L,853.625
45,67,1707.2916666666667,A2,L,853.6458333333334
45,0,1707.3333333333335,A2,L,853.6666666666667
89,96,1707.4,F6,R,853.7
38,57,1707.4,D2,R,853.7
41,0,1707.4,F2,R,853.7
89,0,1707.4,F6,R,853.7
33,67,1707.4166666666667,A1,L,853.7083333333334
33,67,1707.5,A1,L,853.75
33,0,1707.5,A1,L,853.75
41,3,1707.5,F2,L,853.75
45,72,1707.6,A2,R,853.8
89,96,1707.6,F6,R,853.8
89,0,1707.6000000000001,F6,R,853.8000000000001
38,0,1707.6000000000001,D2,R,853.8000000000001
41,0,1707.75,F2,L,853.875
33,67,1707.75,A1,L,853.875
33,0,1707.75,A1,L,853.875
33,62,1707.75,A1,L,853.875
38,63,1707.8,D2,R,853.9
45,0,1707.8,A2,R,853.9
89,96,1707.8,F6,R,853.9
89,0,1707.8,F6,R,853.9
41,26,1707.875,F2,L,853.9375
33,0,1707.875,A1,L,853.9375
89,96,1708.0,F6,R,854.0
89,0,1708.0,F6,R,854.0
33,0,1708.0,A1,L,854.0
45,75,1708.0,A2,L,854.0
41,0,1708.0,F2,L,854.0
38,0,1708.0,D2,R,854.0
89,96,1708.1666666666667,F6,R,854.0833333333334
89,0,1708.1666666666667,F6,R,854.0833333333334
38,50,1708.1666666666667,D2,R,854.0833333333334
33,65,1708.1875,A1,L,854.09375
33,65,1708.25,A1,L,854.125
33,0,1708.25,A1,L,854.125
45,0,1708.25,A2,L,854.125
41,18,1708.25,F2,L,854.125
45,65,1708.3333333333333,A2,R,854.1666666666666
38,0,1708.3333333333335,D2,R,854.1666666666667
89,0,1708.3333333333335,F6,R,854.1666666666667
38,54,1708.5,D2,R,854.25
45,0,1708.5,A2,R,854.25
41,0,1708.5,F2,L,854.25
41,48,1708.5625,F2,R,854.28125
41,48,1708.625,F2,R,854.3125
41,0,1708.625,F2,R,854.3125
91,74,1708.625,G6,R,854.3125
33,63,1708.625,A1,L,854.3125
38,0,1708.75,D2,R,854.375
89,83,1708.75,F6,R,854.375
33,0,1708.75,A1,L,854.375
45,68,1708.75,A2,L,854.375
41,0,1708.875,F2,R,854.4375
91,0,1708.875,G6,R,854.4375
41,48,1708.875,F2,R,854.4375
88,81,1708.875,E6,R,854.4375
91,74,1708.875,G6,R,854.4375
45,0,1709.0,A2,L,854.5
38,29,1709.0,D2,L,854.5
33,0,1709.0,A1,L,854.5
45,68,1709.0,A2,L,854.5
41,0,1709.0,F2,R,854.5
88,0,1709.0,E6,R,854.5
91,0,1709.0,G6,R,854.5
86,102,1709.0,D6,R,854.5
88,81,1709.0,E6,R,854.5
89,83,1709.0,F6,R,854.5
89,0,1709.0,F6,R,854.5
41,58,1709.25,F2,L,854.625
38,0,1709.25,D2,L,854.625
33,74,1709.25,A1,L,854.625
38,29,1709.25,D2,L,854.625
41,58,1709.5,F2,L,854.75
86,102,1709.5,D6,R,854.75
41,0,1709.5,F2,L,854.75
86,0,1709.5,D6,R,854.75
33,74,1709.5,A1,L,854.75
45,58,1709.5,A2,R,854.75
38,0,1709.5,D2,L,854.75
33,0,1709.5,A1,L,854.75
88,0,1709.5,E6,R,854.75
33,65,1709.75,A1,L,854.875
86,102,1709.75,D6,R,854.875
33,0,1709.75,A1,L,854.875
38,54,1709.75,D2,R,854.875
86,0,1709.75,D6,R,854.875
41,0,1709.75,F2,L,854.875
45,0,1709.75,A2,R,854.875
41,47,1709.875,F2,L,854.9375
33,0,1709.875,A1,L,854.9375
45,0,1710.0,A2,L,855.0
89,0,1710.0,F6,R,855.0
38,0,1710.0,D2,R,855.0
86,102,1710.0,D6,R,855.0
45,65,1710.0,A2,L,855.0
41,0,1710.0,F2,L,855.0
86,0,1710.0,D6,R,855.0
86,0,1710.25,D6,R,855.125
86,102,1710.25,D6,R,855.125
33,63,1710.25,A1,L,855.125
45,0,1710.25,A2,L,855.125
38,54,1710.25,D2,R,855.125
45,67,1710.375,A2,L,855.1875
33,0,1710.375,A1,L,855.1875
38,65,1710.5,D2,L,855.25
45,0,1710.5,A2,L,855.25
33,65,1710.625,A1,L,855.3125
45,65,1710.75,A2,L,855.375
33,0,1710.75,A1,L,855.375
33,80,1710.875,A1,L,855.4375
38,0,1710.875,D2,L,855.4375
45,0,1711.0,A2,L,855.5
33,80,1711.0,A1,L,855.5
38,26,1711.0,D2,L,855.5
86,0,1711.0,D6,R,855.5
93,105,1711.0,A6,R,855.5
38,0,1711.0,D2,R,855.5
33,0,1711.0,A1,L,855.5
38,26,1711.0625,D2,L,855.53125
38,0,1711.0625,D2,L,855.53125
45,71,1711.0625,A2,L,855.53125
38,0,1711.25,D2,L,855.625
45,0,1711.25,A2,L,855.625
33,55,1711.25,A1,L,855.625
45,56,1711.5,A2,L,855.75
33,0,1711.5,A1,L,855.75
33,56,1711.6875,A1,L,855.84375
45,0,1711.6875,A2,L,855.84375
33,0,1711.75,A1,L,855.875
33,56,1711.75,A1,L,855.875
93,0,1712.0,A6,R,856.0
33,0,1712.0,A1,L,856.0
93,108,1712.0,A6,R,856.0
45,52,1712.0,A2,L,856.0
33,0,1712.0,A1,L,856.0
33,95,1712.25,A1,L,856.125
45,0,1712.25,A2,L,856.125
33,0,1712.5,A1,L,856.25
92,92,1712.5,G#6,R,856.25
45,60,1712.625,A2,L,856.3125
33,69,1712.875,A1,L,856.4375
45,0,1712.875,A2,L,856.4375
93,0,1713.0,A6,R,856.5
33,0,1713.0,A1,L,856.5
92,0,1713.0,G#6,R,856.5
91,84,1713.0,G6,R,856.5
45,63,1713.125,A2,L,856.5625
90,91,1713.25,F#6,L,856.625
45,0,1713.375,A2,L,856.6875
33,68,1713.375,A1,L,856.6875
91,0,1713.5,G6,R,856.75
89,91,1713.5,F6,R,856.75
33,0,1713.5,A1,L,856.75
45,58,1713.5,A2,L,856.75
45,0,1713.75,A2,L,856.875
33,69,1713.75,A1,L,856.875
33,0,1714.0,A1,L,857.0
88,89,1714.0,E6,L,857.0
90,0,1714.0,F#6,L,857.0
45,63,1714.0,A2,R,857.0
89,0,1714.0,F6,R,857.0
33,56,1714.0833333333333,A1,R,857.0416666666666
45,0,1714.0833333333333,A2,R,857.0416666666666
33,0,1714.1666666666665,A1,R,857.0833333333333
87,90,1714.1666666666667,D#6,R,857.0833333333334
33,56,1714.1666666666667,A1,R,857.0833333333334
87,90,1714.25,D#6,R,857.125
33,0,1714.25,A1,R,857.125
33,56,1714.25,A1,R,857.125
87,0,1714.25,D#6,R,857.125
45,44,1714.375,A2,L,857.1875
88,0,1714.375,E6,L,857.1875
45,0,1714.5,A2,L,857.25
86,89,1714.5,D6,L,857.25
38,66,1714.875,D2,L,857.4375
86,0,1714.875,D6,L,857.4375
33,0,1715.0,A1,R,857.5
85,83,1715.0,C#6,R,857.5
87,0,1715.0,D#6,R,857.5
38,0,1715.0,D2,L,857.5
38,66,1715.0,D2,L,857.5
38,0,1715.125,D2,L,857.5625
84,76,1715.125,C6,R,857.5625
50,50,1715.125,D3,L,857.5625
38,50,1715.375,D2,L,857.6875
83,70,1715.375,B5,R,857.6875
84,0,1715.375,C6,R,857.6875
50,0,1715.375,D3,L,857.6875
83,0,1715.5,B5,R,857.75
38,0,1715.5,D2,L,857.75
82,71,1715.5416666666667,A#5,R,857.7708333333334
50,50,1715.5625,D3,L,857.78125
82,0,1715.6666666666667,A#5,R,857.8333333333334
38,58,1715.6666666666667,D2,R,857.8333333333334
50,0,1715.75,D3,L,857.875
38,0,1715.75,D2,R,857.875
81,63,1715.75,A5,R,857.875
50,58,1715.875,D3,L,857.9375
81,0,1715.875,A5,R,857.9375
80,71,1715.875,G#5,R,857.9375
85,0,1716.0,C#6,R,858.0
50,0,1716.0,D3,L,858.0
80,0,1716.0,G#5,R,858.0
38,58,1716.0625,D2,L,858.03125
79,58,1716.0625,G5,R,858.03125
78,67,1716.25,F#5,R,858.125
79,0,1716.25,G5,R,858.125
38,0,1716.25,D2,L,858.125
50,27,1716.3125,D3,R,858.15625
50,27,1716.375,D3,R,858.1875
77,57,1716.375,F5,R,858.1875
50,0,1716.375,D3,R,858.1875
38,53,1716.375,D2,L,858.1875
38,53,1716.5,D2,L,858.25
50,0,1716.5,D3,R,858.25
38,0,1716.5,D2,L,858.25
77,0,1716.5,F5,R,858.25
76,56,1716.5833333333333,E5,R,858.2916666666666
76,0,1716.6666666666665,E5,R,858.3333333333333
75,67,1716.6666666666667,D#5,R,858.3333333333334
38,0,1716.6875,D2,L,858.34375
38,57,1716.6875,D2,L,858.34375
38,0,1716.75,D2,L,858.375
75,67,1716.75,D#5,R,858.375
75,0,1716.75,D#5,R,858.375
75,0,1717.0,D#5,R,858.5
74,67,1717.0,D5,R,858.5
38,64,1717.0,D2,L,858.5
78,0,1717.0,F#5,R,858.5
74,0,1718.0,D5,R,859.0
56,50,1718.0,G#3,R,859.0
53,49,1718.0,F3,L,859.0
38,0,1718.0,D2,L,859.0
62,51,1718.25,D4,R,859.125
56,0,1718.25,G#3,R,859.125
53,0,1718.375,F3,L,859.1875
53,42,1718.4375,F3,L,859.21875
62,0,1718.4375,D4,R,859.21875
56,53,1718.4375,G#3,R,859.21875
56,53,1718.5,G#3,R,859.25
56,0,1718.5,G#3,R,859.25
53,42,1718.5,F3,L,859.25
53,0,1718.5,F3,L,859.25
62,46,1718.625,D4,R,859.3125
56,0,1718.625,G#3,R,859.3125
53,41,1718.875,F3,L,859.4375
53,0,1718.875,F3,L,859.4375
56,54,1718.875,G#3,R,859.4375
62,0,1718.875,D4,R,859.4375
56,0,1719.0,G#3,R,859.5
53,0,1719.0,F3,L,859.5
62,42,1719.0625,D4,R,859.53125
56,52,1719.25,G#3,R,859.625
62,0,1719.25,D4,R,859.625
53,44,1719.25,F3,L,859.625
56,0,1719.5,G#3,R,859.75
62,53,1719.5,D4,R,859.75
53,35,1719.75,F3,L,859.875
53,0,1719.75,F3,L,859.875
56,50,1719.75,G#3,R,859.875
62,0,1719.75,D4,R,859.875
62,52,1719.875,D4,R,859.9375
56,0,1719.875,G#3,R,859.9375
62,0,1720.0,D4,R,860.0
53,0,1720.0,F3,L,860.0
56,53,1720.125,G#3,R,860.0625
53,39,1720.125,F3,L,860.0625
62,62,1720.25,D4,R,860.125
56,0,1720.25,G#3,R,860.125
62,0,1720.5,D4,R,860.25
56,65,1720.5,G#3,R,860.25
53,61,1720.5,F3,L,860.25
53,0,1720.5,F3,L,860.25
56,0,1720.75,G#3,R,860.375
62,53,1720.7916666666667,D4,R,860.3958333333334
62,0,1720.9166666666667,D4,R,860.4583333333334
56,49,1720.9166666666667,G#3,R,860.4583333333334
56,0,1721.0,G#3,R,860.5
53,42,1721.0,F3,L,860.5
53,0,1721.0,F3,L,860.5
62,57,1721.125,D4,R,860.5625
53,46,1721.25,F3,L,860.625
62,0,1721.25,D4,R,860.625
53,0,1721.25,F3,L,860.625
56,52,1721.3125,G#3,R,860.65625
56,0,1721.5,G#3,R,860.75
62,59,1721.5,D4,R,860.75
53,0,1721.75,F3,L,860.875
53,46,1721.75,F3,L,860.875
62,0,1721.75,D4,R,860.875
56,60,1721.75,G#3,R,860.875
53,0,1722.0,F3,L,861.0
56,0,1722.0,G#3,R,861.0
62,61,1722.0,D4,R,861.0
62,0,1722.125,D4,R,861.0625
56,62,1722.125,G#3,R,861.0625
53,40,1722.125,F3,L,861.0625
56,0,1722.25,G#3,R,861.125
62,61,1722.34375,D4,R,861.171875
62,61,1722.375,D4,R,861.1875
62,0,1722.375,D4,R,861.1875
53,0,1722.5,F3,L,861.25
56,56,1722.5,G#3,R,861.25
62,0,1722.5,D4,R,861.25
53,41,1722.5,F3,L,861.25
62,68,1722.75,D4,L,861.375
53,0,1722.75,F3,L,861.375
62,0,1723.0,D4,L,861.5
62,68,1723.0,D4,L,861.5
56,0,1723.0,G#3,R,861.5
53,62,1723.0625,F3,R,861.53125
56,69,1723.0625,G#3,R,861.53125
33,76,1723.0833333333333,A1,L,861.5416666666666
62,0,1723.0833333333333,D4,L,861.5416666666666
53,0,1723.25,F3,R,861.625
56,0,1723.25,G#3,R,861.625
62,60,1723.3125,D4,R,861.65625
33,0,1723.3333333333333,A1,L,861.6666666666666
45,55,1723.3333333333333,A2,L,861.6666666666666
56,57,1723.5,G#3,R,861.75
53,35,1723.5,F3,R,861.75
62,0,1723.5,D4,R,861.75
45,0,1723.5,A2,L,861.75
33,60,1723.5,A1,L,861.75
56,0,1723.75,G#3,R,861.875
33,0,1723.75,A1,L,861.875
45,47,1723.75,A2,L,861.875
53,0,1723.75,F3,R,861.875
62,53,1723.7916666666667,D4,R,861.8958333333334
62,0,1723.8333333333335,D4,R,861.9166666666667
33,55,1723.875,A1,L,861.9375
56,58,1723.9166666666667,G#3,R,861.9583333333334
45,0,1724.0,A2,L,862.0
33,55,1724.0,A1,L,862.0
56,0,1724.0,G#3,R,862.0
53,39,1724.0,F3,R,862.0
45,56,1724.0,A2,L,862.0
33,0,1724.0,A1,L,862.0
53,0,1724.1875,F3,R,862.09375
62,44,1724.1875,D4,R,862.09375
62,0,1724.25,D4,R,862.125
53,48,1724.375,F3,R,862.1875
33,72,1724.375,A1,L,862.1875
56,58,1724.375,G#3,R,862.1875
45,0,1724.375,A2,L,862.1875
53,0,1724.5,F3,R,862.25
33,0,1724.5,A1,L,862.25
33,72,1724.5,A1,L,862.25
56,0,1724.5,G#3,R,862.25
33,0,1724.625,A1,L,862.3125
62,55,1724.625,D4,L,862.3125
62,0,1724.6875,D4,L,862.34375
45,59,1724.6875,A2,L,862.34375
45,0,1724.75,A2,L,862.375
45,59,1724.75,A2,L,862.375
33,67,1724.8125,A1,L,862.40625
45,0,1724.8125,A2,L,862.40625
53,33,1724.8125,F3,R,862.40625
56,56,1724.8125,G#3,R,862.40625
33,0,1725.0,A1,L,862.5
33,0,1725.0,A1,L,862.5
53,0,1725.0,F3,R,862.5
62,59,1725.0,D4,L,862.5
56,0,1725.0,G#3,R,862.5
45,54,1725.0625,A2,L,862.53125
33,71,1725.25,A1,L,862.625
45,0,1725.25,A2,L,862.625
56,60,1725.2916666666667,G#3,R,862.6458333333334
53,38,1725.2916666666667,F3,R,862.6458333333334
53,38,1725.3333333333333,F3,R,862.6666666666666
56,0,1725.3333333333335,G#3,R,862.6666666666667
53,0,1725.3333333333335,F3,R,862.6666666666667
53,0,1725.4166666666665,F3,R,862.7083333333333
62,62,1725.4583333333333,D4,R,862.7291666666666
33,0,1725.5,A1,L,862.75
45,59,1725.5,A2,L,862.75
62,62,1725.5,D4,R,862.75
62,0,1725.5,D4,L,862.75
62,0,1725.5,D4,R,862.75
33,38,1725.625,A1,L,862.8125
62,0,1725.75,D4,R,862.875
33,0,1725.75,A1,L,862.875
33,92,1725.75,A1,L,862.875
53,75,1725.8125,F3,R,862.90625
62,15,1725.8125,D4,R,862.90625
56,54,1725.8125,G#3,R,862.90625
62,0,1726.0,D4,R,863.0
56,0,1726.0,G#3,R,863.0
53,0,1726.0,F3,R,863.0
33,0,1726.0,A1,L,863.0
45,0,1726.0,A2,L,863.0
45,48,1726.0,A2,L,863.0
62,69,1726.125,D4,R,863.0625
45,0,1726.25,A2,L,863.125
62,0,1726.25,D4,R,863.125
56,73,1726.3125,G#3,R,863.15625
53,52,1726.3125,F3,R,863.15625
33,69,1726.3125,A1,L,863.15625
62,56,1726.5,D4,R,863.25
56,0,1726.5,G#3,R,863.25
33,0,1726.5,A1,L,863.25
53,0,1726.5,F3,R,863.25
45,54,1726.5,A2,L,863.25
33,47,1726.625,A1,L,863.3125
56,61,1726.6666666666667,G#3,R,863.3333333333334
62,0,1726.6666666666667,D4,R,863.3333333333334
56,0,1726.75,G#3,R,863.375
45,0,1726.75,A2,L,863.375
53,56,1726.75,F3,L,863.375
53,0,1726.875,F3,L,863.4375
62,62,1726.875,D4,L,863.4375
45,57,1727.0,A2,L,863.5
33,0,1727.0,A1,L,863.5
62,0,1727.0,D4,L,863.5
56,73,1727.125,G#3,R,863.5625
33,79,1727.125,A1,L,863.5625
53,53,1727.125,F3,R,863.5625
45,0,1727.125,A2,L,863.5625
33,0,1727.25,A1,L,863.625
62,73,1727.3333333333333,D4,L,863.6666666666666
62,0,1727.4166666666665,D4,L,863.7083333333333
45,54,1727.4166666666667,A2,L,863.7083333333334
45,0,1727.5,A2,L,863.75
33,77,1727.5,A1,L,863.75
53,0,1727.5,F3,R,863.75
56,0,1727.5,G#3,R,863.75
56,71,1727.5,G#3,R,863.75
53,1,1727.6875,F3,R,863.84375
53,0,1727.75,F3,R,863.875
33,0,1727.75,A1,L,863.875
45,61,1727.75,A2,L,863.875
56,0,1727.75,G#3,R,863.875
62,59,1727.75,D4,R,863.875
53,1,1727.75,F3,R,863.875
56,64,1727.875,G#3,R,863.9375
62,59,1727.875,D4,R,863.9375
53,37,1727.875,F3,R,863.9375
62,0,1727.875,D4,R,863.9375
33,78,1727.875,A1,L,863.9375
45,0,1727.875,A2,L,863.9375
33,0,1728.0,A1,L,864.0
62,0,1728.0,D4,R,864.0
56,0,1728.0,G#3,R,864.0
53,0,1728.0,F3,R,864.0
53,0,1728.0,F3,R,864.0
45,65,1728.125,A2,L,864.0625
45,0,1728.25,A2,L,864.125
33,77,1728.25,A1,L,864.125
33,0,1728.4166666666667,A1,L,864.2083333333334
45,68,1728.4583333333333,A2,L,864.2291666666666
45,0,1728.5,A2,L,864.25
45,68,1728.5,A2,L,864.25
45,0,1728.75,A2,L,864.375
33,91,1728.75,A1,L,864.375
89,97,1728.75,F6,R,864.375
89,97,1729.0,F6,R,864.5
89,0,1729.0,F6,R,864.5
33,0,1729.0,A1,L,864.5
45,66,1729.0833333333333,A2,L,864.5416666666666
45,0,1729.1666666666665,A2,L,864.5833333333333
91,92,1729.1666666666667,G6,L,864.5833333333334
89,0,1729.25,F6,R,864.625
33,78,1729.25,A1,R,864.625
33,0,1729.5,A1,R,864.75
89,95,1729.5,F6,R,864.75
91,0,1729.5,G6,L,864.75
88,91,1729.5,E6,L,864.75
45,58,1729.625,A2,R,864.8125
33,76,1729.75,A1,L,864.875
88,0,1730.0,E6,L,865.0
45,0,1730.0,A2,R,865.0
33,0,1730.0,A1,L,865.0
89,0,1730.0,F6,R,865.0
86,85,1730.0,D6,R,865.0
45,63,1730.0833333333333,A2,L,865.0416666666666
33,74,1730.3333333333333,A1,L,865.1666666666666
45,0,1730.3333333333333,A2,L,865.1666666666666
92,89,1730.5,G#6,L,865.25
33,0,1730.5,A1,L,865.25
92,0,1730.5833333333333,G#6,L,865.2916666666666
45,64,1730.5833333333333,A2,L,865.2916666666666
92,89,1730.5833333333333,G#6,L,865.2916666666666
93,97,1730.75,A6,R,865.375
45,0,1730.8333333333333,A2,L,865.4166666666666
92,0,1730.8333333333333,G#6,L,865.4166666666666
33,75,1730.8333333333333,A1,L,865.4166666666666
92,98,1731.0,G#6,R,865.5
93,97,1731.0,A6,R,865.5
93,0,1731.0,A6,R,865.5
86,0,1731.0,D6,R,865.5
45,67,1731.0,A2,L,865.5
33,0,1731.0,A1,L,865.5
92,0,1731.5,G#6,R,865.75
93,104,1731.5,A6,R,865.75
45,0,1731.5,A2,L,865.75
33,79,1731.5833333333333,A1,L,865.7916666666666
33,0,1731.6666666666665,A1,L,865.8333333333333
45,61,1731.6666666666667,A2,L,865.8333333333334
92,93,1731.8333333333333,G#6,L,865.9166666666666
45,0,1731.8333333333335,A2,L,865.9166666666667
92,93,1732.0,G#6,L,866.0
93,0,1732.0,A6,R,866.0
33,73,1732.0,A1,L,866.0
93,0,1732.0,A6,R,866.0
92,0,1732.0,G#6,L,866.0
33,0,1732.25,A1,L,866.125
45,62,1732.25,A2,L,866.125
93,97,1732.25,A6,R,866.125
92,93,1732.25,G#6,L,866.125
92,0,1732.25,G#6,L,866.125
33,72,1732.4375,A1,L,866.21875
92,97,1732.5,G#6,L,866.25
92,0,1732.5,G#6,L,866.25
33,0,1732.5,A1,L,866.25
33,72,1732.5,A1,L,866.25
45,0,1732.5,A2,L,866.25
92,0,1732.75,G#6,L,866.375
45,64,1732.75,A2,L,866.375
92,97,1732.75,G#6,L,866.375
93,0,1733.0,A6,R,866.5
45,0,1733.0,A2,L,866.5
93,101,1733.0,A6,R,866.5
33,72,1733.0,A1,L,866.5
33,0,1733.0,A1,L,866.5
92,0,1733.0,G#6,L,866.5
45,61,1733.125,A2,L,866.5625
33,0,1733.25,A1,L,866.625
92,96,1733.25,G#6,L,866.625
93,0,1733.3333333333333,A6,R,866.6666666666666
92,0,1733.375,G#6,L,866.6875
92,96,1733.375,G#6,L,866.6875
33,76,1733.375,A1,L,866.6875
92,0,1733.5,G#6,L,866.75
92,96,1733.5,G#6,L,866.75
45,0,1733.5,A2,L,866.75
33,0,1733.5,A1,L,866.75
92,0,1733.625,G#6,L,866.8125
92,96,1733.625,G#6,L,866.8125
45,63,1733.625,A2,L,866.8125
93,100,1733.6666666666667,A6,R,866.8333333333334
45,0,1733.75,A2,L,866.875
33,75,1733.75,A1,L,866.875
92,0,1733.75,G#6,L,866.875
33,0,1734.0,A1,L,867.0
92,98,1734.0,G#6,L,867.0
93,0,1734.0,A6,R,867.0
45,66,1734.125,A2,L,867.0625
33,76,1734.25,A1,L,867.125
45,0,1734.25,A2,L,867.125
93,100,1734.3333333333333,A6,R,867.1666666666666
33,0,1734.5,A1,L,867.25
45,55,1734.625,A2,L,867.3125
93,0,1734.6666666666665,A6,R,867.3333333333333
92,86,1734.6666666666667,G#6,R,867.3333333333334
33,67,1734.875,A1,L,867.4375
45,0,1734.875,A2,L,867.4375
92,0,1735.0,G#6,R,867.5
33,0,1735.0,A1,L,867.5
92,0,1735.0,G#6,L,867.5
91,84,1735.0,G6,L,867.5
45,58,1735.125,A2,L,867.5625
45,0,1735.25,A2,L,867.625
33,65,1735.3125,A1,L,867.65625
90,90,1735.3333333333333,F#6,R,867.6666666666666
33,0,1735.5,A1,L,867.75
45,57,1735.5416666666667,A2,L,867.7708333333334
45,57,1735.5833333333333,A2,L,867.7916666666666
45,0,1735.5833333333335,A2,L,867.7916666666667
90,0,1735.6666666666665,F#6,R,867.8333333333333
89,89,1735.6666666666667,F6,R,867.8333333333334
33,66,1735.7083333333333,A1,L,867.8541666666666
45,0,1735.7083333333333,A2,L,867.8541666666666
33,66,1735.75,A1,L,867.875
33,0,1735.75,A1,L,867.875
33,0,1736.0,A1,L,868.0
45,59,1736.0,A2,L,868.0
89,0,1736.0,F6,R,868.0
88,86,1736.0,E6,R,868.0
91,0,1736.0,G6,L,868.0
45,0,1736.125,A2,L,868.0625
33,70,1736.125,A1,L,868.0625
45,55,1736.25,A2,L,868.125
33,0,1736.25,A1,L,868.125
88,0,1736.3333333333333,E6,R,868.1666666666666
87,88,1736.3333333333333,D#6,R,868.1666666666666
33,74,1736.5,A1,L,868.25
45,0,1736.5,A2,L,868.25
87,0,1736.6666666666665,D#6,R,868.3333333333333
86,89,1736.6666666666667,D6,R,868.3333333333334
45,11,1736.6875,A2,L,868.34375
33,0,1736.6875,A1,L,868.34375
45,11,1736.75,A2,L,868.375
45,0,1736.75,A2,L,868.375
45,0,1737.0,A2,L,868.5
38,63,1737.0,D2,L,868.5
86,0,1737.0,D6,R,868.5
85,86,1737.0,C#6,R,868.5
38,0,1737.5,D2,L,868.75
50,58,1737.5,D3,L,868.75
85,0,1737.5,C#6,R,868.75
84,77,1737.5,C6,R,868.75
84,0,1737.75,C6,R,868.875
83,71,1737.75,B5,R,868.875
38,52,1737.75,D2,L,868.875
50,0,1737.75,D3,L,868.875
82,76,1737.9375,A#5,R,868.96875
82,0,1738.0,A#5,R,869.0
82,76,1738.0,A#5,R,869.0
38,0,1738.0,D2,L,869.0
50,50,1738.0,D3,L,869.0
83,0,1738.0,B5,R,869.0
38,58,1738.0,D2,R,869.0
38,0,1738.125,D2,R,869.0625
81,68,1738.15625,A5,R,869.078125
50,0,1738.25,D3,L,869.125
81,0,1738.25,A5,R,869.125
50,49,1738.3125,D3,L,869.15625
80,77,1738.3125,G#5,R,869.15625
38,49,1738.4375,D2,R,869.21875
80,0,1738.4375,G#5,R,869.21875
38,0,1738.5,D2,R,869.25
79,62,1738.5,G5,R,869.25
50,0,1738.5,D3,L,869.25
50,45,1738.625,D3,L,869.3125
38,62,1738.75,D2,L,869.375
78,74,1738.75,F#5,R,869.375
50,0,1738.75,D3,L,869.375
79,0,1738.75,G5,R,869.375
77,59,1738.875,F5,L,869.4375
78,0,1738.875,F#5,R,869.4375
38,0,1738.875,D2,L,869.4375
50,54,1738.9375,D3,R,869.46875
38,61,1739.0,D2,R,869.5
77,0,1739.0,F5,L,869.5
82,0,1739.0,A#5,R,869.5
50,0,1739.0,D3,R,869.5
38,0,1739.05,D2,R,869.525
76,61,1739.05,E5,R,869.525
76,0,1739.2,E5,R,869.6
50,56,1739.2,D3,R,869.6
76,61,1739.2,E5,R,869.6
38,55,1739.25,D2,L,869.625
76,0,1739.3,E5,R,869.65
50,0,1739.3,D3,R,869.65
75,68,1739.3,D#5,R,869.65
75,0,1739.5,D#5,R,869.75
74,69,1739.5,D5,R,869.75
50,54,1739.5,D3,L,869.75
73,63,1740.0,C#5,L,870.0
74,0,1740.0,D5,R,870.0
50,48,1740.0,D3,R,870.0
50,0,1740.0,D3,L,870.0
38,0,1740.0,D2,L,870.0
38,44,1740.25,D2,L,870.125
50,0,1740.5,D3,R,870.25
72,62,1740.5833333333333,C5,R,870.2916666666666
72,0,1740.8333333333333,C5,R,870.4166666666666
71,51,1740.8333333333333,B4,R,870.4166666666666
38,0,1741.0,D2,L,870.5
70,61,1741.0,A#4,R,870.5
73,0,1741.0,C#5,L,870.5
71,0,1741.0,B4,R,870.5
70,0,1741.5,A#4,R,870.75
69,56,1741.5,A4,R,870.75
69,0,1741.75,A4,R,870.875
68,56,1741.75,G#4,R,870.875
68,0,1742.0,G#4,R,871.0
67,59,1742.2,G4,R,871.1
67,0,1742.4,G4,R,871.2
66,51,1742.4,F#4,R,871.2
65,53,1742.8,F4,R,871.4
66,0,1742.8000000000002,F#4,R,871.4000000000001
65,0,1743.2,F4,R,871.6
64,44,1743.2,E4,R,871.6
63,50,1743.6,D#4,R,871.8
64,0,1743.6000000000001,E4,R,871.8000000000001
63,0,1744.0,D#4,R,872.0
62,50,1744.0,D4,R,872.0
62,0,1744.25,D4,R,872.125
61,47,1744.25,C#4,R,872.125
61,0,1744.5,C#4,R,872.25
60,52,1744.5,C4,R,872.25
60,0,1745.0,C4,R,872.5
59,48,1745.0,B3,R,872.5
59,0,1745.3333333333333,B3,R,872.6666666666666
58,51,1745.3333333333333,A#3,R,872.6666666666666
58,0,1745.6666666666665,A#3,R,872.8333333333333
57,45,1745.6666666666667,A3,R,872.8333333333334
57,0,1746.0,A3,R,873.0
56,52,1746.0833333333333,G#3,R,873.0416666666666
56,0,1746.3333333333333,G#3,R,873.1666666666666
55,48,1746.4166666666667,G3,R,873.2083333333334
55,48,1746.5,G3,R,873.25
55,0,1746.5,G3,R,873.25
55,0,1746.75,G3,R,873.375
54,49,1746.75,F#3,R,873.375
53,46,1747.0,F3,R,873.5
54,0,1747.0,F#3,R,873.5
52,45,1747.5,E3,R,873.75
53,0,1747.5,F3,R,873.75
52,0,1747.75,E3,R,873.875
51,48,1747.75,D#3,R,873.875
50,50,1748.0,D3,R,874.0
51,0,1748.0,D#3,R,874.0
49,40,1748.5,C#3,R,874.25
50,0,1748.5,D3,R,874.25
48,47,1748.75,C3,R,874.375
49,0,1748.75,C#3,R,874.375
47,43,1749.0,B2,R,874.5
48,0,1749.0,C3,R,874.5
46,57,1749.25,A#2,R,874.625
47,0,1749.25,B2,R,874.625
46,0,1749.5,A#2,R,874.75
45,53,1749.5,A2,R,874.75
45,0,1749.75,A2,R,874.875
44,54,1749.75,G#2,R,874.875
43,49,1750.0,G2,R,875.0
44,0,1750.0,G#2,R,875.0
43,0,1750.25,G2,R,875.125
42,54,1750.25,F#2,R,875.125
42,0,1750.5,F#2,R,875.25
41,51,1750.5,F2,R,875.25
41,0,1750.6666666666667,F2,R,875.3333333333334
40,43,1750.8333333333333,E2,R,875.4166666666666
40,0,1751.0,E2,R,875.5
39,52,1751.0,D#2,R,875.5
39,0,1752.0,D#2,R,876.0
38,38,1752.0,D2,R,876.0
38,0,1755.0,D2,R,877.5
38,38,1759.25,D2,L,879.625
50,36,1759.25,D3,R,879.625
50,0,1760.0,D3,R,880.0
38,0,1760.0,D2,L,880.0
38,27,1766.0,D2,L,883.0
53,36,1766.0,F3,R,883.0
50,33,1767.0,D3,R,883.5
53,36,1768.0,F3,R,884.0
53,0,1768.0,F3,R,884.0
50,0,1768.0,D3,R,884.0
50,33,1768.0,D3,R,884.0
38,0,1768.0,D2,L,884.0
38,27,1768.0,D2,L,884.0
53,0,1772.0,F3,R,886.0
50,33,1772.0,D3,R,886.0
54,49,1772.0,F#3,L,886.0
38,0,1772.0,D2,L,886.0
51,39,1772.0,D#3,R,886.0
53,36,1772.0,F3,R,886.0
50,0,1772.0,D3,R,886.0
38,27,1772.0,D2,L,886.0
50,0,1773.0,D3,R,886.5
53,0,1773.0,F3,R,886.5
54,49,1773.0,F#3,L,886.5
38,0,1773.0,D2,L,886.5
54,0,1773.0,F#3,L,886.5
33,43,1773.0,A1,L,886.5
51,39,1773.0,D#3,R,886.5
51,0,1773.0,D#3,R,886.5
51,0,1775.0,D#3,R,887.5
54,49,1775.0,F#3,L,887.5
54,0,1775.0,F#3,L,887.5
33,0,1775.0,A1,L,887.5
54,0,1776.0,F#3,L,888.0
55,41,1778.0,G3,R,889.0
45,32,1778.0,A2,L,889.0
52,29,1779.0,E3,R,889.5
52,29,1780.0,E3,R,890.0
55,41,1780.0,G3,R,890.0
52,0,1780.0,E3,R,890.0
55,0,1780.0,G3,R,890.0
45,32,1780.0,A2,L,890.0
45,0,1780.0,A2,L,890.0
55,0,1782.0,G3,R,891.0
52,0,1782.0,E3,R,891.0
45,0,1782.0,A2,L,891.0
54,34,1783.0,F#3,L,891.5
57,32,1783.0,A3,R,891.5
38,30,1783.5,D2,R,891.75
54,34,1784.0,F#3,L,892.0
38,0,1784.0,D2,R,892.0
57,32,1784.0,A3,R,892.0
38,30,1784.0,D2,R,892.0
54,0,1784.0,F#3,L,892.0
57,0,1784.0,A3,R,892.0
57,0,1787.0,A3,R,893.5
54,0,1788.0,F#3,L,894.0
38,0,1788.0,D2,R,894.0
43,92,1790.0,G2,L,895.0
55,93,1790.0,G3,L,895.0
58,100,1790.0,A#3,R,895.0
43,0,1791.0,G2,L,895.5
55,0,1791.0,G3,L,895.5
58,0,1791.0,A#3,R,895.5
73,51,1797.625,C#5,R,898.8125
45,34,1797.75,A2,L,898.875
57,31,1797.75,A3,L,898.875
61,22,1797.75,C#4,R,898.875
73,0,1798.0,C#5,R,899.0
57,0,1798.0,A3,L,899.0
61,0,1798.0,C#4,R,899.0
45,0,1798.0,A2,L,899.0
74,38,1803.5,D5,R,901.75
62,23,1803.5,D4,R,901.75
50,31,1803.5,D3,L,901.75
38,36,1803.5,D2,L,901.75
74,0,1804.0,D5,R,902.0
62,0,1804.0,D4,R,902.0
50,0,1804.0,D3,L,902.0
38,0,1804.0,D2,L,902.0
62,28,1807.0,D4,R,903.5
38,35,1807.0,D2,L,903.5
50,29,1807.0,D3,L,903.5
74,46,1807.0,D5,R,903.5
50,0,1808.0,D3,L,904.0
38,0,1808.0,D2,L,904.0
62,0,1808.0,D4,R,904.0
74,0,1808.0,D5,R,904.0
50,37,1811.0,D3,L,905.5
74,36,1811.0,D5,R,905.5
38,32,1811.0,D2,L,905.5
62,3,1811.0625,D4,R,905.53125
62,0,1811.25,D4,R,905.625
62,3,1811.25,D4,R,905.625
74,0,1812.0,D5,R,906.0
50,0,1812.0,D3,L,906.0
38,0,1812.0,D2,L,906.0
62,0,1812.0,D4,R,906.0
69,50,1846.2,A4,R,923.1
66,43,1846.75,F#4,L,923.375
62,48,1846.75,D4,L,923.375
78,66,1846.8,F#5,R,923.4
69,0,1846.8,A4,R,923.4
66,0,1847.0,F#4,L,923.5
66,43,1847.0,F#4,L,923.5
62,0,1847.0,D4,L,923.5
62,48,1847.0,D4,L,923.5
62,0,1847.125,D4,L,923.5625
64,60,1847.125,E4,L,923.5625
67,58,1847.125,G4,L,923.5625
66,0,1847.125,F#4,L,923.5625
78,0,1847.2,F#5,R,923.6
73,71,1847.2,C#5,R,923.6
64,0,1847.5,E4,L,923.75
67,0,1847.5,G4,L,923.75
69,54,1847.5833333333333,A4,L,923.7916666666666
66,68,1847.5833333333333,F#4,L,923.7916666666666
74,78,1847.6,D5,R,923.8
73,0,1847.6000000000001,C#5,R,923.8000000000001
66,0,1847.6666666666665,F#4,L,923.8333333333333
69,0,1847.6666666666665,A4,L,923.8333333333333
69,54,1847.6666666666667,A4,L,923.8333333333334
74,0,1847.8,D5,R,923.9
78,84,1847.8,F#5,R,923.9
66,55,1847.8333333333333,F#4,L,923.9166666666666
62,57,1847.8333333333333,D4,L,923.9166666666666
69,0,1847.8333333333335,A4,L,923.9166666666667
67,79,1848.0,G4,L,924.0
66,0,1848.0,F#4,L,924.0
62,0,1848.0,D4,L,924.0
78,0,1848.0,F#5,R,924.0
78,84,1848.0,F#5,R,924.0
78,0,1848.25,F#5,R,924.125
71,80,1848.25,B4,R,924.125
71,80,1848.5,B4,R,924.25
71,0,1848.5,B4,R,924.25
73,72,1848.6666666666667,C#5,R,924.3333333333334
71,0,1848.6666666666667,B4,R,924.3333333333334
74,77,1848.8333333333333,D5,R,924.4166666666666
73,0,1848.8333333333335,C#5,R,924.4166666666667
67,79,1849.0,G4,L,924.5
67,0,1849.0,G4,L,924.5
76,76,1849.0,E5,R,924.5
74,0,1849.0,D5,R,924.5
67,79,1849.25,G4,L,924.625
67,0,1849.25,G4,L,924.625
69,37,1849.3125,A4,L,924.65625
66,71,1849.3125,F#4,L,924.65625
67,0,1849.3125,G4,L,924.65625
76,0,1849.3333333333333,E5,R,924.6666666666666
78,90,1849.3333333333333,F#5,R,924.6666666666666
66,0,1849.5,F#4,L,924.75
69,0,1849.5,A4,L,924.75
78,0,1849.5,F#5,R,924.75
79,81,1849.75,G5,R,924.875
64,67,1849.75,E4,L,924.875
67,66,1849.75,G4,L,924.875
64,67,1850.0,E4,L,925.0
69,63,1850.0,A4,L,925.0
67,0,1850.0,G4,L,925.0
64,0,1850.0,E4,L,925.0
79,81,1850.0,G5,R,925.0
66,69,1850.0,F#4,L,925.0
67,66,1850.0,G4,L,925.0
79,0,1850.0,G5,R,925.0
79,0,1850.125,G5,R,925.0625
81,83,1850.125,A5,R,925.0625
71,67,1850.5,B4,L,925.25
81,0,1850.5,A5,R,925.25
66,0,1850.5,F#4,L,925.25
83,89,1850.5,B5,R,925.25
69,0,1850.5,A4,L,925.25
67,72,1850.5,G4,L,925.25
83,0,1850.75,B5,R,925.375
67,0,1850.75,G4,L,925.375
71,0,1850.75,B4,L,925.375
85,86,1850.8125,C#6,R,925.40625
68,82,1850.8125,G#4,L,925.40625
71,72,1850.8125,B4,L,925.40625
83,82,1850.8125,B5,R,925.40625
68,0,1851.0,G#4,L,925.5
71,0,1851.0,B4,L,925.5
66,87,1851.0,F#4,L,925.5
67,0,1851.0,G4,L,925.5
70,89,1851.0,A#4,L,925.5
83,0,1851.0,B5,R,925.5
85,0,1851.0,C#6,R,925.5
82,97,1851.0,A#5,R,925.5
85,99,1851.0,C#6,R,925.5
64,0,1851.0,E4,L,925.5
82,97,1852.0,A#5,R,926.0
82,0,1852.0,A#5,R,926.0
70,0,1852.0,A#4,L,926.0
66,0,1852.0,F#4,L,926.0
85,99,1852.0,C#6,R,926.0
85,0,1852.0,C#6,R,926.0
70,89,1852.0,A#4,L,926.0
66,87,1852.0,F#4,L,926.0
85,0,1853.0,C#6,R,926.5
70,0,1853.0,A#4,L,926.5
82,0,1853.0,A#5,R,926.5
66,0,1853.0,F#4,L,926.5
86,57,1854.75,D6,R,927.375
54,51,1854.75,F#3,L,927.375
54,0,1855.0,F#3,L,927.5
54,51,1855.0,F#3,L,927.5
55,62,1855.0,G3,L,927.5
84,69,1855.0,C6,R,927.5
86,0,1855.0,D6,R,927.5
86,57,1855.0,D6,R,927.5
84,0,1855.5,C6,R,927.75
86,0,1855.5,D6,R,927.75
83,73,1855.5,B5,R,927.75
57,64,1855.5,A3,L,927.75
54,0,1855.5,F#3,L,927.75
81,74,1855.75,A5,R,927.875
55,0,1855.75,G3,L,927.875
54,59,1855.75,F#3,L,927.875
81,74,1856.0,A5,R,928.0
54,59,1856.0,F#3,L,928.0
57,0,1856.0,A3,L,928.0
54,0,1856.0,F#3,L,928.0
81,0,1856.0,A5,R,928.0
83,0,1856.0,B5,R,928.0
79,74,1856.25,G5,R,928.125
55,73,1856.25,G3,L,928.125
81,0,1856.5,A5,R,928.25
54,0,1856.5,F#3,L,928.25
57,72,1856.5,A3,L,928.25
78,77,1856.5,F#5,R,928.25
57,0,1857.0,A3,L,928.5
59,80,1857.0,B3,L,928.5
79,0,1857.0,G5,R,928.5
76,75,1857.0,E5,R,928.5
78,0,1857.0,F#5,R,928.5
55,0,1857.0,G3,L,928.5
59,0,1857.1666666666667,B3,L,928.5833333333334
44,81,1857.3333333333333,G#2,L,928.6666666666666
56,88,1857.3333333333333,G#3,L,928.6666666666666
56,0,1857.5,G#3,L,928.75
76,0,1857.5,E5,R,928.75
74,86,1857.5,D5,R,928.75
44,0,1857.5,G#2,L,928.75
69,86,1857.75,A4,R,928.875
45,91,1857.8125,A2,L,928.90625
57,90,1857.8125,A3,L,928.90625
57,0,1858.0,A3,L,929.0
33,80,1858.0,A1,L,929.0
45,76,1858.0,A2,L,929.0
74,0,1858.0,D5,R,929.0
74,90,1858.0,D5,R,929.0
45,0,1858.0,A2,L,929.0
69,0,1858.0,A4,R,929.0
69,86,1858.0,A4,R,929.0
69,0,1858.5,A4,R,929.25
73,96,1858.5,C#5,R,929.25
76,93,1859.0,E5,R,929.5
74,0,1859.0,D5,R,929.5
33,80,1860.0,A1,L,930.0
45,0,1860.0,A2,L,930.0
33,0,1860.0,A1,L,930.0
45,76,1860.0,A2,L,930.0
76,93,1860.0,E5,R,930.0
73,0,1860.0,C#5,R,930.0
76,0,1860.0,E5,R,930.0
33,0,1862.0,A1,L,931.0
76,0,1862.0,E5,R,931.0
45,0,1862.0,A2,L,931.0
57,46,1866.0,A3,R,933.0
45,46,1866.0,A2,L,933.0
57,0,1866.375,A3,R,933.1875
45,0,1866.375,A2,L,933.1875
45,45,1866.4375,A2,R,933.21875
33,55,1866.4375,A1,L,933.21875
33,55,1866.5,A1,L,933.25
33,0,1866.5,A1,L,933.25
45,0,1866.5,A2,R,933.25
33,0,1867.0,A1,L,933.5
45,36,1869.25,A2,L,934.625
57,42,1869.25,A3,R,934.625
45,0,1869.5,A2,L,934.75
57,0,1869.5,A3,R,934.75
45,50,1869.6875,A2,R,934.84375
33,49,1869.6875,A1,L,934.84375
45,0,1869.75,A2,R,934.875
33,0,1869.75,A1,L,934.875
33,49,1869.75,A1,L,934.875
33,0,1870.0,A1,L,935.0
57,48,1871.0,A3,R,935.5
45,33,1871.0625,A2,R,935.53125
45,0,1871.25,A2,R,935.625
33,57,1871.3333333333333,A1,R,935.6666666666666
33,0,1871.4166666666665,A1,R,935.7083333333333
45,22,1871.4166666666667,A2,R,935.7083333333334
45,0,1871.5,A2,R,935.75
57,0,1872.0,A3,R,936.0
57,53,1872.375,A3,R,936.1875
45,49,1872.375,A2,L,936.1875
57,53,1872.5,A3,R,936.25
57,0,1872.5,A3,R,936.25
45,0,1872.5,A2,L,936.25
57,0,1872.875,A3,R,936.4375
45,59,1872.875,A2,R,936.4375
45,0,1873.0,A2,R,936.5
33,50,1873.1666666666667,A1,R,936.5833333333334
50,63,1873.3333333333333,D3,L,936.6666666666666
62,67,1873.3333333333333,D4,R,936.6666666666666
33,0,1873.3333333333335,A1,R,936.6666666666667
50,0,1873.6666666666665,D3,L,936.8333333333333
62,0,1873.6666666666665,D4,R,936.8333333333333
38,66,1873.6666666666667,D2,L,936.8333333333334
50,75,1873.6666666666667,D3,R,936.8333333333334
50,75,1874.0,D3,R,937.0
50,0,1874.0,D3,R,937.0
38,0,1874.0,D2,L,937.0
38,66,1874.0,D2,L,937.0
38,0,1875.0,D2,L,937.5
50,0,1875.0,D3,R,937.5
48,56,1875.1666666666667,C3,L,937.5833333333334
60,57,1875.1666666666667,C4,R,937.5833333333334
59,67,1875.3333333333333,B3,R,937.6666666666666
47,59,1875.3333333333333,B2,L,937.6666666666666
60,0,1875.3333333333335,C4,R,937.6666666666667
48,0,1875.3333333333335,C3,L,937.6666666666667
47,0,1875.6666666666665,B2,L,937.8333333333333
59,0,1875.6666666666665,B3,R,937.8333333333333
57,72,1875.6666666666667,A3,R,937.8333333333334
45,65,1875.6666666666667,A2,L,937.8333333333334
45,0,1876.0,A2,L,938.0
57,0,1876.0,A3,R,938.0
43,67,1876.0625,G2,L,938.03125
55,79,1876.0625,G3,R,938.03125
55,79,1876.25,G3,R,938.125
55,0,1876.25,G3,R,938.125
43,0,1876.25,G2,L,938.125
42,64,1876.4375,F#2,L,938.21875
55,0,1876.4375,G3,R,938.21875
54,72,1876.4375,F#3,R,938.21875
54,0,1876.5,F#3,R,938.25
42,0,1876.5,F#2,L,938.25
54,72,1876.5,F#3,R,938.25
40,61,1876.84375,E2,L,938.421875
40,61,1876.875,E2,L,938.4375
40,0,1876.875,E2,L,938.4375
52,69,1876.875,E3,R,938.4375
54,0,1876.875,F#3,R,938.4375
52,0,1877.0,E3,R,938.5
40,0,1877.0,E2,L,938.5
45,59,1877.625,A2,L,938.8125
57,59,1877.625,A3,R,938.8125
57,0,1878.0,A3,R,939.0
45,0,1878.0,A2,L,939.0
38,40,1878.5,D2,L,939.25
50,48,1878.5,D3,R,939.25
38,0,1879.0,D2,L,939.5
50,0,1879.0,D3,R,939.5
63,46,1879.5,D#4,L,939.75
78,61,1879.5,F#5,R,939.75
81,53,1879.875,A5,R,939.9375
78,0,1879.875,F#5,R,939.9375
79,67,1880.0,G5,R,940.0
63,0,1880.0,D#4,L,940.0
64,47,1880.0,E4,L,940.0
81,0,1880.0,A5,R,940.0
79,0,1880.5,G5,R,940.25
64,0,1880.5,E4,L,940.25
63,58,1880.5,D#4,L,940.25
78,80,1880.5,F#5,R,940.25
78,0,1880.75,F#5,R,940.375
63,0,1880.75,D#4,L,940.375
64,57,1880.75,E4,L,940.375
79,70,1880.75,G5,R,940.375
62,43,1881.0,D4,L,940.5
83,58,1881.0,B5,R,940.5
79,0,1881.0,G5,R,940.5
64,0,1881.0,E4,L,940.5
62,0,1882.0,D4,L,941.0
61,44,1882.0,C#4,L,941.0
76,53,1882.0,E5,R,941.0
83,0,1882.0,B5,R,941.0
78,61,1882.75,F#5,R,941.375
63,49,1882.75,D#4,L,941.375
76,0,1883.0,E5,R,941.5
64,50,1883.0,E4,L,941.5
61,0,1883.0,C#4,L,941.5
81,66,1883.0,A5,R,941.5
63,49,1883.0,D#4,L,941.5
78,0,1883.0,F#5,R,941.5
63,0,1883.0,D#4,L,941.5
81,0,1883.0833333333333,A5,R,941.5416666666666
79,73,1883.0833333333333,G5,R,941.5416666666666
79,0,1883.1666666666665,G5,R,941.5833333333333
79,73,1883.1666666666667,G5,R,941.5833333333334
63,0,1883.25,D#4,L,941.625
78,85,1883.25,F#5,L,941.625
63,56,1883.5,D#4,L,941.75
64,0,1883.5,E4,L,941.75
79,0,1883.5,G5,R,941.75
79,76,1883.75,G5,R,941.875
64,56,1883.875,E4,R,941.9375
79,0,1884.0,G5,R,942.0
64,56,1884.0,E4,R,942.0
83,64,1884.0,B5,R,942.0
63,0,1884.0,D#4,L,942.0
78,0,1884.0,F#5,L,942.0
64,0,1884.0,E4,R,942.0
61,45,1884.0,C#4,L,942.0
79,76,1884.0,G5,R,942.0
64,0,1884.25,E4,R,942.125
83,0,1884.25,B5,R,942.125
62,46,1884.25,D4,R,942.125
83,64,1884.25,B5,R,942.125
76,52,1885.0,E5,R,942.5
79,0,1885.0,G5,R,942.5
62,0,1885.0,D4,R,942.5
83,0,1885.0,B5,R,942.5
78,55,1885.75,F#5,R,942.875
63,50,1885.75,D#4,L,942.875
78,0,1886.0,F#5,R,943.0
63,0,1886.0,D#4,L,943.0
63,50,1886.0,D#4,L,943.0
61,0,1886.0,C#4,L,943.0
76,0,1886.0,E5,R,943.0
78,55,1886.0,F#5,R,943.0
64,50,1886.25,E4,L,943.125
78,0,1886.25,F#5,R,943.125
79,64,1886.25,G5,R,943.125
63,0,1886.25,D#4,L,943.125
64,0,1886.5,E4,L,943.25
79,0,1886.5,G5,R,943.25
78,59,1886.5,F#5,R,943.25
63,51,1886.625,D#4,L,943.3125
78,0,1887.0,F#5,R,943.5
64,50,1887.0,E4,L,943.5
63,0,1887.0,D#4,L,943.5
79,61,1887.0,G5,R,943.5
78,64,1887.25,F#5,R,943.625
64,0,1887.3333333333333,E4,L,943.6666666666666
63,52,1887.3333333333333,D#4,L,943.6666666666666
79,65,1887.5,G5,R,943.75
79,0,1887.5,G5,R,943.75
79,0,1887.75,G5,R,943.875
79,65,1887.75,G5,R,943.875
64,53,1887.75,E4,R,943.875
63,56,1888.0,D#4,L,944.0
64,0,1888.0,E4,R,944.0
79,0,1888.0,G5,R,944.0
78,0,1888.0,F#5,R,944.0
64,53,1888.0,E4,R,944.0
63,0,1888.0,D#4,L,944.0
64,0,1888.125,E4,R,944.0625
78,65,1888.125,F#5,R,944.0625
63,0,1888.5,D#4,L,944.25
78,0,1888.5,F#5,R,944.25
79,58,1888.5,G5,R,944.25
64,54,1888.5,E4,L,944.25
80,64,1888.875,G#5,R,944.4375
79,0,1888.875,G5,R,944.4375
80,0,1889.0,G#5,R,944.5
64,0,1889.0,E4,L,944.5
80,64,1889.0,G#5,R,944.5
65,50,1889.1666666666667,F4,L,944.5833333333334
81,66,1889.25,A5,R,944.625
66,55,1889.3333333333333,F#4,L,944.6666666666666
65,0,1889.3333333333335,F4,L,944.6666666666667
80,0,1889.5,G#5,R,944.75
80,70,1889.5,G#5,R,944.75
66,0,1889.6666666666665,F#4,L,944.8333333333333
65,49,1889.6666666666667,F4,L,944.8333333333334
81,0,1890.0,A5,R,945.0
80,0,1890.0,G#5,R,945.0
81,69,1890.0,A5,R,945.0
66,56,1890.0,F#4,L,945.0
65,0,1890.0,F4,L,945.0
64,54,1890.375,E4,L,945.1875
66,0,1890.375,F#4,L,945.1875
82,77,1890.5,A#5,R,945.25
64,0,1890.5,E4,L,945.25
81,0,1890.5,A5,R,945.25
60,55,1890.625,C4,R,945.3125
83,82,1890.75,B5,R,945.375
60,0,1890.75,C4,R,945.375
62,64,1890.75,D4,L,945.375
62,64,1891.0,D4,L,945.5
82,0,1891.0,A#5,R,945.5
83,82,1891.0,B5,R,945.5
83,0,1891.0,B5,R,945.5
59,45,1891.0,B3,L,945.5
62,0,1891.0,D4,L,945.5
84,86,1891.125,C6,L,945.5625
59,45,1891.125,B3,L,945.5625
59,0,1891.125,B3,L,945.5625
84,86,1891.25,C6,L,945.625
57,48,1891.25,A3,L,945.625
84,0,1891.25,C6,L,945.625
83,0,1891.25,B5,R,945.625
60,63,1891.25,C4,R,945.625
59,0,1891.25,B3,L,945.625
60,0,1891.5,C4,R,945.75
86,81,1891.5,D6,R,945.75
57,0,1891.5,A3,L,945.75
55,66,1891.5,G3,L,945.75
84,0,1891.5,C6,L,945.75
59,57,1891.5,B3,L,945.75
86,75,1891.875,D6,R,945.9375
57,59,1891.875,A3,L,945.9375
54,63,1891.875,F#3,L,945.9375
86,0,1891.875,D6,R,945.9375
59,0,1891.875,B3,L,945.9375
55,0,1891.875,G3,L,945.9375
57,0,1892.0,A3,L,946.0
54,0,1892.0,F#3,L,946.0
62,0,1892.0,D4,L,946.0
86,0,1892.0,D6,R,946.0
86,69,1892.3125,D6,R,946.15625
86,0,1892.375,D6,R,946.1875
55,54,1892.375,G3,R,946.1875
52,53,1892.375,E3,L,946.1875
55,0,1892.5,G3,R,946.25
52,0,1892.5,E3,L,946.25
76,60,1893.0625,E5,R,946.53125
73,53,1893.0625,C#5,R,946.53125
57,65,1893.0625,A3,L,946.53125
61,59,1893.0625,C#4,L,946.53125
57,65,1893.25,A3,L,946.625
76,0,1893.25,E5,R,946.625
73,0,1893.25,C#5,R,946.625
61,59,1893.25,C#4,L,946.625
73,53,1893.25,C#5,R,946.625
76,60,1893.25,E5,R,946.625
57,0,1893.25,A3,L,946.625
61,0,1893.25,C#4,L,946.625
73,0,1894.0,C#5,R,947.0
57,0,1894.0,A3,L,947.0
66,58,1894.0,F#4,R,947.0
76,0,1894.0,E5,R,947.0
69,66,1894.0,A4,R,947.0
38,77,1894.0,D2,L,947.0
61,0,1894.0,C#4,L,947.0
62,63,1894.125,D4,L,947.0625
66,0,1894.25,F#4,R,947.125
66,55,1894.25,F#4,R,947.125
40,74,1894.25,E2,L,947.125
69,0,1894.25,A4,R,947.125
38,0,1894.25,D2,L,947.125
69,63,1894.25,A4,R,947.125
66,0,1894.5,F#4,R,947.25
69,0,1894.5,A4,R,947.25
62,0,1894.5,D4,L,947.25
62,56,1894.5,D4,L,947.25
69,61,1894.625,A4,R,947.3125
66,56,1894.625,F#4,R,947.3125
42,78,1894.75,F#2,L,947.375
40,0,1894.75,E2,L,947.375
62,53,1894.875,D4,L,947.4375
62,0,1894.875,D4,L,947.4375
38,71,1895.0,D2,L,947.5
66,0,1895.0,F#4,R,947.5
69,0,1895.0,A4,R,947.5
66,52,1895.0,F#4,R,947.5
69,70,1895.0,A4,R,947.5
42,0,1895.0,F#2,L,947.5
62,0,1895.0,D4,L,947.5
69,0,1895.375,A4,R,947.6875
66,0,1895.375,F#4,R,947.6875
71,69,1895.375,B4,R,947.6875
67,68,1895.375,G4,R,947.6875
38,0,1895.5,D2,L,947.75
67,0,1895.5,G4,R,947.75
71,0,1895.5,B4,R,947.75
31,88,1895.5,G1,L,947.75
71,69,1895.5,B4,R,947.75
62,54,1895.6875,D4,L,947.84375
31,0,1895.6875,G1,L,947.84375
62,0,1895.75,D4,L,947.875
62,54,1895.75,D4,L,947.875
67,53,1895.75,G4,R,947.875
33,80,1895.75,A1,L,947.875
71,53,1895.875,B4,L,947.9375
33,0,1895.875,A1,L,947.9375
33,80,1895.875,A1,L,947.9375
62,0,1896.0,D4,L,948.0
33,0,1896.0,A1,L,948.0
67,0,1896.0,G4,R,948.0
71,0,1896.0,B4,R,948.0
71,0,1896.0,B4,L,948.0
33,80,1896.0,A1,L,948.0
33,80,1896.0833333333333,A1,L,948.0416666666666
33,0,1896.0833333333333,A1,L,948.0416666666666
62,50,1896.0833333333333,D4,L,948.0416666666666
71,57,1896.125,B4,R,948.0625
67,47,1896.125,G4,R,948.0625
33,0,1896.1666666666665,A1,L,948.0833333333333
62,0,1896.1666666666665,D4,L,948.0833333333333
31,74,1896.1666666666667,G1,L,948.0833333333334
31,0,1896.4166666666667,G1,L,948.2083333333334
62,57,1896.4166666666667,D4,L,948.2083333333334
62,0,1896.5,D4,L,948.25
30,77,1896.5,F#1,L,948.25
67,0,1896.5,G4,R,948.25
71,0,1896.5,B4,R,948.25
67,57,1896.5625,G4,L,948.28125
71,60,1896.5625,B4,R,948.28125
67,0,1896.75,G4,L,948.375
62,63,1896.75,D4,R,948.375
71,0,1896.75,B4,R,948.375
71,72,1896.875,B4,R,948.4375
62,0,1896.9375,D4,R,948.46875
67,64,1896.9375,G4,R,948.46875
67,0,1897.0,G4,R,948.5
28,85,1897.0,E1,L,948.5
30,0,1897.0,F#1,L,948.5
67,64,1897.0,G4,R,948.5
71,0,1897.0,B4,R,948.5
61,70,1897.125,C#4,R,948.5625
67,0,1897.125,G4,R,948.5625
61,0,1897.25,C#4,R,948.625
71,68,1897.25,B4,R,948.625
30,76,1897.25,F#1,L,948.625
71,0,1897.375,B4,R,948.6875
67,34,1897.375,G4,R,948.6875
67,0,1897.5,G4,R,948.75
30,0,1897.5,F#1,L,948.75
30,76,1897.5,F#1,L,948.75
61,52,1897.5,C#4,R,948.75
71,71,1897.625,B4,R,948.8125
61,0,1897.625,C#4,R,948.8125
30,0,1897.625,F#1,L,948.8125
32,77,1897.625,G#1,L,948.8125
71,0,1897.75,B4,R,948.875
28,0,1897.75,E1,L,948.875
61,61,1897.8125,C#4,R,948.90625
29,72,1897.875,F1,L,948.9375
41,74,1897.875,F2,L,948.9375
32,0,1898.0,G#1,L,949.0
30,88,1898.0,F#1,L,949.0
73,78,1898.0,C#5,R,949.0
29,0,1898.0,F1,L,949.0
61,0,1898.0,C#4,R,949.0
42,94,1898.0,F#2,L,949.0
41,74,1898.0,F2,L,949.0
41,0,1898.0,F2,L,949.0
29,72,1898.0,F1,L,949.0
71,65,1898.25,B4,R,949.125
73,0,1898.25,C#5,R,949.125
73,88,1898.5,C#5,R,949.25
71,0,1898.5,B4,R,949.25
73,0,1898.625,C#5,R,949.3125
70,74,1898.6875,A#4,R,949.34375
70,74,1898.75,A#4,R,949.375
70,0,1898.75,A#4,R,949.375
70,0,1898.875,A#4,R,949.4375
73,66,1898.875,C#5,R,949.4375
41,0,1899.0,F2,L,949.5
29,0,1899.0,F1,L,949.5
73,0,1899.0,C#5,R,949.5
70,75,1899.0625,A#4,R,949.53125
73,75,1899.25,C#5,R,949.625
70,0,1899.25,A#4,R,949.625
70,72,1899.4166666666667,A#4,R,949.7083333333334
73,0,1899.4166666666667,C#5,R,949.7083333333334
70,0,1899.5,A#4,R,949.75
73,70,1899.625,C#5,R,949.8125
70,60,1899.75,A#4,R,949.875
73,0,1899.75,C#5,R,949.875
70,0,1900.0,A#4,R,950.0
74,77,1900.0,D5,R,950.0
30,87,1900.0,F#1,L,950.0
42,0,1900.0,F#2,L,950.0
30,0,1900.0,F#1,L,950.0
62,67,1900.25,D4,L,950.125
69,55,1900.375,A4,R,950.1875
72,70,1900.375,C5,R,950.1875
74,0,1900.375,D5,R,950.1875
62,0,1900.5,D4,L,950.25
69,55,1900.5,A4,R,950.25
69,0,1900.5,A4,R,950.25
31,70,1900.5,G1,L,950.25
30,0,1900.5,F#1,L,950.25
72,0,1900.5,C5,R,950.25
62,63,1900.6875,D4,L,950.34375
62,0,1900.75,D4,L,950.375
69,0,1900.75,A4,R,950.375
69,44,1900.8125,A4,R,950.40625
72,67,1900.8125,C5,R,950.40625
69,0,1901.0,A4,R,950.5
72,0,1901.0,C5,R,950.5
33,66,1901.0,A1,L,950.5
31,0,1901.0,G1,L,950.5
62,62,1901.0625,D4,L,950.53125
69,57,1901.125,A4,R,950.5625
72,66,1901.125,C5,R,950.5625
62,62,1901.125,D4,L,950.5625
30,65,1901.125,F#1,L,950.5625
62,0,1901.125,D4,L,950.5625
30,65,1901.25,F#1,L,950.625
30,0,1901.25,F#1,L,950.625
62,0,1901.25,D4,L,950.625
62,65,1901.375,D4,L,950.6875
30,0,1901.375,F#1,L,950.6875
62,0,1901.5,D4,L,950.75
67,64,1901.5,G4,R,950.75
69,0,1901.5,A4,R,950.75
71,71,1901.5,B4,R,950.75
72,0,1901.5,C5,R,950.75
31,73,1901.5833333333333,G1,L,950.7916666666666
62,53,1901.8333333333333,D4,L,950.9166666666666
31,73,1901.8333333333333,G1,L,950.9166666666666
31,0,1901.8333333333333,G1,L,950.9166666666666
33,0,1902.0,A1,L,951.0
31,0,1902.0,G1,L,951.0
33,71,1902.0,A1,L,951.0
62,0,1902.0,D4,L,951.0
71,66,1902.0,B4,R,951.0
67,59,1902.0,G4,R,951.0
71,0,1902.0,B4,R,951.0
67,0,1902.0,G4,R,951.0
62,55,1902.25,D4,L,951.125
33,0,1902.25,A1,L,951.125
67,0,1902.375,G4,R,951.1875
71,70,1902.375,B4,R,951.1875
71,0,1902.375,B4,R,951.1875
71,0,1902.5,B4,R,951.25
35,68,1902.5,B1,L,951.25
62,0,1902.5,D4,L,951.25
62,59,1902.625,D4,R,951.3125
32,70,1902.625,G#1,L,951.3125
35,0,1902.625,B1,L,951.3125
62,0,1902.75,D4,R,951.375
71,78,1902.75,B4,R,951.375
32,0,1903.0,G#1,L,951.5
71,0,1903.0,B4,R,951.5
33,81,1903.0,A1,L,951.5
62,58,1903.0416666666667,D4,R,951.5208333333334
69,82,1903.0833333333333,A4,R,951.5416666666666
62,0,1903.0833333333335,D4,R,951.5416666666667
66,65,1903.15625,F#4,L,951.578125
69,0,1903.25,A4,R,951.625
62,65,1903.25,D4,L,951.625
66,0,1903.25,F#4,L,951.625
62,66,1903.5,D4,R,951.75
33,0,1903.5,A1,L,951.75
45,63,1903.5,A2,L,951.75
66,67,1903.5,F#4,R,951.75
62,0,1903.5,D4,L,951.75
57,74,1903.6666666666667,A3,L,951.8333333333334
33,83,1903.75,A1,L,951.875
57,0,1903.75,A3,L,951.875
62,0,1903.875,D4,R,951.9375
64,58,1903.875,E4,R,951.9375
66,0,1903.875,F#4,R,951.9375
67,84,1903.875,G4,R,951.9375
33,83,1904.0,A1,L,952.0
64,0,1904.0,E4,R,952.0
67,84,1904.0,G4,R,952.0
45,0,1904.0,A2,L,952.0
33,0,1904.0,A1,L,952.0
67,0,1904.0,G4,R,952.0
33,0,1904.125,A1,L,952.0625
57,60,1904.125,A3,L,952.0625
61,61,1904.25,C#4,R,952.125
45,72,1904.25,A2,L,952.125
57,0,1904.25,A3,L,952.125
64,47,1904.25,E4,R,952.125
45,0,1904.375,A2,L,952.1875
57,70,1904.375,A3,L,952.1875
57,0,1904.5,A3,L,952.25
50,73,1904.75,D3,R,952.375
64,0,1904.75,E4,R,952.375
38,68,1904.75,D2,L,952.375
61,0,1904.75,C#4,R,952.375
50,0,1904.875,D3,R,952.4375
42,63,1904.875,F#2,R,952.4375
38,0,1905.0,D2,L,952.5
54,44,1905.0,F#3,R,952.5
67,0,1905.0,G4,R,952.5
42,0,1905.0,F#2,R,952.5
54,0,1905.0625,F#3,R,952.53125
57,64,1905.0625,A3,R,952.53125
45,63,1905.1,A2,L,952.55
45,0,1905.1999999999998,A2,L,952.5999999999999
50,59,1905.2,D3,L,952.6
57,0,1905.25,A3,R,952.625
62,57,1905.2916666666667,D4,R,952.6458333333334
49,63,1905.4,C#3,L,952.7
50,0,1905.4,D3,L,952.7
62,0,1905.4166666666667,D4,R,952.7083333333334
61,63,1905.4166666666667,C#4,R,952.7083333333334
61,0,1905.5,C#4,R,952.75
61,63,1905.5,C#4,R,952.75
47,59,1905.6,B2,L,952.8
49,0,1905.6000000000001,C#3,L,952.8000000000001
61,0,1905.625,C#4,R,952.8125
59,67,1905.625,B3,R,952.8125
59,0,1905.75,B3,R,952.875
57,64,1905.75,A3,R,952.875
47,0,1905.8,B2,L,952.9
45,55,1905.8,A2,L,952.9
55,63,1905.9375,G3,R,952.96875
45,0,1906.0,A2,L,953.0
57,0,1906.0,A3,R,953.0
55,63,1906.0,G3,R,953.0
55,0,1906.0,G3,R,953.0
43,53,1906.0,G2,R,953.0
42,65,1906.1666666666667,F#2,L,953.0833333333334
54,60,1906.1875,F#3,R,953.09375
43,0,1906.1875,G2,R,953.09375
54,0,1906.25,F#3,R,953.125
45,67,1906.3333333333333,A2,L,953.1666666666666
42,0,1906.3333333333335,F#2,L,953.1666666666667
57,71,1906.375,A3,R,953.1875
57,0,1906.5,A3,R,953.25
45,0,1906.5,A2,L,953.25
62,65,1906.59375,D4,R,953.296875
62,0,1906.625,D4,R,953.3125
62,65,1906.625,D4,R,953.3125
50,57,1906.625,D3,L,953.3125
62,0,1906.75,D4,R,953.375
66,64,1906.7916666666667,F#4,R,953.3958333333334
53,46,1906.8333333333333,F3,R,953.4166666666666
66,64,1906.8333333333333,F#4,R,953.4166666666666
66,0,1906.8333333333335,F#4,R,953.4166666666667
66,0,1906.9166666666665,F#4,R,953.4583333333333
53,0,1906.9166666666665,F3,R,953.4583333333333
66,64,1906.9166666666667,F#4,R,953.4583333333334
64,64,1906.9583333333333,E4,R,953.4791666666666
66,64,1906.9583333333333,F#4,R,953.4791666666666
66,0,1906.9583333333335,F#4,R,953.4791666666667
50,0,1907.0,D3,L,953.5
52,56,1907.0,E3,L,953.5
64,0,1907.0,E4,R,953.5
64,64,1907.0,E4,R,953.5
66,0,1907.0,F#4,R,953.5
55,0,1907.0,G3,R,953.5
62,65,1907.125,D4,R,953.5625
64,0,1907.125,E4,R,953.5625
50,60,1907.25,D3,R,953.625
62,0,1907.25,D4,R,953.625
61,62,1907.375,C#4,R,953.6875
49,52,1907.375,C#3,L,953.6875
50,0,1907.375,D3,R,953.6875
47,53,1907.5,B2,L,953.75
52,0,1907.5,E3,L,953.75
49,52,1907.5,C#3,L,953.75
49,0,1907.5,C#3,L,953.75
61,0,1907.5,C#4,R,953.75
59,70,1907.5,B3,R,953.75
45,66,1907.75,A2,L,953.875
47,0,1907.75,B2,L,953.875
59,0,1907.75,B3,R,953.875
57,71,1907.75,A3,R,953.875
49,0,1908.0,C#3,L,954.0
45,0,1908.0,A2,L,954.0
57,0,1908.0,A3,R,954.0
62,65,1908.0,D4,R,954.0
50,65,1908.0,D3,L,954.0
62,0,1908.25,D4,R,954.125
50,0,1908.25,D3,L,954.125
66,65,1908.25,F#4,R,954.125
54,55,1908.25,F#3,L,954.125
54,0,1908.5,F#3,L,954.25
69,49,1908.5,A4,R,954.25
66,0,1908.5,F#4,R,954.25
57,52,1908.5833333333333,A3,L,954.2916666666666
67,70,1908.625,G4,R,954.3125
69,0,1908.625,A4,R,954.3125
57,0,1908.6666666666665,A3,L,954.3333333333333
55,64,1908.6666666666667,G3,L,954.3333333333334
67,70,1908.75,G4,R,954.375
67,0,1908.75,G4,R,954.375
66,71,1908.8125,F#4,R,954.40625
67,0,1908.8125,G4,R,954.40625
54,65,1908.8333333333333,F#3,L,954.4166666666666
55,0,1908.8333333333335,G3,L,954.4166666666667
54,0,1909.0,F#3,L,954.5
52,60,1909.0,E3,L,954.5
64,66,1909.0,E4,R,954.5
66,0,1909.0,F#4,R,954.5
64,0,1909.125,E4,R,954.5625
50,66,1909.125,D3,L,954.5625
62,70,1909.125,D4,R,954.5625
50,0,1909.5,D3,L,954.75
62,0,1909.5,D4,R,954.75
61,61,1909.5416666666667,C#4,R,954.7708333333334
45,30,1909.5833333333333,A2,R,954.7916666666666
61,0,1909.5833333333335,C#4,R,954.7916666666667
47,16,1909.625,B2,L,954.8125
45,0,1909.6666666666665,A2,R,954.8333333333333
45,30,1909.6666666666667,A2,R,954.8333333333334
64,73,1909.6666666666667,E4,R,954.8333333333334
45,0,1909.75,A2,R,954.875
64,0,1909.75,E4,R,954.875
67,73,1909.8125,G4,R,954.90625
67,0,1910.0,G4,R,955.0
69,71,1910.0,A4,R,955.0
52,0,1910.0,E3,L,955.0
55,54,1910.0,G3,L,955.0
47,0,1910.0,B2,L,955.0
52,68,1910.142857142857,E3,L,955.0714285714286
55,0,1910.142857142857,G3,L,955.0714285714286
69,0,1910.1666666666667,A4,R,955.0833333333334
73,76,1910.2142857142858,C#5,L,955.1071428571429
52,0,1910.2142857142858,E3,L,955.1071428571429
76,64,1910.3333333333333,E5,R,955.1666666666666
73,0,1910.357142857143,C#5,L,955.1785714285714
55,69,1910.357142857143,G3,L,955.1785714285714
52,64,1910.4285714285713,E3,L,955.2142857142857
55,0,1910.4285714285716,G3,L,955.2142857142858
76,0,1910.5,E5,R,955.25
52,0,1910.5714285714284,E3,L,955.2857142857142
79,71,1910.5714285714287,G5,L,955.2857142857143
73,73,1910.625,C#5,R,955.3125
55,74,1910.642857142857,G3,L,955.3214285714286
79,0,1910.6428571428573,G5,L,955.3214285714287
55,0,1910.857142857143,G3,L,955.4285714285714
73,0,1911.0,C#5,R,955.5
50,59,1911.1666666666667,D3,L,955.5833333333334
62,66,1911.1666666666667,D4,R,955.5833333333334
66,61,1911.3333333333333,F#4,R,955.6666666666666
54,68,1911.3333333333333,F#3,L,955.6666666666666
50,0,1911.3333333333335,D3,L,955.6666666666667
62,0,1911.3333333333335,D4,R,955.6666666666667
69,61,1911.5,A4,R,955.75
66,0,1911.5,F#4,R,955.75
54,0,1911.5,F#3,L,955.75
57,69,1911.5,A3,L,955.75
74,64,1911.75,D5,R,955.875
57,0,1911.75,A3,L,955.875
62,54,1911.75,D4,L,955.875
62,0,1911.875,D4,L,955.9375
61,65,1911.875,C#4,L,955.9375
73,74,1911.875,C#5,R,955.9375
69,0,1911.875,A4,R,955.9375
61,0,1912.0,C#4,L,956.0
61,65,1912.0,C#4,L,956.0
73,0,1912.0,C#5,R,956.0
74,0,1912.0,D5,R,956.0
73,74,1912.0,C#5,R,956.0
61,0,1912.125,C#4,L,956.0625
59,52,1912.125,B3,L,956.0625
73,74,1912.125,C#5,R,956.0625
71,66,1912.125,B4,R,956.0625
73,0,1912.125,C#5,R,956.0625
57,61,1912.25,A3,L,956.125
71,0,1912.25,B4,R,956.125
59,0,1912.25,B3,L,956.125
69,67,1912.25,A4,R,956.125
73,0,1912.25,C#5,R,956.125
57,0,1912.5,A3,L,956.25
55,55,1912.5,G3,L,956.25
69,0,1912.5,A4,R,956.25
67,67,1912.5,G4,R,956.25
67,0,1912.6666666666667,G4,R,956.3333333333334
66,72,1912.6666666666667,F#4,R,956.3333333333334
55,0,1912.6666666666667,G3,L,956.3333333333334
54,56,1912.6666666666667,F#3,L,956.3333333333334
66,0,1912.75,F#4,R,956.375
54,0,1912.75,F#3,L,956.375
54,56,1912.75,F#3,L,956.375
57,63,1912.875,A3,R,956.4375
57,0,1913.0,A3,R,956.5
69,72,1913.0,A4,R,956.5
54,0,1913.0,F#3,L,956.5
69,0,1913.0625,A4,R,956.53125
62,63,1913.0625,D4,R,956.53125
74,70,1913.125,D5,R,956.5625
62,0,1913.125,D4,R,956.5625
74,0,1913.25,D5,R,956.625
66,68,1913.25,F#4,L,956.625
78,70,1913.2916666666667,F#5,R,956.6458333333334
78,70,1913.4166666666667,F#5,R,956.7083333333334
76,70,1913.4166666666667,E5,R,956.7083333333334
78,0,1913.4166666666667,F#5,R,956.7083333333334
64,65,1913.5,E4,L,956.75
78,0,1913.5,F#5,R,956.75
76,0,1913.5,E5,R,956.75
76,70,1913.5,E5,R,956.75
66,0,1913.5,F#4,L,956.75
62,54,1913.625,D4,L,956.8125
74,64,1913.625,D5,R,956.8125
76,0,1913.625,E5,R,956.8125
64,0,1913.625,E4,L,956.8125
73,76,1913.75,C#5,R,956.875
74,0,1913.75,D5,R,956.875
62,0,1913.75,D4,L,956.875
61,61,1913.8125,C#4,L,956.90625
71,67,1914.0,B4,R,957.0
73,0,1914.0,C#5,R,957.0
59,49,1914.0,B3,L,957.0
61,0,1914.0,C#4,L,957.0
71,0,1914.2,B4,R,957.1
57,69,1914.2,A3,L,957.1
59,0,1914.2,B3,L,957.1
69,76,1914.2,A4,R,957.1
57,0,1914.4,A3,L,957.2
62,64,1914.4,D4,L,957.2
69,0,1914.4,A4,R,957.2
74,65,1914.4,D5,R,957.2
66,31,1914.6,F#4,L,957.3
78,71,1914.6,F#5,R,957.3
62,0,1914.6000000000001,D4,L,957.3000000000001
74,0,1914.6000000000001,D5,R,957.3000000000001
81,71,1914.8,A5,R,957.4
66,0,1914.8,F#4,L,957.4
69,59,1914.8,A4,L,957.4
78,0,1914.8,F#5,R,957.4
69,0,1915.0,A4,L,957.5
67,67,1915.0,G4,L,957.5
79,73,1915.0,G5,R,957.5
81,0,1915.0,A5,R,957.5
78,78,1915.0833333333333,F#5,R,957.5416666666666
79,0,1915.0833333333333,G5,R,957.5416666666666
66,51,1915.125,F#4,L,957.5625
78,0,1915.1666666666665,F#5,R,957.5833333333333
76,66,1915.1666666666667,E5,R,957.5833333333334
78,78,1915.1666666666667,F#5,R,957.5833333333334
64,61,1915.25,E4,L,957.625
67,0,1915.25,G4,L,957.625
64,0,1915.375,E4,L,957.6875
62,62,1915.375,D4,L,957.6875
62,0,1915.4375,D4,L,957.71875
74,74,1915.46875,D5,L,957.734375
78,0,1915.5,F#5,R,957.75
74,0,1915.5,D5,L,957.75
74,74,1915.5,D5,L,957.75
66,0,1915.5,F#4,L,957.75
76,0,1915.5,E5,R,957.75
73,68,1915.6875,C#5,R,957.84375
64,72,1915.6875,E4,L,957.84375
74,0,1915.6875,D5,L,957.84375
64,0,1915.75,E4,L,957.875
64,72,1915.75,E4,L,957.875
73,68,1915.75,C#5,R,957.875
73,0,1915.75,C#5,R,957.875
76,62,1915.875,E5,R,957.9375
67,72,1915.9375,G4,R,957.96875
73,0,1915.9375,C#5,R,957.96875
64,0,1916.0,E4,L,958.0
76,0,1916.0,E5,R,958.0
67,0,1916.0,G4,R,958.0
67,72,1916.0,G4,R,958.0
76,62,1916.0,E5,R,958.0
67,0,1916.0625,G4,R,958.03125
79,73,1916.0625,G5,R,958.03125
79,0,1916.125,G5,R,958.0625
64,58,1916.125,E4,R,958.0625
67,77,1916.25,G4,L,958.125
79,48,1916.25,G5,L,958.125
81,66,1916.25,A5,R,958.125
64,0,1916.25,E4,R,958.125
81,0,1916.375,A5,R,958.1875
57,58,1916.4375,A3,R,958.21875
67,0,1916.5,G4,L,958.25
85,65,1916.5,C#6,R,958.25
57,0,1916.5,A3,R,958.25
79,0,1916.5,G5,L,958.25
88,68,1916.625,E6,R,958.3125
85,0,1916.625,C#6,R,958.3125
64,61,1916.625,E4,L,958.3125
91,75,1916.75,G6,R,958.375
88,0,1916.75,E6,R,958.375
64,0,1916.75,E4,L,958.375
57,57,1916.75,A3,L,958.375
64,69,1916.875,E4,L,958.4375
85,69,1916.875,C#6,R,958.4375
91,0,1916.875,G6,R,958.4375
57,0,1916.875,A3,L,958.4375
64,0,1917.0,E4,L,958.5
76,0,1917.0,E5,R,958.5
85,0,1917.0,C#6,R,958.5
66,54,1917.375,F#4,R,958.6875
62,71,1917.375,D4,L,958.6875
66,0,1917.5,F#4,R,958.75
62,0,1917.5,D4,L,958.75
71,61,1917.5,B4,R,958.75
66,62,1917.625,F#4,R,958.8125
66,0,1917.75,F#4,R,958.875
74,74,1917.75,D5,R,958.875
71,0,1917.75,B4,R,958.875
62,52,1917.8125,D4,R,958.90625
78,80,1917.875,F#5,R,958.9375
74,0,1917.875,D5,R,958.9375
78,0,1918.0,F#5,R,959.0
78,80,1918.0,F#5,R,959.0
66,66,1918.0,F#4,R,959.0
62,0,1918.0,D4,R,959.0
59,64,1918.0,B3,L,959.0
76,70,1918.125,E5,R,959.0625
66,0,1918.125,F#4,R,959.0625
78,0,1918.25,F#5,R,959.125
76,0,1918.25,E5,R,959.125
74,79,1918.25,D5,R,959.125
62,54,1918.3125,D4,R,959.15625
59,0,1918.375,B3,L,959.1875
59,61,1918.4375,B3,L,959.21875
59,0,1918.5,B3,L,959.25
62,0,1918.5,D4,R,959.25
73,73,1918.5,C#5,R,959.25
73,0,1918.625,C#5,R,959.3125
71,67,1918.625,B4,R,959.3125
62,59,1918.625,D4,L,959.3125
62,0,1918.875,D4,L,959.4375
71,0,1918.875,B4,R,959.4375
70,72,1918.875,A#4,R,959.4375
61,62,1918.875,C#4,L,959.4375
73,71,1919.0,C#5,L,959.5
70,0,1919.0,A#4,R,959.5
61,0,1919.0,C#4,L,959.5
74,0,1919.0,D5,R,959.5
64,56,1919.125,E4,L,959.5625
76,69,1919.1875,E5,R,959.59375
61,56,1919.25,C#4,R,959.625
76,0,1919.25,E5,R,959.625
78,76,1919.375,F#5,R,959.6875
64,65,1919.375,E4,L,959.6875
64,0,1919.375,E4,L,959.6875
61,0,1919.5,C#4,R,959.75
78,0,1919.5,F#5,R,959.75
78,76,1919.5,F#5,R,959.75
82,77,1919.5,A#5,R,959.75
64,0,1919.5,E4,L,959.75
54,64,1919.5625,F#3,L,959.78125
85,77,1919.75,C#6,R,959.875
78,0,1919.75,F#5,R,959.875
54,0,1919.75,F#3,L,959.875
61,56,1919.75,C#4,L,959.875
88,79,1919.875,E6,R,959.9375
54,73,1919.875,F#3,L,959.9375
61,0,1919.875,C#4,L,959.9375
82,0,1919.875,A#5,R,959.9375
54,0,1920.0,F#3,L,960.0
88,0,1920.0,E6,R,960.0
85,0,1920.0,C#6,R,960.0
73,0,1920.0,C#5,L,960.0
88,79,1920.0,E6,R,960.0
88,0,1920.0625,E6,R,960.03125
82,61,1920.0625,A#5,R,960.03125
61,51,1920.125,C#4,R,960.0625
82,0,1920.125,A#5,R,960.0625
47,72,1920.5,B2,L,960.25
61,0,1920.5,C#4,R,960.25
62,66,1920.5,D4,R,960.25
47,0,1920.625,B2,L,960.3125
59,71,1920.625,B3,L,960.3125
62,0,1920.625,D4,R,960.3125
66,70,1920.625,F#4,R,960.3125
66,0,1920.75,F#4,R,960.375
71,54,1920.84375,B4,R,960.421875
59,0,1920.875,B3,L,960.4375
47,68,1920.875,B2,L,960.4375
71,0,1920.875,B4,R,960.4375
71,54,1920.875,B4,R,960.4375
47,0,1920.9375,B2,L,960.46875
59,74,1920.9375,B3,L,960.46875
59,74,1921.0,B3,L,960.5
74,78,1921.0,D5,R,960.5
59,0,1921.0,B3,L,960.5
71,0,1921.0,B4,R,960.5
59,0,1921.25,B3,L,960.625
73,80,1921.25,C#5,L,960.625
40,63,1921.3125,E2,L,960.65625
71,68,1921.375,B4,R,960.6875
74,0,1921.375,D5,R,960.6875
52,62,1921.4375,E3,R,960.71875
52,0,1921.5,E3,R,960.75
52,62,1921.5,E3,R,960.75
71,0,1921.5,B4,R,960.75
40,0,1921.5,E2,L,960.75
69,73,1921.5,A4,R,960.75
52,0,1921.625,E3,R,960.8125
40,67,1921.625,E2,R,960.8125
40,0,1921.75,E2,R,960.875
52,65,1921.8125,E3,R,960.90625
52,0,1922.0,E3,R,961.0
86,87,1922.0,D6,R,961.0
69,0,1922.0,A4,R,961.0
73,0,1922.0,C#5,L,961.0
40,86,1922.0,E2,L,961.0
86,0,1922.25,D6,R,961.125
40,0,1922.25,E2,L,961.125
83,75,1922.2916666666667,B5,R,961.1458333333334
52,65,1922.2916666666667,E3,L,961.1458333333334
83,0,1922.4166666666667,B5,R,961.2083333333334
80,75,1922.4166666666667,G#5,R,961.2083333333334
40,71,1922.4166666666667,E2,L,961.2083333333334
52,0,1922.4166666666667,E3,L,961.2083333333334
80,0,1922.5,G#5,R,961.25
40,0,1922.5,E2,L,961.25
40,71,1922.5,E2,L,961.25
76,69,1922.5625,E5,R,961.28125
52,71,1922.625,E3,R,961.3125
76,0,1922.625,E5,R,961.3125
52,0,1922.75,E3,R,961.375
40,71,1922.75,E2,R,961.375
74,79,1922.875,D5,R,961.4375
40,0,1922.875,E2,R,961.4375
52,72,1923.0,E3,L,961.5
40,0,1923.0,E2,L,961.5
74,0,1923.0,D5,R,961.5
71,73,1923.0,B4,R,961.5
40,75,1923.0625,E2,L,961.53125
52,0,1923.0625,E3,L,961.53125
68,85,1923.125,G#4,R,961.5625
71,0,1923.125,B4,R,961.5625
74,89,1923.25,D5,R,961.625
68,0,1923.25,G#4,R,961.625
40,0,1923.25,E2,L,961.625
74,0,1923.5,D5,R,961.75
29,93,1923.5,F1,L,961.75
72,97,1923.5625,C5,R,961.78125
29,0,1923.75,F1,L,961.875
72,0,1923.75,C5,R,961.875
41,69,1923.875,F2,L,961.9375
57,75,1923.875,A3,R,961.9375
41,0,1924.0,F2,L,962.0
57,0,1924.0,A3,R,962.0
41,69,1924.0,F2,L,962.0
60,66,1924.125,C4,R,962.0625
41,0,1924.125,F2,L,962.0625
62,44,1924.125,D4,R,962.0625
29,66,1924.125,F1,L,962.0625
65,76,1924.25,F4,R,962.125
62,0,1924.25,D4,R,962.125
60,0,1924.25,C4,R,962.125
41,70,1924.25,F2,L,962.125
29,0,1924.25,F1,L,962.125
65,0,1924.5,F4,R,962.25
69,66,1924.5,A4,R,962.25
41,0,1924.5,F2,L,962.25
29,67,1924.5833333333333,F1,L,962.2916666666666
69,0,1924.5833333333333,A4,R,962.2916666666666
67,50,1924.5833333333333,G4,R,962.2916666666666
29,0,1924.6666666666665,F1,L,962.3333333333333
67,0,1924.6666666666665,G4,R,962.3333333333333
41,68,1924.6666666666667,F2,L,962.3333333333334
65,72,1924.6666666666667,F4,R,962.3333333333334
29,71,1924.8333333333333,F1,L,962.4166666666666
60,81,1924.8333333333333,C4,R,962.4166666666666
41,0,1924.8333333333335,F2,L,962.4166666666667
65,0,1924.8333333333335,F4,R,962.4166666666667
29,0,1925.0,F1,L,962.5
41,71,1925.0,F2,L,962.5
65,70,1925.0,F4,R,962.5
60,0,1925.0,C4,R,962.5
41,0,1925.125,F2,L,962.5625
29,77,1925.1875,F1,L,962.59375
69,78,1925.25,A4,R,962.625
65,0,1925.25,F4,R,962.625
29,0,1925.25,F1,L,962.625
29,77,1925.25,F1,L,962.625
69,0,1925.375,A4,R,962.6875
72,83,1925.375,C5,R,962.6875
29,0,1925.375,F1,L,962.6875
41,72,1925.375,F2,L,962.6875
29,79,1925.5,F1,L,962.75
77,76,1925.5,F5,R,962.75
72,0,1925.5,C5,R,962.75
41,0,1925.5,F2,L,962.75
29,0,1925.75,F1,L,962.875
41,77,1925.75,F2,L,962.875
81,83,1925.75,A5,R,962.875
77,0,1925.75,F5,R,962.875
41,0,1925.875,F2,L,962.9375
29,84,1925.875,F1,L,962.9375
29,0,1926.0,F1,L,963.0
81,0,1926.0,A5,R,963.0
84,84,1926.0,C6,L,963.0
41,80,1926.0625,F2,L,963.03125
84,0,1926.125,C6,L,963.0625
29,83,1926.125,F1,L,963.0625
81,81,1926.1666666666667,A5,R,963.0833333333334
41,80,1926.25,F2,L,963.125
41,0,1926.25,F2,L,963.125
84,90,1926.3333333333333,C6,R,963.1666666666666
81,0,1926.3333333333335,A5,R,963.1666666666667
89,88,1926.5,F6,R,963.25
84,0,1926.5,C6,R,963.25
41,0,1926.5,F2,L,963.25
29,0,1926.5,F1,L,963.25
41,80,1926.5,F2,L,963.25
89,0,1926.6666666666667,F6,R,963.3333333333334
93,110,1926.6666666666667,A6,R,963.3333333333334
41,0,1926.6875,F2,L,963.34375
29,89,1926.6875,F1,L,963.34375
29,0,1926.75,F1,L,963.375
29,89,1926.75,F1,L,963.375
93,0,1926.75,A6,R,963.375
29,0,1927.0,F1,L,963.5
57,65,1928.0,A3,R,964.0
58,88,1928.5,A#3,R,964.25
57,0,1928.5,A3,R,964.25
58,0,1929.0,A#3,R,964.5
58,61,1929.5625,A#3,R,964.78125
58,0,1929.75,A#3,R,964.875
69,93,1930.0,A4,R,965.0
29,82,1930.0,F1,L,965.0
65,84,1930.25,F4,R,965.125
69,0,1930.25,A4,R,965.125
41,72,1930.375,F2,R,965.1875
29,0,1930.5,F1,L,965.25
41,0,1930.5,F2,R,965.25
60,69,1930.55,C4,L,965.275
60,0,1930.6,C4,L,965.3
29,70,1930.6,F1,L,965.3
29,0,1930.6499999999999,F1,L,965.3249999999999
57,70,1930.65,A3,L,965.325
60,73,1930.75,C4,R,965.375
41,71,1930.8,F2,L,965.4
57,0,1930.8000000000002,A3,L,965.4000000000001
41,0,1930.8999999999999,F2,L,965.4499999999999
29,75,1930.9,F1,L,965.45
65,0,1931.0,F4,R,965.5
60,0,1931.0,C4,R,965.5
29,75,1931.0,F1,L,965.5
29,0,1931.0,F1,L,965.5
65,67,1931.0833333333333,F4,R,965.5416666666666
41,73,1931.125,F2,L,965.5625
29,0,1931.125,F1,L,965.5625
65,0,1931.1666666666665,F4,R,965.5833333333333
69,76,1931.1666666666667,A4,R,965.5833333333334
41,0,1931.25,F2,L,965.625
29,76,1931.25,F1,L,965.625
72,79,1931.3333333333333,C5,R,965.6666666666666
69,0,1931.3333333333335,A4,R,965.6666666666667
77,75,1931.5,F5,R,965.75
72,0,1931.5,C5,R,965.75
29,0,1931.5,F1,L,965.75
41,74,1931.55,F2,L,965.775
41,0,1931.6,F2,L,965.8
29,81,1931.65,F1,L,965.825
72,68,1931.6666666666667,C5,R,965.8333333333334
77,0,1931.6666666666667,F5,R,965.8333333333334
29,0,1931.8000000000002,F1,L,965.9000000000001
72,0,1931.8333333333335,C5,R,965.9166666666667
41,74,1931.85,F2,L,965.925
41,0,1931.8999999999999,F2,L,965.9499999999999
41,74,1931.9,F2,L,965.95
69,69,1931.9,A4,L,965.95
41,0,1932.0,F2,L,966.0
69,0,1932.0,A4,L,966.0
29,80,1932.0,F1,L,966.0
69,69,1932.0,A4,L,966.0
72,79,1932.125,C5,L,966.0625
69,0,1932.125,A4,L,966.0625
29,0,1932.125,F1,L,966.0625
72,0,1932.25,C5,L,966.125
77,74,1932.25,F5,R,966.125
41,74,1932.2916666666667,F2,L,966.1458333333334
29,81,1932.3333333333333,F1,L,966.1666666666666
41,0,1932.3333333333335,F2,L,966.1666666666667
29,0,1932.5,F1,L,966.25
77,0,1932.5,F5,R,966.25
41,78,1932.5833333333333,F2,L,966.2916666666666
81,51,1932.5833333333333,A5,R,966.2916666666666
41,0,1932.6666666666665,F2,L,966.3333333333333
81,0,1932.6666666666665,A5,R,966.3333333333333
84,87,1932.6666666666667,C6,L,966.3333333333334
41,55,1932.8333333333333,F2,L,966.4166666666666
89,86,1932.8333333333333,F6,R,966.4166666666666
84,0,1932.8333333333335,C6,L,966.4166666666667
89,0,1933.0,F6,R,966.5
41,0,1933.0,F2,L,966.5
89,86,1933.0,F6,R,966.5
29,80,1933.0,F1,L,966.5
93,104,1933.0,A6,R,966.5
93,0,1934.0,A6,R,967.0
29,0,1934.0,F1,L,967.0
89,0,1934.0,F6,R,967.0
57,65,1934.5,A3,R,967.25
57,0,1935.0,A3,R,967.5
57,73,1935.0,A3,R,967.5
57,0,1936.0,A3,R,968.0
57,58,1936.125,A3,R,968.0625
57,0,1936.5,A3,R,968.25
56,69,1936.5,G#3,R,968.25
56,0,1937.0,G#3,R,968.5
52,58,1937.0,E3,R,968.5
52,0,1937.25,E3,R,968.625
52,56,1937.3125,E3,R,968.65625
52,56,1937.5,E3,R,968.75
52,0,1937.5,E3,R,968.75
52,0,1937.6875,E3,R,968.84375
52,60,1937.71875,E3,R,968.859375
52,0,1937.75,E3,R,968.875
52,60,1937.75,E3,R,968.875
52,0,1938.0,E3,R,969.0
52,61,1938.125,E3,R,969.0625
52,0,1938.5,E3,R,969.25
54,68,1938.5,F#3,R,969.25
52,64,1939.0,E3,R,969.5
54,0,1939.0,F#3,R,969.5
50,69,1939.25,D3,R,969.625
52,0,1939.5,E3,R,969.75
49,64,1939.5,C#3,R,969.75
47,65,1940.0,B2,R,970.0
50,0,1940.0,D3,R,970.0
49,0,1940.0,C#3,R,970.0
47,0,1940.5,B2,R,970.25
45,63,1940.5,A2,R,970.25
38,67,1940.75,D2,R,970.375
45,0,1941.0,A2,R,970.5
38,0,1941.0,D2,R,970.5
40,65,1941.0,E2,R,970.5
38,67,1941.0,D2,R,970.5
38,0,1942.0,D2,R,971.0
52,53,1942.9375,E3,L,971.46875
40,55,1942.9375,E2,L,971.46875
52,0,1943.0,E3,L,971.5
40,55,1943.0,E2,L,971.5
40,0,1943.0,E2,R,971.5
74,80,1943.0,D5,R,971.5
40,0,1943.0,E2,L,971.5
52,53,1943.0,E3,L,971.5
74,0,1943.375,D5,R,971.6875
71,70,1943.375,B4,R,971.6875
71,0,1943.5,B4,R,971.75
71,69,1943.75,B4,R,971.875
71,0,1944.0,B4,R,972.0
40,0,1944.0,E2,L,972.0
52,0,1944.0,E3,L,972.0
71,70,1944.125,B4,R,972.0625
71,0,1944.5,B4,R,972.25
33,67,1944.5625,A1,L,972.28125
45,64,1944.5625,A2,L,972.28125
33,0,1944.75,A1,L,972.375
45,0,1944.75,A2,L,972.375
73,82,1945.0,C#5,R,972.5
47,52,1946.125,B2,R,973.0625
35,50,1946.15625,B1,L,973.078125
35,0,1946.25,B1,L,973.125
47,0,1946.5,B2,R,973.25
71,61,1946.5,B4,L,973.25
73,0,1947.0,C#5,R,973.5
69,67,1947.0,A4,R,973.5
71,0,1947.0,B4,L,973.5
69,0,1947.3333333333333,A4,R,973.6666666666666
66,59,1947.3333333333333,F#4,R,973.6666666666666
66,0,1947.6666666666665,F#4,R,973.8333333333333
64,70,1947.6666666666667,E4,R,973.8333333333334
40,70,1947.75,E2,L,973.875
52,67,1947.75,E3,L,973.875
40,0,1948.0,E2,L,974.0
52,0,1948.0,E3,L,974.0
64,0,1948.0,E4,R,974.0
71,60,1948.0,B4,R,974.0
68,73,1948.125,G#4,R,974.0625
71,0,1948.125,B4,R,974.0625
76,73,1948.375,E5,R,974.1875
68,0,1948.375,G#4,R,974.1875
76,0,1948.5,E5,R,974.25
71,64,1948.5625,B4,R,974.28125
71,0,1948.75,B4,R,974.375
80,75,1948.7916666666667,G#5,R,974.3958333333334
80,0,1948.9166666666667,G#5,R,974.4583333333334
76,65,1948.9166666666667,E5,R,974.4583333333334
76,0,1949.0,E5,R,974.5
76,65,1949.0,E5,R,974.5
76,0,1949.125,E5,R,974.5625
83,70,1949.125,B5,R,974.5625
83,0,1949.25,B5,R,974.625
76,77,1949.25,E5,R,974.625
40,68,1949.3125,E2,L,974.65625
52,64,1949.3125,E3,L,974.65625
76,0,1949.5,E5,R,974.75
83,75,1949.5,B5,R,974.75
40,0,1949.5,E2,L,974.75
52,0,1949.5,E3,L,974.75
80,78,1949.75,G#5,R,974.875
83,0,1949.75,B5,R,974.875
80,0,1950.0,G#5,R,975.0
83,77,1950.0,B5,R,975.0
88,77,1950.125,E6,R,975.0625
83,0,1950.125,B5,R,975.0625
88,0,1950.25,E6,R,975.125
83,74,1950.25,B5,R,975.125
80,71,1950.5,G#5,R,975.25
83,0,1950.5,B5,R,975.25
80,0,1950.6666666666667,G#5,R,975.3333333333334
83,70,1950.6666666666667,B5,R,975.3333333333334
83,70,1950.75,B5,R,975.375
83,0,1950.75,B5,R,975.375
33,67,1950.875,A1,L,975.4375
45,69,1950.875,A2,L,975.4375
83,0,1950.875,B5,R,975.4375
76,70,1950.875,E5,R,975.4375
85,73,1951.0,C#6,R,975.5
33,0,1951.0,A1,L,975.5
76,0,1951.0,E5,R,975.5
45,0,1951.0,A2,L,975.5
85,0,1951.25,C#6,R,975.625
81,64,1951.25,A5,R,975.625
85,77,1951.5,C#6,R,975.75
81,0,1951.5,A5,R,975.75
85,0,1951.625,C#6,R,975.8125
88,78,1951.625,E6,R,975.8125
85,70,1951.875,C#6,R,975.9375
88,0,1951.875,E6,R,975.9375
76,60,1952.0,E5,R,976.0
85,0,1952.0,C#6,R,976.0
56,59,1952.0,G#3,L,976.0
76,0,1952.25,E5,R,976.125
88,62,1952.3125,E6,R,976.15625
57,62,1952.5,A3,L,976.25
56,0,1952.5,G#3,L,976.25
76,61,1952.5,E5,R,976.25
88,0,1952.5,E6,R,976.25
76,0,1952.75,E5,R,976.375
88,53,1952.7916666666667,E6,R,976.3958333333334
88,0,1952.8333333333335,E6,R,976.4166666666667
76,55,1952.9166666666667,E5,R,976.4583333333334
59,55,1953.0,B3,L,976.5
57,0,1953.0,A3,L,976.5
76,0,1953.0,E5,R,976.5
88,54,1953.125,E6,R,976.5625
88,0,1953.25,E6,R,976.625
76,59,1953.25,E5,R,976.625
61,56,1953.3333333333333,C#4,L,976.6666666666666
59,0,1953.3333333333333,B3,L,976.6666666666666
76,0,1953.5,E5,R,976.75
88,62,1953.5,E6,R,976.75
88,0,1953.625,E6,R,976.8125
76,61,1953.625,E5,R,976.8125
61,0,1953.6666666666665,C#4,L,976.8333333333333
62,55,1953.6666666666667,D4,L,976.8333333333334
88,62,1953.875,E6,R,976.9375
76,0,1953.875,E5,R,976.9375
52,48,1954.0,E3,L,977.0
56,54,1954.0,G#3,L,977.0
88,0,1954.0,E6,R,977.0
76,48,1954.0,E5,R,977.0
62,0,1954.0,D4,L,977.0
76,0,1954.25,E5,R,977.125
88,57,1954.25,E6,R,977.125
76,56,1954.5,E5,R,977.25
88,0,1954.5,E6,R,977.25
88,63,1954.6666666666667,E6,R,977.3333333333334
76,0,1954.6666666666667,E5,R,977.3333333333334
76,58,1954.8333333333333,E5,R,977.4166666666666
88,0,1954.8333333333335,E6,R,977.4166666666667
76,0,1955.0,E5,R,977.5
88,65,1955.0,E6,R,977.5
52,0,1955.0,E3,L,977.5
56,0,1955.0,G#3,L,977.5
76,59,1955.25,E5,R,977.625
88,0,1955.25,E6,R,977.625
88,59,1955.5,E6,R,977.75
76,0,1955.5,E5,R,977.75
52,60,1955.625,E3,L,977.8125
76,73,1955.625,E5,R,977.8125
40,79,1955.625,E2,L,977.8125
83,71,1955.875,B5,R,977.9375
76,0,1955.875,E5,R,977.9375
88,0,1956.0,E6,R,978.0
52,0,1956.0,E3,L,978.0
83,0,1956.0,B5,R,978.0
80,73,1956.0,G#5,R,978.0
40,0,1956.0,E2,L,978.0
83,74,1956.25,B5,R,978.125
80,0,1956.25,G#5,R,978.125
83,0,1956.5,B5,R,978.25
88,79,1956.5833333333333,E6,R,978.2916666666666
88,0,1956.6666666666665,E6,R,978.3333333333333
83,79,1956.6666666666667,B5,R,978.3333333333334
80,69,1956.8333333333333,G#5,R,978.4166666666666
83,0,1956.8333333333335,B5,R,978.4166666666667
80,0,1957.0,G#5,R,978.5
83,70,1957.0,B5,R,978.5
83,0,1957.25,B5,R,978.625
76,68,1957.25,E5,R,978.625
33,78,1957.25,A1,L,978.625
45,68,1957.25,A2,L,978.625
76,0,1957.5,E5,R,978.75
85,72,1957.5,C#6,R,978.75
85,0,1957.625,C#6,R,978.8125
81,66,1957.625,A5,R,978.8125
81,0,1957.875,A5,R,978.9375
85,73,1957.875,C#6,R,978.9375
85,0,1958.0,C#6,R,979.0
88,77,1958.0,E6,R,979.0
33,0,1958.0,A1,L,979.0
45,0,1958.0,A2,L,979.0
85,82,1958.25,C#6,R,979.125
88,0,1958.25,E6,R,979.125
85,0,1958.5,C#6,R,979.25
81,64,1958.5,A5,R,979.25
81,0,1958.625,A5,R,979.3125
85,69,1958.625,C#6,R,979.3125
47,55,1958.875,B2,L,979.4375
85,0,1958.875,C#6,R,979.4375
81,62,1958.875,A5,R,979.4375
35,43,1958.875,B1,L,979.4375
35,0,1959.0,B1,L,979.5
47,0,1959.0,B2,L,979.5
81,0,1959.0,A5,R,979.5
83,67,1959.0,B5,R,979.5
81,59,1959.25,A5,R,979.625
83,0,1959.25,B5,R,979.625
83,64,1959.5,B5,R,979.75
81,0,1959.5,A5,R,979.75
83,0,1959.75,B5,R,979.875
78,70,1959.75,F#5,R,979.875
78,0,1959.875,F#5,R,979.9375
83,67,1959.9375,B5,R,979.96875
83,0,1960.0,B5,R,980.0
83,67,1960.0,B5,R,980.0
81,64,1960.125,A5,R,980.0625
83,0,1960.125,B5,R,980.0625
81,0,1960.25,A5,R,980.125
83,59,1960.25,B5,R,980.125
83,0,1960.5,B5,R,980.25
80,70,1960.5,G#5,R,980.25
52,34,1960.625,E3,R,980.3125
40,37,1960.625,E2,L,980.3125
83,57,1960.75,B5,R,980.375
52,0,1960.75,E3,R,980.375
40,0,1961.0,E2,L,980.5
80,68,1961.0,G#5,R,980.5
80,0,1961.0,G#5,R,980.5
83,0,1961.0,B5,R,980.5
80,0,1961.125,G#5,R,980.5625
83,64,1961.125,B5,R,980.5625
80,66,1961.375,G#5,R,980.6875
83,0,1961.375,B5,R,980.6875
83,62,1961.5,B5,R,980.75
80,0,1961.5,G#5,R,980.75
83,0,1961.75,B5,R,980.875
80,68,1961.7916666666667,G#5,R,980.8958333333334
83,56,1961.9166666666667,B5,R,980.9583333333334
80,0,1961.9166666666667,G#5,R,980.9583333333334
83,0,1962.0,B5,R,981.0
83,56,1962.0,B5,R,981.0
35,43,1962.25,B1,L,981.125
47,49,1962.25,B2,L,981.125
83,0,1962.25,B5,R,981.125
81,60,1962.25,A5,R,981.125
81,0,1962.375,A5,R,981.1875
83,67,1962.375,B5,R,981.1875
81,64,1962.5,A5,R,981.25
83,0,1962.5,B5,R,981.25
81,0,1962.75,A5,R,981.375
83,67,1962.75,B5,R,981.375
47,0,1963.0,B2,L,981.5
83,0,1963.0,B5,R,981.5
35,0,1963.0,B1,L,981.5
78,64,1963.1,F#5,R,981.55
78,0,1963.1999999999998,F#5,R,981.5999999999999
83,70,1963.2,B5,R,981.6
81,65,1963.4,A5,R,981.7
83,0,1963.4,B5,R,981.7
83,56,1963.6,B5,R,981.8
81,0,1963.6000000000001,A5,R,981.8000000000001
80,61,1963.8,G#5,R,981.9
83,0,1963.8,B5,R,981.9
40,50,1963.875,E2,L,981.9375
80,0,1963.8999999999999,G#5,R,981.9499999999999
52,41,1963.9,E3,R,981.95
80,61,1963.9,G#5,R,981.95
52,0,1964.0,E3,R,982.0
80,0,1964.0,G#5,R,982.0
40,0,1964.0,E2,L,982.0
83,43,1964.1666666666667,B5,R,982.0833333333334
80,65,1964.3333333333333,G#5,R,982.1666666666666
83,0,1964.3333333333335,B5,R,982.1666666666667
80,0,1964.5,G#5,R,982.25
83,61,1964.5,B5,R,982.25
80,67,1964.75,G#5,R,982.375
83,0,1964.75,B5,R,982.375
83,64,1964.9375,B5,R,982.46875
80,0,1964.9375,G#5,R,982.46875
83,0,1965.0,B5,R,982.5
83,64,1965.0,B5,R,982.5
80,59,1965.125,G#5,R,982.5625
83,0,1965.125,B5,R,982.5625
80,0,1965.25,G#5,R,982.625
83,60,1965.25,B5,R,982.625
86,67,1965.5,D6,R,982.75
52,35,1965.5,E3,L,982.75
40,57,1965.5,E2,L,982.75
83,0,1965.5,B5,R,982.75
86,0,1965.75,D6,R,982.875
88,71,1965.75,E6,R,982.875
40,0,1966.0,E2,L,983.0
52,0,1966.0,E3,L,983.0
88,0,1966.0,E6,R,983.0
86,76,1966.0,D6,R,983.0
86,0,1966.2,D6,R,983.1
88,75,1966.2,E6,R,983.1
83,69,1966.3,B5,R,983.15
88,0,1966.3,E6,R,983.15
83,0,1966.3999999999999,B5,R,983.1999999999999
86,36,1966.4,D6,R,983.2
88,77,1966.6,E6,R,983.3
86,0,1966.6000000000001,D6,R,983.3000000000001
88,0,1966.8,E6,R,983.4
86,79,1966.8,D6,R,983.4
86,0,1967.0,D6,R,983.5
88,49,1967.0625,E6,R,983.53125
85,70,1967.125,C#6,R,983.5625
45,55,1967.125,A2,L,983.5625
33,64,1967.125,A1,L,983.5625
88,0,1967.125,E6,R,983.5625
88,72,1967.375,E6,R,983.6875
85,0,1967.375,C#6,R,983.6875
88,0,1967.5,E6,R,983.75
85,64,1967.5,C#6,R,983.75
33,0,1967.5,A1,L,983.75
45,0,1967.5,A2,L,983.75
88,63,1967.75,E6,R,983.875
85,0,1967.75,C#6,R,983.875
85,70,1967.875,C#6,R,983.9375
88,0,1967.875,E6,R,983.9375
88,67,1968.0,E6,R,984.0
85,0,1968.0,C#6,R,984.0
85,69,1968.25,C#6,R,984.125
88,0,1968.25,E6,R,984.125
85,0,1968.375,C#6,R,984.1875
88,78,1968.4375,E6,R,984.21875
88,0,1968.5,E6,R,984.25
88,78,1968.5,E6,R,984.25
88,0,1968.75,E6,R,984.375
38,92,1968.75,D2,R,984.375
38,0,1969.0,D2,R,984.5
40,67,1969.0,E2,R,984.5
38,68,1969.125,D2,R,984.5625
40,0,1969.125,E2,R,984.5625
38,0,1969.25,D2,R,984.625
40,59,1969.3125,E2,R,984.65625
40,0,1969.375,E2,R,984.6875
35,69,1969.375,B1,R,984.6875
35,0,1969.5,B1,R,984.75
40,66,1969.625,E2,R,984.8125
40,0,1969.75,E2,R,984.875
38,60,1969.8125,D2,R,984.90625
40,67,1970.0,E2,R,985.0
38,0,1970.0,D2,R,985.0
38,67,1970.1666666666667,D2,R,985.0833333333334
40,0,1970.1666666666667,E2,R,985.0833333333334
38,0,1970.25,D2,R,985.125
40,65,1970.375,E2,R,985.1875
40,0,1970.5,E2,R,985.25
38,59,1970.5625,D2,R,985.28125
38,0,1970.75,D2,R,985.375
40,64,1970.75,E2,R,985.375
40,0,1971.0,E2,R,985.5
38,61,1971.0833333333333,D2,R,985.5416666666666
38,0,1971.1666666666665,D2,R,985.5833333333333
40,75,1971.1666666666667,E2,R,985.5833333333334
38,85,1971.375,D2,L,985.6875
40,0,1971.4166666666667,E2,R,985.7083333333334
78,103,1971.4166666666667,F#5,R,985.7083333333334
90,109,1971.4166666666667,F#6,R,985.7083333333334
38,0,1971.5,D2,L,985.75
78,0,1971.5,F#5,R,985.75
38,85,1971.5,D2,L,985.75
78,103,1971.5,F#5,R,985.75
90,0,1971.5,F#6,R,985.75
90,109,1971.5,F#6,R,985.75
40,88,1971.6666666666667,E2,L,985.8333333333334
38,0,1971.6666666666667,D2,L,985.8333333333334
37,87,1971.8333333333333,C#2,L,985.9166666666666
40,0,1971.8333333333335,E2,L,985.9166666666667
78,0,1972.0,F#5,R,986.0
40,80,1972.0,E2,L,986.0
37,0,1972.0,C#2,L,986.0
90,0,1972.0,F#6,R,986.0
76,68,1972.25,E5,R,986.125
88,74,1972.25,E6,R,986.125
37,80,1972.25,C#2,L,986.125
40,0,1972.25,E2,L,986.125
89,72,1972.3125,F6,L,986.15625
37,0,1972.3125,C#2,L,986.15625
40,74,1972.4375,E2,L,986.21875
89,0,1972.4375,F6,L,986.21875
76,0,1972.5,E5,R,986.25
88,0,1972.5,E6,R,986.25
40,74,1972.5,E2,L,986.25
40,0,1972.5,E2,L,986.25
85,83,1972.625,C#6,R,986.3125
40,0,1972.625,E2,L,986.3125
37,76,1972.625,C#2,L,986.3125
73,68,1972.625,C#5,R,986.3125
37,0,1972.75,C#2,L,986.375
40,68,1972.8125,E2,L,986.40625
73,0,1973.0,C#5,R,986.5
81,84,1973.0,A5,R,986.5
85,0,1973.0,C#6,R,986.5
40,0,1973.0,E2,L,986.5
37,76,1973.0,C#2,L,986.5
69,48,1973.0625,A4,L,986.53125
69,0,1973.25,A4,L,986.625
40,75,1973.25,E2,L,986.625
81,0,1973.375,A5,R,986.6875
66,90,1973.375,F#4,R,986.6875
78,94,1973.375,F#5,R,986.6875
37,81,1973.375,C#2,L,986.6875
40,0,1973.375,E2,L,986.6875
37,0,1973.5,C#2,L,986.75
66,0,1973.5,F#4,R,986.75
78,0,1973.5,F#5,R,986.75
75,44,1973.5,D#5,L,986.75
75,0,1973.625,D#5,L,986.8125
40,80,1973.625,E2,L,986.8125
76,84,1973.75,E5,R,986.875
40,0,1973.75,E2,L,986.875
64,59,1973.75,E4,R,986.875
37,75,1973.78125,C#2,L,986.890625
37,0,1973.875,C#2,L,986.9375
37,0,1974.0,C#2,L,987.0
40,75,1974.0,E2,L,987.0
76,0,1974.0,E5,R,987.0
64,0,1974.0,E4,R,987.0
61,62,1974.125,C#4,R,987.0625
73,71,1974.125,C#5,R,987.0625
40,0,1974.1666666666667,E2,L,987.0833333333334
37,72,1974.1666666666667,C#2,L,987.0833333333334
37,0,1974.25,C#2,L,987.125
40,74,1974.375,E2,L,987.1875
57,61,1974.5,A3,R,987.25
40,0,1974.5,E2,L,987.25
73,0,1974.5,C#5,R,987.25
61,0,1974.5,C#4,R,987.25
69,81,1974.5,A4,R,987.25
37,76,1974.5416666666667,C#2,L,987.2708333333334
37,0,1974.5833333333335,C#2,L,987.2916666666667
40,73,1974.6666666666667,E2,L,987.3333333333334
40,73,1974.75,E2,L,987.375
40,0,1974.75,E2,L,987.375
38,87,1974.875,D2,L,987.4375
40,0,1974.875,E2,L,987.4375
69,0,1974.875,A4,R,987.4375
57,0,1974.875,A3,R,987.4375
52,57,1974.9375,E3,R,987.46875
64,72,1974.9375,E4,R,987.46875
38,0,1975.0,D2,L,987.5
52,0,1975.0,E3,R,987.5
38,87,1975.0,D2,L,987.5
64,0,1975.0,E4,R,987.5
38,0,1975.1666666666667,D2,L,987.5833333333334
40,77,1975.1666666666667,E2,L,987.5833333333334
38,66,1975.3333333333333,D2,L,987.6666666666666
40,0,1975.3333333333335,E2,L,987.6666666666667
38,0,1975.5,D2,L,987.75
40,69,1975.5833333333333,E2,L,987.7916666666666
40,0,1975.6666666666665,E2,L,987.8333333333333
35,66,1975.6666666666667,B1,L,987.8333333333334
40,67,1975.8333333333333,E2,L,987.9166666666666
35,0,1975.8333333333335,B1,L,987.9166666666667
40,0,1976.0,E2,L,988.0
38,64,1976.0625,D2,L,988.03125
38,0,1976.25,D2,L,988.125
40,68,1976.25,E2,L,988.125
40,0,1976.5,E2,L,988.25
38,66,1976.5833333333333,D2,L,988.2916666666666
38,0,1976.6666666666665,D2,L,988.3333333333333
40,69,1976.6666666666667,E2,L,988.3333333333334
38,65,1976.8333333333333,D2,L,988.4166666666666
40,0,1976.8333333333335,E2,L,988.4166666666667
38,0,1977.0,D2,L,988.5
40,71,1977.0,E2,L,988.5
40,0,1977.25,E2,L,988.625
38,70,1977.25,D2,L,988.625
90,103,1977.5,F#6,R,988.75
78,105,1977.5,F#5,R,988.75
38,0,1977.5,D2,L,988.75
40,76,1977.5,E2,L,988.75
40,0,1977.5833333333333,E2,L,988.7916666666666
38,92,1977.5833333333333,D2,L,988.7916666666666
38,0,1977.8333333333333,D2,L,988.9166666666666
40,87,1977.8333333333333,E2,L,988.9166666666666
40,0,1978.0,E2,L,989.0
37,97,1978.0,C#2,L,989.0
90,0,1978.0,F#6,R,989.0
78,0,1978.0,F#5,R,989.0
37,0,1978.25,C#2,L,989.125
40,88,1978.25,E2,L,989.125
37,84,1978.4166666666667,C#2,L,989.2083333333334
40,0,1978.4166666666667,E2,L,989.2083333333334
88,92,1978.4375,E6,R,989.21875
76,82,1978.4375,E5,R,989.21875
88,0,1978.5,E6,R,989.25
37,84,1978.5,C#2,L,989.25
76,0,1978.5,E5,R,989.25
37,0,1978.5,C#2,L,989.25
37,0,1978.625,C#2,L,989.3125
40,76,1978.625,E2,L,989.3125
40,0,1978.75,E2,L,989.375
85,83,1978.8125,C#6,R,989.40625
37,80,1978.8125,C#2,L,989.40625
73,59,1978.8125,C#5,R,989.40625
37,0,1979.0,C#2,L,989.5
85,0,1979.0,C#6,R,989.5
40,76,1979.0,E2,L,989.5
73,0,1979.0,C#5,R,989.5
40,0,1979.125,E2,L,989.5625
37,74,1979.1875,C#2,L,989.59375
81,80,1979.1875,A5,R,989.59375
37,0,1979.25,C#2,L,989.625
37,74,1979.25,C#2,L,989.625
81,0,1979.25,A5,R,989.625
69,9,1979.3125,A4,L,989.65625
37,0,1979.3125,C#2,L,989.65625
40,74,1979.375,E2,L,989.6875
69,0,1979.375,A4,L,989.6875
40,0,1979.5,E2,L,989.75
37,77,1979.5625,C#2,L,989.78125
66,79,1979.5625,F#4,R,989.78125
78,85,1979.5625,F#5,R,989.78125
66,0,1979.75,F#4,R,989.875
66,79,1979.75,F#4,R,989.875
78,0,1979.75,F#5,R,989.875
78,85,1979.75,F#5,R,989.875
40,75,1979.75,E2,L,989.875
37,0,1979.75,C#2,L,989.875
37,76,1979.9166666666667,C#2,L,989.9583333333334
40,0,1979.9166666666667,E2,L,989.9583333333334
78,0,1979.9375,F#5,R,989.96875
76,71,1979.9375,E5,R,989.96875
66,0,1979.9375,F#4,R,989.96875
37,76,1980.0,C#2,L,990.0
37,0,1980.0,C#2,L,990.0
76,0,1980.0,E5,R,990.0
40,71,1980.125,E2,L,990.0625
37,0,1980.125,C#2,L,990.0625
40,0,1980.25,E2,L,990.125
70,56,1980.25,A#4,R,990.125
61,72,1980.25,C#4,R,990.125
73,73,1980.25,C#5,R,990.125
37,75,1980.28125,C#2,L,990.140625
37,0,1980.375,C#2,L,990.1875
40,61,1980.5,E2,L,990.25
37,79,1980.625,C#2,L,990.3125
40,0,1980.625,E2,L,990.3125
71,69,1980.65625,B4,L,990.328125
57,44,1980.6875,A3,L,990.34375
37,0,1980.6875,C#2,L,990.34375
40,80,1980.75,E2,L,990.375
71,0,1980.75,B4,L,990.375
57,44,1980.75,A3,L,990.375
57,0,1980.75,A3,L,990.375
40,0,1981.0,E2,L,990.5
61,0,1981.0,C#4,R,990.5
57,0,1981.0,A3,L,990.5
50,88,1981.0,D3,R,990.5
73,0,1981.0,C#5,R,990.5
70,0,1981.0,A#4,R,990.5
38,83,1981.0625,D2,L,990.53125
35,76,1981.25,B1,L,990.625
50,0,1981.25,D3,R,990.625
47,75,1981.25,B2,R,990.625
38,0,1981.25,D2,L,990.625
47,0,1981.5,B2,R,990.75
49,65,1981.5,C#3,R,990.75
35,0,1981.5,B1,L,990.75
37,74,1981.5,C#2,L,990.75
38,73,1981.625,D2,L,990.8125
49,0,1981.625,C#3,R,990.8125
50,72,1981.625,D3,R,990.8125
40,75,1981.875,E2,L,990.9375
52,68,1981.875,E3,R,990.9375
38,0,1981.875,D2,L,990.9375
50,0,1981.875,D3,R,990.9375
37,0,1982.0,C#2,L,991.0
42,78,1982.0,F#2,L,991.0
40,0,1982.0,E2,L,991.0
52,0,1982.0,E3,R,991.0
52,68,1982.0,E3,R,991.0
54,77,1982.125,F#3,R,991.0625
52,0,1982.125,E3,R,991.0625
56,77,1982.25,G#3,R,991.125
54,0,1982.25,F#3,R,991.125
42,0,1982.25,F#2,L,991.125
44,72,1982.25,G#2,L,991.125
56,0,1982.5,G#3,R,991.25
44,0,1982.5,G#2,L,991.25
45,74,1982.5833333333333,A2,L,991.2916666666666
57,78,1982.5833333333333,A3,R,991.2916666666666
45,0,1982.6666666666665,A2,L,991.3333333333333
57,0,1982.6666666666665,A3,R,991.3333333333333
47,76,1982.6666666666667,B2,L,991.3333333333334
59,84,1982.6666666666667,B3,R,991.3333333333334
61,77,1982.8333333333333,C#4,R,991.4166666666666
49,76,1982.8333333333333,C#3,L,991.4166666666666
59,0,1982.8333333333335,B3,R,991.4166666666667
47,0,1982.8333333333335,B2,L,991.4166666666667
62,76,1983.0,D4,R,991.5
49,0,1983.0,C#3,L,991.5
61,0,1983.0,C#4,R,991.5
50,78,1983.1,D3,L,991.55
50,0,1983.1999999999998,D3,L,991.5999999999999
52,76,1983.2,E3,L,991.6
62,0,1983.25,D4,R,991.625
64,83,1983.25,E4,R,991.625
54,74,1983.4,F#3,L,991.7
52,0,1983.4,E3,L,991.7
64,0,1983.5,E4,R,991.75
66,84,1983.5,F#4,R,991.75
56,79,1983.6,G#3,L,991.8
54,0,1983.6000000000001,F#3,L,991.8000000000001
66,0,1983.625,F#4,R,991.8125
68,82,1983.625,G#4,R,991.8125
68,0,1983.75,G#4,R,991.875
69,73,1983.75,A4,R,991.875
57,70,1983.8,A3,L,991.9
56,0,1983.8,G#3,L,991.9
71,80,1984.0,B4,R,992.0
69,0,1984.0,A4,R,992.0
59,77,1984.0,B3,L,992.0
57,0,1984.0,A3,L,992.0
61,72,1984.25,C#4,L,992.125
71,0,1984.25,B4,R,992.125
73,82,1984.25,C#5,R,992.125
59,0,1984.375,B3,L,992.1875
62,72,1984.375,D4,L,992.1875
73,0,1984.375,C#5,R,992.1875
74,86,1984.375,D5,R,992.1875
62,0,1984.5,D4,L,992.25
64,72,1984.5,E4,L,992.25
74,0,1984.5,D5,R,992.25
76,81,1984.5,E5,R,992.25
66,76,1984.75,F#4,L,992.375
64,0,1984.75,E4,L,992.375
76,0,1984.75,E5,R,992.375
78,85,1984.7916666666667,F#5,R,992.3958333333334
80,83,1984.9166666666667,G#5,R,992.4583333333334
78,0,1984.9166666666667,F#5,R,992.4583333333334
80,0,1985.0,G#5,R,992.5
81,77,1985.0,A5,R,992.5
61,0,1985.0,C#4,L,992.5
68,81,1985.0,G#4,L,992.5
66,0,1985.0,F#4,L,992.5
69,75,1985.125,A4,L,992.5625
81,0,1985.25,A5,R,992.625
83,85,1985.25,B5,R,992.625
69,0,1985.25,A4,L,992.625
71,71,1985.25,B4,L,992.625
71,0,1985.5,B4,L,992.75
85,87,1985.5,C#6,R,992.75
83,0,1985.5,B5,R,992.75
73,78,1985.5833333333333,C#5,L,992.7916666666666
86,83,1985.625,D6,R,992.8125
73,0,1985.6666666666665,C#5,L,992.8333333333333
74,73,1985.6666666666667,D5,L,992.8333333333334
88,85,1985.75,E6,R,992.875
85,0,1985.75,C#6,R,992.875
76,73,1985.8333333333333,E5,L,992.9166666666666
74,0,1985.8333333333335,D5,L,992.9166666666667
90,82,1986.0,F#6,R,993.0
88,0,1986.0,E6,R,993.0
76,0,1986.0,E5,L,993.0
68,0,1986.0,G#4,L,993.0
86,0,1986.0,D6,R,993.0
78,77,1986.0,F#5,L,993.0
78,0,1986.25,F#5,L,993.125
80,71,1986.25,G#5,L,993.125
92,82,1986.25,G#6,R,993.125
81,69,1986.5,A5,L,993.25
92,0,1986.5,G#6,R,993.25
93,90,1986.5,A6,R,993.25
90,0,1986.5,F#6,R,993.25
80,0,1986.5,G#5,L,993.25
81,0,1986.625,A5,L,993.3125
88,92,1986.625,E6,R,993.3125
76,68,1986.625,E5,L,993.3125
93,85,1986.75,A6,R,993.375
93,0,1986.75,A6,R,993.375
81,63,1986.875,A5,L,993.4375
88,0,1986.875,E6,R,993.4375
91,87,1986.875,G6,R,993.4375
76,0,1986.875,E5,L,993.4375
81,0,1987.0,A5,L,993.5
93,0,1987.0,A6,R,993.5
79,81,1987.0,G5,L,993.5
91,0,1987.0,G6,R,993.5
90,104,1987.0,F#6,R,993.5
91,87,1987.0,G6,R,993.5
79,0,1987.25,G5,L,993.625
77,80,1987.25,F5,L,993.625
91,0,1988.0,G6,R,994.0
90,104,1988.0,F#6,R,994.0
77,0,1988.0,F5,L,994.0
78,71,1988.0,F#5,L,994.0
90,0,1988.0,F#6,R,994.0
90,0,1989.0,F#6,R,994.5
78,0,1989.0,F#5,L,994.5
62,48,1991.0,D4,L,995.5
59,36,1991.25,B3,L,995.625
61,47,1991.5,C#4,L,995.75
59,36,1991.5,B3,L,995.75
59,0,1991.5,B3,L,995.75
64,62,1991.5,E4,R,995.75
62,46,1991.75,D4,L,995.875
59,0,1991.75,B3,L,995.875
66,66,1991.75,F#4,R,995.875
61,0,1991.75,C#4,L,995.875
62,0,1992.0,D4,L,996.0
62,46,1992.0,D4,L,996.0
66,66,1992.0,F#4,R,996.0
66,0,1992.0,F#4,R,996.0
64,0,1992.0,E4,R,996.0
62,0,1992.0,D4,L,996.0
62,50,1992.25,D4,R,996.125
66,0,1992.25,F#4,R,996.125
59,51,1992.25,B3,L,996.125
62,0,1992.25,D4,L,996.125
59,0,1993.0,B3,L,996.5
62,0,1993.0,D4,R,996.5
67,61,1993.0,G4,R,996.5
64,51,1993.0,E4,L,996.5
62,45,1994.0,D4,L,997.0
66,53,1994.0,F#4,R,997.0
67,0,1994.0,G4,R,997.0
64,0,1994.0,E4,L,997.0
62,0,1994.3333333333333,D4,L,997.1666666666666
61,46,1994.3333333333333,C#4,L,997.1666666666666
64,52,1994.5,E4,R,997.25
66,0,1994.5,F#4,R,997.25
61,0,1994.6666666666665,C#4,L,997.3333333333333
62,49,1994.6666666666667,D4,L,997.3333333333334
66,63,1994.75,F#4,R,997.375
62,0,1995.0,D4,L,997.5
66,63,1995.0,F#4,R,997.5
66,0,1995.0,F#4,R,997.5
64,0,1995.0,E4,R,997.5
67,66,1995.0,G4,R,997.5
64,54,1995.125,E4,L,997.5625
64,0,1995.5,E4,L,997.75
61,55,1995.5,C#4,L,997.75
67,0,1995.5,G4,R,997.75
64,51,1995.5,E4,R,997.75
66,0,1996.0,F#4,R,998.0
62,64,1996.0,D4,R,998.0
64,0,1996.0,E4,R,998.0
61,0,1996.0,C#4,L,998.0
66,63,1996.75,F#4,R,998.375
62,0,1996.75,D4,R,998.375
66,0,1997.0,F#4,R,998.5
54,49,1997.5,F#3,R,998.75
51,44,1997.5,D#3,L,998.75
54,0,1998.0,F#3,R,999.0
51,0,1998.0,D#3,L,999.0
66,45,1998.375,F#4,L,999.1875
69,51,1998.375,A4,R,999.1875
59,45,1998.375,B3,L,999.1875
69,51,1998.5,A4,R,999.25
69,0,1998.5,A4,R,999.25
59,0,1998.5,B3,L,999.25
66,45,1998.5,F#4,L,999.25
59,45,1998.5,B3,L,999.25
66,0,1998.5,F#4,L,999.25
69,0,1999.0,A4,R,999.5
66,0,1999.0,F#4,L,999.5
59,0,1999.0,B3,L,999.5
52,53,1999.25,E3,R,999.625
61,49,2000.0,C#4,L,1000.0
52,0,2000.0,E3,R,1000.0
64,56,2000.0625,E4,R,1000.03125
64,56,2000.25,E4,R,1000.125
64,0,2000.25,E4,R,1000.125
64,0,2001.0,E4,R,1000.5
61,0,2001.0,C#4,L,1000.5
42,62,2001.0,F#2,L,1000.5
54,59,2001.0,F#3,R,1000.5
52,62,2001.1666666666667,E3,R,1000.5833333333334
54,0,2001.1666666666667,F#3,R,1000.5833333333334
40,54,2001.3333333333333,E2,R,1000.6666666666666
52,62,2001.3333333333333,E3,R,1000.6666666666666
42,0,2001.3333333333333,F#2,L,1000.6666666666666
52,0,2001.3333333333335,E3,R,1000.6666666666667
40,0,2001.6666666666665,E2,R,1000.8333333333333
52,0,2001.6666666666665,E3,R,1000.8333333333333
50,59,2001.6666666666667,D3,R,1000.8333333333334
38,58,2001.6666666666667,D2,L,1000.8333333333334
50,0,2002.0,D3,R,1001.0
52,57,2002.0,E3,R,1001.0
38,0,2002.0,D2,L,1001.0
40,60,2002.0,E2,L,1001.0
52,0,2002.5,E3,R,1001.25
33,88,2002.5,A1,L,1001.25
40,0,2002.5,E2,L,1001.25
45,71,2002.5,A2,R,1001.25
37,75,2002.75,C#2,L,1001.375
45,0,2002.75,A2,R,1001.375
49,62,2002.75,C#3,R,1001.375
33,0,2002.75,A1,L,1001.375
37,0,2003.0,C#2,L,1001.5
49,0,2003.0,C#3,R,1001.5
38,66,2003.0714285714287,D2,L,1001.5357142857143
50,75,2003.0833333333333,D3,R,1001.5416666666666
40,71,2003.142857142857,E2,L,1001.5714285714286
38,0,2003.1428571428573,D2,L,1001.5714285714287
50,0,2003.1666666666665,D3,R,1001.5833333333333
52,68,2003.1666666666667,E3,R,1001.5833333333334
40,0,2003.2857142857142,E2,L,1001.6428571428571
54,76,2003.3333333333333,F#3,R,1001.6666666666666
52,0,2003.3333333333335,E3,R,1001.6666666666667
42,77,2003.357142857143,F#2,L,1001.6785714285714
54,76,2003.5,F#3,R,1001.75
54,0,2003.5,F#3,R,1001.75
54,0,2003.5416666666667,F#3,R,1001.7708333333334
56,78,2003.5416666666667,G#3,R,1001.7708333333334
42,0,2003.5714285714287,F#2,L,1001.7857142857143
44,69,2003.5714285714287,G#2,L,1001.7857142857143
56,0,2003.6666666666667,G#3,R,1001.8333333333334
57,72,2003.7083333333333,A3,R,1001.8541666666666
44,0,2003.7142857142858,G#2,L,1001.8571428571429
45,73,2003.7142857142858,A2,L,1001.8571428571429
57,0,2003.75,A3,R,1001.875
57,72,2003.75,A3,R,1001.875
45,0,2003.857142857143,A2,L,1001.9285714285714
47,74,2003.857142857143,B2,L,1001.9285714285714
57,0,2003.875,A3,R,1001.9375
59,76,2003.875,B3,R,1001.9375
47,74,2004.0,B2,L,1002.0
47,0,2004.0,B2,L,1002.0
49,70,2004.0,C#3,L,1002.0
59,76,2004.0,B3,R,1002.0
59,0,2004.0,B3,R,1002.0
61,74,2004.125,C#4,R,1002.0625
59,0,2004.125,B3,R,1002.0625
61,0,2004.25,C#4,R,1002.125
62,74,2004.25,D4,R,1002.125
47,0,2004.25,B2,L,1002.125
50,75,2004.25,D3,L,1002.125
50,0,2004.5,D3,L,1002.25
52,69,2004.5,E3,L,1002.25
64,78,2004.5,E4,R,1002.25
62,0,2004.5,D4,R,1002.25
66,83,2004.6666666666667,F#4,R,1002.3333333333334
64,0,2004.6666666666667,E4,R,1002.3333333333334
54,67,2004.75,F#3,L,1002.375
49,0,2004.75,C#3,L,1002.375
68,79,2004.8333333333333,G#4,R,1002.4166666666666
66,0,2004.8333333333335,F#4,R,1002.4166666666667
52,0,2004.875,E3,L,1002.4375
56,73,2004.875,G#3,L,1002.4375
69,73,2005.0,A4,R,1002.5
56,0,2005.0,G#3,L,1002.5
56,73,2005.0,G#3,L,1002.5
57,73,2005.0,A3,L,1002.5
68,0,2005.0,G#4,R,1002.5
54,0,2005.0,F#3,L,1002.5
56,0,2005.125,G#3,L,1002.5625
57,0,2005.125,A3,L,1002.5625
59,72,2005.125,B3,L,1002.5625
71,75,2005.1666666666667,B4,R,1002.5833333333334
69,0,2005.1666666666667,A4,R,1002.5833333333334
73,87,2005.3333333333333,C#5,R,1002.6666666666666
71,0,2005.3333333333335,B4,R,1002.6666666666667
59,0,2005.375,B3,L,1002.6875
61,74,2005.375,C#4,L,1002.6875
57,68,2005.5,A3,L,1002.75
69,79,2005.5,A4,R,1002.75
61,0,2005.5,C#4,L,1002.75
73,0,2005.5,C#5,R,1002.75
57,0,2005.75,A3,L,1002.875
69,0,2005.75,A4,R,1002.875
71,75,2005.75,B4,R,1002.875
59,73,2005.75,B3,L,1002.875
59,0,2006.0,B3,L,1003.0
61,71,2006.0,C#4,L,1003.0
71,0,2006.0,B4,R,1003.0
73,84,2006.0,C#5,R,1003.0
73,0,2006.125,C#5,R,1003.0625
62,66,2006.125,D4,L,1003.0625
74,81,2006.125,D5,R,1003.0625
62,0,2006.25,D4,L,1003.125
64,79,2006.2916666666667,E4,L,1003.1458333333334
64,79,2006.3333333333333,E4,L,1003.1666666666666
76,79,2006.3333333333333,E5,L,1003.1666666666666
64,0,2006.3333333333335,E4,L,1003.1666666666667
64,0,2006.4166666666665,E4,L,1003.2083333333333
76,0,2006.4166666666665,E5,L,1003.2083333333333
76,79,2006.4166666666667,E5,L,1003.2083333333334
76,0,2006.5,E5,L,1003.25
61,0,2006.5,C#4,L,1003.25
66,74,2006.5,F#4,L,1003.25
74,0,2006.5,D5,R,1003.25
78,87,2006.5833333333333,F#5,R,1003.2916666666666
68,73,2006.625,G#4,L,1003.3125
78,0,2006.6666666666665,F#5,R,1003.3333333333333
80,80,2006.6666666666667,G#5,R,1003.3333333333334
68,0,2006.75,G#4,L,1003.375
69,71,2006.75,A4,L,1003.375
81,78,2006.8333333333333,A5,R,1003.4166666666666
80,0,2006.8333333333335,G#5,R,1003.4166666666667
71,77,2007.0,B4,L,1003.5
66,0,2007.0,F#4,L,1003.5
69,0,2007.0,A4,L,1003.5
81,0,2007.0,A5,R,1003.5
83,82,2007.125,B5,L,1003.5625
71,0,2007.25,B4,L,1003.625
85,85,2007.25,C#6,R,1003.625
73,80,2007.25,C#5,L,1003.625
83,0,2007.375,B5,L,1003.6875
74,76,2007.375,D5,L,1003.6875
86,78,2007.375,D6,R,1003.6875
88,84,2007.5,E6,R,1003.75
86,0,2007.5,D6,R,1003.75
86,78,2007.5,D6,R,1003.75
74,0,2007.5,D5,L,1003.75
85,0,2007.5,C#6,R,1003.75
76,74,2007.5625,E5,L,1003.78125
88,0,2007.75,E6,R,1003.875
90,84,2007.75,F#6,R,1003.875
76,0,2007.75,E5,L,1003.875
78,73,2007.75,F#5,L,1003.875
78,0,2007.9166666666667,F#5,L,1003.9583333333334
80,73,2007.9166666666667,G#5,L,1003.9583333333334
86,0,2008.0,D6,R,1004.0
90,0,2008.0,F#6,R,1004.0
73,0,2008.0,C#5,L,1004.0
80,0,2008.0,G#5,L,1004.0
92,83,2008.0,G#6,L,1004.0
90,84,2008.0,F#6,R,1004.0
92,0,2008.1666666666667,G#6,L,1004.0833333333334
81,67,2008.1666666666667,A5,L,1004.0833333333334
90,0,2008.1666666666667,F#6,R,1004.0833333333334
93,91,2008.1666666666667,A6,R,1004.0833333333334
76,66,2008.3333333333333,E5,L,1004.1666666666666
88,92,2008.3333333333333,E6,R,1004.1666666666666
81,0,2008.3333333333335,A5,L,1004.1666666666667
93,0,2008.3333333333335,A6,R,1004.1666666666667
76,0,2008.5,E5,L,1004.25
91,104,2008.5,G6,R,1004.25
88,0,2008.5,E6,R,1004.25
91,0,2009.0,G6,R,1004.5
77,68,2009.0,F5,L,1004.5
74,73,2009.0,D5,L,1004.5
77,0,2010.0,F5,L,1005.0
74,0,2010.0,D5,L,1005.0
89,102,2010.0,F6,R,1005.0
89,0,2011.5,F6,R,1005.75
88,29,2011.5,E6,R,1005.75
88,0,2012.0,E6,R,1006.0
91,52,2012.0,G6,R,1006.0
91,0,2012.4,G6,R,1006.2
89,40,2012.4,F6,R,1006.2
88,46,2012.8,E6,R,1006.4
89,0,2012.8000000000002,F6,R,1006.4000000000001
88,0,2013.2,E6,R,1006.6
91,59,2013.2,G6,R,1006.6
89,61,2013.6,F6,R,1006.8
91,0,2013.6000000000001,G6,R,1006.8000000000001
89,0,2014.0,F6,R,1007.0
88,59,2014.0,E6,R,1007.0
88,0,2014.4,E6,R,1007.2
86,57,2014.4,D6,R,1007.2
85,45,2014.8,C#6,R,1007.4
86,0,2014.8000000000002,D6,R,1007.4000000000001
85,0,2015.2,C#6,R,1007.6
84,53,2015.2,C6,R,1007.6
84,0,2015.4,C6,R,1007.7
83,52,2015.4,B5,R,1007.7
82,50,2015.8,A#5,R,1007.9
83,0,2015.8000000000002,B5,R,1007.9000000000001
82,0,2016.0,A#5,R,1008.0
82,50,2016.0,A#5,R,1008.0
82,0,2016.3333333333333,A#5,R,1008.1666666666666
81,54,2016.3333333333333,A5,R,1008.1666666666666
81,0,2016.6666666666665,A5,R,1008.3333333333333
79,55,2016.6666666666667,G5,R,1008.3333333333334
79,0,2017.0,G5,R,1008.5
78,47,2017.0,F#5,R,1008.5
78,0,2017.5,F#5,R,1008.75
77,46,2017.5,F5,R,1008.75
76,46,2017.75,E5,R,1008.875
76,0,2018.0,E5,R,1009.0
76,46,2018.0,E5,R,1009.0
77,0,2018.0,F5,R,1009.0
75,51,2018.0,D#5,R,1009.0
74,48,2018.5,D5,R,1009.25
75,0,2018.5,D#5,R,1009.25
74,0,2018.875,D5,R,1009.4375
77,46,2018.9375,F5,R,1009.46875
77,0,2019.0,F5,R,1009.5
77,46,2019.0,F5,R,1009.5
76,0,2019.0,E5,R,1009.5
77,0,2019.125,F5,R,1009.5625
75,54,2019.125,D#5,R,1009.5625
75,0,2019.375,D#5,R,1009.6875
74,55,2019.375,D5,R,1009.6875
74,0,2019.5,D5,R,1009.75
75,58,2019.625,D#5,R,1009.8125
75,0,2019.75,D#5,R,1009.875
77,63,2019.8125,F5,R,1009.90625
77,0,2020.0,F5,R,1010.0
79,67,2020.0,G5,R,1010.0
79,0,2020.2,G5,R,1010.1
81,61,2020.2,A5,R,1010.1
82,72,2020.4,A#5,R,1010.2
81,0,2020.4,A5,R,1010.2
84,63,2020.6,C6,R,1010.3
82,0,2020.6000000000001,A#5,R,1010.3000000000001
84,0,2020.8,C6,R,1010.4
82,70,2020.8,A#5,R,1010.4
82,0,2021.0,A#5,R,1010.5
81,60,2021.0,A5,R,1010.5
81,0,2021.1666666666667,A5,R,1010.5833333333334
82,67,2021.1666666666667,A#5,R,1010.5833333333334
84,70,2021.3333333333333,C6,R,1010.6666666666666
82,0,2021.3333333333335,A#5,R,1010.6666666666667
84,0,2021.5,C6,R,1010.75
86,74,2021.5,D6,R,1010.75
87,70,2021.75,D#6,R,1010.875
86,0,2021.75,D6,R,1010.875
87,0,2021.875,D#6,R,1010.9375
89,64,2021.875,F6,R,1010.9375
89,0,2022.0,F6,R,1011.0
87,74,2022.0,D#6,R,1011.0
87,0,2022.25,D#6,R,1011.125
86,71,2022.25,D6,R,1011.125
86,0,2022.375,D6,R,1011.1875
87,77,2022.375,D#6,R,1011.1875
87,0,2022.5,D#6,R,1011.25
91,72,2022.5,G6,R,1011.25
91,0,2022.75,G6,R,1011.375
89,72,2022.75,F6,R,1011.375
89,0,2022.875,F6,R,1011.4375
87,75,2022.875,D#6,R,1011.4375
87,0,2023.0,D#6,R,1011.5
86,68,2023.0,D6,R,1011.5
86,0,2023.142857142857,D6,R,1011.5714285714286
84,70,2023.142857142857,C6,R,1011.5714285714286
84,0,2023.2857142857142,C6,R,1011.6428571428571
82,71,2023.357142857143,A#5,R,1011.6785714285714
82,0,2023.5714285714287,A#5,R,1011.7857142857143
86,67,2023.5714285714287,D6,R,1011.7857142857143
86,0,2023.7142857142858,D6,R,1011.8571428571429
84,68,2023.7142857142858,C6,R,1011.8571428571429
82,74,2023.9285714285713,A#5,R,1011.9642857142857
84,0,2023.9285714285716,C6,R,1011.9642857142858
82,74,2024.0,A#5,R,1012.0
82,0,2024.0,A#5,R,1012.0
82,0,2024.125,A#5,R,1012.0625
81,69,2024.125,A5,R,1012.0625
81,0,2024.25,A5,R,1012.125
79,64,2024.25,G5,R,1012.125
79,0,2024.5,G5,R,1012.25
77,69,2024.5416666666667,F5,R,1012.2708333333334
77,0,2024.6666666666667,F5,R,1012.3333333333334
75,76,2024.6666666666667,D#5,R,1012.3333333333334
75,0,2024.75,D#5,R,1012.375
75,76,2024.75,D#5,R,1012.375
75,0,2025.0,D#5,R,1012.5
74,69,2025.0,D5,R,1012.5
74,0,2025.5,D5,R,1012.75
69,59,2025.5,A4,R,1012.75
69,0,2026.0,A4,R,1013.0
70,59,2026.0,A#4,R,1013.0
74,65,2026.25,D5,R,1013.125
70,0,2026.25,A#4,R,1013.125
67,63,2026.5,G4,R,1013.25
74,0,2026.5,D5,R,1013.25
69,61,2027.0,A4,R,1013.5
67,0,2027.0,G4,R,1013.5
69,0,2027.125,A4,R,1013.5625
70,67,2027.1875,A#4,R,1013.59375
70,0,2027.25,A#4,R,1013.625
70,67,2027.25,A#4,R,1013.625
72,69,2027.375,C5,R,1013.6875
72,69,2027.5,C5,R,1013.75
72,0,2027.5,C5,R,1013.75
74,77,2027.5,D5,R,1013.75
70,0,2027.5,A#4,R,1013.75
75,74,2027.75,D#5,R,1013.875
74,0,2027.75,D5,R,1013.875
75,0,2027.875,D#5,R,1013.9375
77,72,2027.875,F5,R,1013.9375
77,0,2028.0,F5,R,1014.0
72,0,2028.0,C5,R,1014.0
77,72,2028.0,F5,R,1014.0
79,72,2028.1666666666667,G5,R,1014.0833333333334
77,0,2028.1666666666667,F5,R,1014.0833333333334
79,0,2028.6666666666667,G5,R,1014.3333333333334
77,71,2028.6666666666667,F5,R,1014.3333333333334
77,0,2029.0,F5,R,1014.5
76,65,2029.0,E5,R,1014.5
76,0,2029.3333333333333,E5,R,1014.6666666666666
79,67,2029.3333333333333,G5,R,1014.6666666666666
79,0,2030.0,G5,R,1015.0
77,69,2030.0,F5,R,1015.0
46,51,2031.0,A#2,R,1015.5
76,60,2032.0,E5,L,1016.0
46,51,2032.0,A#2,R,1016.0
77,0,2032.0,F5,R,1016.0
46,0,2032.0,A#2,R,1016.0
74,70,2032.5,D5,L,1016.25
76,0,2032.5,E5,L,1016.25
46,51,2033.0,A#2,R,1016.5
46,0,2033.0,A#2,R,1016.5
72,70,2033.0,C5,L,1016.5
74,0,2033.0,D5,L,1016.5
70,69,2033.3333333333333,A#4,R,1016.6666666666666
46,0,2033.3333333333333,A#2,R,1016.6666666666666
70,0,2033.6666666666665,A#4,R,1016.8333333333333
69,65,2033.6666666666667,A4,R,1016.8333333333334
48,47,2034.0,C3,L,1017.0
72,0,2034.0,C5,L,1017.0
69,65,2034.0,A4,R,1017.0
67,65,2034.0,G4,R,1017.0
69,0,2034.0,A4,R,1017.0
69,0,2034.5,A4,R,1017.25
65,58,2034.5,F4,R,1017.25
67,0,2034.5,G4,R,1017.25
60,55,2035.0,C4,R,1017.5
65,0,2035.0,F4,R,1017.5
36,50,2035.0,C2,L,1017.5
65,54,2035.25,F4,R,1017.625
60,0,2035.25,C4,R,1017.625
36,50,2035.5,C2,L,1017.75
36,0,2035.5,C2,L,1017.75
58,56,2035.5,A#3,L,1017.75
64,64,2035.75,E4,R,1017.875
64,0,2036.0,E4,R,1018.0
65,0,2036.0,F4,R,1018.0
67,62,2036.0,G4,R,1018.0
64,64,2036.0,E4,R,1018.0
58,0,2036.0,A#3,L,1018.0
36,0,2036.0,C2,L,1018.0
48,0,2036.0,C3,L,1018.0
58,56,2036.0,A#3,L,1018.0
57,47,2036.5,A3,R,1018.25
67,0,2036.5,G4,R,1018.25
65,56,2036.5,F4,R,1018.25
48,42,2036.5,C3,L,1018.25
41,45,2036.5,F2,L,1018.25
64,0,2036.5,E4,R,1018.25
58,0,2036.5,A#3,L,1018.25
65,0,2037.0,F4,R,1018.5
69,59,2037.0,A4,R,1018.5
65,54,2037.5,F4,R,1018.75
69,0,2037.5,A4,R,1018.75
57,0,2038.0,A3,R,1019.0
62,55,2038.0,D4,R,1019.0
65,0,2038.0,F4,R,1019.0
41,0,2038.0,F2,L,1019.0
48,0,2038.0,C3,L,1019.0
36,49,2038.0,C2,L,1019.0
48,41,2038.0,C3,L,1019.0
60,59,2038.25,C4,R,1019.125
62,0,2038.25,D4,R,1019.125
60,0,2038.5,C4,R,1019.25
65,58,2038.625,F4,R,1019.3125
65,0,2039.0,F4,R,1019.5
58,57,2039.0,A#3,L,1019.5
64,65,2039.0,E4,R,1019.5
67,64,2039.5,G4,R,1019.75
64,0,2039.5,E4,R,1019.75
57,46,2039.75,A3,R,1019.875
65,55,2039.75,F4,R,1019.875
67,0,2039.75,G4,R,1019.875
65,55,2040.0,F4,R,1020.0
58,0,2040.0,A#3,L,1020.0
36,0,2040.0,C2,L,1020.0
57,46,2040.0,A3,R,1020.0
48,0,2040.0,C3,L,1020.0
57,0,2040.0,A3,R,1020.0
65,0,2040.0,F4,R,1020.0
41,46,2040.0,F2,L,1020.0
48,46,2040.0,C3,L,1020.0
69,63,2040.3333333333333,A4,R,1020.1666666666666
57,0,2040.3333333333333,A3,R,1020.1666666666666
65,0,2040.3333333333333,F4,R,1020.1666666666666
69,0,2040.6666666666665,A4,R,1020.3333333333333
65,50,2040.6666666666667,F4,R,1020.3333333333334
62,40,2041.0,D4,R,1020.5
65,0,2041.0,F4,R,1020.5
41,0,2041.0,F2,L,1020.5
48,0,2041.0,C3,L,1020.5
36,45,2041.5,C2,L,1020.75
72,58,2041.5,C5,R,1020.75
62,0,2041.75,D4,R,1020.875
77,57,2041.75,F5,R,1020.875
36,0,2042.0,C2,L,1021.0
72,0,2042.0,C5,R,1021.0
77,57,2042.0,F5,R,1021.0
36,45,2042.0,C2,L,1021.0
77,0,2042.0,F5,R,1021.0
41,45,2042.0,F2,R,1021.0
40,58,2042.5,E2,L,1021.25
36,0,2042.5,C2,L,1021.25
76,55,2042.5,E5,R,1021.25
77,0,2042.5,F5,R,1021.25
41,0,2042.5,F2,R,1021.25
43,67,2042.75,G2,L,1021.375
79,63,2042.75,G5,R,1021.375
43,67,2043.0,G2,L,1021.5
76,0,2043.0,E5,R,1021.5
41,59,2043.0,F2,L,1021.5
40,0,2043.0,E2,L,1021.5
79,0,2043.0,G5,R,1021.5
79,63,2043.0,G5,R,1021.5
43,0,2043.0,G2,L,1021.5
77,62,2043.0,F5,R,1021.5
77,0,2043.5,F5,R,1021.75
81,58,2043.5,A5,R,1021.75
41,0,2043.5,F2,L,1021.75
45,55,2043.5,A2,L,1021.75
77,51,2044.0,F5,R,1022.0
43,0,2044.0,G2,L,1022.0
41,52,2044.0,F2,L,1022.0
45,0,2044.0,A2,L,1022.0
81,0,2044.0,A5,R,1022.0
79,0,2044.0,G5,R,1022.0
38,54,2044.25,D2,L,1022.125
41,0,2044.5,F2,L,1022.25
36,51,2044.5,C2,L,1022.25
77,0,2044.5,F5,R,1022.25
74,64,2044.5,D5,R,1022.25
74,0,2045.0,D5,R,1022.5
72,62,2045.0,C5,R,1022.5
38,0,2045.0,D2,L,1022.5
41,59,2045.0,F2,L,1022.5
77,63,2045.25,F5,R,1022.625
72,0,2045.25,C5,R,1022.625
77,0,2045.5,F5,R,1022.75
41,0,2045.5,F2,L,1022.75
76,64,2045.5,E5,R,1022.75
40,64,2045.5,E2,L,1022.75
76,0,2046.0,E5,R,1023.0
36,0,2046.0,C2,L,1023.0
79,66,2046.0,G5,R,1023.0
43,60,2046.0,G2,L,1023.0
40,0,2046.0,E2,L,1023.0
43,0,2046.3333333333333,G2,L,1023.1666666666666
41,61,2046.3333333333333,F2,L,1023.1666666666666
77,69,2046.3333333333333,F5,R,1023.1666666666666
79,0,2046.3333333333333,G5,R,1023.1666666666666
41,0,2046.6666666666665,F2,L,1023.3333333333333
77,0,2046.6666666666665,F5,R,1023.3333333333333
45,62,2046.6666666666667,A2,L,1023.3333333333334
81,73,2046.6666666666667,A5,R,1023.3333333333334
43,72,2047.0,G2,L,1023.5
45,0,2047.0,A2,L,1023.5
81,0,2047.0,A5,R,1023.5
79,86,2047.0,G5,R,1023.5
43,0,2047.5,G2,L,1023.75
82,66,2047.5,A#5,R,1023.75
46,66,2047.5,A#2,L,1023.75
79,0,2047.5,G5,R,1023.75
80,68,2047.75,G#5,R,1023.875
44,64,2047.75,G#2,L,1023.875
82,0,2048.0,A#5,R,1024.0
46,0,2048.0,A#2,L,1024.0
80,0,2048.0,G#5,R,1024.0
83,73,2048.0,B5,R,1024.0
44,0,2048.0,G#2,L,1024.0
44,64,2048.0,G#2,L,1024.0
80,68,2048.0,G#5,R,1024.0
47,62,2048.25,B2,L,1024.125
44,0,2048.25,G#2,L,1024.125
47,0,2048.5,B2,L,1024.25
45,73,2048.5,A2,L,1024.25
83,0,2048.5,B5,R,1024.25
81,90,2048.5,A5,R,1024.25
84,75,2049.0,C6,R,1024.5
80,0,2049.0,G#5,R,1024.5
45,0,2049.0,A2,L,1024.5
48,63,2049.0,C3,L,1024.5
81,0,2049.0,A5,R,1024.5
47,63,2049.25,B2,R,1024.625
47,63,2049.375,B2,R,1024.6875
47,0,2049.375,B2,R,1024.6875
83,80,2049.375,B5,R,1024.6875
83,0,2049.5,B5,R,1024.75
47,0,2049.5,B2,R,1024.75
83,80,2049.5,B5,R,1024.75
47,63,2049.5,B2,R,1024.75
83,0,2049.75,B5,R,1024.875
48,0,2049.75,C3,L,1024.875
50,72,2049.75,D3,L,1024.875
86,82,2049.75,D6,R,1024.875
47,0,2049.75,B2,R,1024.875
36,81,2050.0,C2,L,1025.0
50,0,2050.0,D3,L,1025.0
84,0,2050.0,C6,R,1025.0
86,0,2050.0,D6,R,1025.0
86,82,2050.0,D6,R,1025.0
86,0,2050.1666666666665,D6,R,1025.0833333333333
84,97,2050.1666666666665,C6,R,1025.0833333333333
84,0,2050.333333333333,C6,R,1025.1666666666665
84,97,2050.3333333333335,C6,R,1025.1666666666667
89,24,2050.3333333333335,F6,R,1025.1666666666667
39,70,2050.5,D#2,L,1025.25
36,0,2050.5,C2,L,1025.25
89,0,2050.5,F6,R,1025.25
87,72,2050.5,D#6,R,1025.25
84,0,2050.5,C6,R,1025.25
39,0,2051.0,D#2,L,1025.5
87,0,2051.0,D#6,R,1025.5
85,72,2051.0,C#6,R,1025.5
37,71,2051.0,C#2,L,1025.5
37,0,2051.3333333333335,C#2,L,1025.6666666666667
88,81,2051.3333333333335,E6,R,1025.6666666666667
85,0,2051.3333333333335,C#6,R,1025.6666666666667
40,71,2051.3333333333335,E2,L,1025.6666666666667
38,79,2051.6666666666665,D2,L,1025.8333333333333
86,96,2051.6666666666665,D6,R,1025.8333333333333
88,0,2051.666666666667,E6,R,1025.8333333333335
40,0,2051.666666666667,E2,L,1025.8333333333335
41,69,2052.0,F2,L,1026.0
86,0,2052.0,D6,R,1026.0
89,79,2052.0,F6,R,1026.0
38,0,2052.0,D2,L,1026.0
89,0,2052.5,F6,R,1026.25
41,0,2052.5,F2,L,1026.25
39,68,2052.5,D#2,L,1026.25
87,79,2052.5,D#6,R,1026.25
39,0,2052.75,D#2,L,1026.375
87,0,2052.75,D#6,R,1026.375
90,85,2052.75,F#6,R,1026.375
42,73,2052.75,F#2,L,1026.375
42,0,2053.0,F#2,L,1026.5
42,73,2053.0,F#2,L,1026.5
90,85,2053.0,F#6,R,1026.5
90,0,2053.0,F#6,R,1026.5
40,68,2053.125,E2,L,1026.5625
42,0,2053.125,F#2,L,1026.5625
90,0,2053.125,F#6,R,1026.5625
88,74,2053.125,E6,R,1026.5625
45,78,2053.5,A2,L,1026.75
88,0,2053.5,E6,R,1026.75
40,0,2053.5,E2,L,1026.75
76,73,2053.5625,E5,R,1026.78125
88,92,2053.5625,E6,R,1026.78125
88,0,2053.75,E6,R,1026.875
76,0,2053.75,E5,R,1026.875
44,75,2054.0,G#2,L,1027.0
45,0,2054.0,A2,L,1027.0
88,93,2054.3125,E6,R,1027.15625
76,84,2054.3125,E5,R,1027.15625
44,0,2054.3333333333335,G#2,L,1027.1666666666667
47,82,2054.3333333333335,B2,L,1027.1666666666667
88,0,2054.5,E6,R,1027.25
76,0,2054.5,E5,R,1027.25
45,78,2054.6666666666665,A2,L,1027.3333333333333
47,0,2054.666666666667,B2,L,1027.3333333333335
45,0,2055.0,A2,L,1027.5
49,82,2055.0,C#3,L,1027.5
88,95,2055.0625,E6,R,1027.53125
76,91,2055.0625,E5,R,1027.53125
88,95,2055.25,E6,R,1027.625
76,91,2055.25,E5,R,1027.625
88,0,2055.25,E6,R,1027.625
76,0,2055.25,E5,R,1027.625
45,68,2055.5,A2,L,1027.75
49,0,2055.5,C#3,L,1027.75
88,0,2055.75,E6,R,1027.875
76,0,2055.75,E5,R,1027.875
76,82,2055.875,E5,R,1027.9375
88,90,2055.875,E6,R,1027.9375
88,0,2056.0,E6,R,1028.0
45,0,2056.0,A2,L,1028.0
76,0,2056.0,E5,R,1028.0
42,75,2056.0,F#2,L,1028.0
40,76,2056.5,E2,L,1028.25
42,0,2056.5,F#2,L,1028.25
88,84,2056.6875,E6,R,1028.34375
76,81,2056.6875,E5,R,1028.34375
45,71,2056.75,A2,L,1028.375
76,0,2056.75,E5,R,1028.375
88,0,2056.75,E6,R,1028.375
45,0,2057.0,A2,L,1028.5
45,71,2057.0,A2,L,1028.5
44,78,2057.0,G#2,L,1028.5
40,0,2057.0,E2,L,1028.5
88,96,2057.4375,E6,R,1028.71875
76,84,2057.4375,E5,R,1028.71875
44,0,2057.5,G#2,L,1028.75
47,78,2057.5,B2,L,1028.75
76,0,2057.5,E5,R,1028.75
88,0,2057.5,E6,R,1028.75
88,96,2057.5,E6,R,1028.75
45,0,2057.75,A2,L,1028.875
45,78,2057.75,A2,L,1028.875
45,0,2058.0,A2,L,1029.0
45,78,2058.0,A2,L,1029.0
88,0,2058.0,E6,R,1029.0
47,0,2058.0,B2,L,1029.0
49,82,2058.0,C#3,L,1029.0
76,76,2058.1875,E5,R,1029.09375
88,92,2058.1875,E6,R,1029.09375
76,76,2058.25,E5,R,1029.125
88,0,2058.25,E6,R,1029.125
76,0,2058.25,E5,R,1029.125
88,92,2058.25,E6,R,1029.125
49,0,2058.5,C#3,L,1029.25
45,77,2058.5,A2,L,1029.25
42,81,2059.0,F#2,L,1029.5
45,0,2059.0,A2,L,1029.5
45,0,2059.0,A2,L,1029.5
76,0,2059.0,E5,R,1029.5
90,83,2059.0,F#6,R,1029.5
88,0,2059.0,E6,R,1029.5
90,0,2059.3333333333335,F#6,R,1029.6666666666667
40,71,2059.3333333333335,E2,L,1029.6666666666667
88,84,2059.3333333333335,E6,R,1029.6666666666667
42,0,2059.3333333333335,F#2,L,1029.6666666666667
90,85,2059.6666666666665,F#6,R,1029.8333333333333
42,81,2059.6666666666665,F#2,L,1029.8333333333333
88,0,2059.666666666667,E6,R,1029.8333333333335
40,0,2059.666666666667,E2,L,1029.8333333333335
88,83,2060.0,E6,L,1030.0
42,0,2060.0,F#2,L,1030.0
90,0,2060.0,F#6,R,1030.0
40,76,2060.25,E2,L,1030.125
85,82,2060.5,C#6,R,1030.25
37,75,2060.5,C#2,L,1030.25
40,0,2060.5,E2,L,1030.25
88,0,2061.0,E6,L,1030.5
83,75,2061.0,B5,R,1030.5
35,69,2061.0,B1,L,1030.5
37,0,2061.0,C#2,L,1030.5
85,0,2061.0,C#6,R,1030.5
37,68,2061.25,C#2,L,1030.625
85,78,2061.25,C#6,R,1030.625
85,78,2061.5,C#6,R,1030.75
35,0,2061.5,B1,L,1030.75
85,0,2061.5,C#6,R,1030.75
33,81,2061.5,A1,L,1030.75
81,78,2061.625,A5,R,1030.8125
85,0,2061.625,C#6,R,1030.8125
78,81,2062.0,F#5,R,1031.0
81,0,2062.0,A5,R,1031.0
42,82,2062.0,F#2,L,1031.0
83,0,2062.0,B5,R,1031.0
33,0,2062.0,A1,L,1031.0
37,0,2062.0,C#2,L,1031.0
76,77,2062.5,E5,R,1031.25
78,0,2062.5,F#5,R,1031.25
42,0,2062.5,F#2,L,1031.25
40,75,2062.5,E2,L,1031.25
78,83,2062.75,F#5,R,1031.375
76,0,2062.75,E5,R,1031.375
40,0,2062.75,E2,L,1031.375
42,78,2062.75,F#2,L,1031.375
78,0,2063.0,F#5,R,1031.5
42,0,2063.0,F#2,L,1031.5
76,68,2063.125,E5,R,1031.5625
40,75,2063.125,E2,L,1031.5625
40,0,2063.5,E2,L,1031.75
40,61,2063.5,E2,L,1031.75
52,72,2063.5,E3,L,1031.75
76,0,2063.5,E5,R,1031.75
68,65,2063.5,G#4,R,1031.75
80,88,2063.5,G#5,R,1031.75
80,0,2063.6666666666665,G#5,R,1031.8333333333333
68,0,2063.6666666666665,G#4,R,1031.8333333333333
68,59,2063.8333333333335,G#4,R,1031.9166666666667
80,87,2063.8333333333335,G#5,R,1031.9166666666667
40,71,2063.875,E2,L,1031.9375
40,0,2063.875,E2,L,1031.9375
52,74,2063.875,E3,L,1031.9375
52,0,2063.875,E3,L,1031.9375
40,0,2064.0,E2,L,1032.0
68,0,2064.0,G#4,R,1032.0
80,0,2064.0,G#5,R,1032.0
52,0,2064.0,E3,L,1032.0
68,69,2064.25,G#4,R,1032.125
80,86,2064.25,G#5,R,1032.125
40,70,2064.25,E2,L,1032.125
52,70,2064.25,E3,L,1032.125
80,0,2064.5,G#5,R,1032.25
40,0,2064.5,E2,L,1032.25
52,0,2064.5,E3,L,1032.25
68,0,2064.5,G#4,R,1032.25
45,64,2064.5625,A2,L,1032.28125
33,94,2064.5625,A1,L,1032.28125
81,96,2064.5625,A5,R,1032.28125
69,80,2064.5625,A4,R,1032.28125
69,80,2064.75,A4,R,1032.375
81,0,2064.75,A5,R,1032.375
45,64,2064.75,A2,L,1032.375
81,96,2064.75,A5,R,1032.375
33,0,2064.75,A1,L,1032.375
45,0,2064.75,A2,L,1032.375
33,94,2064.75,A1,L,1032.375
69,0,2064.75,A4,R,1032.375
69,0,2064.9375,A4,R,1032.46875
78,82,2064.9375,F#5,R,1032.46875
81,0,2064.9375,A5,R,1032.46875
45,0,2064.9375,A2,L,1032.46875
66,75,2064.9375,F#4,L,1032.46875
33,0,2064.9375,A1,L,1032.46875
78,0,2065.0,F#5,R,1032.5
66,0,2065.0,F#4,L,1032.5
54,69,2065.3125,F#3,R,1032.65625
42,80,2065.3125,F#2,L,1032.65625
42,80,2065.5,F#2,L,1032.75
54,69,2065.5,F#3,R,1032.75
54,0,2065.5,F#3,R,1032.75
42,0,2065.5,F#2,L,1032.75
66,74,2065.6875,F#4,L,1032.84375
54,0,2065.6875,F#3,R,1032.84375
42,0,2065.6875,F#2,L,1032.84375
78,87,2065.6875,F#5,R,1032.84375
78,0,2065.75,F#5,R,1032.875
66,0,2065.75,F#4,L,1032.875
52,73,2066.125,E3,R,1033.0625
40,72,2066.125,E2,L,1033.0625
40,0,2066.375,E2,L,1033.1875
64,60,2066.4375,E4,L,1033.21875
64,0,2066.5,E4,L,1033.25
52,0,2066.5,E3,R,1033.25
76,77,2066.5,E5,R,1033.25
64,60,2066.5,E4,L,1033.25
76,0,2066.875,E5,R,1033.4375
49,68,2066.875,C#3,R,1033.4375
64,0,2066.875,E4,L,1033.4375
37,77,2066.875,C#2,L,1033.4375
49,0,2067.0,C#3,R,1033.5
37,0,2067.0,C#2,L,1033.5
61,65,2067.25,C#4,L,1033.625
73,79,2067.25,C#5,R,1033.625
73,0,2067.5,C#5,R,1033.75
61,0,2067.5,C#4,L,1033.75
45,69,2067.625,A2,R,1033.8125
33,82,2067.625,A1,L,1033.8125
33,0,2068.0,A1,L,1034.0
57,67,2068.0,A3,L,1034.0
45,0,2068.0,A2,R,1034.0
69,73,2068.0,A4,R,1034.0
69,0,2068.375,A4,R,1034.1875
42,78,2068.375,F#2,R,1034.1875
30,80,2068.375,F#1,L,1034.1875
57,0,2068.375,A3,L,1034.1875
42,0,2068.5,F#2,R,1034.25
30,0,2068.5,F#1,L,1034.25
66,76,2068.75,F#4,R,1034.375
54,61,2068.75,F#3,L,1034.375
66,0,2069.0,F#4,R,1034.5
54,0,2069.0,F#3,L,1034.5
40,72,2069.125,E2,R,1034.5625
28,79,2069.125,E1,L,1034.5625
52,55,2069.5,E3,L,1034.75
40,0,2069.5,E2,R,1034.75
28,0,2069.5,E1,L,1034.75
64,75,2069.5,E4,R,1034.75
64,0,2069.75,E4,R,1034.875
52,0,2069.75,E3,L,1034.875
40,73,2069.8125,E2,R,1034.90625
28,82,2069.8125,E1,L,1034.90625
40,0,2070.0,E2,R,1035.0
28,0,2070.0,E1,L,1035.0
59,64,2070.1875,B3,L,1035.09375
68,84,2070.1875,G#4,R,1035.09375
68,84,2070.25,G#4,R,1035.125
68,0,2070.25,G#4,R,1035.125
59,0,2070.25,B3,L,1035.125
59,64,2070.25,B3,L,1035.125
62,28,2070.25,D4,R,1035.125
59,0,2070.5,B3,L,1035.25
62,0,2070.5,D4,R,1035.25
57,73,2070.625,A3,R,1035.3125
33,91,2070.625,A1,L,1035.3125
69,96,2070.625,A4,R,1035.3125
45,78,2070.625,A2,L,1035.3125
61,61,2070.625,C#4,R,1035.3125
61,0,2071.0,C#4,R,1035.5
68,0,2071.0,G#4,R,1035.5
57,0,2071.0,A3,R,1035.5
69,0,2071.0,A4,R,1035.5
45,0,2071.0,A2,L,1035.5
33,0,2071.0,A1,L,1035.5
52,57,2071.6875,E3,L,1035.84375
49,62,2071.6875,C#3,L,1035.84375
45,66,2071.6875,A2,L,1035.84375
57,62,2071.6875,A3,L,1035.84375
81,69,2071.75,A5,R,1035.875
69,63,2071.75,A4,R,1035.875
57,62,2071.75,A3,L,1035.875
52,57,2071.75,E3,L,1035.875
49,62,2071.75,C#3,L,1035.875
45,66,2071.75,A2,L,1035.875
57,0,2071.75,A3,L,1035.875
52,0,2071.75,E3,L,1035.875
49,0,2071.75,C#3,L,1035.875
45,0,2071.75,A2,L,1035.875
52,0,2072.0,E3,L,1036.0
49,0,2072.0,C#3,L,1036.0
45,0,2072.0,A2,L,1036.0
81,0,2072.0,A5,R,1036.0
69,0,2072.0,A4,R,1036.0
57,0,2072.0,A3,L,1036.0
57,76,2072.125,A3,L,1036.0625
52,74,2072.125,E3,L,1036.0625
73,72,2072.125,C#5,R,1036.0625
45,80,2072.125,A2,L,1036.0625
76,75,2072.125,E5,R,1036.0625
81,90,2072.125,A5,R,1036.0625
49,73,2072.125,C#3,L,1036.0625
69,77,2072.125,A4,R,1036.0625
45,0,2072.5,A2,L,1036.25
49,0,2072.5,C#3,L,1036.25
69,0,2072.5,A4,R,1036.25
57,0,2072.5,A3,L,1036.25
76,0,2072.5,E5,R,1036.25
73,0,2072.5,C#5,R,1036.25
52,0,2072.5,E3,L,1036.25
81,0,2072.5,A5,R,1036.25
44,72,2073.1875,G#2,L,1036.59375
52,61,2073.1875,E3,L,1036.59375
83,85,2073.1875,B5,R,1036.59375
71,57,2073.1875,B4,R,1036.59375
47,44,2073.1875,B2,L,1036.59375
40,72,2073.1875,E2,L,1036.59375
71,57,2073.25,B4,R,1036.625
71,0,2073.25,B4,R,1036.625
47,44,2073.25,B2,L,1036.625
40,72,2073.25,E2,L,1036.625
52,0,2073.25,E3,L,1036.625
44,0,2073.25,G#2,L,1036.625
83,0,2073.25,B5,R,1036.625
83,85,2073.25,B5,R,1036.625
47,0,2073.25,B2,L,1036.625
40,0,2073.25,E2,L,1036.625
83,0,2073.5,B5,R,1036.75
81,42,2073.59375,A5,R,1036.796875
73,91,2073.59375,C#5,R,1036.796875
76,66,2073.59375,E5,R,1036.796875
85,99,2073.59375,C#6,R,1036.796875
73,0,2073.625,C#5,R,1036.8125
81,0,2073.625,A5,R,1036.8125
33,94,2073.625,A1,L,1036.8125
76,0,2073.625,E5,R,1036.8125
37,83,2073.625,C#2,L,1036.8125
40,69,2073.625,E2,L,1036.8125
45,74,2073.625,A2,L,1036.8125
85,99,2073.625,C#6,R,1036.8125
73,91,2073.625,C#5,R,1036.8125
76,66,2073.625,E5,R,1036.8125
81,42,2073.625,A5,R,1036.8125
85,0,2073.625,C#6,R,1036.8125
37,0,2074.0,C#2,L,1037.0
33,0,2074.0,A1,L,1037.0
85,0,2074.0,C#6,R,1037.0
45,0,2074.0,A2,L,1037.0
71,0,2074.0,B4,R,1037.0
81,0,2074.0,A5,R,1037.0
76,0,2074.0,E5,R,1037.0
73,0,2074.0,C#5,R,1037.0
40,0,2074.0,E2,L,1037.0
40,0,2074.0,E2,L,1037.0
47,0,2074.0,B2,L,1037.0
73,66,2074.75,C#5,R,1037.375
81,40,2074.75,A5,R,1037.375
85,77,2074.75,C#6,R,1037.375
45,64,2074.75,A2,L,1037.375
49,66,2074.75,C#3,L,1037.375
52,61,2074.75,E3,L,1037.375
57,56,2074.75,A3,L,1037.375
45,77,2075.0,A2,L,1037.5
49,69,2075.0,C#3,L,1037.5
52,74,2075.0,E3,L,1037.5
45,0,2075.0,A2,L,1037.5
49,0,2075.0,C#3,L,1037.5
57,81,2075.0,A3,L,1037.5
57,0,2075.0,A3,L,1037.5
73,0,2075.0,C#5,R,1037.5
81,0,2075.0,A5,R,1037.5
52,0,2075.0,E3,L,1037.5
85,0,2075.0,C#6,R,1037.5
73,93,2075.125,C#5,R,1037.5625
85,99,2075.125,C#6,R,1037.5625
81,73,2075.125,A5,R,1037.5625
85,0,2075.5,C#6,R,1037.75
73,0,2075.5,C#5,R,1037.75
81,0,2075.5,A5,R,1037.75
57,0,2076.0,A3,L,1038.0
45,0,2076.0,A2,L,1038.0
52,0,2076.0,E3,L,1038.0
49,0,2076.0,C#3,L,1038.0
74,79,2076.1875,D5,R,1038.09375
47,52,2076.1875,B2,L,1038.09375
52,52,2076.1875,E3,L,1038.09375
40,68,2076.1875,E2,L,1038.09375
86,90,2076.1875,D6,R,1038.09375
44,65,2076.1875,G#2,L,1038.09375
74,79,2076.25,D5,R,1038.125
74,0,2076.25,D5,R,1038.125
86,0,2076.25,D6,R,1038.125
86,90,2076.25,D6,R,1038.125
47,0,2076.25,B2,L,1038.125
40,68,2076.25,E2,L,1038.125
40,0,2076.25,E2,L,1038.125
47,52,2076.25,B2,L,1038.125
52,0,2076.25,E3,L,1038.125
44,0,2076.25,G#2,L,1038.125
86,0,2076.5,D6,R,1038.25
33,82,2076.5833333333335,A1,L,1038.2916666666667
88,93,2076.625,E6,R,1038.3125
85,73,2076.625,C#6,R,1038.3125
76,79,2076.625,E5,R,1038.3125
33,0,2076.8333333333335,A1,L,1038.4166666666667
37,69,2076.8333333333335,C#2,L,1038.4166666666667
85,0,2076.875,C#6,R,1038.4375
85,22,2076.875,C#6,R,1038.4375
76,0,2076.875,E5,R,1038.4375
88,0,2076.875,E6,R,1038.4375
40,69,2076.9166666666665,E2,L,1038.4583333333333
37,69,2076.9166666666665,C#2,L,1038.4583333333333
37,0,2076.916666666667,C#2,L,1038.4583333333335
40,0,2077.0,E2,L,1038.5
85,0,2077.0,C#6,R,1038.5
74,0,2077.0,D5,R,1038.5
47,0,2077.0,B2,L,1038.5
40,0,2077.0,E2,L,1038.5
37,69,2077.0,C#2,L,1038.5
40,69,2077.0,E2,L,1038.5
37,0,2077.0,C#2,L,1038.5
43,68,2077.1875,G2,R,1038.59375
43,0,2077.25,G2,R,1038.625
43,68,2077.25,G2,R,1038.625
43,0,2077.375,G2,R,1038.6875
42,74,2077.375,F#2,R,1038.6875
42,0,2077.5,F#2,R,1038.75
40,63,2077.5,E2,R,1038.75
38,62,2077.625,D2,R,1038.8125
40,0,2077.625,E2,R,1038.8125
38,0,2077.75,D2,R,1038.875
38,62,2077.75,D2,R,1038.875
37,72,2077.8125,C#2,R,1038.90625
38,0,2077.8125,D2,R,1038.90625
37,0,2078.0,C#2,L,1039.0
37,0,2078.0,C#2,R,1039.0
40,0,2078.0,E2,L,1039.0
45,69,2078.125,A2,R,1039.0625
49,67,2078.25,C#3,R,1039.125
49,0,2078.5,C#3,R,1039.25
52,67,2078.5,E3,R,1039.25
45,0,2078.5,A2,R,1039.25
55,75,2078.625,G3,R,1039.3125
52,0,2078.75,E3,R,1039.375
54,76,2078.75,F#3,R,1039.375
52,66,2079.0,E3,R,1039.5
54,0,2079.0,F#3,R,1039.5
55,0,2079.0,G3,R,1039.5
52,0,2079.125,E3,R,1039.5625
50,69,2079.125,D3,R,1039.5625
50,0,2079.25,D3,R,1039.625
49,73,2079.25,C#3,R,1039.625
57,62,2079.5,A3,R,1039.75
49,0,2079.75,C#3,R,1039.875
61,52,2079.75,C#4,R,1039.875
61,0,2079.875,C#4,R,1039.9375
64,64,2079.9375,E4,R,1039.96875
69,68,2080.0,A4,R,1040.0
57,0,2080.0,A3,R,1040.0
64,0,2080.0,E4,R,1040.0
69,0,2080.125,A4,R,1040.0625
73,71,2080.125,C#5,R,1040.0625
67,68,2080.125,G4,L,1040.0625
76,61,2080.25,E5,R,1040.125
67,0,2080.25,G4,L,1040.125
73,0,2080.25,C#5,R,1040.125
66,71,2080.25,F#4,L,1040.125
64,66,2080.4166666666665,E4,L,1040.2083333333333
66,0,2080.4166666666665,F#4,L,1040.2083333333333
64,0,2080.5,E4,L,1040.25
76,0,2080.5,E5,R,1040.25
79,79,2080.5,G5,R,1040.25
62,73,2080.625,D4,L,1040.3125
79,0,2080.625,G5,R,1040.3125
78,83,2080.625,F#5,R,1040.3125
61,74,2080.75,C#4,L,1040.375
62,0,2080.75,D4,L,1040.375
76,69,2080.75,E5,R,1040.375
78,0,2080.75,F#5,R,1040.375
61,0,2081.0,C#4,L,1040.5
76,0,2081.0,E5,R,1040.5
57,71,2081.1666666666665,A3,L,1040.5833333333333
91,83,2081.25,G6,R,1040.625
57,0,2081.333333333333,A3,L,1040.6666666666665
59,69,2081.3333333333335,B3,L,1040.6666666666667
90,83,2081.375,F#6,R,1040.6875
90,0,2081.5,F#6,R,1040.75
90,83,2081.5,F#6,R,1040.75
59,0,2081.5,B3,L,1040.75
88,70,2081.5,E6,R,1040.75
61,76,2081.5,C#4,L,1040.75
91,0,2081.5,G6,R,1040.75
86,79,2081.625,D6,R,1040.8125
88,0,2081.625,E6,R,1040.8125
61,0,2081.6666666666665,C#4,L,1040.8333333333333
62,69,2081.6666666666665,D4,L,1040.8333333333333
85,74,2081.75,C#6,R,1040.875
86,0,2081.75,D6,R,1040.875
62,0,2081.833333333333,D4,L,1040.9166666666665
64,75,2081.8333333333335,E4,L,1040.9166666666667
64,0,2082.0,E4,L,1041.0
66,74,2082.0,F#4,L,1041.0
83,81,2082.0,B5,R,1041.0
85,0,2082.0,C#6,R,1041.0
90,0,2082.0,F#6,R,1041.0
66,0,2082.125,F#4,L,1041.0625
67,63,2082.125,G4,L,1041.0625
81,75,2082.125,A5,R,1041.0625
83,0,2082.125,B5,R,1041.0625
79,78,2082.25,G5,R,1041.125
81,0,2082.25,A5,R,1041.125
67,0,2082.5,G4,L,1041.25
78,103,2083.0,F#5,R,1041.5
72,78,2083.0,C5,R,1041.5
62,90,2083.0,D4,L,1041.5
69,90,2083.0,A4,R,1041.5
79,0,2083.0,G5,R,1041.5
57,86,2083.0,A3,L,1041.5
50,91,2083.0,D3,L,1041.5
54,89,2083.0,F#3,L,1041.5
62,0,2083.75,D4,L,1041.875
57,0,2083.75,A3,L,1041.875
54,0,2083.75,F#3,L,1041.875
78,0,2083.75,F#5,R,1041.875
69,0,2083.75,A4,R,1041.875
72,0,2083.75,C5,R,1041.875
50,0,2083.75,D3,L,1041.875
78,82,2083.8125,F#5,R,1041.90625
57,68,2083.8125,A3,L,1041.90625
50,64,2083.8125,D3,L,1041.90625
54,65,2083.8125,F#3,L,1041.90625
62,63,2083.8125,D4,L,1041.90625
69,56,2083.8125,A4,R,1041.90625
78,0,2083.875,F#5,R,1041.9375
74,37,2083.875,D5,R,1041.9375
69,0,2083.875,A4,R,1041.9375
57,0,2084.0,A3,L,1042.0
62,0,2084.0,D4,L,1042.0
50,0,2084.0,D3,L,1042.0
74,0,2084.0,D5,R,1042.0
54,0,2084.0,F#3,L,1042.0
74,74,2084.25,D5,R,1042.125
50,87,2084.25,D3,L,1042.125
69,86,2084.25,A4,R,1042.125
72,68,2084.25,C5,R,1042.125
54,73,2084.25,F#3,L,1042.125
78,106,2084.25,F#5,R,1042.125
57,82,2084.25,A3,L,1042.125
62,84,2084.25,D4,L,1042.125
50,0,2085.0,D3,L,1042.5
54,0,2085.0,F#3,L,1042.5
78,0,2085.0,F#5,R,1042.5
74,0,2085.0,D5,R,1042.5
72,0,2085.0,C5,R,1042.5
69,0,2085.0,A4,R,1042.5
62,0,2085.0,D4,L,1042.5
57,0,2085.0,A3,L,1042.5
47,66,2085.375,B2,L,1042.6875
55,66,2085.375,G3,L,1042.6875
43,69,2085.375,G2,L,1042.6875
50,58,2085.375,D3,L,1042.6875
71,66,2085.375,B4,R,1042.6875
74,46,2085.375,D5,R,1042.6875
79,79,2085.375,G5,R,1042.6875
74,46,2085.5,D5,R,1042.75
79,79,2085.5,G5,R,1042.75
55,0,2085.5,G3,L,1042.75
43,69,2085.5,G2,L,1042.75
50,0,2085.5,D3,L,1042.75
47,66,2085.5,B2,L,1042.75
71,66,2085.5,B4,R,1042.75
50,58,2085.5,D3,L,1042.75
79,0,2085.5,G5,R,1042.75
74,0,2085.5,D5,R,1042.75
71,0,2085.5,B4,R,1042.75
47,0,2085.5,B2,L,1042.75
43,0,2085.5,G2,L,1042.75
55,66,2085.5,G3,L,1042.75
74,72,2085.71875,D5,L,1042.859375
81,100,2085.71875,A5,R,1042.859375
72,100,2085.71875,C5,L,1042.859375
81,100,2085.75,A5,R,1042.875
81,0,2085.75,A5,R,1042.875
74,72,2085.75,D5,L,1042.875
71,0,2085.75,B4,R,1042.875
72,100,2085.75,C5,L,1042.875
79,0,2085.75,G5,R,1042.875
72,0,2085.75,C5,L,1042.875
74,0,2085.75,D5,R,1042.875
43,0,2085.75,G2,L,1042.875
47,0,2085.75,B2,L,1042.875
50,0,2085.75,D3,L,1042.875
55,0,2085.75,G3,L,1042.875
38,90,2085.75,D2,L,1042.875
42,84,2085.75,F#2,L,1042.875
45,78,2085.75,A2,L,1042.875
50,74,2085.75,D3,L,1042.875
78,65,2085.75,F#5,R,1042.875
74,0,2085.75,D5,L,1042.875
38,0,2086.0,D2,L,1043.0
45,0,2086.0,A2,L,1043.0
50,0,2086.0,D3,L,1043.0
42,0,2086.0,F#2,L,1043.0
72,0,2086.0,C5,L,1043.0
74,0,2086.0,D5,L,1043.0
78,0,2086.0,F#5,R,1043.0
81,0,2086.0,A5,R,1043.0
69,63,2086.8333333333335,A4,R,1043.4166666666667
81,74,2086.8333333333335,A5,R,1043.4166666666667
62,75,2086.875,D4,L,1043.4375
57,66,2086.875,A3,L,1043.4375
50,74,2086.875,D3,L,1043.4375
54,74,2086.875,F#3,L,1043.4375
72,6,2086.9166666666665,C5,R,1043.4583333333333
69,0,2086.916666666667,A4,R,1043.4583333333335
81,0,2086.916666666667,A5,R,1043.4583333333335
50,0,2087.0,D3,L,1043.5
57,0,2087.0,A3,L,1043.5
62,0,2087.0,D4,L,1043.5
72,0,2087.0,C5,R,1043.5
54,0,2087.0,F#3,L,1043.5
50,88,2087.25,D3,L,1043.625
54,86,2087.25,F#3,L,1043.625
62,91,2087.25,D4,L,1043.625
57,84,2087.25,A3,L,1043.625
72,82,2087.25,C5,R,1043.625
74,72,2087.25,D5,R,1043.625
78,86,2087.25,F#5,R,1043.625
81,101,2087.25,A5,R,1043.625
69,87,2087.25,A4,R,1043.625
69,0,2088.0,A4,R,1044.0
81,0,2088.0,A5,R,1044.0
62,0,2088.0,D4,L,1044.0
54,0,2088.0,F#3,L,1044.0
50,0,2088.0,D3,L,1044.0
78,0,2088.0,F#5,R,1044.0
74,0,2088.0,D5,R,1044.0
72,0,2088.0,C5,R,1044.0
57,0,2088.0,A3,L,1044.0
55,72,2088.34375,G3,L,1044.171875
47,68,2088.34375,B2,L,1044.171875
43,79,2088.34375,G2,L,1044.171875
50,76,2088.34375,D3,L,1044.171875
47,68,2088.375,B2,L,1044.1875
47,0,2088.375,B2,L,1044.1875
50,0,2088.375,D3,L,1044.1875
55,0,2088.375,G3,L,1044.1875
43,79,2088.375,G2,L,1044.1875
50,76,2088.375,D3,L,1044.1875
55,72,2088.375,G3,L,1044.1875
83,91,2088.375,B5,R,1044.1875
71,73,2088.375,B4,R,1044.1875
43,0,2088.375,G2,L,1044.1875
43,0,2088.5,G2,L,1044.25
47,0,2088.5,B2,L,1044.25
50,0,2088.5,D3,L,1044.25
55,0,2088.5,G3,L,1044.25
83,0,2088.5,B5,R,1044.25
71,0,2088.5,B4,R,1044.25
72,86,2088.75,C5,R,1044.375
84,92,2088.75,C6,R,1044.375
38,80,2088.75,D2,L,1044.375
81,77,2088.75,A5,R,1044.375
78,73,2088.75,F#5,R,1044.375
81,0,2089.0,A5,R,1044.5
78,0,2089.0,F#5,R,1044.5
84,0,2089.0,C6,R,1044.5
38,0,2089.0,D2,L,1044.5
38,80,2089.0,D2,L,1044.5
42,82,2089.0,F#2,L,1044.5
72,0,2089.0,C5,R,1044.5
43,19,2089.125,G2,L,1044.5625
42,0,2089.125,F#2,L,1044.5625
45,64,2089.125,A2,R,1044.5625
48,68,2089.375,C3,R,1044.6875
45,0,2089.375,A2,R,1044.6875
48,68,2089.5,C3,R,1044.75
48,0,2089.5,C3,R,1044.75
43,0,2089.5,G2,L,1044.75
47,68,2089.5833333333335,B2,R,1044.7916666666667
48,0,2089.5833333333335,C3,R,1044.7916666666667
45,71,2089.6666666666665,A2,R,1044.8333333333333
47,0,2089.666666666667,B2,R,1044.8333333333335
45,0,2089.833333333333,A2,R,1044.9166666666665
43,63,2089.8333333333335,G2,R,1044.9166666666667
43,0,2090.0,G2,R,1045.0
38,0,2090.0,D2,L,1045.0
42,78,2090.0625,F#2,R,1045.03125
42,0,2090.25,F#2,R,1045.125
50,72,2090.25,D3,R,1045.125
50,0,2090.5,D3,R,1045.25
50,72,2090.5,D3,R,1045.25
54,72,2090.5,F#3,R,1045.25
50,0,2090.625,D3,R,1045.3125
57,68,2090.625,A3,R,1045.3125
54,0,2090.875,F#3,R,1045.4375
60,71,2090.875,C4,R,1045.4375
59,69,2091.0,B3,R,1045.5
60,71,2091.0,C4,R,1045.5
60,0,2091.0,C4,R,1045.5
57,0,2091.0,A3,R,1045.5
59,0,2091.25,B3,R,1045.625
60,0,2091.25,C4,R,1045.625
57,75,2091.25,A3,R,1045.625
55,68,2091.375,G3,R,1045.6875
57,0,2091.375,A3,R,1045.6875
54,66,2091.5,F#3,R,1045.75
55,0,2091.5,G3,R,1045.75
54,0,2091.75,F#3,R,1045.875
62,63,2091.75,D4,R,1045.875
66,70,2092.0,F#4,R,1046.0
62,0,2092.0,D4,R,1046.0
69,59,2092.1875,A4,L,1046.09375
69,0,2092.25,A4,L,1046.125
66,0,2092.25,F#4,R,1046.125
74,77,2092.25,D5,R,1046.125
74,0,2092.375,D5,R,1046.1875
78,74,2092.375,F#5,R,1046.1875
72,56,2092.375,C5,L,1046.1875
72,0,2092.5,C5,L,1046.25
71,64,2092.5,B4,L,1046.25
78,0,2092.5,F#5,R,1046.25
81,72,2092.5,A5,R,1046.25
69,62,2092.6666666666665,A4,L,1046.3333333333333
71,0,2092.6666666666665,B4,L,1046.3333333333333
81,0,2092.6666666666665,A5,R,1046.3333333333333
84,79,2092.6666666666665,C6,R,1046.3333333333333
69,0,2092.833333333333,A4,L,1046.4166666666665
67,71,2092.8333333333335,G4,L,1046.4166666666667
67,0,2093.0,G4,L,1046.5
84,0,2093.0,C6,R,1046.5
66,70,2093.0,F#4,R,1046.5
83,80,2093.0,B5,L,1046.5
66,0,2093.125,F#4,R,1046.5625
81,71,2093.125,A5,R,1046.5625
84,86,2093.25,C6,R,1046.625
83,79,2093.375,B5,R,1046.6875
81,0,2093.375,A5,R,1046.6875
83,79,2093.5,B5,R,1046.75
83,0,2093.5,B5,R,1046.75
83,0,2093.5625,B5,R,1046.78125
81,66,2093.5625,A5,R,1046.78125
81,0,2093.75,A5,R,1046.875
79,69,2093.75,G5,R,1046.875
79,0,2093.875,G5,R,1046.9375
78,80,2093.875,F#5,R,1046.9375
78,0,2094.0,F#5,R,1047.0
78,80,2094.0,F#5,R,1047.0
83,0,2094.0,B5,L,1047.0
84,0,2094.0,C6,R,1047.0
79,75,2094.1,G5,R,1047.05
78,0,2094.1,F#5,R,1047.05
79,0,2094.2,G5,R,1047.1
78,73,2094.2,F#5,R,1047.1
78,0,2094.2999999999997,F#5,R,1047.1499999999999
76,75,2094.3,E5,R,1047.15
76,0,2094.6000000000004,E5,R,1047.3000000000002
75,98,2094.8,D#5,R,1047.4
69,76,2094.8,A4,R,1047.4
66,90,2094.8,F#4,R,1047.4
59,97,2095.0,B3,L,1047.5
54,92,2095.0,F#3,L,1047.5
51,90,2095.0,D#3,L,1047.5
69,0,2095.0,A4,R,1047.5
47,85,2095.0,B2,L,1047.5
66,0,2095.0,F#4,R,1047.5
69,76,2095.0,A4,R,1047.5
66,90,2095.0,F#4,R,1047.5
75,0,2095.0,D#5,R,1047.5
75,98,2095.0,D#5,R,1047.5
51,66,2096.0,D#3,L,1048.0
47,0,2096.0,B2,L,1048.0
51,0,2096.0,D#3,L,1048.0
54,0,2096.0,F#3,L,1048.0
59,0,2096.0,B3,L,1048.0
47,70,2096.0,B2,L,1048.0
54,57,2096.0,F#3,L,1048.0
75,0,2096.0,D#5,R,1048.0
66,0,2096.0,F#4,R,1048.0
69,0,2096.0,A4,R,1048.0
66,68,2096.0,F#4,R,1048.0
71,48,2096.0,B4,R,1048.0
59,73,2096.0,B3,L,1048.0
75,84,2096.0,D#5,R,1048.0
54,0,2096.375,F#3,L,1048.1875
75,100,2096.375,D#5,R,1048.1875
66,0,2096.375,F#4,R,1048.1875
71,55,2096.375,B4,R,1048.1875
71,0,2096.375,B4,R,1048.1875
66,84,2096.375,F#4,R,1048.1875
47,0,2096.375,B2,L,1048.1875
51,0,2096.375,D#3,L,1048.1875
59,0,2096.375,B3,L,1048.1875
75,0,2096.375,D#5,R,1048.1875
47,87,2096.40625,B2,L,1048.203125
59,86,2096.40625,B3,L,1048.203125
54,80,2096.40625,F#3,L,1048.203125
51,76,2096.40625,D#3,L,1048.203125
59,0,2096.5,B3,L,1048.25
54,0,2096.5,F#3,L,1048.25
51,0,2096.5,D#3,L,1048.25
47,0,2096.5,B2,L,1048.25
47,87,2096.5,B2,L,1048.25
75,0,2096.5,D#5,R,1048.25
51,76,2096.5,D#3,L,1048.25
66,0,2096.5,F#4,R,1048.25
69,18,2096.5,A4,R,1048.25
75,100,2096.5,D#5,R,1048.25
71,55,2096.5,B4,R,1048.25
71,0,2096.5,B4,R,1048.25
69,0,2097.0,A4,R,1048.5
47,0,2097.0,B2,L,1048.5
51,0,2097.0,D#3,L,1048.5
75,0,2097.0,D#5,R,1048.5
71,0,2097.0,B4,R,1048.5
40,69,2097.5,E2,L,1048.75
43,44,2097.5,G2,L,1048.75
47,70,2097.5,B2,L,1048.75
52,68,2097.5,E3,L,1048.75
67,75,2097.5,G4,R,1048.75
76,74,2097.5,E5,R,1048.75
52,0,2097.875,E3,L,1048.9375
47,0,2097.875,B2,L,1048.9375
43,0,2097.875,G2,L,1048.9375
40,0,2097.875,E2,L,1048.9375
35,85,2097.90625,B1,L,1048.953125
42,84,2097.90625,F#2,L,1048.953125
47,75,2097.90625,B2,L,1048.953125
39,81,2097.90625,D#2,L,1048.953125
39,0,2098.0,D#2,L,1049.0
42,0,2098.0,F#2,L,1049.0
47,0,2098.0,B2,L,1049.0
35,0,2098.0,B1,L,1049.0
76,0,2098.0,E5,R,1049.0
69,87,2098.0,A4,R,1049.0
75,69,2098.0,D#5,R,1049.0
78,97,2098.0,F#5,R,1049.0
67,0,2098.0,G4,R,1049.0
69,0,2099.0,A4,R,1049.5
75,0,2099.0,D#5,R,1049.5
78,0,2099.0,F#5,R,1049.5
78,83,2099.0625,F#5,R,1049.53125
51,70,2099.0625,D#3,L,1049.53125
47,70,2099.0625,B2,L,1049.53125
59,62,2099.0625,B3,L,1049.53125
54,60,2099.0625,F#3,L,1049.53125
75,52,2099.0625,D#5,R,1049.53125
66,71,2099.0625,F#4,R,1049.53125
78,0,2099.25,F#5,R,1049.625
54,0,2099.25,F#3,L,1049.625
59,0,2099.25,B3,L,1049.625
66,0,2099.25,F#4,R,1049.625
47,0,2099.25,B2,L,1049.625
75,0,2099.25,D#5,R,1049.625
51,0,2099.25,D#3,L,1049.625
47,81,2099.5,B2,L,1049.75
51,69,2099.5,D#3,L,1049.75
75,70,2099.5,D#5,R,1049.75
54,70,2099.5,F#3,L,1049.75
66,85,2099.5,F#4,R,1049.75
69,69,2099.5,A4,R,1049.75
78,101,2099.5,F#5,R,1049.75
59,80,2099.5,B3,L,1049.75
71,37,2099.5625,B4,R,1049.78125
71,0,2099.75,B4,R,1049.875
59,0,2100.0,B3,L,1050.0
66,0,2100.0,F#4,R,1050.0
51,0,2100.0,D#3,L,1050.0
47,0,2100.0,B2,L,1050.0
78,0,2100.0,F#5,R,1050.0
75,0,2100.0,D#5,R,1050.0
69,0,2100.0,A4,R,1050.0
54,0,2100.0,F#3,L,1050.0
67,81,2100.5625,G4,R,1050.28125
79,86,2100.5625,G5,R,1050.28125
47,60,2100.5625,B2,L,1050.28125
40,71,2100.5625,E2,L,1050.28125
52,54,2100.5625,E3,L,1050.28125
67,0,2100.625,G4,R,1050.3125
43,16,2100.625,G2,R,1050.3125
79,0,2100.75,G5,R,1050.375
40,0,2100.75,E2,L,1050.375
47,0,2100.75,B2,L,1050.375
52,0,2100.75,E3,L,1050.375
43,0,2101.0,G2,R,1050.5
81,87,2101.0,A5,R,1050.5
69,81,2101.0,A4,L,1050.5
78,66,2101.0,F#5,L,1050.5
81,0,2101.0416666666665,A5,R,1050.5208333333333
35,60,2101.0416666666665,B1,R,1050.5208333333333
69,0,2101.0625,A4,L,1050.53125
78,0,2101.0625,F#5,L,1050.53125
33,60,2101.0625,A1,L,1050.53125
35,0,2101.125,B1,R,1050.5625
35,60,2101.125,B1,R,1050.5625
39,71,2101.25,D#2,L,1050.625
33,0,2101.25,A1,L,1050.625
42,73,2101.375,F#2,L,1050.6875
42,0,2101.5,F#2,L,1050.75
45,68,2101.5,A2,L,1050.75
35,0,2101.5,B1,R,1050.75
39,0,2101.75,D#2,L,1050.875
43,70,2101.75,G2,L,1050.875
45,0,2101.75,A2,L,1050.875
42,66,2101.875,F#2,L,1050.9375
40,64,2102.0,E2,L,1051.0
42,66,2102.0,F#2,L,1051.0
42,0,2102.0,F#2,L,1051.0
43,0,2102.0,G2,L,1051.0
40,0,2102.25,E2,L,1051.125
39,74,2102.25,D#2,L,1051.125
47,68,2102.5,B2,L,1051.25
42,0,2102.5,F#2,L,1051.25
39,0,2102.75,D#2,L,1051.375
51,72,2102.75,D#3,L,1051.375
54,70,2103.0,F#3,L,1051.5
47,0,2103.0,B2,L,1051.5
51,0,2103.0,D#3,L,1051.5
57,72,2103.125,A3,L,1051.5625
55,73,2103.25,G3,L,1051.625
54,0,2103.25,F#3,L,1051.625
57,0,2103.5,A3,L,1051.75
54,78,2103.5,F#3,L,1051.75
55,0,2103.5,G3,L,1051.75
52,63,2103.625,E3,L,1051.8125
54,0,2103.625,F#3,L,1051.8125
51,71,2103.75,D#3,L,1051.875
52,0,2103.75,E3,L,1051.875
51,0,2104.0,D#3,L,1052.0
59,65,2104.0,B3,L,1052.0
63,67,2104.25,D#4,L,1052.125
59,0,2104.25,B3,L,1052.125
66,70,2104.375,F#4,L,1052.1875
63,0,2104.375,D#4,L,1052.1875
66,0,2104.5,F#4,L,1052.25
69,66,2104.5,A4,L,1052.25
69,0,2104.75,A4,L,1052.375
67,75,2104.75,G4,L,1052.375
66,74,2104.875,F#4,L,1052.4375
66,0,2105.0,F#4,L,1052.5
66,74,2105.0,F#4,L,1052.5
64,71,2105.0,E4,L,1052.5
67,0,2105.0,G4,L,1052.5
63,75,2105.25,D#4,L,1052.625
64,0,2105.25,E4,L,1052.625
71,68,2105.5,B4,L,1052.75
63,0,2105.5,D#4,L,1052.75
71,0,2105.6666666666665,B4,L,1052.8333333333333
75,75,2105.6666666666665,D#5,L,1052.8333333333333
75,0,2105.833333333333,D#5,L,1052.9166666666665
78,72,2105.8333333333335,F#5,L,1052.9166666666667
78,0,2106.0,F#5,L,1053.0
81,72,2106.0,A5,L,1053.0
66,0,2106.0,F#4,L,1053.0
81,0,2106.1666666666665,A5,L,1053.0833333333333
79,74,2106.1666666666665,G5,L,1053.0833333333333
79,0,2106.333333333333,G5,L,1053.1666666666665
78,77,2106.3333333333335,F#5,L,1053.1666666666667
76,64,2106.5,E5,L,1053.25
78,0,2106.5,F#5,L,1053.25
75,73,2106.625,D#5,L,1053.3125
76,0,2106.625,E5,L,1053.3125
75,0,2107.0,D#5,L,1053.5
39,54,2107.0,D#2,L,1053.5
42,55,2107.0625,F#2,L,1053.53125
45,69,2107.25,A2,L,1053.625
42,0,2107.25,F#2,L,1053.625
39,0,2107.375,D#2,L,1053.6875
48,65,2107.375,C3,L,1053.6875
48,0,2107.5,C3,L,1053.75
48,65,2107.5,C3,L,1053.75
45,0,2107.5,A2,L,1053.75
47,71,2107.5,B2,L,1053.75
45,67,2107.75,A2,L,1053.875
47,0,2107.75,B2,L,1053.875
43,56,2108.0,G2,L,1054.0
45,0,2108.0,A2,L,1054.0
48,0,2108.0,C3,L,1054.0
42,70,2108.125,F#2,L,1054.0625
43,0,2108.125,G2,L,1054.0625
51,61,2108.375,D#3,L,1054.1875
42,0,2108.375,F#2,L,1054.1875
51,0,2108.5,D#3,L,1054.25
51,61,2108.5,D#3,L,1054.25
54,61,2108.625,F#3,L,1054.3125
51,0,2108.625,D#3,L,1054.3125
57,64,2108.75,A3,L,1054.375
54,0,2108.75,F#3,L,1054.375
60,71,2108.875,C4,L,1054.4375
57,0,2109.0,A3,L,1054.5
60,0,2109.0,C4,L,1054.5
60,71,2109.0,C4,L,1054.5
59,61,2109.0,B3,L,1054.5
57,64,2109.25,A3,L,1054.625
59,0,2109.25,B3,L,1054.625
55,62,2109.5,G3,L,1054.75
57,0,2109.5,A3,L,1054.75
55,0,2109.6875,G3,L,1054.84375
54,69,2109.6875,F#3,L,1054.84375
54,0,2109.75,F#3,L,1054.875
60,0,2110.0,C4,L,1055.0
63,63,2110.0,D#4,L,1055.0
63,0,2110.1666666666665,D#4,L,1055.0833333333333
66,67,2110.1666666666665,F#4,L,1055.0833333333333
69,64,2110.4166666666665,A4,L,1055.2083333333333
66,0,2110.4166666666665,F#4,L,1055.2083333333333
69,0,2110.5,A4,L,1055.25
72,64,2110.5,C5,L,1055.25
75,75,2110.5833333333335,D#5,R,1055.2916666666667
78,75,2110.6666666666665,F#5,R,1055.3333333333333
75,0,2110.666666666667,D#5,R,1055.3333333333335
78,0,2110.833333333333,F#5,R,1055.4166666666665
71,62,2110.8333333333335,B4,R,1055.4166666666667
81,67,2110.875,A5,L,1055.4375
81,67,2111.0,A5,L,1055.5
71,0,2111.0,B4,R,1055.5
72,0,2111.0,C5,L,1055.5
84,75,2111.0,C6,R,1055.5
81,0,2111.0,A5,L,1055.5
69,65,2111.0,A4,L,1055.5
67,63,2111.125,G4,L,1055.5625
69,0,2111.125,A4,L,1055.5625
84,0,2111.25,C6,R,1055.625
83,71,2111.2916666666665,B5,R,1055.6458333333333
83,0,2111.333333333333,B5,R,1055.6666666666665
66,67,2111.3333333333335,F#4,R,1055.6666666666667
81,73,2111.4166666666665,A5,R,1055.7083333333333
66,0,2111.416666666667,F#4,R,1055.7083333333335
67,0,2111.5,G4,L,1055.75
81,0,2111.5,A5,R,1055.75
81,73,2111.5,A5,R,1055.75
81,0,2111.625,A5,R,1055.8125
87,81,2111.625,D#6,R,1055.8125
87,0,2111.875,D#6,R,1055.9375
81,64,2111.875,A5,R,1055.9375
81,0,2112.0,A5,L,1056.0
90,66,2112.0,F#6,R,1056.0
81,0,2112.0,A5,R,1056.0
87,66,2112.25,D#6,R,1056.125
90,0,2112.25,F#6,R,1056.125
90,66,2113.0,F#6,R,1056.5
87,0,2113.0,D#6,R,1056.5
90,0,2115.0,F#6,R,1057.5
77,46,2117.0,F5,L,1058.5
80,52,2117.0,G#5,R,1058.5
78,57,2117.5,F#5,L,1058.75
77,0,2117.5,F5,L,1058.75
80,0,2117.5,G#5,R,1058.75
81,59,2117.5,A5,R,1058.75
77,50,2118.0,F5,L,1059.0
81,0,2118.0,A5,R,1059.0
80,60,2118.0,G#5,R,1059.0
78,0,2118.0,F#5,L,1059.0
77,0,2118.25,F5,L,1059.125
80,0,2118.25,G#5,R,1059.125
81,58,2118.25,A5,R,1059.125
78,54,2118.25,F#5,L,1059.125
78,0,2119.0,F#5,L,1059.5
81,0,2119.0,A5,R,1059.5
80,58,2120.3333333333335,G#5,R,1060.1666666666667
77,44,2120.3333333333335,F5,L,1060.1666666666667
81,62,2120.6666666666665,A5,R,1060.3333333333333
78,59,2120.6666666666665,F#5,L,1060.3333333333333
80,0,2120.666666666667,G#5,R,1060.3333333333335
77,0,2120.666666666667,F5,L,1060.3333333333335
78,0,2121.0,F#5,L,1060.5
77,53,2121.0,F5,L,1060.5
81,0,2121.0,A5,R,1060.5
80,62,2121.0,G#5,R,1060.5
77,0,2121.5,F5,L,1060.75
81,62,2121.5,A5,R,1060.75
80,0,2121.5,G#5,R,1060.75
78,62,2121.5,F#5,L,1060.75
81,0,2122.0,A5,R,1061.0
78,0,2122.0,F#5,L,1061.0
73,49,2123.5,C#5,L,1061.75
77,50,2123.5,F5,R,1061.75
73,0,2123.875,C#5,L,1061.9375
74,57,2123.875,D5,L,1061.9375
74,0,2124.0,D5,L,1062.0
74,57,2124.0,D5,L,1062.0
77,0,2124.0,F5,R,1062.0
78,66,2124.0,F#5,R,1062.0
77,59,2124.25,F5,R,1062.125
74,0,2124.3333333333335,D5,L,1062.1666666666667
73,57,2124.3333333333335,C#5,L,1062.1666666666667
74,54,2124.6666666666665,D5,L,1062.3333333333333
73,0,2124.666666666667,C#5,L,1062.3333333333335
78,0,2124.75,F#5,R,1062.375
78,62,2124.75,F#5,R,1062.375
74,0,2125.0,D5,L,1062.5
78,0,2125.0,F#5,R,1062.5
77,0,2125.0,F5,R,1062.5
78,58,2126.75,F#5,R,1063.375
75,54,2126.75,D#5,L,1063.375
79,61,2127.0,G5,R,1063.5
76,51,2127.0,E5,L,1063.5
78,0,2127.0,F#5,R,1063.5
78,58,2127.0,F#5,R,1063.5
75,0,2127.0,D#5,L,1063.5
75,54,2127.0,D#5,L,1063.5
78,65,2127.5,F#5,R,1063.75
79,0,2127.5,G5,R,1063.75
75,65,2127.5,D#5,L,1063.75
76,0,2127.5,E5,L,1063.75
78,0,2128.0,F#5,R,1064.0
79,66,2128.0,G5,R,1064.0
75,0,2128.0,D#5,L,1064.0
76,54,2128.0,E5,L,1064.0
75,0,2128.0,D#5,L,1064.0
78,0,2128.0,F#5,R,1064.0
76,0,2129.0,E5,L,1064.5
79,0,2129.0,G5,R,1064.5
72,50,2130.0,C5,L,1065.0
75,56,2130.0,D#5,R,1065.0
76,58,2130.25,E5,R,1065.125
73,50,2130.3333333333335,C#5,L,1065.1666666666667
72,0,2130.3333333333335,C5,L,1065.1666666666667
75,0,2130.5,D#5,R,1065.25
75,66,2130.5,D#5,R,1065.25
72,50,2130.6666666666665,C5,L,1065.3333333333333
73,0,2130.666666666667,C#5,L,1065.3333333333335
73,56,2131.0,C#5,L,1065.5
75,0,2131.0,D#5,R,1065.5
72,0,2131.0,C5,L,1065.5
76,57,2131.0,E5,R,1065.5
76,0,2131.0,E5,R,1065.5
73,0,2132.0,C#5,L,1066.0
76,0,2132.0,E5,R,1066.0
76,60,2133.0,E5,R,1066.5
73,58,2133.0,C#5,L,1066.5
73,0,2133.5,C#5,L,1066.75
76,0,2133.5,E5,R,1066.75
77,70,2133.5,F5,R,1066.75
74,64,2133.5,D5,L,1066.75
74,0,2134.0,D5,L,1067.0
77,0,2134.0,F5,R,1067.0
75,74,2134.5,D#5,R,1067.25
71,61,2134.5,B4,L,1067.25
72,65,2135.0,C5,L,1067.5
76,76,2135.0,E5,R,1067.5
75,0,2135.0,D#5,R,1067.5
71,0,2135.0,B4,L,1067.5
76,0,2136.0,E5,R,1068.0
72,0,2136.0,C5,L,1068.0
73,78,2136.25,C#5,R,1068.125
70,77,2136.25,A#4,L,1068.125
71,71,2136.5,B4,L,1068.25
74,79,2136.5,D5,R,1068.25
71,0,2137.0,B4,L,1068.5
73,0,2137.0,C#5,R,1068.5
74,0,2137.0,D5,R,1068.5
70,0,2137.0,A#4,L,1068.5
71,73,2138.0,B4,R,1069.0
68,73,2138.0,G#4,L,1069.0
68,0,2138.25,G#4,L,1069.125
69,74,2138.25,A4,L,1069.125
71,0,2138.25,B4,R,1069.125
72,86,2138.25,C5,R,1069.125
72,0,2139.0,C5,R,1069.5
69,0,2139.0,A4,L,1069.5
75,84,2139.3333333333335,D#5,R,1069.6666666666667
71,70,2139.3333333333335,B4,L,1069.6666666666667
72,80,2139.6666666666665,C5,L,1069.8333333333333
76,82,2139.6666666666665,E5,R,1069.8333333333333
71,0,2139.666666666667,B4,L,1069.8333333333335
75,0,2139.666666666667,D#5,R,1069.8333333333335
76,0,2140.0,E5,R,1070.0
72,80,2140.0,C5,L,1070.0
76,82,2140.0,E5,R,1070.0
72,0,2140.0,C5,L,1070.0
76,0,2141.0,E5,R,1070.5
72,0,2141.0,C5,L,1070.5
70,80,2141.0,A#4,L,1070.5
73,85,2141.0,C#5,R,1070.5
73,0,2141.25,C#5,R,1070.625
74,87,2141.25,D5,R,1070.625
70,0,2141.25,A#4,L,1070.625
71,80,2141.25,B4,L,1070.625
74,0,2142.0,D5,R,1071.0
71,0,2142.0,B4,L,1071.0
71,79,2142.5,B4,R,1071.25
68,81,2142.5,G#4,L,1071.25
72,87,2143.0,C5,R,1071.5
68,0,2143.0,G#4,L,1071.5
69,83,2143.0,A4,L,1071.5
71,0,2143.0,B4,R,1071.5
66,82,2144.0,F#4,L,1072.0
70,85,2144.0,A#4,R,1072.0
72,0,2144.0,C5,R,1072.0
69,0,2144.0,A4,L,1072.0
71,81,2144.5,B4,R,1072.25
70,0,2144.5,A#4,R,1072.25
67,85,2144.5,G4,L,1072.25
66,0,2144.5,F#4,L,1072.25
71,0,2145.0,B4,R,1072.5
67,0,2145.0,G4,L,1072.5
75,84,2145.5,D#5,R,1072.75
63,83,2145.5,D#4,L,1072.75
64,85,2145.875,E4,L,1072.9375
63,0,2145.875,D#4,L,1072.9375
76,87,2145.875,E5,R,1072.9375
75,0,2145.875,D#5,R,1072.9375
64,0,2146.0,E4,L,1073.0
76,0,2146.0,E5,R,1073.0
76,87,2146.3333333333335,E5,R,1073.1666666666667
64,83,2146.3333333333335,E4,L,1073.1666666666667
74,81,2146.6666666666665,D5,R,1073.3333333333333
62,77,2146.6666666666665,D4,L,1073.3333333333333
76,0,2146.666666666667,E5,R,1073.3333333333335
64,0,2146.666666666667,E4,L,1073.3333333333335
74,86,2147.0,D5,R,1073.5
62,0,2147.0,D4,L,1073.5
62,79,2147.0,D4,L,1073.5
74,0,2147.0,D5,R,1073.5
60,79,2147.5,C4,L,1073.75
74,0,2147.5,D5,R,1073.75
72,83,2147.5,C5,R,1073.75
62,0,2147.5,D4,L,1073.75
72,0,2147.6666666666665,C5,R,1073.8333333333333
60,0,2147.6666666666665,C4,L,1073.8333333333333
60,79,2147.9166666666665,C4,L,1073.9583333333333
72,80,2147.9166666666665,C5,R,1073.9583333333333
72,0,2148.0,C5,R,1074.0
60,79,2148.0,C4,L,1074.0
60,0,2148.0,C4,L,1074.0
72,80,2148.0,C5,R,1074.0
72,0,2148.3333333333335,C5,R,1074.1666666666667
71,76,2148.3333333333335,B4,R,1074.1666666666667
59,78,2148.3333333333335,B3,L,1074.1666666666667
60,0,2148.3333333333335,C4,L,1074.1666666666667
71,76,2148.6666666666665,B4,R,1074.3333333333333
59,79,2148.6666666666665,B3,L,1074.3333333333333
59,0,2148.666666666667,B3,L,1074.3333333333335
71,0,2148.666666666667,B4,R,1074.3333333333335
57,80,2149.0,A3,L,1074.5
59,0,2149.0,B3,L,1074.5
69,81,2149.0,A4,R,1074.5
71,0,2149.0,B4,R,1074.5
57,79,2149.5,A3,L,1074.75
69,0,2149.5,A4,R,1074.75
57,0,2149.5,A3,L,1074.75
69,79,2149.5833333333335,A4,R,1074.7916666666667
57,0,2149.75,A3,L,1074.875
55,77,2149.8125,G3,L,1074.90625
69,0,2149.8333333333335,A4,R,1074.9166666666667
67,84,2149.8333333333335,G4,R,1074.9166666666667
67,0,2150.0,G4,R,1075.0
55,0,2150.0,G3,L,1075.0
55,81,2150.25,G3,L,1075.125
67,82,2150.25,G4,R,1075.125
55,0,2150.5,G3,L,1075.25
67,0,2150.5,G4,R,1075.25
54,77,2150.5625,F#3,L,1075.28125
66,77,2150.5625,F#4,R,1075.28125
54,0,2150.75,F#3,L,1075.375
66,0,2150.75,F#4,R,1075.375
54,73,2151.0,F#3,L,1075.5
66,76,2151.0,F#4,R,1075.5
54,0,2151.3333333333335,F#3,L,1075.6666666666667
66,0,2151.3333333333335,F#4,R,1075.6666666666667
52,72,2151.3333333333335,E3,L,1075.6666666666667
64,76,2151.3333333333335,E4,R,1075.6666666666667
64,0,2151.5,E4,R,1075.75
52,75,2151.6666666666665,E3,L,1075.8333333333333
52,0,2151.666666666667,E3,L,1075.8333333333335
64,78,2151.75,E4,R,1075.875
64,78,2152.0,E4,R,1076.0
64,0,2152.0,E4,R,1076.0
52,0,2152.0,E3,L,1076.0
52,75,2152.0,E3,L,1076.0
66,86,2152.125,F#4,R,1076.0625
54,82,2152.125,F#3,L,1076.0625
52,0,2152.125,E3,L,1076.0625
64,0,2152.125,E4,R,1076.0625
66,64,2152.5,F#4,R,1076.25
66,0,2152.5,F#4,R,1076.25
54,0,2152.5,F#3,L,1076.25
54,71,2152.5,F#3,L,1076.25
66,0,2152.875,F#4,R,1076.4375
54,0,2152.875,F#3,L,1076.4375
52,64,2152.875,E3,L,1076.4375
64,67,2152.875,E4,R,1076.4375
64,0,2153.0,E4,R,1076.5
52,0,2153.0,E3,L,1076.5
64,66,2153.25,E4,R,1076.625
52,67,2153.25,E3,L,1076.625
52,67,2153.5,E3,L,1076.75
52,0,2153.5,E3,L,1076.75
64,0,2153.5,E4,R,1076.75
64,66,2153.5,E4,R,1076.75
64,0,2153.6875,E4,R,1076.84375
54,71,2153.6875,F#3,L,1076.84375
52,0,2153.6875,E3,L,1076.84375
66,70,2153.6875,F#4,R,1076.84375
66,0,2153.75,F#4,R,1076.875
54,0,2153.75,F#3,L,1076.875
66,58,2154.0,F#4,R,1077.0
54,60,2154.0,F#3,L,1077.0
54,0,2154.5,F#3,L,1077.25
66,0,2154.5,F#4,R,1077.25
64,61,2154.5833333333335,E4,R,1077.2916666666667
52,58,2154.5833333333335,E3,L,1077.2916666666667
64,0,2154.666666666667,E4,R,1077.3333333333335
52,0,2154.666666666667,E3,L,1077.3333333333335
52,57,2154.8333333333335,E3,L,1077.4166666666667
64,57,2154.8333333333335,E4,R,1077.4166666666667
64,0,2155.0,E4,R,1077.5
52,0,2155.0,E3,L,1077.5
52,57,2155.0,E3,L,1077.5
64,57,2155.0,E4,R,1077.5
66,63,2155.25,F#4,R,1077.625
64,0,2155.25,E4,R,1077.625
54,67,2155.25,F#3,L,1077.625
52,0,2155.25,E3,L,1077.625
54,54,2155.75,F#3,L,1077.875
54,0,2155.75,F#3,L,1077.875
66,0,2155.75,F#4,R,1077.875
66,54,2155.75,F#4,R,1077.875
52,54,2156.0,E3,L,1078.0
64,60,2156.0,E4,R,1078.0
54,0,2156.0,F#3,L,1078.0
66,0,2156.0,F#4,R,1078.0
64,61,2156.5,E4,R,1078.25
64,0,2156.5,E4,R,1078.25
52,0,2156.5,E3,L,1078.25
52,54,2156.5,E3,L,1078.25
54,65,2156.875,F#3,L,1078.4375
66,64,2156.875,F#4,R,1078.4375
64,0,2156.875,E4,R,1078.4375
52,0,2156.875,E3,L,1078.4375
66,0,2157.0,F#4,R,1078.5
54,0,2157.0,F#3,L,1078.5
54,65,2157.3333333333335,F#3,L,1078.6666666666667
66,66,2157.3333333333335,F#4,R,1078.6666666666667
52,57,2157.6666666666665,E3,L,1078.8333333333333
64,60,2157.6666666666665,E4,R,1078.8333333333333
54,0,2157.666666666667,F#3,L,1078.8333333333335
66,0,2157.666666666667,F#4,R,1078.8333333333335
52,0,2158.0,E3,L,1079.0
64,0,2158.0,E4,R,1079.0
52,57,2158.0625,E3,L,1079.03125
64,67,2158.0625,E4,R,1079.03125
64,0,2158.25,E4,R,1079.125
52,0,2158.25,E3,L,1079.125
33,59,2158.5,A1,L,1079.25
64,59,2158.5625,E4,R,1079.28125
45,40,2158.625,A2,L,1079.3125
64,0,2158.75,E4,R,1079.375
33,0,2159.0,A1,L,1079.5
45,0,2159.0,A2,L,1079.5
61,35,2159.375,C#4,R,1079.6875
69,45,2159.375,A4,R,1079.6875
57,36,2159.375,A3,R,1079.6875
61,0,2159.5,C#4,R,1079.75
33,51,2159.5,A1,L,1079.75
57,36,2159.5,A3,R,1079.75
61,35,2159.5,C#4,R,1079.75
69,45,2159.5,A4,R,1079.75
69,0,2159.5,A4,R,1079.75
57,0,2159.5,A3,R,1079.75
45,37,2159.625,A2,L,1079.8125
33,0,2159.625,A1,L,1079.8125
69,0,2160.0,A4,R,1080.0
57,0,2160.0,A3,R,1080.0
61,0,2160.0,C#4,R,1080.0
45,0,2160.0,A2,L,1080.0
45,35,2160.25,A2,L,1080.125
33,49,2160.25,A1,L,1080.125
57,39,2160.25,A3,R,1080.125
61,33,2160.25,C#4,R,1080.125
69,42,2160.25,A4,R,1080.125
45,0,2161.0,A2,L,1080.5
33,0,2161.0,A1,L,1080.5
57,0,2161.0,A3,R,1080.5
61,0,2161.0,C#4,R,1080.5
69,0,2161.0,A4,R,1080.5
61,29,2161.125,C#4,R,1080.5625
57,38,2161.125,A3,R,1080.5625
69,41,2161.125,A4,R,1080.5625
33,47,2161.125,A1,L,1080.5625
45,35,2161.25,A2,L,1080.625
33,0,2161.5,A1,L,1080.75
57,0,2161.5,A3,R,1080.75
61,0,2161.5,C#4,R,1080.75
69,0,2161.5,A4,R,1080.75
59,39,2162.0,B3,R,1081.0
45,33,2162.0,A2,L,1081.0
62,32,2162.0,D4,R,1081.0
68,48,2162.0,G#4,R,1081.0
33,43,2162.0,A1,L,1081.0
45,0,2162.0,A2,L,1081.0
68,0,2162.75,G#4,R,1081.375
33,47,2162.75,A1,L,1081.375
45,0,2162.75,A2,L,1081.375
33,0,2162.75,A1,L,1081.375
45,38,2162.75,A2,L,1081.375
59,35,2162.75,B3,R,1081.375
62,0,2162.75,D4,R,1081.375
59,0,2162.75,B3,R,1081.375
62,30,2162.75,D4,R,1081.375
68,50,2162.75,G#4,R,1081.375
59,35,2163.0,B3,R,1081.5
45,0,2163.0,A2,L,1081.5
62,0,2163.0,D4,R,1081.5
59,0,2163.0,B3,R,1081.5
68,0,2163.0,G#4,R,1081.5
33,0,2163.0,A1,L,1081.5
62,29,2163.5,D4,R,1081.75
68,49,2163.5,G#4,R,1081.75
59,0,2163.5,B3,R,1081.75
45,38,2163.5,A2,L,1081.75
59,30,2163.5,B3,R,1081.75
33,46,2163.5,A1,L,1081.75
45,0,2164.0,A2,L,1082.0
68,54,2164.0,G#4,R,1082.0
62,38,2164.0,D4,R,1082.0
59,0,2164.0,B3,R,1082.0
59,36,2164.0,B3,R,1082.0
62,0,2164.0,D4,R,1082.0
33,0,2164.0,A1,L,1082.0
68,0,2164.0,G#4,R,1082.0
45,36,2164.375,A2,L,1082.1875
33,40,2164.375,A1,L,1082.1875
45,0,2164.5,A2,L,1082.25
33,0,2164.5,A1,L,1082.25
33,40,2164.5,A1,L,1082.25
45,36,2164.5,A2,L,1082.25
45,0,2165.0,A2,L,1082.5
33,0,2165.0,A1,L,1082.5
68,0,2165.0,G#4,R,1082.5
59,0,2165.0,B3,R,1082.5
69,53,2165.0,A4,R,1082.5
57,47,2165.0,A3,R,1082.5
62,0,2165.0,D4,R,1082.5
33,39,2165.25,A1,L,1082.625
45,37,2165.25,A2,L,1082.625
61,40,2165.25,C#4,R,1082.625
61,40,2166.0,C#4,R,1083.0
57,38,2166.0,A3,R,1083.0
61,0,2166.0,C#4,R,1083.0
57,0,2166.0,A3,R,1083.0
33,40,2166.0,A1,L,1083.0
45,0,2166.0,A2,L,1083.0
33,0,2166.0,A1,L,1083.0
69,0,2166.0,A4,R,1083.0
45,35,2166.0,A2,L,1083.0
69,45,2166.0,A4,R,1083.0
61,0,2166.75,C#4,R,1083.375
69,0,2166.75,A4,R,1083.375
57,0,2166.75,A3,R,1083.375
45,0,2166.75,A2,L,1083.375
33,0,2166.75,A1,L,1083.375
57,43,2166.875,A3,R,1083.4375
69,49,2166.875,A4,R,1083.4375
45,39,2166.875,A2,L,1083.4375
33,42,2166.875,A1,L,1083.4375
61,37,2166.875,C#4,R,1083.4375
57,0,2167.0,A3,R,1083.5
33,42,2167.0,A1,L,1083.5
69,0,2167.0,A4,R,1083.5
57,43,2167.0,A3,R,1083.5
61,0,2167.0,C#4,R,1083.5
61,37,2167.0,C#4,R,1083.5
33,0,2167.0,A1,L,1083.5
45,0,2167.0,A2,L,1083.5
69,49,2167.0,A4,R,1083.5
45,39,2167.0,A2,L,1083.5
69,0,2167.5,A4,R,1083.75
57,0,2167.5,A3,R,1083.75
61,0,2167.5,C#4,R,1083.75
33,0,2167.5,A1,L,1083.75
45,40,2167.5,A2,L,1083.75
61,32,2167.5,C#4,R,1083.75
33,44,2167.5,A1,L,1083.75
45,0,2167.5,A2,L,1083.75
69,46,2167.5,A4,R,1083.75
57,45,2167.5,A3,R,1083.75
57,0,2168.0,A3,R,1084.0
69,0,2168.0,A4,R,1084.0
45,0,2168.0,A2,L,1084.0
33,0,2168.0,A1,L,1084.0
61,0,2168.0,C#4,R,1084.0
59,39,2168.5,B3,R,1084.25
62,37,2168.5,D4,R,1084.25
68,55,2168.5,G#4,R,1084.25
45,35,2168.5,A2,L,1084.25
33,41,2168.5,A1,L,1084.25
33,0,2169.0,A1,L,1084.5
45,0,2169.0,A2,L,1084.5
62,0,2169.0,D4,R,1084.5
68,0,2169.0,G#4,R,1084.5
59,0,2169.0,B3,R,1084.5
45,34,2169.25,A2,L,1084.625
59,37,2169.25,B3,R,1084.625
33,38,2169.25,A1,L,1084.625
68,50,2169.25,G#4,R,1084.625
62,30,2169.5,D4,R,1084.75
59,37,2169.5,B3,R,1084.75
59,0,2169.5,B3,R,1084.75
62,0,2170.0,D4,R,1085.0
33,0,2170.0,A1,L,1085.0
68,55,2170.0,G#4,R,1085.0
59,42,2170.0,B3,R,1085.0
68,0,2170.0,G#4,R,1085.0
45,36,2170.0,A2,L,1085.0
62,30,2170.0,D4,R,1085.0
59,0,2170.0,B3,R,1085.0
45,0,2170.0,A2,L,1085.0
33,45,2170.0,A1,L,1085.0
33,0,2171.0,A1,L,1085.5
45,0,2171.0,A2,L,1085.5
62,0,2171.0,D4,R,1085.5
59,0,2171.0,B3,R,1085.5
68,0,2171.0,G#4,R,1085.5
33,42,2171.1666666666665,A1,L,1085.5833333333333
45,36,2171.1666666666665,A2,L,1085.5833333333333
59,42,2171.1666666666665,B3,R,1085.5833333333333
68,56,2171.1666666666665,G#4,R,1085.5833333333333
62,37,2171.1666666666665,D4,R,1085.5833333333333
45,0,2171.333333333333,A2,L,1085.6666666666665
33,0,2171.333333333333,A1,L,1085.6666666666665
59,0,2171.333333333333,B3,R,1085.6666666666665
68,0,2171.333333333333,G#4,R,1085.6666666666665
62,0,2171.333333333333,D4,R,1085.6666666666665
33,45,2171.6666666666665,A1,L,1085.8333333333333
69,51,2171.6666666666665,A4,R,1085.8333333333333
61,42,2171.6666666666665,C#4,R,1085.8333333333333
57,47,2171.6666666666665,A3,R,1085.8333333333333
45,42,2171.6666666666665,A2,L,1085.8333333333333
33,0,2172.0,A1,L,1086.0
69,0,2172.0,A4,R,1086.0
61,0,2172.0,C#4,R,1086.0
69,51,2172.0,A4,R,1086.0
45,0,2172.0,A2,L,1086.0
57,0,2172.0,A3,R,1086.0
33,49,2172.5,A1,L,1086.25
69,0,2172.5,A4,R,1086.25
45,48,2172.5,A2,R,1086.25
33,0,2173.0,A1,L,1086.5
45,0,2173.0,A2,R,1086.5
33,52,2173.375,A1,L,1086.6875
45,50,2173.375,A2,R,1086.6875
45,50,2173.5,A2,R,1086.75
33,0,2173.5,A1,L,1086.75
45,0,2173.5,A2,R,1086.75
33,54,2174.0,A1,L,1087.0
45,0,2174.0,A2,R,1087.0
45,47,2174.0,A2,R,1087.0
33,0,2175.0,A1,L,1087.5
45,0,2175.0,A2,R,1087.5
33,59,2175.0,A1,L,1087.5
45,56,2175.0,A2,R,1087.5
33,0,2175.75,A1,L,1087.875
45,0,2175.75,A2,R,1087.875
33,58,2175.75,A1,L,1087.875
45,51,2175.75,A2,R,1087.875
45,0,2176.0,A2,R,1088.0
33,0,2176.0,A1,L,1088.0
45,54,2176.5,A2,R,1088.25
33,58,2176.5,A1,L,1088.25
45,0,2177.0,A2,R,1088.5
33,0,2177.0,A1,L,1088.5
45,55,2177.5,A2,R,1088.75
33,63,2177.5,A1,L,1088.75
33,0,2178.0,A1,L,1089.0
45,0,2178.0,A2,R,1089.0
33,61,2178.25,A1,L,1089.125
45,59,2178.25,A2,R,1089.125
33,71,2179.0,A1,L,1089.5
45,0,2179.0,A2,R,1089.5
45,66,2179.0,A2,R,1089.5
33,0,2179.0,A1,L,1089.5
54,62,2180.0,F#3,L,1090.0
33,0,2180.0,A1,L,1090.0
45,0,2180.0,A2,R,1090.0
78,71,2180.0,F#5,R,1090.0
49,62,2180.25,C#3,L,1090.125
78,0,2180.25,F#5,R,1090.125
73,67,2180.25,C#5,R,1090.125
50,62,2180.5,D3,L,1090.25
73,0,2180.5,C#5,R,1090.25
74,70,2180.5,D5,R,1090.25
54,0,2180.5,F#3,L,1090.25
74,0,2180.75,D5,R,1090.375
76,79,2180.75,E5,R,1090.375
50,0,2180.75,D3,L,1090.375
52,79,2180.75,E3,L,1090.375
74,80,2181.0,D5,R,1090.5
49,0,2181.0,C#3,L,1090.5
52,0,2181.0,E3,L,1090.5
76,0,2181.0,E5,R,1090.5
50,75,2181.0,D3,L,1090.5
78,78,2181.25,F#5,R,1090.625
54,80,2181.25,F#3,L,1090.625
74,0,2181.25,D5,R,1090.625
50,0,2181.25,D3,L,1090.625
54,0,2181.5,F#3,L,1090.75
78,0,2181.5,F#5,R,1090.75
69,72,2181.5,A4,R,1090.75
45,71,2181.5833333333335,A2,L,1090.7916666666667
69,0,2181.75,A4,R,1090.875
71,72,2181.75,B4,R,1090.875
47,73,2181.8333333333335,B2,L,1090.9166666666667
45,0,2181.8333333333335,A2,L,1090.9166666666667
71,72,2182.0,B4,R,1091.0
47,73,2182.0,B2,L,1091.0
47,0,2182.0,B2,L,1091.0
71,0,2182.0,B4,R,1091.0
49,75,2182.1428571428573,C#3,L,1091.0714285714287
47,0,2182.1428571428573,B2,L,1091.0714285714287
71,0,2182.1428571428573,B4,R,1091.0714285714287
73,86,2182.1428571428573,C#5,R,1091.0714285714287
50,80,2182.285714285714,D3,L,1091.142857142857
74,84,2182.285714285714,D5,R,1091.142857142857
49,0,2182.2857142857147,C#3,L,1091.1428571428573
73,0,2182.2857142857147,C#5,R,1091.1428571428573
74,0,2182.5714285714284,D5,R,1091.2857142857142
76,80,2182.5714285714284,E5,R,1091.2857142857142
50,0,2182.5714285714284,D3,L,1091.2857142857142
52,77,2182.5714285714284,E3,L,1091.2857142857142
76,0,2182.8571428571427,E5,R,1091.4285714285713
78,89,2182.8571428571427,F#5,R,1091.4285714285713
52,0,2182.8571428571427,E3,L,1091.4285714285713
54,70,2182.8571428571427,F#3,L,1091.4285714285713
78,0,2183.142857142857,F#5,R,1091.5714285714284
54,0,2183.142857142857,F#3,L,1091.5714285714284
55,81,2183.1428571428573,G3,L,1091.5714285714287
79,81,2183.1428571428573,G5,R,1091.5714285714287
79,0,2183.4285714285716,G5,R,1091.7142857142858
76,80,2183.4285714285716,E5,R,1091.7142857142858
55,0,2183.4285714285716,G3,L,1091.7142857142858
52,69,2183.4285714285716,E3,L,1091.7142857142858
54,73,2183.714285714286,F#3,L,1091.857142857143
76,0,2183.714285714286,E5,R,1091.857142857143
78,87,2183.714285714286,F#5,R,1091.857142857143
52,0,2183.714285714286,E3,L,1091.857142857143
79,83,2184.0,G5,R,1092.0
78,0,2184.0,F#5,R,1092.0
54,0,2184.0,F#3,L,1092.0
55,81,2184.0,G3,L,1092.0
76,73,2184.25,E5,R,1092.125
55,0,2184.25,G3,L,1092.125
52,60,2184.25,E3,L,1092.125
79,0,2184.25,G5,R,1092.125
52,0,2184.5,E3,L,1092.25
57,77,2184.5,A3,L,1092.25
81,78,2184.5,A5,R,1092.25
76,0,2184.5,E5,R,1092.25
81,0,2184.6666666666665,A5,R,1092.3333333333333
57,0,2184.8333333333335,A3,L,1092.4166666666667
54,86,2184.8333333333335,F#3,L,1092.4166666666667
78,92,2184.8333333333335,F#5,R,1092.4166666666667
74,79,2185.0,D5,R,1092.5
54,0,2185.0,F#3,L,1092.5
50,83,2185.0,D3,L,1092.5
78,0,2185.0,F#5,R,1092.5
74,0,2185.2,D5,R,1092.6
76,73,2185.2,E5,R,1092.6
52,74,2185.25,E3,L,1092.625
50,0,2185.25,D3,L,1092.625
76,0,2185.3999999999996,E5,R,1092.6999999999998
78,81,2185.4,F#5,R,1092.7
52,0,2185.5,E3,L,1092.75
54,68,2185.5,F#3,L,1092.75
78,0,2185.6,F#5,R,1092.8
79,75,2185.6,G5,R,1092.8
55,66,2185.625,G3,L,1092.8125
57,71,2185.75,A3,L,1092.875
55,0,2185.75,G3,L,1092.875
79,0,2185.7999999999997,G5,R,1092.8999999999999
81,77,2185.8,A5,R,1092.9
54,0,2186.0,F#3,L,1093.0
57,0,2186.0,A3,L,1093.0
59,63,2186.0,B3,L,1093.0
83,76,2186.0,B5,R,1093.0
81,0,2186.0,A5,R,1093.0
83,0,2186.2,B5,R,1093.1
61,70,2186.2,C#4,L,1093.1
59,0,2186.2,B3,L,1093.1
85,80,2186.2,C#6,R,1093.1
61,0,2186.3999999999996,C#4,L,1093.1999999999998
85,0,2186.3999999999996,C#6,R,1093.1999999999998
86,79,2186.4,D6,R,1093.2
62,75,2186.4,D4,L,1093.2
86,0,2186.6,D6,R,1093.3
85,78,2186.6,C#6,R,1093.3
61,70,2186.6,C#4,L,1093.3
62,0,2186.6,D4,L,1093.3
85,0,2186.7999999999997,C#6,R,1093.3999999999999
61,0,2186.7999999999997,C#4,L,1093.3999999999999
86,81,2186.8,D6,R,1093.4
62,70,2186.8,D4,L,1093.4
88,83,2187.0,E6,R,1093.5
62,0,2187.0,D4,L,1093.5
64,74,2187.0,E4,L,1093.5
86,0,2187.0,D6,R,1093.5
88,0,2187.2,E6,R,1093.6
64,0,2187.2,E4,L,1093.6
66,78,2187.2,F#4,L,1093.6
90,87,2187.2,F#6,R,1093.6
66,0,2187.3999999999996,F#4,L,1093.6999999999998
90,0,2187.3999999999996,F#6,R,1093.6999999999998
91,79,2187.4,G6,R,1093.7
67,74,2187.4,G4,L,1093.7
67,0,2187.6,G4,L,1093.8
91,0,2187.6,G6,R,1093.8
69,72,2187.6,A4,L,1093.8
93,83,2187.6,A6,R,1093.8
93,0,2187.7999999999997,A6,R,1093.8999999999999
69,0,2187.7999999999997,A4,L,1093.8999999999999
67,75,2187.8,G4,L,1093.9
91,86,2187.8,G6,R,1093.9
67,0,2188.0,G4,L,1094.0
66,91,2188.0,F#4,L,1094.0
90,96,2188.0,F#6,R,1094.0
91,0,2188.0,G6,R,1094.0
85,71,2188.5,C#6,R,1094.25
90,0,2188.5,F#6,R,1094.25
73,80,2188.5,C#5,L,1094.25
66,0,2188.5,F#4,L,1094.25
73,0,2189.0,C#5,L,1094.5
85,0,2189.0,C#6,R,1094.5
74,81,2189.1666666666665,D5,L,1094.5833333333333
86,85,2189.1666666666665,D6,R,1094.5833333333333
74,0,2189.333333333333,D5,L,1094.6666666666665
86,0,2189.333333333333,D6,R,1094.6666666666665
78,81,2189.3333333333335,F#5,L,1094.6666666666667
90,86,2189.3333333333335,F#6,R,1094.6666666666667
71,70,2189.6666666666665,B4,L,1094.8333333333333
83,90,2189.6666666666665,B5,R,1094.8333333333333
90,0,2189.666666666667,F#6,R,1094.8333333333335
78,0,2189.666666666667,F#5,L,1094.8333333333335
71,0,2190.0,B4,L,1095.0
71,70,2190.0,B4,L,1095.0
73,71,2190.0,C#5,L,1095.0
83,0,2190.0,B5,R,1095.0
83,90,2190.0,B5,R,1095.0
83,0,2190.1666666666665,B5,R,1095.0833333333333
85,72,2190.1666666666665,C#6,R,1095.0833333333333
71,0,2190.25,B4,L,1095.125
74,78,2190.25,D5,L,1095.125
85,0,2190.333333333333,C#6,R,1095.1666666666665
86,80,2190.3333333333335,D6,R,1095.1666666666667
86,0,2190.5,D6,R,1095.25
88,94,2190.5,E6,R,1095.25
88,0,2190.5833333333335,E6,R,1095.2916666666667
88,94,2190.5833333333335,E6,R,1095.2916666666667
76,77,2190.5833333333335,E5,R,1095.2916666666667
88,94,2190.6666666666665,E6,R,1095.3333333333333
76,77,2190.6666666666665,E5,R,1095.3333333333333
88,0,2190.666666666667,E6,R,1095.3333333333335
76,0,2190.666666666667,E5,R,1095.3333333333335
76,0,2190.9166666666665,E5,R,1095.4583333333333
88,0,2190.9166666666665,E6,R,1095.4583333333333
90,91,2190.9166666666665,F#6,R,1095.4583333333333
74,0,2191.0,D5,L,1095.5
78,85,2191.0,F#5,L,1095.5
73,0,2191.0,C#5,L,1095.5
90,91,2191.0,F#6,R,1095.5
90,0,2191.0,F#6,R,1095.5
79,84,2191.25,G5,L,1095.625
90,0,2191.25,F#6,R,1095.625
78,0,2191.25,F#5,L,1095.625
91,87,2191.25,G6,R,1095.625
79,0,2191.5,G5,L,1095.75
93,88,2191.5,A6,R,1095.75
91,0,2191.5,G6,R,1095.75
81,77,2191.5,A5,L,1095.75
93,0,2192.0,A6,R,1096.0
81,0,2192.0,A5,L,1096.0
83,76,2192.0,B5,R,1096.0
95,89,2192.0625,B6,R,1096.03125
83,0,2192.0625,B5,R,1096.03125
95,0,2192.25,B6,R,1096.125
73,85,2192.375,C#5,L,1096.1875
95,82,2192.375,B6,R,1096.1875
71,71,2192.375,B4,L,1096.1875
97,91,2192.375,C#7,R,1096.1875
71,0,2192.5,B4,L,1096.25
73,0,2192.5,C#5,L,1096.25
97,0,2192.5,C#7,R,1096.25
95,0,2192.5,B6,R,1096.25
70,84,2193.0,A#4,L,1096.5
73,83,2193.0,C#5,L,1096.5
97,101,2193.0,C#7,R,1096.5
94,88,2193.0,A#6,R,1096.5
94,0,2194.0,A#6,R,1097.0
97,0,2194.0,C#7,R,1097.0
73,0,2194.0,C#5,L,1097.0
70,0,2194.0,A#4,L,1097.0
86,66,2196.2,D6,R,1098.1
74,61,2196.3333333333335,D5,L,1098.1666666666667
86,0,2196.7999999999997,D6,R,1098.3999999999999
86,66,2196.8,D6,R,1098.4
84,74,2196.8,C6,R,1098.4
74,0,2196.8333333333335,D5,L,1098.4166666666667
72,62,2196.8333333333335,C5,L,1098.4166666666667
72,62,2197.0,C5,L,1098.5
72,0,2197.0,C5,L,1098.5
71,63,2197.0,B4,L,1098.5
83,77,2197.2,B5,R,1098.6
86,66,2197.2,D6,R,1098.6
86,0,2197.2000000000003,D6,R,1098.6000000000001
84,0,2197.2000000000003,C6,R,1098.6000000000001
72,0,2197.5,C5,L,1098.75
69,63,2197.5,A4,L,1098.75
71,0,2197.5,B4,L,1098.75
83,0,2197.6,B5,R,1098.8
81,77,2197.6,A5,R,1098.8
86,0,2197.6,D6,R,1098.8
69,0,2198.0,A4,L,1099.0
79,71,2198.0,G5,R,1099.0
81,0,2198.0,A5,R,1099.0
67,73,2198.0,G4,L,1099.0
79,0,2198.25,G5,R,1099.125
78,71,2198.25,F#5,R,1099.125
66,58,2198.25,F#4,L,1099.125
67,0,2198.25,G4,L,1099.125
78,0,2198.75,F#5,R,1099.375
76,72,2198.75,E5,R,1099.375
64,59,2198.75,E4,L,1099.375
76,0,2199.0,E5,R,1099.5
62,65,2199.0,D4,L,1099.5
74,79,2199.0,D5,R,1099.5
66,0,2199.0,F#4,L,1099.5
64,0,2199.0,E4,L,1099.5
64,59,2199.0,E4,L,1099.5
62,0,2199.5,D4,L,1099.75
57,71,2199.5,A3,L,1099.75
74,0,2199.5,D5,R,1099.75
69,85,2199.5,A4,R,1099.75
74,83,2200.0,D5,R,1100.0
62,74,2200.0,D4,L,1100.0
64,0,2200.0,E4,L,1100.0
69,0,2200.0,A4,R,1100.0
57,0,2200.0,A3,L,1100.0
61,87,2200.5,C#4,L,1100.25
74,0,2200.5,D5,R,1100.25
73,93,2200.5,C#5,R,1100.25
64,83,2201.0,E4,L,1100.5
62,0,2201.0,D4,L,1100.5
73,0,2201.0,C#5,R,1100.5
76,91,2201.0,E5,R,1100.5
76,0,2201.75,E5,R,1100.875
76,91,2201.75,E5,R,1100.875
76,0,2201.875,E5,R,1100.9375
88,104,2201.875,E6,R,1100.9375
61,0,2202.0,C#4,L,1101.0
61,87,2202.0,C#4,L,1101.0
88,0,2202.0,E6,R,1101.0
61,0,2204.0,C#4,L,1102.0
64,0,2204.0,E4,L,1102.0
63,47,2206.5,D#4,L,1103.25
66,51,2206.5833333333335,F#4,R,1103.2916666666667
66,0,2206.8333333333335,F#4,R,1103.4166666666667
69,59,2206.8333333333335,A4,R,1103.4166666666667
69,0,2207.0,A4,R,1103.5
67,71,2207.0,G4,R,1103.5
64,54,2207.0,E4,L,1103.5
63,0,2207.0,D#4,L,1103.5
66,63,2207.3333333333335,F#4,R,1103.6666666666667
63,59,2207.3333333333335,D#4,L,1103.6666666666667
67,0,2207.3333333333335,G4,R,1103.6666666666667
64,0,2207.3333333333335,E4,L,1103.6666666666667
64,52,2207.6666666666665,E4,L,1103.8333333333333
67,67,2207.6666666666665,G4,R,1103.8333333333333
66,0,2207.666666666667,F#4,R,1103.8333333333335
63,0,2207.666666666667,D#4,L,1103.8333333333335
64,52,2208.0,E4,L,1104.0
62,48,2208.0,D4,L,1104.0
71,59,2208.0,B4,R,1104.0
67,0,2208.0,G4,R,1104.0
64,0,2208.0,E4,L,1104.0
64,50,2208.5,E4,R,1104.25
71,0,2208.5,B4,R,1104.25
64,0,2209.0,E4,L,1104.5
61,48,2209.0,C#4,L,1104.5
62,0,2209.0,D4,L,1104.5
63,59,2209.75,D#4,L,1104.875
63,0,2210.0,D#4,L,1105.0
61,0,2210.0,C#4,L,1105.0
67,80,2210.0,G4,L,1105.0
63,59,2210.0,D#4,L,1105.0
64,0,2210.0,E4,R,1105.0
66,62,2210.0,F#4,R,1105.0
66,0,2210.125,F#4,R,1105.0625
69,59,2210.125,A4,R,1105.0625
69,0,2210.25,A4,R,1105.125
64,55,2210.25,E4,R,1105.125
66,67,2210.5,F#4,R,1105.25
63,57,2210.75,D#4,R,1105.375
64,0,2210.75,E4,R,1105.375
63,0,2211.0,D#4,L,1105.5
67,70,2211.0,G4,R,1105.5
66,0,2211.0,F#4,R,1105.5
63,0,2211.0,D#4,R,1105.5
67,0,2211.0,G4,L,1105.5
67,0,2211.25,G4,R,1105.625
64,53,2211.25,E4,R,1105.625
71,58,2211.5,B4,R,1105.75
64,0,2211.5,E4,R,1105.75
62,50,2211.5,D4,L,1105.75
62,0,2212.0,D4,L,1106.0
64,55,2212.0,E4,R,1106.0
71,0,2212.0,B4,R,1106.0
64,0,2212.5,E4,R,1106.25
61,44,2212.5,C#4,R,1106.25
63,54,2213.0,D#4,L,1106.5
66,53,2213.0,F#4,R,1106.5
61,0,2213.0,C#4,R,1106.5
67,67,2213.3333333333335,G4,R,1106.6666666666667
63,0,2213.3333333333335,D#4,L,1106.6666666666667
64,59,2213.3333333333335,E4,L,1106.6666666666667
66,0,2213.3333333333335,F#4,R,1106.6666666666667
67,0,2213.666666666667,G4,R,1106.8333333333335
64,0,2213.8333333333335,E4,L,1106.9166666666667
63,61,2213.8333333333335,D#4,L,1106.9166666666667
66,61,2213.8333333333335,F#4,R,1106.9166666666667
64,56,2214.0,E4,L,1107.0
66,61,2214.0,F#4,R,1107.0
63,61,2214.0,D#4,L,1107.0
63,0,2214.0,D#4,L,1107.0
66,0,2214.0,F#4,R,1107.0
67,66,2214.0,G4,R,1107.0
66,62,2214.5,F#4,R,1107.25
67,0,2214.5,G4,R,1107.25
63,61,2214.5,D#4,L,1107.25
64,0,2214.5,E4,L,1107.25
63,0,2214.5,D#4,L,1107.25
66,0,2214.5,F#4,R,1107.25
66,0,2215.0,F#4,R,1107.5
67,67,2215.0,G4,R,1107.5
64,61,2215.0,E4,L,1107.5
63,0,2215.0,D#4,L,1107.5
64,0,2215.25,E4,L,1107.625
66,64,2215.3333333333335,F#4,R,1107.6666666666667
67,0,2215.3333333333335,G4,R,1107.6666666666667
63,61,2215.375,D#4,L,1107.6875
63,0,2215.5,D#4,L,1107.75
63,61,2215.5,D#4,L,1107.75
67,61,2215.6666666666665,G4,R,1107.8333333333333
66,0,2215.666666666667,F#4,R,1107.8333333333335
63,0,2215.75,D#4,L,1107.875
64,60,2215.75,E4,L,1107.875
64,0,2216.0,E4,L,1108.0
67,0,2216.0,G4,R,1108.0
67,61,2216.0,G4,R,1108.0
68,71,2216.0,G#4,R,1108.0
65,52,2216.125,F4,L,1108.0625
65,0,2216.5,F4,L,1108.25
69,63,2216.5,A4,R,1108.25
67,0,2216.5,G4,R,1108.25
68,0,2216.5,G#4,R,1108.25
66,60,2216.5,F#4,L,1108.25
66,0,2217.0,F#4,L,1108.5
68,68,2217.0,G#4,R,1108.5
69,0,2217.0,A4,R,1108.5
65,49,2217.0,F4,L,1108.5
69,65,2217.25,A4,R,1108.625
68,0,2217.25,G#4,R,1108.625
65,0,2217.3333333333335,F4,L,1108.6666666666667
66,64,2217.3333333333335,F#4,L,1108.6666666666667
64,62,2217.6666666666665,E4,L,1108.8333333333333
66,0,2217.666666666667,F#4,L,1108.8333333333335
70,75,2217.75,A#4,R,1108.875
70,0,2218.0,A#4,R,1109.0
70,75,2218.0,A#4,R,1109.0
62,68,2218.0,D4,L,1109.0
69,0,2218.0,A4,R,1109.0
71,73,2218.0,B4,R,1109.0
64,0,2218.0,E4,L,1109.0
62,0,2218.5,D4,L,1109.25
71,0,2218.5,B4,R,1109.25
60,71,2218.5833333333335,C4,L,1109.2916666666667
72,79,2218.5833333333335,C5,R,1109.2916666666667
74,79,2218.8333333333335,D5,R,1109.4166666666667
59,68,2218.8333333333335,B3,L,1109.4166666666667
60,0,2218.8333333333335,C4,L,1109.4166666666667
72,0,2218.8333333333335,C5,R,1109.4166666666667
59,0,2219.0,B3,L,1109.5
74,0,2219.0,D5,R,1109.5
70,0,2219.0,A#4,R,1109.5
74,74,2219.21875,D5,R,1109.609375
57,68,2219.25,A3,L,1109.625
74,0,2219.25,D5,R,1109.625
74,74,2219.25,D5,R,1109.625
74,0,2219.5,D5,R,1109.75
57,0,2219.5,A3,L,1109.75
55,66,2219.625,G3,L,1109.8125
74,72,2219.625,D5,R,1109.8125
74,0,2220.0,D5,R,1110.0
55,0,2220.0,G3,L,1110.0
55,53,2220.4375,G3,L,1110.21875
64,57,2220.4375,E4,R,1110.21875
61,46,2220.4375,C#4,L,1110.21875
64,0,2220.5,E4,R,1110.25
61,0,2220.5,C#4,L,1110.25
55,0,2220.5,G3,L,1110.25
55,53,2220.5,G3,L,1110.25
61,46,2220.5,C#4,L,1110.25
61,0,2221.0,C#4,L,1110.5
55,0,2221.0,G3,L,1110.5
50,55,2221.25,D3,L,1110.625
54,38,2221.25,F#3,L,1110.625
62,63,2221.25,D4,R,1110.625
50,0,2222.0,D3,L,1111.0
62,0,2222.0,D4,R,1111.0
54,0,2222.0,F#3,L,1111.0
58,68,2225.0833333333335,A#3,R,1112.5416666666667
58,0,2225.3333333333335,A#3,R,1112.6666666666667
57,59,2225.3333333333335,A3,R,1112.6666666666667
57,0,2225.5,A3,R,1112.75
70,66,2228.0,A#4,R,1114.0
69,62,2228.5,A4,R,1114.25
70,0,2228.5,A#4,R,1114.25
69,0,2229.0,A4,R,1114.5
58,70,2229.75,A#3,R,1114.875
58,70,2230.0,A#3,R,1115.0
58,0,2230.0,A#3,R,1115.0
57,67,2230.1875,A3,R,1115.09375
58,0,2230.1875,A#3,R,1115.09375
57,67,2230.25,A3,R,1115.125
57,0,2230.25,A3,R,1115.125
57,0,2231.0,A3,R,1115.5
69,62,2231.5,A4,R,1115.75
57,66,2231.75,A3,R,1115.875
57,0,2232.0,A3,R,1116.0
69,0,2232.0,A4,R,1116.0
68,77,2232.0,G#4,R,1116.0
50,58,2232.25,D3,R,1116.125
50,0,2232.5,D3,R,1116.25
69,72,2232.5,A4,R,1116.25
38,65,2232.5625,D2,L,1116.28125
38,0,2232.75,D2,L,1116.375
69,0,2233.0,A4,R,1116.5
68,0,2233.0,G#4,R,1116.5
68,74,2233.0833333333335,G#4,R,1116.5416666666667
50,74,2233.3125,D3,L,1116.65625
62,61,2233.3125,D4,L,1116.65625
68,0,2233.3333333333335,G#4,R,1116.6666666666667
69,68,2233.3333333333335,A4,R,1116.6666666666667
69,0,2233.5,A4,R,1116.75
62,0,2233.5,D4,L,1116.75
50,0,2233.5,D3,L,1116.75
70,76,2233.625,A#4,R,1116.8125
60,74,2233.65625,C4,L,1116.828125
48,68,2233.65625,C3,L,1116.828125
48,0,2233.75,C3,L,1116.875
60,0,2233.75,C4,L,1116.875
47,70,2234.0,B2,L,1117.0
70,0,2234.0,A#4,R,1117.0
59,72,2234.0,B3,L,1117.0
71,76,2234.0,B4,R,1117.0
72,76,2234.375,C5,R,1117.1875
47,0,2234.375,B2,L,1117.1875
59,0,2234.375,B3,L,1117.1875
45,61,2234.375,A2,L,1117.1875
57,70,2234.375,A3,L,1117.1875
71,0,2234.375,B4,R,1117.1875
72,0,2234.5,C5,R,1117.25
45,0,2234.5,A2,L,1117.25
57,0,2234.5,A3,L,1117.25
43,65,2234.8125,G2,L,1117.40625
55,61,2234.8125,G3,L,1117.40625
64,54,2234.8125,E4,R,1117.40625
74,79,2234.8125,D5,R,1117.40625
43,0,2235.0,G2,L,1117.5
55,0,2235.0,G3,L,1117.5
64,0,2235.0,E4,R,1117.5
74,0,2235.0,D5,R,1117.5
54,71,2235.1875,F#3,L,1117.59375
42,66,2235.1875,F#2,L,1117.59375
74,73,2235.1875,D5,R,1117.59375
66,74,2235.1875,F#4,R,1117.59375
74,0,2235.25,D5,R,1117.625
54,71,2235.25,F#3,L,1117.625
54,0,2235.25,F#3,L,1117.625
42,0,2235.25,F#2,L,1117.625
42,66,2235.25,F#2,L,1117.625
66,0,2235.25,F#4,R,1117.625
42,0,2235.5,F#2,L,1117.75
67,72,2235.5625,G4,R,1117.78125
74,80,2235.5625,D5,R,1117.78125
40,77,2235.5625,E2,L,1117.78125
52,41,2235.5625,E3,L,1117.78125
74,0,2235.75,D5,R,1117.875
40,0,2235.75,E2,L,1117.875
52,0,2235.75,E3,L,1117.875
67,0,2235.75,G4,R,1117.875
54,0,2236.0,F#3,L,1118.0
45,69,2236.34375,A2,L,1118.171875
57,52,2236.375,A3,R,1118.1875
45,69,2236.375,A2,L,1118.1875
64,69,2236.375,E4,R,1118.1875
45,0,2236.375,A2,L,1118.1875
61,50,2236.375,C#4,R,1118.1875
64,0,2236.5,E4,R,1118.25
57,0,2236.5,A3,R,1118.25
45,0,2236.5,A2,L,1118.25
61,0,2236.5,C#4,R,1118.25
66,87,2237.0,F#4,R,1118.5
38,83,2237.0,D2,L,1118.5
66,0,2237.5,F#4,R,1118.75
38,0,2237.5,D2,L,1118.75
40,75,2237.5,E2,L,1118.75
61,75,2237.5,C#4,R,1118.75
62,75,2238.0,D4,R,1119.0
40,0,2238.0,E2,L,1119.0
42,74,2238.0,F#2,L,1119.0
61,0,2238.0,C#4,R,1119.0
38,69,2238.3333333333335,D2,L,1119.1666666666667
66,76,2238.3333333333335,F#4,R,1119.1666666666667
62,0,2238.3333333333335,D4,R,1119.1666666666667
42,0,2238.3333333333335,F#2,L,1119.1666666666667
43,83,2238.6666666666665,G2,L,1119.3333333333333
59,84,2238.6666666666665,B3,R,1119.3333333333333
38,0,2238.666666666667,D2,L,1119.3333333333335
66,0,2238.666666666667,F#4,R,1119.3333333333335
43,0,2239.0,G2,L,1119.5
59,0,2239.0,B3,R,1119.5
61,66,2239.0625,C#4,R,1119.53125
61,0,2239.125,C#4,R,1119.5625
45,72,2239.125,A2,R,1119.5625
45,0,2239.25,A2,R,1119.625
62,72,2239.2916666666665,D4,R,1119.6458333333333
62,0,2239.333333333333,D4,R,1119.6666666666665
43,79,2239.3333333333335,G2,L,1119.6666666666667
64,85,2239.3333333333335,E4,R,1119.6666666666667
64,85,2239.5,E4,R,1119.75
64,0,2239.5,E4,R,1119.75
42,78,2239.6666666666665,F#2,L,1119.8333333333333
43,0,2239.666666666667,G2,L,1119.8333333333335
66,82,2239.75,F#4,R,1119.875
64,0,2239.75,E4,R,1119.875
66,0,2240.0,F#4,R,1120.0
42,78,2240.0,F#2,L,1120.0
40,77,2240.0,E2,L,1120.0
42,0,2240.0,F#2,L,1120.0
67,79,2240.125,G4,R,1120.0625
67,0,2240.5,G4,R,1120.25
42,77,2240.5,F#2,L,1120.25
40,0,2240.5,E2,L,1120.25
69,76,2240.5,A4,R,1120.25
42,0,2240.5,F#2,L,1120.25
42,0,2240.8333333333335,F#2,L,1120.4166666666667
44,81,2240.8333333333335,G#2,L,1120.4166666666667
71,61,2240.8333333333335,B4,R,1120.4166666666667
69,0,2240.8333333333335,A4,R,1120.4166666666667
44,0,2241.0,G#2,L,1120.5
71,0,2241.0,B4,R,1120.5
71,62,2241.25,B4,R,1120.625
68,72,2241.25,G#4,R,1120.625
41,80,2241.25,F2,L,1120.625
73,80,2241.25,C#5,R,1120.625
41,0,2241.5,F2,L,1120.75
42,96,2241.5,F#2,L,1120.75
73,96,2241.5,C#5,R,1120.75
68,0,2241.5,G#4,R,1120.75
71,0,2241.5,B4,R,1120.75
73,0,2241.5,C#5,R,1120.75
66,82,2241.5,F#4,R,1120.75
70,80,2241.5,A#4,R,1120.75
42,96,2242.0,F#2,L,1121.0
66,0,2242.0,F#4,R,1121.0
70,0,2242.0,A#4,R,1121.0
42,0,2242.0,F#2,L,1121.0
73,0,2242.0,C#5,R,1121.0
70,80,2242.0,A#4,R,1121.0
73,96,2242.0,C#5,R,1121.0
66,82,2242.0,F#4,R,1121.0
70,0,2243.0,A#4,R,1121.5
73,0,2243.0,C#5,R,1121.5
74,72,2243.0,D5,R,1121.5
30,64,2243.0,F#1,L,1121.5
42,0,2243.0,F#2,L,1121.5
66,0,2243.0,F#4,R,1121.5
31,58,2243.5,G1,L,1121.75
74,0,2243.5,D5,R,1121.75
72,67,2243.5,C5,R,1121.75
30,0,2243.5,F#1,L,1121.75
33,64,2244.0,A1,L,1122.0
31,0,2244.0,G1,L,1122.0
72,0,2244.0,C5,R,1122.0
71,69,2244.0,B4,R,1122.0
30,66,2244.375,F#1,L,1122.1875
33,0,2244.375,A1,L,1122.1875
30,0,2244.5,F#1,L,1122.25
69,69,2244.5,A4,R,1122.25
71,0,2244.5,B4,R,1122.25
67,74,2244.75,G4,R,1122.375
31,74,2244.75,G1,L,1122.375
66,67,2245.0,F#4,R,1122.5
31,0,2245.0,G1,L,1122.5
69,0,2245.0,A4,R,1122.5
33,69,2245.0,A1,L,1122.5
31,74,2245.0,G1,L,1122.5
67,74,2245.0,G4,R,1122.5
67,0,2245.0,G4,R,1122.5
33,0,2245.5,A1,L,1122.75
35,69,2245.5,B1,L,1122.75
64,74,2245.5,E4,R,1122.75
66,0,2245.5,F#4,R,1122.75
62,68,2245.875,D4,R,1122.9375
35,0,2245.875,B1,L,1122.9375
64,0,2245.875,E4,R,1122.9375
32,72,2245.875,G#1,L,1122.9375
67,0,2246.0,G4,R,1123.0
62,0,2246.0,D4,R,1123.0
31,0,2246.0,G1,L,1123.0
32,0,2246.0,G#1,L,1123.0
33,79,2246.3333333333335,A1,L,1123.1666666666667
54,71,2246.375,F#3,R,1123.1875
54,0,2246.5,F#3,R,1123.25
57,72,2246.5,A3,R,1123.25
45,63,2246.6666666666665,A2,L,1123.3333333333333
33,0,2246.666666666667,A1,L,1123.3333333333335
57,0,2246.75,A3,R,1123.375
54,76,2246.75,F#3,R,1123.375
62,72,2246.875,D4,R,1123.4375
45,0,2247.0,A2,L,1123.5
33,84,2247.0,A1,L,1123.5
52,72,2247.0,E3,R,1123.5
62,0,2247.0,D4,R,1123.5
62,72,2247.0,D4,R,1123.5
54,0,2247.0,F#3,R,1123.5
52,0,2247.25,E3,R,1123.625
61,65,2247.25,C#4,R,1123.625
45,71,2247.5,A2,L,1123.75
33,0,2247.5,A1,L,1123.75
61,0,2247.5,C#4,R,1123.75
55,64,2247.5,G3,R,1123.75
55,0,2247.625,G3,R,1123.8125
64,61,2247.625,E4,R,1123.8125
64,0,2248.0,E4,R,1124.0
38,66,2248.0,D2,R,1124.0
42,61,2248.0,F#2,L,1124.0
45,0,2248.0,A2,L,1124.0
62,0,2248.0,D4,R,1124.0
50,65,2248.0625,D3,R,1124.03125
50,0,2248.125,D3,R,1124.0625
54,70,2248.125,F#3,R,1124.0625
42,0,2248.25,F#2,L,1124.125
45,65,2248.25,A2,L,1124.125
54,0,2248.25,F#3,R,1124.125
57,66,2248.25,A3,R,1124.125
57,0,2248.5,A3,R,1124.25
50,61,2248.5,D3,L,1124.25
45,0,2248.5,A2,L,1124.25
62,64,2248.5,D4,R,1124.25
61,64,2248.75,C#4,R,1124.375
49,64,2248.75,C#3,L,1124.375
62,0,2248.75,D4,R,1124.375
38,0,2248.75,D2,R,1124.375
50,0,2248.75,D3,L,1124.375
49,0,2248.875,C#3,L,1124.4375
47,53,2248.875,B2,L,1124.4375
59,65,2248.875,B3,R,1124.4375
61,0,2249.0,C#4,R,1124.5
57,62,2249.0,A3,R,1124.5
59,0,2249.0,B3,R,1124.5
59,65,2249.0,B3,R,1124.5
47,0,2249.0,B2,L,1124.5
45,62,2249.0,A2,L,1124.5
45,0,2249.25,A2,L,1124.625
57,0,2249.25,A3,R,1124.625
55,62,2249.25,G3,R,1124.625
43,65,2249.25,G2,L,1124.625
55,0,2249.5,G3,R,1124.75
43,0,2249.5,G2,L,1124.75
54,71,2249.5833333333335,F#3,R,1124.7916666666667
42,65,2249.5833333333335,F#2,L,1124.7916666666667
57,74,2249.6666666666665,A3,R,1124.8333333333333
45,63,2249.6666666666665,A2,L,1124.8333333333333
54,0,2249.666666666667,F#3,R,1124.8333333333335
42,0,2249.666666666667,F#2,L,1124.8333333333335
45,0,2249.833333333333,A2,L,1124.9166666666665
57,0,2249.833333333333,A3,R,1124.9166666666665
62,68,2249.8333333333335,D4,R,1124.9166666666667
50,67,2249.8333333333335,D3,L,1124.9166666666667
66,68,2250.0,F#4,R,1125.0
50,0,2250.0,D3,L,1125.0
59,0,2250.0,B3,R,1125.0
62,0,2250.0,D4,R,1125.0
54,67,2250.0625,F#3,L,1125.03125
64,63,2250.25,E4,R,1125.125
66,0,2250.25,F#4,R,1125.125
54,0,2250.25,F#3,L,1125.125
52,60,2250.25,E3,L,1125.125
64,0,2250.375,E4,R,1125.1875
52,0,2250.4166666666665,E3,L,1125.2083333333333
62,63,2250.4375,D4,R,1125.21875
50,61,2250.4583333333335,D3,L,1125.2291666666667
62,0,2250.5,D4,R,1125.25
50,61,2250.5,D3,L,1125.25
50,0,2250.5,D3,L,1125.25
62,63,2250.5,D4,R,1125.25
61,60,2250.625,C#4,R,1125.3125
62,0,2250.625,D4,R,1125.3125
49,59,2250.625,C#3,L,1125.3125
50,0,2250.625,D3,L,1125.3125
61,0,2250.75,C#4,R,1125.375
47,48,2250.75,B2,L,1125.375
49,0,2250.75,C#3,L,1125.375
59,62,2250.75,B3,R,1125.375
59,0,2251.0,B3,R,1125.5
57,68,2251.0,A3,R,1125.5
45,64,2251.0,A2,L,1125.5
47,0,2251.0,B2,L,1125.5
45,0,2251.2,A2,L,1125.6
50,48,2251.2,D3,L,1125.6
62,71,2251.2,D4,R,1125.6
57,0,2251.2,A3,R,1125.6
50,0,2251.3999999999996,D3,L,1125.6999999999998
62,0,2251.3999999999996,D4,R,1125.6999999999998
54,57,2251.4,F#3,L,1125.7
66,61,2251.4,F#4,R,1125.7
57,61,2251.6,A3,L,1125.8
54,0,2251.6,F#3,L,1125.8
69,69,2251.6,A4,R,1125.8
66,0,2251.6,F#4,R,1125.8
57,0,2251.7999999999997,A3,L,1125.8999999999999
69,0,2251.7999999999997,A4,R,1125.8999999999999
67,72,2251.8,G4,R,1125.9
55,68,2251.8,G3,L,1125.9
55,0,2252.0,G3,L,1126.0
66,68,2252.0,F#4,R,1126.0
54,52,2252.0,F#3,L,1126.0
67,0,2252.0,G4,R,1126.0
52,43,2252.125,E3,L,1126.0625
54,0,2252.125,F#3,L,1126.0625
64,63,2252.125,E4,R,1126.0625
50,63,2252.25,D3,R,1126.125
64,0,2252.25,E4,R,1126.125
62,57,2252.375,D4,R,1126.1875
50,0,2252.375,D3,R,1126.1875
62,0,2252.5,D4,R,1126.25
52,0,2252.5,E3,L,1126.25
61,59,2252.5,C#4,R,1126.25
52,59,2252.5,E3,L,1126.25
61,0,2252.75,C#4,R,1126.375
64,64,2252.75,E4,R,1126.375
66,0,2252.75,F#4,R,1126.375
55,64,2252.8125,G3,R,1126.40625
55,64,2252.875,G3,R,1126.4375
55,0,2252.875,G3,R,1126.4375
67,71,2252.875,G4,R,1126.4375
55,0,2253.0,G3,R,1126.5
52,57,2253.0,E3,R,1126.5
52,0,2253.0,E3,L,1126.5
64,0,2253.0,E4,R,1126.5
67,0,2253.0,G4,R,1126.5
55,68,2253.125,G3,L,1126.5625
52,0,2253.1428571428573,E3,R,1126.5714285714287
69,69,2253.1428571428573,A4,R,1126.5714285714287
69,0,2253.214285714286,A4,R,1126.607142857143
73,79,2253.214285714286,C#5,R,1126.607142857143
55,0,2253.25,G3,L,1126.625
45,70,2253.25,A2,L,1126.625
73,0,2253.4285714285716,C#5,R,1126.7142857142858
76,65,2253.4285714285716,E5,R,1126.7142857142858
52,67,2253.4375,E3,L,1126.71875
52,67,2253.5,E3,L,1126.75
45,0,2253.5,A2,L,1126.75
45,71,2253.5,A2,L,1126.75
52,0,2253.5,E3,L,1126.75
79,82,2253.5714285714284,G5,R,1126.7857142857142
76,0,2253.571428571429,E5,R,1126.7857142857144
73,81,2253.714285714286,C#5,R,1126.857142857143
79,0,2253.714285714286,G5,R,1126.857142857143
73,0,2253.857142857143,C#5,R,1126.9285714285716
52,0,2254.0,E3,L,1127.0
45,0,2254.0,A2,L,1127.0
50,66,2254.0,D3,R,1127.0
62,43,2254.25,D4,R,1127.125
60,33,2254.2916666666665,C4,L,1127.1458333333333
66,71,2254.3125,F#4,R,1127.15625
62,0,2254.3125,D4,R,1127.15625
60,0,2254.333333333333,C4,L,1127.1666666666665
54,38,2254.3333333333335,F#3,L,1127.1666666666667
57,68,2254.4166666666665,A3,L,1127.2083333333333
54,38,2254.4166666666665,F#3,L,1127.2083333333333
54,0,2254.416666666667,F#3,L,1127.2083333333335
57,0,2254.5,A3,L,1127.25
69,65,2254.5,A4,R,1127.25
66,0,2254.5,F#4,R,1127.25
50,0,2254.5,D3,R,1127.25
54,0,2254.5,F#3,L,1127.25
62,51,2254.625,D4,L,1127.3125
74,68,2254.625,D5,R,1127.3125
62,0,2254.875,D4,L,1127.4375
69,0,2254.875,A4,R,1127.4375
73,77,2254.875,C#5,R,1127.4375
61,63,2254.875,C#4,L,1127.4375
74,0,2255.0,D5,R,1127.5
73,0,2255.0,C#5,R,1127.5
71,65,2255.0,B4,R,1127.5
61,0,2255.0,C#4,L,1127.5
59,49,2255.0416666666665,B3,L,1127.5208333333333
57,65,2255.1666666666665,A3,L,1127.5833333333333
59,0,2255.1666666666665,B3,L,1127.5833333333333
71,0,2255.25,B4,R,1127.625
69,64,2255.25,A4,R,1127.625
57,0,2255.25,A3,L,1127.625
55,53,2255.375,G3,L,1127.6875
67,63,2255.375,G4,R,1127.6875
69,0,2255.375,A4,R,1127.6875
55,0,2255.5,G3,L,1127.75
67,0,2255.5,G4,R,1127.75
54,63,2255.625,F#3,L,1127.8125
66,67,2255.625,F#4,R,1127.8125
54,0,2255.75,F#3,L,1127.875
66,0,2255.75,F#4,R,1127.875
69,75,2255.75,A4,R,1127.875
57,56,2255.8125,A3,L,1127.90625
57,0,2256.0,A3,L,1128.0
69,0,2256.0,A4,R,1128.0
62,61,2256.0,D4,R,1128.0
74,66,2256.125,D5,R,1128.0625
62,0,2256.125,D4,R,1128.0625
66,64,2256.2,F#4,L,1128.1
74,0,2256.25,D5,R,1128.125
78,67,2256.25,F#5,R,1128.125
66,0,2256.3999999999996,F#4,L,1128.1999999999998
64,68,2256.4,E4,L,1128.2
78,0,2256.5,F#5,R,1128.25
76,72,2256.5,E5,R,1128.25
64,0,2256.6,E4,L,1128.3
62,65,2256.6,D4,L,1128.3
76,0,2256.625,E5,R,1128.3125
74,64,2256.625,D5,R,1128.3125
74,0,2256.75,D5,R,1128.375
73,69,2256.75,C#5,R,1128.375
62,0,2256.7999999999997,D4,L,1128.3999999999999
61,56,2256.8,C#4,L,1128.4
61,0,2257.0,C#4,L,1128.5
59,49,2257.0,B3,L,1128.5
71,66,2257.0,B4,R,1128.5
73,0,2257.0,C#5,R,1128.5
69,74,2257.25,A4,R,1128.625
71,0,2257.25,B4,R,1128.625
59,0,2257.25,B3,L,1128.625
57,70,2257.25,A3,L,1128.625
69,0,2257.5,A4,R,1128.75
57,0,2257.5,A3,L,1128.75
62,64,2257.5,D4,L,1128.75
74,78,2257.5833333333335,D5,R,1128.7916666666667
62,0,2257.625,D4,L,1128.8125
66,54,2257.625,F#4,L,1128.8125
78,64,2257.6666666666665,F#5,R,1128.8333333333333
74,0,2257.666666666667,D5,R,1128.8333333333335
78,0,2257.833333333333,F#5,R,1128.9166666666665
81,70,2257.8333333333335,A5,R,1128.9166666666667
69,56,2257.875,A4,L,1128.9375
66,0,2257.875,F#4,L,1128.9375
69,0,2258.0,A4,L,1129.0
81,0,2258.0,A5,R,1129.0
67,71,2258.0833333333335,G4,L,1129.0416666666667
79,78,2258.0833333333335,G5,R,1129.0416666666667
66,50,2258.1666666666665,F#4,L,1129.0833333333333
78,76,2258.1666666666665,F#5,R,1129.0833333333333
67,0,2258.166666666667,G4,L,1129.0833333333335
79,0,2258.166666666667,G5,R,1129.0833333333335
78,0,2258.333333333333,F#5,R,1129.1666666666665
66,0,2258.333333333333,F#4,L,1129.1666666666665
64,57,2258.3333333333335,E4,L,1129.1666666666667
76,70,2258.3333333333335,E5,R,1129.1666666666667
62,63,2258.4166666666665,D4,L,1129.2083333333333
64,0,2258.416666666667,E4,L,1129.2083333333335
62,0,2258.5,D4,L,1129.25
76,0,2258.5,E5,R,1129.25
62,63,2258.5,D4,L,1129.25
74,69,2258.5625,D5,L,1129.28125
62,0,2258.5625,D4,L,1129.28125
74,0,2258.75,D5,L,1129.375
73,66,2258.75,C#5,R,1129.375
64,69,2258.75,E4,L,1129.375
76,73,2258.875,E5,R,1129.4375
73,0,2259.0,C#5,R,1129.5
67,67,2259.0,G4,R,1129.5
76,0,2259.0,E5,R,1129.5
76,73,2259.0,E5,R,1129.5
64,0,2259.0,E4,L,1129.5
67,67,2259.0625,G4,R,1129.53125
67,0,2259.0625,G4,R,1129.53125
79,72,2259.0625,G5,R,1129.53125
79,72,2259.125,G5,R,1129.5625
67,0,2259.125,G4,R,1129.5625
64,68,2259.125,E4,R,1129.5625
79,0,2259.125,G5,R,1129.5625
64,0,2259.25,E4,R,1129.625
79,0,2259.25,G5,R,1129.625
81,73,2259.3125,A5,R,1129.65625
67,56,2259.3125,G4,L,1129.65625
76,0,2259.5,E5,R,1129.75
85,79,2259.5,C#6,R,1129.75
81,0,2259.5,A5,R,1129.75
57,68,2259.5,A3,L,1129.75
67,0,2259.5,G4,L,1129.75
88,65,2259.625,E6,R,1129.8125
85,0,2259.6875,C#6,R,1129.84375
64,66,2259.6875,E4,R,1129.84375
64,0,2259.75,E4,R,1129.875
57,66,2259.75,A3,L,1129.875
57,0,2259.75,A3,L,1129.875
91,75,2259.75,G6,R,1129.875
91,0,2259.875,G6,R,1129.9375
85,80,2259.875,C#6,R,1129.9375
88,0,2260.0,E6,R,1130.0
57,0,2260.0,A3,L,1130.0
85,0,2260.0,C#6,R,1130.0
64,43,2260.0,E4,R,1130.0
64,0,2260.375,E4,R,1130.1875
66,71,2260.375,F#4,L,1130.1875
69,72,2260.375,A4,R,1130.1875
66,0,2260.5,F#4,L,1130.25
74,73,2260.5,D5,R,1130.25
69,0,2260.5,A4,R,1130.25
69,57,2260.5,A4,L,1130.25
78,76,2260.625,F#5,R,1130.3125
74,0,2260.6875,D5,R,1130.34375
66,62,2260.6875,F#4,R,1130.34375
78,76,2260.75,F#5,R,1130.375
66,0,2260.75,F#4,R,1130.375
66,62,2260.75,F#4,R,1130.375
78,0,2260.75,F#5,R,1130.375
81,73,2260.75,A5,R,1130.375
69,0,2261.0,A4,L,1130.5
79,79,2261.0,G5,L,1130.5
66,0,2261.0,F#4,R,1130.5
78,0,2261.0,F#5,R,1130.5
81,0,2261.0,A5,R,1130.5
62,52,2261.05,D4,R,1130.525
62,52,2261.1,D4,R,1130.55
62,0,2261.1000000000004,D4,R,1130.5500000000002
62,0,2261.15,D4,R,1130.575
66,66,2261.15,F#4,R,1130.575
78,81,2261.2,F#5,R,1130.6
66,0,2261.2000000000003,F#4,R,1130.6000000000001
79,0,2261.25,G5,L,1130.625
78,0,2261.2999999999997,F#5,R,1130.6499999999999
62,50,2261.3,D4,R,1130.65
78,81,2261.3,F#5,R,1130.65
62,50,2261.35,D4,R,1130.675
76,71,2261.35,E5,R,1130.675
78,81,2261.35,F#5,R,1130.675
62,0,2261.3500000000004,D4,R,1130.6750000000002
78,0,2261.3500000000004,F#5,R,1130.6750000000002
66,74,2261.375,F#4,L,1130.6875
66,0,2261.5,F#4,L,1130.75
62,0,2261.5,D4,R,1130.75
78,0,2261.5,F#5,R,1130.75
76,0,2261.5,E5,R,1130.75
74,71,2261.5625,D5,R,1130.78125
74,0,2261.75,D5,R,1130.875
73,66,2261.75,C#5,R,1130.875
64,66,2261.75,E4,L,1130.875
76,70,2261.875,E5,R,1130.9375
64,0,2262.0,E4,L,1131.0
76,0,2262.0,E5,R,1131.0
76,70,2262.0,E5,R,1131.0
67,70,2262.0,G4,R,1131.0
73,0,2262.0,C#5,R,1131.0
67,0,2262.125,G4,R,1131.0625
79,75,2262.1666666666665,G5,R,1131.0833333333333
79,0,2262.208333333333,G5,R,1131.1041666666665
64,57,2262.2083333333335,E4,R,1131.1041666666667
64,0,2262.25,E4,R,1131.125
64,57,2262.25,E4,R,1131.125
64,0,2262.375,E4,R,1131.1875
67,65,2262.375,G4,L,1131.1875
81,68,2262.375,A5,R,1131.1875
76,0,2262.5,E5,R,1131.25
67,0,2262.5,G4,L,1131.25
57,66,2262.5,A3,R,1131.25
81,0,2262.5,A5,R,1131.25
85,77,2262.5625,C#6,R,1131.28125
88,67,2262.625,E6,R,1131.3125
57,0,2262.625,A3,R,1131.3125
64,62,2262.6666666666665,E4,L,1131.3333333333333
85,0,2262.75,C#6,R,1131.375
91,77,2262.8125,G6,R,1131.40625
64,0,2262.833333333333,E4,L,1131.4166666666665
57,70,2262.8333333333335,A3,L,1131.4166666666667
88,0,2262.875,E6,R,1131.4375
85,80,2262.9375,C#6,R,1131.46875
91,0,2263.0,G6,R,1131.5
85,0,2263.0,C#6,R,1131.5
57,0,2263.0,A3,L,1131.5
57,70,2263.46875,A3,R,1131.734375
57,70,2263.5,A3,R,1131.75
53,67,2263.5,F3,L,1131.75
57,0,2263.5,A3,R,1131.75
62,72,2263.625,D4,R,1131.8125
57,0,2263.625,A3,R,1131.8125
65,67,2263.75,F4,R,1131.875
62,0,2263.75,D4,R,1131.875
53,0,2263.75,F3,L,1131.875
57,57,2263.75,A3,L,1131.875
53,65,2263.875,F3,L,1131.9375
53,0,2264.0,F3,L,1132.0
57,0,2264.0,A3,L,1132.0
65,0,2264.0,F4,R,1132.0
69,74,2264.0,A4,L,1132.0
53,65,2264.0,F3,L,1132.0
67,82,2264.125,G4,R,1132.0625
69,0,2264.125,A4,L,1132.0625
50,67,2264.125,D3,L,1132.0625
69,74,2264.125,A4,L,1132.0625
50,0,2264.25,D3,L,1132.125
69,0,2264.25,A4,L,1132.125
65,70,2264.25,F4,R,1132.125
53,47,2264.3125,F3,L,1132.15625
53,0,2264.5,F3,L,1132.25
50,49,2264.5,D3,L,1132.25
65,0,2264.5,F4,R,1132.25
67,0,2264.5,G4,R,1132.25
64,75,2264.5833333333335,E4,R,1132.2916666666667
62,63,2264.6666666666665,D4,R,1132.3333333333333
64,0,2264.666666666667,E4,R,1132.3333333333335
62,0,2264.833333333333,D4,R,1132.4166666666665
61,58,2264.8333333333335,C#4,R,1132.4166666666667
52,68,2264.875,E3,L,1132.4375
50,0,2264.875,D3,L,1132.4375
64,72,2265.0,E4,R,1132.5
52,0,2265.0,E3,L,1132.5
53,0,2265.0,F3,L,1132.5
61,0,2265.0,C#4,R,1132.5
55,71,2265.125,G3,R,1132.5625
55,0,2265.1875,G3,R,1132.59375
55,71,2265.1875,G3,R,1132.59375
67,79,2265.1875,G4,R,1132.59375
67,0,2265.25,G4,R,1132.625
52,51,2265.25,E3,R,1132.625
55,0,2265.25,G3,R,1132.625
55,69,2265.4375,G3,L,1132.71875
45,62,2265.5,A2,L,1132.75
52,0,2265.5,E3,R,1132.75
69,70,2265.5,A4,R,1132.75
55,0,2265.5,G3,L,1132.75
69,0,2265.5625,A4,R,1132.78125
73,77,2265.5625,C#5,R,1132.78125
73,0,2265.75,C#5,R,1132.875
76,56,2265.7916666666665,E5,R,1132.8958333333333
76,0,2265.833333333333,E5,R,1132.9166666666665
52,62,2265.8333333333335,E3,R,1132.9166666666667
52,62,2265.9166666666665,E3,R,1132.9583333333333
79,74,2265.9166666666665,G5,R,1132.9583333333333
52,0,2265.916666666667,E3,R,1132.9583333333335
64,0,2266.0,E4,R,1133.0
45,40,2266.0,A2,L,1133.0
52,0,2266.0,E3,R,1133.0
79,0,2266.0,G5,R,1133.0
73,74,2266.0,C#5,R,1133.0
45,0,2266.0,A2,L,1133.0
73,0,2266.375,C#5,R,1133.1875
45,0,2266.375,A2,L,1133.1875
65,72,2266.4375,F4,L,1133.21875
69,71,2266.4375,A4,R,1133.21875
69,0,2266.5,A4,R,1133.25
65,0,2266.5,F4,L,1133.25
65,72,2266.5,F4,L,1133.25
65,0,2266.5833333333335,F4,L,1133.2916666666667
74,80,2266.5833333333335,D5,L,1133.2916666666667
69,64,2266.6666666666665,A4,L,1133.3333333333333
74,0,2266.666666666667,D5,L,1133.3333333333335
77,76,2266.75,F5,L,1133.375
69,0,2266.75,A4,L,1133.375
77,0,2266.875,F5,L,1133.4375
65,66,2266.875,F4,L,1133.4375
81,80,2266.9375,A5,L,1133.46875
81,80,2267.0,A5,L,1133.5
65,0,2267.0,F4,L,1133.5
62,42,2267.0,D4,L,1133.5
81,0,2267.0,A5,L,1133.5
79,83,2267.125,G5,R,1133.5625
81,0,2267.25,A5,L,1133.625
65,58,2267.25,F4,L,1133.625
77,74,2267.25,F5,R,1133.625
65,0,2267.375,F4,L,1133.6875
65,38,2267.375,F4,L,1133.6875
77,74,2267.375,F5,R,1133.6875
76,72,2267.375,E5,R,1133.6875
77,0,2267.375,F5,R,1133.6875
65,0,2267.5,F4,L,1133.75
77,0,2267.5,F5,R,1133.75
79,0,2267.5,G5,R,1133.75
76,0,2267.5,E5,R,1133.75
74,77,2267.5,D5,R,1133.75
74,0,2267.75,D5,R,1133.875
64,64,2267.7916666666665,E4,L,1133.8958333333333
73,71,2267.8125,C#5,R,1133.90625
76,63,2267.9166666666665,E5,L,1133.9583333333333
64,0,2267.9166666666665,E4,L,1133.9583333333333
73,0,2268.0,C#5,R,1134.0
76,0,2268.0,E5,L,1134.0
62,0,2268.0,D4,L,1134.0
67,61,2268.0,G4,L,1134.0
76,63,2268.0,E5,L,1134.0
79,76,2268.125,G5,R,1134.0625
79,0,2268.25,G5,R,1134.125
64,46,2268.2916666666665,E4,R,1134.1458333333333
64,0,2268.333333333333,E4,R,1134.1666666666665
81,75,2268.3333333333335,A5,R,1134.1666666666667
67,0,2268.375,G4,L,1134.1875
67,75,2268.375,G4,L,1134.1875
76,0,2268.375,E5,L,1134.1875
67,0,2268.5,G4,L,1134.25
57,62,2268.5,A3,L,1134.25
85,76,2268.5,C#6,R,1134.25
81,0,2268.5,A5,R,1134.25
57,0,2268.625,A3,L,1134.3125
88,71,2268.625,E6,L,1134.3125
88,0,2268.75,E6,L,1134.375
85,0,2268.75,C#6,R,1134.375
64,62,2268.7916666666665,E4,L,1134.3958333333333
91,82,2268.8125,G6,R,1134.40625
64,0,2268.833333333333,E4,L,1134.4166666666665
64,62,2268.8333333333335,E4,L,1134.4166666666667
57,71,2268.8333333333335,A3,L,1134.4166666666667
91,0,2268.875,G6,R,1134.4375
91,82,2268.875,G6,R,1134.4375
91,0,2268.90625,G6,R,1134.453125
85,88,2268.90625,C#6,R,1134.453125
57,71,2268.9166666666665,A3,L,1134.4583333333333
64,0,2268.916666666667,E4,L,1134.4583333333335
57,0,2268.916666666667,A3,L,1134.4583333333335
57,0,2269.0,A3,L,1134.5
85,0,2269.0,C#6,R,1134.5
63,35,2269.4375,D#4,R,1134.71875
63,0,2269.5,D#4,R,1134.75
53,67,2269.5,F3,R,1134.75
50,54,2269.5,D3,L,1134.75
58,70,2269.625,A#3,R,1134.8125
53,0,2269.6875,F3,R,1134.84375
53,55,2269.6875,F3,R,1134.84375
53,0,2269.75,F3,R,1134.875
53,55,2269.75,F3,R,1134.875
62,67,2269.75,D4,R,1134.875
53,0,2269.875,F3,R,1134.9375
62,0,2269.875,D4,R,1134.9375
50,57,2269.875,D3,R,1134.9375
58,0,2270.0,A#3,R,1135.0
50,0,2270.0,D3,R,1135.0
65,75,2270.0,F4,R,1135.0
46,66,2270.0,A#2,L,1135.0
50,0,2270.0,D3,L,1135.0
65,0,2270.0416666666665,F4,R,1135.0208333333333
53,55,2270.0416666666665,F3,R,1135.0208333333333
65,75,2270.0416666666665,F4,R,1135.0208333333333
65,0,2270.1666666666665,F4,R,1135.0833333333333
53,0,2270.1666666666665,F3,R,1135.0833333333333
63,83,2270.1666666666665,D#4,R,1135.0833333333333
63,0,2270.25,D#4,R,1135.125
63,83,2270.25,D#4,R,1135.125
46,0,2270.25,A#2,L,1135.125
46,66,2270.25,A#2,L,1135.125
46,0,2270.3333333333335,A#2,L,1135.1666666666667
62,76,2270.3333333333335,D4,L,1135.1666666666667
50,60,2270.4166666666665,D3,L,1135.2083333333333
62,0,2270.416666666667,D4,L,1135.2083333333335
63,0,2270.5,D#4,R,1135.25
60,72,2270.5,C4,R,1135.25
50,0,2270.5,D3,L,1135.25
46,62,2270.5,A#2,L,1135.25
58,81,2270.6666666666665,A#3,R,1135.3333333333333
60,0,2270.6666666666665,C4,R,1135.3333333333333
58,0,2270.833333333333,A#3,R,1135.4166666666665
46,0,2270.875,A#2,L,1135.4375
57,75,2270.9166666666665,A3,R,1135.4583333333333
48,50,2270.9375,C3,L,1135.46875
48,0,2271.0,C3,L,1135.5
48,50,2271.0,C3,L,1135.5
57,0,2271.0,A3,R,1135.5
57,75,2271.0,A3,R,1135.5
51,62,2271.125,D#3,L,1135.5625
60,70,2271.125,C4,R,1135.5625
57,0,2271.125,A3,R,1135.5625
48,0,2271.125,C3,L,1135.5625
60,0,2271.25,C4,R,1135.625
63,73,2271.2916666666665,D#4,R,1135.6458333333333
63,0,2271.333333333333,D#4,R,1135.6666666666665
48,51,2271.3333333333335,C3,R,1135.6666666666667
51,0,2271.375,D#3,L,1135.6875
51,67,2271.4375,D#3,L,1135.71875
65,61,2271.4583333333335,F4,R,1135.7291666666667
48,0,2271.4583333333335,C3,R,1135.7291666666667
65,61,2271.5,F4,R,1135.75
65,0,2271.5,F4,R,1135.75
51,0,2271.5,D#3,L,1135.75
51,67,2271.5,D#3,L,1135.75
41,67,2271.625,F2,L,1135.8125
51,0,2271.6875,D#3,L,1135.84375
69,61,2271.6875,A4,L,1135.84375
69,0,2271.75,A4,L,1135.875
48,51,2271.75,C3,L,1135.875
69,61,2271.75,A4,L,1135.875
65,0,2271.75,F4,R,1135.875
72,75,2271.75,C5,R,1135.875
48,0,2272.0,C3,L,1136.0
69,0,2272.0,A4,L,1136.0
41,0,2272.0,F2,L,1136.0
72,0,2272.0,C5,R,1136.0
75,75,2272.0,D#5,R,1136.0
41,56,2272.0,F2,L,1136.0
69,77,2272.125,A4,R,1136.0625
41,0,2272.125,F2,L,1136.0625
48,27,2272.125,C3,L,1136.0625
69,0,2272.375,A4,R,1136.1875
65,70,2272.4375,F4,R,1136.21875
65,0,2272.5,F4,R,1136.25
50,65,2272.5,D3,L,1136.25
48,0,2272.5,C3,L,1136.25
65,70,2272.5,F4,R,1136.25
50,0,2272.625,D3,L,1136.3125
62,72,2272.625,D4,L,1136.3125
70,74,2272.625,A#4,R,1136.3125
65,0,2272.625,F4,R,1136.3125
74,75,2272.75,D5,R,1136.375
62,0,2272.75,D4,L,1136.375
70,0,2272.75,A#4,R,1136.375
50,65,2272.8125,D3,L,1136.40625
75,0,2273.0,D#5,R,1136.5
76,32,2273.0,E5,L,1136.5
77,79,2273.0,F5,R,1136.5
74,0,2273.0,D5,R,1136.5
50,0,2273.0,D3,L,1136.5
75,81,2273.1666666666665,D#5,R,1136.5833333333333
77,0,2273.1666666666665,F5,R,1136.5833333333333
76,0,2273.1875,E5,L,1136.59375
46,80,2273.1875,A#2,L,1136.59375
46,0,2273.25,A#2,L,1136.625
75,0,2273.333333333333,D#5,R,1136.6666666666665
74,74,2273.3333333333335,D5,R,1136.6666666666667
58,53,2273.375,A#3,L,1136.6875
58,0,2273.5,A#3,L,1136.75
74,0,2273.5,D5,R,1136.75
72,70,2273.5,C5,R,1136.75
46,74,2273.5,A#2,L,1136.75
72,0,2273.6666666666665,C5,R,1136.8333333333333
46,0,2273.6875,A#2,L,1136.84375
58,64,2273.6875,A#3,L,1136.84375
70,81,2273.7083333333335,A#4,R,1136.8541666666667
70,0,2273.75,A#4,R,1136.875
70,81,2273.75,A#4,R,1136.875
58,0,2273.75,A#3,L,1136.875
70,0,2274.0,A#4,R,1137.0
75,80,2274.0,D#5,R,1137.0
48,66,2274.0,C3,L,1137.0
72,76,2274.125,C5,L,1137.0625
75,0,2274.1666666666665,D#5,R,1137.0833333333333
60,61,2274.1875,C4,L,1137.09375
48,0,2274.1875,C3,L,1137.09375
60,0,2274.25,C4,L,1137.125
48,74,2274.3125,C3,L,1137.15625
69,72,2274.3333333333335,A4,R,1137.1666666666667
48,0,2274.4375,C3,L,1137.21875
60,64,2274.4375,C4,L,1137.21875
72,0,2274.5,C5,L,1137.25
72,69,2274.5,C5,R,1137.25
69,0,2274.5,A4,R,1137.25
60,0,2274.5,C4,L,1137.25
41,82,2274.75,F2,L,1137.375
75,86,2274.75,D#5,R,1137.375
72,0,2274.75,C5,R,1137.375
41,0,2274.875,F2,L,1137.4375
72,77,2274.875,C5,L,1137.4375
72,0,2275.0,C5,L,1137.5
53,66,2275.0,F3,L,1137.5
75,0,2275.0,D#5,R,1137.5
69,73,2275.0,A4,R,1137.5
41,75,2275.125,F2,L,1137.5625
53,0,2275.125,F3,L,1137.5625
41,0,2275.25,F2,L,1137.625
72,76,2275.25,C5,L,1137.625
34,100,2275.5,A#1,L,1137.75
72,0,2275.5,C5,L,1137.75
74,100,2275.5,D5,R,1137.75
69,0,2275.5,A4,R,1137.75
34,0,2275.75,A#1,L,1137.875
46,87,2275.75,A#2,L,1137.875
70,78,2275.75,A#4,R,1137.875
74,0,2275.75,D5,R,1137.875
65,69,2275.875,F4,L,1137.9375
65,0,2276.0,F4,L,1138.0
65,69,2276.0,F4,L,1138.0
46,0,2276.0,A#2,L,1138.0
70,0,2276.0,A#4,R,1138.0
34,78,2276.0,A#1,L,1138.0
62,72,2276.125,D4,L,1138.0625
65,0,2276.125,F4,L,1138.0625
34,0,2276.1875,A#1,L,1138.09375
46,83,2276.1875,A#2,L,1138.09375
46,0,2276.25,A#2,L,1138.125
46,83,2276.25,A#2,L,1138.125
46,0,2276.2916666666665,A#2,L,1138.1458333333333
65,67,2276.2916666666665,F4,L,1138.1458333333333
65,0,2276.333333333333,F4,L,1138.1666666666665
34,80,2276.3333333333335,A#1,L,1138.1666666666667
70,72,2276.375,A#4,R,1138.1875
62,0,2276.5,D4,L,1138.25
34,0,2276.5,A#1,L,1138.25
70,0,2276.5,A#4,R,1138.25
46,86,2276.55,A#2,L,1138.275
46,86,2276.6,A#2,L,1138.3
46,0,2276.6000000000004,A#2,L,1138.3000000000002
46,0,2276.65,A#2,L,1138.325
74,80,2276.65,D5,L,1138.325
34,82,2276.7,A#1,L,1138.35
74,80,2276.7,D5,L,1138.35
74,0,2276.7000000000003,D5,L,1138.3500000000001
34,0,2276.7999999999997,A#1,L,1138.3999999999999
74,0,2276.7999999999997,D5,L,1138.3999999999999
46,88,2276.8,A#2,L,1138.4
77,73,2276.8125,F5,R,1138.40625
77,0,2277.0,F5,R,1138.5
82,84,2277.0,A#5,R,1138.5
34,81,2277.0,A#1,L,1138.5
46,0,2277.0,A#2,L,1138.5
34,0,2277.1666666666665,A#1,L,1138.5833333333333
46,85,2277.1666666666665,A#2,L,1138.5833333333333
82,0,2277.1666666666665,A#5,R,1138.5833333333333
77,66,2277.1666666666665,F5,R,1138.5833333333333
77,0,2277.333333333333,F5,R,1138.6666666666665
46,0,2277.333333333333,A#2,L,1138.6666666666665
74,81,2277.3333333333335,D5,R,1138.6666666666667
34,87,2277.3333333333335,A#1,L,1138.6666666666667
74,0,2277.5,D5,R,1138.75
46,85,2277.5,A#2,L,1138.75
34,0,2277.5,A#1,L,1138.75
77,72,2277.5416666666665,F5,R,1138.7708333333333
46,0,2277.625,A#2,L,1138.8125
77,0,2277.6666666666665,F5,R,1138.8333333333333
82,80,2277.6666666666665,A#5,R,1138.8333333333333
34,83,2277.6875,A#1,L,1138.84375
46,86,2277.75,A#2,R,1138.875
82,0,2277.75,A#5,R,1138.875
34,0,2277.75,A#1,L,1138.875
34,83,2277.75,A#1,L,1138.875
86,86,2277.875,D6,R,1138.9375
46,0,2278.0,A#2,R,1139.0
86,86,2278.0,D6,R,1139.0
34,0,2278.0,A#1,L,1139.0
86,0,2278.0,D6,R,1139.0
34,81,2278.0,A#1,R,1139.0
89,85,2278.125,F6,R,1139.0625
86,0,2278.125,D6,R,1139.0625
34,0,2278.125,A#1,R,1139.0625
46,90,2278.25,A#2,R,1139.125
86,87,2278.375,D6,R,1139.1875
89,0,2278.375,F6,R,1139.1875
94,110,2278.4375,A#6,R,1139.21875
86,0,2278.4375,D6,R,1139.21875
34,96,2278.5,A#1,R,1139.25
94,0,2278.5,A#6,R,1139.25
34,10,2278.75,A#1,R,1139.375
34,0,2278.75,A#1,R,1139.375
46,0,2279.0,A#2,R,1139.5
34,0,2279.0,A#1,R,1139.5
62,72,2279.6875,D4,R,1139.84375
62,0,2279.75,D4,R,1139.875
62,72,2279.75,D4,R,1139.875
63,92,2280.0,D#4,R,1140.0
62,0,2280.0,D4,R,1140.0
63,0,2281.0,D#4,R,1140.5
63,87,2281.25,D#4,R,1140.625
34,98,2281.75,A#1,L,1140.875
74,104,2281.75,D5,R,1140.875
63,0,2281.75,D#4,R,1140.875
74,0,2282.0,D5,R,1141.0
46,78,2282.0,A#2,L,1141.0
34,0,2282.0,A#1,L,1141.0
70,89,2282.0,A#4,R,1141.0
65,65,2282.125,F4,R,1141.0625
65,65,2282.25,F4,R,1141.125
62,73,2282.25,D4,R,1141.125
65,0,2282.25,F4,R,1141.125
46,0,2282.25,A#2,L,1141.125
34,87,2282.3125,A#1,L,1141.15625
70,0,2282.5,A#4,R,1141.25
65,0,2282.5,F4,R,1141.25
65,65,2282.5,F4,R,1141.25
46,81,2282.5,A#2,L,1141.25
34,0,2282.5,A#1,L,1141.25
62,0,2282.5,D4,R,1141.25
70,74,2282.625,A#4,R,1141.3125
65,0,2282.6875,F4,R,1141.34375
34,81,2282.6875,A#1,R,1141.34375
34,0,2282.75,A#1,R,1141.375
34,81,2282.75,A#1,R,1141.375
74,83,2282.875,D5,R,1141.4375
46,0,2282.875,A#2,L,1141.4375
46,83,2282.875,A#2,L,1141.4375
34,0,2282.875,A#1,R,1141.4375
74,0,2283.0,D5,R,1141.5
70,0,2283.0,A#4,R,1141.5
46,0,2283.0,A#2,L,1141.5
34,80,2283.0625,A#1,L,1141.53125
77,77,2283.1,F5,R,1141.55
82,85,2283.2,A#5,R,1141.6
77,0,2283.2,F5,R,1141.6
34,0,2283.25,A#1,L,1141.625
46,87,2283.25,A#2,L,1141.625
82,0,2283.3999999999996,A#5,R,1141.6999999999998
77,77,2283.4,F5,R,1141.7
46,0,2283.4166666666665,A#2,L,1141.7083333333333
34,82,2283.4166666666665,A#1,L,1141.7083333333333
34,0,2283.5,A#1,L,1141.75
46,86,2283.5,A#2,L,1141.75
77,0,2283.6,F5,R,1141.8
74,76,2283.6,D5,R,1141.8
46,0,2283.75,A#2,L,1141.875
34,78,2283.7916666666665,A#1,L,1141.8958333333333
74,0,2283.7999999999997,D5,R,1141.8999999999999
34,0,2283.833333333333,A#1,L,1141.9166666666665
77,78,2283.8333333333335,F5,L,1141.9166666666667
82,75,2283.9,A#5,R,1141.95
46,87,2283.9166666666665,A#2,L,1141.9583333333333
77,0,2283.916666666667,F5,L,1141.9583333333335
82,75,2284.0,A#5,R,1142.0
82,0,2284.0,A#5,R,1142.0
46,0,2284.0,A#2,L,1142.0
34,81,2284.125,A#1,R,1142.0625
82,0,2284.125,A#5,R,1142.0625
46,91,2284.25,A#2,L,1142.125
86,85,2284.25,D6,R,1142.125
34,0,2284.25,A#1,R,1142.125
86,0,2284.375,D6,R,1142.1875
89,86,2284.375,F6,R,1142.1875
89,0,2284.5,F6,R,1142.25
86,88,2284.5,D6,R,1142.25
46,0,2284.5,A#2,L,1142.25
34,32,2284.5,A#1,L,1142.25
46,41,2284.59375,A#2,L,1142.296875
46,0,2284.625,A#2,L,1142.3125
34,0,2284.625,A#1,L,1142.3125
46,41,2284.625,A#2,L,1142.3125
34,32,2284.625,A#1,L,1142.3125
34,0,2284.65625,A#1,L,1142.328125
94,108,2284.65625,A#6,L,1142.328125
94,0,2284.6875,A#6,L,1142.34375
34,94,2284.6875,A#1,L,1142.34375
94,108,2284.6875,A#6,L,1142.34375
34,0,2284.75,A#1,L,1142.375
94,0,2284.75,A#6,L,1142.375
46,0,2285.0,A#2,L,1142.5
86,0,2285.0,D6,R,1142.5
62,61,2285.875,D4,L,1142.9375
62,0,2286.0,D4,L,1143.0
62,76,2286.5,D4,L,1143.25
62,0,2287.5,D4,L,1143.75
62,59,2287.625,D4,L,1143.8125
61,59,2288.0,C#4,L,1144.0
62,0,2288.0,D4,L,1144.0
57,63,2288.5,A3,L,1144.25
61,0,2288.5,C#4,L,1144.25
57,59,2288.875,A3,L,1144.4375
57,0,2288.875,A3,L,1144.4375
57,0,2289.0,A3,L,1144.5
57,61,2289.21875,A3,L,1144.609375
57,61,2289.25,A3,L,1144.625
57,0,2289.25,A3,L,1144.625
57,60,2289.5,A3,L,1144.75
57,0,2289.5,A3,L,1144.75
59,63,2290.0,B3,L,1145.0
57,0,2290.0,A3,L,1145.0
59,0,2290.4,B3,L,1145.2
57,66,2290.4,A3,L,1145.2
57,0,2290.8,A3,L,1145.4
55,67,2290.8,G3,L,1145.4
54,64,2291.2,F#3,L,1145.6
55,0,2291.2000000000003,G3,L,1145.6000000000001
52,58,2291.6,E3,L,1145.8
54,0,2291.6,F#3,L,1145.8
50,61,2292.0,D3,L,1146.0
52,0,2292.0,E3,L,1146.0
50,0,2292.5,D3,L,1146.25
43,55,2292.5,G2,L,1146.25
43,0,2293.0,G2,L,1146.5
45,60,2293.0,A2,L,1146.5
45,0,2294.0,A2,L,1147.0
79,69,2294.0,G5,R,1147.0
45,56,2294.375,A2,L,1147.1875
45,0,2294.5,A2,L,1147.25
57,32,2294.5,A3,R,1147.25
57,0,2294.75,A3,R,1147.375
76,71,2294.8125,E5,R,1147.40625
76,0,2295.0,E5,R,1147.5
79,0,2295.0,G5,R,1147.5
76,67,2295.1875,E5,R,1147.59375
76,0,2295.25,E5,R,1147.625
76,64,2295.5625,E5,R,1147.78125
76,0,2295.75,E5,R,1147.875
38,38,2296.0,D2,L,1148.0
50,38,2296.0,D3,L,1148.0
78,76,2296.0,F#5,R,1148.0
38,0,2297.0,D2,L,1148.5
50,0,2297.0,D3,L,1148.5
40,45,2297.5625,E2,L,1148.78125
52,36,2297.5625,E3,R,1148.78125
40,0,2297.75,E2,L,1148.875
52,0,2297.75,E3,R,1148.875
78,0,2298.0,F#5,R,1149.0
76,62,2298.0,E5,R,1149.0
74,63,2298.3333333333335,D5,R,1149.1666666666667
76,0,2298.3333333333335,E5,R,1149.1666666666667
71,59,2298.6666666666665,B4,R,1149.3333333333333
74,0,2298.666666666667,D5,R,1149.3333333333335
71,0,2299.0,B4,R,1149.5
69,69,2299.125,A4,R,1149.5625
33,64,2299.125,A1,L,1149.5625
45,55,2299.125,A2,L,1149.5625
69,0,2299.25,A4,R,1149.625
76,68,2299.25,E5,R,1149.625
73,67,2299.5,C#5,R,1149.75
33,0,2299.5,A1,L,1149.75
76,0,2299.5,E5,R,1149.75
45,0,2299.5,A2,L,1149.75
73,0,2299.75,C#5,R,1149.875
81,63,2299.7916666666665,A5,R,1149.8958333333333
81,0,2299.833333333333,A5,R,1149.9166666666665
76,67,2299.9166666666665,E5,R,1149.9583333333333
76,0,2300.0,E5,R,1150.0
76,67,2300.0,E5,R,1150.0
85,74,2300.125,C#6,R,1150.0625
81,69,2300.25,A5,R,1150.125
76,0,2300.25,E5,R,1150.125
85,0,2300.5,C#6,R,1150.25
81,0,2300.5,A5,R,1150.25
88,70,2300.5,E6,R,1150.25
88,0,2300.625,E6,R,1150.3125
57,60,2300.6875,A3,L,1150.34375
81,76,2300.6875,A5,R,1150.34375
45,70,2300.6875,A2,L,1150.34375
57,0,2300.75,A3,L,1150.375
45,0,2300.75,A2,L,1150.375
81,76,2300.75,A5,R,1150.375
81,0,2300.75,A5,R,1150.375
88,76,2300.875,E6,R,1150.4375
81,0,2300.875,A5,R,1150.4375
85,76,2301.0,C#6,R,1150.5
88,0,2301.0,E6,R,1150.5
88,78,2301.25,E6,R,1150.625
85,0,2301.25,C#6,R,1150.625
93,80,2301.5,A6,R,1150.75
88,0,2301.5,E6,R,1150.75
93,0,2301.6666666666665,A6,R,1150.8333333333333
88,76,2301.6666666666665,E6,R,1150.8333333333333
88,0,2301.833333333333,E6,R,1150.9166666666665
85,71,2301.8333333333335,C#6,R,1150.9166666666667
85,0,2302.0,C#6,R,1151.0
88,71,2302.0,E6,R,1151.0
88,0,2302.2,E6,R,1151.1
81,68,2302.2,A5,R,1151.1
38,58,2302.25,D2,L,1151.125
50,61,2302.25,D3,L,1151.125
81,0,2302.3999999999996,A5,R,1151.1999999999998
90,75,2302.4,F#6,R,1151.2
90,0,2302.6,F#6,R,1151.3
86,69,2302.6,D6,R,1151.3
86,0,2302.7999999999997,D6,R,1151.3999999999999
90,76,2302.8,F#6,R,1151.4
90,0,2303.0,F#6,R,1151.5
93,75,2303.0,A6,R,1151.5
38,0,2303.0,D2,L,1151.5
50,0,2303.0,D3,L,1151.5
90,73,2303.1666666666665,F#6,R,1151.5833333333333
93,0,2303.1666666666665,A6,R,1151.5833333333333
90,0,2303.333333333333,F#6,R,1151.6666666666665
81,64,2303.3333333333335,A5,R,1151.6666666666667
61,46,2303.375,C#4,L,1151.6875
81,0,2303.5,A5,R,1151.75
61,46,2303.5,C#4,L,1151.75
61,0,2303.5,C#4,L,1151.75
93,69,2303.625,A6,R,1151.8125
81,64,2303.75,A5,R,1151.875
93,0,2303.75,A6,R,1151.875
62,56,2303.75,D4,L,1151.875
62,0,2304.0,D4,L,1152.0
81,0,2304.0,A5,R,1152.0
93,65,2304.0,A6,R,1152.0
61,0,2304.0,C#4,L,1152.0
62,56,2304.0,D4,L,1152.0
64,56,2304.0,E4,L,1152.0
93,0,2304.0833333333335,A6,R,1152.0416666666667
81,63,2304.1666666666665,A5,R,1152.0833333333333
81,0,2304.25,A5,R,1152.125
81,63,2304.25,A5,R,1152.125
81,0,2304.375,A5,R,1152.1875
93,56,2304.375,A6,R,1152.1875
66,54,2304.5,F#4,L,1152.25
64,0,2304.5,E4,L,1152.25
93,0,2304.5,A6,R,1152.25
81,62,2304.5625,A5,R,1152.28125
93,62,2304.75,A6,R,1152.375
81,0,2304.75,A5,R,1152.375
93,0,2304.8333333333335,A6,R,1152.4166666666667
81,61,2304.9166666666665,A5,R,1152.4583333333333
81,0,2305.0,A5,R,1152.5
62,0,2305.0,D4,L,1152.5
67,56,2305.0,G4,L,1152.5
66,0,2305.0,F#4,L,1152.5
93,69,2305.125,A6,R,1152.5625
93,0,2305.25,A6,R,1152.625
81,57,2305.3125,A5,R,1152.65625
57,45,2305.3333333333335,A3,L,1152.6666666666667
67,0,2305.3333333333335,G4,L,1152.6666666666667
61,43,2305.3333333333335,C#4,L,1152.6666666666667
93,67,2305.5,A6,R,1152.75
81,0,2305.5,A5,R,1152.75
93,0,2305.75,A6,R,1152.875
81,59,2305.7916666666665,A5,R,1152.8958333333333
81,0,2305.833333333333,A5,R,1152.9166666666665
93,68,2305.9166666666665,A6,R,1152.9583333333333
61,0,2306.0,C#4,L,1153.0
57,0,2306.0,A3,L,1153.0
93,0,2306.0,A6,R,1153.0
93,68,2306.0,A6,R,1153.0
93,0,2306.125,A6,R,1153.0625
81,63,2306.125,A5,R,1153.0625
81,0,2306.25,A5,R,1153.125
93,62,2306.3125,A6,R,1153.15625
93,0,2306.5,A6,R,1153.25
81,60,2306.5,A5,R,1153.25
81,0,2306.75,A5,R,1153.375
93,62,2306.75,A6,R,1153.375
45,88,2306.90625,A2,L,1153.453125
57,79,2306.90625,A3,L,1153.453125
45,0,2307.0,A2,L,1153.5
57,0,2307.0,A3,L,1153.5
81,80,2307.0,A5,R,1153.5
93,0,2307.0,A6,R,1153.5
81,0,2307.125,A5,R,1153.5625
88,75,2307.125,E6,R,1153.5625
88,0,2307.25,E6,R,1153.625
85,76,2307.25,C#6,R,1153.625
85,0,2307.5,C#6,R,1153.75
88,75,2307.5,E6,R,1153.75
88,0,2307.75,E6,R,1153.875
93,83,2307.75,A6,R,1153.875
93,0,2307.875,A6,R,1153.9375
88,79,2307.875,E6,R,1153.9375
88,0,2308.0,E6,R,1154.0
85,76,2308.0,C#6,R,1154.0
85,0,2308.25,C#6,R,1154.125
88,75,2308.25,E6,R,1154.125
50,75,2308.46875,D3,L,1154.234375
38,69,2308.46875,D2,L,1154.234375
50,75,2308.5,D3,L,1154.25
38,69,2308.5,D2,L,1154.25
50,0,2308.5,D3,L,1154.25
38,0,2308.5,D2,L,1154.25
88,0,2308.5,E6,R,1154.25
81,72,2308.5416666666665,A5,R,1154.2708333333333
81,0,2308.583333333333,A5,R,1154.2916666666665
90,78,2308.6666666666665,F#6,R,1154.3333333333333
90,78,2308.75,F#6,R,1154.375
90,0,2308.75,F#6,R,1154.375
90,0,2308.875,F#6,R,1154.4375
86,73,2308.875,D6,R,1154.4375
86,0,2309.0,D6,R,1154.5
90,77,2309.0,F#6,R,1154.5
50,0,2309.0,D3,L,1154.5
38,0,2309.0,D2,L,1154.5
93,82,2309.25,A6,R,1154.625
90,0,2309.25,F#6,R,1154.625
93,0,2309.5,A6,R,1154.75
90,84,2309.5833333333335,F#6,R,1154.7916666666667
86,68,2309.6666666666665,D6,R,1154.8333333333333
90,0,2309.666666666667,F#6,R,1154.8333333333335
86,0,2309.833333333333,D6,R,1154.9166666666665
90,70,2309.8333333333335,F#6,R,1154.9166666666667
52,50,2310.0,E3,L,1155.0
40,54,2310.0,E2,L,1155.0
90,0,2310.0,F#6,R,1155.0
86,73,2310.0,D6,R,1155.0
86,0,2310.25,D6,R,1155.125
88,67,2310.25,E6,R,1155.125
88,0,2310.5,E6,R,1155.25
86,69,2310.5,D6,R,1155.25
86,0,2310.625,D6,R,1155.3125
88,73,2310.625,E6,R,1155.3125
83,68,2310.875,B5,R,1155.4375
88,0,2310.875,E6,R,1155.4375
88,69,2311.0,E6,R,1155.5
83,0,2311.0,B5,R,1155.5
40,0,2311.0,E2,L,1155.5
52,0,2311.0,E3,L,1155.5
88,0,2311.125,E6,R,1155.5625
86,68,2311.1875,D6,R,1155.59375
86,68,2311.25,D6,R,1155.625
86,0,2311.25,D6,R,1155.625
86,0,2311.375,D6,R,1155.6875
88,68,2311.375,E6,R,1155.6875
45,55,2311.5,A2,L,1155.75
57,47,2311.5,A3,L,1155.75
88,0,2311.5,E6,R,1155.75
85,68,2311.5625,C#6,R,1155.78125
85,0,2311.75,C#6,R,1155.875
88,67,2311.75,E6,R,1155.875
88,0,2311.875,E6,R,1155.9375
85,62,2311.96875,C#6,R,1155.984375
45,0,2312.0,A2,L,1156.0
85,0,2312.0,C#6,R,1156.0
85,62,2312.0,C#6,R,1156.0
57,0,2312.0,A3,L,1156.0
85,0,2312.1666666666665,C#6,R,1156.0833333333333
88,67,2312.1666666666665,E6,R,1156.0833333333333
88,0,2312.333333333333,E6,R,1156.1666666666665
85,62,2312.3333333333335,C#6,R,1156.1666666666667
85,0,2312.5,C#6,R,1156.25
88,64,2312.5625,E6,R,1156.28125
88,0,2312.75,E6,R,1156.375
85,61,2312.75,C#6,R,1156.375
85,0,2312.875,C#6,R,1156.4375
88,63,2312.875,E6,R,1156.4375
88,0,2313.0,E6,R,1156.5
86,59,2313.125,D6,R,1156.5625
86,0,2313.25,D6,R,1156.625
52,35,2313.25,E3,R,1156.625
40,42,2313.25,E2,L,1156.625
52,0,2313.375,E3,R,1156.6875
88,67,2313.375,E6,R,1156.6875
88,0,2313.5,E6,R,1156.75
86,64,2313.5,D6,R,1156.75
86,0,2313.75,D6,R,1156.875
88,65,2313.7916666666665,E6,R,1156.8958333333333
88,0,2313.833333333333,E6,R,1156.9166666666665
83,63,2313.9166666666665,B5,R,1156.9583333333333
40,0,2314.0,E2,L,1157.0
83,63,2314.0,B5,R,1157.0
83,0,2314.0,B5,R,1157.0
88,64,2314.125,E6,R,1157.0625
83,0,2314.125,B5,R,1157.0625
88,0,2314.375,E6,R,1157.1875
86,54,2314.375,D6,R,1157.1875
86,0,2314.5,D6,R,1157.25
88,61,2314.5,E6,R,1157.25
88,0,2314.75,E6,R,1157.375
33,51,2314.75,A1,L,1157.375
85,58,2314.75,C#6,R,1157.375
45,43,2314.75,A2,L,1157.375
45,0,2315.0,A2,L,1157.5
88,60,2315.0,E6,R,1157.5
85,0,2315.0,C#6,R,1157.5
33,0,2315.0,A1,L,1157.5
85,67,2315.125,C#6,R,1157.5625
88,0,2315.125,E6,R,1157.5625
85,0,2315.25,C#6,R,1157.625
88,66,2315.3125,E6,R,1157.65625
85,62,2315.5,C#6,R,1157.75
88,0,2315.5,E6,R,1157.75
88,69,2315.625,E6,R,1157.8125
85,0,2315.625,C#6,R,1157.8125
88,0,2315.875,E6,R,1157.9375
79,60,2315.875,G5,R,1157.9375
79,0,2316.0,G5,R,1158.0
81,66,2316.0,A5,R,1158.0
79,62,2316.25,G5,R,1158.125
81,0,2316.25,A5,R,1158.125
45,49,2316.375,A2,L,1158.1875
57,46,2316.40625,A3,R,1158.203125
45,0,2316.5,A2,L,1158.25
81,66,2316.5,A5,R,1158.25
57,0,2316.5,A3,R,1158.25
81,0,2316.75,A5,R,1158.375
79,68,2316.75,G5,R,1158.375
79,0,2316.875,G5,R,1158.4375
81,66,2316.875,A5,R,1158.4375
79,0,2317.0,G5,R,1158.5
81,0,2317.0,A5,R,1158.5
81,66,2317.0,A5,R,1158.5
76,68,2317.125,E5,R,1158.5625
81,0,2317.125,A5,R,1158.5625
76,0,2317.25,E5,R,1158.625
81,68,2317.3125,A5,R,1158.65625
81,0,2317.5,A5,R,1158.75
79,65,2317.5416666666665,G5,R,1158.7708333333333
79,0,2317.583333333333,G5,R,1158.7916666666665
81,64,2317.6666666666665,A5,R,1158.8333333333333
81,0,2317.75,A5,R,1158.875
78,71,2317.875,F#5,R,1158.9375
50,50,2317.875,D3,L,1158.9375
78,0,2318.0,F#5,R,1159.0
50,0,2318.0,D3,L,1159.0
38,20,2318.0,D2,L,1159.0
81,62,2318.125,A5,L,1159.0625
38,0,2318.125,D2,L,1159.0625
81,0,2318.25,A5,L,1159.125
78,63,2318.3125,F#5,L,1159.15625
78,0,2318.5,F#5,L,1159.25
81,66,2318.5,A5,L,1159.25
81,0,2318.625,A5,L,1159.3125
78,68,2318.6875,F#5,L,1159.34375
78,0,2318.75,F#5,L,1159.375
78,68,2318.75,F#5,L,1159.375
78,0,2318.875,F#5,L,1159.4375
81,64,2318.875,A5,L,1159.4375
81,0,2319.0,A5,L,1159.5
78,74,2319.0625,F#5,L,1159.53125
81,70,2319.25,A5,L,1159.625
78,0,2319.25,F#5,L,1159.625
81,0,2319.5,A5,L,1159.75
43,95,2319.5,G2,L,1159.75
43,0,2319.75,G2,L,1159.875
45,75,2319.75,A2,L,1159.875
45,0,2319.875,A2,L,1159.9375
43,66,2319.875,G2,L,1159.9375
43,0,2320.0,G2,L,1160.0
45,66,2320.125,A2,L,1160.0625
45,0,2320.25,A2,L,1160.125
40,61,2320.25,E2,L,1160.125
40,0,2320.375,E2,L,1160.1875
45,64,2320.4375,A2,L,1160.21875
45,0,2320.5,A2,L,1160.25
45,64,2320.5,A2,L,1160.25
43,69,2320.625,G2,L,1160.3125
45,0,2320.625,A2,L,1160.3125
45,66,2320.875,A2,L,1160.4375
43,0,2320.875,G2,L,1160.4375
45,0,2321.0,A2,L,1160.5
43,69,2321.0,G2,L,1160.5
45,69,2321.25,A2,L,1160.625
43,0,2321.25,G2,L,1160.625
45,0,2321.375,A2,L,1160.6875
43,69,2321.375,G2,L,1160.6875
43,0,2321.5,G2,L,1160.75
45,72,2321.625,A2,L,1160.8125
43,74,2321.75,G2,L,1160.875
45,0,2321.75,A2,L,1160.875
83,101,2322.0,B5,R,1161.0
71,96,2322.0,B4,R,1161.0
45,73,2322.0,A2,L,1161.0
43,0,2322.0,G2,L,1161.0
43,90,2322.125,G2,L,1161.0625
43,0,2322.375,G2,L,1161.1875
45,83,2322.375,A2,L,1161.1875
45,0,2322.5,A2,L,1161.25
42,95,2322.5,F#2,L,1161.25
83,0,2322.5,B5,R,1161.25
71,0,2322.5,B4,R,1161.25
42,0,2322.75,F#2,L,1161.375
45,91,2322.75,A2,L,1161.375
69,74,2322.9375,A4,R,1161.46875
81,90,2322.9375,A5,R,1161.46875
81,90,2323.0,A5,R,1161.5
45,0,2323.0,A2,L,1161.5
69,74,2323.0,A4,R,1161.5
81,0,2323.0,A5,R,1161.5
69,0,2323.0,A4,R,1161.5
45,0,2323.0,A2,L,1161.5
42,86,2323.0833333333335,F#2,L,1161.5416666666667
45,72,2323.1666666666665,A2,L,1161.5833333333333
42,0,2323.166666666667,F#2,L,1161.5833333333335
81,0,2323.25,A5,R,1161.625
69,0,2323.25,A4,R,1161.625
78,82,2323.3125,F#5,R,1161.65625
66,61,2323.3125,F#4,R,1161.65625
45,0,2323.333333333333,A2,L,1161.6666666666665
42,79,2323.3333333333335,F#2,L,1161.6666666666667
66,0,2323.5,F#4,R,1161.75
78,0,2323.5,F#5,R,1161.75
42,0,2323.5,F#2,L,1161.75
45,76,2323.5416666666665,A2,L,1161.7708333333333
45,0,2323.583333333333,A2,L,1161.7916666666665
45,76,2323.5833333333335,A2,L,1161.7916666666667
45,0,2323.7083333333335,A2,L,1161.8541666666667
42,73,2323.7083333333335,F#2,L,1161.8541666666667
42,0,2323.75,F#2,L,1161.875
42,73,2323.75,F#2,L,1161.875
62,68,2323.75,D4,R,1161.875
74,85,2323.75,D5,R,1161.875
42,0,2323.875,F#2,L,1161.9375
45,79,2323.875,A2,L,1161.9375
62,0,2324.0,D4,R,1162.0
45,79,2324.0,A2,L,1162.0
45,0,2324.0,A2,L,1162.0
74,0,2324.0,D5,R,1162.0
59,74,2324.125,B3,R,1162.0625
71,88,2324.125,B4,R,1162.0625
42,82,2324.125,F#2,L,1162.0625
45,0,2324.125,A2,L,1162.0625
45,77,2324.375,A2,L,1162.1875
42,0,2324.375,F#2,L,1162.1875
59,0,2324.5,B3,R,1162.25
42,76,2324.5,F#2,L,1162.25
71,0,2324.5,B4,R,1162.25
57,72,2324.5,A3,R,1162.25
45,0,2324.5,A2,L,1162.25
69,75,2324.5,A4,R,1162.25
42,0,2324.6666666666665,F#2,L,1162.3333333333333
45,66,2324.6875,A2,R,1162.34375
69,0,2324.6875,A4,R,1162.34375
57,0,2324.6875,A3,R,1162.34375
45,66,2324.75,A2,R,1162.375
45,0,2324.75,A2,R,1162.375
54,77,2324.8333333333335,F#3,L,1162.4166666666667
42,76,2324.8333333333335,F#2,L,1162.4166666666667
66,67,2324.8333333333335,F#4,R,1162.4166666666667
45,0,2324.8333333333335,A2,R,1162.4166666666667
63,34,2324.9166666666665,D#4,R,1162.4583333333333
66,0,2324.916666666667,F#4,R,1162.4583333333335
63,0,2325.0,D#4,R,1162.5
42,0,2325.0,F#2,L,1162.5
54,0,2325.0,F#3,L,1162.5
45,72,2325.0625,A2,R,1162.53125
62,72,2325.1875,D4,R,1162.59375
45,0,2325.1875,A2,R,1162.59375
50,76,2325.1875,D3,L,1162.59375
42,77,2325.1875,F#2,L,1162.59375
50,0,2325.25,D3,L,1162.625
50,76,2325.25,D3,L,1162.625
62,0,2325.25,D4,R,1162.625
42,77,2325.25,F#2,L,1162.625
42,0,2325.25,F#2,L,1162.625
50,0,2325.5,D3,L,1162.75
42,0,2325.5,F#2,L,1162.75
45,67,2325.5,A2,R,1162.75
43,83,2325.5,G2,L,1162.75
49,75,2325.5,C#3,L,1162.75
61,80,2325.5625,C#4,R,1162.78125
58,37,2325.625,A#3,R,1162.8125
61,0,2325.625,C#4,R,1162.8125
45,77,2325.75,A2,R,1162.875
58,0,2325.75,A#3,R,1162.875
49,0,2326.0,C#3,L,1163.0
45,0,2326.0,A2,R,1163.0
43,67,2326.0,G2,R,1163.0
43,0,2326.0,G2,L,1163.0
45,0,2326.0,A2,R,1163.0
45,74,2326.1875,A2,R,1163.09375
43,0,2326.1875,G2,R,1163.09375
45,0,2326.25,A2,R,1163.125
45,74,2326.25,A2,R,1163.125
40,68,2326.3125,E2,R,1163.15625
45,0,2326.3125,A2,R,1163.15625
40,0,2326.5,E2,R,1163.25
45,70,2326.53125,A2,R,1163.265625
45,0,2326.625,A2,R,1163.3125
43,64,2326.6875,G2,R,1163.34375
43,64,2326.75,G2,R,1163.375
43,0,2326.75,G2,R,1163.375
43,0,2326.875,G2,R,1163.4375
45,65,2326.875,A2,R,1163.4375
43,63,2327.0,G2,R,1163.5
45,0,2327.0,A2,R,1163.5
43,0,2327.25,G2,R,1163.625
45,65,2327.25,A2,R,1163.625
45,0,2327.5,A2,R,1163.75
43,59,2327.5833333333335,G2,R,1163.7916666666667
45,68,2327.6666666666665,A2,R,1163.8333333333333
43,0,2327.666666666667,G2,R,1163.8333333333335
45,0,2327.833333333333,A2,R,1163.9166666666665
43,69,2327.8333333333335,G2,R,1163.9166666666667
43,0,2328.0,G2,R,1164.0
45,77,2328.0,A2,R,1164.0
43,89,2328.25,G2,L,1164.125
43,0,2328.5,G2,L,1164.25
71,95,2328.5,B4,R,1164.25
45,82,2328.5,A2,L,1164.25
83,102,2328.5,B5,R,1164.25
45,0,2328.5,A2,R,1164.25
42,96,2328.625,F#2,L,1164.3125
45,0,2328.625,A2,L,1164.3125
42,0,2328.875,F#2,L,1164.4375
45,87,2328.875,A2,L,1164.4375
71,0,2329.0,B4,R,1164.5
83,0,2329.0,B5,R,1164.5
45,0,2329.0,A2,L,1164.5
42,84,2329.0,F#2,L,1164.5
69,76,2329.0,A4,R,1164.5
81,87,2329.0,A5,R,1164.5
42,0,2329.25,F#2,L,1164.625
45,77,2329.2916666666665,A2,L,1164.6458333333333
66,74,2329.375,F#4,R,1164.6875
69,0,2329.375,A4,R,1164.6875
78,78,2329.375,F#5,R,1164.6875
81,0,2329.375,A5,R,1164.6875
45,0,2329.4166666666665,A2,L,1164.7083333333333
42,73,2329.4166666666665,F#2,L,1164.7083333333333
42,0,2329.5,F#2,L,1164.75
78,0,2329.5,F#5,R,1164.75
66,0,2329.5,F#4,R,1164.75
45,77,2329.625,A2,L,1164.8125
74,67,2329.75,D5,R,1164.875
42,74,2329.75,F#2,L,1164.875
76,61,2329.75,E5,R,1164.875
45,0,2329.75,A2,L,1164.875
62,45,2329.75,D4,R,1164.875
42,0,2330.0,F#2,L,1165.0
62,0,2330.0,D4,R,1165.0
74,0,2330.0,D5,R,1165.0
76,0,2330.0,E5,R,1165.0
45,76,2330.0,A2,L,1165.0
59,68,2330.125,B3,R,1165.0625
71,84,2330.125,B4,R,1165.0625
42,77,2330.1666666666665,F#2,L,1165.0833333333333
45,0,2330.1666666666665,A2,L,1165.0833333333333
42,0,2330.25,F#2,L,1165.125
45,73,2330.375,A2,L,1165.1875
45,0,2330.5,A2,L,1165.25
42,75,2330.5,F#2,L,1165.25
71,0,2330.5,B4,R,1165.25
59,0,2330.5,B3,R,1165.25
57,63,2330.53125,A3,R,1165.265625
69,87,2330.53125,A4,R,1165.265625
57,0,2330.625,A3,R,1165.3125
69,87,2330.625,A4,R,1165.3125
57,63,2330.625,A3,R,1165.3125
69,0,2330.625,A4,R,1165.3125
42,0,2330.75,F#2,L,1165.375
45,75,2330.7916666666665,A2,L,1165.3958333333333
57,0,2330.875,A3,R,1165.4375
69,0,2330.875,A4,R,1165.4375
66,82,2330.90625,F#4,R,1165.453125
63,43,2330.90625,D#4,R,1165.453125
61,38,2330.90625,C#4,R,1165.453125
54,73,2330.90625,F#3,R,1165.453125
45,0,2330.9166666666665,A2,L,1165.4583333333333
42,73,2330.9166666666665,F#2,L,1165.4583333333333
54,0,2331.0,F#3,R,1165.5
61,0,2331.0,C#4,R,1165.5
63,0,2331.0,D#4,R,1165.5
42,0,2331.0,F#2,L,1165.5
66,0,2331.0,F#4,R,1165.5
45,72,2331.125,A2,L,1165.5625
50,87,2331.25,D3,R,1165.625
62,90,2331.25,D4,R,1165.625
42,75,2331.25,F#2,L,1165.625
45,0,2331.5,A2,L,1165.75
49,75,2331.625,C#3,L,1165.8125
33,57,2331.75,A1,L,1165.875
62,0,2331.75,D4,R,1165.875
37,57,2331.75,C#2,R,1165.875
50,0,2331.75,D3,R,1165.875
42,0,2331.75,F#2,L,1165.875
45,66,2331.875,A2,R,1165.9375
45,66,2332.0,A2,R,1166.0
33,0,2332.0,A1,L,1166.0
35,70,2332.0,B1,L,1166.0
37,0,2332.0,C#2,R,1166.0
45,0,2332.0,A2,R,1166.0
47,77,2332.0,B2,R,1166.0
49,0,2332.0,C#3,L,1166.0
47,0,2332.25,B2,R,1166.125
49,78,2332.25,C#3,R,1166.125
35,0,2332.25,B1,L,1166.125
37,76,2332.25,C#2,L,1166.125
49,0,2332.5,C#3,R,1166.25
37,0,2332.5,C#2,L,1166.25
38,68,2332.5,D2,L,1166.25
50,78,2332.5833333333335,D3,R,1166.2916666666667
38,0,2332.625,D2,L,1166.3125
40,72,2332.625,E2,L,1166.3125
50,0,2332.666666666667,D3,R,1166.3333333333335
40,0,2332.75,E2,L,1166.375
52,77,2332.75,E3,L,1166.375
54,80,2332.8333333333335,F#3,R,1166.4166666666667
54,0,2333.0,F#3,R,1166.5
45,0,2333.0,A2,R,1166.5
52,0,2333.0,E3,L,1166.5
42,74,2333.0,F#2,L,1166.5
44,46,2333.0416666666665,G#2,R,1166.5208333333333
43,68,2333.0625,G2,L,1166.53125
42,0,2333.0625,F#2,L,1166.53125
44,0,2333.083333333333,G#2,R,1166.5416666666665
55,73,2333.0833333333335,G3,R,1166.5416666666667
55,0,2333.125,G3,R,1166.5625
55,73,2333.125,G3,R,1166.5625
43,0,2333.25,G2,L,1166.625
45,75,2333.25,A2,L,1166.625
57,78,2333.3125,A3,L,1166.65625
57,0,2333.5,A3,L,1166.75
55,0,2333.5,G3,R,1166.75
47,62,2333.5833333333335,B2,L,1166.7916666666667
59,73,2333.5833333333335,B3,R,1166.7916666666667
61,70,2333.6666666666665,C#4,R,1166.8333333333333
49,67,2333.6666666666665,C#3,L,1166.8333333333333
47,0,2333.666666666667,B2,L,1166.8333333333335
59,0,2333.666666666667,B3,R,1166.8333333333335
61,0,2333.833333333333,C#4,R,1166.9166666666665
49,0,2333.833333333333,C#3,L,1166.9166666666665
62,73,2333.8333333333335,D4,R,1166.9166666666667
50,67,2333.8333333333335,D3,L,1166.9166666666667
52,70,2334.0,E3,L,1167.0
45,0,2334.0,A2,L,1167.0
62,0,2334.0,D4,R,1167.0
50,0,2334.0,D3,L,1167.0
64,79,2334.0,E4,R,1167.0
66,79,2334.25,F#4,R,1167.125
54,71,2334.25,F#3,L,1167.125
55,71,2334.375,G3,L,1167.1875
52,0,2334.375,E3,L,1167.1875
64,0,2334.375,E4,R,1167.1875
67,78,2334.375,G4,R,1167.1875
55,71,2334.5,G3,L,1167.25
55,0,2334.5,G3,L,1167.25
67,0,2334.5,G4,R,1167.25
67,78,2334.5,G4,R,1167.25
69,73,2334.5,A4,R,1167.25
57,78,2334.5,A3,L,1167.25
66,84,2334.75,F#4,R,1167.375
55,0,2334.75,G3,L,1167.375
57,0,2334.75,A3,L,1167.375
54,80,2334.75,F#3,L,1167.375
69,0,2334.75,A4,R,1167.375
67,0,2334.75,G4,R,1167.375
54,0,2335.0,F#3,L,1167.5
54,0,2335.0,F#3,L,1167.5
66,0,2335.0,F#4,R,1167.5
66,0,2335.0,F#4,R,1167.5
55,67,2335.0714285714284,G3,L,1167.5357142857142
67,75,2335.0833333333335,G4,R,1167.5416666666667
55,0,2335.142857142857,G3,L,1167.5714285714284
57,70,2335.1428571428573,A3,L,1167.5714285714287
69,77,2335.1666666666665,A4,R,1167.5833333333333
67,0,2335.166666666667,G4,R,1167.5833333333335
57,0,2335.2857142857147,A3,L,1167.6428571428573
69,0,2335.333333333333,A4,R,1167.6666666666665
71,74,2335.3333333333335,B4,R,1167.6666666666667
59,74,2335.3571428571427,B3,L,1167.6785714285713
71,0,2335.5,B4,R,1167.75
73,79,2335.5,C#5,R,1167.75
61,67,2335.5714285714284,C#4,L,1167.7857142857142
59,0,2335.5714285714284,B3,L,1167.7857142857142
61,0,2335.714285714286,C#4,L,1167.857142857143
62,71,2335.714285714286,D4,L,1167.857142857143
73,0,2335.75,C#5,R,1167.875
74,77,2335.7916666666665,D5,R,1167.8958333333333
62,0,2335.857142857143,D4,L,1167.9285714285716
74,0,2335.9166666666665,D5,R,1167.9583333333333
76,80,2335.9166666666665,E5,R,1167.9583333333333
64,72,2335.9285714285716,E4,L,1167.9642857142858
78,83,2336.0,F#5,R,1168.0
64,0,2336.0,E4,L,1168.0
64,72,2336.0,E4,L,1168.0
66,79,2336.0,F#4,L,1168.0
76,0,2336.0,E5,R,1168.0
79,80,2336.25,G5,R,1168.125
78,0,2336.25,F#5,R,1168.125
66,0,2336.25,F#4,L,1168.125
64,0,2336.25,E4,L,1168.125
67,73,2336.25,G4,L,1168.125
67,0,2336.375,G4,L,1168.1875
69,74,2336.4375,A4,L,1168.21875
81,77,2336.5,A5,R,1168.25
69,0,2336.5,A4,L,1168.25
69,74,2336.5,A4,L,1168.25
79,0,2336.5,G5,R,1168.25
81,0,2336.5833333333335,A5,R,1168.2916666666667
83,80,2336.5833333333335,B5,R,1168.2916666666667
71,68,2336.625,B4,L,1168.3125
69,0,2336.625,A4,L,1168.3125
71,0,2336.75,B4,L,1168.375
73,81,2336.75,C#5,L,1168.375
83,0,2336.8333333333335,B5,R,1168.4166666666667
85,79,2336.8333333333335,C#6,R,1168.4166666666667
73,0,2337.0,C#5,L,1168.5
74,79,2337.0,D5,L,1168.5
85,0,2337.0,C#6,R,1168.5
86,80,2337.0,D6,R,1168.5
74,0,2337.15,D5,L,1168.575
73,87,2337.15,C#5,L,1168.575
86,0,2337.1666666666665,D6,R,1168.5833333333333
85,87,2337.1666666666665,C#6,R,1168.5833333333333
73,0,2337.3,C#5,L,1168.65
74,76,2337.35,D5,L,1168.675
81,88,2337.4,A5,L,1168.7
74,0,2337.4,D5,L,1168.7
85,0,2337.5,C#6,R,1168.75
69,69,2337.5,A4,L,1168.75
81,0,2337.5,A5,L,1168.75
69,0,2337.6666666666665,A4,L,1168.8333333333333
71,89,2337.6666666666665,B4,L,1168.8333333333333
71,0,2337.75,B4,L,1168.875
71,89,2337.75,B4,L,1168.875
71,0,2338.0,B4,L,1169.0
71,89,2338.0,B4,L,1169.0
83,93,2338.0,B5,R,1169.0
83,0,2340.0,B5,R,1170.0
71,0,2340.0,B4,L,1170.0
64,31,2341.5,E4,L,1170.75
67,48,2341.5833333333335,G4,R,1170.7916666666667
67,0,2341.666666666667,G4,R,1170.8333333333335
69,55,2341.8333333333335,A4,R,1170.9166666666667
64,0,2342.0,E4,L,1171.0
66,48,2342.0,F#4,L,1171.0
69,0,2342.0,A4,R,1171.0
69,55,2342.0,A4,R,1171.0
66,0,2342.25,F#4,L,1171.125
69,0,2342.25,A4,R,1171.125
67,55,2342.25,G4,L,1171.125
71,65,2342.25,B4,R,1171.125
67,0,2342.5,G4,L,1171.25
71,0,2342.5,B4,R,1171.25
64,55,2342.5,E4,L,1171.25
67,56,2342.5625,G4,R,1171.28125
67,0,2342.75,G4,R,1171.375
64,0,2343.0,E4,L,1171.5
72,66,2343.0,C5,R,1171.5
69,48,2343.5,A4,R,1171.75
72,0,2343.5,C5,R,1171.75
72,66,2343.5,C5,R,1171.75
69,48,2344.0,A4,R,1172.0
72,0,2344.0,C5,R,1172.0
72,66,2344.0,C5,R,1172.0
69,0,2344.0,A4,R,1172.0
71,55,2344.3333333333335,B4,R,1172.1666666666667
69,0,2344.3333333333335,A4,R,1172.1666666666667
67,51,2344.3333333333335,G4,L,1172.1666666666667
72,0,2344.3333333333335,C5,R,1172.1666666666667
66,60,2344.6666666666665,F#4,L,1172.3333333333333
69,61,2344.6666666666665,A4,R,1172.3333333333333
67,0,2344.666666666667,G4,L,1172.3333333333335
71,0,2344.666666666667,B4,R,1172.3333333333335
67,56,2345.0,G4,L,1172.5
66,0,2345.0,F#4,L,1172.5
66,60,2345.0,F#4,L,1172.5
69,0,2345.0,A4,R,1172.5
71,61,2345.0,B4,R,1172.5
66,0,2345.5,F#4,L,1172.75
67,0,2345.5,G4,L,1172.75
69,54,2345.5,A4,L,1172.75
71,0,2345.5,B4,R,1172.75
72,65,2345.5,C5,R,1172.75
69,0,2345.75,A4,L,1172.875
69,50,2345.875,A4,R,1172.9375
66,62,2345.875,F#4,L,1172.9375
72,0,2345.875,C5,R,1172.9375
66,0,2346.0,F#4,L,1173.0
69,0,2346.0,A4,R,1173.0
59,66,2346.5,B3,R,1173.25
55,61,2346.5,G3,L,1173.25
59,0,2347.0,B3,R,1173.5
55,0,2347.0,G3,L,1173.5
71,60,2347.25,B4,R,1173.625
64,49,2347.25,E4,L,1173.625
71,0,2348.0,B4,R,1174.0
56,57,2348.0,G#3,L,1174.0
64,0,2348.0,E4,L,1174.0
59,55,2348.0,B3,R,1174.0
59,0,2348.75,B3,R,1174.375
56,0,2348.75,G#3,L,1174.375
64,54,2348.875,E4,L,1174.4375
71,48,2348.875,B4,L,1174.4375
74,60,2348.875,D5,R,1174.4375
74,60,2349.0,D5,R,1174.5
74,0,2349.0,D5,R,1174.5
64,0,2349.0,E4,L,1174.5
71,0,2349.0,B4,L,1174.5
64,54,2349.0,E4,L,1174.5
71,48,2349.0,B4,L,1174.5
62,46,2349.75,D4,R,1174.875
57,46,2349.75,A3,L,1174.875
64,0,2349.75,E4,L,1174.875
71,0,2349.75,B4,L,1174.875
74,0,2349.75,D5,R,1174.875
62,0,2350.0,D4,R,1175.0
57,0,2350.0,A3,L,1175.0
74,61,2350.4375,D5,R,1175.21875
74,0,2350.5,D5,R,1175.25
69,33,2350.5,A4,R,1175.25
74,61,2350.5,D5,R,1175.25
66,55,2350.5,F#4,L,1175.25
66,0,2351.0,F#4,L,1175.5
69,0,2351.0,A4,R,1175.5
74,0,2351.0,D5,R,1175.5
47,58,2351.3333333333335,B2,L,1175.6666666666667
59,57,2351.3333333333335,B3,R,1175.6666666666667
57,59,2351.6666666666665,A3,R,1175.8333333333333
45,54,2351.6666666666665,A2,L,1175.8333333333333
59,0,2351.666666666667,B3,R,1175.8333333333335
47,0,2351.666666666667,B2,L,1175.8333333333335
55,66,2352.0,G3,R,1176.0
43,60,2352.0,G2,L,1176.0
45,0,2352.0,A2,L,1176.0
57,0,2352.0,A3,R,1176.0
55,0,2352.5,G3,R,1176.25
57,70,2352.5,A3,R,1176.25
45,68,2352.5,A2,L,1176.25
43,0,2352.5,G2,L,1176.25
38,81,2352.75,D2,L,1176.375
57,0,2352.75,A3,R,1176.375
50,75,2352.875,D3,R,1176.4375
38,0,2353.0,D2,L,1176.5
38,81,2353.0,D2,L,1176.5
50,0,2353.0,D3,R,1176.5
45,0,2353.0,A2,L,1176.5
42,81,2353.0,F#2,L,1176.5
54,68,2353.125,F#3,R,1176.5625
55,77,2353.25,G3,R,1176.625
54,0,2353.25,F#3,R,1176.625
38,0,2353.25,D2,L,1176.625
43,62,2353.25,G2,L,1176.625
45,76,2353.375,A2,L,1176.6875
42,0,2353.375,F#2,L,1176.6875
55,0,2353.5,G3,R,1176.75
45,0,2353.5,A2,L,1176.75
43,0,2353.5,G2,L,1176.75
47,76,2353.5,B2,L,1176.75
45,76,2353.5,A2,L,1176.75
57,76,2353.5833333333335,A3,R,1176.7916666666667
59,73,2353.6666666666665,B3,R,1176.8333333333333
57,0,2353.666666666667,A3,R,1176.8333333333335
49,71,2353.75,C#3,L,1176.875
45,0,2353.75,A2,L,1176.875
59,0,2353.833333333333,B3,R,1176.9166666666665
61,70,2353.8333333333335,C#4,R,1176.9166666666667
49,0,2354.0,C#3,L,1177.0
47,0,2354.0,B2,L,1177.0
49,71,2354.0,C#3,L,1177.0
61,0,2354.0,C#4,R,1177.0
62,75,2354.0,D4,R,1177.0
50,76,2354.0,D3,L,1177.0
50,0,2354.25,D3,L,1177.125
52,73,2354.25,E3,L,1177.125
64,84,2354.25,E4,R,1177.125
62,0,2354.25,D4,R,1177.125
49,0,2354.25,C#3,L,1177.125
64,0,2354.5,E4,R,1177.25
52,0,2354.5,E3,L,1177.25
54,73,2354.5,F#3,L,1177.25
66,85,2354.5833333333335,F#4,R,1177.2916666666667
67,84,2354.6666666666665,G4,R,1177.3333333333333
66,0,2354.666666666667,F#4,R,1177.3333333333335
54,0,2354.75,F#3,L,1177.375
55,70,2354.75,G3,L,1177.375
67,0,2354.833333333333,G4,R,1177.4166666666665
69,74,2354.8333333333335,A4,R,1177.4166666666667
55,0,2354.875,G3,L,1177.4375
57,78,2354.875,A3,L,1177.4375
69,0,2355.0,A4,R,1177.5
57,0,2355.0,A3,L,1177.5
57,78,2355.0,A3,L,1177.5
62,81,2355.125,D4,R,1177.5625
57,0,2355.125,A3,L,1177.5625
50,83,2355.125,D3,L,1177.5625
64,80,2355.375,E4,R,1177.6875
62,0,2355.375,D4,R,1177.6875
52,51,2355.375,E3,L,1177.6875
54,68,2355.5,F#3,L,1177.75
50,0,2355.5,D3,L,1177.75
64,0,2355.5,E4,R,1177.75
52,0,2355.5,E3,L,1177.75
52,51,2355.5,E3,L,1177.75
66,83,2355.5416666666665,F#4,R,1177.7708333333333
66,0,2355.6666666666665,F#4,R,1177.8333333333333
67,79,2355.7083333333335,G4,R,1177.8541666666667
67,79,2355.75,G4,R,1177.875
67,0,2355.75,G4,R,1177.875
54,0,2355.75,F#3,L,1177.875
55,63,2355.75,G3,L,1177.875
55,0,2355.875,G3,L,1177.9375
57,75,2355.875,A3,L,1177.9375
69,82,2355.875,A4,R,1177.9375
71,72,2356.0,B4,R,1178.0
69,0,2356.0,A4,R,1178.0
67,0,2356.0,G4,R,1178.0
69,82,2356.0,A4,R,1178.0
57,0,2356.0,A3,L,1178.0
59,68,2356.0,B3,L,1178.0
52,0,2356.0,E3,L,1178.0
59,0,2356.25,B3,L,1178.125
61,77,2356.25,C#4,L,1178.125
71,0,2356.25,B4,R,1178.125
73,81,2356.2916666666665,C#5,R,1178.1458333333333
73,0,2356.4166666666665,C#5,R,1178.2083333333333
74,78,2356.4583333333335,D5,R,1178.2291666666667
74,78,2356.5,D5,R,1178.25
74,0,2356.5,D5,R,1178.25
61,0,2356.5,C#4,L,1178.25
62,71,2356.5,D4,L,1178.25
74,0,2356.625,D5,R,1178.3125
76,81,2356.625,E5,R,1178.3125
64,78,2356.625,E4,L,1178.3125
66,81,2356.75,F#4,L,1178.375
62,0,2356.75,D4,L,1178.375
76,0,2356.75,E5,R,1178.375
76,81,2356.75,E5,R,1178.375
78,86,2356.8125,F#5,R,1178.40625
76,0,2356.8125,E5,R,1178.40625
64,0,2357.0,E4,L,1178.5
66,0,2357.0,F#4,L,1178.5
67,76,2357.0,G4,L,1178.5
78,0,2357.0,F#5,R,1178.5
79,77,2357.0,G5,R,1178.5
69,0,2357.0,A4,R,1178.5
69,74,2357.1666666666665,A4,L,1178.5833333333333
67,0,2357.1666666666665,G4,L,1178.5833333333333
81,85,2357.25,A5,R,1178.625
79,0,2357.25,G5,R,1178.625
69,0,2357.333333333333,A4,L,1178.6666666666665
71,66,2357.3333333333335,B4,L,1178.6666666666667
83,86,2357.375,B5,R,1178.6875
83,86,2357.5,B5,R,1178.75
85,86,2357.5,C#6,R,1178.75
81,0,2357.5,A5,R,1178.75
83,0,2357.5,B5,R,1178.75
71,0,2357.5,B4,L,1178.75
73,80,2357.5,C#5,L,1178.75
86,77,2357.75,D6,R,1178.875
85,0,2357.75,C#6,R,1178.875
73,0,2357.75,C#5,L,1178.875
74,76,2357.75,D5,L,1178.875
88,87,2358.0,E6,R,1179.0
86,0,2358.0,D6,R,1179.0
74,0,2358.0,D5,L,1179.0
76,78,2358.0,E5,L,1179.0
83,0,2358.0,B5,R,1179.0
78,81,2358.1666666666665,F#5,L,1179.0833333333333
76,0,2358.1666666666665,E5,L,1179.0833333333333
90,94,2358.2,F#6,R,1179.1
88,0,2358.2,E6,R,1179.1
90,0,2358.3999999999996,F#6,R,1179.1999999999998
91,99,2358.4,G6,R,1179.2
79,73,2358.4166666666665,G5,L,1179.2083333333333
78,0,2358.4166666666665,F#5,L,1179.2083333333333
79,73,2358.5,G5,L,1179.25
79,0,2358.5,G5,L,1179.25
93,104,2358.6,A6,R,1179.3
91,0,2358.6,G6,R,1179.3
81,76,2358.625,A5,L,1179.3125
79,0,2358.625,G5,L,1179.3125
82,81,2359.0,A#5,L,1179.5
79,80,2359.0,G5,L,1179.5
93,0,2359.0,A6,R,1179.5
96,106,2359.0,C7,R,1179.5
81,0,2359.0,A5,L,1179.5
96,0,2359.5,C7,R,1179.75
94,108,2359.5,A#6,R,1179.75
79,80,2360.0,G5,L,1180.0
94,108,2360.0,A#6,R,1180.0
82,81,2360.0,A#5,L,1180.0
94,0,2360.0,A#6,R,1180.0
82,0,2360.0,A#5,L,1180.0
79,0,2360.0,G5,L,1180.0
82,0,2361.0,A#5,L,1180.5
79,0,2361.0,G5,L,1180.5
94,0,2362.0,A#6,R,1181.0
94,108,2362.0,A#6,R,1181.0
94,0,2362.3333333333335,A#6,R,1181.1666666666667
93,50,2362.3333333333335,A6,R,1181.1666666666667
96,66,2362.6666666666665,C7,R,1181.3333333333333
93,0,2362.666666666667,A6,R,1181.3333333333335
96,0,2363.333333333333,C7,R,1181.6666666666665
94,73,2363.3333333333335,A#6,R,1181.6666666666667
93,74,2363.6666666666665,A6,R,1181.8333333333333
94,0,2363.666666666667,A#6,R,1181.8333333333335
93,0,2364.0,A6,R,1182.0
96,69,2364.0,C7,R,1182.0
94,75,2364.5,A#6,R,1182.25
96,0,2364.75,C7,R,1182.375
93,75,2364.75,A6,R,1182.375
91,62,2365.0,G6,R,1182.5
94,0,2365.0,A#6,R,1182.5
93,0,2365.0,A6,R,1182.5
91,0,2365.5,G6,R,1182.75
90,52,2365.5,F#6,R,1182.75
90,0,2366.0,F#6,R,1183.0
89,54,2366.0,F6,R,1183.0
89,0,2366.25,F6,R,1183.125
88,58,2366.25,E6,R,1183.125
88,0,2366.5,E6,R,1183.25
86,62,2366.5,D6,R,1183.25
86,0,2367.0,D6,R,1183.5
85,51,2367.0,C#6,R,1183.5
85,0,2367.5,C#6,R,1183.75
84,52,2367.5,C6,R,1183.75
83,51,2367.75,B5,R,1183.875
84,0,2367.75,C6,R,1183.875
83,0,2368.0,B5,R,1184.0
82,47,2368.125,A#5,R,1184.0625
82,0,2368.375,A#5,R,1184.1875
84,59,2368.375,C6,R,1184.1875
84,0,2368.5,C6,R,1184.25
82,58,2368.625,A#5,R,1184.3125
82,0,2368.875,A#5,R,1184.4375
81,55,2368.875,A5,R,1184.4375
81,0,2369.0,A5,R,1184.5
82,60,2369.125,A#5,R,1184.5625
82,0,2369.375,A#5,R,1184.6875
83,56,2369.375,B5,R,1184.6875
83,0,2369.5,B5,R,1184.75
84,58,2369.625,C6,R,1184.8125
85,59,2369.75,C#6,R,1184.875
84,0,2369.75,C6,R,1184.875
85,0,2370.0,C#6,R,1185.0
86,66,2370.0,D6,R,1185.0
86,0,2370.1666666666665,D6,R,1185.0833333333333
87,57,2370.1666666666665,D#6,R,1185.0833333333333
87,0,2370.333333333333,D#6,R,1185.1666666666665
88,68,2370.3333333333335,E6,R,1185.1666666666667
89,65,2370.5,F6,R,1185.25
88,0,2370.5,E6,R,1185.25
89,0,2370.625,F6,R,1185.3125
90,64,2370.6875,F#6,R,1185.34375
90,0,2370.75,F#6,R,1185.375
91,66,2370.875,G6,R,1185.4375
91,0,2371.0,G6,R,1185.5
92,66,2371.0,G#6,R,1185.5
92,0,2371.125,G#6,R,1185.5625
93,68,2371.1875,A6,R,1185.59375
93,68,2371.25,A6,R,1185.625
93,0,2371.25,A6,R,1185.625
93,0,2371.375,A6,R,1185.6875
94,73,2371.375,A#6,R,1185.6875
94,0,2371.5,A#6,R,1185.75
93,74,2371.5,A6,R,1185.75
93,0,2371.75,A6,R,1185.875
96,70,2371.75,C7,R,1185.875
96,0,2371.875,C7,R,1185.9375
94,74,2371.875,A#6,R,1185.9375
94,0,2372.0,A#6,R,1186.0
94,74,2372.0,A#6,R,1186.0
92,66,2372.125,G#6,R,1186.0625
94,0,2372.125,A#6,R,1186.0625
92,0,2372.25,G#6,R,1186.125
91,65,2372.3125,G6,R,1186.15625
91,0,2372.5,G6,R,1186.25
94,71,2372.5,A#6,R,1186.25
94,0,2372.625,A#6,R,1186.3125
92,75,2372.625,G#6,R,1186.3125
92,0,2372.75,G#6,R,1186.375
91,69,2372.8125,G6,R,1186.40625
91,0,2373.0,G6,R,1186.5
89,67,2373.0,F6,R,1186.5
89,0,2373.1666666666665,F6,R,1186.5833333333333
87,68,2373.1666666666665,D#6,R,1186.5833333333333
87,0,2373.333333333333,D#6,R,1186.6666666666665
86,72,2373.3333333333335,D6,R,1186.6666666666667
86,0,2373.5,D6,R,1186.75
89,67,2373.5,F6,R,1186.75
89,0,2373.6666666666665,F6,R,1186.8333333333333
87,80,2373.6666666666665,D#6,R,1186.8333333333333
87,0,2373.833333333333,D#6,R,1186.9166666666665
86,72,2373.8333333333335,D6,R,1186.9166666666667
86,0,2374.0,D6,R,1187.0
89,72,2374.1,F6,R,1187.05
89,0,2374.2,F6,R,1187.1
87,78,2374.2,D#6,R,1187.1
87,0,2374.3999999999996,D#6,R,1187.1999999999998
86,69,2374.4,D6,R,1187.2
84,66,2374.6,C6,R,1187.3
86,0,2374.6,D6,R,1187.3
84,0,2374.7999999999997,C6,R,1187.3999999999999
82,67,2374.8,A#5,R,1187.4
82,0,2375.0,A#5,R,1187.5
80,74,2375.0,G#5,R,1187.5
80,0,2375.5,G#5,R,1187.75
79,70,2375.5,G5,R,1187.75
74,70,2375.75,D5,R,1187.875
75,68,2376.0,D#5,R,1188.0
74,70,2376.0,D5,R,1188.0
79,0,2376.0,G5,R,1188.0
74,0,2376.0,D5,R,1188.0
75,0,2376.5,D#5,R,1188.25
79,61,2376.5,G5,R,1188.25
74,0,2377.0,D5,R,1188.5
79,0,2377.0,G5,R,1188.5
72,70,2377.0,C5,R,1188.5
72,0,2377.25,C5,R,1188.625
74,61,2377.25,D5,R,1188.625
74,0,2377.5,D5,R,1188.75
75,67,2377.5833333333335,D#5,R,1188.7916666666667
77,69,2377.6666666666665,F5,R,1188.8333333333333
75,0,2377.666666666667,D#5,R,1188.8333333333335
77,0,2377.833333333333,F5,R,1188.9166666666665
79,75,2377.8333333333335,G5,R,1188.9166666666667
79,0,2378.0,G5,R,1189.0
80,76,2378.1,G#5,R,1189.05
80,0,2378.2,G#5,R,1189.1
82,74,2378.2,A#5,R,1189.1
82,0,2378.3999999999996,A#5,R,1189.1999999999998
84,75,2378.4,C6,R,1189.2
84,0,2378.8,C6,R,1189.4
82,73,2378.8,A#5,R,1189.4
82,0,2379.0,A#5,R,1189.5
81,68,2379.0,A5,R,1189.5
82,73,2379.0,A#5,R,1189.5
82,0,2379.5,A#5,R,1189.75
84,74,2379.5,C6,R,1189.75
81,0,2379.5,A5,R,1189.75
84,0,2380.0,C6,R,1190.0
82,75,2380.0,A#5,R,1190.0
81,61,2382.0,A5,L,1191.0
51,47,2382.0,D#3,R,1191.0
79,69,2382.5,G5,L,1191.25
81,0,2382.5,A5,L,1191.25
79,0,2383.0,G5,L,1191.5
82,0,2383.0,A#5,R,1191.5
51,0,2383.0,D#3,R,1191.5
51,47,2383.0,D#3,R,1191.5
77,69,2383.1666666666665,F5,L,1191.5833333333333
77,0,2383.333333333333,F5,L,1191.6666666666665
53,42,2383.3333333333335,F3,L,1191.6666666666667
51,0,2383.3333333333335,D#3,R,1191.6666666666667
75,62,2383.3333333333335,D#5,R,1191.6666666666667
74,64,2383.6666666666665,D5,R,1191.8333333333333
75,0,2383.666666666667,D#5,R,1191.8333333333335
53,0,2384.0,F3,L,1192.0
53,42,2384.0,F3,L,1192.0
72,62,2384.0,C5,R,1192.0
74,0,2384.0,D5,R,1192.0
70,48,2384.5,A#4,R,1192.25
72,0,2384.5,C5,R,1192.25
53,0,2385.0,F3,L,1192.5
65,53,2385.0,F4,R,1192.5
70,0,2385.0,A#4,R,1192.5
41,43,2385.0,F2,L,1192.5
70,67,2385.375,A#4,R,1192.6875
65,0,2385.375,F4,R,1192.6875
70,0,2385.5,A#4,R,1192.75
70,67,2385.5,A#4,R,1192.75
69,62,2385.75,A4,R,1192.875
41,0,2386.0,F2,L,1193.0
70,0,2386.0,A#4,R,1193.0
41,40,2386.0,F2,L,1193.0
72,59,2386.0,C5,R,1193.0
69,62,2386.0,A4,R,1193.0
69,0,2386.0,A4,R,1193.0
72,0,2386.5,C5,R,1193.25
70,61,2386.625,A#4,R,1193.3125
69,0,2387.0,A4,R,1193.5
34,44,2387.0,A#1,R,1193.5
70,0,2387.0,A#4,R,1193.5
74,67,2387.25,D5,R,1193.625
70,56,2387.5,A#4,R,1193.75
34,0,2387.5,A#1,R,1193.75
67,53,2387.75,G4,R,1193.875
74,0,2387.75,D5,R,1193.875
70,0,2388.0,A#4,R,1194.0
41,0,2388.0,F2,L,1194.0
67,53,2388.0,G4,R,1194.0
67,0,2388.0,G4,R,1194.0
41,45,2388.0,F2,L,1194.0
65,53,2388.0,F4,R,1194.0
70,55,2388.5,A#4,R,1194.25
67,0,2388.5,G4,R,1194.25
65,0,2388.5,F4,R,1194.25
41,0,2389.0,F2,L,1194.5
69,55,2389.0,A4,R,1194.5
70,0,2389.0,A#4,R,1194.5
72,60,2389.5,C5,R,1194.75
69,0,2389.5,A4,R,1194.75
70,56,2389.75,A#4,R,1194.875
72,0,2389.75,C5,R,1194.875
41,45,2390.0,F2,L,1195.0
34,44,2390.0,A#1,L,1195.0
70,56,2390.0,A#4,R,1195.0
70,0,2390.0,A#4,R,1195.0
70,0,2390.25,A#4,R,1195.125
74,56,2390.25,D5,R,1195.125
74,0,2390.5,D5,R,1195.25
70,48,2390.5,A#4,R,1195.25
41,0,2391.0,F2,L,1195.5
70,0,2391.0,A#4,R,1195.5
34,0,2391.0,A#1,L,1195.5
67,36,2391.0833333333335,G4,R,1195.5416666666667
67,0,2391.166666666667,G4,R,1195.5833333333335
77,55,2391.4166666666665,F5,R,1195.7083333333333
29,47,2391.5,F1,L,1195.75
77,0,2391.5,F5,R,1195.75
77,55,2391.5,F5,R,1195.75
34,48,2391.75,A#1,L,1195.875
82,60,2391.75,A#5,R,1195.875
81,68,2392.0,A5,R,1196.0
34,48,2392.0,A#1,L,1196.0
33,68,2392.0,A1,L,1196.0
29,0,2392.0,F1,L,1196.0
34,0,2392.0,A#1,L,1196.0
82,60,2392.0,A#5,R,1196.0
82,0,2392.0,A#5,R,1196.0
77,0,2392.0,F5,R,1196.0
81,0,2392.5,A5,R,1196.25
34,0,2392.5,A#1,L,1196.25
33,0,2392.5,A1,L,1196.25
36,70,2392.5,C2,L,1196.25
84,70,2392.5,C6,R,1196.25
34,60,2393.0,A#1,L,1196.5
36,0,2393.0,C2,L,1196.5
84,0,2393.0,C6,R,1196.5
82,63,2393.0,A#5,R,1196.5
82,0,2393.0,A#5,R,1196.5
82,0,2393.375,A#5,R,1196.6875
86,60,2393.375,D6,R,1196.6875
86,60,2393.5,D6,R,1196.75
86,0,2393.5,D6,R,1196.75
34,0,2393.5,A#1,L,1196.75
38,58,2393.5,D2,L,1196.75
38,0,2393.75,D2,L,1196.875
86,0,2393.75,D6,R,1196.875
82,62,2393.75,A#5,R,1196.875
34,51,2393.75,A#1,L,1196.875
82,62,2394.0,A#5,R,1197.0
34,51,2394.0,A#1,L,1197.0
34,0,2394.0,A#1,L,1197.0
82,0,2394.0,A#5,R,1197.0
79,61,2394.125,G5,R,1197.0625
82,0,2394.125,A#5,R,1197.0625
31,53,2394.25,G1,R,1197.125
34,0,2394.5,A#1,L,1197.25
29,56,2394.5,F1,L,1197.25
31,0,2394.5,G1,R,1197.25
79,0,2394.5,G5,R,1197.25
77,60,2394.5,F5,R,1197.25
77,0,2395.0,F5,R,1197.5
29,0,2395.0,F1,L,1197.5
34,61,2395.1666666666665,A#1,L,1197.5833333333333
82,71,2395.1666666666665,A#5,R,1197.5833333333333
34,0,2395.333333333333,A#1,L,1197.6666666666665
82,0,2395.333333333333,A#5,R,1197.6666666666665
81,71,2395.3333333333335,A5,R,1197.6666666666667
33,69,2395.3333333333335,A1,L,1197.6666666666667
84,70,2395.6666666666665,C6,R,1197.8333333333333
36,65,2395.6666666666665,C2,L,1197.8333333333333
81,0,2395.666666666667,A5,R,1197.8333333333335
33,0,2395.666666666667,A1,L,1197.8333333333335
82,71,2396.0,A#5,R,1198.0
84,0,2396.0,C6,R,1198.0
36,0,2396.0,C2,L,1198.0
34,62,2396.0,A#1,L,1198.0
86,74,2396.4,D6,R,1198.2
34,0,2396.4,A#1,L,1198.2
38,64,2396.4,D2,L,1198.2
82,0,2396.4,A#5,R,1198.2
86,0,2396.8,D6,R,1198.4
38,0,2396.8,D2,L,1198.4
36,74,2396.8,C2,L,1198.4
84,96,2396.8,C6,R,1198.4
87,72,2397.2,D#6,R,1198.6
39,66,2397.2,D#2,L,1198.6
84,0,2397.2000000000003,C6,R,1198.6000000000001
36,0,2397.2000000000003,C2,L,1198.6000000000001
37,65,2397.6,C#2,L,1198.8
87,0,2397.6,D#6,R,1198.8
85,74,2397.6,C#6,R,1198.8
39,0,2397.6,D#2,L,1198.8
88,81,2398.0,E6,R,1199.0
85,0,2398.0,C#6,R,1199.0
37,0,2398.0,C#2,L,1199.0
40,65,2398.0,E2,L,1199.0
40,0,2398.285714285714,E2,L,1199.142857142857
38,77,2398.285714285714,D2,L,1199.142857142857
86,96,2398.3333333333335,D6,R,1199.1666666666667
88,0,2398.3333333333335,E6,R,1199.1666666666667
89,82,2398.6666666666665,F6,R,1199.3333333333333
86,0,2398.666666666667,D6,R,1199.3333333333335
38,0,2398.714285714286,D2,L,1199.357142857143
41,71,2398.714285714286,F2,L,1199.357142857143
89,0,2399.0,F6,R,1199.5
88,82,2399.0,E6,R,1199.5
41,0,2399.1428571428573,F2,L,1199.5714285714287
40,70,2399.1428571428573,E2,L,1199.5714285714287
40,0,2399.4285714285716,E2,L,1199.7142857142858
43,68,2399.4285714285716,G2,L,1199.7142857142858
91,85,2399.5,G6,R,1199.75
88,0,2399.5,E6,R,1199.75
89,100,2399.75,F6,R,1199.875
41,75,2399.8571428571427,F2,L,1199.9285714285713
43,0,2399.857142857143,G2,L,1199.9285714285716
95,2,2400.0,B6,R,1200.0
89,100,2400.0,F6,R,1200.0
89,0,2400.0,F6,R,1200.0
91,0,2400.0,G6,R,1200.0
41,0,2400.0,F2,L,1200.0
44,71,2400.0,G#2,L,1200.0
41,75,2400.0,F2,L,1200.0
95,0,2400.25,B6,R,1200.125
92,85,2400.25,G#6,R,1200.125
42,72,2400.5,F#2,L,1200.25
44,0,2400.5,G#2,L,1200.25
92,85,2400.5,G#6,R,1200.25
41,0,2400.5,F2,L,1200.25
90,82,2400.5,F#6,R,1200.25
92,0,2400.5,G#6,R,1200.25
92,0,2401.0,G#6,R,1200.5
90,0,2401.0,F#6,R,1200.5
45,72,2401.0,A2,L,1200.5
89,0,2401.0,F6,R,1200.5
42,0,2401.0,F#2,L,1200.5
93,87,2401.0,A6,R,1200.5
43,77,2401.3333333333335,G2,L,1200.6666666666667
45,0,2401.3333333333335,A2,L,1200.6666666666667
93,0,2401.5,A6,R,1200.75
91,101,2401.5,G6,R,1200.75
46,69,2401.6666666666665,A#2,L,1200.8333333333333
43,0,2401.666666666667,G2,L,1200.8333333333335
94,87,2401.75,A#6,R,1200.875
94,0,2402.0,A#6,R,1201.0
46,0,2402.0,A#2,L,1201.0
46,69,2402.0,A#2,L,1201.0
91,0,2402.0,G6,R,1201.0
94,87,2402.0,A#6,R,1201.0
92,85,2402.0,G#6,R,1201.0
44,71,2402.2,G#2,L,1201.1
46,0,2402.2,A#2,L,1201.1
44,0,2402.3999999999996,G#2,L,1201.1999999999998
47,68,2402.4,B2,L,1201.2
92,0,2402.5,G#6,R,1201.25
95,87,2402.5833333333335,B6,R,1201.2916666666667
47,0,2402.8,B2,L,1201.4
45,76,2402.8,A2,L,1201.4
93,92,2402.8333333333335,A6,R,1201.4166666666667
95,0,2402.8333333333335,B6,R,1201.4166666666667
93,0,2403.0,A6,R,1201.5
94,0,2403.0,A#6,R,1201.5
50,87,2403.2,D3,L,1201.6
45,0,2403.2000000000003,A2,L,1201.6000000000001
93,103,2403.25,A6,R,1201.625
81,78,2403.25,A5,R,1201.625
49,80,2403.6,C#3,L,1201.8
50,0,2403.6,D3,L,1201.8
52,82,2404.0,E3,L,1202.0
93,0,2404.0,A6,R,1202.0
81,94,2404.0,A5,R,1202.0
93,106,2404.0,A6,R,1202.0
49,0,2404.0,C#3,L,1202.0
81,0,2404.0,A5,R,1202.0
52,0,2404.4,E3,L,1202.2
50,80,2404.4,D3,L,1202.2
81,0,2404.75,A5,R,1202.375
93,0,2404.75,A6,R,1202.375
81,91,2404.78125,A5,R,1202.390625
93,100,2404.78125,A6,R,1202.390625
50,0,2404.8,D3,L,1202.4
54,84,2404.8,F#3,L,1202.4
93,0,2404.875,A6,R,1202.4375
81,0,2404.875,A5,R,1202.4375
50,75,2405.2,D3,L,1202.6
54,0,2405.2000000000003,F#3,L,1202.6000000000001
81,93,2405.5,A5,R,1202.75
93,104,2405.5,A6,R,1202.75
50,0,2405.6,D3,L,1202.8
47,78,2405.6,B2,L,1202.8
47,0,2406.0,B2,L,1203.0
45,73,2406.0,A2,L,1203.0
93,0,2406.0,A6,R,1203.0
81,0,2406.0,A5,R,1203.0
93,98,2406.3125,A6,R,1203.15625
81,88,2406.3125,A5,R,1203.15625
45,0,2406.3333333333335,A2,L,1203.1666666666667
50,79,2406.3333333333335,D3,L,1203.1666666666667
81,0,2406.5,A5,R,1203.25
93,0,2406.5,A6,R,1203.25
49,76,2406.6666666666665,C#3,L,1203.3333333333333
50,0,2406.666666666667,D3,L,1203.3333333333335
52,76,2407.0,E3,L,1203.5
49,0,2407.0,C#3,L,1203.5
93,105,2407.0625,A6,R,1203.53125
81,88,2407.0625,A5,R,1203.53125
93,0,2407.25,A6,R,1203.625
81,0,2407.25,A5,R,1203.625
93,105,2407.25,A6,R,1203.625
81,88,2407.25,A5,R,1203.625
52,0,2407.5,E3,L,1203.75
50,81,2407.5,D3,L,1203.75
93,0,2407.75,A6,R,1203.875
54,80,2407.75,F#3,L,1203.875
81,0,2407.75,A5,R,1203.875
81,81,2407.8125,A5,R,1203.90625
93,101,2407.8125,A6,R,1203.90625
54,0,2408.0,F#3,L,1204.0
50,0,2408.0,D3,L,1204.0
54,80,2408.0,F#3,L,1204.0
50,75,2408.0,D3,L,1204.0
93,0,2408.0,A6,R,1204.0
81,0,2408.0,A5,R,1204.0
93,104,2408.1875,A6,R,1204.09375
81,82,2408.1875,A5,R,1204.09375
81,82,2408.25,A5,R,1204.125
93,0,2408.25,A6,R,1204.125
81,0,2408.25,A5,R,1204.125
93,104,2408.25,A6,R,1204.125
47,77,2408.5,B2,L,1204.25
50,0,2408.5,D3,L,1204.25
81,0,2408.5,A5,R,1204.25
93,0,2408.5,A6,R,1204.25
95,98,2408.5,B6,R,1204.25
45,75,2409.0,A2,L,1204.5
47,0,2409.0,B2,L,1204.5
95,0,2409.0,B6,R,1204.5
93,96,2409.0,A6,R,1204.5
54,0,2409.0,F#3,L,1204.5
47,76,2409.3333333333335,B2,L,1204.6666666666667
45,0,2409.3333333333335,A2,L,1204.6666666666667
93,0,2409.3333333333335,A6,R,1204.6666666666667
95,91,2409.3333333333335,B6,R,1204.6666666666667
45,79,2409.6666666666665,A2,L,1204.8333333333333
93,96,2409.6666666666665,A6,R,1204.8333333333333
47,0,2409.666666666667,B2,L,1204.8333333333335
95,0,2409.666666666667,B6,R,1204.8333333333335
93,96,2410.0,A6,R,1205.0
93,0,2410.0,A6,R,1205.0
45,0,2410.0,A2,L,1205.0
45,79,2410.0,A2,L,1205.0
90,88,2410.2,F#6,R,1205.1
93,0,2410.2,A6,R,1205.1
45,0,2410.2,A2,L,1205.1
42,80,2410.2,F#2,L,1205.1
42,0,2410.3999999999996,F#2,L,1205.1999999999998
90,0,2410.3999999999996,F#6,R,1205.1999999999998
40,72,2410.4,E2,L,1205.2
88,89,2410.4,E6,R,1205.2
40,0,2410.8,E2,L,1205.4
90,89,2410.8,F#6,R,1205.4
88,0,2410.8,E6,R,1205.4
42,76,2410.8,F#2,L,1205.4
86,85,2411.2,D6,R,1205.6
38,79,2411.2,D2,L,1205.6
90,0,2411.2000000000003,F#6,R,1205.6000000000001
42,0,2411.2000000000003,F#2,L,1205.6000000000001
83,90,2411.6,B5,R,1205.8
35,80,2411.6,B1,L,1205.8
86,0,2411.6,D6,R,1205.8
38,0,2411.6,D2,L,1205.8
83,0,2412.0,B5,R,1206.0
35,0,2412.0,B1,L,1206.0
81,80,2412.0,A5,R,1206.0
33,88,2412.0,A1,L,1206.0
83,86,2412.375,B5,R,1206.1875
81,0,2412.375,A5,R,1206.1875
35,81,2412.5,B1,L,1206.25
83,0,2412.5,B5,R,1206.25
33,0,2412.5,A1,L,1206.25
83,86,2412.5,B5,R,1206.25
33,88,2412.6875,A1,L,1206.34375
35,0,2412.6875,B1,L,1206.34375
83,0,2412.6875,B5,R,1206.34375
81,78,2412.6875,A5,R,1206.34375
33,0,2412.75,A1,L,1206.375
33,88,2412.75,A1,L,1206.375
81,0,2412.75,A5,R,1206.375
81,78,2412.75,A5,R,1206.375
33,0,2413.0,A1,L,1206.5
81,0,2413.0,A5,R,1206.5
76,57,2413.125,E5,R,1206.5625
85,86,2413.125,C#6,R,1206.5625
79,46,2413.125,G5,R,1206.5625
33,90,2413.125,A1,L,1206.5625
45,80,2413.125,A2,L,1206.5625
33,0,2413.375,A1,L,1206.6875
76,0,2413.375,E5,R,1206.6875
79,0,2413.375,G5,R,1206.6875
85,0,2413.375,C#6,R,1206.6875
45,0,2413.375,A2,L,1206.6875
33,74,2413.4375,A1,L,1206.71875
45,74,2413.4375,A2,L,1206.71875
79,62,2413.4375,G5,R,1206.71875
76,61,2413.4375,E5,R,1206.71875
85,83,2413.4375,C#6,R,1206.71875
45,0,2413.5,A2,L,1206.75
79,0,2413.5,G5,R,1206.75
79,62,2413.5,G5,R,1206.75
85,0,2413.5,C#6,R,1206.75
33,0,2413.5,A1,L,1206.75
33,74,2413.5,A1,L,1206.75
85,83,2413.5,C#6,R,1206.75
76,0,2413.5,E5,R,1206.75
79,0,2413.75,G5,R,1206.875
33,0,2413.75,A1,L,1206.875
33,88,2413.75,A1,L,1206.875
45,80,2413.75,A2,L,1206.875
85,0,2413.75,C#6,R,1206.875
79,54,2413.78125,G5,R,1206.890625
76,63,2413.78125,E5,R,1206.890625
85,83,2413.78125,C#6,R,1206.890625
85,83,2413.875,C#6,R,1206.9375
76,0,2413.875,E5,R,1206.9375
85,0,2413.875,C#6,R,1206.9375
79,0,2413.875,G5,R,1206.9375
85,0,2414.0,C#6,R,1207.0
45,0,2414.0,A2,L,1207.0
33,0,2414.0,A1,L,1207.0
74,91,2414.1875,D5,R,1207.09375
38,85,2414.1875,D2,L,1207.09375
86,103,2414.1875,D6,R,1207.09375
50,84,2414.1875,D3,L,1207.09375
38,0,2414.25,D2,L,1207.125
50,0,2414.25,D3,L,1207.125
38,85,2414.25,D2,L,1207.125
50,84,2414.25,D3,L,1207.125
86,0,2414.25,D6,R,1207.125
74,0,2414.25,D5,R,1207.125
38,0,2414.5,D2,L,1207.25
84,72,2414.625,C6,R,1207.3125
71,53,2414.625,B4,L,1207.3125
83,75,2414.625,B5,L,1207.3125
50,0,2415.0,D3,L,1207.5
71,0,2415.0,B4,L,1207.5
84,0,2415.0,C6,R,1207.5
48,47,2415.0,C3,L,1207.5
59,68,2415.0,B3,R,1207.5
47,72,2415.0,B2,L,1207.5
83,0,2415.0,B5,L,1207.5
83,85,2415.34375,B5,R,1207.671875
83,0,2415.375,B5,R,1207.6875
59,0,2415.375,B3,R,1207.6875
71,63,2415.375,B4,R,1207.6875
83,85,2415.375,B5,R,1207.6875
83,0,2415.5,B5,R,1207.75
71,0,2415.5,B4,R,1207.75
57,67,2415.75,A3,R,1207.875
45,61,2415.75,A2,L,1207.875
48,0,2415.75,C3,L,1207.875
47,0,2415.75,B2,L,1207.875
57,0,2415.8125,A3,R,1207.90625
43,44,2415.84375,G2,R,1207.921875
43,0,2415.875,G2,R,1207.9375
45,0,2416.0,A2,L,1208.0
81,82,2416.125,A5,R,1208.0625
69,79,2416.125,A4,L,1208.0625
69,0,2416.5,A4,L,1208.25
42,84,2416.5,F#2,L,1208.25
81,0,2416.5,A5,R,1208.25
54,83,2416.53125,F#3,R,1208.265625
54,0,2416.625,F#3,R,1208.3125
54,83,2416.625,F#3,R,1208.3125
42,0,2416.875,F#2,L,1208.4375
54,0,2416.875,F#3,R,1208.4375
66,67,2416.9375,F#4,L,1208.46875
78,78,2416.9375,F#5,R,1208.46875
66,0,2417.0,F#4,L,1208.5
78,0,2417.0,F#5,R,1208.5
38,79,2417.25,D2,L,1208.625
50,78,2417.25,D3,R,1208.625
38,0,2417.5,D2,L,1208.75
38,79,2417.5,D2,L,1208.75
50,0,2417.5,D3,R,1208.75
50,78,2417.5,D3,R,1208.75
38,0,2417.6875,D2,L,1208.84375
62,70,2417.6875,D4,L,1208.84375
50,0,2417.6875,D3,R,1208.84375
74,81,2417.6875,D5,R,1208.84375
62,0,2417.75,D4,L,1208.875
74,0,2417.75,D5,R,1208.875
47,73,2418.0625,B2,R,1209.03125
35,76,2418.0625,B1,L,1209.03125
35,0,2418.25,B1,L,1209.125
47,0,2418.25,B2,R,1209.125
71,77,2418.5,B4,R,1209.25
59,73,2418.5,B3,L,1209.25
71,0,2418.75,B4,R,1209.375
59,0,2418.75,B3,L,1209.375
33,80,2418.8125,A1,L,1209.40625
45,76,2418.8125,A2,R,1209.40625
45,0,2419.0,A2,R,1209.5
33,0,2419.0,A1,L,1209.5
57,68,2419.125,A3,L,1209.5625
69,78,2419.125,A4,R,1209.5625
57,0,2419.5,A3,L,1209.75
33,90,2419.5,A1,L,1209.75
69,0,2419.5,A4,R,1209.75
45,77,2419.5,A2,R,1209.75
45,0,2419.75,A2,R,1209.875
79,79,2419.8333333333335,G5,R,1209.9166666666667
69,65,2419.875,A4,L,1209.9375
33,0,2419.875,A1,L,1209.9375
76,32,2419.9583333333335,E5,R,1209.9791666666667
79,0,2419.9583333333335,G5,R,1209.9791666666667
79,79,2419.9583333333335,G5,R,1209.9791666666667
76,32,2420.0,E5,R,1210.0
79,0,2420.0,G5,R,1210.0
76,0,2420.0,E5,R,1210.0
69,0,2420.0,A4,L,1210.0
76,0,2420.25,E5,R,1210.125
38,89,2420.3125,D2,L,1210.15625
50,94,2420.3125,D3,L,1210.15625
69,85,2420.3125,A4,R,1210.15625
78,101,2420.3125,F#5,R,1210.15625
78,0,2420.375,F#5,R,1210.1875
74,34,2420.375,D5,R,1210.1875
69,0,2420.375,A4,R,1210.1875
50,0,2420.5,D3,L,1210.25
38,0,2420.5,D2,L,1210.25
74,0,2420.5,D5,R,1210.25
54,72,2421.5,F#3,L,1210.75
74,79,2421.5,D5,R,1210.75
57,73,2421.5,A3,L,1210.75
62,66,2421.5,D4,L,1210.75
50,64,2421.5,D3,L,1210.75
74,0,2421.625,D5,R,1210.8125
69,23,2421.625,A4,R,1210.8125
74,95,2421.875,D5,R,1210.9375
69,0,2421.875,A4,R,1210.9375
66,52,2421.875,F#4,R,1210.9375
62,96,2421.875,D4,R,1210.9375
50,0,2421.875,D3,L,1210.9375
54,81,2421.875,F#3,L,1210.9375
50,92,2421.875,D3,L,1210.9375
62,0,2421.875,D4,L,1210.9375
57,0,2421.875,A3,L,1210.9375
54,0,2421.875,F#3,L,1210.9375
57,81,2421.875,A3,L,1210.9375
62,0,2422.0,D4,R,1211.0
57,0,2422.0,A3,L,1211.0
74,0,2422.0,D5,R,1211.0
69,24,2422.0,A4,R,1211.0
54,0,2422.0,F#3,L,1211.0
50,0,2422.0,D3,L,1211.0
66,0,2422.0,F#4,R,1211.0
69,0,2423.0,A4,R,1211.5
76,78,2423.0,E5,R,1211.5
64,64,2423.0,E4,R,1211.5
45,78,2423.0,A2,L,1211.5
52,52,2423.0,E3,L,1211.5
49,70,2423.0,C#3,L,1211.5
57,77,2423.0,A3,L,1211.5
50,96,2423.375,D3,L,1211.6875
78,104,2423.375,F#5,R,1211.6875
69,75,2423.375,A4,R,1211.6875
66,94,2423.375,F#4,R,1211.6875
76,0,2423.375,E5,R,1211.6875
64,0,2423.375,E4,R,1211.6875
57,0,2423.375,A3,L,1211.6875
38,89,2423.375,D2,L,1211.6875
52,0,2423.375,E3,L,1211.6875
45,82,2423.375,A2,L,1211.6875
49,0,2423.375,C#3,L,1211.6875
45,0,2423.375,A2,L,1211.6875
42,89,2423.375,F#2,L,1211.6875
38,0,2423.5,D2,L,1211.75
50,0,2423.5,D3,L,1211.75
42,0,2423.5,F#2,L,1211.75
66,0,2423.5,F#4,R,1211.75
78,0,2423.5,F#5,R,1211.75
69,0,2423.5,A4,R,1211.75
45,0,2423.5,A2,L,1211.75
78,44,2423.5625,F#5,R,1211.78125
78,0,2423.75,F#5,R,1211.875
78,85,2424.5,F#5,R,1212.25
66,75,2424.5,F#4,R,1212.25
62,62,2424.5,D4,L,1212.25
50,70,2424.5,D3,L,1212.25
54,65,2424.5,F#3,L,1212.25
57,52,2424.5,A3,L,1212.25
66,0,2424.875,F#4,R,1212.4375
50,94,2424.875,D3,L,1212.4375
78,0,2424.875,F#5,R,1212.4375
66,100,2424.875,F#4,R,1212.4375
74,63,2424.875,D5,R,1212.4375
57,84,2424.875,A3,L,1212.4375
54,82,2424.875,F#3,L,1212.4375
78,103,2424.875,F#5,R,1212.4375
57,0,2424.875,A3,L,1212.4375
62,0,2424.875,D4,L,1212.4375
62,85,2424.875,D4,L,1212.4375
50,0,2424.875,D3,L,1212.4375
54,0,2424.875,F#3,L,1212.4375
54,0,2425.0,F#3,L,1212.5
74,0,2425.0,D5,R,1212.5
78,0,2425.0,F#5,R,1212.5
66,100,2425.0,F#4,R,1212.5
74,63,2425.0,D5,R,1212.5
50,0,2425.0,D3,L,1212.5
62,0,2425.0,D4,L,1212.5
57,0,2425.0,A3,L,1212.5
50,94,2425.0,D3,L,1212.5
54,82,2425.0,F#3,L,1212.5
57,84,2425.0,A3,L,1212.5
78,103,2425.0,F#5,R,1212.5
66,0,2425.0,F#4,R,1212.5
50,0,2425.75,D3,L,1212.875
74,0,2425.75,D5,R,1212.875
54,0,2425.75,F#3,L,1212.875
66,0,2425.75,F#4,R,1212.875
57,0,2425.75,A3,L,1212.875
78,0,2425.75,F#5,R,1212.875
45,66,2425.875,A2,L,1212.9375
49,49,2425.875,C#3,L,1212.9375
52,54,2425.875,E3,L,1212.9375
57,66,2425.875,A3,L,1212.9375
67,76,2425.90625,G4,R,1212.953125
79,84,2425.90625,G5,R,1212.953125
57,0,2426.0,A3,L,1213.0
79,84,2426.0,G5,R,1213.0
49,49,2426.0,C#3,L,1213.0
79,0,2426.0,G5,R,1213.0
52,0,2426.0,E3,L,1213.0
67,0,2426.0,G4,R,1213.0
45,0,2426.0,A2,L,1213.0
49,0,2426.0,C#3,L,1213.0
45,66,2426.0,A2,L,1213.0
52,54,2426.0,E3,L,1213.0
45,0,2426.25,A2,L,1213.125
49,0,2426.25,C#3,L,1213.125
52,0,2426.25,E3,L,1213.125
45,69,2426.25,A2,L,1213.125
81,89,2426.3125,A5,R,1213.15625
69,82,2426.3125,A4,R,1213.15625
78,38,2426.375,F#5,R,1213.1875
81,0,2426.375,A5,R,1213.1875
69,0,2426.375,A4,R,1213.1875
78,0,2426.5,F#5,R,1213.25
50,69,2426.5,D3,R,1213.25
50,0,2426.75,D3,R,1213.375
66,76,2426.75,F#4,R,1213.375
79,0,2426.75,G5,R,1213.375
45,0,2426.75,A2,L,1213.375
54,68,2426.75,F#3,L,1213.375
57,65,2426.9375,A3,R,1213.46875
66,0,2427.0,F#4,R,1213.5
69,74,2427.0,A4,R,1213.5
57,65,2427.0,A3,R,1213.5
57,0,2427.0,A3,R,1213.5
54,0,2427.0,F#3,L,1213.5
69,0,2427.125,A4,R,1213.5625
67,76,2427.125,G4,R,1213.5625
69,74,2427.125,A4,R,1213.5625
55,59,2427.1666666666665,G3,L,1213.5833333333333
55,0,2427.333333333333,G3,L,1213.6666666666665
54,57,2427.3333333333335,F#3,L,1213.6666666666667
66,70,2427.375,F#4,R,1213.6875
57,0,2427.375,A3,R,1213.6875
67,0,2427.5,G4,R,1213.75
66,70,2427.5,F#4,R,1213.75
64,64,2427.5,E4,R,1213.75
69,0,2427.5,A4,R,1213.75
66,0,2427.5,F#4,R,1213.75
54,0,2427.5,F#3,L,1213.75
52,59,2427.5833333333335,E3,L,1213.7916666666667
62,61,2427.75,D4,R,1213.875
66,0,2427.75,F#4,R,1213.875
50,62,2427.8333333333335,D3,L,1213.9166666666667
52,0,2427.8333333333335,E3,L,1213.9166666666667
62,0,2428.0,D4,R,1214.0
66,73,2428.0,F#4,R,1214.0
50,62,2428.0,D3,L,1214.0
54,64,2428.0,F#3,L,1214.0
50,0,2428.0,D3,L,1214.0
62,61,2428.0,D4,R,1214.0
64,0,2428.0,E4,R,1214.0
66,0,2428.25,F#4,R,1214.125
50,0,2428.25,D3,L,1214.125
54,0,2428.25,F#3,L,1214.125
57,41,2428.3125,A3,L,1214.15625
69,63,2428.3125,A4,R,1214.15625
59,39,2428.3125,B3,L,1214.15625
74,44,2428.5,D5,R,1214.25
69,0,2428.5,A4,R,1214.25
59,0,2428.5,B3,L,1214.25
57,0,2428.5,A3,L,1214.25
62,58,2428.5,D4,L,1214.25
62,0,2428.75,D4,L,1214.375
61,61,2428.75,C#4,L,1214.375
74,0,2428.75,D5,R,1214.375
73,73,2428.75,C#5,R,1214.375
61,0,2429.0,C#4,L,1214.5
59,65,2429.0,B3,L,1214.5
62,0,2429.0,D4,R,1214.5
73,0,2429.0,C#5,R,1214.5
71,69,2429.0,B4,R,1214.5
69,66,2429.125,A4,R,1214.5625
59,0,2429.125,B3,L,1214.5625
57,56,2429.125,A3,L,1214.5625
71,0,2429.125,B4,R,1214.5625
67,71,2429.25,G4,R,1214.625
69,0,2429.25,A4,R,1214.625
67,0,2429.375,G4,R,1214.6875
55,67,2429.375,G3,R,1214.6875
55,0,2429.5,G3,R,1214.75
66,78,2429.5,F#4,R,1214.75
54,62,2429.5,F#3,L,1214.75
57,0,2429.5,A3,L,1214.75
66,0,2429.5833333333335,F#4,R,1214.7916666666667
69,70,2429.6666666666665,A4,R,1214.8333333333333
57,74,2429.6666666666665,A3,L,1214.8333333333333
54,0,2429.6666666666665,F#3,L,1214.8333333333333
69,0,2429.75,A4,R,1214.875
57,0,2429.75,A3,L,1214.875
62,65,2429.875,D4,L,1214.9375
74,79,2429.875,D5,R,1214.9375
62,0,2430.0,D4,L,1215.0
74,0,2430.0,D5,R,1215.0
66,77,2430.1,F#4,L,1215.05
78,75,2430.1,F#5,R,1215.05
66,0,2430.2,F#4,L,1215.1
64,62,2430.2,E4,L,1215.1
76,70,2430.2,E5,R,1215.1
78,0,2430.2,F#5,R,1215.1
64,0,2430.3999999999996,E4,L,1215.1999999999998
76,0,2430.3999999999996,E5,R,1215.1999999999998
62,65,2430.4,D4,L,1215.2
74,74,2430.4,D5,R,1215.2
73,75,2430.6,C#5,R,1215.3
62,0,2430.6,D4,L,1215.3
74,0,2430.6,D5,R,1215.3
61,62,2430.6,C#4,L,1215.3
73,0,2430.7999999999997,C#5,R,1215.3999999999999
61,0,2430.7999999999997,C#4,L,1215.3999999999999
71,65,2430.8,B4,R,1215.4
59,54,2430.8,B3,L,1215.4
59,0,2431.0,B3,L,1215.5
71,0,2431.0,B4,R,1215.5
69,72,2431.0,A4,R,1215.5
57,64,2431.0,A3,L,1215.5
61,53,2431.125,C#4,L,1215.5625
73,79,2431.125,C#5,R,1215.5625
76,65,2431.375,E5,R,1215.6875
64,37,2431.375,E4,L,1215.6875
61,0,2431.375,C#4,L,1215.6875
73,0,2431.375,C#5,R,1215.6875
76,0,2431.5,E5,R,1215.75
79,75,2431.5,G5,R,1215.75
67,64,2431.5,G4,L,1215.75
64,0,2431.5,E4,L,1215.75
66,67,2431.75,F#4,L,1215.875
67,0,2431.75,G4,L,1215.875
69,0,2431.75,A4,R,1215.875
78,74,2431.75,F#5,R,1215.875
64,59,2431.875,E4,L,1215.9375
66,0,2431.875,F#4,L,1215.9375
76,66,2431.875,E5,R,1215.9375
79,0,2431.875,G5,R,1215.9375
57,0,2432.0,A3,L,1216.0
64,0,2432.0,E4,L,1216.0
78,0,2432.0,F#5,R,1216.0
76,0,2432.0,E5,R,1216.0
62,58,2432.125,D4,L,1216.0625
74,63,2432.125,D5,R,1216.0625
61,63,2432.25,C#4,L,1216.125
62,0,2432.25,D4,L,1216.125
74,0,2432.25,D5,R,1216.125
73,66,2432.25,C#5,R,1216.125
73,0,2432.5,C#5,R,1216.25
57,58,2432.5,A3,L,1216.25
61,0,2432.5,C#4,L,1216.25
69,66,2432.5,A4,R,1216.25
62,60,2432.75,D4,L,1216.375
57,0,2432.75,A3,L,1216.375
69,0,2432.75,A4,R,1216.375
74,72,2432.75,D5,R,1216.375
78,73,2433.0,F#5,R,1216.5
74,0,2433.0,D5,R,1216.5
62,0,2433.0,D4,L,1216.5
66,56,2433.0416666666665,F#4,L,1216.5208333333333
66,0,2433.1666666666665,F#4,L,1216.5833333333333
69,65,2433.2083333333335,A4,L,1216.6041666666667
81,70,2433.25,A5,R,1216.625
78,0,2433.25,F#5,R,1216.625
69,65,2433.25,A4,L,1216.625
69,0,2433.25,A4,L,1216.625
69,0,2433.5,A4,L,1216.75
79,73,2433.5,G5,R,1216.75
81,0,2433.5,A5,R,1216.75
67,66,2433.5833333333335,G4,L,1216.7916666666667
66,62,2433.6666666666665,F#4,L,1216.8333333333333
67,0,2433.666666666667,G4,L,1216.8333333333335
78,74,2433.75,F#5,R,1216.875
79,0,2433.75,G5,R,1216.875
76,62,2433.875,E5,R,1216.9375
76,0,2434.0,E5,R,1217.0
76,62,2434.0,E5,R,1217.0
78,0,2434.0,F#5,R,1217.0
64,58,2434.0,E4,R,1217.0
66,0,2434.0,F#4,L,1217.0
76,0,2434.125,E5,R,1217.0625
74,68,2434.125,D5,R,1217.0625
62,59,2434.25,D4,R,1217.125
64,0,2434.25,E4,R,1217.125
78,75,2434.375,F#5,R,1217.1875
62,0,2434.375,D4,R,1217.1875
66,64,2434.375,F#4,L,1217.1875
66,0,2434.5,F#4,L,1217.25
78,0,2434.5,F#5,R,1217.25
81,69,2434.5,A5,R,1217.25
74,0,2434.5,D5,R,1217.25
69,46,2434.5625,A4,L,1217.28125
86,75,2434.75,D6,R,1217.375
69,0,2434.75,A4,L,1217.375
81,0,2434.75,A5,R,1217.375
74,62,2434.75,D5,L,1217.375
74,0,2435.0,D5,L,1217.5
85,75,2435.0,C#6,R,1217.5
86,0,2435.0,D6,R,1217.5
73,65,2435.0,C#5,L,1217.5
71,54,2435.1666666666665,B4,L,1217.5833333333333
83,71,2435.1666666666665,B5,R,1217.5833333333333
73,0,2435.1666666666665,C#5,L,1217.5833333333333
85,0,2435.1666666666665,C#6,R,1217.5833333333333
71,0,2435.333333333333,B4,L,1217.6666666666665
83,0,2435.333333333333,B5,R,1217.6666666666665
81,61,2435.3333333333335,A5,R,1217.6666666666667
69,61,2435.3333333333335,A4,L,1217.6666666666667
81,0,2435.5,A5,R,1217.75
79,64,2435.5,G5,R,1217.75
67,62,2435.5,G4,L,1217.75
69,0,2435.5,A4,L,1217.75
67,0,2435.75,G4,L,1217.875
66,55,2435.75,F#4,L,1217.875
79,0,2435.75,G5,R,1217.875
78,72,2435.7916666666665,F#5,R,1217.8958333333333
78,0,2435.833333333333,F#5,R,1217.9166666666665
66,0,2435.875,F#4,L,1217.9375
69,65,2435.90625,A4,L,1217.953125
81,71,2435.9166666666665,A5,R,1217.9583333333333
81,0,2436.0,A5,R,1218.0
69,0,2436.0,A4,L,1218.0
81,71,2436.0,A5,R,1218.0
81,0,2436.125,A5,R,1218.0625
74,71,2436.125,D5,L,1218.0625
86,69,2436.125,D6,R,1218.0625
86,0,2436.25,D6,R,1218.125
90,71,2436.25,F#6,R,1218.125
74,0,2436.25,D5,L,1218.125
78,75,2436.25,F#5,L,1218.125
78,0,2436.5,F#5,L,1218.25
76,66,2436.5,E5,L,1218.25
90,0,2436.5,F#6,R,1218.25
88,72,2436.5,E6,R,1218.25
88,0,2436.6875,E6,R,1218.34375
86,65,2436.6875,D6,R,1218.34375
86,0,2436.75,D6,R,1218.375
76,0,2436.75,E5,L,1218.375
86,65,2436.75,D6,R,1218.375
74,64,2436.75,D5,L,1218.375
73,65,2436.875,C#5,L,1218.4375
74,0,2436.875,D5,L,1218.4375
85,77,2436.875,C#6,R,1218.4375
86,0,2436.875,D6,R,1218.4375
73,0,2437.0,C#5,L,1218.5
83,70,2437.0,B5,R,1218.5
85,0,2437.0,C#6,R,1218.5
71,54,2437.0,B4,L,1218.5
71,0,2437.25,B4,L,1218.625
83,0,2437.25,B5,R,1218.625
81,73,2437.25,A5,R,1218.625
69,57,2437.25,A4,L,1218.625
73,63,2437.5,C#5,L,1218.75
81,0,2437.5,A5,R,1218.75
85,74,2437.5,C#6,R,1218.75
69,0,2437.5,A4,L,1218.75
73,0,2437.625,C#5,L,1218.8125
76,32,2437.625,E5,L,1218.8125
85,0,2437.625,C#6,R,1218.8125
88,66,2437.625,E6,R,1218.8125
76,0,2437.75,E5,L,1218.875
88,0,2437.75,E6,R,1218.875
91,75,2437.75,G6,R,1218.875
79,59,2437.8125,G5,L,1218.90625
79,0,2438.0,G5,L,1219.0
91,0,2438.0,G6,R,1219.0
90,75,2438.0833333333335,F#6,R,1219.0416666666667
78,71,2438.0833333333335,F#5,L,1219.0416666666667
88,72,2438.1666666666665,E6,R,1219.0833333333333
76,57,2438.1666666666665,E5,L,1219.0833333333333
90,0,2438.166666666667,F#6,R,1219.0833333333335
78,0,2438.166666666667,F#5,L,1219.0833333333335
88,0,2438.333333333333,E6,R,1219.1666666666665
76,0,2438.333333333333,E5,L,1219.1666666666665
86,73,2438.3333333333335,D6,R,1219.1666666666667
74,70,2438.3333333333335,D5,L,1219.1666666666667
85,73,2438.5,C#6,R,1219.25
74,0,2438.5,D5,L,1219.25
73,69,2438.5,C#5,L,1219.25
86,0,2438.5,D6,R,1219.25
85,0,2438.75,C#6,R,1219.375
69,65,2438.75,A4,R,1219.375
69,0,2439.0,A4,R,1219.5
73,0,2439.0,C#5,L,1219.5
73,75,2439.0714285714284,C#5,R,1219.5357142857142
76,61,2439.125,E5,L,1219.5625
73,0,2439.142857142857,C#5,R,1219.5714285714284
81,69,2439.1428571428573,A5,R,1219.5714285714287
76,0,2439.25,E5,L,1219.625
79,60,2439.25,G5,L,1219.625
85,70,2439.285714285714,C#6,R,1219.642857142857
81,0,2439.2857142857147,A5,R,1219.6428571428573
85,0,2439.4285714285716,C#6,R,1219.7142857142858
88,74,2439.4285714285716,E6,R,1219.7142857142858
79,0,2439.5,G5,L,1219.75
78,68,2439.5714285714284,F#5,R,1219.7857142857142
88,0,2439.571428571429,E6,R,1219.7857142857144
78,0,2439.642857142857,F#5,R,1219.8214285714284
91,79,2439.6428571428573,G6,R,1219.8214285714287
76,61,2439.6666666666665,E5,L,1219.8333333333333
76,0,2439.833333333333,E5,L,1219.9166666666665
74,72,2439.8333333333335,D5,L,1219.9166666666667
90,79,2439.8571428571427,F#6,R,1219.9285714285713
91,0,2439.857142857143,G6,R,1219.9285714285716
73,80,2440.0,C#5,L,1220.0
74,0,2440.0,D5,L,1220.0
90,0,2440.0,F#6,R,1220.0
88,77,2440.0,E6,R,1220.0
90,79,2440.0,F#6,R,1220.0
86,76,2440.25,D6,R,1220.125
88,0,2440.25,E6,R,1220.125
90,0,2440.25,F#6,R,1220.125
85,80,2440.5,C#6,R,1220.25
86,0,2440.5,D6,R,1220.25
85,0,2440.625,C#6,R,1220.3125
83,76,2440.625,B5,R,1220.3125
83,0,2440.75,B5,R,1220.375
81,73,2440.75,A5,R,1220.375
79,71,2441.0,G5,R,1220.5
81,0,2441.0,A5,R,1220.5
73,0,2441.0,C#5,L,1220.5
79,0,2441.125,G5,R,1220.5625
78,75,2441.125,F#5,R,1220.5625
78,0,2441.25,F#5,R,1220.625
76,72,2441.25,E5,R,1220.625
76,0,2441.5,E5,R,1220.75
74,76,2441.5,D5,R,1220.75
74,0,2441.625,D5,R,1220.8125
73,67,2441.65625,C#5,R,1220.828125
73,0,2441.75,C#5,R,1220.875
69,77,2441.75,A4,R,1220.875
73,69,2441.875,C#5,R,1220.9375
69,0,2441.875,A4,R,1220.9375
73,0,2442.0,C#5,R,1221.0
73,69,2442.0,C#5,R,1221.0
76,61,2442.125,E5,R,1221.0625
73,0,2442.125,C#5,R,1221.0625
81,74,2442.25,A5,R,1221.125
76,0,2442.25,E5,R,1221.125
79,66,2442.25,G5,L,1221.125
81,0,2442.375,A5,R,1221.1875
85,76,2442.375,C#6,R,1221.1875
78,69,2442.4375,F#5,R,1221.21875
88,73,2442.5,E6,R,1221.25
85,0,2442.5,C#6,R,1221.25
78,69,2442.5,F#5,R,1221.25
78,0,2442.5,F#5,R,1221.25
76,63,2442.625,E5,R,1221.3125
78,0,2442.625,F#5,R,1221.3125
79,0,2442.75,G5,L,1221.375
91,83,2442.75,G6,R,1221.375
76,0,2442.75,E5,R,1221.375
74,75,2442.875,D5,L,1221.4375
73,76,2443.0,C#5,L,1221.5
74,0,2443.0,D5,L,1221.5
88,0,2443.0,E6,R,1221.5
90,82,2443.0,F#6,R,1221.5
91,0,2443.0,G6,R,1221.5
90,0,2443.125,F#6,R,1221.5625
88,81,2443.125,E6,R,1221.5625
86,82,2443.25,D6,R,1221.625
88,0,2443.25,E6,R,1221.625
73,0,2443.25,C#5,L,1221.625
71,68,2443.25,B4,L,1221.625
72,69,2443.25,C5,L,1221.625
69,74,2443.375,A4,L,1221.6875
69,0,2443.5,A4,L,1221.75
85,80,2443.5,C#6,R,1221.75
71,0,2443.5,B4,L,1221.75
72,0,2443.5,C5,L,1221.75
67,79,2443.5,G4,L,1221.75
69,74,2443.5,A4,L,1221.75
86,0,2443.5,D6,R,1221.75
83,80,2443.625,B5,R,1221.8125
85,0,2443.625,C#6,R,1221.8125
83,0,2443.75,B5,R,1221.875
81,70,2443.75,A5,R,1221.875
66,70,2443.75,F#4,L,1221.875
67,0,2443.75,G4,L,1221.875
79,75,2443.875,G5,R,1221.9375
69,0,2444.0,A4,L,1222.0
81,0,2444.0,A5,R,1222.0
66,0,2444.0,F#4,L,1222.0
79,0,2444.0,G5,R,1222.0
64,77,2444.0,E4,R,1222.0
79,75,2444.0,G5,R,1222.0
64,0,2444.125,E4,R,1222.0625
78,82,2444.125,F#5,R,1222.0625
62,67,2444.1666666666665,D4,L,1222.0833333333333
62,0,2444.333333333333,D4,L,1222.1666666666665
61,68,2444.3333333333335,C#4,L,1222.1666666666667
76,62,2444.375,E5,R,1222.1875
78,0,2444.375,F#5,R,1222.1875
77,61,2444.375,F5,R,1222.1875
57,73,2444.4166666666665,A3,L,1222.2083333333333
61,0,2444.416666666667,C#4,L,1222.2083333333335
57,0,2444.5,A3,L,1222.25
57,73,2444.5,A3,L,1222.25
76,0,2444.5,E5,R,1222.25
77,0,2444.5,F5,R,1222.25
85,73,2444.5625,C#6,R,1222.28125
85,0,2444.75,C#6,R,1222.375
57,0,2444.75,A3,L,1222.375
62,92,2444.8125,D4,L,1222.40625
66,96,2444.8125,F#4,L,1222.40625
74,95,2444.8125,D5,L,1222.40625
86,88,2444.8125,D6,R,1222.40625
74,0,2445.0,D5,L,1222.5
66,0,2445.0,F#4,L,1222.5
86,0,2445.0,D6,R,1222.5
79,0,2445.0,G5,R,1222.5
62,0,2445.0,D4,L,1222.5
78,88,2445.625,F#5,R,1222.8125
69,79,2445.625,A4,L,1222.8125
74,70,2445.625,D5,L,1222.8125
74,0,2446.0,D5,L,1223.0
69,0,2446.0,A4,L,1223.0
78,0,2446.0,F#5,R,1223.0
64,77,2446.3125,E4,L,1223.15625
67,80,2446.3125,G4,R,1223.15625
67,0,2446.5,G4,R,1223.25
64,0,2446.5,E4,L,1223.25
83,76,2447.125,B5,R,1223.5625
74,69,2447.125,D5,L,1223.5625
79,57,2447.125,G5,L,1223.5625
79,57,2447.5,G5,L,1223.75
74,69,2447.5,D5,L,1223.75
79,0,2447.5,G5,L,1223.75
74,0,2447.5,D5,L,1223.75
83,0,2447.5,B5,R,1223.75
83,76,2447.5,B5,R,1223.75
74,0,2447.875,D5,L,1223.9375
83,0,2447.875,B5,R,1223.9375
79,0,2447.875,G5,L,1223.9375
64,71,2447.875,E4,L,1223.9375
67,70,2447.875,G4,R,1223.9375
64,0,2448.0,E4,L,1224.0
67,0,2448.0,G4,R,1224.0
79,67,2448.25,G5,L,1224.125
83,70,2448.25,B5,L,1224.125
85,69,2448.25,C#6,R,1224.125
85,0,2448.5,C#6,R,1224.25
79,0,2448.5,G5,L,1224.25
83,0,2448.5,B5,L,1224.25
68,79,2448.625,G#4,R,1224.3125
65,77,2448.625,F4,L,1224.3125
80,81,2449.0,G#5,L,1224.5
85,84,2449.0,C#6,R,1224.5
68,0,2449.0,G#4,R,1224.5
65,0,2449.0,F4,L,1224.5
83,65,2449.0,B5,L,1224.5
85,0,2449.375,C#6,R,1224.6875
80,0,2449.375,G#5,L,1224.6875
83,0,2449.375,B5,L,1224.6875
70,91,2449.40625,A#4,R,1224.703125
66,90,2449.40625,F#4,L,1224.703125
70,0,2449.5,A#4,R,1224.75
66,0,2449.5,F#4,L,1224.75
85,82,2450.21875,C#6,R,1225.109375
85,0,2450.25,C#6,R,1225.125
78,81,2450.25,F#5,L,1225.125
82,75,2450.25,A#5,L,1225.125
85,82,2450.25,C#6,R,1225.125
82,0,2451.0,A#5,L,1225.5
78,0,2451.0,F#5,L,1225.5
85,0,2451.0,C#6,R,1225.5
70,64,2451.1875,A#4,R,1225.59375
66,52,2451.1875,F#4,L,1225.59375
70,0,2451.25,A#4,R,1225.625
66,0,2451.25,F#4,L,1225.625
66,52,2451.25,F#4,L,1225.625
70,64,2451.25,A#4,R,1225.625
66,0,2452.0,F#4,L,1226.0
70,0,2452.0,A#4,R,1226.0
82,51,2452.1875,A#5,L,1226.09375
85,66,2452.1875,C#6,R,1226.09375
76,55,2452.1875,E5,L,1226.09375
82,51,2452.25,A#5,L,1226.125
76,55,2452.25,E5,L,1226.125
85,66,2452.25,C#6,R,1226.125
76,0,2452.25,E5,L,1226.125
82,0,2452.25,A#5,L,1226.125
85,0,2452.25,C#6,R,1226.125
82,0,2453.0,A#5,L,1226.5
76,0,2453.0,E5,L,1226.5
85,0,2453.0,C#6,R,1226.5
66,48,2453.1875,F#4,L,1226.59375
70,60,2453.1875,A#4,R,1226.59375
66,48,2453.25,F#4,L,1226.625
66,0,2453.25,F#4,L,1226.625
70,0,2453.25,A#4,R,1226.625
70,60,2453.25,A#4,R,1226.625
70,0,2453.5,A#4,R,1226.75
70,60,2453.5,A#4,R,1226.75
66,0,2453.5,F#4,L,1226.75
66,48,2453.5,F#4,L,1226.75
76,53,2453.6875,E5,L,1226.84375
70,0,2453.6875,A#4,R,1226.84375
82,43,2453.6875,A#5,L,1226.84375
66,0,2453.6875,F#4,L,1226.84375
85,63,2453.6875,C#6,R,1226.84375
82,0,2453.75,A#5,L,1226.875
82,43,2453.75,A#5,L,1226.875
76,0,2453.75,E5,L,1226.875
85,0,2453.75,C#6,R,1226.875
82,0,2454.0,A#5,L,1227.0
66,46,2454.1875,F#4,L,1227.09375
70,54,2454.1875,A#4,R,1227.09375
66,0,2454.25,F#4,L,1227.125
70,0,2454.25,A#4,R,1227.125
85,68,2454.5,C#6,R,1227.25
82,49,2454.5625,A#5,L,1227.28125
76,51,2454.5625,E5,L,1227.28125
76,0,2454.75,E5,L,1227.375
82,0,2454.75,A#5,L,1227.375
85,0,2454.875,C#6,R,1227.4375
70,63,2454.96875,A#4,R,1227.484375
70,0,2455.0,A#4,R,1227.5
70,63,2455.0,A#4,R,1227.5
66,60,2455.0,F#4,L,1227.5
70,0,2455.375,A#4,R,1227.6875
85,70,2455.375,C#6,R,1227.6875
66,0,2455.375,F#4,L,1227.6875
76,53,2455.375,E5,L,1227.6875
82,58,2455.375,A#5,L,1227.6875
82,0,2455.5,A#5,L,1227.75
85,0,2455.5,C#6,R,1227.75
76,0,2455.5,E5,L,1227.75
66,55,2455.75,F#4,L,1227.875
70,71,2455.75,A#4,R,1227.875
70,0,2456.0,A#4,R,1228.0
66,0,2456.0,F#4,L,1228.0
76,62,2456.125,E5,L,1228.0625
82,62,2456.125,A#5,L,1228.0625
85,76,2456.15625,C#6,R,1228.078125
85,0,2456.25,C#6,R,1228.125
76,0,2456.5,E5,L,1228.25
82,0,2456.5,A#5,L,1228.25
70,76,2456.5,A#4,R,1228.25
66,70,2456.5,F#4,L,1228.25
85,69,2456.875,C#6,R,1228.4375
66,0,2456.875,F#4,L,1228.4375
76,62,2456.875,E5,L,1228.4375
70,0,2456.875,A#4,R,1228.4375
82,65,2456.875,A#5,L,1228.4375
85,0,2457.0,C#6,R,1228.5
82,0,2457.0,A#5,L,1228.5
76,0,2457.0,E5,L,1228.5
70,75,2457.3125,A#4,R,1228.65625
66,68,2457.3125,F#4,L,1228.65625
66,68,2457.5,F#4,L,1228.75
66,0,2457.5,F#4,L,1228.75
70,0,2457.5,A#4,R,1228.75
82,53,2457.6875,A#5,L,1228.84375
76,57,2457.6875,E5,L,1228.84375
66,0,2457.6875,F#4,L,1228.84375
85,69,2457.75,C#6,R,1228.875
82,0,2457.75,A#5,L,1228.875
76,0,2457.75,E5,L,1228.875
85,0,2458.0,C#6,R,1229.0
65,77,2458.0625,F4,L,1229.03125
70,81,2458.0625,A#4,R,1229.03125
65,0,2458.25,F4,L,1229.125
70,0,2458.25,A#4,R,1229.125
82,44,2458.5,A#5,L,1229.25
85,68,2458.5,C#6,R,1229.25
77,64,2458.5,F5,L,1229.25
85,0,2458.75,C#6,R,1229.375
85,68,2458.75,C#6,R,1229.375
85,0,2458.84375,C#6,R,1229.421875
65,59,2458.84375,F4,R,1229.421875
53,61,2458.875,F3,L,1229.4375
65,0,2458.875,F4,R,1229.4375
82,0,2458.875,A#5,L,1229.4375
77,0,2458.875,F5,L,1229.4375
65,59,2458.875,F4,R,1229.4375
65,0,2459.0,F4,R,1229.5
53,0,2459.0,F3,L,1229.5
84,65,2459.25,C6,R,1229.625
75,61,2459.25,D#5,L,1229.625
81,31,2459.25,A5,L,1229.625
81,0,2459.5,A5,L,1229.75
84,0,2459.5,C6,R,1229.75
75,0,2459.5,D#5,L,1229.75
58,62,2459.625,A#3,L,1229.8125
65,60,2459.625,F4,R,1229.8125
58,0,2460.0,A#3,L,1230.0
65,0,2460.0,F4,R,1230.0
82,71,2460.0625,A#5,R,1230.03125
77,35,2460.0625,F5,L,1230.03125
73,60,2460.0625,C#5,L,1230.03125
82,0,2460.25,A#5,R,1230.125
82,71,2460.25,A#5,R,1230.125
77,0,2460.25,F5,L,1230.125
73,0,2460.25,C#5,L,1230.125
73,60,2460.25,C#5,L,1230.125
77,35,2460.25,F5,L,1230.125
51,60,2460.4375,D#3,R,1230.21875
82,0,2460.4375,A#5,R,1230.21875
51,0,2460.5,D#3,R,1230.25
73,0,2460.75,C#5,L,1230.375
77,0,2460.75,F5,L,1230.375
66,46,2460.8125,F#4,L,1230.40625
72,44,2460.8125,C5,L,1230.40625
75,66,2460.8125,D#5,R,1230.40625
66,0,2461.0,F#4,L,1230.5
72,0,2461.0,C5,L,1230.5
75,0,2461.0,D#5,R,1230.5
53,57,2461.125,F3,R,1230.5625
53,0,2461.5,F3,R,1230.75
70,35,2461.5,A#4,L,1230.75
65,37,2461.5,F4,L,1230.75
73,59,2461.5,C#5,R,1230.75
54,67,2461.875,F#3,R,1230.9375
73,0,2461.875,C#5,R,1230.9375
70,0,2462.0,A#4,L,1231.0
65,0,2462.0,F4,L,1231.0
54,0,2462.0,F#3,R,1231.0
64,54,2462.25,E4,L,1231.125
73,71,2462.25,C#5,R,1231.125
70,66,2462.25,A#4,L,1231.125
73,71,2462.5,C#5,R,1231.25
73,0,2462.5,C#5,R,1231.25
55,75,2462.6875,G3,R,1231.34375
73,0,2462.6875,C#5,R,1231.34375
55,0,2462.75,G3,R,1231.375
64,62,2463.0,E4,L,1231.5
73,71,2463.0,C#5,R,1231.5
64,0,2463.0,E4,L,1231.5
70,0,2463.0,A#4,L,1231.5
70,59,2463.0,A#4,L,1231.5
73,0,2463.375,C#5,R,1231.6875
52,66,2463.4375,E3,R,1231.71875
52,0,2463.5,E3,R,1231.75
70,60,2463.75,A#4,L,1231.875
70,0,2463.75,A#4,L,1231.875
64,51,2463.75,E4,L,1231.875
67,30,2463.75,G4,L,1231.875
73,61,2463.75,C#5,R,1231.875
64,0,2463.75,E4,L,1231.875
64,0,2464.0,E4,L,1232.0
73,0,2464.0,C#5,R,1232.0
70,0,2464.0,A#4,L,1232.0
67,0,2464.0,G4,L,1232.0
49,59,2464.25,C#3,R,1232.125
69,49,2464.5,A4,L,1232.25
73,61,2464.5,C#5,R,1232.25
49,0,2464.5,C#3,R,1232.25
64,44,2464.5,E4,L,1232.25
73,0,2464.625,C#5,R,1232.3125
67,20,2464.625,G4,R,1232.3125
67,0,2464.875,G4,R,1232.4375
45,63,2464.875,A2,R,1232.4375
69,0,2465.0,A4,L,1232.5
64,0,2465.0,E4,L,1232.5
45,0,2465.0,A2,R,1232.5
67,31,2465.25,G4,L,1232.625
69,50,2465.25,A4,L,1232.625
64,49,2465.25,E4,L,1232.625
73,49,2465.25,C#5,R,1232.625
73,0,2465.5,C#5,R,1232.75
43,60,2465.625,G2,R,1232.8125
64,0,2466.0,E4,L,1233.0
67,0,2466.0,G4,L,1233.0
69,0,2466.0,A4,L,1233.0
43,0,2466.0,G2,R,1233.0
64,34,2466.0625,E4,L,1233.03125
69,42,2466.0625,A4,L,1233.03125
73,59,2466.0625,C#5,R,1233.03125
73,0,2466.25,C#5,R,1233.125
64,0,2466.25,E4,L,1233.125
69,0,2466.25,A4,L,1233.125
64,34,2466.25,E4,L,1233.125
69,42,2466.25,A4,L,1233.125
40,62,2466.5,E2,R,1233.25
69,0,2466.75,A4,L,1233.375
40,0,2466.75,E2,R,1233.375
64,0,2466.75,E4,L,1233.375
69,38,2466.8125,A4,L,1233.40625
73,56,2466.8125,C#5,R,1233.40625
64,46,2466.8125,E4,L,1233.40625
64,0,2467.0,E4,L,1233.5
69,0,2467.0,A4,L,1233.5
73,0,2467.0,C#5,R,1233.5
42,68,2467.125,F#2,R,1233.5625
69,31,2467.5,A4,L,1233.75
62,54,2467.5,D4,L,1233.75
74,36,2467.5,D5,R,1233.75
42,0,2467.5,F#2,R,1233.75
43,60,2467.875,G2,R,1233.9375
74,0,2467.875,D5,R,1233.9375
43,0,2468.0,G2,R,1234.0
62,0,2468.0,D4,L,1234.0
69,0,2468.0,A4,L,1234.0
71,62,2468.25,B4,R,1234.125
67,56,2468.25,G4,L,1234.125
62,52,2468.25,D4,L,1234.125
71,62,2468.5,B4,R,1234.25
71,0,2468.5,B4,R,1234.25
45,68,2468.6875,A2,R,1234.34375
71,0,2468.6875,B4,R,1234.34375
45,0,2468.75,A2,R,1234.375
62,0,2469.0,D4,L,1234.5
67,0,2469.0,G4,L,1234.5
69,61,2469.0,A4,R,1234.5
62,57,2469.0,D4,L,1234.5
66,52,2469.0,F#4,L,1234.5
33,68,2469.375,A1,R,1234.6875
69,0,2469.375,A4,R,1234.6875
33,0,2469.5,A1,R,1234.75
66,64,2469.75,F#4,R,1234.875
62,0,2469.75,D4,L,1234.875
57,52,2469.75,A3,L,1234.875
62,48,2469.75,D4,L,1234.875
66,0,2469.75,F#4,L,1234.875
57,0,2470.0,A3,L,1235.0
62,0,2470.0,D4,L,1235.0
66,0,2470.0,F#4,R,1235.0
45,62,2470.125,A2,R,1235.0625
64,36,2470.5,E4,L,1235.25
45,0,2470.5,A2,R,1235.25
57,51,2470.5,A3,L,1235.25
67,61,2470.5,G4,R,1235.25
57,0,2470.875,A3,L,1235.4375
67,0,2470.875,G4,R,1235.4375
57,66,2470.875,A3,R,1235.4375
64,0,2470.875,E4,L,1235.4375
33,69,2470.875,A1,L,1235.4375
57,0,2471.0,A3,R,1235.5
61,59,2471.0,C#4,R,1235.5
33,0,2471.0,A1,L,1235.5
61,0,2471.125,C#4,R,1235.5625
64,51,2471.1875,E4,R,1235.59375
64,0,2471.25,E4,R,1235.625
67,70,2471.25,G4,R,1235.625
67,0,2471.5,G4,R,1235.75
69,57,2471.5625,A4,R,1235.78125
54,69,2471.5625,F#3,L,1235.78125
57,68,2471.5625,A3,L,1235.78125
71,36,2471.625,B4,R,1235.8125
69,0,2471.75,A4,R,1235.875
74,79,2471.75,D5,R,1235.875
54,0,2471.75,F#3,L,1235.875
71,0,2471.75,B4,R,1235.875
57,0,2471.75,A3,L,1235.875
50,68,2471.875,D3,L,1235.9375
74,0,2471.875,D5,R,1235.9375
78,67,2471.875,F#5,R,1235.9375
50,0,2472.0,D3,L,1236.0
78,0,2472.0,F#5,R,1236.0
81,62,2472.0625,A5,R,1236.03125
81,0,2472.25,A5,R,1236.125
85,72,2472.34375,C#6,R,1236.171875
52,69,2472.375,E3,L,1236.1875
55,67,2472.375,G3,L,1236.1875
85,0,2472.375,C#6,R,1236.1875
85,72,2472.375,C#6,R,1236.1875
55,0,2472.5,G3,L,1236.25
85,0,2472.5,C#6,R,1236.25
52,0,2472.5,E3,L,1236.25
88,69,2472.5,E6,R,1236.25
88,0,2472.6666666666665,E6,R,1236.3333333333333
91,65,2472.6666666666665,G6,R,1236.3333333333333
45,66,2472.75,A2,L,1236.375
91,0,2472.833333333333,G6,R,1236.4166666666665
93,72,2472.8333333333335,A6,R,1236.4166666666667
86,69,2473.0,D6,R,1236.5
93,0,2473.0,A6,R,1236.5
45,0,2473.0,A2,L,1236.5
50,81,2473.0625,D3,L,1236.53125
50,0,2473.25,D3,L,1236.625
86,0,2473.25,D6,R,1236.625
93,73,2473.25,A6,R,1236.625
50,81,2473.25,D3,L,1236.625
93,0,2473.5,A6,R,1236.75
90,64,2473.5833333333335,F#6,R,1236.7916666666667
93,70,2473.6666666666665,A6,R,1236.8333333333333
90,0,2473.666666666667,F#6,R,1236.8333333333335
93,0,2473.833333333333,A6,R,1236.9166666666665
86,61,2473.8333333333335,D6,R,1236.9166666666667
93,67,2474.0,A6,R,1237.0
50,0,2474.0,D3,L,1237.0
86,0,2474.0,D6,R,1237.0
62,61,2474.25,D4,L,1237.125
90,61,2474.25,F#6,R,1237.125
93,0,2474.25,A6,R,1237.125
93,63,2474.4375,A6,R,1237.21875
90,0,2474.4375,F#6,R,1237.21875
62,0,2474.5,D4,L,1237.25
93,63,2474.5,A6,R,1237.25
93,0,2474.5,A6,R,1237.25
55,85,2474.625,G3,L,1237.3125
86,63,2474.625,D6,R,1237.3125
93,0,2474.625,A6,R,1237.3125
86,0,2474.875,D6,R,1237.4375
95,69,2474.875,B6,R,1237.4375
55,0,2475.0,G3,L,1237.5
95,0,2475.0,B6,R,1237.5
91,41,2475.0,G6,R,1237.5
91,0,2475.25,G6,R,1237.625
95,69,2475.25,B6,R,1237.625
95,0,2475.375,B6,R,1237.6875
86,61,2475.4375,D6,R,1237.71875
86,0,2475.5,D6,R,1237.75
86,61,2475.5,D6,R,1237.75
86,0,2475.625,D6,R,1237.8125
95,70,2475.625,B6,R,1237.8125
95,0,2475.75,B6,R,1237.875
91,67,2475.75,G6,R,1237.875
67,71,2475.75,G4,L,1237.875
95,58,2476.0,B6,R,1238.0
91,0,2476.0,G6,R,1238.0
67,0,2476.0,G4,L,1238.0
95,0,2476.1666666666665,B6,R,1238.0833333333333
85,66,2476.1666666666665,C#6,R,1238.0833333333333
52,62,2476.1875,E3,L,1238.09375
85,0,2476.25,C#6,R,1238.125
52,0,2476.25,E3,L,1238.125
52,62,2476.25,E3,L,1238.125
85,66,2476.25,C#6,R,1238.125
95,57,2476.375,B6,R,1238.1875
85,0,2476.375,C#6,R,1238.1875
91,59,2476.5,G6,R,1238.25
95,0,2476.5,B6,R,1238.25
95,64,2476.75,B6,R,1238.375
91,0,2476.75,G6,R,1238.375
95,0,2477.0,B6,R,1238.5
85,63,2477.0,C#6,R,1238.5
52,0,2477.0,E3,L,1238.5
95,65,2477.125,B6,R,1238.5625
85,0,2477.125,C#6,R,1238.5625
65,50,2477.25,F4,L,1238.625
92,67,2477.25,G#6,R,1238.625
95,0,2477.25,B6,R,1238.625
53,52,2477.25,F3,L,1238.625
53,0,2477.5,F3,L,1238.75
65,0,2477.5,F4,L,1238.75
92,0,2477.5,G#6,R,1238.75
95,60,2477.5416666666665,B6,R,1238.7708333333333
95,0,2477.583333333333,B6,R,1238.7916666666665
66,73,2477.65625,F#4,L,1238.828125
54,77,2477.65625,F#3,L,1238.828125
85,66,2477.6666666666665,C#6,R,1238.8333333333333
66,0,2477.75,F#4,L,1238.875
54,0,2477.75,F#3,L,1238.875
85,0,2477.75,C#6,R,1238.875
94,68,2477.875,A#6,R,1238.9375
94,0,2478.0,A#6,R,1239.0
90,58,2478.0,F#6,R,1239.0
90,0,2478.2,F#6,R,1239.1
94,74,2478.2,A#6,R,1239.1
94,0,2478.3999999999996,A#6,R,1239.1999999999998
85,58,2478.4,C#6,R,1239.2
94,64,2478.6,A#6,R,1239.3
85,0,2478.6,C#6,R,1239.3
54,63,2478.75,F#3,L,1239.375
94,0,2478.7999999999997,A#6,R,1239.3999999999999
90,55,2478.8,F#6,R,1239.4
90,0,2479.0,F#6,R,1239.5
54,0,2479.0,F#3,L,1239.5
94,63,2479.0416666666665,A#6,R,1239.5208333333333
84,68,2479.1666666666665,C6,R,1239.5833333333333
94,0,2479.1666666666665,A#6,R,1239.5833333333333
50,78,2479.1875,D3,L,1239.59375
50,78,2479.25,D3,L,1239.625
50,0,2479.25,D3,L,1239.625
84,68,2479.25,C6,R,1239.625
84,0,2479.25,C6,R,1239.625
93,71,2479.375,A6,R,1239.6875
84,0,2479.375,C6,R,1239.6875
93,0,2479.5,A6,R,1239.75
90,60,2479.625,F#6,R,1239.8125
90,0,2479.75,F#6,R,1239.875
93,69,2479.8125,A6,R,1239.90625
93,0,2480.0,A6,R,1240.0
84,62,2480.0,C6,R,1240.0
50,0,2480.0,D3,L,1240.0
84,0,2480.25,C6,R,1240.125
93,66,2480.25,A6,R,1240.125
93,0,2480.375,A6,R,1240.1875
90,59,2480.375,F#6,R,1240.1875
62,63,2480.375,D4,L,1240.1875
90,0,2480.5,F#6,R,1240.25
93,70,2480.5,A6,R,1240.25
62,0,2480.5,D4,L,1240.25
43,74,2480.75,G2,L,1240.375
83,70,2480.75,B5,R,1240.375
93,0,2480.75,A6,R,1240.375
95,68,2481.0,B6,R,1240.5
43,0,2481.0,G2,L,1240.5
83,0,2481.0,B5,R,1240.5
95,0,2481.1666666666665,B6,R,1240.5833333333333
91,62,2481.1666666666665,G6,R,1240.5833333333333
91,0,2481.333333333333,G6,R,1240.6666666666665
95,71,2481.3333333333335,B6,R,1240.6666666666667
95,0,2481.5,B6,R,1240.75
83,69,2481.5,B5,R,1240.75
83,0,2481.75,B5,R,1240.875
91,66,2481.7916666666665,G6,R,1240.8958333333333
88,62,2481.9166666666665,E6,R,1240.9583333333333
91,0,2481.9166666666665,G6,R,1240.9583333333333
88,0,2482.0,E6,R,1241.0
55,67,2482.0,G3,R,1241.0
55,0,2482.125,G3,R,1241.0625
91,66,2482.125,G6,R,1241.0625
91,0,2482.25,G6,R,1241.125
81,61,2482.3125,A5,R,1241.15625
45,71,2482.3125,A2,L,1241.15625
91,61,2482.5,G6,R,1241.25
45,0,2482.5,A2,L,1241.25
81,0,2482.5,A5,R,1241.25
88,62,2482.75,E6,R,1241.375
91,0,2482.75,G6,R,1241.375
88,0,2482.875,E6,R,1241.4375
91,68,2482.9375,G6,R,1241.46875
91,68,2483.0,G6,R,1241.5
91,0,2483.0,G6,R,1241.5
81,63,2483.125,A5,R,1241.5625
91,0,2483.125,G6,R,1241.5625
81,0,2483.25,A5,R,1241.625
91,62,2483.3125,G6,R,1241.65625
91,0,2483.5,G6,R,1241.75
88,61,2483.5,E6,R,1241.75
57,55,2483.5625,A3,R,1241.78125
91,65,2483.6875,G6,R,1241.84375
57,0,2483.6875,A3,R,1241.84375
91,0,2483.75,G6,R,1241.875
91,65,2483.75,G6,R,1241.875
50,81,2483.875,D3,L,1241.9375
91,0,2483.875,G6,R,1241.9375
81,59,2483.875,A5,R,1241.9375
50,0,2484.0,D3,L,1242.0
81,59,2484.0,A5,R,1242.0
88,0,2484.0,E6,R,1242.0
81,0,2484.0,A5,R,1242.0
81,0,2484.1666666666665,A5,R,1242.0833333333333
90,68,2484.1666666666665,F#6,R,1242.0833333333333
90,0,2484.333333333333,F#6,R,1242.1666666666665
86,55,2484.3333333333335,D6,R,1242.1666666666667
90,66,2484.5,F#6,R,1242.25
86,0,2484.5,D6,R,1242.25
81,57,2484.75,A5,R,1242.375
90,0,2484.75,F#6,R,1242.375
90,63,2484.9375,F#6,R,1242.46875
81,0,2484.9375,A5,R,1242.46875
86,58,2485.0,D6,R,1242.5
90,0,2485.0,F#6,R,1242.5
62,66,2485.0625,D4,L,1242.53125
90,63,2485.25,F#6,R,1242.625
62,66,2485.25,D4,L,1242.625
62,0,2485.25,D4,L,1242.625
86,0,2485.25,D6,R,1242.625
90,0,2485.375,F#6,R,1242.6875
45,76,2485.4375,A2,R,1242.71875
45,0,2485.5,A2,R,1242.75
81,64,2485.5,A5,R,1242.75
81,0,2485.6666666666665,A5,R,1242.8333333333333
91,70,2485.7083333333335,G6,R,1242.8541666666667
91,70,2485.75,G6,R,1242.875
91,0,2485.75,G6,R,1242.875
88,64,2485.875,E6,R,1242.9375
91,0,2485.875,G6,R,1242.9375
88,0,2486.0,E6,R,1243.0
88,64,2486.0,E6,R,1243.0
62,0,2486.0,D4,L,1243.0
88,0,2486.125,E6,R,1243.0625
91,66,2486.125,G6,R,1243.0625
91,0,2486.25,G6,R,1243.125
81,62,2486.3125,A5,R,1243.15625
81,0,2486.5,A5,R,1243.25
91,64,2486.5,G6,R,1243.25
57,63,2486.625,A3,L,1243.3125
91,0,2486.6666666666665,G6,R,1243.3333333333333
88,62,2486.6666666666665,E6,R,1243.3333333333333
88,0,2486.833333333333,E6,R,1243.4166666666665
91,66,2486.8333333333335,G6,R,1243.4166666666667
57,0,2487.0,A3,L,1243.5
91,0,2487.0,G6,R,1243.5
50,79,2487.03125,D3,R,1243.515625
81,65,2487.0625,A5,R,1243.53125
50,79,2487.125,D3,R,1243.5625
50,0,2487.125,D3,R,1243.5625
90,72,2487.25,F#6,R,1243.625
81,0,2487.25,A5,R,1243.625
90,0,2487.375,F#6,R,1243.6875
86,60,2487.4375,D6,R,1243.71875
50,0,2487.5,D3,R,1243.75
86,0,2487.5,D6,R,1243.75
86,60,2487.5,D6,R,1243.75
90,70,2487.625,F#6,R,1243.8125
86,0,2487.625,D6,R,1243.8125
90,0,2487.75,F#6,R,1243.875
81,63,2487.8125,A5,R,1243.90625
81,0,2488.0,A5,R,1244.0
90,64,2488.0,F#6,R,1244.0
62,48,2488.0,D4,L,1244.0
86,62,2488.1666666666665,D6,R,1244.0833333333333
90,0,2488.1666666666665,F#6,R,1244.0833333333333
86,0,2488.333333333333,D6,R,1244.1666666666665
90,71,2488.3333333333335,F#6,R,1244.1666666666667
67,49,2488.5,G4,L,1244.25
64,52,2488.5,E4,L,1244.25
62,0,2488.5,D4,L,1244.25
81,62,2488.6666666666665,A5,R,1244.3333333333333
90,0,2488.666666666667,F#6,R,1244.3333333333335
81,0,2489.0,A5,R,1244.5
86,67,2489.0,D6,R,1244.5
64,0,2489.0,E4,L,1244.5
67,0,2489.0,G4,L,1244.5
57,54,2489.0,A3,L,1244.5
85,78,2489.25,C#6,R,1244.625
85,0,2489.5,C#6,R,1244.75
85,78,2489.5,C#6,R,1244.75
67,50,2489.5,G4,R,1244.75
64,58,2489.5,E4,L,1244.75
86,0,2489.5,D6,R,1244.75
57,0,2489.75,A3,L,1244.875
88,80,2489.75,E6,R,1244.875
57,60,2489.75,A3,L,1244.875
86,74,2490.0,D6,R,1245.0
85,0,2490.0,C#6,R,1245.0
67,0,2490.0,G4,R,1245.0
57,60,2490.0,A3,L,1245.0
64,0,2490.0,E4,L,1245.0
88,80,2490.0,E6,R,1245.0
57,0,2490.0,A3,L,1245.0
88,0,2490.0,E6,R,1245.0
62,53,2490.0,D4,L,1245.0
86,74,2490.25,D6,R,1245.125
66,51,2490.25,F#4,R,1245.125
86,0,2490.25,D6,R,1245.125
66,51,2490.5,F#4,R,1245.25
86,0,2490.5,D6,R,1245.25
66,0,2490.5,F#4,R,1245.25
57,42,2490.5,A3,L,1245.25
90,68,2490.5,F#6,R,1245.25
88,0,2490.5,E6,R,1245.25
62,0,2490.5,D4,L,1245.25
57,0,2490.5,A3,L,1245.25
66,0,2490.75,F#4,R,1245.375
86,63,2490.75,D6,R,1245.375
57,0,2491.0,A3,L,1245.5
62,45,2491.0,D4,L,1245.5
90,0,2491.0,F#6,R,1245.5
86,0,2491.0,D6,R,1245.5
66,47,2491.0,F#4,R,1245.5
86,63,2491.0,D6,R,1245.5
86,0,2491.25,D6,R,1245.625
83,64,2491.25,B5,R,1245.625
86,63,2491.25,D6,R,1245.625
66,0,2491.25,F#4,R,1245.625
62,0,2491.3333333333335,D4,L,1245.6666666666667
57,49,2491.3333333333335,A3,L,1245.6666666666667
57,0,2491.8333333333335,A3,L,1245.9166666666667
64,48,2491.8333333333335,E4,L,1245.9166666666667
83,0,2492.0,B5,R,1246.0
64,0,2492.0,E4,L,1246.0
81,66,2492.0,A5,R,1246.0
86,0,2492.0,D6,R,1246.0
64,48,2492.0,E4,L,1246.0
57,55,2492.0,A3,L,1246.0
67,49,2492.25,G4,R,1246.125
64,48,2492.5,E4,L,1246.25
64,0,2492.5,E4,L,1246.25
67,0,2492.5,G4,R,1246.25
86,81,2492.5,D6,R,1246.25
85,88,2492.5,C#6,L,1246.25
57,0,2492.5,A3,L,1246.25
86,81,2492.625,D6,R,1246.3125
67,64,2492.625,G4,R,1246.3125
86,0,2492.625,D6,R,1246.3125
64,58,2492.75,E4,L,1246.375
64,0,2492.75,E4,L,1246.375
57,58,2493.0,A3,L,1246.5
88,84,2493.0,E6,R,1246.5
86,0,2493.0,D6,R,1246.5
67,0,2493.0,G4,R,1246.5
81,0,2493.0,A5,R,1246.5
85,0,2493.0,C#6,L,1246.5
64,0,2493.0,E4,L,1246.5
86,79,2493.1666666666665,D6,R,1246.5833333333333
88,0,2493.1666666666665,E6,R,1246.5833333333333
88,84,2493.1666666666665,E6,R,1246.5833333333333
86,0,2493.333333333333,D6,R,1246.6666666666665
88,0,2493.333333333333,E6,R,1246.6666666666665
86,79,2493.3333333333335,D6,R,1246.6666666666667
66,57,2493.3333333333335,F#4,R,1246.6666666666667
88,84,2493.3333333333335,E6,R,1246.6666666666667
57,0,2493.5,A3,L,1246.75
62,54,2493.5,D4,L,1246.75
86,79,2493.6666666666665,D6,R,1246.8333333333333
90,82,2493.6666666666665,F#6,R,1246.8333333333333
88,0,2493.666666666667,E6,R,1246.8333333333335
66,0,2493.666666666667,F#4,R,1246.8333333333335
86,0,2493.666666666667,D6,R,1246.8333333333335
57,59,2493.75,A3,L,1246.875
90,0,2494.0,F#6,R,1247.0
62,58,2494.0,D4,L,1247.0
62,0,2494.0,D4,L,1247.0
86,76,2494.0,D6,R,1247.0
57,59,2494.0,A3,L,1247.0
57,0,2494.0,A3,L,1247.0
86,0,2494.0,D6,R,1247.0
66,67,2494.25,F#4,L,1247.125
62,58,2494.25,D4,L,1247.125
62,0,2494.25,D4,L,1247.125
83,79,2494.5,B5,R,1247.25
86,0,2494.5,D6,R,1247.25
57,64,2494.5,A3,L,1247.25
66,0,2494.5,F#4,L,1247.25
62,0,2494.5,D4,L,1247.25
62,56,2495.0,D4,L,1247.5
57,0,2495.0,A3,L,1247.5
57,0,2495.0,A3,L,1247.5
81,79,2495.0,A5,R,1247.5
83,0,2495.0,B5,R,1247.5
66,67,2495.0,F#4,L,1247.5
83,84,2495.25,B5,R,1247.625
57,66,2495.25,A3,L,1247.625
66,0,2495.25,F#4,L,1247.625
62,0,2495.25,D4,L,1247.625
81,83,2495.5,A5,R,1247.75
81,0,2495.5,A5,R,1247.75
57,0,2495.75,A3,L,1247.875
66,67,2495.75,F#4,R,1247.875
81,0,2495.75,A5,R,1247.875
81,83,2495.75,A5,R,1247.875
62,59,2495.75,D4,L,1247.875
83,0,2496.0,B5,R,1248.0
62,0,2496.0,D4,L,1248.0
57,69,2496.0,A3,L,1248.0
66,0,2496.0,F#4,R,1248.0
81,0,2496.0,A5,R,1248.0
78,86,2496.0,F#5,R,1248.0
62,59,2496.4,D4,L,1248.2
66,70,2496.4,F#4,L,1248.2
74,85,2496.4,D5,R,1248.2
57,0,2496.4,A3,L,1248.2
78,0,2496.4,F#5,R,1248.2
57,72,2496.8,A3,L,1248.4
66,0,2496.8,F#4,L,1248.4
62,0,2496.8,D4,L,1248.4
74,0,2496.8,D5,R,1248.4
78,82,2496.8,F#5,R,1248.4
74,81,2497.2,D5,R,1248.6
62,69,2497.2,D4,L,1248.6
66,68,2497.2,F#4,L,1248.6
57,0,2497.2000000000003,A3,L,1248.6000000000001
78,0,2497.2000000000003,F#5,R,1248.6000000000001
57,70,2497.6,A3,L,1248.8
66,0,2497.6,F#4,L,1248.8
62,0,2497.6,D4,L,1248.8
71,77,2497.6,B4,R,1248.8
74,0,2497.6,D5,R,1248.8
71,0,2498.0,B4,R,1249.0
69,82,2498.0,A4,R,1249.0
57,0,2498.0,A3,L,1249.0
64,68,2498.0,E4,L,1249.0
67,73,2498.0625,G4,R,1249.03125
67,0,2498.25,G4,R,1249.125
69,0,2498.375,A4,R,1249.1875
71,71,2498.375,B4,R,1249.1875
69,74,2498.4375,A4,R,1249.21875
69,0,2498.5,A4,R,1249.25
71,0,2498.5,B4,R,1249.25
64,0,2498.5,E4,L,1249.25
69,74,2498.5,A4,R,1249.25
68,84,2498.5,G#4,R,1249.25
57,72,2498.5,A3,L,1249.25
69,0,2498.75,A4,R,1249.375
64,71,2498.75,E4,L,1249.375
67,72,2498.75,G4,L,1249.375
68,0,2498.75,G#4,R,1249.375
69,81,2498.75,A4,R,1249.375
57,0,2498.75,A3,L,1249.375
64,0,2499.0,E4,L,1249.5
67,0,2499.0,G4,L,1249.5
69,0,2499.0,A4,R,1249.5
73,89,2499.0,C#5,R,1249.5
57,79,2499.0625,A3,L,1249.53125
57,0,2499.25,A3,L,1249.625
45,78,2499.5,A2,L,1249.75
33,88,2499.5,A1,L,1249.75
73,0,2499.5,C#5,R,1249.75
62,77,2499.625,D4,R,1249.8125
63,82,2499.875,D#4,R,1249.9375
33,0,2500.0,A1,L,1250.0
64,79,2500.0,E4,R,1250.0
45,0,2500.0,A2,L,1250.0
63,82,2500.0,D#4,R,1250.0
62,0,2500.0,D4,R,1250.0
63,0,2500.0,D#4,R,1250.0
65,81,2500.25,F4,R,1250.125
64,0,2500.25,E4,R,1250.125
33,91,2500.5,A1,L,1250.25
63,0,2500.5,D#4,R,1250.25
45,80,2500.5,A2,R,1250.25
65,0,2500.5,F4,R,1250.25
66,85,2500.625,F#4,R,1250.3125
67,84,2500.75,G4,R,1250.375
66,0,2500.75,F#4,R,1250.375
67,0,2500.875,G4,R,1250.4375
68,83,2500.875,G#4,R,1250.4375
45,0,2501.0,A2,R,1250.5
33,99,2501.0,A1,L,1250.5
45,91,2501.0,A2,L,1250.5
33,0,2501.0,A1,L,1250.5
68,0,2501.0,G#4,R,1250.5
69,76,2501.1,A4,R,1250.55
70,85,2501.2,A#4,R,1250.6
69,0,2501.2,A4,R,1250.6
70,0,2501.3999999999996,A#4,R,1250.6999999999998
71,73,2501.4,B4,R,1250.7
71,0,2501.6,B4,R,1250.8
72,81,2501.6,C5,R,1250.8
72,0,2501.7999999999997,C5,R,1250.8999999999999
73,82,2501.8,C#5,R,1250.9
45,0,2502.0,A2,L,1251.0
45,95,2502.0,A2,L,1251.0
33,0,2502.0,A1,L,1251.0
74,87,2502.0,D5,R,1251.0
33,103,2502.0,A1,L,1251.0
73,0,2502.0,C#5,R,1251.0
74,0,2502.2,D5,R,1251.1
75,84,2502.2,D#5,R,1251.1
75,0,2502.3999999999996,D#5,R,1251.1999999999998
76,79,2502.4,E5,R,1251.2
76,0,2502.6,E5,R,1251.3
77,83,2502.6,F5,R,1251.3
78,91,2502.7,F#5,R,1251.35
77,0,2502.7,F5,R,1251.35
33,0,2502.75,A1,L,1251.375
45,0,2502.75,A2,L,1251.375
33,99,2502.75,A1,L,1251.375
45,98,2502.75,A2,L,1251.375
79,78,2503.0,G5,R,1251.5
45,98,2503.0,A2,L,1251.5
33,0,2503.0,A1,L,1251.5
45,0,2503.0,A2,L,1251.5
33,99,2503.0,A1,L,1251.5
78,0,2503.0,F#5,R,1251.5
79,0,2503.1666666666665,G5,R,1251.5833333333333
80,82,2503.1666666666665,G#5,R,1251.5833333333333
80,0,2503.333333333333,G#5,R,1251.6666666666665
81,77,2503.3333333333335,A5,R,1251.6666666666667
33,0,2503.5,A1,L,1251.75
81,0,2503.5,A5,R,1251.75
82,82,2503.5,A#5,R,1251.75
33,101,2503.5,A1,L,1251.75
45,0,2503.5,A2,L,1251.75
45,94,2503.5,A2,L,1251.75
82,0,2503.75,A#5,R,1251.875
83,79,2503.75,B5,R,1251.875
84,82,2503.875,C6,R,1251.9375
84,82,2504.0,C6,R,1252.0
45,0,2504.0,A2,L,1252.0
84,0,2504.0,C6,R,1252.0
83,0,2504.0,B5,R,1252.0
33,0,2504.0,A1,L,1252.0
85,86,2504.0,C#6,R,1252.0
45,98,2504.25,A2,L,1252.125
33,101,2504.25,A1,L,1252.125
85,0,2504.25,C#6,R,1252.125
86,87,2504.3125,D6,R,1252.15625
86,0,2504.5,D6,R,1252.25
87,82,2504.5,D#6,R,1252.25
87,0,2504.6666666666665,D#6,R,1252.3333333333333
88,82,2504.6666666666665,E6,R,1252.3333333333333
88,0,2504.833333333333,E6,R,1252.4166666666665
89,86,2504.8333333333335,F6,R,1252.4166666666667
45,94,2505.0,A2,L,1252.5
33,97,2505.0,A1,L,1252.5
45,0,2505.0,A2,L,1252.5
33,0,2505.0,A1,L,1252.5
84,0,2505.0,C6,R,1252.5
90,85,2505.0,F#6,R,1252.5
89,0,2505.0,F6,R,1252.5
91,83,2505.25,G6,R,1252.625
90,0,2505.25,F#6,R,1252.625
33,0,2505.375,A1,L,1252.6875
45,89,2505.375,A2,L,1252.6875
92,91,2505.375,G#6,R,1252.6875
33,93,2505.375,A1,L,1252.6875
45,0,2505.375,A2,L,1252.6875
92,91,2505.5,G#6,R,1252.75
92,0,2505.5,G#6,R,1252.75
45,0,2505.5,A2,L,1252.75
33,0,2505.5,A1,L,1252.75
91,0,2505.5,G6,R,1252.75
93,88,2505.5,A6,R,1252.75
86,99,2505.75,D6,R,1252.875
93,0,2505.75,A6,R,1252.875
50,92,2505.8125,D3,L,1252.90625
86,0,2505.8125,D6,R,1252.90625
38,85,2505.84375,D2,R,1252.921875
48,74,2505.84375,C3,R,1252.921875
50,0,2505.875,D3,L,1252.9375
36,78,2505.875,C2,L,1252.9375
38,0,2505.875,D2,R,1252.9375
48,0,2505.875,C3,R,1252.9375
38,85,2505.875,D2,R,1252.9375
48,74,2505.875,C3,R,1252.9375
38,0,2506.0,D2,R,1253.0
48,0,2506.0,C3,R,1253.0
36,0,2506.0,C2,L,1253.0
92,0,2506.0,G#6,R,1253.0
76,102,2507.34375,E5,R,1253.671875
79,99,2507.34375,G5,R,1253.671875
33,108,2507.34375,A1,L,1253.671875
40,94,2507.34375,E2,L,1253.671875
81,97,2507.34375,A5,R,1253.671875
85,102,2507.34375,C#6,R,1253.671875
45,100,2507.34375,A2,L,1253.671875
37,98,2507.34375,C#2,L,1253.671875
37,0,2507.375,C#2,L,1253.6875
33,0,2507.375,A1,L,1253.6875
81,97,2507.375,A5,R,1253.6875
45,100,2507.375,A2,L,1253.6875
33,108,2507.375,A1,L,1253.6875
76,0,2507.375,E5,R,1253.6875
79,0,2507.375,G5,R,1253.6875
81,0,2507.375,A5,R,1253.6875
85,0,2507.375,C#6,R,1253.6875
76,102,2507.375,E5,R,1253.6875
79,99,2507.375,G5,R,1253.6875
45,0,2507.375,A2,L,1253.6875
37,98,2507.375,C#2,L,1253.6875
40,94,2507.375,E2,L,1253.6875
85,102,2507.375,C#6,R,1253.6875
40,0,2507.375,E2,L,1253.6875
81,0,2507.5,A5,R,1253.75
79,0,2507.5,G5,R,1253.75
45,0,2507.5,A2,L,1253.75
76,0,2507.5,E5,R,1253.75
85,0,2507.5,C#6,R,1253.75
37,0,2507.5,C#2,L,1253.75
40,0,2507.5,E2,L,1253.75
33,0,2507.5,A1,L,1253.75
86,107,2509.125,D6,R,1254.5625
45,97,2509.125,A2,L,1254.5625
50,101,2509.125,D3,L,1254.5625
74,113,2509.125,D5,R,1254.5625
78,102,2509.125,F#5,R,1254.5625
81,92,2509.125,A5,R,1254.5625
38,96,2509.125,D2,L,1254.5625
42,101,2509.125,F#2,L,1254.5625
86,0,2509.25,D6,R,1254.625
74,0,2509.25,D5,R,1254.625
78,0,2509.25,F#5,R,1254.625
81,0,2509.25,A5,R,1254.625
84,3,2509.3125,C6,R,1254.65625
42,0,2509.5,F#2,L,1254.75
84,0,2509.5,C6,R,1254.75
45,0,2509.5,A2,L,1254.75
38,0,2509.5,D2,L,1254.75
50,0,2509.5,D3,L,1254.75
